<?xml version="1.0" encoding="utf-8"?>
<!-- Generator: Adobe Illustrator 28.0.0, SVG Export Plug-In . SVG Version: 6.00 Build 0)  -->
<svg version="1.1" id="Layer_1" xmlns="http://www.w3.org/2000/svg" xmlns:xlink="http://www.w3.org/1999/xlink" x="0px" y="0px"
	 viewBox="0 0 512 512" style="enable-background:new 0 0 512 512;" xml:space="preserve">
<style type="text/css">
	.st0{fill:none;stroke:#000000;stroke-width:2;stroke-miterlimit:10;}
</style>
<path class="st0" d="M495.66,395.26H30.34c-6.26,0-11.34-5.08-11.34-11.34V51.43c0-6.26,5.08-11.34,11.34-11.34h465.31
	c6.26,0,11.34,5.08,11.34,11.34v332.49C507,390.18,501.92,395.26,495.66,395.26z"/>
<path class="st0" d="M477.92,297.08H48.08c-3.3,0-5.98-2.68-5.98-5.98V69.17c0-3.3,2.68-5.98,5.98-5.98h429.84
	c3.3,0,5.98,2.68,5.98,5.98V291.1C483.9,294.4,481.22,297.08,477.92,297.08z"/>
<line class="st0" x1="19" y1="320.18" x2="507" y2="320.18"/>
<path class="st0" d="M453.41,484.77H75.48c-2.49,0-4.5-2.01-4.5-4.5v-16.99c0-2.49,2.01-4.5,4.5-4.5h377.93c2.49,0,4.5,2.01,4.5,4.5
	v16.99C457.91,482.76,455.9,484.77,453.41,484.77z"/>
<line class="st0" x1="189.37" y1="395.26" x2="177.82" y2="458.78"/>
<line class="st0" x1="336.63" y1="395.26" x2="348.18" y2="458.78"/>
<circle class="st0" cx="263" cy="356.27" r="18.77"/>
</svg>
