<?xml version="1.0" encoding="utf-8"?>
<!-- Generator: Adobe Illustrator 28.0.0, SVG Export Plug-In . SVG Version: 6.00 Build 0)  -->
<svg version="1.1" id="Layer_1" xmlns="http://www.w3.org/2000/svg" xmlns:xlink="http://www.w3.org/1999/xlink" x="0px" y="0px"
	 viewBox="0 0 512 512" style="enable-background:new 0 0 512 512;" xml:space="preserve">
<style type="text/css">
	.st0{fill:none;stroke:url(#SVGID_1_);stroke-width:15;stroke-miterlimit:10;}
	.st1{fill:none;stroke:url(#SVGID_00000178898214293062821510000018186641004944727697_);stroke-width:15;stroke-miterlimit:10;}
	.st2{fill:none;stroke:url(#SVGID_00000134939431435872383110000012669035020444018352_);stroke-width:15;stroke-miterlimit:10;}
	.st3{fill:none;stroke:#000000;stroke-width:15;stroke-miterlimit:10;}
	.st4{fill:none;stroke:url(#SVGID_00000120546650953879431020000008544761097880485788_);stroke-width:15;stroke-miterlimit:10;}
	.st5{fill:none;stroke:url(#SVGID_00000014615805538879232770000010128589446827164042_);stroke-width:15;stroke-miterlimit:10;}
</style>
<linearGradient id="SVGID_1_" gradientUnits="userSpaceOnUse" x1="190.6471" y1="349.5009" x2="206.5201" y2="349.5009" gradientTransform="matrix(0.9992 0.04 -0.04 0.9992 14.1273 -7.6576)">
	<stop  offset="0" style="stop-color:#14D5FB"/>
	<stop  offset="1" style="stop-color:#D226E1"/>
</linearGradient>
<line class="st0" x1="198.58" y1="338.43" x2="198.58" y2="360.57"/>
<linearGradient id="SVGID_00000056408019509077121210000008763375373784656032_" gradientUnits="userSpaceOnUse" x1="302.8889" y1="347.5879" x2="318.762" y2="347.5879">
	<stop  offset="0" style="stop-color:#14D5FB"/>
	<stop  offset="1" style="stop-color:#D226E1"/>
</linearGradient>
<line style="fill:none;stroke:url(#SVGID_00000056408019509077121210000008763375373784656032_);stroke-width:15;stroke-miterlimit:10;" x1="310.38" y1="336.52" x2="311.27" y2="358.65"/>
<linearGradient id="SVGID_00000036966725725414436320000016845729716750257076_" gradientUnits="userSpaceOnUse" x1="147.1168" y1="414.6293" x2="365.6748" y2="414.6293">
	<stop  offset="0" style="stop-color:#14D5FB"/>
	<stop  offset="1" style="stop-color:#D226E1"/>
</linearGradient>
<path style="fill:none;stroke:url(#SVGID_00000036966725725414436320000016845729716750257076_);stroke-width:15;stroke-miterlimit:10;" d="
	M318.37,469.28H194.42c-21.98,0-39.81-17.82-39.81-39.81v-29.69c0-21.98,17.82-39.81,39.81-39.81h123.94
	c21.98,0,39.81,17.82,39.81,39.81v29.69C358.17,451.46,340.35,469.28,318.37,469.28z"/>
<path class="st3" d="M236.04,304.66c2.6-24.68,7.57-53.26,16.73-84.25c17.4-58.86,43.38-104.28,65.14-135.68"/>
<path class="st3" d="M241.35,283.42c41.69-14.6,53.85-31.73,57.53-38.06c3.13-5.39,4.66-10.78,12.39-23.9
	c7.27-12.32,10.87-15.96,9.74-21.24c-2.15-9.99-18.27-12.04-17.7-16.82c0.55-4.59,15.35-1.94,26.55-8.85
	c7.49-4.62,14.84-14.44,18.59-82.31c2.39-43.43,0.6-50.68-3.54-50.45c-14.5,0.81-64.73,34.84-72.57,36.29"/>
<path class="st3" d="M254.18,91.81c-11.44,10-23.08,23.63-21.24,38.06c1.8,14.12,15.72,22.67,12.39,29.21
	c-3.23,6.35-17.51,0.57-25.67,5.31c-10.71,6.22-5.88,45.39,19.03,127"/>
<linearGradient id="SVGID_00000150092682978455284350000017517668038927898510_" gradientUnits="userSpaceOnUse" x1="155.0555" y1="400.69" x2="358.6212" y2="400.69">
	<stop  offset="0" style="stop-color:#14D5FB"/>
	<stop  offset="1" style="stop-color:#D226E1"/>
</linearGradient>
<line style="fill:none;stroke:url(#SVGID_00000150092682978455284350000017517668038927898510_);stroke-width:15;stroke-miterlimit:10;" x1="155.06" y1="400.69" x2="358.62" y2="400.69"/>
<linearGradient id="SVGID_00000148644758952390932820000018054720560738565504_" gradientUnits="userSpaceOnUse" x1="170.1277" y1="323.2495" x2="340.0088" y2="323.2495">
	<stop  offset="0" style="stop-color:#14D5FB"/>
	<stop  offset="1" style="stop-color:#D226E1"/>
</linearGradient>
<path style="fill:none;stroke:url(#SVGID_00000148644758952390932820000018054720560738565504_);stroke-width:15;stroke-miterlimit:10;" d="
	M320.12,335.64h-130.1c-6.84,0-12.39-5.55-12.39-12.39v0c0-6.84,5.55-12.39,12.39-12.39h130.1c6.84,0,12.39,5.55,12.39,12.39v0
	C332.51,330.09,326.96,335.64,320.12,335.64z"/>
</svg>
