<?xml version="1.0" encoding="utf-8"?>
<!-- Generator: Adobe Illustrator 28.0.0, SVG Export Plug-In . SVG Version: 6.00 Build 0)  -->
<svg version="1.1" id="Layer_1" xmlns="http://www.w3.org/2000/svg" xmlns:xlink="http://www.w3.org/1999/xlink" x="0px" y="0px"
	 viewBox="0 0 512 512" style="enable-background:new 0 0 512 512;" xml:space="preserve">
<style type="text/css">
	.st0{fill:none;stroke:#000000;stroke-width:4;stroke-miterlimit:10;}
</style>
<path class="st0" d="M185.5,364.5c-0.13,0.03-1.39-1.18-3.9-3.6c-1.94-1.87-3.58-3.49-3.9-3.81c-18.99-19.12-31.2-41.59-31.2-41.59
	c-8.78-16.15-18.7-34.31-19-59c-0.23-19.26,5.43-33.74,11-48c11.62-29.73,20.56-29.99,29-55c10.36-30.71,1.64-44.46,11-50
	c17.3-10.25,59.75,29.27,82,57c16.15,20.13,26.88,33.5,29,54c1.97,19.03-6.02,37.02-22,73c-14.53,32.72-18.55,33.12-24,53
	c-3.94,14.38-9.87,37.04-3,62c6.59,23.95,21.77,38.39,21,39c-1.89,1.49-31.25-20.89-50-58c-5.8-11.47-21.89-43.34-18-83
	c2.63-26.83,12.44-37.07,13-74c0.25-16.32-1.36-34.84-4-35c-2.44-0.15-4.35,15.39-11,45c-9.37,41.74-11.45,37.1-13,52
	C174.44,327.43,188.13,363.86,185.5,364.5z"/>
<path class="st0" d="M255.5,388.5c-10.33-7.96,3.55-43.31,14-62c6.38-11.41,15.35-27.01,34-39c25.17-16.19,50.99-14.85,64-14
	c30.66,2.01,59.98,15.58,59,21c-0.4,2.2-5.5,1.59-12,4c-19.13,7.08-21.11,29.38-34,51c-18.05,30.27-47.79,42.93-55,46
	c-28.96,12.33-58.47,9.9-59,7c-0.37-2.01,13.46-2.84,31-14c17.82-11.34,27.92-25.99,34-35c7.79-11.54,14.46-25.02,13-26
	c-1.59-1.07-11.03,14.02-27,29C299.49,373.39,266.16,396.71,255.5,388.5z"/>
</svg>
