<?xml version="1.0" encoding="utf-8"?>
<!-- Generator: Adobe Illustrator 28.0.0, SVG Export Plug-In . SVG Version: 6.00 Build 0)  -->
<svg version="1.1" id="Layer_1" xmlns="http://www.w3.org/2000/svg" xmlns:xlink="http://www.w3.org/1999/xlink" x="0px" y="0px"
	 viewBox="0 0 512 512" style="enable-background:new 0 0 512 512;" xml:space="preserve">
<style type="text/css">
	.st0{fill:none;stroke:#000000;stroke-width:4;stroke-miterlimit:10;}
	.st1{fill:url(#SVGID_1_);}
	.st2{fill:url(#SVGID_00000162348382150741748800000008325797490534446216_);}
	.st3{fill:url(#SVGID_00000070094239003516459480000015173980351226795136_);}
	.st4{fill:url(#SVGID_00000153673147932422542830000000245016916646332818_);}
	.st5{fill:url(#SVGID_00000110466601867266127900000005548280256950412464_);}
	.st6{fill:none;stroke:url(#SVGID_00000013912810409002767530000008758623384226679997_);stroke-miterlimit:10;}
	.st7{fill:none;stroke:url(#SVGID_00000100345599521499105450000016465330369246074556_);stroke-miterlimit:10;}
	.st8{fill:url(#SVGID_00000088830867397332910980000001684740747922418319_);}
	.st9{fill:url(#SVGID_00000102537650217554947190000015185122938812867989_);}
	.st10{fill:url(#SVGID_00000063610139320460407060000000845031646092990636_);}
	.st11{fill:url(#SVGID_00000099650163195823468980000003694244596025189557_);}
	.st12{fill:url(#SVGID_00000068647686562479940890000004459639161181747882_);stroke:#000000;stroke-width:2;stroke-miterlimit:10;}
</style>
<path class="st0" d="M500,256.5C500,389.32,390.86,497,256.23,497S12.46,389.32,12.46,256.5S121.6,16,256.23,16
	S500,123.68,500,256.5"/>
<g>
	<linearGradient id="SVGID_1_" gradientUnits="userSpaceOnUse" x1="150.419" y1="334.2981" x2="357.4441" y2="334.2981">
		<stop  offset="0" style="stop-color:#D226E1"/>
		<stop  offset="1" style="stop-color:#14D5FB"/>
	</linearGradient>
	<path class="st1" d="M222.19,228.52c6.12,0,11.1,1.78,12.68,4.54c0.92,1.61,0.28,4.3-0.28,6.68c-0.69,2.91-1.34,5.66,0.56,7.06
		c0.5,0.37,1.1,0.56,1.77,0.56c0.72,0,1.44-0.21,2.14-0.41c0.63-0.18,1.29-0.37,1.86-0.37c0.39,0,0.71,0.09,1.01,0.27
		c0.97,0.6,1.09,1.92,1.17,4.01c0.09,2.13,0.19,4.54,2.1,6.01c0.62,0.47,1.27,0.69,2.05,0.69c0.54,0,1.11-0.1,1.77-0.23
		c1.01-0.19,2.26-0.42,4.08-0.42c0.84,0,1.74,0.05,2.67,0.15c0.93,0.1,1.75,0.21,2.46,0.32c1.06,0.15,1.89,0.27,2.62,0.27
		c0.67,0,1.65-0.09,2.44-0.87c1.46-1.44,0.86-3.55,0.29-5.59c-0.49-1.73-0.99-3.51-0.19-4.6c0.63-0.84,2.07-1.36,3.78-1.36
		c1.83,0,3.65,0.58,4.87,1.55c1.21,0.96,1.46,2.01,1.75,3.23c0.25,1.05,0.53,2.24,1.47,3.35c1.25,1.47,3.11,2.18,5.67,2.18
		c2.77,0,6.05-0.84,9.22-1.65c2.99-0.76,6.07-1.55,8.48-1.55c1.63,0,2.79,0.36,3.56,1.09c2.14,2.05,0.84,6.97-0.41,11.73
		c-1.53,5.81-3.11,11.81,0.42,15.14c2.08,1.96,5.08,2.12,7.73,2.12c0.3,0,0.6,0,0.9,0c0.28,0,0.56,0,0.83,0
		c2.07,0,3.42,0.15,3.74,0.91c0.32,0.74-0.42,1.82-1.27,3.08c-1.21,1.79-2.71,4.01-2.15,6.8c0.35,1.74,1.25,2.48,3.92,4.67
		c0.83,0.68,1.86,1.53,3.13,2.61c5.59,4.76,8.13,6.98,9.87,9.83c1.01,1.65,1.34,2.66,1.63,3.56c0.35,1.07,0.65,1.99,1.84,3.31
		c2.56,2.83,6.89,4.8,10.53,4.8c1.76,0,3.25-0.47,4.29-1.35c1.73-1.46,1.8-3.63,1.87-5.53c0.07-1.87,0.12-3.48,1.45-4.51
		c0.75-0.58,1.86-0.93,2.95-0.93c1.03,0,1.94,0.31,2.42,0.83c1.1,1.16,0.33,3.81-0.23,5.75c-0.36,1.23-0.67,1.75-1.23,2.7
		c-0.47,0.8-1.12,1.89-2.07,3.86c-0.7,1.45-1.13,2.49-1.48,3.32c-0.58,1.39-0.87,2.08-1.76,3.21c-0.67,0.84-1.1,1.2-1.6,1.63
		c-0.47,0.4-1.01,0.85-1.74,1.71c-2.29,2.73-3.11,5.56-3.46,6.76c-0.03,0.12-0.06,0.22-0.09,0.3c-1.05,3.4-5.5,6.07-10.21,8.91
		c-4.85,2.91-10.35,6.22-13.19,11.02c-4.22,7.13-1.84,16.2,0.08,23.49c1.58,6.01,2.95,11.21,0.21,13.14
		c-0.59,0.42-1.15,0.55-2.27,0.8c-1.47,0.34-3.69,0.85-7.6,2.45c-4.13,1.69-6.02,2.46-7.07,3.61c-2.63,2.87-2.34,6.53-2.08,9.77
		c0.23,2.88,0.43,5.37-1.23,6.98c-1.28,1.24-2.97,1.31-4.77,1.38c-1.95,0.08-4.17,0.17-5.45,2.16c-1.35,2.09-0.66,4.69-0.1,6.79
		c0.32,1.21,0.72,2.72,0.31,3.05c-0.04,0.03-0.11,0.09-0.33,0.09c-0.33,0-0.79-0.12-1.29-0.25c-0.76-0.2-1.62-0.42-2.61-0.42
		c-0.79,0-1.52,0.14-2.24,0.43c-1.55,0.63-2.29,1.68-2.95,2.61c-0.25,0.36-0.49,0.69-0.78,1.02c-1.83,2.07-5.49,3.36-9.54,3.36
		c-4.08,0-7.54-1.26-9.05-3.29c-0.48-0.65-0.69-1.28-0.95-2.08c-0.39-1.18-0.88-2.65-2.41-4.65c-1-1.3-2.23-2.53-3.54-3.54
		c-2.11-1.62-3.54-2.04-4.7-2.37c-0.82-0.24-1.36-0.39-1.95-0.93c-1.57-1.44-1.39-3.81-1.19-6.56c0.24-3.26,0.52-6.95-2.07-10.13
		c-0.7-0.86-1.31-1.3-1.8-1.65c-0.56-0.4-0.96-0.69-1.46-1.57c-1.52-2.67-1.51-6.4,0-9.09c0.86-1.52,1.89-2.17,2.99-2.86
		c1.27-0.8,2.72-1.71,3.76-3.93c1.24-2.66,1.58-6.33-0.26-7.9c-0.55-0.47-1.23-0.71-2.03-0.71c-0.81,0-1.62,0.24-2.41,0.47
		c-0.65,0.19-1.27,0.37-1.75,0.37c-0.32,0-0.46-0.08-0.55-0.15c-0.92-0.73-0.21-3.95,0.31-6.3c0.72-3.27,1.34-6.1-0.4-7.19
		c-0.34-0.21-0.73-0.32-1.16-0.32c-0.48,0-0.92,0.13-1.32,0.25c-0.27,0.08-0.55,0.16-0.72,0.16c-0.02,0-0.03,0-0.04,0c0,0,0,0,0,0
		c-0.11-0.23,0.13-1.15,0.28-1.7c0.38-1.42,0.85-3.18-0.06-4.75c-0.89-1.54-2.48-1.86-3.88-2.16c-1.21-0.25-2.26-0.47-2.9-1.31
		c-0.8-1.04-0.81-2.8-0.03-5.23c2.36-0.47,5.93-1.54,6.88-3.85c1-2.43-1.14-5.87-3.66-7.88c-1.6-1.28-2.85-1.55-4.75-1.96
		c-1.37-0.3-3.07-0.67-5.62-1.56c-3.56-1.24-5.19-1.84-6.3-3.08c-1.13-1.26-1.43-2.48-1.72-3.65c-0.3-1.2-0.61-2.44-1.84-3.23
		c-0.58-0.38-1.25-0.57-1.99-0.57c-1.72,0-3.61,1.02-5.8,2.2c-1.03,0.56-2.1,1.13-3.24,1.65c-4.13,1.89-8.99,2.92-13.7,2.92
		c-4.67,0-8.91-1-12.26-2.89c-2.72-1.53-4.52-3.75-8.11-8.15c-4.07-5-7.5-10.72-9.93-16.54c-6.91-16.6-8.23-28.42-3.62-32.44
		c1.26-1.1,2.64-1.34,4.24-1.61c2.21-0.38,4.72-0.8,7.54-3.46c1.29-1.21,2.12-2.41,2.86-3.46c1.09-1.56,1.81-2.59,3.42-3.02
		c0.43-0.11,0.86-0.17,1.32-0.17c0.82,0,1.57,0.17,2.3,0.34c0.62,0.14,1.21,0.28,1.76,0.28c0.74,0,1.35-0.24,1.81-0.73
		c1.02-1.08,0.62-2.5,0.27-3.76c-0.32-1.15-0.63-2.23-0.12-3.16c0.41-0.76,1.11-0.95,2.4-1.25c1.2-0.28,2.7-0.62,4.09-1.83
		c2.18-1.89,2.27-4.23,2.36-6.29c0.06-1.55,0.12-2.9,1.05-3.83c0.72-0.72,1.81-1.07,3.34-1.07c2.07,0,4.57,0.63,6.99,1.24
		c2.34,0.59,4.54,1.15,6.36,1.15c1.64,0,2.8-0.46,3.54-1.42c1-1.29,0.61-2.68,0.26-3.9c-0.29-1.04-0.56-2.02-0.14-3.03
		C210.9,230.34,216,228.52,222.19,228.52 M222.19,227.52c-6,0-11.92,1.76-13.31,5.05c-1.13,2.67,1.38,4.93,0,6.72
		c-0.58,0.75-1.54,1.03-2.74,1.03c-3.53,0-9.15-2.39-13.35-2.39c-1.63,0-3.05,0.36-4.05,1.36c-2.6,2.6,0.1,7.07-3.36,10.07
		c-2.53,2.2-5.48,1.1-6.72,3.36c-1.34,2.47,1.32,5.32,0,6.72c-0.29,0.31-0.65,0.41-1.08,0.41c-1.02,0-2.4-0.61-4.07-0.61
		c-0.5,0-1.02,0.05-1.57,0.2c-3.22,0.84-3.59,3.78-6.72,6.72c-4.68,4.41-8.44,2.15-11.75,5.04c-7.8,6.8,1.57,29.3,3.36,33.58
		c1.15,2.76,4.19,9.56,10.07,16.79c3.67,4.51,5.51,6.77,8.39,8.39c3.65,2.06,8.14,3.02,12.75,3.02c4.85,0,9.83-1.06,14.11-3.02
		c3.52-1.61,6.43-3.77,8.62-3.77c0.52,0,1.01,0.12,1.45,0.41c1.87,1.2,0.86,3.92,3.36,6.72c1.3,1.46,3.12,2.11,6.72,3.36
		c6.12,2.13,7.6,1.39,10.07,3.36c2.12,1.69,4.17,4.74,3.36,6.72c-1.03,2.51-6.66,3.34-6.72,3.36c-1.08,3.07-1.08,5.31,0,6.72
		c1.76,2.3,5.4,1.08,6.72,3.36c1.34,2.32-1.31,5.6,0,6.72c0.2,0.17,0.44,0.24,0.69,0.24c0.64,0,1.38-0.41,2.04-0.41
		c0.22,0,0.44,0.05,0.63,0.17c2.39,1.5-2.71,11.28,0,13.43c0.34,0.27,0.74,0.37,1.18,0.37c1.26,0,2.84-0.84,4.16-0.84
		c0.51,0,0.98,0.12,1.38,0.47c1.45,1.24,1.03,4.5,0,6.72c-1.76,3.78-4.68,3.12-6.72,6.72c-1.79,3.17-1.57,7.31,0,10.07
		c1.09,1.92,1.96,1.64,3.36,3.36c4.51,5.53-0.64,13.12,3.36,16.79c1.72,1.58,3.2,0.65,6.72,3.36c1.71,1.32,2.83,2.67,3.36,3.36
		c2.47,3.22,2,4.88,3.36,6.72c1.81,2.45,5.79,3.7,9.85,3.7c4.01,0,8.1-1.22,10.29-3.7c1.1-1.24,1.56-2.63,3.36-3.36
		c0.65-0.26,1.27-0.36,1.86-0.36c1.55,0,2.88,0.67,3.89,0.67c0.36,0,0.68-0.08,0.96-0.31c1.94-1.57-2.1-6.83,0-10.07
		c1.99-3.08,6.93-0.33,10.07-3.36c4.12-3.98-1.2-11.83,3.36-16.79c0.9-0.99,2.84-1.78,6.72-3.36c6.93-2.83,8.38-2.17,10.07-3.36
		c7.07-4.97-7.53-24.21,0-36.93c5.47-9.24,21.2-12.66,23.5-20.15c0.28-0.92,0.97-3.88,3.36-6.72c1.4-1.66,1.96-1.6,3.36-3.36
		c1.55-1.95,1.49-2.82,3.36-6.72c2.07-4.31,2.65-4.27,3.36-6.72c0.66-2.26,1.49-5.13,0-6.72c-0.72-0.76-1.9-1.14-3.15-1.14
		c-1.26,0-2.59,0.38-3.56,1.14c-3.29,2.54-0.48,7.64-3.36,10.07c-0.91,0.77-2.19,1.12-3.65,1.12c-3.25,0-7.32-1.75-9.78-4.47
		c-2-2.21-1.11-3.03-3.36-6.72c-1.86-3.04-4.62-5.43-10.07-10.07c-5.24-4.46-6.35-4.88-6.72-6.72c-0.89-4.44,4.5-7.41,3.36-10.07
		c-0.59-1.38-2.44-1.52-4.66-1.52c-0.56,0-1.14,0.01-1.73,0.01c-2.53,0-5.24-0.16-7.04-1.85c-6.01-5.66,5.29-21.8,0-26.86
		c-1.04-0.99-2.51-1.36-4.25-1.36c-5.1,0-12.45,3.2-17.7,3.2c-2.04,0-3.77-0.48-4.91-1.83c-1.79-2.11-0.72-4.62-3.36-6.72
		c-1.48-1.18-3.56-1.77-5.49-1.77c-1.93,0-3.7,0.59-4.58,1.77c-2.16,2.89,2.13,7.99,0,10.07c-0.44,0.43-0.99,0.58-1.74,0.58
		c-1.12,0-2.69-0.34-4.97-0.58c-1.04-0.11-1.96-0.16-2.78-0.16c-3.1,0-4.67,0.64-5.85,0.64c-0.52,0-0.97-0.12-1.44-0.49
		c-3.07-2.35-0.37-8.22-3.36-10.07c-0.5-0.31-1.01-0.42-1.53-0.42c-1.38,0-2.8,0.78-4,0.78c-0.42,0-0.82-0.1-1.18-0.36
		c-2.72-2,2.23-9.52,0-13.43C233.77,229.14,227.95,227.52,222.19,227.52L222.19,227.52z"/>
</g>
<g>
	
		<linearGradient id="SVGID_00000048496185223247189800000017933838724903973027_" gradientUnits="userSpaceOnUse" x1="185.2697" y1="166.4059" x2="484.844" y2="166.4059">
		<stop  offset="0" style="stop-color:#D226E1"/>
		<stop  offset="1" style="stop-color:#14D5FB"/>
	</linearGradient>
	<path style="fill:url(#SVGID_00000048496185223247189800000017933838724903973027_);" d="M272.94,23v1
		c6.18,0,15.63,0.99,24.06,2.53c11.26,2.05,14.54,3.94,14.95,4.57c-0.37,0.58-2.76,1.65-5.92,2.39c-1.51,0.35-3.01,0.53-4.6,0.53
		c-2.18,0-4-0.33-5.47-0.59c-0.94-0.17-1.68-0.3-2.28-0.3c-0.85,0-1.44,0.3-1.74,0.88c-0.73,1.41,0.7,2.64,3.81,5.35
		c1.75,1.51,3.92,3.4,6.44,5.9c2.73,2.7,4.29,4.57,5.43,5.94c1.6,1.92,2.57,3.08,4.87,4.3c2.92,1.56,6.5,2.41,10.08,2.41
		c3.69,0,7.64-0.95,8.15-3.06c0.34-1.42-0.88-2.35-2.73-3.77c-1.82-1.39-4.57-3.5-7.54-7.17c-1.58-1.96-3.75-4.64-3.25-5.63
		c0.23-0.44,1.23-0.88,2.97-0.88c1.86,0,4.02,0.5,5.79,1.33c1.65,0.78,2.29,1.71,3.11,2.9c0.77,1.12,1.64,2.38,3.43,3.71
		c3.97,2.95,8.72,3.16,17.34,3.55c1.26,0.06,2.36,0.08,3.34,0.08c1.64,0,2.62-0.08,3.4-0.14c0.53-0.04,0.95-0.08,1.44-0.08
		c0.52,0,1.1,0.04,1.81,0.13c8.01,0.97,15.27,5.35,18.03,8.97c0.95,1.25,1.38,2.39,1.24,3.32c-0.2,1.33-1.61,2.09-3.11,2.89
		c-1.65,0.88-3.53,1.89-3.61,3.93c-0.1,2.61,2.71,3.71,6.26,5.1c4.06,1.59,9.63,3.77,14.12,9.02c1.07,1.25,1.94,2.52,2.78,3.75
		c2.02,2.95,3.92,5.74,7.83,6.65c0.7,0.16,1.36,0.24,2,0.24c0.77,0,1.42-0.12,1.99-0.22c0.5-0.09,0.98-0.18,1.49-0.18
		c0.4,0,0.8,0.05,1.23,0.15c4.5,1.07,7.12,6.83,9.04,11.04c1.53,3.36,2.64,5.79,4.49,5.79c0.09,0,0.18-0.01,0.27-0.02
		c1.61-0.22,1.99-2.01,2.35-3.74c0.26-1.22,0.58-2.75,1.27-3.05c0.12-0.05,0.28-0.08,0.47-0.08c2.43,0,8.25,4.29,14.25,12.24
		c3.99,5.29,11.13,16.32,14.11,30.77c1.65,7.97,1.2,12.99,0.81,17.42c-0.45,5.15-0.85,9.6,2.63,16.41c2.77,5.42,6.06,8.6,9.24,11.67
		c3.77,3.64,7.67,7.4,10.87,15.12c2.53,6.1,5.16,12.41,3.31,19.51c-1.69,6.53-6.3,10.43-10.37,13.88c-3.81,3.22-7.1,6.01-6.44,10.04
		c0.52,3.2,3.12,4.64,5.88,6.17c2.97,1.65,6.04,3.36,7.6,7.45c1.77,4.63,0.73,10.26-0.99,13.54c-0.63,1.21-1.16,1.7-1.38,1.85
		c-0.15-0.15-0.4-0.44-0.65-0.73c-0.46-0.53-1.08-1.25-2.03-2.26c-1.11-1.19-1.86-1.9-2.46-2.48c-0.32-0.31-0.61-0.59-0.92-0.9
		c-2.42-2.46-4.73-5.94-6.52-9.79c-1.45-3.13-1.71-4.86-1.91-6.26c-0.2-1.34-0.37-2.51-1.57-4.02c-2.41-3.02-6.87-4.9-11.66-4.9
		c-2.26,0-4.44,0.43-6.32,1.25c-3.07,1.34-7.51,4.62-10.64,17.47c-3.95,16.23-1.56,30.25-0.27,37.78c0.34,1.97,0.68,3.99,0.68,4.95
		c-3.03-1.83-14.3-16.42-15.22-32.48c-0.01-0.22-0.02-0.44-0.04-0.68c-0.15-2.98-0.37-7.49-3.7-10.12c-2.51-1.98-5.64-1.98-8.4-1.98
		c-2.22,0-4.14,0-4.8-1.1c-0.36-0.6-0.21-1.21,0.09-2.24c0.34-1.19,0.76-2.67-0.04-4.39c-1.2-2.57-4.66-4.43-8.22-4.43
		c-1.13,0-2.18,0.19-3.13,0.56c-2.63,1.04-4.06,3.37-5.11,5.06c-0.32,0.52-0.74,1.2-1.02,1.49c-0.13-0.31-0.25-0.93-0.34-1.36
		c-0.33-1.59-0.77-3.78-2.67-5.09c-0.97-0.67-2.17-1.01-3.56-1.01c-1.35,0-2.86,0.34-4.14,0.92c-2.74,1.25-4.16,3.53-5.19,5.19
		c-0.28,0.45-0.65,1.04-0.9,1.32c-0.13-0.34-0.26-0.98-0.35-1.43c-0.33-1.64-0.78-3.89-2.7-5.03c-0.55-0.33-1.12-0.49-1.74-0.49
		c-0.55,0-1.06,0.12-1.6,0.26c-0.61,0.15-1.25,0.3-2.06,0.3c-0.51,0-1.04-0.06-1.6-0.19c-2.46-0.55-4.57-1.6-6.27-3.13
		c-0.85-0.76-1.3-1.38-1.67-1.89c-0.51-0.7-0.99-1.36-2.07-1.68c-0.38-0.11-0.78-0.17-1.19-0.17c-2.92,0-5.76,2.92-6.56,3.82
		c-2.9,3.24-6.01,10.12-3.48,14.59c2.03,3.59,6.81,4.05,10.75,4.05c2.79,0,5.81-0.27,9.01-0.55c3.16-0.28,6.42-0.57,9.39-0.57
		c5.94,0,9.49,1.22,11.17,3.84c1.72,2.69,1.77,7,0.1,8.87c-1.05,1.18-2.74,1.27-4.53,1.36c-1.99,0.11-4.24,0.23-5.6,2.07
		c-1.58,2.13-0.83,4.97-0.23,7.25c0.23,0.86,0.61,2.31,0.46,2.6c0,0-0.02,0-0.05,0c-0.58,0-1.82-0.79-2.92-1.49
		c-1.7-1.08-3.62-2.31-5.41-2.31c-0.57,0-1.11,0.12-1.58,0.37c-1.39,0.72-1.65,2.08-1.88,3.29c-0.23,1.21-0.47,2.46-1.69,3.58
		c-0.79,0.73-1.48,0.94-2.43,1.23c-1.08,0.33-2.43,0.75-4.2,2.05c-1.13,0.83-1.61,1.43-2.08,2c-0.35,0.43-0.68,0.84-1.34,1.41
		c-2.01,1.74-5.25,3.51-7.57,3.51c-0.54,0-1.01-0.1-1.39-0.29c-0.96-0.48-1.63-2.5-2.81-12.65c-0.13-1.15-0.25-2.2-0.36-3.17
		c-0.77-6.92-1.09-9.79-3.54-11.03c-0.61-0.31-1.27-0.46-2-0.46c-0.92,0-1.78,0.24-2.54,0.46c-0.57,0.16-1.1,0.31-1.49,0.31
		c-0.28,0-0.38-0.07-0.45-0.14c-0.48-0.45-0.09-1.88,0.29-3.27c0.57-2.07,1.28-4.65-0.16-6.66c-1.04-1.44-2.55-1.74-3.89-1.99
		c-1.36-0.26-2.22-0.47-2.81-1.34c-0.55-0.81-0.43-1.56-0.14-2.91c0.2-0.96,0.43-2.04,0.31-3.33c-0.35-3.89-3.54-5.81-6.62-7.66
		c-2.64-1.58-5.37-3.22-6.92-6.15c-2.07-3.91-0.89-8.02,0.15-11.64c0.97-3.39,1.89-6.59-0.34-8.75c-1.02-0.99-2.4-1.47-4.23-1.47
		c-2.13,0-4.59,0.66-6.98,1.3c-2.19,0.59-4.46,1.19-6.21,1.19c-1.27,0-2.11-0.3-2.65-0.95c-1.14-1.36-0.87-4.01,0.08-5.54
		c0.79-1.27,2.06-1.67,4.85-2.52c0.41-0.13,0.85-0.26,1.32-0.41c8.06-2.54,12.5-3.95,14.04-7.25c0.48-1.03,0.42-1.63,0.31-2.83
		c-0.08-0.85-0.2-2.12-0.21-4.31c-0.02-2.99,0.18-5.13,0.33-6.69c0.22-2.32,0.33-3.6-0.84-4.25c-0.28-0.16-0.6-0.24-0.95-0.24
		c-1.68,0-3.88,1.89-6.8,4.56c-0.58,0.53-1.28,1.17-1.85,1.64c0.09-0.6,0.21-1.28,0.3-1.74c0.35-1.9,0.45-2.59,0.19-3.1
		c-0.21-0.4-0.51-0.75-0.69-0.92c-0.03-0.03-0.06-0.06-0.1-0.09c-0.34-0.29-0.78-0.4-2.57-0.4c-1.83,0-4.36,0.13-4.85,0.16
		l-0.36,0.02l-0.21,0.2c-1.22,0.83-5.28,3.78-6.97,7.03c-1.82,3.5-0.84,7.07-0.12,9.69c0.43,1.55,0.83,3.02,0.34,3.46
		c-0.06,0.05-0.23,0.2-0.72,0.2c-1.34,0-3.55-1.11-5.5-2.08c-2.1-1.05-4.09-2.05-5.57-2.05c-0.67,0-1.23,0.2-1.65,0.58
		c-1.2,1.1-0.88,3.15,0.38,6.17c-0.29-0.09-0.61-0.14-0.94-0.14c-0.73,0-1.46,0.22-2.17,0.43c-0.66,0.2-1.28,0.39-1.84,0.39
		c-0.36,0-0.66-0.08-0.93-0.25c-0.85-0.53-0.95-1.68-1.04-3.51c-0.1-2.01-0.22-4.51-2.14-6.42c-1.37-1.36-2.91-1.68-4.15-1.93
		c-1.27-0.26-1.95-0.44-2.4-1.22c-0.57-0.98-0.25-2.09,0.08-3.26c0.34-1.2,0.73-2.56-0.2-3.62c-0.62-0.71-1.71-1.08-3.14-1.08
		c-3.11,0-7.16,1.74-8.58,4.66c-1.17,2.42-0.64,5.69,1.59,9.76c-0.05-0.03-0.11-0.07-0.16-0.1c-4.5-2.78-10.33-4.44-15.62-4.44
		c-5.3,0-9.62,1.59-12.49,4.6c-1.79,1.87-3,4.3-3.61,7.2l-0.03,0.14l0.01,0.14c0,0.03,0.02,0.14,0.07,0.32
		c0.67,2.53,0.69,4.65,0.05,5.84c-0.34,0.63-0.71,0.77-2.07,1.23c-0.99,0.33-2.35,0.78-4.21,1.71c-1.91,0.95-3.16,1.81-4.08,2.43
		c-0.77,0.53-1.33,0.91-1.67,0.91c-0.06,0-0.13-0.01-0.21-0.04c-0.38-0.13-0.54-0.47-1.01-1.88c-0.35-1.04-0.84-2.47-1.77-4.33
		c-0.92-1.84-1.78-3.11-2.41-4.03c-0.77-1.14-1.03-1.56-0.91-1.88c0.24-0.63,1.55-0.88,2.69-1.11c1.61-0.31,3.43-0.67,4.03-2.26
		c0.67-1.8-0.87-3.59-2.11-5.03c-0.36-0.42-0.86-1.01-1.11-1.41c0.49,0.03,1.22,0.2,2.04,0.38c1.59,0.36,3.58,0.8,5.78,0.8
		c1.78,0,3.38-0.29,4.9-0.88c0.55-0.22,5.45-2.25,7.29-7.3c1.18-3.23,1.14-5.79-0.11-7.62c-0.58-0.85-1.26-1.3-1.85-1.69
		c-0.64-0.42-1.1-0.73-1.4-1.47c-0.01-0.01-0.54-1.36-0.01-2.59c0.94-2.18,4.68-2.62,5.91-2.76c0.47-0.05,0.93-0.08,1.37-0.08
		c1.03,0,1.79,0.15,2.46,0.28c0.51,0.1,0.99,0.2,1.48,0.2c0.67,0,1.25-0.18,1.84-0.55c1.27-0.82,1.6-1.97,1.95-3.2
		c0.31-1.07,0.65-2.29,1.69-3.79c0.58-0.83,1.54-2.22,3.03-3.06c0.78-0.44,1.54-0.64,2.39-0.64c0.96,0,1.97,0.26,3.04,0.53
		c1.29,0.33,2.76,0.7,4.44,0.7c1.13,0,2.23-0.17,3.36-0.51c1.32-0.4,2.89-1.11,4.68-2.1c0.98-0.55,1.6-0.91,2-1.18
		c0.73,0.08,2.43,0.22,4.5,0.22c4.48,0,10.34-0.7,12.83-4.02c2.1-2.79,1.06-6.35,0.14-9.49c-0.83-2.84-1.61-5.52-0.17-7.26
		c0.81-0.99,2.03-1.39,4.2-1.39c0.55,0,1.1,0.02,1.66,0.04c0.57,0.02,1.17,0.05,1.75,0.05c1.96,0,4.18-0.24,5.79-2.03
		c2.53-2.82,1.37-6.97,0.25-10.98c-1.02-3.66-1.98-7.11-0.23-9.19c0.85-1,2.08-1.43,4.1-1.43c0.94,0,1.93,0.09,2.98,0.18
		c1.09,0.1,2.21,0.2,3.32,0.2c1.78,0,4.37-0.23,6.34-2.25c2.56-2.63,2.12-6.2,1.69-9.66c-0.44-3.62-0.9-7.36,1.72-10.55
		c1.88-2.3,5.77-4.88,9.67-6.42c1.02-0.4,1.96-0.7,2.78-0.96c2.17-0.69,3.88-1.23,4.51-2.99c0.52-1.47,0.12-3.34-3.53-7.69
		c-2.81-3.34-5.49-5.75-7.44-7.43c0.23,0.09,0.45,0.18,0.66,0.27c2.89,1.18,6.17,2.51,8.18,2.51c0.91,0,1.57-0.27,1.98-0.8
		c1.19-1.54-0.38-4.14-3.29-7.85l-0.07-0.1c-7.41-9.44-11.06-15.84-13.99-20.99c-3.55-6.22-6.11-10.72-13.05-16.12
		c-5.73-4.46-10.71-6.65-13.69-7.95c-0.91-0.4-1.91-0.84-2.44-1.16c0.59-0.23,2.09-0.57,5.71-0.57V23 M264.69,219.53
		c0.19,0.38,0.39,0.77,0.6,1.17c1.34,2.6,3.32,6.45,3.31,7.66c-0.46-0.08-1.75-0.54-4.87-2.91
		C264.34,223.1,264.66,221.13,264.69,219.53 M272.94,23c-4.02,0-6.74,0.42-6.98,1.4c-0.42,1.67,6.96,2.42,16.79,10.07
		C295.05,44.04,293,50.25,309.6,71.4c1.26,1.61,4.33,5.46,3.36,6.72c-0.22,0.29-0.64,0.41-1.19,0.41c-3.09,0-10.44-3.87-11.97-3.87
		c-0.14,0-0.23,0.03-0.26,0.1c-0.35,0.64,4.72,3.7,10.07,10.07c3.5,4.16,3.72,5.7,3.36,6.72c-0.65,1.82-3.15,1.94-6.72,3.36
		c-3.9,1.54-8.01,4.21-10.07,6.72c-5.53,6.73,1.31,15.35-3.36,20.15c-1.52,1.56-3.51,1.95-5.62,1.95c-2.09,0-4.31-0.38-6.3-0.38
		c-1.94,0-3.67,0.36-4.87,1.79c-4.19,4.97,4.31,15.35,0,20.15c-1.29,1.43-3.11,1.7-5.04,1.7c-1.13,0-2.29-0.09-3.41-0.09
		c-1.94,0-3.75,0.27-4.97,1.75c-3.57,4.33,3.57,12.03,0,16.79c-2.26,3.02-7.91,3.62-12.03,3.62c-2.71,0-4.76-0.26-4.76-0.26
		c0,0-3.7,2.44-6.72,3.36c-1.11,0.34-2.13,0.46-3.07,0.46c-2.93,0-5.17-1.23-7.48-1.23c-0.93,0-1.88,0.2-2.88,0.77
		c-1.68,0.95-2.74,2.46-3.36,3.36c-2.33,3.35-1.5,5.52-3.36,6.72c-0.45,0.29-0.86,0.39-1.29,0.39c-0.95,0-2.01-0.48-3.94-0.48
		c-0.45,0-0.94,0.03-1.48,0.09c-1.44,0.17-5.55,0.64-6.72,3.36c-0.68,1.59-0.05,3.23,0,3.36c0.74,1.85,2.3,1.81,3.36,3.36
		c1.6,2.34,0.35,5.76,0,6.72c-1.71,4.68-6.33,6.57-6.72,6.72c-1.53,0.6-3.07,0.81-4.53,0.81c-3.47,0-6.5-1.19-8-1.19
		c-0.45,0-0.76,0.11-0.9,0.38c-0.73,1.39,4.2,4.43,3.36,6.72c-0.8,2.16-5.84,1.09-6.72,3.36c-0.55,1.42,1.21,2.43,3.36,6.72
		c2.15,4.31,1.82,6.2,3.36,6.72c0.18,0.06,0.36,0.09,0.53,0.09c1.24,0,2.34-1.53,6.19-3.45c4.33-2.16,5.79-1.64,6.72-3.36
		c1.33-2.45,0.01-6.6,0-6.72c0.43-2.03,1.32-4.58,3.36-6.72c2.88-3.02,7.19-4.29,11.77-4.29c5.24,0,10.84,1.66,15.09,4.29
		c1.98,1.22,3.68,2.66,5.09,4.07c-3.39-4.42-6.95-10.31-5.09-14.14c1.29-2.65,5.06-4.1,7.68-4.1c1.07,0,1.95,0.24,2.39,0.74
		c1.23,1.39-1.45,4.2,0,6.72c1.36,2.35,4.34,1,6.72,3.36c3.19,3.17,0.59,8.36,3.36,10.07c0.47,0.29,0.96,0.4,1.46,0.4
		c1.38,0,2.8-0.82,4.01-0.82c0.45,0,0.87,0.11,1.24,0.42c2.44,2,0.04,9.78,0,10.07c2.48,1.92,4.92,3.53,6.16,3.53
		c0.23,0,0.42-0.06,0.56-0.17c2.2-1.86-9.49-17.6-6.72-20.15c0.24-0.22,0.58-0.32,0.97-0.32c2.59,0,8.04,4.13,11.08,4.13
		c0.55,0,1.02-0.14,1.38-0.46c2.19-1.94-2.92-7.82,0-13.43c1.83-3.5,6.68-6.68,6.72-6.72c0.41-0.02,2.96-0.15,4.8-0.15
		c0.99,0,1.78,0.04,1.92,0.15c0.04,0.03,0.07,0.06,0.07,0.07c0,0,0.29,0.27,0.48,0.64c0.28,0.55-1.13,5.52-0.55,6.01
		c0.04,0.03,0.08,0.05,0.14,0.05c1.24,0,7.02-6.87,9.46-6.87c0.18,0,0.33,0.04,0.47,0.11c1.07,0.59-0.04,3.13,0,10.07
		c0.03,5.13,0.65,5.33,0,6.72c-1.33,2.84-5.38,4.17-13.43,6.72c-3.77,1.19-5.59,1.54-6.72,3.36c-1.15,1.84-1.45,4.99,0,6.72
		c0.8,0.96,2,1.31,3.42,1.31c3.8,0,9.23-2.49,13.19-2.49c1.42,0,2.64,0.32,3.54,1.19c3.87,3.75-4.23,12.17,0,20.15
		c3.6,6.79,12.86,7.07,13.43,13.43c0.25,2.81-1.38,4.69,0,6.72c1.68,2.47,5.07,1.07,6.72,3.36c2.21,3.07-1.95,8.24,0,10.07
		c0.32,0.3,0.71,0.41,1.14,0.41c1.13,0,2.57-0.77,4.04-0.77c0.52,0,1.03,0.1,1.54,0.35c2.26,1.15,2.31,4.48,3.36,13.43
		c1.31,11.23,2.01,12.75,3.36,13.43c0.55,0.28,1.17,0.4,1.84,0.4c2.77,0,6.28-2.06,8.23-3.75c1.62-1.4,1.51-1.99,3.36-3.36
		c3.17-2.34,4.74-1.53,6.72-3.36c2.77-2.56,1.34-5.67,3.36-6.72c0.35-0.18,0.73-0.26,1.12-0.26c2.75,0,6.41,3.8,8.33,3.8
		c0.24,0,0.44-0.06,0.62-0.19c1.71-1.23-2.33-6.92,0-10.07c2.17-2.93,7.41-0.39,10.07-3.36c2.07-2.31,1.86-7.17,0-10.07
		c-2.17-3.4-6.71-4.3-12.01-4.3c-5.93,0-12.82,1.13-18.4,1.13c-4.6,0-8.31-0.76-9.88-3.55c-2.17-3.84,0.48-10.21,3.36-13.43
		c0.37-0.42,3.18-3.49,5.82-3.49c0.3,0,0.6,0.04,0.9,0.13c1.38,0.42,1.29,1.51,3.36,3.36c2.7,2.42,5.72,3.13,6.72,3.36
		c0.69,0.15,1.29,0.21,1.82,0.21c1.66,0,2.67-0.56,3.66-0.56c0.4,0,0.8,0.09,1.23,0.35c2.74,1.62,1.81,6.41,3.36,6.72
		c0.05,0.01,0.09,0.01,0.14,0.01c1.49,0,2.37-4.81,6.58-6.73c1-0.46,2.37-0.83,3.72-0.83c1.06,0,2.12,0.23,2.99,0.83
		c2.79,1.93,1.83,6.39,3.36,6.72c0.05,0.01,0.11,0.02,0.16,0.02c1.58,0,2.56-5.15,6.56-6.73c0.85-0.34,1.8-0.49,2.76-0.49
		c3.04,0,6.24,1.56,7.31,3.85c1.26,2.69-1.22,4.66,0,6.72c1.93,3.23,9.03-0.11,13.43,3.36c3.23,2.54,3.2,7.33,3.36,10.07
		c0.99,17.11,13.9,33.6,16.62,33.6c0.06,0,0.12-0.01,0.17-0.02c2.32-0.77-5.85-19.67,0-43.65c3.01-12.35,7.17-15.52,10.07-16.79
		c1.8-0.79,3.85-1.17,5.91-1.17c4.25,0,8.55,1.61,10.87,4.53c2.14,2.69,0.43,3.76,3.36,10.07c0.49,1.05,2.84,6.13,6.72,10.07
		c0.89,0.9,1.68,1.56,3.36,3.36c2.53,2.7,2.77,3.36,3.33,3.36c0.01,0,0.02,0,0.02,0c2.18-0.07,6.21-9.33,3.36-16.79
		c-3.2-8.39-12.49-7.66-13.43-13.43c-1.19-7.31,13.41-10.48,16.79-23.5c1.93-7.43-0.83-14.07-3.36-20.15
		c-6-14.44-14.19-15.21-20.15-26.86c-6.18-12.1,0.29-15.9-3.36-33.58c-5.1-24.71-23.24-43.81-29.35-43.81
		c-0.33,0-0.62,0.05-0.87,0.17c-2.26,0.99-1.47,6.45-3.36,6.72c-0.04,0.01-0.09,0.01-0.13,0.01c-3.07,0-5.1-14.85-13.3-16.8
		c-0.55-0.13-1.02-0.18-1.46-0.18c-1.24,0-2.14,0.4-3.48,0.4c-0.51,0-1.09-0.06-1.77-0.22c-5.01-1.17-6.35-5.72-10.07-10.07
		c-8.43-9.85-20.31-9.19-20.15-13.43c0.12-3.03,6.19-3.15,6.72-6.72c0.73-4.92-9.76-12.17-20.15-13.43
		c-0.82-0.1-1.41-0.13-1.93-0.13c-1.3,0-2.15,0.22-4.85,0.22c-0.88,0-1.95-0.02-3.3-0.08c-8.71-0.39-13.14-0.65-16.79-3.36
		c-3.59-2.67-3.2-5.06-6.72-6.72c-1.98-0.93-4.29-1.42-6.21-1.42c-1.86,0-3.37,0.46-3.86,1.42c-0.79,1.54,1.16,4,3.36,6.72
		c5.68,7.02,10.48,8.38,10.07,10.07c-0.3,1.24-3.32,2.29-7.18,2.29c-2.99,0-6.49-0.63-9.61-2.29c-3.7-1.97-3.57-3.64-10.07-10.07
		c-6.33-6.27-10.69-8.88-10.07-10.07c0.13-0.24,0.42-0.34,0.85-0.34c1.35,0,4.1,0.89,7.75,0.89c1.48,0,3.1-0.15,4.83-0.55
		c0.63-0.15,6.7-1.61,6.72-3.36C312.99,27.43,286.05,23,272.94,23L272.94,23z M245.81,168.77L245.81,168.77L245.81,168.77
		L245.81,168.77L245.81,168.77z M240.83,213.13c1.76,2.3,3.47,4.2,4.36,5.21C244.42,217.26,242.95,215.24,240.83,213.13
		L240.83,213.13z M245.19,218.34c0.36,0.5,0.57,0.8,0.62,0.8c0,0,0,0,0.01,0C245.85,219.11,245.61,218.82,245.19,218.34
		L245.19,218.34z"/>
</g>
<g>
	
		<linearGradient id="SVGID_00000176739723538844752200000018304046087767407253_" gradientUnits="userSpaceOnUse" x1="188.6968" y1="159.0123" x2="218.9521" y2="159.0123">
		<stop  offset="0" style="stop-color:#D226E1"/>
		<stop  offset="1" style="stop-color:#14D5FB"/>
	</linearGradient>
	<path style="fill:url(#SVGID_00000176739723538844752200000018304046087767407253_);" d="M208.76,146.26l0.02,0
		c0.78,0.08,1.94,2.83,2.47,5.89c0.56,3.21,0.08,5.58-0.33,7.67c-0.46,2.28-0.85,4.24,0.5,6.16c1.41,2,3.75,2.46,5.3,2.77
		c0.37,0.07,0.85,0.17,1.14,0.26c-0.6,0.86-3.53,2.74-6.39,2.74c-0.82,0-1.52-0.17-2.07-0.49c-2.66-1.59-2.67-7.52-2.67-10.37
		c0-2.04,0-3.17-1.2-3.2c-1.06,0-1.15,1.02-1.26,2.19c-0.18,1.93-0.51,5.54-2.85,8.23c-1.5,1.73-4.23,3.47-6.92,3.47
		c-0.72,0-1.4-0.13-2.02-0.38c-0.59-0.24-2.52-1.15-2.75-2.59c-0.2-1.27,1.2-2.31,3.89-4.18c2.62-1.82,6.2-4.31,9.35-8.49
		c1.93-2.57,3.13-5.02,4-6.81C207.55,147.92,208.36,146.26,208.76,146.26 M208.76,145.26c-1.9,0-2.55,4.7-6.6,10.08
		c-6.21,8.26-14.03,9.6-13.43,13.43c0.33,2.11,2.94,3.18,3.36,3.36c0.77,0.32,1.58,0.46,2.4,0.46c2.9,0,5.9-1.78,7.67-3.82
		c3.57-4.11,2.84-10.07,3.36-10.07c0,0,0,0,0,0c0.7,0.02-1.05,10.81,3.36,13.43c0.75,0.45,1.64,0.63,2.58,0.63
		c3.5,0,7.64-2.6,7.49-3.99c-0.15-1.42-4.66-0.44-6.72-3.36c-2.17-3.08,1.21-6.51,0-13.43c-0.1-0.57-1.18-6.49-3.36-6.72
		C208.83,145.26,208.79,145.26,208.76,145.26L208.76,145.26z"/>
</g>
<g>
	
		<linearGradient id="SVGID_00000176764638630133973850000017040975653822341024_" gradientUnits="userSpaceOnUse" x1="224.3835" y1="125.3351" x2="280.285" y2="125.3351">
		<stop  offset="0" style="stop-color:#D226E1"/>
		<stop  offset="1" style="stop-color:#14D5FB"/>
	</linearGradient>
	<path style="fill:url(#SVGID_00000176764638630133973850000017040975653822341024_);" d="M257.55,95.39c1.99,0,5.4,1.59,7.75,3.63
		c0.9,0.78,1.3,1.32,1.65,1.8c0.44,0.6,0.86,1.16,1.91,1.7c0.96,0.49,1.97,0.72,3.1,0.72c1.37,0,2.64-0.35,3.76-0.66
		c0.83-0.23,1.61-0.45,2.2-0.45c0.46,0,0.67,0.13,0.8,0.25c0.93,0.81,0.59,3.53-0.27,5.58c-0.88,2.12-2.15,2.97-3.61,3.96
		c-1.01,0.68-2.05,1.38-2.96,2.52c-3.11,3.89-1.62,9.06-0.3,13.62c1.14,3.93,2.21,7.64,0.31,9.86c-1.19,1.4-3.51,2.27-6.06,2.27
		c-2.49,0-4.67-0.85-5.84-2.26c-1.95-2.36-1.54-6.57,0.05-8.87c0.52-0.75,0.99-1.07,1.5-1.41c0.63-0.42,1.34-0.9,1.93-2.06
		c0.99-1.96,1.02-4.7,0.07-7.14c-0.83-2.13-2.24-3.67-3.97-4.32c-0.33-0.12-1.19-0.45-2.2-0.45c-0.74,0-1.42,0.18-2.02,0.52
		c-2.34,1.36-2.28,4.53-2.22,7.6c0.05,2.47,0.09,5.02-1.18,5.85c-0.29,0.19-0.62,0.28-1.04,0.28c-0.63,0-1.34-0.21-2.03-0.41
		c-0.73-0.21-1.41-0.41-2.08-0.41c-0.7,0-1.29,0.23-1.73,0.67c-1.29,1.29-0.52,3.15,0.54,5.71c0.93,2.23,2.08,5.01,2.53,8.55
		c0.38,2.99,0.86,10.18-2.88,12.45c-0.83,0.51-1.92,0.8-2.99,0.8c-1.03,0-1.94-0.26-2.62-0.75c-1.67-1.2-1.81-3.68-1.93-5.87
		c-0.11-2.04-0.21-3.79-1.67-4.33c-0.21-0.08-0.44-0.12-0.67-0.12c-1.78,0-3.47,2.22-6.03,5.88c-1.09,1.55-2.7,3.86-3.4,4.24
		c-1.04-1.45-1.23-10.81,3.88-18.59c2.23-3.4,4.38-4.79,6.46-6.14c2.36-1.53,4.79-3.11,7.02-7.37c1.25-2.38,1.87-4.52,2.43-6.41
		c0.86-2.94,1.49-5.07,3.94-6.65c1.17-0.76,2.22-1.04,3.22-1.32c1.37-0.37,2.78-0.76,3.79-2.34c1.49-2.32,0.74-4.92,0.14-7.01
		c-0.35-1.23-0.72-2.5-0.31-2.87C256.74,95.48,257.09,95.39,257.55,95.39 M257.55,94.39c-0.7,0-1.28,0.16-1.67,0.52
		c-1.88,1.72,2.3,6.5,0,10.07c-1.43,2.23-3.74,1.44-6.72,3.36c-4.47,2.88-3.57,7.42-6.72,13.43c-4.04,7.72-8.52,5.96-13.43,13.43
		c-5.68,8.64-5.27,19.49-3.36,20.15c0.07,0.02,0.13,0.03,0.21,0.03c2.18,0,6.89-10.16,9.54-10.16c0.11,0,0.22,0.02,0.33,0.06
		c1.97,0.72-0.24,7.49,3.36,10.07c0.91,0.65,2.05,0.94,3.21,0.94c1.26,0,2.53-0.35,3.51-0.94c4.7-2.86,3.55-11.93,3.36-13.43
		c-0.95-7.46-4.97-11.82-3.36-13.43c0.28-0.28,0.62-0.38,1.02-0.38c1.13,0,2.66,0.82,4.11,0.82c0.55,0,1.08-0.12,1.58-0.44
		c3.51-2.28-0.27-11.32,3.36-13.43c0.5-0.29,1.02-0.39,1.52-0.39c0.82,0,1.54,0.27,1.84,0.39c3.43,1.29,5.01,6.82,3.36,10.07
		c-0.9,1.79-2.06,1.47-3.36,3.36c-1.9,2.76-2.19,7.42,0,10.07c1.47,1.78,4.04,2.62,6.61,2.62c2.68,0,5.37-0.91,6.82-2.62
		c4.67-5.49-5.37-16.8,0-23.5c2.08-2.59,5.07-2.76,6.72-6.72c0.8-1.92,1.55-5.37,0-6.72c-0.41-0.36-0.91-0.5-1.46-0.5
		c-1.59,0-3.7,1.11-5.96,1.11c-0.87,0-1.76-0.16-2.65-0.61c-1.58-0.8-1.25-1.54-3.36-3.36C263.5,96.14,259.86,94.39,257.55,94.39
		L257.55,94.39z"/>
</g>
<g>
	
		<linearGradient id="SVGID_00000083086739014840870130000006376638336489672880_" gradientUnits="userSpaceOnUse" x1="20.2457" y1="340.1152" x2="102.9946" y2="340.1152">
		<stop  offset="0" style="stop-color:#D226E1"/>
		<stop  offset="1" style="stop-color:#14D5FB"/>
	</linearGradient>
	<path style="fill:url(#SVGID_00000083086739014840870130000006376638336489672880_);" d="M90.36,423.17
		c-0.97,0-3.99-0.85-11.09-8.75c-19.61-21.84-51.58-76.33-49.72-93.58l0.02-0.19c0.71-6.29,1.03-17.48-4.78-21.73l-0.25-0.18
		c-0.71-0.5-1.9-1.34-2.84-2.89c-1.84-3.02-1.96-7.44-0.25-8.76c0.29-0.22,0.59-0.32,0.97-0.32c0.49,0,1.06,0.16,1.67,0.33
		c0.73,0.21,1.49,0.42,2.3,0.42h0c0.56,0,1.08-0.1,1.56-0.32c4.29-1.87,3.67-10.79,3.07-19.42c-0.27-3.94-0.69-9.84,0.16-10.72
		c0.32,0.21,0.95,1.05,1.51,1.8c1.44,1.92,3.63,4.83,7.67,8.06c0.91,0.73,1.82,1.4,2.62,1.98c2,1.47,3.89,2.86,3.73,3.78
		c-0.06,0.32-0.34,0.5-1.04,0.89c-0.78,0.43-1.84,1.02-2.28,2.32c-1.06,3.11,2.48,6.64,6.96,11.1c1.46,1.46,2.53,2.4,3.38,3.15
		c1.31,1.16,2.1,1.85,3.23,3.44c0.56,0.8,2.01,3.02,3.23,6.47c1.63,4.61,1.64,7.9,1.65,10.54c0.01,2.72,0.01,4.88,1.99,6.66
		c1.7,1.53,3.61,1.62,5.3,1.69c1.76,0.08,3.29,0.15,4.73,1.62c0.95,0.97,1.17,1.84,1.43,2.86c0.29,1.13,0.61,2.42,1.91,3.83
		c1.95,2.12,4.19,2.5,7.02,2.96c1.06,0.17,2.25,0.37,3.56,0.69c5.04,1.22,10.75,2.6,12.79,6.23c1.51,2.69,0.84,6.48,0.13,10.49
		c-0.71,4.02-1.52,8.58-0.21,12.82c0.14,0.44,0.35,1.06,0.44,1.29l-0.02-0.04c0.59,1.56,1.33,2.91,2.09,4.06
		c-3.03-1.98-5.74-3.49-7.47-3.49c-0.58,0-1.07,0.16-1.45,0.48c-1.65,1.38-0.31,4.77,1.38,9.06c0.91,2.3,2.8,7.09,2,7.71
		c-0.03,0.02-0.09,0.04-0.19,0.04c-0.29,0-0.73-0.12-1.2-0.24c-0.73-0.19-1.63-0.43-2.65-0.43c-0.86,0-1.67,0.17-2.46,0.51
		c-1.59,0.68-2.96,2.04-3.86,3.83c-2.33,4.63-0.09,10.73,0.04,11.03l-0.1-0.24c7.04,24.44,5.05,28.46,3.87,29.05
		C90.76,423.13,90.58,423.17,90.36,423.17z"/>
	<path d="M31.72,259.22c0.06,0.08,0.12,0.16,0.18,0.24c1.47,1.96,3.7,4.93,7.85,8.24c0.93,0.74,1.85,1.42,2.66,2.01
		c1.21,0.89,2.83,2.08,3.25,2.73c-0.14,0.08-0.31,0.18-0.45,0.26c-0.87,0.48-2.18,1.2-2.74,2.87c-1.26,3.7,2.47,7.42,7.2,12.13
		c1.48,1.48,2.56,2.43,3.42,3.19c1.3,1.15,2.02,1.78,3.07,3.27c0.54,0.76,1.93,2.9,3.1,6.23c1.57,4.45,1.58,7.64,1.59,10.21
		c0.01,2.74,0.01,5.32,2.32,7.4c1.97,1.77,4.16,1.87,5.92,1.95c1.85,0.08,2.95,0.18,4.06,1.32c0.76,0.77,0.92,1.42,1.17,2.41
		c0.3,1.19,0.67,2.66,2.14,4.26c2.19,2.38,4.69,2.79,7.59,3.27c1.09,0.18,2.22,0.37,3.49,0.67c4.6,1.11,10.33,2.49,12.16,5.75
		c1.33,2.38,0.69,6,0.02,9.83c-0.73,4.13-1.56,8.82-0.18,13.28c0.15,0.5,0.35,1.05,0.45,1.31l0,0c0.12,0.31,0.24,0.61,0.37,0.9
		c-1.88-1.04-3.52-1.69-4.82-1.69c-1.03,0-1.7,0.39-2.09,0.71c-2.2,1.84-0.75,5.53,1.09,10.19c0.73,1.86,1.89,4.78,2.07,6.24
		c-0.09-0.02-0.18-0.05-0.27-0.07c-0.78-0.21-1.76-0.46-2.91-0.46c-0.99,0-1.95,0.2-2.86,0.59c-1.8,0.77-3.35,2.3-4.36,4.3
		c-2.18,4.33-0.74,9.81-0.12,11.52l-0.01,0c7.33,25.42,4.5,27.79,4.39,27.87c0,0-0.03,0.01-0.11,0.01c-0.46,0-3.15-0.41-10.35-8.42
		C70.37,403,57.5,384.03,47.24,365.43c-11.42-20.7-17.5-36.92-16.69-44.49l0.02-0.18c0.74-6.51,1.04-18.11-5.19-22.65
		c-0.08-0.06-0.17-0.12-0.27-0.19c-0.69-0.49-1.73-1.22-2.56-2.59c-1.76-2.89-1.55-6.63-0.49-7.45c0.1-0.08,0.18-0.11,0.36-0.11
		c0.35,0,0.86,0.14,1.39,0.3c0.76,0.22,1.62,0.46,2.58,0.46c0.7,0,1.36-0.13,1.96-0.4c4.94-2.15,4.3-11.43,3.67-20.41
		C31.84,264.9,31.59,261.33,31.72,259.22 M31.17,256.03c-0.08,0-0.16,0.01-0.25,0.04c-3.84,1.24,3.09,27.41-3.36,30.22
		c-0.39,0.17-0.78,0.23-1.17,0.23c-1.34,0-2.69-0.76-3.97-0.76c-0.54,0-1.07,0.14-1.58,0.53c-2.23,1.72-2.02,6.75,0,10.07
		c1.17,1.93,2.69,2.87,3.36,3.36c6.43,4.69,4.53,19.42,4.36,21.01c-2.42,22.39,49.45,103.44,61.8,103.44c0.37,0,0.7-0.07,1-0.22
		c2.36-1.18,3.16-7.62-3.36-30.22c0,0,0,0,0,0c-0.01,0-2.12-5.85,0-10.07c0.22-0.44,1.23-2.44,3.36-3.36
		c0.73-0.31,1.42-0.42,2.07-0.42c1.58,0,2.9,0.67,3.85,0.67c0.3,0,0.57-0.07,0.8-0.24c2.68-2.08-5.63-14.88-3.36-16.79
		c0.2-0.17,0.47-0.24,0.81-0.24c3.19,0,11.76,6.98,12.57,6.98c0.02,0,0.04-0.01,0.05-0.02c0.22-0.3-4.1-3.07-6.31-8.88
		c0,0-0.21-0.56-0.41-1.19c-2.52-8.19,3.3-17.63,0-23.5c-2.26-4.02-8.28-5.47-13.43-6.72c-4.7-1.13-7.67-0.74-10.07-3.36
		c-2.27-2.46-1.1-4.41-3.36-6.72c-3.27-3.34-7.05-0.63-10.07-3.36c-3.3-2.97,0.01-7.28-3.36-16.79c-1.37-3.86-2.99-6.2-3.36-6.72
		c-1.95-2.75-3.03-3.04-6.72-6.72c-4.32-4.31-7.56-7.6-6.72-10.07c0.64-1.87,3.07-1.71,3.36-3.36c0.36-2.03-3.07-3.8-6.72-6.72
		C34.11,260.63,32.7,256.03,31.17,256.03L31.17,256.03z"/>
</g>
<linearGradient id="SVGID_00000062901297548791495790000002140574804440775822_" gradientUnits="userSpaceOnUse" x1="192.0873" y1="125.122" x2="192.0873" y2="125.122">
	<stop  offset="0" style="stop-color:#D226E1"/>
	<stop  offset="1" style="stop-color:#14D5FB"/>
</linearGradient>
<path style="fill:none;stroke:url(#SVGID_00000062901297548791495790000002140574804440775822_);stroke-miterlimit:10;" d="
	M192.09,125.12"/>
<linearGradient id="SVGID_00000150089163034508270970000013878859526371081142_" gradientUnits="userSpaceOnUse" x1="188.7298" y1="111.6916" x2="188.7298" y2="111.6916">
	<stop  offset="0" style="stop-color:#D226E1"/>
	<stop  offset="1" style="stop-color:#14D5FB"/>
</linearGradient>
<path style="fill:none;stroke:url(#SVGID_00000150089163034508270970000013878859526371081142_);stroke-miterlimit:10;" d="
	M188.73,111.69"/>
<g>
	
		<linearGradient id="SVGID_00000114039617669462756090000018096559299244730811_" gradientUnits="userSpaceOnUse" x1="151.4247" y1="334.2981" x2="356.4403" y2="334.2981">
		<stop  offset="0" style="stop-color:#D226E1"/>
		<stop  offset="1" style="stop-color:#14D5FB"/>
	</linearGradient>
	<path style="fill:url(#SVGID_00000114039617669462756090000018096559299244730811_);" d="M269.09,440.08
		c-4.08,0-7.54-1.26-9.05-3.29c-0.48-0.65-0.69-1.28-0.96-2.08c-0.39-1.18-0.88-2.65-2.41-4.65c-1-1.3-2.23-2.53-3.54-3.54
		c-2.11-1.62-3.54-2.04-4.7-2.37c-0.82-0.24-1.36-0.39-1.95-0.93c-1.57-1.44-1.39-3.81-1.19-6.56c0.24-3.26,0.52-6.95-2.07-10.12
		c-0.7-0.86-1.31-1.3-1.8-1.65c-0.56-0.4-0.96-0.69-1.46-1.57c-1.52-2.67-1.51-6.4,0-9.09c0.86-1.52,1.89-2.17,2.99-2.86
		c1.27-0.8,2.72-1.71,3.76-3.93c1.24-2.66,1.58-6.33-0.26-7.9c-0.55-0.47-1.23-0.71-2.03-0.71c-0.81,0-1.62,0.24-2.41,0.47
		c-0.65,0.19-1.27,0.37-1.75,0.37c-0.32,0-0.46-0.08-0.55-0.15c-0.92-0.73-0.21-3.95,0.31-6.3c0.72-3.27,1.34-6.1-0.4-7.19
		c-0.34-0.21-0.73-0.32-1.16-0.32c-0.48,0-0.92,0.13-1.32,0.25c-0.27,0.08-0.55,0.16-0.72,0.16c-0.16-0.21,0.09-1.14,0.24-1.7
		c0.38-1.42,0.85-3.18-0.06-4.75c-0.88-1.54-2.48-1.87-3.88-2.16c-1.21-0.25-2.26-0.47-2.9-1.31c-0.8-1.04-0.81-2.8-0.03-5.23
		c2.4-0.48,5.93-1.55,6.88-3.85c1-2.43-1.14-5.87-3.66-7.88c-1.6-1.28-2.85-1.55-4.75-1.96c-1.37-0.3-3.07-0.67-5.62-1.56
		c-3.56-1.24-5.19-1.84-6.3-3.08c-1.13-1.26-1.43-2.48-1.72-3.65c-0.3-1.2-0.61-2.44-1.84-3.23c-0.58-0.38-1.25-0.57-1.99-0.57
		c-1.72,0-3.61,1.02-5.8,2.2c-1.03,0.56-2.1,1.13-3.24,1.65c-4.13,1.89-8.99,2.92-13.69,2.92c0,0,0,0,0,0c-4.67,0-8.91-1-12.26-2.89
		c-2.72-1.53-4.52-3.75-8.11-8.15c-4.07-5-7.5-10.72-9.92-16.54c-6.91-16.6-8.23-28.42-3.62-32.44c1.26-1.1,2.64-1.34,4.24-1.61
		c2.21-0.38,4.72-0.8,7.54-3.46c1.29-1.21,2.12-2.41,2.86-3.46c1.09-1.56,1.81-2.59,3.42-3.02c0.43-0.11,0.86-0.17,1.32-0.17
		c0.82,0,1.57,0.17,2.3,0.34c0.62,0.14,1.21,0.28,1.76,0.28c0.74,0,1.35-0.25,1.81-0.73c1.02-1.08,0.62-2.5,0.27-3.76
		c-0.32-1.15-0.63-2.23-0.12-3.16c0.41-0.76,1.11-0.95,2.4-1.25c1.2-0.28,2.7-0.62,4.09-1.83c2.18-1.89,2.27-4.23,2.36-6.29
		c0.06-1.55,0.12-2.9,1.05-3.83c0.72-0.72,1.81-1.07,3.34-1.07c2.07,0,4.57,0.63,6.99,1.24c2.34,0.59,4.55,1.15,6.36,1.15
		c1.64,0,2.8-0.46,3.54-1.42c1-1.29,0.61-2.68,0.26-3.9c-0.29-1.04-0.56-2.02-0.13-3.03c1.1-2.61,6.2-4.43,12.39-4.43
		c6.12,0,11.1,1.78,12.68,4.54c0.92,1.61,0.28,4.3-0.28,6.68c-0.69,2.91-1.34,5.66,0.56,7.06c0.5,0.37,1.1,0.56,1.77,0.56
		c0.72,0,1.44-0.21,2.14-0.41c0.63-0.18,1.29-0.37,1.86-0.37c0.39,0,0.71,0.09,1.01,0.27c0.97,0.6,1.09,1.92,1.17,4.01
		c0.09,2.13,0.19,4.54,2.1,6.01c0.62,0.47,1.27,0.69,2.05,0.69c0.54,0,1.11-0.1,1.77-0.23c1.01-0.18,2.26-0.42,4.08-0.42
		c0.84,0,1.74,0.05,2.67,0.15c0.94,0.1,1.75,0.22,2.46,0.32c1.06,0.15,1.89,0.27,2.62,0.27c0.67,0,1.65-0.09,2.44-0.87
		c1.46-1.44,0.87-3.55,0.29-5.59c-0.49-1.73-0.99-3.51-0.19-4.6c0.63-0.84,2.07-1.36,3.78-1.36c1.83,0,3.65,0.58,4.87,1.55
		c1.21,0.96,1.46,2.01,1.75,3.23c0.25,1.05,0.53,2.24,1.47,3.35c1.25,1.47,3.11,2.18,5.67,2.18c2.77,0,6.05-0.84,9.22-1.65
		c2.99-0.76,6.07-1.55,8.48-1.55c1.63,0,2.79,0.36,3.56,1.09c2.14,2.04,0.84,6.97-0.41,11.73c-1.53,5.81-3.11,11.81,0.42,15.14
		c2.08,1.96,5.08,2.12,7.73,2.12l1.73-0.01c2.07,0,3.42,0.15,3.74,0.91c0.32,0.74-0.42,1.82-1.26,3.08
		c-1.21,1.79-2.71,4.01-2.15,6.8c0.35,1.74,1.25,2.48,3.92,4.67c0.83,0.68,1.86,1.53,3.13,2.61c5.59,4.76,8.13,6.99,9.87,9.83
		c1.01,1.65,1.34,2.66,1.63,3.56c0.35,1.07,0.65,1.99,1.84,3.31c2.56,2.83,6.89,4.8,10.53,4.8c1.76,0,3.25-0.47,4.29-1.35
		c1.73-1.46,1.81-3.62,1.87-5.53c0.07-1.87,0.12-3.49,1.45-4.51c0.75-0.58,1.86-0.93,2.95-0.93c1.03,0,1.94,0.31,2.42,0.83
		c1.1,1.16,0.33,3.81-0.23,5.75c-0.36,1.23-0.67,1.75-1.23,2.7c-0.47,0.8-1.12,1.89-2.07,3.86c-0.7,1.45-1.13,2.49-1.48,3.32
		c-0.58,1.39-0.87,2.08-1.76,3.21c-0.67,0.84-1.1,1.2-1.6,1.62c-0.47,0.4-1.01,0.85-1.74,1.71c-2.3,2.73-3.11,5.56-3.46,6.77
		l-0.09,0.3c-1.05,3.4-5.5,6.07-10.21,8.9c-4.85,2.91-10.35,6.22-13.19,11.03c-4.22,7.13-1.84,16.2,0.08,23.49
		c1.58,6.02,2.95,11.21,0.21,13.14c-0.59,0.42-1.15,0.55-2.27,0.8c-1.47,0.34-3.69,0.85-7.6,2.45c-4.13,1.69-6.02,2.46-7.07,3.61
		c-2.63,2.87-2.34,6.54-2.08,9.77c0.23,2.88,0.43,5.37-1.23,6.98c-1.28,1.24-2.97,1.31-4.77,1.38c-1.95,0.08-4.17,0.17-5.45,2.16
		c-1.35,2.09-0.66,4.69-0.1,6.79c0.32,1.21,0.72,2.72,0.31,3.05c-0.04,0.03-0.11,0.09-0.33,0.09c-0.33,0-0.79-0.12-1.29-0.25
		c-0.76-0.2-1.62-0.42-2.61-0.42c-0.79,0-1.52,0.14-2.24,0.43c-1.54,0.63-2.29,1.68-2.95,2.61c-0.25,0.36-0.49,0.7-0.78,1.02
		C276.81,438.79,273.15,440.08,269.09,440.08z"/>
	<path d="M222.19,229.52L222.19,229.52c5.68,0,10.43,1.62,11.81,4.04c0.72,1.26,0.13,3.76-0.39,5.96c-0.7,2.96-1.49,6.3,0.94,8.09
		c0.68,0.5,1.47,0.75,2.37,0.75c0.86,0,1.69-0.24,2.42-0.45c0.59-0.17,1.15-0.33,1.58-0.33c0.25,0,0.38,0.06,0.48,0.12
		c0.59,0.36,0.65,1.81,0.7,3.2c0.09,2.23,0.21,5.01,2.5,6.76c0.79,0.6,1.66,0.9,2.66,0.9c0.63,0,1.24-0.11,1.95-0.24
		c0.97-0.18,2.17-0.4,3.9-0.4c0.8,0,1.67,0.05,2.57,0.14c0.92,0.1,1.72,0.21,2.43,0.31c1.1,0.16,1.96,0.28,2.76,0.28
		c0.49,0,1.97,0,3.14-1.15c1.89-1.85,1.14-4.47,0.55-6.58c-0.4-1.42-0.86-3.04-0.35-3.73c0.36-0.48,1.41-0.96,2.97-0.96
		c1.61,0,3.2,0.5,4.25,1.33c0.94,0.75,1.12,1.51,1.4,2.68c0.26,1.1,0.58,2.48,1.68,3.77c1.43,1.68,3.6,2.54,6.44,2.54
		c2.89,0,6.24-0.85,9.47-1.68c2.93-0.75,5.95-1.52,8.23-1.52c1.36,0,2.3,0.26,2.87,0.81c1.71,1.64,0.44,6.48-0.69,10.75
		c-1.6,6.09-3.26,12.39,0.7,16.12c2.35,2.21,5.57,2.39,8.41,2.39c0.3,0,0.61,0,0.9,0c0.28,0,0.55,0,0.82,0
		c2.04,0,2.67,0.18,2.82,0.29c0.03,0.36-0.72,1.47-1.17,2.13c-1.24,1.84-2.95,4.36-2.31,7.56c0.42,2.09,1.54,3.01,4.26,5.25
		c0.83,0.68,1.85,1.52,3.11,2.6c5.5,4.69,8.01,6.87,9.66,9.59c0.95,1.55,1.26,2.51,1.53,3.35c0.35,1.08,0.72,2.19,2.05,3.67
		c2.78,3.07,7.31,5.13,11.27,5.13c2,0,3.71-0.55,4.94-1.59c2.07-1.75,2.15-4.25,2.23-6.26c0.07-1.87,0.15-3.05,1.06-3.76
		c0.58-0.45,1.46-0.72,2.34-0.72c0.74,0,1.4,0.2,1.7,0.51c0.71,0.75-0.03,3.27-0.47,4.78c-0.32,1.11-0.57,1.53-1.13,2.47
		c-0.48,0.82-1.15,1.93-2.11,3.94c-0.71,1.48-1.15,2.53-1.5,3.37c-0.56,1.34-0.81,1.95-1.62,2.97c-0.6,0.76-0.98,1.08-1.46,1.48
		c-0.51,0.42-1.08,0.91-1.86,1.83c-2.43,2.89-3.29,5.86-3.65,7.13c-0.03,0.11-0.06,0.21-0.08,0.28c-0.93,3.03-5.23,5.61-9.77,8.34
		c-4.95,2.97-10.56,6.35-13.54,11.37c-4.43,7.49-1.99,16.79-0.03,24.25c1.42,5.42,2.77,10.54,0.6,12.06
		c-0.41,0.29-0.82,0.39-1.92,0.65c-1.5,0.34-3.77,0.87-7.76,2.5c-4.27,1.74-6.22,2.54-7.43,3.86c-2.93,3.19-2.6,7.26-2.34,10.52
		c0.24,3.05,0.3,4.98-0.93,6.18c-1.01,0.97-2.45,1.03-4.11,1.1c-2.09,0.08-4.68,0.19-6.25,2.61c-1.59,2.46-0.8,5.42-0.23,7.59
		c0.14,0.54,0.34,1.27,0.42,1.79c-0.16-0.04-0.34-0.08-0.51-0.13c-0.78-0.2-1.74-0.45-2.86-0.45c-0.91,0-1.79,0.17-2.62,0.51
		c-1.82,0.74-2.69,1.97-3.39,2.95c-0.24,0.34-0.46,0.65-0.71,0.93c-1.64,1.86-5.01,3.02-8.79,3.02c-3.71,0-6.94-1.13-8.25-2.89
		c-0.38-0.52-0.55-1.03-0.81-1.8c-0.42-1.25-0.93-2.82-2.57-4.94c-1.05-1.37-2.34-2.66-3.72-3.72c-2.26-1.74-3.86-2.2-5.03-2.54
		c-0.81-0.23-1.15-0.34-1.55-0.71c-1.15-1.06-1.08-2.87-0.87-5.75c0.24-3.27,0.55-7.35-2.29-10.83c-0.79-0.97-1.49-1.47-1.99-1.83
		c-0.52-0.37-0.78-0.56-1.17-1.25c-1.14-2.01-1.5-5.43,0-8.1c0.73-1.29,1.58-1.83,2.65-2.5c1.32-0.83,2.97-1.86,4.13-4.35
		c1.16-2.48,1.98-6.95-0.51-9.08c-0.74-0.63-1.64-0.95-2.68-0.95c-0.95,0-1.87,0.27-2.69,0.51c-0.52,0.15-1.06,0.31-1.4,0.33
		c-0.3-0.89,0.32-3.69,0.66-5.24c0.77-3.49,1.49-6.78-0.84-8.25c-0.5-0.32-1.07-0.48-1.7-0.48c-0.31,0-0.6,0.04-0.87,0.09
		c0.01-0.04,0.02-0.09,0.03-0.13c0.4-1.51,0.96-3.58-0.16-5.51c-1.11-1.92-3.1-2.34-4.55-2.64c-1.17-0.24-1.91-0.42-2.31-0.94
		c-0.52-0.68-0.53-1.99-0.04-3.76c2.85-0.63,6.01-1.88,7.02-4.33c1.34-3.25-1.64-7.19-3.96-9.04c-1.78-1.42-3.2-1.73-5.16-2.16
		c-1.34-0.29-3.01-0.66-5.5-1.52c-3.4-1.18-4.94-1.75-5.88-2.8c-0.96-1.08-1.22-2.12-1.5-3.23c-0.31-1.26-0.7-2.83-2.27-3.83
		c-0.75-0.48-1.6-0.73-2.53-0.73c-1.97,0-3.97,1.08-6.28,2.32c-1.02,0.55-2.07,1.12-3.18,1.62c-4,1.83-8.72,2.83-13.28,2.83
		c-4.5,0-8.57-0.95-11.77-2.76c-2.56-1.44-4.21-3.47-7.82-7.91c-4.01-4.92-7.39-10.56-9.78-16.29c-6.64-15.94-8.09-27.64-3.89-31.3
		c1.05-0.92,2.18-1.11,3.75-1.37c2.24-0.38,5.02-0.85,8.06-3.71c1.36-1.28,2.27-2.58,2.99-3.61c1.11-1.59,1.65-2.31,2.86-2.62
		c0.34-0.09,0.69-0.13,1.06-0.13c0.71,0,1.41,0.16,2.08,0.31c0.68,0.15,1.32,0.3,1.99,0.3c1.28,0,2.08-0.56,2.53-1.04
		c1.41-1.49,0.89-3.36,0.51-4.72c-0.31-1.11-0.49-1.88-0.2-2.42c0.19-0.35,0.54-0.47,1.75-0.75c1.24-0.29,2.94-0.68,4.52-2.05
		c2.5-2.17,2.62-4.97,2.7-7.01c0.06-1.55,0.14-2.54,0.76-3.16c0.52-0.52,1.38-0.77,2.64-0.77c1.95,0,4.39,0.62,6.75,1.21
		c2.4,0.6,4.67,1.18,6.6,1.18c1.95,0,3.4-0.61,4.33-1.8c1.3-1.69,0.8-3.48,0.44-4.78c-0.29-1.04-0.46-1.71-0.18-2.38
		C211.64,231.16,216.57,229.52,222.19,229.52 M222.19,227.52c-6,0-11.92,1.76-13.31,5.05c-1.13,2.67,1.38,4.93,0,6.72
		c-0.58,0.75-1.54,1.03-2.74,1.03c-3.53,0-9.15-2.39-13.35-2.39c-1.63,0-3.05,0.36-4.05,1.36c-2.6,2.6,0.1,7.07-3.36,10.07
		c-2.53,2.2-5.48,1.1-6.72,3.36c-1.34,2.47,1.32,5.32,0,6.72c-0.29,0.31-0.65,0.41-1.08,0.41c-1.02,0-2.4-0.61-4.07-0.61
		c-0.5,0-1.02,0.05-1.57,0.2c-3.22,0.84-3.59,3.78-6.72,6.72c-4.68,4.41-8.44,2.15-11.75,5.04c-7.8,6.8,1.57,29.3,3.36,33.58
		c1.15,2.76,4.19,9.56,10.07,16.79c3.67,4.51,5.51,6.77,8.39,8.39c3.65,2.06,8.14,3.02,12.75,3.02c4.85,0,9.84-1.06,14.11-3.02
		c3.52-1.61,6.43-3.77,8.62-3.77c0.52,0,1.01,0.12,1.45,0.41c1.87,1.2,0.86,3.92,3.36,6.72c1.3,1.46,3.12,2.11,6.72,3.36
		c6.12,2.13,7.6,1.39,10.07,3.36c2.12,1.69,4.17,4.74,3.36,6.72c-1.03,2.51-6.66,3.34-6.72,3.36c-1.08,3.07-1.08,5.31,0,6.72
		c1.76,2.3,5.4,1.08,6.72,3.36c1.34,2.32-1.31,5.6,0,6.72c0.2,0.17,0.44,0.24,0.69,0.24c0.64,0,1.38-0.41,2.04-0.41
		c0.22,0,0.44,0.05,0.63,0.17c2.39,1.5-2.71,11.28,0,13.43c0.34,0.27,0.74,0.37,1.18,0.37c1.26,0,2.84-0.84,4.16-0.84
		c0.51,0,0.98,0.12,1.38,0.47c1.45,1.24,1.03,4.5,0,6.72c-1.76,3.78-4.68,3.12-6.72,6.72c-1.79,3.17-1.57,7.31,0,10.07
		c1.09,1.92,1.96,1.64,3.36,3.36c4.51,5.53-0.64,13.12,3.36,16.79c1.72,1.58,3.2,0.65,6.72,3.36c1.71,1.32,2.83,2.67,3.36,3.36
		c2.47,3.22,2,4.88,3.36,6.72c1.81,2.45,5.79,3.7,9.85,3.7c4.01,0,8.1-1.22,10.29-3.7c1.1-1.24,1.56-2.63,3.36-3.36
		c0.65-0.26,1.27-0.36,1.86-0.36c1.55,0,2.88,0.67,3.89,0.67c0.36,0,0.68-0.08,0.96-0.31c1.94-1.57-2.1-6.83,0-10.07
		c1.99-3.08,6.93-0.33,10.07-3.36c4.12-3.98-1.2-11.83,3.36-16.79c0.9-0.99,2.84-1.78,6.72-3.36c6.93-2.83,8.38-2.17,10.07-3.36
		c7.07-4.97-7.53-24.21,0-36.93c5.47-9.24,21.2-12.66,23.5-20.15c0.28-0.92,0.97-3.88,3.36-6.72c1.4-1.66,1.96-1.6,3.36-3.36
		c1.55-1.95,1.49-2.82,3.36-6.72c2.07-4.31,2.65-4.27,3.36-6.72c0.66-2.26,1.49-5.13,0-6.72c-0.72-0.76-1.9-1.14-3.15-1.14
		c-1.26,0-2.59,0.38-3.56,1.14c-3.29,2.54-0.48,7.64-3.36,10.07c-0.91,0.77-2.19,1.12-3.65,1.12c-3.25,0-7.32-1.75-9.78-4.47
		c-2-2.21-1.11-3.03-3.36-6.72c-1.86-3.04-4.62-5.43-10.07-10.07c-5.24-4.46-6.35-4.88-6.72-6.72c-0.89-4.44,4.5-7.41,3.36-10.07
		c-0.59-1.38-2.44-1.52-4.66-1.52c-0.56,0-1.14,0.01-1.73,0.01c-2.53,0-5.24-0.16-7.04-1.85c-6.01-5.66,5.29-21.8,0-26.86
		c-1.04-0.99-2.51-1.36-4.25-1.36c-5.1,0-12.45,3.2-17.7,3.2c-2.04,0-3.77-0.48-4.91-1.83c-1.79-2.11-0.72-4.62-3.36-6.72
		c-1.48-1.18-3.56-1.77-5.49-1.77c-1.93,0-3.7,0.59-4.58,1.77c-2.16,2.89,2.13,7.99,0,10.07c-0.44,0.43-0.99,0.58-1.74,0.58
		c-1.12,0-2.69-0.34-4.97-0.58c-1.04-0.11-1.96-0.16-2.78-0.16c-3.1,0-4.67,0.64-5.85,0.64c-0.52,0-0.97-0.12-1.44-0.49
		c-3.07-2.35-0.37-8.22-3.36-10.07c-0.5-0.31-1.01-0.42-1.53-0.42c-1.38,0-2.8,0.78-4,0.78c-0.42,0-0.82-0.1-1.18-0.36
		c-2.72-2,2.23-9.52,0-13.43C233.77,229.14,227.95,227.52,222.19,227.52L222.19,227.52z"/>
</g>
<g>
	
		<linearGradient id="SVGID_00000154423012569205071290000004784284632584648839_" gradientUnits="userSpaceOnUse" x1="186.2755" y1="166.3145" x2="483.8491" y2="166.3145">
		<stop  offset="0" style="stop-color:#D226E1"/>
		<stop  offset="1" style="stop-color:#14D5FB"/>
	</linearGradient>
	<path style="fill:url(#SVGID_00000154423012569205071290000004784284632584648839_);" d="M433.27,308.63
		c-3.03-1.83-14.3-16.42-15.22-32.48l-0.04-0.68c-0.15-2.98-0.37-7.49-3.7-10.12c-2.51-1.98-5.64-1.98-8.4-1.98
		c-2.22,0-4.14,0-4.79-1.1c-0.36-0.6-0.21-1.21,0.09-2.24c0.34-1.19,0.76-2.67-0.04-4.39c-1.2-2.57-4.66-4.43-8.22-4.43
		c-1.13,0-2.18,0.19-3.13,0.56c-2.63,1.04-4.06,3.37-5.11,5.06c-0.32,0.52-0.74,1.21-1.02,1.49c-0.13-0.31-0.25-0.93-0.34-1.36
		c-0.33-1.59-0.77-3.78-2.67-5.09c-0.97-0.67-2.17-1.01-3.56-1.01c-1.35,0-2.86,0.34-4.14,0.92c-2.74,1.25-4.16,3.53-5.19,5.19
		c-0.28,0.45-0.65,1.04-0.9,1.32c-0.13-0.34-0.26-0.98-0.35-1.43c-0.33-1.64-0.78-3.89-2.7-5.03c-0.55-0.33-1.12-0.49-1.74-0.49
		c-0.55,0-1.06,0.12-1.6,0.25c-0.62,0.15-1.25,0.31-2.06,0.31c-0.51,0-1.04-0.06-1.6-0.19c-2.46-0.55-4.57-1.61-6.27-3.13
		c-0.85-0.76-1.3-1.38-1.67-1.89c-0.51-0.7-0.99-1.36-2.07-1.68c-0.38-0.11-0.78-0.17-1.18-0.17c-2.92,0-5.76,2.92-6.57,3.82
		c-2.9,3.24-6.01,10.12-3.48,14.59c2.03,3.59,6.81,4.05,10.75,4.05c2.79,0,5.81-0.27,9.01-0.55c3.16-0.28,6.42-0.57,9.39-0.57
		c5.94,0,9.49,1.22,11.17,3.83c1.72,2.69,1.77,7,0.1,8.87c-1.05,1.18-2.75,1.27-4.54,1.36c-1.98,0.11-4.23,0.23-5.6,2.07
		c-1.58,2.14-0.83,4.97-0.23,7.25c0.23,0.86,0.61,2.31,0.43,2.63c-0.6-0.03-1.84-0.82-2.93-1.52c-1.7-1.08-3.62-2.31-5.41-2.31
		c-0.57,0-1.11,0.12-1.58,0.37c-1.38,0.72-1.65,2.08-1.88,3.29c-0.23,1.21-0.47,2.46-1.7,3.58c-0.79,0.73-1.48,0.94-2.43,1.23
		c-1.08,0.33-2.43,0.75-4.2,2.05c-1.13,0.83-1.61,1.43-2.08,2c-0.35,0.43-0.68,0.84-1.34,1.41c-2.01,1.74-5.26,3.51-7.57,3.51
		c-0.54,0-1.01-0.1-1.39-0.29c-0.96-0.48-1.63-2.5-2.81-12.65c-0.13-1.15-0.25-2.21-0.36-3.18c-0.77-6.92-1.09-9.79-3.54-11.03
		c-0.61-0.31-1.27-0.46-2-0.46c-0.92,0-1.78,0.24-2.54,0.46c-0.57,0.16-1.1,0.31-1.49,0.31c-0.28,0-0.38-0.07-0.45-0.14
		c-0.48-0.45-0.09-1.88,0.29-3.27c0.57-2.07,1.28-4.65-0.17-6.66c-1.04-1.44-2.55-1.74-3.89-1.99c-1.36-0.26-2.22-0.47-2.81-1.34
		c-0.55-0.81-0.43-1.56-0.14-2.91c0.2-0.96,0.43-2.04,0.31-3.33c-0.35-3.89-3.54-5.81-6.62-7.66c-2.64-1.58-5.37-3.22-6.92-6.15
		c-2.07-3.91-0.89-8.02,0.15-11.64c0.97-3.39,1.89-6.59-0.34-8.75c-1.02-0.99-2.41-1.47-4.23-1.47c-2.13,0-4.59,0.66-6.98,1.3
		c-2.19,0.59-4.46,1.19-6.21,1.19c-1.27,0-2.11-0.3-2.65-0.95c-1.14-1.36-0.87-4.01,0.08-5.54c0.79-1.27,2.06-1.67,4.85-2.52
		l1.32-0.41c8.06-2.54,12.5-3.95,14.04-7.25c0.48-1.03,0.42-1.63,0.31-2.83c-0.08-0.85-0.2-2.12-0.21-4.31
		c-0.02-2.99,0.18-5.13,0.33-6.69c0.21-2.32,0.33-3.6-0.84-4.25c-0.28-0.16-0.6-0.24-0.95-0.24c-1.68,0-3.88,1.89-6.8,4.56
		c-0.58,0.53-1.28,1.17-1.85,1.64c0.09-0.6,0.21-1.28,0.3-1.75c0.35-1.9,0.45-2.58,0.19-3.09c-0.26-0.5-0.61-0.85-0.68-0.91
		l-0.1-0.1l-0.01-0.01c-0.34-0.29-0.79-0.39-2.56-0.39c-1.84,0-4.36,0.13-4.85,0.16l-0.36,0.02l-0.21,0.2
		c-1.3,0.89-5.29,3.81-6.97,7.03c-1.82,3.5-0.84,7.07-0.12,9.69c0.43,1.55,0.83,3.02,0.34,3.46c-0.06,0.05-0.23,0.2-0.72,0.2
		c-1.34,0-3.55-1.11-5.5-2.08c-2.11-1.05-4.09-2.05-5.58-2.05c-0.67,0-1.23,0.2-1.65,0.58c-1.2,1.1-0.88,3.15,0.38,6.17
		c-0.29-0.09-0.61-0.14-0.94-0.14c-0.73,0-1.46,0.22-2.17,0.43c-0.66,0.2-1.28,0.39-1.84,0.39c-0.36,0-0.66-0.08-0.93-0.25
		c-0.85-0.53-0.95-1.68-1.04-3.51c-0.1-2.01-0.22-4.51-2.14-6.42c-1.37-1.36-2.91-1.68-4.15-1.93c-1.27-0.26-1.95-0.44-2.4-1.21
		c-0.57-0.98-0.25-2.09,0.08-3.26c0.34-1.2,0.73-2.56-0.2-3.62c-0.62-0.71-1.71-1.08-3.14-1.08c-3.11,0-7.17,1.74-8.58,4.66
		c-1.17,2.42-0.64,5.69,1.59,9.76c-0.05-0.03-0.11-0.07-0.16-0.1c-4.5-2.78-10.33-4.44-15.62-4.44c-5.3,0-9.62,1.59-12.49,4.6
		c-1.79,1.87-3,4.29-3.61,7.2l-0.03,0.14l0.01,0.15c0,0.03,0.02,0.14,0.07,0.31c0.68,2.53,0.69,4.66,0.05,5.84
		c-0.34,0.63-0.71,0.77-2.07,1.23c-0.99,0.33-2.35,0.78-4.21,1.71c-1.91,0.95-3.16,1.81-4.08,2.43c-0.77,0.53-1.33,0.91-1.67,0.91
		c-0.06,0-0.13-0.01-0.21-0.04c-0.38-0.13-0.54-0.47-1.01-1.88c-0.35-1.04-0.84-2.47-1.77-4.33c-0.92-1.84-1.78-3.11-2.41-4.03
		c-0.77-1.14-1.03-1.56-0.91-1.88c0.25-0.63,1.55-0.88,2.69-1.11c1.61-0.31,3.44-0.67,4.03-2.26c0.67-1.8-0.87-3.59-2.11-5.03
		c-0.36-0.42-0.86-1.01-1.11-1.41c0.49,0.03,1.22,0.2,2.04,0.38c1.59,0.36,3.58,0.8,5.78,0.8c1.76,0,3.4-0.29,4.9-0.88
		c0.55-0.22,5.45-2.26,7.29-7.3c1.18-3.23,1.14-5.79-0.11-7.62c-0.58-0.85-1.26-1.3-1.85-1.69c-0.64-0.42-1.1-0.73-1.4-1.47
		c-0.01-0.01-0.54-1.36-0.01-2.59c0.94-2.18,4.68-2.62,5.91-2.76c0.47-0.06,0.93-0.08,1.37-0.08c1.03,0,1.79,0.15,2.46,0.28
		c0.51,0.1,0.99,0.2,1.48,0.2c0.67,0,1.25-0.18,1.83-0.55c1.27-0.82,1.6-1.97,1.95-3.2c0.31-1.07,0.65-2.29,1.69-3.79
		c0.58-0.83,1.54-2.22,3.03-3.06c0.77-0.44,1.54-0.64,2.39-0.64c0.96,0,1.97,0.26,3.04,0.53c1.29,0.33,2.76,0.7,4.44,0.7
		c1.13,0,2.23-0.17,3.36-0.51c2.63-0.8,5.64-2.63,6.67-3.28c0.72,0.08,2.42,0.23,4.52,0.23c4.48,0,10.34-0.7,12.83-4.02
		c2.1-2.79,1.06-6.35,0.14-9.49c-0.83-2.84-1.61-5.52-0.17-7.26c0.81-0.99,2.03-1.39,4.2-1.39c0.55,0,1.1,0.02,1.66,0.04
		c0.59,0.02,1.18,0.05,1.75,0.05c1.96,0,4.18-0.24,5.79-2.03c2.53-2.82,1.37-6.97,0.25-10.98c-1.02-3.66-1.98-7.11-0.23-9.19
		c0.85-1,2.08-1.43,4.1-1.43c0.94,0,1.93,0.09,2.98,0.18c1.09,0.1,2.21,0.2,3.32,0.2c1.78,0,4.37-0.23,6.34-2.25
		c2.56-2.63,2.12-6.2,1.69-9.66c-0.44-3.62-0.9-7.36,1.72-10.55c1.89-2.3,5.77-4.88,9.67-6.42c1.02-0.4,1.96-0.7,2.78-0.97
		c2.17-0.69,3.88-1.23,4.5-2.99c0.52-1.47,0.12-3.34-3.53-7.69c-2.81-3.34-5.49-5.75-7.45-7.43c0.23,0.09,0.45,0.18,0.66,0.27
		c2.89,1.18,6.17,2.51,8.18,2.51c0.91,0,1.57-0.27,1.98-0.8c1.19-1.54-0.38-4.14-3.29-7.85l-0.08-0.1
		c-7.41-9.44-11.06-15.84-13.99-20.99c-3.54-6.22-6.11-10.72-13.05-16.12c-5.73-4.46-10.71-6.65-13.69-7.95
		c-0.91-0.4-1.91-0.84-2.44-1.16c0.59-0.23,2.09-0.57,5.71-0.57c14.46,0,37.68,4.62,39,7.1c-0.36,0.58-2.76,1.65-5.92,2.4
		c-1.51,0.35-3.01,0.53-4.6,0.53c-2.18,0-4-0.33-5.47-0.59c-0.94-0.17-1.68-0.3-2.28-0.3c-0.85,0-1.44,0.3-1.74,0.88
		c-0.73,1.41,0.7,2.64,3.81,5.35c1.75,1.51,3.92,3.4,6.44,5.9c2.73,2.7,4.29,4.57,5.44,5.94c1.6,1.92,2.57,3.08,4.87,4.3
		c2.92,1.56,6.5,2.41,10.08,2.41c3.69,0,7.65-0.95,8.15-3.06c0.34-1.42-0.88-2.35-2.73-3.77c-1.82-1.39-4.57-3.5-7.54-7.17
		c-1.58-1.96-3.75-4.64-3.25-5.63c0.23-0.44,1.23-0.88,2.97-0.88c1.86,0,4.02,0.5,5.79,1.33c1.65,0.78,2.29,1.71,3.11,2.9
		c0.77,1.12,1.64,2.38,3.43,3.71c3.97,2.95,8.72,3.16,17.34,3.55c1.26,0.06,2.36,0.08,3.34,0.08c1.64,0,2.62-0.08,3.4-0.14
		c0.51-0.04,0.94-0.08,1.44-0.08c0.52,0,1.1,0.04,1.81,0.13c8.01,0.97,15.27,5.35,18.03,8.97c0.95,1.25,1.38,2.39,1.24,3.32
		c-0.2,1.33-1.61,2.09-3.11,2.89c-1.66,0.88-3.53,1.89-3.61,3.93c-0.1,2.61,2.71,3.71,6.26,5.1c4.06,1.59,9.63,3.77,14.12,9.02
		c1.07,1.25,1.94,2.52,2.78,3.75c2.02,2.95,3.92,5.74,7.83,6.65c0.7,0.16,1.36,0.24,2,0.24c0.77,0,1.42-0.12,1.99-0.22
		c0.5-0.09,0.98-0.18,1.49-0.18c0.39,0,0.79,0.05,1.22,0.15c4.5,1.07,7.12,6.83,9.04,11.04c1.53,3.36,2.64,5.79,4.49,5.79
		c0.09,0,0.18-0.01,0.27-0.02c1.61-0.22,1.99-2.01,2.35-3.74c0.26-1.22,0.58-2.75,1.27-3.05c0.12-0.05,0.28-0.08,0.47-0.08
		c5.65,0,23.33,18.62,28.37,43.02c1.65,7.97,1.2,12.99,0.81,17.42c-0.45,5.15-0.85,9.6,2.63,16.41c2.77,5.42,6.06,8.6,9.24,11.67
		c3.77,3.64,7.67,7.4,10.87,15.12c2.54,6.1,5.16,12.41,3.31,19.51c-1.69,6.53-6.3,10.43-10.37,13.88
		c-3.81,3.22-7.09,6.01-6.44,10.04c0.52,3.2,3.12,4.64,5.88,6.17c2.97,1.65,6.04,3.36,7.6,7.45c1.77,4.63,0.73,10.26-0.99,13.54
		c-0.62,1.19-1.14,1.69-1.38,1.84c-0.15-0.15-0.39-0.43-0.65-0.72c-0.45-0.52-1.08-1.25-2.03-2.27c-1.11-1.19-1.83-1.87-2.46-2.48
		c-0.32-0.31-0.61-0.59-0.91-0.89c-2.42-2.47-4.74-5.94-6.52-9.79c-1.45-3.13-1.71-4.87-1.91-6.26c-0.2-1.34-0.37-2.51-1.57-4.02
		c-2.41-3.02-6.87-4.9-11.66-4.9c-2.26,0-4.45,0.43-6.32,1.25c-3.07,1.34-7.51,4.62-10.64,17.47c-3.96,16.23-1.56,30.25-0.27,37.78
		C432.93,305.65,433.27,307.68,433.27,308.63z M268.6,228.36c-0.5-0.09-1.79-0.57-4.88-2.9c0.61-2.35,0.93-4.32,0.96-5.92
		c0.19,0.38,0.39,0.77,0.6,1.17C266.63,223.3,268.61,227.15,268.6,228.36z"/>
	<path d="M272.94,25L272.94,25c12.56,0,32.44,3.59,37.27,6.06c-0.99,0.47-2.61,1.03-4.42,1.46c-1.43,0.34-2.86,0.5-4.37,0.5
		c-2.09,0-3.87-0.32-5.29-0.57c-0.99-0.18-1.77-0.32-2.46-0.32c-1.65,0-2.35,0.89-2.63,1.42c-1.09,2.11,0.74,3.69,4.05,6.56
		c1.73,1.5,3.89,3.37,6.39,5.85c2.7,2.67,4.24,4.52,5.37,5.87c1.62,1.94,2.7,3.23,5.17,4.55c3.06,1.63,6.81,2.53,10.55,2.53
		c3.97,0,8.45-1.01,9.13-3.83c0.49-2.05-1.17-3.32-3.09-4.8c-1.78-1.36-4.47-3.43-7.37-7c-1.03-1.28-2.91-3.59-3.08-4.54
		c0.25-0.13,0.88-0.34,2.03-0.34c1.72,0,3.72,0.46,5.36,1.23c1.4,0.66,1.92,1.42,2.72,2.57c0.77,1.12,1.73,2.52,3.66,3.95
		c4.22,3.13,9.36,3.36,17.89,3.75c1.28,0.06,2.39,0.09,3.39,0.09c1.68,0,2.68-0.08,3.48-0.14c0.51-0.04,0.91-0.07,1.36-0.07
		c0.48,0,1.02,0.04,1.69,0.12c7.46,0.91,14.68,5.08,17.36,8.58c0.76,1,1.14,1.93,1.05,2.57c-0.11,0.77-1.1,1.35-2.6,2.15
		c-1.8,0.96-4.04,2.16-4.14,4.78c-0.13,3.32,3.13,4.59,6.9,6.07c3.96,1.55,9.4,3.68,13.73,8.74c1.03,1.21,1.89,2.45,2.71,3.66
		c2.13,3.12,4.14,6.06,8.42,7.06c0.78,0.18,1.51,0.27,2.23,0.27c0.86,0,1.56-0.13,2.17-0.24c0.48-0.09,0.89-0.16,1.32-0.16
		c0.32,0,0.64,0.04,0.99,0.12c4.02,0.96,6.53,6.46,8.36,10.48c1.69,3.7,2.9,6.37,5.4,6.37c0.13,0,0.27-0.01,0.41-0.03
		c2.31-0.32,2.82-2.75,3.19-4.52c0.15-0.7,0.42-1.99,0.71-2.34c0.01,0,0.03,0,0.05,0c4.51,0,22.28,17.52,27.39,42.22
		c1.62,7.82,1.18,12.77,0.8,17.13c-0.47,5.31-0.87,9.89,2.74,16.95c2.85,5.57,6.2,8.81,9.44,11.94c3.87,3.73,7.52,7.26,10.64,14.78
		c2.47,5.95,5.03,12.1,3.27,18.88c-1.61,6.22-6.09,10.02-10.05,13.36c-3.87,3.28-7.53,6.37-6.78,10.96c0.6,3.67,3.54,5.31,6.38,6.89
		c2.81,1.56,5.72,3.18,7.16,6.94c2.05,5.37-0.06,11.5-1.42,13.54c-0.43-0.5-1.07-1.23-1.97-2.19c-1.13-1.2-1.89-1.93-2.49-2.51
		c-0.31-0.3-0.6-0.57-0.89-0.88c-2.34-2.38-4.59-5.76-6.33-9.51c-1.39-3-1.63-4.65-1.83-5.98c-0.21-1.43-0.41-2.77-1.78-4.49
		c-2.59-3.26-7.36-5.28-12.44-5.28c-2.4,0-4.72,0.46-6.72,1.34c-3.26,1.43-7.98,4.87-11.21,18.15c-4,16.43-1.59,30.58-0.29,38.18
		c0.13,0.78,0.27,1.59,0.39,2.34c-4.19-4.46-12.19-16.95-12.95-30.09c-0.01-0.21-0.02-0.44-0.04-0.67
		c-0.15-2.97-0.39-7.95-4.08-10.85c-2.78-2.19-6.24-2.19-9.01-2.2c-1.67,0-3.57,0-3.94-0.62c-0.13-0.22-0.07-0.54,0.19-1.45
		c0.35-1.21,0.87-3.03-0.1-5.09c-1.36-2.9-5.2-5-9.13-5c-1.25,0-2.43,0.21-3.49,0.63c-2.7,1.07-4.26,3.33-5.31,5.02
		c-0.37-1.58-1.03-3.53-2.89-4.81c-1.14-0.79-2.53-1.19-4.13-1.19c-1.49,0-3.15,0.37-4.55,1.01c-2.65,1.21-4.19,3.31-5.23,4.94
		c-0.37-1.64-1.05-3.69-2.99-4.84c-0.71-0.42-1.45-0.63-2.25-0.63c-0.67,0-1.26,0.14-1.84,0.28c-0.58,0.14-1.13,0.28-1.83,0.28
		c-0.44,0-0.89-0.05-1.38-0.16c-2.29-0.51-4.25-1.49-5.82-2.9c-0.77-0.69-1.17-1.24-1.53-1.73c-0.56-0.76-1.18-1.63-2.59-2.05
		c-0.47-0.14-0.97-0.21-1.47-0.21c-3.34,0-6.44,3.18-7.31,4.15c-5.29,5.91-5.29,12.77-3.61,15.75c2.31,4.09,7.74,4.56,11.62,4.56
		c2.84,0,6.02-0.28,9.1-0.56c3.13-0.28,6.38-0.57,9.3-0.57c5.57,0,8.85,1.07,10.33,3.37c1.46,2.28,1.56,6.14,0.2,7.66
		c-0.72,0.81-1.94,0.93-3.84,1.03c-2.1,0.11-4.71,0.25-6.35,2.47c-1.86,2.52-1.01,5.74-0.39,8.1c0.06,0.23,0.13,0.5,0.2,0.76
		c-0.41-0.24-0.84-0.52-1.2-0.75c-1.81-1.16-3.87-2.47-5.95-2.47c-0.73,0-1.42,0.16-2.04,0.48c-1.82,0.94-2.16,2.7-2.41,3.98
		c-0.22,1.15-0.41,2.13-1.39,3.04c-0.62,0.58-1.13,0.73-2.05,1.01c-1.15,0.35-2.59,0.8-4.5,2.21c-1.23,0.91-1.78,1.58-2.26,2.17
		c-0.34,0.41-0.63,0.77-1.22,1.28c-1.82,1.58-4.87,3.26-6.92,3.26c-0.38,0-0.7-0.06-0.95-0.18c-0.94-0.47-1.91-8.76-2.27-11.87
		c-0.13-1.15-0.25-2.2-0.36-3.17c-0.79-7.09-1.15-10.33-4.08-11.81c-0.75-0.38-1.57-0.57-2.45-0.57c-1.05,0-2.03,0.27-2.82,0.5
		c-0.3,0.08-0.63,0.18-0.89,0.23c0.05-0.54,0.3-1.45,0.48-2.1c0.59-2.16,1.41-5.11-0.32-7.51c-1.27-1.77-3.14-2.13-4.51-2.39
		c-1.27-0.24-1.82-0.4-2.18-0.92c-0.3-0.44-0.27-0.83,0.01-2.14c0.21-0.98,0.46-2.19,0.33-3.63c-0.4-4.4-3.81-6.44-7.1-8.42
		c-2.52-1.51-5.13-3.08-6.55-5.76c-1.88-3.55-0.81-7.29,0.23-10.9c1.01-3.52,2.06-7.16-0.6-9.75c-1.2-1.16-2.86-1.75-4.93-1.75
		c-2.26,0-4.79,0.68-7.24,1.33c-2.13,0.57-4.33,1.16-5.95,1.16c-1.25,0-1.67-0.34-1.89-0.59c-0.74-0.88-0.66-3.05,0.17-4.37
		c0.57-0.91,1.48-1.23,4.3-2.1c0.41-0.13,0.85-0.26,1.32-0.41c8.33-2.63,12.91-4.08,14.64-7.78c0.59-1.27,0.52-2.1,0.4-3.35
		c-0.08-0.83-0.2-2.08-0.21-4.22c-0.02-2.94,0.18-5.05,0.32-6.59c0.22-2.38,0.39-4.25-1.35-5.22c-0.43-0.24-0.92-0.36-1.44-0.36
		c-1.98,0-4.14,1.79-7.17,4.54c0.21-1.26,0.24-1.97-0.1-2.64c-0.22-0.43-0.54-0.83-0.81-1.1c-0.05-0.05-0.11-0.11-0.21-0.19
		c-0.63-0.55-1.36-0.64-3.22-0.64c-1.86,0-4.41,0.13-4.91,0.16l-0.73,0.04l-0.42,0.4c-1.65,1.14-5.5,4.03-7.23,7.35
		c-2.01,3.85-0.96,7.64-0.19,10.41c0.21,0.76,0.51,1.85,0.53,2.4c-1.12-0.03-3.27-1.11-5-1.98c-2.31-1.16-4.3-2.16-6.02-2.16
		c-1.16,0-1.9,0.46-2.32,0.85c-1.39,1.27-1.31,3.27-0.45,5.8c-0.68,0.07-1.32,0.27-1.9,0.44c-0.56,0.17-1.14,0.34-1.55,0.34
		c-0.22,0-0.32-0.05-0.41-0.1c-0.42-0.26-0.5-1.24-0.57-2.71c-0.1-2.07-0.24-4.9-2.43-7.08c-1.58-1.57-3.36-1.94-4.65-2.2
		c-1.19-0.25-1.52-0.36-1.74-0.74c-0.33-0.57-0.15-1.32,0.18-2.48c0.37-1.3,0.88-3.09-0.41-4.55c-0.82-0.93-2.16-1.42-3.89-1.42
		c-3.37,0-7.83,1.83-9.48,5.23c-1.04,2.14-0.96,4.73,0.25,7.82c-4.18-2.01-9.05-3.17-13.54-3.17c-5.58,0-10.15,1.7-13.22,4.91
		c-1.92,2.01-3.22,4.6-3.87,7.69l-0.06,0.28l0.02,0.29c0.02,0.19,0.05,0.33,0.1,0.5c0.6,2.25,0.65,4.16,0.14,5.11
		c-0.13,0.25-0.17,0.31-1.51,0.76c-1.02,0.34-2.41,0.81-4.34,1.76c-1.97,0.98-3.26,1.86-4.19,2.5c-0.32,0.22-0.71,0.48-0.96,0.63
		c-0.12-0.28-0.28-0.75-0.41-1.14c-0.36-1.07-0.86-2.54-1.82-4.46c-0.95-1.9-1.83-3.2-2.48-4.14c-0.22-0.33-0.49-0.72-0.65-0.99
		c0.42-0.18,1.26-0.35,1.79-0.45c1.68-0.33,3.99-0.78,4.77-2.9c0.74-1.99-0.45-3.82-1.65-5.27c1.47,0.32,3.32,0.67,5.31,0.67
		c1.88,0,3.65-0.32,5.26-0.95c0.6-0.23,5.87-2.43,7.87-7.89c1.29-3.55,1.22-6.42-0.23-8.53c-0.69-1.01-1.52-1.56-2.13-1.96
		c-0.63-0.41-0.85-0.58-1.02-1.01c-0.11-0.27-0.32-1.14-0.02-1.83c0.47-1.1,2.19-1.82,5.11-2.16c0.43-0.05,0.86-0.08,1.25-0.08
		c0.94,0,1.61,0.13,2.26,0.27c0.56,0.11,1.09,0.22,1.67,0.22c0.86,0,1.63-0.23,2.38-0.71c1.58-1.02,2-2.48,2.37-3.76
		c0.3-1.05,0.61-2.13,1.55-3.49c0.56-0.81,1.41-2.03,2.7-2.76c0.63-0.35,1.21-0.51,1.9-0.51c0.83,0,1.74,0.23,2.79,0.5
		c1.35,0.34,2.88,0.73,4.68,0.73c1.23,0,2.43-0.18,3.65-0.55c1.39-0.42,3.03-1.16,4.88-2.19c0.76-0.42,1.33-0.75,1.77-1.02
		c0.87,0.08,2.41,0.19,4.24,0.19c6.85,0,11.43-1.49,13.63-4.42c2.4-3.19,1.28-7.01,0.3-10.37c-0.91-3.12-1.39-5.1-0.36-6.34
		c0.61-0.74,1.57-1.03,3.43-1.03c0.53,0,1.08,0.02,1.62,0.04c0.58,0.02,1.19,0.05,1.79,0.05c2.05,0,4.65-0.27,6.53-2.36
		c2.9-3.22,1.61-7.84,0.47-11.92c-0.9-3.25-1.84-6.6-0.43-8.27c0.64-0.76,1.64-1.08,3.34-1.08c0.89,0,1.86,0.09,2.89,0.18
		c1.11,0.1,2.26,0.2,3.41,0.2c1.96,0,4.83-0.26,7.06-2.56c2.89-2.97,2.42-6.79,1.97-10.47c-0.44-3.57-0.85-6.93,1.5-9.8
		c1.76-2.14,5.57-4.66,9.26-6.12c0.98-0.39,1.91-0.68,2.72-0.94c2.24-0.71,4.36-1.39,5.14-3.61c0.77-2.18-0.23-4.53-3.71-8.67
		c-1.25-1.48-2.49-2.8-3.65-3.95c1.6,0.55,3.11,0.93,4.28,0.93c1.53,0,2.36-0.65,2.78-1.19c1.75-2.28-0.56-5.59-3.29-9.08l-0.07-0.1
		c-7.36-9.38-10.99-15.75-13.91-20.86c-3.6-6.32-6.2-10.89-13.3-16.41c-5.48-4.27-10.28-6.48-13.34-7.83
		C271.27,25.02,272.03,25,272.94,25 M265.31,222.94c0.62,1.23,1.25,2.53,1.7,3.58c-0.55-0.34-1.26-0.81-2.15-1.47
		C265.04,224.31,265.19,223.61,265.31,222.94 M272.94,23c-4.02,0-6.74,0.42-6.98,1.4c-0.42,1.67,6.96,2.42,16.79,10.07
		C295.05,44.04,293,50.25,309.6,71.4c1.26,1.61,4.33,5.46,3.36,6.72c-0.22,0.29-0.64,0.41-1.19,0.41c-3.09,0-10.44-3.87-11.97-3.87
		c-0.14,0-0.23,0.03-0.26,0.1c-0.35,0.64,4.72,3.7,10.07,10.07c3.5,4.16,3.72,5.7,3.36,6.72c-0.65,1.82-3.15,1.94-6.72,3.36
		c-3.9,1.54-8.01,4.21-10.07,6.72c-5.53,6.73,1.31,15.35-3.36,20.15c-1.52,1.56-3.51,1.95-5.62,1.95c-2.09,0-4.31-0.38-6.3-0.38
		c-1.94,0-3.67,0.36-4.87,1.79c-4.19,4.97,4.31,15.35,0,20.15c-1.29,1.43-3.11,1.7-5.04,1.7c-1.13,0-2.29-0.09-3.41-0.09
		c-1.94,0-3.75,0.27-4.97,1.75c-3.57,4.33,3.57,12.03,0,16.79c-2.26,3.02-7.91,3.62-12.03,3.62c-2.71,0-4.76-0.26-4.76-0.26
		c0,0-3.7,2.44-6.72,3.36c-1.11,0.34-2.13,0.46-3.07,0.46c-2.93,0-5.17-1.23-7.48-1.23c-0.93,0-1.88,0.2-2.88,0.77
		c-1.68,0.95-2.74,2.46-3.36,3.36c-2.33,3.35-1.5,5.52-3.36,6.72c-0.45,0.29-0.86,0.39-1.29,0.39c-0.95,0-2.01-0.48-3.94-0.48
		c-0.45,0-0.94,0.03-1.48,0.09c-1.44,0.17-5.55,0.64-6.72,3.36c-0.68,1.59-0.05,3.23,0,3.36c0.74,1.85,2.3,1.81,3.36,3.36
		c1.6,2.34,0.35,5.76,0,6.72c-1.71,4.68-6.33,6.57-6.72,6.72c-1.53,0.6-3.07,0.81-4.53,0.81c-3.47,0-6.5-1.19-8-1.19
		c-0.45,0-0.76,0.11-0.9,0.38c-0.73,1.39,4.2,4.43,3.36,6.72c-0.8,2.16-5.84,1.09-6.72,3.36c-0.55,1.42,1.21,2.43,3.36,6.72
		c2.15,4.31,1.82,6.2,3.36,6.72c0.18,0.06,0.36,0.09,0.53,0.09c1.24,0,2.34-1.53,6.19-3.45c4.33-2.16,5.79-1.64,6.72-3.36
		c1.33-2.45,0.01-6.6,0-6.72c0.43-2.03,1.32-4.58,3.36-6.72c2.88-3.02,7.19-4.29,11.77-4.29c5.24,0,10.84,1.66,15.09,4.29
		c1.98,1.22,3.68,2.66,5.09,4.07c-3.39-4.42-6.95-10.31-5.09-14.14c1.29-2.65,5.06-4.1,7.68-4.1c1.07,0,1.95,0.24,2.39,0.74
		c1.23,1.39-1.45,4.2,0,6.72c1.36,2.35,4.34,1,6.72,3.36c3.19,3.17,0.59,8.36,3.36,10.07c0.47,0.29,0.96,0.4,1.46,0.4
		c1.38,0,2.8-0.82,4.01-0.82c0.45,0,0.87,0.11,1.24,0.42c2.44,2,0.04,9.78,0,10.07c2.48,1.92,4.92,3.53,6.16,3.53
		c0.23,0,0.42-0.06,0.56-0.17c2.2-1.86-9.49-17.6-6.72-20.15c0.24-0.22,0.58-0.32,0.97-0.32c2.59,0,8.04,4.13,11.08,4.13
		c0.55,0,1.02-0.14,1.38-0.46c2.19-1.94-2.92-7.82,0-13.43c1.83-3.5,6.68-6.68,6.72-6.72c0.41-0.02,2.96-0.15,4.8-0.15
		c0.99,0,1.78,0.04,1.92,0.15c0.04,0.03,0.07,0.06,0.07,0.07c0,0,0.29,0.27,0.48,0.64c0.28,0.55-1.13,5.52-0.55,6.01
		c0.04,0.03,0.08,0.05,0.14,0.05c1.24,0,7.02-6.87,9.46-6.87c0.18,0,0.33,0.04,0.47,0.11c1.07,0.59-0.04,3.13,0,10.07
		c0.03,5.13,0.65,5.33,0,6.72c-1.33,2.84-5.38,4.17-13.43,6.72c-3.77,1.19-5.59,1.54-6.72,3.36c-1.15,1.84-1.45,4.99,0,6.72
		c0.8,0.96,2,1.31,3.42,1.31c3.8,0,9.23-2.49,13.19-2.49c1.42,0,2.64,0.32,3.54,1.19c3.87,3.75-4.23,12.17,0,20.15
		c3.6,6.79,12.86,7.07,13.43,13.43c0.25,2.81-1.38,4.69,0,6.72c1.68,2.47,5.07,1.07,6.72,3.36c2.21,3.07-1.95,8.24,0,10.07
		c0.32,0.3,0.71,0.41,1.14,0.41c1.13,0,2.57-0.77,4.04-0.77c0.52,0,1.03,0.1,1.54,0.35c2.26,1.15,2.31,4.48,3.36,13.43
		c1.31,11.23,2.01,12.75,3.36,13.43c0.55,0.28,1.17,0.4,1.84,0.4c2.77,0,6.28-2.06,8.23-3.75c1.62-1.4,1.51-1.99,3.36-3.36
		c3.17-2.34,4.74-1.53,6.72-3.36c2.77-2.56,1.34-5.67,3.36-6.72c0.35-0.18,0.73-0.26,1.12-0.26c2.75,0,6.41,3.8,8.33,3.8
		c0.24,0,0.44-0.06,0.62-0.19c1.71-1.23-2.33-6.92,0-10.07c2.17-2.93,7.41-0.39,10.07-3.36c2.07-2.31,1.86-7.17,0-10.07
		c-2.17-3.4-6.71-4.3-12.01-4.3c-5.93,0-12.82,1.13-18.4,1.13c-4.6,0-8.31-0.76-9.88-3.55c-2.17-3.84,0.48-10.21,3.36-13.43
		c0.37-0.42,3.18-3.49,5.82-3.49c0.3,0,0.6,0.04,0.9,0.13c1.38,0.42,1.29,1.51,3.36,3.36c2.7,2.42,5.72,3.13,6.72,3.36
		c0.69,0.15,1.29,0.21,1.82,0.21c1.66,0,2.67-0.56,3.66-0.56c0.4,0,0.8,0.09,1.23,0.35c2.74,1.62,1.81,6.41,3.36,6.72
		c0.05,0.01,0.09,0.01,0.14,0.01c1.49,0,2.37-4.81,6.58-6.73c1-0.46,2.37-0.83,3.72-0.83c1.06,0,2.12,0.23,2.99,0.83
		c2.79,1.93,1.83,6.39,3.36,6.72c0.05,0.01,0.11,0.02,0.16,0.02c1.58,0,2.56-5.15,6.56-6.73c0.85-0.34,1.8-0.49,2.76-0.49
		c3.04,0,6.24,1.56,7.31,3.85c1.26,2.69-1.22,4.66,0,6.72c1.93,3.23,9.03-0.11,13.43,3.36c3.23,2.54,3.2,7.33,3.36,10.07
		c0.99,17.11,13.9,33.6,16.62,33.6c0.06,0,0.12-0.01,0.17-0.02c2.32-0.77-5.85-19.67,0-43.65c3.01-12.35,7.17-15.52,10.07-16.79
		c1.8-0.79,3.85-1.17,5.91-1.17c4.25,0,8.55,1.61,10.87,4.53c2.14,2.69,0.43,3.76,3.36,10.07c0.49,1.05,2.84,6.13,6.72,10.07
		c0.89,0.9,1.68,1.56,3.36,3.36c2.53,2.7,2.77,3.36,3.33,3.36c0.01,0,0.02,0,0.02,0c2.18-0.07,6.21-9.33,3.36-16.79
		c-3.2-8.39-12.49-7.66-13.43-13.43c-1.19-7.31,13.41-10.48,16.79-23.5c1.93-7.43-0.83-14.07-3.36-20.15
		c-6-14.44-14.19-15.21-20.15-26.86c-6.18-12.1,0.29-15.9-3.36-33.58c-5.1-24.71-23.24-43.81-29.35-43.81
		c-0.33,0-0.62,0.05-0.87,0.17c-2.26,0.99-1.47,6.45-3.36,6.72c-0.04,0.01-0.09,0.01-0.13,0.01c-3.07,0-5.1-14.85-13.3-16.8
		c-0.55-0.13-1.02-0.18-1.46-0.18c-1.24,0-2.14,0.4-3.48,0.4c-0.51,0-1.09-0.06-1.77-0.22c-5.01-1.17-6.35-5.72-10.07-10.07
		c-8.43-9.85-20.31-9.19-20.15-13.43c0.12-3.03,6.19-3.15,6.72-6.72c0.73-4.92-9.76-12.17-20.15-13.43
		c-0.82-0.1-1.41-0.13-1.93-0.13c-1.3,0-2.15,0.22-4.85,0.22c-0.88,0-1.95-0.02-3.3-0.08c-8.71-0.39-13.14-0.65-16.79-3.36
		c-3.59-2.67-3.2-5.06-6.72-6.72c-1.98-0.93-4.29-1.42-6.21-1.42c-1.86,0-3.37,0.46-3.86,1.42c-0.79,1.54,1.16,4,3.36,6.72
		c5.68,7.02,10.48,8.38,10.07,10.07c-0.3,1.24-3.32,2.29-7.18,2.29c-2.99,0-6.49-0.63-9.61-2.29c-3.7-1.97-3.57-3.64-10.07-10.07
		c-6.33-6.27-10.69-8.88-10.07-10.07c0.13-0.24,0.42-0.34,0.85-0.34c1.35,0,4.1,0.89,7.75,0.89c1.48,0,3.1-0.15,4.83-0.55
		c0.63-0.15,6.7-1.61,6.72-3.36C312.99,27.43,286.05,23,272.94,23L272.94,23z M245.81,168.77L245.81,168.77L245.81,168.77
		L245.81,168.77L245.81,168.77z M240.83,213.13c1.76,2.3,3.47,4.2,4.36,5.21C244.42,217.26,242.95,215.24,240.83,213.13
		L240.83,213.13z M245.19,218.34c0.36,0.5,0.57,0.8,0.62,0.8c0,0,0,0,0.01,0C245.85,219.11,245.61,218.82,245.19,218.34
		L245.19,218.34z"/>
</g>
<g>
	
		<linearGradient id="SVGID_00000011027137368581496140000002956733227640956061_" gradientUnits="userSpaceOnUse" x1="189.073" y1="159.0122" x2="218.577" y2="159.0122">
		<stop  offset="0" style="stop-color:#D226E1"/>
		<stop  offset="1" style="stop-color:#14D5FB"/>
	</linearGradient>
	<path style="fill:url(#SVGID_00000011027137368581496140000002956733227640956061_);" d="M211.46,172.39
		c-0.94,0-1.74-0.2-2.39-0.58c-2.97-1.77-2.97-7.71-2.97-10.91c0-1.97,0-2.56-0.56-2.58c0,0,0,0,0,0c-0.5,0-0.55,0.48-0.65,1.62
		c-0.19,2.01-0.53,5.74-3,8.58c-1.6,1.84-4.5,3.69-7.39,3.69c-0.8,0-1.56-0.15-2.26-0.43c-0.85-0.35-2.86-1.35-3.13-3.07
		c-0.27-1.72,1.49-2.94,4.15-4.8c2.58-1.8,6.12-4.25,9.2-8.35c1.9-2.52,3.08-4.94,3.94-6.71c0.91-1.87,1.57-3.22,2.36-3.22
		c1.62,0.16,2.73,4.26,3.11,6.41c0.58,3.33,0.07,5.86-0.34,7.9c-0.45,2.22-0.8,3.98,0.4,5.68c1.27,1.8,3.37,2.21,4.91,2.52
		c0.88,0.17,1.7,0.34,1.74,0.67c0.01,0.09-0.01,0.35-0.43,0.82C216.95,170.96,213.98,172.39,211.46,172.39
		C211.46,172.39,211.46,172.39,211.46,172.39z"/>
	<path d="M208.76,146.01l0.04,0c1.04,0.11,2.19,3.18,2.69,6.1c0.57,3.26,0.07,5.76-0.34,7.76c-0.45,2.22-0.83,4.14,0.46,5.97
		c1.35,1.92,3.54,2.35,5.14,2.67c0.52,0.1,1.22,0.24,1.43,0.38c-0.17,0.75-3.46,3.12-6.74,3.12c-0.87,0-1.61-0.18-2.2-0.53
		c-2.78-1.66-2.79-7.46-2.79-10.58c0-2.07,0-2.92-0.95-2.95c-0.83,0-0.91,0.82-1.01,1.96c-0.18,1.96-0.52,5.62-2.91,8.37
		c-1.54,1.77-4.34,3.56-7.11,3.56c-0.75,0-1.46-0.14-2.11-0.4c-0.62-0.26-2.66-1.21-2.9-2.78c-0.22-1.42,1.22-2.5,4-4.43
		c2.6-1.81,6.17-4.29,9.29-8.43c1.92-2.55,3.11-4.99,3.98-6.77C207.49,147.47,208.21,146.01,208.76,146.01 M208.76,145.26
		c-1.9,0-2.55,4.7-6.6,10.08c-6.21,8.26-14.03,9.6-13.43,13.43c0.33,2.11,2.94,3.18,3.36,3.36c0.77,0.32,1.58,0.46,2.4,0.46
		c2.9,0,5.9-1.78,7.67-3.82c3.57-4.11,2.84-10.07,3.36-10.07c0,0,0,0,0,0c0.7,0.02-1.05,10.81,3.36,13.43
		c0.75,0.45,1.64,0.63,2.58,0.63c3.5,0,7.64-2.6,7.49-3.99c-0.15-1.42-4.66-0.44-6.72-3.36c-2.17-3.08,1.21-6.51,0-13.43
		c-0.1-0.57-1.18-6.49-3.36-6.72C208.83,145.26,208.79,145.26,208.76,145.26L208.76,145.26z"/>
</g>
<g>
	
		<linearGradient id="SVGID_00000037682612456976686790000007916261362730518412_" gradientUnits="userSpaceOnUse" x1="224.888" y1="125.335" x2="279.7825" y2="125.335">
		<stop  offset="0" style="stop-color:#D226E1"/>
		<stop  offset="1" style="stop-color:#14D5FB"/>
	</linearGradient>
	<path style="fill:url(#SVGID_00000037682612456976686790000007916261362730518412_);" d="M242.3,155.78
		c-1.13,0-2.14-0.29-2.91-0.85c-1.86-1.34-2.01-4.06-2.13-6.25c-0.1-1.86-0.19-3.46-1.34-3.89c-0.16-0.06-0.33-0.09-0.5-0.09
		c-1.65,0-3.58,2.75-5.62,5.67c-1.33,1.9-3.15,4.49-3.92,4.49l0,0c-0.14-0.04-0.35-0.25-0.55-0.84c-0.93-2.74-0.68-11.26,4.12-18.57
		c2.29-3.49,4.48-4.91,6.6-6.29c2.41-1.56,4.68-3.04,6.85-7.18c1.22-2.34,1.84-4.45,2.39-6.32c0.86-2.93,1.54-5.24,4.15-6.92
		c1.24-0.8,2.37-1.11,3.36-1.38c1.33-0.37,2.59-0.71,3.5-2.13c1.37-2.13,0.66-4.61,0.08-6.6c-0.43-1.5-0.8-2.79-0.17-3.37
		c0.28-0.26,0.73-0.39,1.33-0.39c2.1,0,5.65,1.65,8.08,3.75c0.94,0.81,1.38,1.4,1.73,1.88c0.42,0.57,0.78,1.07,1.73,1.55
		c0.89,0.45,1.83,0.67,2.87,0.67c1.3,0,2.54-0.34,3.63-0.65c0.86-0.24,1.68-0.46,2.34-0.46c0.48,0,0.84,0.12,1.13,0.37
		c1.3,1.13,0.61,4.37-0.13,6.15c-0.94,2.26-2.33,3.19-3.79,4.18c-0.98,0.66-1.99,1.34-2.85,2.42c-2.95,3.68-1.55,8.5-0.21,13.17
		c1.17,4.06,2.28,7.89,0.22,10.33c-1.28,1.51-3.75,2.45-6.44,2.45c-2.63,0-4.96-0.91-6.22-2.44c-2.12-2.57-1.7-6.97,0.03-9.47
		c0.57-0.83,1.11-1.19,1.63-1.54c0.61-0.41,1.23-0.83,1.76-1.87c0.93-1.84,0.95-4.42,0.05-6.73c-0.77-1.97-2.11-3.44-3.68-4.03
		c-0.33-0.12-1.11-0.42-2.02-0.42c-0.65,0-1.25,0.15-1.77,0.45c-2.08,1.21-2.03,4.24-1.97,7.16c0.05,2.61,0.1,5.3-1.41,6.28
		c-0.37,0.24-0.8,0.36-1.31,0.36c-0.7,0-1.44-0.22-2.17-0.43c-0.69-0.2-1.34-0.39-1.94-0.39c-0.57,0-1.03,0.18-1.38,0.53
		c-1.05,1.06-0.38,2.69,0.65,5.17c0.89,2.14,2.1,5.07,2.56,8.68c0.39,3.08,0.87,10.51-3.12,12.94
		C244.64,155.47,243.46,155.78,242.3,155.78z"/>
	<path d="M257.55,95.39c1.99,0,5.4,1.59,7.75,3.63c0.9,0.78,1.3,1.32,1.65,1.8c0.44,0.6,0.86,1.16,1.91,1.7
		c0.96,0.49,1.97,0.72,3.1,0.72c1.37,0,2.64-0.35,3.76-0.66c0.83-0.23,1.61-0.45,2.2-0.45c0.46,0,0.67,0.13,0.8,0.25
		c0.93,0.81,0.59,3.53-0.27,5.58c-0.88,2.12-2.15,2.97-3.61,3.96c-1.01,0.68-2.05,1.38-2.96,2.52c-3.11,3.89-1.62,9.06-0.3,13.62
		c1.14,3.93,2.21,7.64,0.31,9.86c-1.19,1.4-3.51,2.27-6.06,2.27c-2.49,0-4.67-0.85-5.84-2.26c-1.95-2.36-1.54-6.57,0.05-8.87
		c0.52-0.75,0.99-1.07,1.5-1.41c0.63-0.42,1.34-0.9,1.93-2.06c0.99-1.96,1.02-4.7,0.07-7.14c-0.83-2.13-2.24-3.67-3.97-4.32
		c-0.33-0.12-1.19-0.45-2.2-0.45c-0.74,0-1.42,0.18-2.02,0.52c-2.34,1.36-2.28,4.53-2.22,7.6c0.05,2.47,0.09,5.02-1.18,5.85
		c-0.29,0.19-0.62,0.28-1.04,0.28c-0.63,0-1.34-0.21-2.03-0.41c-0.73-0.21-1.41-0.41-2.08-0.41c-0.7,0-1.29,0.23-1.73,0.67
		c-1.29,1.29-0.52,3.15,0.54,5.71c0.93,2.23,2.08,5.01,2.53,8.55c0.38,2.99,0.86,10.18-2.88,12.45c-0.83,0.51-1.92,0.8-2.99,0.8
		c-1.03,0-1.94-0.26-2.62-0.75c-1.67-1.2-1.81-3.68-1.93-5.87c-0.11-2.04-0.21-3.79-1.67-4.33c-0.21-0.08-0.44-0.12-0.67-0.12
		c-1.78,0-3.47,2.22-6.03,5.88c-1.09,1.55-2.7,3.86-3.4,4.24c-1.04-1.45-1.23-10.81,3.88-18.59c2.23-3.4,4.38-4.79,6.46-6.14
		c2.36-1.53,4.79-3.11,7.02-7.37c1.25-2.38,1.87-4.52,2.43-6.41c0.86-2.94,1.49-5.07,3.94-6.65c1.17-0.76,2.22-1.04,3.22-1.32
		c1.37-0.37,2.78-0.76,3.79-2.34c1.49-2.32,0.74-4.92,0.14-7.01c-0.35-1.23-0.72-2.5-0.31-2.87
		C256.74,95.48,257.09,95.39,257.55,95.39 M257.55,94.39c-0.7,0-1.28,0.16-1.67,0.52c-1.88,1.72,2.3,6.5,0,10.07
		c-1.43,2.23-3.74,1.44-6.72,3.36c-4.47,2.88-3.57,7.42-6.72,13.43c-4.04,7.72-8.52,5.96-13.43,13.43
		c-5.68,8.64-5.27,19.49-3.36,20.15c0.07,0.02,0.13,0.03,0.21,0.03c2.18,0,6.89-10.16,9.54-10.16c0.11,0,0.22,0.02,0.33,0.06
		c1.97,0.72-0.24,7.49,3.36,10.07c0.91,0.65,2.05,0.94,3.21,0.94c1.26,0,2.53-0.35,3.51-0.94c4.7-2.86,3.55-11.93,3.36-13.43
		c-0.95-7.46-4.97-11.82-3.36-13.43c0.28-0.28,0.62-0.38,1.02-0.38c1.13,0,2.66,0.82,4.11,0.82c0.55,0,1.08-0.12,1.58-0.44
		c3.51-2.28-0.27-11.32,3.36-13.43c0.5-0.29,1.02-0.39,1.52-0.39c0.82,0,1.54,0.27,1.84,0.39c3.43,1.29,5.01,6.82,3.36,10.07
		c-0.9,1.79-2.06,1.47-3.36,3.36c-1.9,2.76-2.19,7.42,0,10.07c1.47,1.78,4.04,2.62,6.61,2.62c2.68,0,5.37-0.91,6.82-2.62
		c4.67-5.49-5.37-16.8,0-23.5c2.08-2.59,5.07-2.76,6.72-6.72c0.8-1.92,1.55-5.37,0-6.72c-0.41-0.36-0.91-0.5-1.46-0.5
		c-1.59,0-3.7,1.11-5.96,1.11c-0.87,0-1.76-0.16-2.65-0.61c-1.58-0.8-1.25-1.54-3.36-3.36C263.5,96.14,259.86,94.39,257.55,94.39
		L257.55,94.39z"/>
</g>
<linearGradient id="SVGID_00000054986415640150392800000001781349349955251633_" gradientUnits="userSpaceOnUse" x1="19.8382" y1="143.8283" x2="239.7339" y2="143.8283">
	<stop  offset="0" style="stop-color:#D226E1"/>
	<stop  offset="1" style="stop-color:#14D5FB"/>
</linearGradient>
<path style="fill:url(#SVGID_00000054986415640150392800000001781349349955251633_);stroke:#000000;stroke-width:2;stroke-miterlimit:10;" d="
	M126.29,96.6c14.02-14.79,15.82-29.44,9.18-33.21c-1.84-1.05-4.73-0.65-23.5,13.43c-17.48,13.1-26.22,19.65-36.93,30.22
	c-8.46,8.34-21.07,20.91-33.58,40.29c-10.67,16.52-14.96,28.92-17.94,50.85c-3.15,23.22-2.31,43.18-2.21,43.16
	c0.1-0.01-5.08-21,3.36-26.86c2.93-2.04,4.81-0.37,10.07-3.36c6.46-3.66,9.87-9.71,10.07-10.07c2.07-3.76,1.38-4.93,3.36-6.72
	c3.54-3.19,7.15-0.75,10.07-3.36c3.66-3.27-0.24-8.7,3.36-13.43c2.78-3.66,8.86-5.38,13.43-3.36c4.15,1.83,5.83,6.22,5.92,6.46
	c0.69,1.89,0.69,3.62,0.8,3.61c0.31-0.02-3.78-15.43,3.36-23.5c0.36-0.4,3.88-4.31,6.72-3.36c2.53,0.85,3.13,5.11,3.36,6.72
	c0.86,6.14-1.77,8.91-3.36,16.79c-0.17,0.85-2.46,12.45,0,13.43c2.09,0.83,8.67-5.55,10.07-13.43c1.35-7.57-2.96-11.51,0-16.79
	c2.18-3.89,5.13-2.82,6.72-6.72c1.78-4.38-1.54-6.73,0-13.43c0.42-1.84,1.09-4.58,3.36-6.72c2.79-2.63,4.97-1.48,6.72-3.36
	c3.78-4.07-3.35-12.83,0-16.79c2.78-3.28,9.39,0.78,13.43-3.36c2.38-2.43,0.87-4.64,3.36-6.72c3.27-2.74,8.72-1.27,13.43,0
	c1.25,0.34,6.83,1.84,6.72,3.36c-0.09,1.25-3.89,0.64-6.72,3.36c-2.18,2.09-1.61,4.08-3.36,10.07c-2,6.86-4.22,9.34-3.36,10.07
	c1.14,0.97,6.38-2.3,10.07-6.72c4.09-4.9,3.07-7.37,6.72-10.07c3.3-2.45,4.7-0.84,10.07-3.36c6.43-3.01,6.02-6.07,10.07-6.72
	c5.93-0.95,9.22,5.19,13.43,3.36c2.57-1.12,4.22-4.66,3.36-6.72c-1.14-2.73-6.31-1.78-6.72-3.36c-0.85-3.29,21.83-6.51,26.86-20.15
	c2.13-5.76-0.36-9.43,3.36-13.43c3.54-3.81,7.37-2.2,13.43-6.72c0.86-0.64,8.08-6.13,6.72-10.07c-0.97-2.8-6.1-4.29-10.07-3.36
	c-4.87,1.14-4.85,5.18-10.07,6.72c-4.12,1.21-5.62-0.87-10.07,0c-3.18,0.62-5.9,2.36-10.07,6.72c-10.34,10.8-8.49,15.7-16.79,23.5
	c-6.16,5.79-8.02,3.89-13.43,10.07c-4.53,5.18-6,9.69-10.07,10.07c-2.64,0.25-5.33-1.34-6.72-3.36c-2.59-3.8-0.46-8.96,0-10.07
	c3.8-9.19,13.38-7.3,20.15-16.79c4.77-6.68,5.57-15.41,3.36-16.79c-1.63-1.02-4.04,2.48-13.43,6.72c-4.3,1.94-5.21,1.85-6.72,3.36
	c-3.08,3.1-2.64,6.93-3.36,13.43c-1.05,9.53-1.9,17.16-6.72,20.15c-3.77,2.33-8.84,1.11-13.43,0c-0.96-0.23-6.76-1.63-6.72-3.36
	c0.03-1.18,2.78-1.59,6.72-3.36c4.03-1.81,8.17-3.67,10.07-6.72c4.09-6.53-4.15-15.23,0-20.15c1.65-1.95,3.22-0.89,6.72-3.36
	c5.44-3.83,6.82-10.03,6.72-10.07c-0.29-0.13-1.96,38.86-22.61,39.93"/>
</svg>
