<?xml version="1.0" encoding="utf-8"?>
<!-- Generator: Adobe Illustrator 28.0.0, SVG Export Plug-In . SVG Version: 6.00 Build 0)  -->
<svg version="1.1" id="Layer_1" xmlns="http://www.w3.org/2000/svg" xmlns:xlink="http://www.w3.org/1999/xlink" x="0px" y="0px"
	 viewBox="0 0 512 512" style="enable-background:new 0 0 512 512;" xml:space="preserve">
<style type="text/css">
	.st0{fill:none;stroke:url(#SVGID_1_);stroke-width:15;stroke-miterlimit:10;}
	.st1{fill:none;stroke:url(#SVGID_00000053543929078749191080000010275800027578510744_);stroke-width:15;stroke-miterlimit:10;}
	.st2{fill:none;stroke:url(#SVGID_00000046304434217544502470000013699540169550205322_);stroke-width:15;stroke-miterlimit:10;}
	.st3{fill:none;stroke:url(#SVGID_00000113314911095528287570000016383716115962260406_);stroke-width:15;stroke-miterlimit:10;}
	.st4{fill:none;stroke:url(#SVGID_00000106864688127803650950000007623059450384006832_);stroke-width:15;stroke-miterlimit:10;}
	.st5{fill:none;stroke:url(#SVGID_00000117676946594284623540000004111661022473216157_);stroke-width:15;stroke-miterlimit:10;}
	.st6{fill:none;stroke:url(#SVGID_00000124139015846446678630000014597118885011256456_);stroke-width:15;stroke-miterlimit:10;}
	.st7{fill:none;stroke:url(#SVGID_00000031192983418231871020000004249770821717786300_);stroke-width:15;stroke-miterlimit:10;}
	.st8{fill:none;stroke:url(#SVGID_00000025419064095750600910000012851471488203666589_);stroke-width:15;stroke-miterlimit:10;}
	.st9{fill:none;stroke:url(#SVGID_00000019640611286787818770000000417081979368420789_);stroke-width:15;stroke-miterlimit:10;}
	.st10{fill:none;stroke:url(#SVGID_00000047745744741537893760000016336141437371781050_);stroke-width:15;stroke-miterlimit:10;}
	.st11{fill:none;stroke:url(#SVGID_00000054230624639054137260000003963417954206569859_);stroke-width:15;stroke-miterlimit:10;}
	.st12{fill:none;stroke:url(#SVGID_00000123409289422591375650000008089098876797751231_);stroke-width:15;stroke-miterlimit:10;}
	.st13{fill:none;stroke:url(#SVGID_00000176729783077766607800000013600442148282421128_);stroke-width:15;stroke-miterlimit:10;}
</style>
<linearGradient id="SVGID_1_" gradientUnits="userSpaceOnUse" x1="54.9778" y1="407.8845" x2="456.4471" y2="407.8845">
	<stop  offset="0" style="stop-color:#14D5FB"/>
	<stop  offset="1" style="stop-color:#D226E1"/>
</linearGradient>
<polyline class="st0" points="449.2,327.6 407.9,482.6 104.2,482.6 62.2,332.6 "/>
<linearGradient id="SVGID_00000129198016511924488770000015665481231874498952_" gradientUnits="userSpaceOnUse" x1="147.7" y1="405.6" x2="366.7" y2="405.6">
	<stop  offset="0" style="stop-color:#14D5FB"/>
	<stop  offset="1" style="stop-color:#D226E1"/>
</linearGradient>
<path style="fill:none;stroke:url(#SVGID_00000129198016511924488770000015665481231874498952_);stroke-width:15;stroke-miterlimit:10;" d="
	M338.59,435.6H175.81c-11.38,0-20.61-9.23-20.61-20.61v-18.78c0-11.38,9.23-20.61,20.61-20.61h162.78
	c11.38,0,20.61,9.23,20.61,20.61v18.78C359.2,426.37,349.97,435.6,338.59,435.6z"/>
<linearGradient id="SVGID_00000079458471581161659280000014594151711269359018_" gradientUnits="userSpaceOnUse" x1="49.7" y1="244.8738" x2="89.3324" y2="244.8738">
	<stop  offset="0" style="stop-color:#14D5FB"/>
	<stop  offset="1" style="stop-color:#D226E1"/>
</linearGradient>
<polyline style="fill:none;stroke:url(#SVGID_00000079458471581161659280000014594151711269359018_);stroke-width:15;stroke-miterlimit:10;" points="
	57.2,283.6 57.2,241.24 83.7,211.1 "/>
<linearGradient id="SVGID_00000104679418858967104900000014394858416918026895_" gradientUnits="userSpaceOnUse" x1="69.3481" y1="187.6" x2="136.0519" y2="187.6">
	<stop  offset="0" style="stop-color:#14D5FB"/>
	<stop  offset="1" style="stop-color:#D226E1"/>
</linearGradient>
<ellipse transform="matrix(0.6415 -0.7671 0.7671 0.6415 -107.0921 146.0267)" style="fill:none;stroke:url(#SVGID_00000104679418858967104900000014394858416918026895_);stroke-width:15;stroke-miterlimit:10;" cx="102.7" cy="187.6" rx="30" ry="22.5"/>
<linearGradient id="SVGID_00000148645087087997672180000017008056323862827927_" gradientUnits="userSpaceOnUse" x1="420.9633" y1="244.9803" x2="460.5956" y2="244.9803">
	<stop  offset="0" style="stop-color:#14D5FB"/>
	<stop  offset="1" style="stop-color:#D226E1"/>
</linearGradient>
<polyline style="fill:none;stroke:url(#SVGID_00000148645087087997672180000017008056323862827927_);stroke-width:15;stroke-miterlimit:10;" points="
	453.1,282.71 453.1,242.34 426.6,212.21 "/>
<linearGradient id="SVGID_00000151521459144559999860000009275743458535124635_" gradientUnits="userSpaceOnUse" x1="374.2438" y1="188.7066" x2="440.9475" y2="188.7066">
	<stop  offset="0" style="stop-color:#14D5FB"/>
	<stop  offset="1" style="stop-color:#D226E1"/>
</linearGradient>
<ellipse transform="matrix(0.7671 -0.6415 0.6415 0.7671 -26.1293 305.4417)" style="fill:none;stroke:url(#SVGID_00000151521459144559999860000009275743458535124635_);stroke-width:15;stroke-miterlimit:10;" cx="407.6" cy="188.71" rx="22.5" ry="30"/>
<linearGradient id="SVGID_00000111190953750503895680000004247249308098987923_" gradientUnits="userSpaceOnUse" x1="182.7" y1="57.35" x2="327.7" y2="57.35">
	<stop  offset="0" style="stop-color:#14D5FB"/>
	<stop  offset="1" style="stop-color:#D226E1"/>
</linearGradient>
<path style="fill:none;stroke:url(#SVGID_00000111190953750503895680000004247249308098987923_);stroke-width:15;stroke-miterlimit:10;" d="
	M190.2,93.6c0-35.9,29.1-65,65-65s65,29.1,65,65"/>
<linearGradient id="SVGID_00000022546661080351458570000016266184691563680648_" gradientUnits="userSpaceOnUse" x1="186.2" y1="185.6" x2="186.2" y2="185.6">
	<stop  offset="0" style="stop-color:#14D5FB"/>
	<stop  offset="1" style="stop-color:#D226E1"/>
</linearGradient>
<path style="fill:none;stroke:url(#SVGID_00000022546661080351458570000016266184691563680648_);stroke-width:15;stroke-miterlimit:10;" d="
	M186.2,185.6"/>
<linearGradient id="SVGID_00000086671909933234262430000008037312774096509078_" gradientUnits="userSpaceOnUse" x1="181.1891" y1="207.2527" x2="325.339" y2="207.2527">
	<stop  offset="0" style="stop-color:#14D5FB"/>
	<stop  offset="1" style="stop-color:#D226E1"/>
</linearGradient>
<path style="fill:none;stroke:url(#SVGID_00000086671909933234262430000008037312774096509078_);stroke-width:15;stroke-miterlimit:10;" d="
	M186.2,185.6l44.9,40.32c2.06,1.85,5.3,1.21,6.52-1.27l11.67-23.86c2.42-4.94,9.45-4.97,11.91-0.04l11.59,23.28
	c1.38,2.77,5.05,3.43,7.31,1.31l40.11-37.74"/>
<linearGradient id="SVGID_00000096761384806628013840000004542539396108134315_" gradientUnits="userSpaceOnUse" x1="140.7579" y1="225.7079" x2="222.0574" y2="225.7079">
	<stop  offset="0" style="stop-color:#14D5FB"/>
	<stop  offset="1" style="stop-color:#D226E1"/>
</linearGradient>
<path style="fill:none;stroke:url(#SVGID_00000096761384806628013840000004542539396108134315_);stroke-width:15;stroke-miterlimit:10;" d="
	M148.2,289.6l8.23-65.86c0.49-3.95,2.45-7.57,5.48-10.14l55.29-46.99"/>
<linearGradient id="SVGID_00000013911183898162051530000015136130168296804517_" gradientUnits="userSpaceOnUse" x1="289.2997" y1="225.6425" x2="368.6611" y2="225.6425">
	<stop  offset="0" style="stop-color:#14D5FB"/>
	<stop  offset="1" style="stop-color:#D226E1"/>
</linearGradient>
<path style="fill:none;stroke:url(#SVGID_00000013911183898162051530000015136130168296804517_);stroke-width:15;stroke-miterlimit:10;" d="
	M361.2,289.6l-6.73-65.8c-0.48-3.77-2.35-7.23-5.24-9.7l-55.03-47.5"/>
<linearGradient id="SVGID_00000031191753828493089880000000712131885552170149_" gradientUnits="userSpaceOnUse" x1="183.7325" y1="94.7795" x2="315.6165" y2="94.7795">
	<stop  offset="0" style="stop-color:#14D5FB"/>
	<stop  offset="1" style="stop-color:#D226E1"/>
</linearGradient>
<path style="fill:none;stroke:url(#SVGID_00000031191753828493089880000000712131885552170149_);stroke-width:15;stroke-miterlimit:10;" d="
	M188.2,106.6c5.49-4.07,26.57-22.62,37.5-23.5c16.45-1.32,25.88,7.78,48,15c8.69,2.84,24.96,7.58,41.5,8.5"/>
<linearGradient id="SVGID_00000018221876154964801880000009361463895597129117_" gradientUnits="userSpaceOnUse" x1="182.7" y1="144.0967" x2="327.7" y2="144.0967">
	<stop  offset="0" style="stop-color:#14D5FB"/>
	<stop  offset="1" style="stop-color:#D226E1"/>
</linearGradient>
<path style="fill:none;stroke:url(#SVGID_00000018221876154964801880000009361463895597129117_);stroke-width:15;stroke-miterlimit:10;" d="
	M320.2,93.6c0,6.23-0.94,33-1.77,43.39c-0.73,9.18-5.71,17.48-13.47,22.45l-42.02,26.92c-4.71,3.01-10.75,2.97-15.41-0.11
	l-43.61-28.79c-8.57-5.66-13.73-15.24-13.73-25.51V92.1"/>
<linearGradient id="SVGID_00000181809903003177366220000003065172379136566951_" gradientUnits="userSpaceOnUse" x1="24.7" y1="311.1" x2="487.7" y2="311.1">
	<stop  offset="0" style="stop-color:#14D5FB"/>
	<stop  offset="1" style="stop-color:#D226E1"/>
</linearGradient>
<path style="fill:none;stroke:url(#SVGID_00000181809903003177366220000003065172379136566951_);stroke-width:15;stroke-miterlimit:10;" d="
	M462.16,332.6H50.24c-9.97,0-18.04-8.08-18.04-18.04v-6.91c0-9.97,8.08-18.04,18.04-18.04h411.91c9.97,0,18.04,8.08,18.04,18.04
	v6.91C480.2,324.52,472.12,332.6,462.16,332.6z"/>
</svg>
