<?xml version="1.0" encoding="utf-8"?>
<!-- Generator: Adobe Illustrator 28.0.0, SVG Export Plug-In . SVG Version: 6.00 Build 0)  -->
<svg version="1.1" id="Layer_1" xmlns="http://www.w3.org/2000/svg" xmlns:xlink="http://www.w3.org/1999/xlink" x="0px" y="0px"
	 viewBox="0 0 512 512" style="enable-background:new 0 0 512 512;" xml:space="preserve">
<style type="text/css">
	.st0{fill:none;stroke:url(#SVGID_1_);stroke-width:11;stroke-miterlimit:10;}
	.st1{fill:none;stroke:url(#SVGID_00000060721380196759867650000011510129199669020820_);stroke-width:11;stroke-miterlimit:10;}
	.st2{fill:none;stroke:url(#SVGID_00000109738275612262861720000009556204635041391536_);stroke-width:7;stroke-miterlimit:10;}
	.st3{fill:none;stroke:url(#SVGID_00000062186887598503041030000001510424185500922801_);stroke-width:7;stroke-miterlimit:10;}
	.st4{fill:none;stroke:url(#SVGID_00000060720808995537429680000014423941535522540419_);stroke-width:7;stroke-miterlimit:10;}
	.st5{fill:none;stroke:url(#SVGID_00000124136739073435258840000011176815818288837809_);stroke-width:7;stroke-miterlimit:10;}
	.st6{fill:none;stroke:url(#SVGID_00000071534307459702069210000009935127175871020185_);stroke-width:7;stroke-miterlimit:10;}
	.st7{fill:none;stroke:url(#SVGID_00000157992840662060717030000008407634417605404856_);stroke-width:7;stroke-miterlimit:10;}
	.st8{fill:none;stroke:url(#SVGID_00000109733521922225170050000014137146970460364974_);stroke-width:7;stroke-miterlimit:10;}
	.st9{fill:none;stroke:url(#SVGID_00000115512020367022496900000015590025682062341821_);stroke-width:7;stroke-miterlimit:10;}
	.st10{fill:none;stroke:url(#SVGID_00000161608780116970111090000001178079382832731800_);stroke-width:7;stroke-miterlimit:10;}
	.st11{fill:none;stroke:url(#SVGID_00000118380033112224628680000012805747568002309505_);stroke-width:7;stroke-miterlimit:10;}
	.st12{fill:none;stroke:url(#SVGID_00000029727476097293947810000008999576921908312213_);stroke-width:7;stroke-miterlimit:10;}
	.st13{fill:none;stroke:url(#SVGID_00000045614288257506454190000006833925526279770246_);stroke-width:7;stroke-miterlimit:10;}
</style>
<linearGradient id="SVGID_1_" gradientUnits="userSpaceOnUse" x1="32.0027" y1="120.1182" x2="480.3972" y2="120.1182">
	<stop  offset="0" style="stop-color:#14D5FB"/>
	<stop  offset="1" style="stop-color:#D226E1"/>
</linearGradient>
<polygon class="st0" points="37.56,180.55 253.51,45.67 474.38,172.14 474.79,193.44 37.85,195.45 "/>
<linearGradient id="SVGID_00000150077717546642042070000004617664216518175633_" gradientUnits="userSpaceOnUse" x1="43.9683" y1="211.9379" x2="467.9683" y2="211.9379">
	<stop  offset="0" style="stop-color:#14D5FB"/>
	<stop  offset="1" style="stop-color:#D226E1"/>
</linearGradient>
<rect x="49.47" y="195.44" style="fill:none;stroke:url(#SVGID_00000150077717546642042070000004617664216518175633_);stroke-width:11;stroke-miterlimit:10;" width="413" height="33"/>
<linearGradient id="SVGID_00000162316529009040963910000001641061194568780713_" gradientUnits="userSpaceOnUse" x1="34.9683" y1="451.4379" x2="478.9683" y2="451.4379">
	<stop  offset="0" style="stop-color:#14D5FB"/>
	<stop  offset="1" style="stop-color:#D226E1"/>
</linearGradient>
<path style="fill:none;stroke:url(#SVGID_00000162316529009040963910000001641061194568780713_);stroke-width:7;stroke-miterlimit:10;" d="
	M468.08,468.44H45.85c-4.08,0-7.39-3.31-7.39-7.39v-19.23c0-4.08,3.31-7.39,7.39-7.39h422.23c4.08,0,7.39,3.31,7.39,7.39v19.23
	C475.47,465.13,472.16,468.44,468.08,468.44z"/>
<linearGradient id="SVGID_00000004528002037394581220000005530265241536596667_" gradientUnits="userSpaceOnUse" x1="77.9683" y1="329.9379" x2="123.9683" y2="329.9379">
	<stop  offset="0" style="stop-color:#14D5FB"/>
	<stop  offset="1" style="stop-color:#D226E1"/>
</linearGradient>
<rect x="81.47" y="255.44" style="fill:none;stroke:url(#SVGID_00000004528002037394581220000005530265241536596667_);stroke-width:7;stroke-miterlimit:10;" width="39" height="149"/>
<linearGradient id="SVGID_00000169536217016528179400000017454759521798259131_" gradientUnits="userSpaceOnUse" x1="155.9683" y1="329.9379" x2="201.9683" y2="329.9379">
	<stop  offset="0" style="stop-color:#14D5FB"/>
	<stop  offset="1" style="stop-color:#D226E1"/>
</linearGradient>
<rect x="159.47" y="255.44" style="fill:none;stroke:url(#SVGID_00000169536217016528179400000017454759521798259131_);stroke-width:7;stroke-miterlimit:10;" width="39" height="149"/>
<linearGradient id="SVGID_00000027577282920474364330000012930897549830437002_" gradientUnits="userSpaceOnUse" x1="233.9683" y1="329.9379" x2="279.9683" y2="329.9379">
	<stop  offset="0" style="stop-color:#14D5FB"/>
	<stop  offset="1" style="stop-color:#D226E1"/>
</linearGradient>
<rect x="237.47" y="255.44" style="fill:none;stroke:url(#SVGID_00000027577282920474364330000012930897549830437002_);stroke-width:7;stroke-miterlimit:10;" width="39" height="149"/>
<linearGradient id="SVGID_00000019637926965789335630000015197512527276121217_" gradientUnits="userSpaceOnUse" x1="313.9683" y1="329.9379" x2="359.9683" y2="329.9379">
	<stop  offset="0" style="stop-color:#14D5FB"/>
	<stop  offset="1" style="stop-color:#D226E1"/>
</linearGradient>
<rect x="317.47" y="255.44" style="fill:none;stroke:url(#SVGID_00000019637926965789335630000015197512527276121217_);stroke-width:7;stroke-miterlimit:10;" width="39" height="149"/>
<linearGradient id="SVGID_00000087408474890627636780000018000812787674079661_" gradientUnits="userSpaceOnUse" x1="389.9683" y1="329.9379" x2="435.9683" y2="329.9379">
	<stop  offset="0" style="stop-color:#14D5FB"/>
	<stop  offset="1" style="stop-color:#D226E1"/>
</linearGradient>
<rect x="393.47" y="255.44" style="fill:none;stroke:url(#SVGID_00000087408474890627636780000018000812787674079661_);stroke-width:7;stroke-miterlimit:10;" width="39" height="149"/>
<linearGradient id="SVGID_00000032617115412768065110000010157678074929239741_" gradientUnits="userSpaceOnUse" x1="67.9683" y1="245.9379" x2="131.9683" y2="245.9379">
	<stop  offset="0" style="stop-color:#14D5FB"/>
	<stop  offset="1" style="stop-color:#D226E1"/>
</linearGradient>
<path style="fill:none;stroke:url(#SVGID_00000032617115412768065110000010157678074929239741_);stroke-width:7;stroke-miterlimit:10;" d="
	M124.68,255.44H75.26c-2.09,0-3.79-1.7-3.79-3.79v-11.42c0-2.09,1.7-3.79,3.79-3.79h49.42c2.09,0,3.79,1.7,3.79,3.79v11.42
	C128.47,253.74,126.77,255.44,124.68,255.44z"/>
<linearGradient id="SVGID_00000155838719442117400640000005204179580725184158_" gradientUnits="userSpaceOnUse" x1="146.9683" y1="245.9379" x2="210.9683" y2="245.9379">
	<stop  offset="0" style="stop-color:#14D5FB"/>
	<stop  offset="1" style="stop-color:#D226E1"/>
</linearGradient>
<path style="fill:none;stroke:url(#SVGID_00000155838719442117400640000005204179580725184158_);stroke-width:7;stroke-miterlimit:10;" d="
	M203.67,255.44h-49.4c-2.1,0-3.8-1.7-3.8-3.8v-11.4c0-2.1,1.7-3.8,3.8-3.8h49.4c2.1,0,3.8,1.7,3.8,3.8v11.4
	C207.47,253.74,205.77,255.44,203.67,255.44z"/>
<linearGradient id="SVGID_00000158012069668790576700000005749089471059773059_" gradientUnits="userSpaceOnUse" x1="224.9683" y1="245.9379" x2="288.9683" y2="245.9379">
	<stop  offset="0" style="stop-color:#14D5FB"/>
	<stop  offset="1" style="stop-color:#D226E1"/>
</linearGradient>
<path style="fill:none;stroke:url(#SVGID_00000158012069668790576700000005749089471059773059_);stroke-width:7;stroke-miterlimit:10;" d="
	M281.42,255.44h-48.9c-2.24,0-4.05-1.81-4.05-4.05v-10.9c0-2.24,1.81-4.05,4.05-4.05h48.9c2.24,0,4.05,1.81,4.05,4.05v10.9
	C285.47,253.62,283.66,255.44,281.42,255.44z"/>
<linearGradient id="SVGID_00000058572111208392504280000008034299014419375269_" gradientUnits="userSpaceOnUse" x1="304.9683" y1="245.9379" x2="368.9683" y2="245.9379">
	<stop  offset="0" style="stop-color:#14D5FB"/>
	<stop  offset="1" style="stop-color:#D226E1"/>
</linearGradient>
<path style="fill:none;stroke:url(#SVGID_00000058572111208392504280000008034299014419375269_);stroke-width:7;stroke-miterlimit:10;" d="
	M359.87,255.44h-45.81c-3.09,0-5.59-2.5-5.59-5.59v-7.81c0-3.09,2.5-5.59,5.59-5.59h45.81c3.09,0,5.59,2.5,5.59,5.59v7.81
	C365.47,252.93,362.96,255.44,359.87,255.44z"/>
<linearGradient id="SVGID_00000066496712218142672060000011957339126315311787_" gradientUnits="userSpaceOnUse" x1="380.9683" y1="245.9379" x2="444.9683" y2="245.9379">
	<stop  offset="0" style="stop-color:#14D5FB"/>
	<stop  offset="1" style="stop-color:#D226E1"/>
</linearGradient>
<path style="fill:none;stroke:url(#SVGID_00000066496712218142672060000011957339126315311787_);stroke-width:7;stroke-miterlimit:10;" d="
	M435.09,255.44h-44.24c-3.52,0-6.38-2.86-6.38-6.38v-6.24c0-3.52,2.86-6.38,6.38-6.38h44.24c3.52,0,6.38,2.86,6.38,6.38v6.24
	C441.47,252.58,438.61,255.44,435.09,255.44z"/>
<linearGradient id="SVGID_00000065765281732980011890000004787009358959383742_" gradientUnits="userSpaceOnUse" x1="45.9683" y1="419.9379" x2="465.9683" y2="419.9379">
	<stop  offset="0" style="stop-color:#14D5FB"/>
	<stop  offset="1" style="stop-color:#D226E1"/>
</linearGradient>
<path style="fill:none;stroke:url(#SVGID_00000065765281732980011890000004787009358959383742_);stroke-width:7;stroke-miterlimit:10;" d="
	M455.58,433.44H56.36c-3.81,0-6.89-3.09-6.89-6.89v-13.22c0-3.81,3.09-6.89,6.89-6.89h399.22c3.81,0,6.89,3.09,6.89,6.89v13.22
	C462.47,430.35,459.38,433.44,455.58,433.44z"/>
</svg>
