<?xml version="1.0" encoding="utf-8"?>
<!-- Generator: Adobe Illustrator 28.0.0, SVG Export Plug-In . SVG Version: 6.00 Build 0)  -->
<svg version="1.1" id="Layer_1" xmlns="http://www.w3.org/2000/svg" xmlns:xlink="http://www.w3.org/1999/xlink" x="0px" y="0px"
	 viewBox="0 0 512 512" style="enable-background:new 0 0 512 512;" xml:space="preserve">
<style type="text/css">
	.st0{fill:none;stroke:#000000;stroke-width:7;stroke-miterlimit:10;}
	.st1{stroke:#000000;stroke-width:7;stroke-miterlimit:10;}
	.st2{fill:none;stroke:url(#SVGID_1_);stroke-width:5;stroke-miterlimit:10;}
	.st3{fill:none;stroke:url(#SVGID_00000038414696266774624300000008280463947619088769_);stroke-width:7;stroke-miterlimit:10;}
	.st4{fill:none;stroke:url(#SVGID_00000152241034869716332650000016071222600212865181_);stroke-width:7;stroke-miterlimit:10;}
	.st5{fill:none;stroke:url(#SVGID_00000016035363950724691620000003552480944415369917_);stroke-width:7;stroke-miterlimit:10;}
	.st6{fill:none;stroke:url(#SVGID_00000155866640484075089830000004831085525175234177_);stroke-width:7;stroke-miterlimit:10;}
	.st7{fill:#FFFFFF;stroke:#000000;stroke-width:5;stroke-miterlimit:10;}
	.st8{fill:none;stroke:#000000;stroke-width:5;stroke-miterlimit:10;}
	.st9{fill:none;stroke:url(#SVGID_00000044897157798555352950000011931695504543954609_);stroke-width:7;stroke-miterlimit:10;}
	.st10{fill:none;stroke:url(#SVGID_00000078728103203013794050000008001892128848502201_);stroke-width:7;stroke-miterlimit:10;}
	.st11{fill:none;stroke:url(#SVGID_00000004541412362895399410000004139440330174589886_);stroke-width:7;stroke-miterlimit:10;}
	.st12{fill:none;stroke:url(#SVGID_00000003076399811946715900000006753592768035134115_);stroke-width:7;stroke-miterlimit:10;}
	.st13{fill:none;stroke:url(#SVGID_00000101077939092809253380000004530901031846279084_);stroke-width:7;stroke-miterlimit:10;}
	.st14{fill:none;stroke:url(#SVGID_00000094578960372037576830000008084876110334099857_);stroke-width:7;stroke-miterlimit:10;}
	.st15{fill:none;stroke:url(#SVGID_00000175311911614169938970000011488408086458609841_);stroke-width:7;stroke-miterlimit:10;}
	.st16{fill:none;stroke:url(#SVGID_00000034773244943068229420000001795608035078747821_);stroke-width:7;stroke-miterlimit:10;}
	.st17{fill:none;stroke:url(#SVGID_00000145761546562523577400000009995297191361213086_);stroke-width:7;stroke-miterlimit:10;}
	.st18{fill:none;stroke:url(#SVGID_00000153701858939394390500000011521561490922196612_);stroke-width:7;stroke-miterlimit:10;}
	.st19{fill:none;stroke:url(#SVGID_00000116922806253851674220000018055475951276258693_);stroke-width:7;stroke-miterlimit:10;}
	.st20{fill:none;stroke:url(#SVGID_00000035518111980114304860000017487550119744840380_);stroke-width:7;stroke-miterlimit:10;}
	.st21{fill:none;stroke:url(#SVGID_00000039828094737752967410000006528469788773181101_);stroke-width:7;stroke-miterlimit:10;}
	.st22{fill:none;stroke:url(#SVGID_00000075844790220357452200000013904859019197365415_);stroke-width:7;stroke-miterlimit:10;}
</style>
<line class="st0" x1="234.23" y1="408.7" x2="234.23" y2="435.54"/>
<line class="st1" x1="280.59" y1="408.7" x2="280.59" y2="435.54"/>
<linearGradient id="SVGID_1_" gradientUnits="userSpaceOnUse" x1="8.5" y1="284.8864" x2="508.5" y2="284.8864">
	<stop  offset="0" style="stop-color:#14D5FB"/>
	<stop  offset="1" style="stop-color:#D226E1"/>
</linearGradient>
<path class="st2" d="M495.77,435.54H21.23c-5.65,0-10.23-4.58-10.23-10.23V144.46c0-5.65,4.58-10.23,10.23-10.23h474.55
	c5.65,0,10.23,4.58,10.23,10.23v280.85C506,430.96,501.42,435.54,495.77,435.54z"/>
<linearGradient id="SVGID_00000052097403783043255850000013741409842345083807_" gradientUnits="userSpaceOnUse" x1="67.3717" y1="330.631" x2="103.4507" y2="330.631">
	<stop  offset="0" style="stop-color:#14D5FB"/>
	<stop  offset="1" style="stop-color:#D226E1"/>
</linearGradient>
<path style="fill:none;stroke:url(#SVGID_00000052097403783043255850000013741409842345083807_);stroke-width:7;stroke-miterlimit:10;" d="
	M68.33,335.51c11.39-3.25,22.77-6.51,34.16-9.76"/>
<linearGradient id="SVGID_00000114055842725587740850000006454156077126227876_" gradientUnits="userSpaceOnUse" x1="64.5455" y1="265.232" x2="169.0743" y2="265.232">
	<stop  offset="0" style="stop-color:#14D5FB"/>
	<stop  offset="1" style="stop-color:#D226E1"/>
</linearGradient>
<path style="fill:none;stroke:url(#SVGID_00000114055842725587740850000006454156077126227876_);stroke-width:7;stroke-miterlimit:10;" d="
	M65.89,272.08c11.27-4.7,27.01-9.89,46.35-12.2c23.33-2.79,42.89-0.31,56.11,2.44"/>
<linearGradient id="SVGID_00000138554104324256582410000000695344730511175319_" gradientUnits="userSpaceOnUse" x1="66.6021" y1="202.1264" x2="124.7568" y2="202.1264">
	<stop  offset="0" style="stop-color:#14D5FB"/>
	<stop  offset="1" style="stop-color:#D226E1"/>
</linearGradient>
<path style="fill:none;stroke:url(#SVGID_00000138554104324256582410000000695344730511175319_);stroke-width:7;stroke-miterlimit:10;" d="
	M68.33,208.65c5.85-3.33,14.07-7.2,24.4-9.76c12.95-3.21,24.14-3.11,31.72-2.44"/>
<linearGradient id="SVGID_00000026130252166777258320000003511751612333357984_" gradientUnits="userSpaceOnUse" x1="61.7916" y1="165.503" x2="166.3204" y2="165.503">
	<stop  offset="0" style="stop-color:#14D5FB"/>
	<stop  offset="1" style="stop-color:#D226E1"/>
</linearGradient>
<path style="fill:none;stroke:url(#SVGID_00000026130252166777258320000003511751612333357984_);stroke-width:7;stroke-miterlimit:10;" d="
	M63.14,172.35c11.27-4.7,27.01-9.89,46.35-12.2c23.33-2.79,42.89-0.31,56.11,2.44"/>
<polyline class="st7" points="36.62,103.74 36.62,408.1 474.56,408.1 474.56,107.07 "/>
<path class="st8" d="M258.63,108.62c16.75-9.81,43.11-22.19,77.29-26.84c8.6-1.17,48.48-6.03,96.61,9.76
	c18.63,6.11,33.33,13.62,43.47,19.52"/>
<line class="st0" x1="259.85" y1="107.4" x2="259.85" y2="402.6"/>
<path class="st0" d="M261.07,396.06c29.77-11.02,64.28-20.22,83.43-21.96c11.28-1.02,27.33-2.39,48.33,0
	c16.67,1.9,44.87,5.44,72.5,24.4c4.16,2.85,7.44,5.47,9.67,7.32"/>
<path class="st0" d="M37,401.38c11.82-7.63,30.14-17.65,54.45-24.4c5.39-1.5,28.47-7.66,59.64-7.32
	c15.3,0.17,44.47,2.03,77.79,14.64c13.17,4.99,23.68,10.4,31.12,14.64"/>
<linearGradient id="SVGID_00000119109399111804817360000000289025856908851129_" gradientUnits="userSpaceOnUse" x1="119.0185" y1="340.2344" x2="228.2117" y2="340.2344">
	<stop  offset="0" style="stop-color:#14D5FB"/>
	<stop  offset="1" style="stop-color:#D226E1"/>
</linearGradient>
<path style="fill:none;stroke:url(#SVGID_00000119109399111804817360000000289025856908851129_);stroke-width:7;stroke-miterlimit:10;" d="
	M119.57,335.51c10.56-1.68,22.88-2.78,36.6-2.44c29.76,0.74,54.05,7.97,70.75,14.64"/>
<linearGradient id="SVGID_00000063607432088292421300000005557500770605445018_" gradientUnits="userSpaceOnUse" x1="57.713" y1="306.3298" x2="218.3657" y2="306.3298">
	<stop  offset="0" style="stop-color:#14D5FB"/>
	<stop  offset="1" style="stop-color:#D226E1"/>
</linearGradient>
<path style="fill:none;stroke:url(#SVGID_00000063607432088292421300000005557500770605445018_);stroke-width:7;stroke-miterlimit:10;" d="
	M59.2,316.22c10.76-5.04,26.18-11.15,45.47-15.17c25.64-5.34,45.86-4.43,58.43-3.78c14.02,0.72,32.77,2.85,54.35,8.71"/>
<linearGradient id="SVGID_00000068635575562470891590000002358810847609942434_" gradientUnits="userSpaceOnUse" x1="279.5651" y1="306.3863" x2="444.846" y2="306.3863">
	<stop  offset="0" style="stop-color:#14D5FB"/>
	<stop  offset="1" style="stop-color:#D226E1"/>
</linearGradient>
<path style="fill:none;stroke:url(#SVGID_00000068635575562470891590000002358810847609942434_);stroke-width:7;stroke-miterlimit:10;" d="
	M280.39,307.51c18.3-4.42,34.26-6.59,46.74-7.71c13.71-1.23,31.16-2.7,53.73-0.07c14.81,1.72,26.73,4.61,33.91,6.38
	c11.55,2.84,21.33,5.94,28.93,8.6"/>
<linearGradient id="SVGID_00000001654924295865725890000004859076250751535273_" gradientUnits="userSpaceOnUse" x1="279.6477" y1="264.399" x2="378.8597" y2="264.399">
	<stop  offset="0" style="stop-color:#14D5FB"/>
	<stop  offset="1" style="stop-color:#D226E1"/>
</linearGradient>
<path style="fill:none;stroke:url(#SVGID_00000001654924295865725890000004859076250751535273_);stroke-width:7;stroke-miterlimit:10;" d="
	M280.59,269.64c13.54-3.78,25.23-5.97,34.16-7.32c13.26-2,27.68-4.08,46.35-2.44c7.12,0.62,12.99,1.63,17.08,2.44"/>
<linearGradient id="SVGID_00000150817388533783897000000011040198534071479732_" gradientUnits="userSpaceOnUse" x1="399.8979" y1="266.8586" x2="443.4174" y2="266.8586">
	<stop  offset="0" style="stop-color:#14D5FB"/>
	<stop  offset="1" style="stop-color:#D226E1"/>
</linearGradient>
<path style="fill:none;stroke:url(#SVGID_00000150817388533783897000000011040198534071479732_);stroke-width:7;stroke-miterlimit:10;" d="
	M400.13,262.32c7.75-0.52,19.27-0.15,31.72,4.88c3.67,1.48,6.92,3.17,9.76,4.88"/>
<polyline class="st0" points="210,86 210,241.83 229.33,225.34 261.07,257.44 "/>
<linearGradient id="SVGID_00000026883002843843575660000013851723008034059400_" gradientUnits="userSpaceOnUse" x1="76.4299" y1="130.6581" x2="180.9586" y2="130.6581">
	<stop  offset="0" style="stop-color:#14D5FB"/>
	<stop  offset="1" style="stop-color:#D226E1"/>
</linearGradient>
<path style="fill:none;stroke:url(#SVGID_00000026883002843843575660000013851723008034059400_);stroke-width:7;stroke-miterlimit:10;" d="
	M77.78,137.5c11.27-4.7,27.01-9.89,46.35-12.2c23.33-2.79,42.89-0.31,56.11,2.44"/>
<linearGradient id="SVGID_00000178190787901677876660000002196469830143369657_" gradientUnits="userSpaceOnUse" x1="52.0062" y1="178.0796" x2="195.5832" y2="178.0796">
	<stop  offset="0" style="stop-color:#14D5FB"/>
	<stop  offset="1" style="stop-color:#D226E1"/>
</linearGradient>
<path style="fill:none;stroke:url(#SVGID_00000178190787901677876660000002196469830143369657_);stroke-width:7;stroke-miterlimit:10;" d="
	M53.43,188.51c15.13-6.71,28.56-10.91,39.14-13.61c11.62-2.97,26.42-6.66,46.17-6.94c12.96-0.19,23.59,1.15,30,1.99
	c10.31,1.34,19.13,3.16,26.02,4.82"/>
<linearGradient id="SVGID_00000164471620205197973940000009313012599507266991_" gradientUnits="userSpaceOnUse" x1="64.1124" y1="265.8579" x2="166.9724" y2="265.8579">
	<stop  offset="0" style="stop-color:#14D5FB"/>
	<stop  offset="1" style="stop-color:#D226E1"/>
</linearGradient>
<path style="fill:none;stroke:url(#SVGID_00000164471620205197973940000009313012599507266991_);stroke-width:7;stroke-miterlimit:10;" d="
	M65.26,273.8c10.92-3.79,20.6-6.43,28.21-8.27c8.37-2.02,19.02-4.55,33.2-6.05c9.3-0.98,16.93-1.18,21.52-1.29
	c7.39-0.18,13.7-0.05,18.64,0.14"/>
<linearGradient id="SVGID_00000075143446168052617780000013240189747708563358_" gradientUnits="userSpaceOnUse" x1="54.295" y1="227.8382" x2="197.872" y2="227.8382">
	<stop  offset="0" style="stop-color:#14D5FB"/>
	<stop  offset="1" style="stop-color:#D226E1"/>
</linearGradient>
<path style="fill:none;stroke:url(#SVGID_00000075143446168052617780000013240189747708563358_);stroke-width:7;stroke-miterlimit:10;" d="
	M55.71,238.27c15.13-6.71,28.56-10.91,39.14-13.61c11.62-2.97,26.42-6.66,46.17-6.94c12.96-0.19,23.59,1.15,30,1.99
	c10.31,1.34,19.13,3.16,26.02,4.82"/>
<linearGradient id="SVGID_00000109738908015453972940000001519921945422782390_" gradientUnits="userSpaceOnUse" x1="288.3543" y1="339.906" x2="449.0924" y2="339.906">
	<stop  offset="0" style="stop-color:#14D5FB"/>
	<stop  offset="1" style="stop-color:#D226E1"/>
</linearGradient>
<path style="fill:none;stroke:url(#SVGID_00000109738908015453972940000001519921945422782390_);stroke-width:7;stroke-miterlimit:10;" d="
	M289.45,340.7c11.29-3.71,27.34-7.9,46.97-9.56c26.1-2.2,46.06,1.14,58.46,3.31c13.83,2.41,32.19,6.79,52.9,15.21"/>
<linearGradient id="SVGID_00000146499211572043955570000013522525866079738015_" gradientUnits="userSpaceOnUse" x1="306.9421" y1="231.8119" x2="451.0515" y2="231.8119">
	<stop  offset="0" style="stop-color:#14D5FB"/>
	<stop  offset="1" style="stop-color:#D226E1"/>
</linearGradient>
<path style="fill:none;stroke:url(#SVGID_00000146499211572043955570000013522525866079738015_);stroke-width:7;stroke-miterlimit:10;" d="
	M307.9,233.61c15.93-4.52,29.81-6.77,40.66-7.96c11.92-1.3,27.09-2.87,46.69-0.37c12.86,1.64,23.2,4.47,29.43,6.19
	c10.02,2.78,18.5,5.82,25.08,8.44"/>
<linearGradient id="SVGID_00000109708383230927248370000018007348162694409402_" gradientUnits="userSpaceOnUse" x1="280.9703" y1="130.7354" x2="441.7085" y2="130.7354">
	<stop  offset="0" style="stop-color:#14D5FB"/>
	<stop  offset="1" style="stop-color:#D226E1"/>
</linearGradient>
<path style="fill:none;stroke:url(#SVGID_00000109708383230927248370000018007348162694409402_);stroke-width:7;stroke-miterlimit:10;" d="
	M282.06,131.53c11.29-3.71,27.34-7.9,46.97-9.56c26.1-2.2,46.06,1.14,58.46,3.31c13.83,2.41,32.19,6.79,52.9,15.21"/>
<linearGradient id="SVGID_00000165912997952769044070000001765222834987949245_" gradientUnits="userSpaceOnUse" x1="338.0949" y1="166.9653" x2="441.56" y2="166.9653">
	<stop  offset="0" style="stop-color:#14D5FB"/>
	<stop  offset="1" style="stop-color:#D226E1"/>
</linearGradient>
<path style="fill:none;stroke:url(#SVGID_00000165912997952769044070000001765222834987949245_);stroke-width:7;stroke-miterlimit:10;" d="
	M338.36,162.08c11.53-0.89,21.55-0.99,29.39-0.84c8.61,0.17,19.55,0.42,33.65,2.58c9.25,1.41,16.67,3.16,21.14,4.22
	c7.19,1.71,13.27,3.43,17.99,4.87"/>
<linearGradient id="SVGID_00000078042522783954445130000013104758103686922389_" gradientUnits="userSpaceOnUse" x1="274.2022" y1="201.4406" x2="377.0622" y2="201.4406">
	<stop  offset="0" style="stop-color:#14D5FB"/>
	<stop  offset="1" style="stop-color:#D226E1"/>
</linearGradient>
<path style="fill:none;stroke:url(#SVGID_00000078042522783954445130000013104758103686922389_);stroke-width:7;stroke-miterlimit:10;" d="
	M275.35,209.38c10.92-3.79,20.6-6.43,28.21-8.27c8.37-2.02,19.02-4.55,33.2-6.05c9.3-0.98,16.93-1.18,21.52-1.29
	c7.39-0.18,13.7-0.05,18.64,0.14"/>
<path class="st8" d="M35,104.63c17.43-9.81,44.84-22.19,80.39-26.84c8.95-1.17,50.43-6.03,100.48,9.76
	c19.38,6.11,34.67,13.62,45.22,19.52"/>
</svg>
