<?xml version="1.0" encoding="utf-8"?>
<!-- Generator: Adobe Illustrator 28.0.0, SVG Export Plug-In . SVG Version: 6.00 Build 0)  -->
<svg version="1.1" id="Layer_1" xmlns="http://www.w3.org/2000/svg" xmlns:xlink="http://www.w3.org/1999/xlink" x="0px" y="0px"
	 viewBox="0 0 512 512" style="enable-background:new 0 0 512 512;" xml:space="preserve">
<style type="text/css">
	.st0{fill:none;stroke:#000000;stroke-miterlimit:10;}
	.st1{stroke:#000000;stroke-width:10;stroke-miterlimit:10;}
	.st2{fill:none;stroke:#14D5FB;stroke-width:10;stroke-miterlimit:10;}
	.st3{fill:none;stroke:#D226E1;stroke-width:10;stroke-miterlimit:10;}
	.st4{fill:none;stroke:#000000;stroke-width:5;stroke-miterlimit:10;}
	.st5{font-family:'Shobhika-Regular';}
	.st6{font-size:29.9077px;}
	.st7{stroke:#000000;stroke-width:0.25;stroke-miterlimit:10;}
</style>
<path class="st0" d="M32.85,176.52"/>
<line class="st1" x1="8" y1="448.44" x2="494" y2="452.18"/>
<line class="st1" x1="252.87" y1="457.78" x2="252.87" y2="65.25"/>
<path class="st2" d="M88.38,143.75c-3.6,181.17,90.37,305.14,160.75,306.55c71.1,1.43,171.84-121.11,171.97-306.55"/>
<path class="st0" d="M28.56,252.17"/>
<path class="st3" d="M32.3,285.82c32.68,94.42,119,159.72,216.83,164.49c104.68,5.11,202.36-60.07,239.26-160.75"/>
<line class="st4" x1="239.78" y1="154.97" x2="265.95" y2="154.97"/>
<line class="st4" x1="239.78" y1="211.05" x2="265.95" y2="211.05"/>
<line class="st4" x1="239.78" y1="192.35" x2="265.95" y2="192.35"/>
<line class="st4" x1="239.78" y1="173.66" x2="265.95" y2="173.66"/>
<line class="st4" x1="239.78" y1="360.58" x2="265.95" y2="360.58"/>
<line class="st4" x1="239.78" y1="341.89" x2="265.95" y2="341.89"/>
<line class="st4" x1="239.78" y1="323.2" x2="265.95" y2="323.2"/>
<line class="st4" x1="239.78" y1="304.51" x2="265.95" y2="304.51"/>
<line class="st4" x1="239.78" y1="285.82" x2="265.95" y2="285.82"/>
<line class="st4" x1="239.78" y1="248.43" x2="265.95" y2="248.43"/>
<line class="st4" x1="239.78" y1="267.12" x2="265.95" y2="267.12"/>
<line class="st4" x1="239.78" y1="248.43" x2="265.95" y2="248.43"/>
<line class="st4" x1="239.78" y1="229.74" x2="265.95" y2="229.74"/>
<line class="st4" x1="239.78" y1="136.28" x2="265.95" y2="136.28"/>
<line class="st4" x1="239.78" y1="433.48" x2="265.95" y2="433.48"/>
<line class="st4" x1="239.78" y1="416.66" x2="265.95" y2="416.66"/>
<line class="st4" x1="239.78" y1="397.97" x2="265.95" y2="397.97"/>
<line class="st4" x1="239.78" y1="379.28" x2="265.95" y2="379.28"/>
<line class="st4" x1="239.78" y1="117.58" x2="265.95" y2="117.58"/>
<line class="st4" x1="70.3" y1="459.65" x2="70.3" y2="440.96"/>
<line class="st4" x1="126.37" y1="459.65" x2="126.37" y2="440.96"/>
<line class="st4" x1="107.68" y1="459.65" x2="107.68" y2="440.96"/>
<line class="st4" x1="88.99" y1="459.65" x2="88.99" y2="440.96"/>
<line class="st4" x1="267.82" y1="459.65" x2="267.82" y2="440.96"/>
<line class="st4" x1="238.53" y1="459.65" x2="238.53" y2="440.96"/>
<line class="st4" x1="219.83" y1="459.65" x2="219.83" y2="440.96"/>
<line class="st4" x1="201.14" y1="459.65" x2="201.14" y2="440.96"/>
<line class="st0" x1="163.76" y1="459.65" x2="163.76" y2="440.96"/>
<line class="st4" x1="182.45" y1="459.65" x2="182.45" y2="440.96"/>
<line class="st4" x1="163.76" y1="459.65" x2="163.76" y2="440.96"/>
<line class="st4" x1="145.06" y1="459.65" x2="145.06" y2="440.96"/>
<line class="st4" x1="51.6" y1="459.65" x2="51.6" y2="440.96"/>
<line class="st4" x1="342.59" y1="459.65" x2="342.59" y2="440.96"/>
<line class="st4" x1="323.9" y1="459.65" x2="323.9" y2="440.96"/>
<line class="st4" x1="305.21" y1="459.65" x2="305.21" y2="440.96"/>
<line class="st4" x1="286.52" y1="459.65" x2="286.52" y2="440.96"/>
<line class="st4" x1="32.91" y1="459.65" x2="32.91" y2="440.96"/>
<line class="st4" x1="391.19" y1="459.65" x2="391.19" y2="440.96"/>
<line class="st4" x1="447.27" y1="459.65" x2="447.27" y2="440.96"/>
<line class="st4" x1="428.58" y1="459.65" x2="428.58" y2="440.96"/>
<line class="st4" x1="409.88" y1="459.65" x2="409.88" y2="440.96"/>
<line class="st4" x1="474.05" y1="459.65" x2="474.05" y2="440.96"/>
<line class="st4" x1="372.5" y1="459.65" x2="372.5" y2="440.96"/>
<line class="st4" x1="357.55" y1="459.65" x2="357.55" y2="440.96"/>
<text transform="matrix(1 0 0 1 461.1719 417.0176)" class="st5 st6">X</text>
<text transform="matrix(1 0 0 1 296.0039 118.4536)" class="st5 st6">Y</text>
<path class="st0" d="M478.92,272.46"/>
<polygon points="227.18,65.25 279.95,65.25 253.56,28.15 "/>
<polygon class="st7" points="470,423.93 470,476.7 507.1,450.32 "/>
</svg>
