<?xml version="1.0" encoding="utf-8"?>
<!-- Generator: Adobe Illustrator 28.0.0, SVG Export Plug-In . SVG Version: 6.00 Build 0)  -->
<svg version="1.1" id="Layer_1" xmlns="http://www.w3.org/2000/svg" xmlns:xlink="http://www.w3.org/1999/xlink" x="0px" y="0px"
	 viewBox="0 0 512 512" style="enable-background:new 0 0 512 512;" xml:space="preserve">
<style type="text/css">
	.st0{fill:none;stroke:#000000;stroke-miterlimit:10;}
	.st1{fill:none;stroke:#14D5FB;stroke-miterlimit:10;}
	.st2{fill:none;stroke:#D226E1;stroke-miterlimit:10;}
	.st3{font-family:'Shobhika-Regular';}
	.st4{font-size:29.9077px;}
</style>
<path class="st0" d="M46.85,176.52"/>
<g>
	<line x1="22" y1="448.44" x2="508" y2="452.18"/>
	<g>
		<line class="st0" x1="22" y1="448.44" x2="500.82" y2="452.12"/>
		<g>
			<polygon points="499.33,457.1 508,452.18 499.4,447.12 			"/>
		</g>
	</g>
</g>
<g>
	<line x1="266.87" y1="457.78" x2="266.87" y2="65.25"/>
	<g>
		<line class="st0" x1="266.87" y1="457.78" x2="266.87" y2="72.42"/>
		<g>
			<polygon points="271.86,73.88 266.87,65.25 261.89,73.88 			"/>
		</g>
	</g>
</g>
<path class="st1" d="M102.38,143.75c-3.6,181.17,90.37,305.14,160.75,306.55c71.1,1.43,171.84-121.11,171.97-306.55"/>
<path class="st0" d="M42.56,252.17"/>
<path class="st2" d="M46.3,285.82c32.68,94.42,119,159.72,216.83,164.49c104.68,5.11,202.36-60.07,239.26-160.75"/>
<line class="st0" x1="253.78" y1="154.97" x2="279.95" y2="154.97"/>
<line class="st0" x1="253.78" y1="211.05" x2="279.95" y2="211.05"/>
<line class="st0" x1="253.78" y1="192.35" x2="279.95" y2="192.35"/>
<line class="st0" x1="253.78" y1="173.66" x2="279.95" y2="173.66"/>
<line class="st0" x1="253.78" y1="360.58" x2="279.95" y2="360.58"/>
<line class="st0" x1="253.78" y1="341.89" x2="279.95" y2="341.89"/>
<line class="st0" x1="253.78" y1="323.2" x2="279.95" y2="323.2"/>
<line class="st0" x1="253.78" y1="304.51" x2="279.95" y2="304.51"/>
<line class="st0" x1="253.78" y1="285.82" x2="279.95" y2="285.82"/>
<line class="st0" x1="253.78" y1="248.43" x2="279.95" y2="248.43"/>
<line class="st0" x1="253.78" y1="267.12" x2="279.95" y2="267.12"/>
<line class="st0" x1="253.78" y1="248.43" x2="279.95" y2="248.43"/>
<line class="st0" x1="253.78" y1="229.74" x2="279.95" y2="229.74"/>
<line class="st0" x1="253.78" y1="136.28" x2="279.95" y2="136.28"/>
<line class="st0" x1="253.78" y1="433.48" x2="279.95" y2="433.48"/>
<line class="st0" x1="253.78" y1="416.66" x2="279.95" y2="416.66"/>
<line class="st0" x1="253.78" y1="397.97" x2="279.95" y2="397.97"/>
<line class="st0" x1="253.78" y1="379.28" x2="279.95" y2="379.28"/>
<line class="st0" x1="253.78" y1="117.58" x2="279.95" y2="117.58"/>
<line class="st0" x1="84.3" y1="459.65" x2="84.3" y2="440.96"/>
<line class="st0" x1="140.37" y1="459.65" x2="140.37" y2="440.96"/>
<line class="st0" x1="121.68" y1="459.65" x2="121.68" y2="440.96"/>
<line class="st0" x1="102.99" y1="459.65" x2="102.99" y2="440.96"/>
<line class="st0" x1="281.82" y1="459.65" x2="281.82" y2="440.96"/>
<line class="st0" x1="252.53" y1="459.65" x2="252.53" y2="440.96"/>
<line class="st0" x1="233.83" y1="459.65" x2="233.83" y2="440.96"/>
<line class="st0" x1="215.14" y1="459.65" x2="215.14" y2="440.96"/>
<line class="st0" x1="177.76" y1="459.65" x2="177.76" y2="440.96"/>
<line class="st0" x1="196.45" y1="459.65" x2="196.45" y2="440.96"/>
<line class="st0" x1="177.76" y1="459.65" x2="177.76" y2="440.96"/>
<line class="st0" x1="159.06" y1="459.65" x2="159.06" y2="440.96"/>
<line class="st0" x1="65.6" y1="459.65" x2="65.6" y2="440.96"/>
<line class="st0" x1="356.59" y1="459.65" x2="356.59" y2="440.96"/>
<line class="st0" x1="337.9" y1="459.65" x2="337.9" y2="440.96"/>
<line class="st0" x1="319.21" y1="459.65" x2="319.21" y2="440.96"/>
<line class="st0" x1="300.52" y1="459.65" x2="300.52" y2="440.96"/>
<line class="st0" x1="46.91" y1="459.65" x2="46.91" y2="440.96"/>
<line class="st0" x1="405.19" y1="459.65" x2="405.19" y2="440.96"/>
<line class="st0" x1="461.27" y1="459.65" x2="461.27" y2="440.96"/>
<line class="st0" x1="442.58" y1="459.65" x2="442.58" y2="440.96"/>
<line class="st0" x1="423.88" y1="459.65" x2="423.88" y2="440.96"/>
<line class="st0" x1="488.05" y1="459.65" x2="488.05" y2="440.96"/>
<line class="st0" x1="386.5" y1="459.65" x2="386.5" y2="440.96"/>
<line class="st0" x1="371.55" y1="459.65" x2="371.55" y2="440.96"/>
<text transform="matrix(1 0 0 1 475.1719 417.0176)" class="st3 st4">X</text>
<text transform="matrix(1 0 0 1 310.0039 118.4536)" class="st3 st4">Y</text>
<path class="st0" d="M492.92,272.46"/>
</svg>
