<?xml version="1.0" encoding="utf-8"?>
<!-- Generator: Adobe Illustrator 28.0.0, SVG Export Plug-In . SVG Version: 6.00 Build 0)  -->
<svg version="1.1" id="Layer_1" xmlns="http://www.w3.org/2000/svg" xmlns:xlink="http://www.w3.org/1999/xlink" x="0px" y="0px"
	 viewBox="0 0 512 512" style="enable-background:new 0 0 512 512;" xml:space="preserve">
<style type="text/css">
	.st0{fill:none;stroke:#000000;stroke-width:2;stroke-miterlimit:10;}
	.st1{stroke:#000000;stroke-miterlimit:10;}
	.st2{fill:none;stroke:#000000;stroke-miterlimit:10;}
</style>
<path class="st0" d="M20.34,273.46c-4.73,45.88-25.89,79.34,17.35,104.08c10.95,6.26,14.41,6.76,86.73,17.35
	c47.16,6.9,44.72,8.1,82.39,13.01c30.22,3.94,57.41,7.48,86.73,8.67c72.17,2.92,127.84,5.18,169.13-30.36
	c7.53-6.48,35.62-30.66,39.03-69.38c1.91-21.66-5.72-40.86-8.67-47.7c-13.58-31.45-34.44-36.58-34.69-60.71
	c-0.08-8.11,2.16-18.01-4.34-26.02c-3.88-4.78-7.39-4.6-13.01-8.67c-12.69-9.21-7.99-19.74-17.35-30.36
	c-12.97-14.71-30.15-3.74-52.04-21.68c-8.6-7.05-6.19-8.94-13.01-13.01c-15.87-9.47-29.88,0.2-56.38,0
	c-10.03-0.08-6.39-1.45-43.37-8.67c-29.89-5.84-45.15-8.76-60.71-8.67c-8.56,0.05-50.59,0.27-56.38,17.35
	c-2.45,7.24,3.44,12.09,0,17.35c-5.62,8.58-23.21-1.5-43.37,4.34c-12.28,3.56-21.19,13.93-39.03,34.69
	c-5.29,6.16-13.65,18.56-30.36,43.37c-12.95,19.22-16.66,25.39-17.35,34.69C10.66,256.77,21.09,266.16,20.34,273.46z"/>
<path class="st1" d="M217.65,136.86c20.19-12.55,54.8,15.1,93.24,41.2c19.06,12.94,49.39,33.53,69.38,73.72
	c23.15,46.52,20.55,95.37,17.67,101.29c-0.14,0.3-0.86,1.66-0.32,2.79c1.62,3.42,13.97,2.79,17.35,0
	c1.62-1.33-2.4-69.68-21.68-112.75c-31.74-70.91-134.67-119.2-173.46-117.09C215.81,126.24,219.65,135.62,217.65,136.86z"/>
<path class="st2" d="M29.01,316.83c6.34,25.35,32.78,46.84,60.71,52.04c34.27,6.38,54.3-14.83,73.72,0
	c8.41,6.42,15.25,18.5,26.02,17.35c1-0.11,5.92-0.63,8.67-4.34c5.45-7.33-5-17.08-4.34-30.36c0.97-19.27,25-38.69,39.03-34.69
	c4.56,1.3,9.16,5.38,8.67,8.67c-0.95,6.45-20.35,2.25-30.36,13.01c-11.71,12.6-8,42.97,8.67,56.38c4.67,3.75,11.78,5.39,26.02,8.67
	c17.91,4.13,36.74,8.47,43.37,0c3.98-5.09,1.19-11.8,4.34-13.01c4.38-1.69,9.12,11.55,21.68,17.35c8.95,4.12,24.51,5.69,34.69-4.34
	c8.78-8.64,11.27-23.65,4.34-34.69c-8.89-14.16-28.75-14.53-39.03-8.67c-7.43,4.24-5.25,9.1-13.01,13.01
	c-11.33,5.7-28.91,1.83-39.03-8.67c-0.06-0.06-0.15-0.15-0.26-0.27c-8.96-9.53-11.39-23.26-8.42-34.42c1-3.75,3.16-11.86,8.67-13.01
	c3.7-0.77,8.37,1.7,8.67,4.34c0.34,3.01-5.24,4.09-8.67,8.67c-5.35,7.14-4.7,21.74,4.34,30.36c10.56,10.06,29.21,2.23,34.69,0
	c10.52-4.27,10.21-8.31,19.51-10.84c15.73-4.27,29.46,3.79,30.36,4.34c1.61,0.98,13.24,8.28,17.35,21.68
	c2.08,6.81,0.98,11.13,4.34,13.01c4.36,2.44,12.1-1.6,17.35-4.34c5.12-2.67,5.65-4.01,8.67-4.34c6.08-0.65,7.68,4.36,13.01,4.34
	c9.52-0.05,16.79-16.08,17.35-17.35c2.41-5.45,1.41-6.73,4.34-13.01c3.26-7,5.92-8.46,8.67-13.01c6.41-10.59,7.52-28.31,0-39.03
	c-3.74-5.32-8.5-7.35-8.67-13.01c-0.12-3.85,1.9-8.42,4.34-8.67c4.8-0.51,10.64,15.84,13.01,26.02c3.06,13.14,5.74,24.64,0,34.69
	c-2.09,3.66-6.14,8.62-8.67,17.35c-0.98,3.36-1.42,6.24,0,8.67c2.32,3.97,8.18,4.31,8.67,4.34c10.84,0.5,21.51-18.14,26.02-30.36
	c2.2-5.95,12.1-32.79,0-52.04c-3.38-5.38-8.02-9.42-8.67-17.35c-0.73-8.87,4.51-10.71,4.34-17.35
	c-0.42-16.54-33.38-21.3-34.69-39.03c-0.65-8.74,6.82-14.93,4.34-17.35c-2.99-2.91-12.84,6.96-26.02,8.67
	c-14.71,1.91-17.81-13.11-34.69-13.01c-8.53,0.05-13.9,3.42-17.35,0c-3.09-3.06-3.26-10.17,0-13.01c4.56-3.98,15.61,0.66,34.69,8.67
	c9.62,4.04,13.76,6.39,17.35,4.34c4.41-2.53,6.15-10.7,4.34-17.35c-2.96-10.85-16.43-17.35-43.37-30.36
	c-1.93-0.93-4.73-2.26-8.67-4.34c-13.04-6.87-16.83-10.5-21.68-13.01c-16.33-8.44-24.81,6.1-47.7,0
	c-13.3-3.54-23.14-11.83-26.02-8.67c-1.9,2.09,1.72,6.46,0,8.67c-3.38,4.35-21.52-7.1-39.03-13.01
	c-31.87-10.76-71.37-6.47-78.06,8.67c-3.57,8.1,2.92,17.74-4.34,26.02c-2.64,3.01-6.8,5.5-8.67,4.34c-3.45-2.15,3.12-15.37,0-17.35
	c-3.03-1.91-9.31,10.42-21.68,13.01c-12.47,2.6-17.39-7.56-26.02-4.34c-11.34,4.24-6.2,23.03-21.68,34.69
	c-7.15,5.39-9.68,2.46-17.35,8.67c-9.88,8.01-17.8,22.69-13.01,30.36c2.93,4.69,10.53,6.61,13.01,4.34c3.43-3.14-4.04-13.3,0-17.35
	c2.06-2.06,6.29-1.73,8.67,0c4.45,3.23,3.4,12.1,0,17.35c-4.8,7.42-14.82,8.42-17.35,8.67c-7.37,0.74-9.51-1.94-13.01,0
	c-5.59,3.09-8.34,14.43-4.34,21.68c5.33,9.64,22.34,11.59,34.69,13.01c9.44,1.08,15.12,0.46,17.35,4.34
	c2.45,4.26-0.42,11.99-4.34,13.01c-3.85,1-6.05-5.19-13.01-8.67c-9.24-4.63-22.69-2.4-30.36,4.34
	C22.63,291.29,28.18,313.49,29.01,316.83z"/>
<path class="st1" d="M70.21,336.34c12.92,12.95,37.94,6.75,47.7,4.34c13.61-3.37,29.54-7.31,39.03-21.68
	c7.88-11.94,10.61-30.01,4.34-34.69c-2.44-1.82-6.57-1.85-8.67,0c-3.36,2.97,0.47,9.02,0,17.35c-0.61,10.94-8.7,21.25-17.35,26.02
	c-6.08,3.35-12.72,3.68-26.02,4.34c-3.36,0.17-7.54,0.36-13.01,0c-18.37-1.21-28.52-7.16-30.36-4.34
	C64.72,329.44,67.5,333.62,70.21,336.34z"/>
<path class="st1" d="M100.57,184.56c-4.29-0.21-13.28,20.19-8.67,39.03c3.98,16.29,18.21,31.76,34.69,34.69
	c19.53,3.47,34.56-12.03,43.37-4.34c3.44,3,2.43,6.49,4.34,13.01c4.9,16.76,22.8,32.34,39.03,34.69
	c25.47,3.69,45.3-25.44,56.38-17.35c2.28,1.67,1.74,3.12,4.34,8.67c6.01,12.86,18.94,26.53,34.69,30.36
	c14.85,3.6,32.88-1.39,34.69-8.67c0.81-3.27-1.44-7.82-4.34-8.67c-2.99-0.89-5.81,2.42-8.67,4.34c-9.31,6.21-26.21,2.39-34.69-4.34
	c-16.15-12.82-8.2-41.26-17.35-43.37c-3.1-0.71-4.82,2.38-13.01,8.67c-7.36,5.65-20.47,15.73-34.69,17.35
	c-1.87,0.21-18.85,1.9-30.36-8.67c-15.22-14-8.94-38.55-21.68-43.37c-0.94-0.36-5.39-2.04-8.67,0c-3.14,1.95-2.58,5.67-4.34,8.67
	c-4.4,7.51-20.96,6.57-30.36,4.34c-3.41-0.81-25.83-6.13-30.36-21.68c-3.08-10.6,4.49-17.89,0-34.69
	C103.9,189.47,102.61,184.66,100.57,184.56z"/>
<path class="st1" d="M135.26,193.24c7.36,2.29,13.51-22.73,34.69-30.36c1.78-0.64,14-4.85,26.02,0c7.03,2.84,12.38,2.05,26.02,13.01
	c13.56,10.89,10.05,13.2,13.01,17.35c11.95,16.74-4.7,45.44,0,47.7c3.31,1.59,9.18-13.76,26.02-21.68c11.9-5.6,23.56-4.8,30.36-4.34
	c11.13,0.76,22.11,1.51,30.36,8.67c18.64,16.19,8.07,51.98,21.68,56.38c0.7,0.23,2.55,0.8,4.34,0c6.95-3.09,6.34-23.87,0-39.03
	c-6.11-14.61-16.97-22.63-21.68-26.02c-5.83-4.2-20.99-15.1-39.03-13.01c-21.44,2.49-31.56,21.56-39.03,17.35
	c-5.24-2.96-0.51-12.48-4.34-26.02c-5.64-19.93-25.65-33.88-43.37-39.03c-3.56-1.04-26.29-7.28-47.7,4.34
	c-3.16,1.72-22.72,12.33-21.68,26.02C130.97,185.12,131.57,192.09,135.26,193.24z"/>
<path class="st1" d="M334.74,162.88c4.27-5.4,6.41-8.1,8.67-8.67c4.45-1.14,6.47,4.41,13.01,4.34c3.52-0.04,8.06-1.71,8.67-4.34
	c0.98-4.23-8-11.81-17.35-13.01c-8.94-1.15-17.11,3.21-21.68,8.67c-1.45,1.74-6.71,8.01-4.34,13.01c1.47,3.11,5.66,5.22,8.67,4.34
	C332.01,166.74,332.57,165.62,334.74,162.88z"/>
<path class="st1" d="M369.43,310.32c8.02-1.11,10.18-13.19,17.35-13.01c4.64,0.12,7.21,5.28,8.67,4.34
	c1.68-1.08,0.46-9.34-4.34-13.01c-9.92-7.59-34.94,4.54-34.69,13.01C356.55,306.1,363.7,311.12,369.43,310.32z"/>
<path class="st1" d="M395.45,245.27c2.47,1.1,6.39-8.87,13.01-8.67c1.44,0.04,1.81,0.53,8.67,4.34c5.58,3.09,8.38,4.63,8.67,4.34
	c1.31-1.31-6.08-17.42-17.35-17.35c-5.24,0.04-10.85,3.58-13.01,8.67C394.01,240,393.9,244.58,395.45,245.27z"/>
<path class="st1" d="M317.39,180.23c-0.79,1.42-9.89-6.77-21.68-4.34c-7.53,1.55-11.78,6.53-17.35,4.34
	c-1.7-0.67-4.32-2.32-4.34-4.34c-0.03-4.21,11.35-9.48,21.68-8.67C308.69,168.23,318.23,178.72,317.39,180.23z"/>
</svg>
