<?xml version="1.0" encoding="utf-8"?>
<!-- Generator: Adobe Illustrator 28.0.0, SVG Export Plug-In . SVG Version: 6.00 Build 0)  -->
<svg version="1.1" id="Layer_1" xmlns="http://www.w3.org/2000/svg" xmlns:xlink="http://www.w3.org/1999/xlink" x="0px" y="0px"
	 viewBox="0 0 512 512" style="enable-background:new 0 0 512 512;" xml:space="preserve">
<style type="text/css">
	.st0{fill:none;stroke:url(#SVGID_1_);stroke-width:12;stroke-miterlimit:10;}
	.st1{fill:none;stroke:url(#SVGID_00000070085239020089489450000014132245546688790443_);stroke-width:12;stroke-miterlimit:10;}
	.st2{fill:none;stroke:url(#SVGID_00000031179429527553530350000003579981830366601368_);stroke-width:12;stroke-miterlimit:10;}
	.st3{fill:none;stroke:url(#SVGID_00000016760979316517522310000011095936149203687316_);stroke-width:12;stroke-miterlimit:10;}
	.st4{fill:none;stroke:#000000;stroke-width:12;stroke-miterlimit:10;}
	.st5{fill:#FFFFFF;stroke:#000000;stroke-width:12;stroke-miterlimit:10;}
	.st6{stroke:#000000;stroke-miterlimit:10;}
</style>
<linearGradient id="SVGID_1_" gradientUnits="userSpaceOnUse" x1="295.4014" y1="437.068" x2="307.4014" y2="437.068">
	<stop  offset="0" style="stop-color:#14D5FB"/>
	<stop  offset="1" style="stop-color:#D226E1"/>
</linearGradient>
<line class="st0" x1="301.4" y1="455.44" x2="301.4" y2="418.7"/>
<linearGradient id="SVGID_00000176749340483907207300000000665970686970431384_" gradientUnits="userSpaceOnUse" x1="153.9242" y1="341.6973" x2="205.8785" y2="341.6973">
	<stop  offset="0" style="stop-color:#14D5FB"/>
	<stop  offset="1" style="stop-color:#D226E1"/>
</linearGradient>
<line style="fill:none;stroke:url(#SVGID_00000176749340483907207300000000665970686970431384_);stroke-width:12;stroke-miterlimit:10;" x1="202.4" y1="325.7" x2="157.4" y2="357.7"/>
<linearGradient id="SVGID_00000090289049168447672520000011817928925576423580_" gradientUnits="userSpaceOnUse" x1="125.3703" y1="419.5765" x2="212.3922" y2="419.5765">
	<stop  offset="0" style="stop-color:#14D5FB"/>
	<stop  offset="1" style="stop-color:#D226E1"/>
</linearGradient>
<polyline style="fill:none;stroke:url(#SVGID_00000090289049168447672520000011817928925576423580_);stroke-width:12;stroke-miterlimit:10;" points="
	209.4,407.7 169.4,430.7 128.4,406.7 "/>
<linearGradient id="SVGID_00000013874800788496672650000007050382197879322019_" gradientUnits="userSpaceOnUse" x1="109.6395" y1="363.5012" x2="202.6167" y2="363.5012">
	<stop  offset="0" style="stop-color:#14D5FB"/>
	<stop  offset="1" style="stop-color:#D226E1"/>
</linearGradient>
<polyline style="fill:none;stroke:url(#SVGID_00000013874800788496672650000007050382197879322019_);stroke-width:12;stroke-miterlimit:10;" points="
	199.4,277.7 160.63,302.31 160.63,353.15 129.4,404.49 115.4,452.7 "/>
<path class="st4" d="M310.4,86.7l-50.68,7.95c-7.95,1.32-15.15,5.46-20.31,11.65l-0.98,1.18c-17.16,20.6-29.96,44.48-37.63,70.17
	l-2.4,8.06l-3.21,17.68c-1.19,6.58-1.79,13.25-1.79,19.93v38.35c0,5.86,1.98,11.54,5.63,16.12l7.38,9.28
	c1.89,2.37,4.75,3.75,7.78,3.75l85.2-0.11"/>
<circle class="st4" cx="344.4" cy="100.7" r="38"/>
<path class="st5" d="M347.4,211.7l23.47-43.19c1-1.84,1.53-3.91,1.53-6v-25.41c0-2.45-1.57-4.62-3.89-5.39l-12.32-4.08
	c-1.81-0.6-3.77-0.63-5.6-0.08l-11.19,3.35c-1.61,0.48-3.01,1.51-3.95,2.91h0c-2.04,3.04-2.32,6.93-0.72,10.23l2.6,5.36
	c1.9,3.92,1.58,8.55-0.84,12.17l-42.04,62.92l-46.72,23.13"/>
<path class="st4" d="M299.4,290.7L227.56,369c-3.42,3.71-3.22,9.48,0.45,12.95l41.13,38.88c2.19,2.07,5.74,0.06,5.08-2.89
	l-8.48-37.95c-1.13-5.05,0.66-10.31,4.63-13.63l87.03-72.66"/>
<path class="st4" d="M268.4,391.7l37.37,30.66c2.49,1.81,5.89-0.47,5.15-3.46l-7.66-30.83c-1.13-4.55,0.48-9.34,4.12-12.28
	l80.76-65.39c5.23-4.23,8.27-10.6,8.27-17.33v-5.7c0-0.03,0-0.05,0-0.08c-0.02-3.56-1.51-6.95-3.92-9.57L381.4,265.7"/>
<path class="st5" d="M238.4,157.7l11.63,51.75c0.86,3.91,3.59,7.15,7.3,8.66l81.77,33.15c3.35,1.36,5.93,4.15,7.02,7.6l2.78,8.78
	c1.96,6.19,8.44,9.75,14.72,8.08l9.77-2.6c5.32-1.42,9.02-6.24,9.02-11.74v-19.38c0-4.67-2.67-8.92-6.88-10.95l-87.47-42.13
	c-4.09-1.97-6.74-6.06-6.87-10.59l-1.79-51.61"/>
<path class="st6" d="M299.9,285.2c2.21-0.31,6,3.23,4.5,7.5c-1.39,3.96-7.18,5.58-9,4c-1.95-1.69,0.49-7.21,1.5-9.5
	C297.85,285.06,298.91,285.34,299.9,285.2z"/>
</svg>
