<svg width="810" height="779" viewBox="0 0 810 779" fill="none" xmlns="http://www.w3.org/2000/svg">
<g filter="url(#filter0_d_282_119)">
<rect x="38" y="321" width="220" height="220" rx="20" fill="white"/>
<path d="M93.6968 393.496C90.2088 393.496 87.6808 394.472 86.1128 396.424C84.5768 398.344 83.8088 400.984 83.8088 404.344C83.8088 405.976 84.0008 407.464 84.3848 408.808C84.7688 410.12 85.3448 411.256 86.1128 412.216C86.8808 413.176 87.8408 413.928 88.9928 414.472C90.1448 414.984 91.4888 415.24 93.0248 415.24C93.8568 415.24 94.5608 415.224 95.1368 415.192C95.7448 415.16 96.2728 415.096 96.7208 415V403.432H104.209V419.896C103.313 420.248 101.873 420.616 99.8888 421C97.9048 421.416 95.4568 421.624 92.5448 421.624C90.0488 421.624 87.7768 421.24 85.7288 420.472C83.7128 419.704 81.9848 418.584 80.5448 417.112C79.1048 415.64 77.9848 413.832 77.1848 411.688C76.4168 409.544 76.0328 407.096 76.0328 404.344C76.0328 401.56 76.4648 399.096 77.3288 396.952C78.1928 394.808 79.3768 393 80.8808 391.528C82.3848 390.024 84.1448 388.888 86.1608 388.12C88.2088 387.352 90.3848 386.968 92.6888 386.968C94.2568 386.968 95.6648 387.08 96.9128 387.304C98.1928 387.496 99.2808 387.736 100.177 388.024C101.105 388.28 101.857 388.552 102.433 388.84C103.041 389.128 103.473 389.352 103.729 389.512L101.569 395.512C100.545 394.968 99.3608 394.504 98.0168 394.12C96.7048 393.704 95.2648 393.496 93.6968 393.496ZM120.776 421.48C118.696 421.448 117 421.224 115.688 420.808C114.408 420.392 113.384 419.816 112.616 419.08C111.88 418.312 111.368 417.4 111.08 416.344C110.824 415.256 110.696 414.04 110.696 412.696V384.904L117.848 383.752V411.256C117.848 411.896 117.896 412.472 117.992 412.984C118.088 413.496 118.264 413.928 118.52 414.28C118.808 414.632 119.208 414.92 119.72 415.144C120.232 415.368 120.92 415.512 121.784 415.576L120.776 421.48ZM149.499 408.328C149.499 410.312 149.211 412.136 148.635 413.8C148.059 415.432 147.227 416.84 146.139 418.024C145.051 419.176 143.739 420.072 142.203 420.712C140.699 421.352 139.003 421.672 137.115 421.672C135.259 421.672 133.563 421.352 132.027 420.712C130.523 420.072 129.227 419.176 128.139 418.024C127.051 416.84 126.203 415.432 125.595 413.8C124.987 412.136 124.683 410.312 124.683 408.328C124.683 406.344 124.987 404.536 125.595 402.904C126.235 401.272 127.099 399.88 128.187 398.728C129.307 397.576 130.619 396.68 132.123 396.04C133.659 395.4 135.323 395.08 137.115 395.08C138.939 395.08 140.603 395.4 142.107 396.04C143.643 396.68 144.955 397.576 146.043 398.728C147.131 399.88 147.979 401.272 148.587 402.904C149.195 404.536 149.499 406.344 149.499 408.328ZM142.203 408.328C142.203 406.12 141.755 404.392 140.859 403.144C139.995 401.864 138.747 401.224 137.115 401.224C135.483 401.224 134.219 401.864 133.323 403.144C132.427 404.392 131.979 406.12 131.979 408.328C131.979 410.536 132.427 412.296 133.323 413.608C134.219 414.888 135.483 415.528 137.115 415.528C138.747 415.528 139.995 414.888 140.859 413.608C141.755 412.296 142.203 410.536 142.203 408.328ZM171.216 408.184C171.216 403.576 169.52 401.272 166.128 401.272C165.392 401.272 164.656 401.368 163.92 401.56C163.216 401.752 162.64 401.992 162.192 402.28V415.288C162.544 415.352 162.992 415.416 163.536 415.48C164.08 415.512 164.672 415.528 165.312 415.528C167.264 415.528 168.736 414.856 169.728 413.512C170.72 412.168 171.216 410.392 171.216 408.184ZM178.512 408.376C178.512 410.392 178.208 412.216 177.6 413.848C177.024 415.48 176.176 416.872 175.056 418.024C173.936 419.176 172.56 420.072 170.928 420.712C169.296 421.32 167.44 421.624 165.36 421.624C164.496 421.624 163.584 421.576 162.624 421.48C161.696 421.416 160.768 421.32 159.84 421.192C158.944 421.064 158.08 420.92 157.248 420.76C156.416 420.568 155.68 420.376 155.04 420.184V384.904L162.192 383.752V396.328C162.992 395.976 163.824 395.704 164.688 395.512C165.552 395.32 166.48 395.224 167.472 395.224C169.264 395.224 170.848 395.544 172.224 396.184C173.6 396.792 174.752 397.672 175.68 398.824C176.608 399.976 177.312 401.368 177.792 403C178.272 404.6 178.512 406.392 178.512 408.376ZM193.656 416.008C194.36 416.008 195.032 415.992 195.672 415.96C196.312 415.928 196.824 415.88 197.208 415.816V410.392C196.92 410.328 196.488 410.264 195.912 410.2C195.336 410.136 194.808 410.104 194.328 410.104C193.656 410.104 193.016 410.152 192.408 410.248C191.832 410.312 191.32 410.456 190.872 410.68C190.424 410.904 190.072 411.208 189.816 411.592C189.56 411.976 189.432 412.456 189.432 413.032C189.432 414.152 189.8 414.936 190.536 415.384C191.304 415.8 192.344 416.008 193.656 416.008ZM193.08 395.08C195.192 395.08 196.952 395.32 198.36 395.8C199.768 396.28 200.888 396.968 201.72 397.864C202.584 398.76 203.192 399.848 203.544 401.128C203.896 402.408 204.072 403.832 204.072 405.4V420.28C203.048 420.504 201.624 420.76 199.8 421.048C197.976 421.368 195.768 421.528 193.176 421.528C191.544 421.528 190.056 421.384 188.712 421.096C187.4 420.808 186.264 420.344 185.304 419.704C184.344 419.032 183.608 418.168 183.096 417.112C182.584 416.056 182.328 414.76 182.328 413.224C182.328 411.752 182.616 410.504 183.192 409.48C183.8 408.456 184.6 407.64 185.592 407.032C186.584 406.424 187.72 405.992 189 405.736C190.28 405.448 191.608 405.304 192.984 405.304C193.912 405.304 194.728 405.352 195.432 405.448C196.168 405.512 196.76 405.608 197.208 405.736V405.064C197.208 403.848 196.84 402.872 196.104 402.136C195.368 401.4 194.088 401.032 192.264 401.032C191.048 401.032 189.848 401.128 188.664 401.32C187.48 401.48 186.456 401.72 185.592 402.04L184.68 396.28C185.096 396.152 185.608 396.024 186.216 395.896C186.856 395.736 187.544 395.608 188.28 395.512C189.016 395.384 189.784 395.288 190.584 395.224C191.416 395.128 192.248 395.08 193.08 395.08ZM220.62 421.48C218.54 421.448 216.844 421.224 215.532 420.808C214.252 420.392 213.228 419.816 212.46 419.08C211.724 418.312 211.212 417.4 210.924 416.344C210.668 415.256 210.54 414.04 210.54 412.696V384.904L217.692 383.752V411.256C217.692 411.896 217.74 412.472 217.836 412.984C217.932 413.496 218.108 413.928 218.364 414.28C218.652 414.632 219.052 414.92 219.564 415.144C220.076 415.368 220.764 415.512 221.628 415.576L220.62 421.48ZM63.2033 476.672C57.7953 476.672 53.6673 475.168 50.8193 472.16C48.0033 469.152 46.5953 464.88 46.5953 459.344C46.5953 456.592 47.0273 454.144 47.8913 452C48.7553 449.824 49.9393 448 51.4433 446.528C52.9473 445.024 54.7393 443.888 56.8193 443.12C58.8993 442.352 61.1553 441.968 63.5873 441.968C64.9953 441.968 66.2753 442.08 67.4273 442.304C68.5793 442.496 69.5873 442.736 70.4513 443.024C71.3153 443.28 72.0353 443.552 72.6113 443.84C73.1873 444.128 73.6033 444.352 73.8593 444.512L71.6993 450.56C70.6753 450.016 69.4753 449.552 68.0993 449.168C66.7553 448.784 65.2193 448.592 63.4913 448.592C62.3393 448.592 61.2033 448.784 60.0833 449.168C58.9953 449.552 58.0193 450.176 57.1553 451.04C56.3233 451.872 55.6513 452.96 55.1393 454.304C54.6273 455.648 54.3713 457.28 54.3713 459.2C54.3713 460.736 54.5313 462.176 54.8513 463.52C55.2033 464.832 55.7473 465.968 56.4833 466.928C57.2513 467.888 58.2433 468.656 59.4593 469.232C60.6753 469.776 62.1473 470.048 63.8753 470.048C64.9633 470.048 65.9393 469.984 66.8033 469.856C67.6673 469.728 68.4353 469.584 69.1073 469.424C69.7793 469.232 70.3713 469.024 70.8833 468.8C71.3953 468.576 71.8593 468.368 72.2753 468.176L74.3393 474.176C73.2833 474.816 71.7953 475.392 69.8753 475.904C67.9553 476.416 65.7313 476.672 63.2033 476.672ZM101.734 463.328C101.734 465.312 101.446 467.136 100.87 468.8C100.294 470.432 99.4618 471.84 98.3738 473.024C97.2858 474.176 95.9738 475.072 94.4378 475.712C92.9338 476.352 91.2378 476.672 89.3498 476.672C87.4938 476.672 85.7978 476.352 84.2618 475.712C82.7578 475.072 81.4618 474.176 80.3738 473.024C79.2858 471.84 78.4378 470.432 77.8298 468.8C77.2218 467.136 76.9178 465.312 76.9178 463.328C76.9178 461.344 77.2218 459.536 77.8298 457.904C78.4698 456.272 79.3338 454.88 80.4218 453.728C81.5418 452.576 82.8538 451.68 84.3578 451.04C85.8938 450.4 87.5578 450.08 89.3498 450.08C91.1738 450.08 92.8378 450.4 94.3418 451.04C95.8778 451.68 97.1898 452.576 98.2778 453.728C99.3658 454.88 100.214 456.272 100.822 457.904C101.43 459.536 101.734 461.344 101.734 463.328ZM94.4378 463.328C94.4378 461.12 93.9898 459.392 93.0938 458.144C92.2298 456.864 90.9818 456.224 89.3498 456.224C87.7178 456.224 86.4538 456.864 85.5578 458.144C84.6618 459.392 84.2138 461.12 84.2138 463.328C84.2138 465.536 84.6618 467.296 85.5578 468.608C86.4538 469.888 87.7178 470.528 89.3498 470.528C90.9818 470.528 92.2298 469.888 93.0938 468.608C93.9898 467.296 94.4378 465.536 94.4378 463.328ZM107.274 451.616C108.49 451.264 110.058 450.944 111.978 450.656C113.898 450.336 115.914 450.176 118.026 450.176C120.17 450.176 121.946 450.464 123.354 451.04C124.794 451.584 125.93 452.368 126.762 453.392C127.594 454.416 128.186 455.632 128.538 457.04C128.89 458.448 129.066 460.016 129.066 461.744V476H121.914V462.608C121.914 460.304 121.61 458.672 121.002 457.712C120.394 456.752 119.258 456.272 117.594 456.272C117.082 456.272 116.538 456.304 115.962 456.368C115.386 456.4 114.874 456.448 114.426 456.512V476H107.274V451.616ZM135.3 444.464L142.452 443.312V450.752H151.044V456.704H142.452V465.584C142.452 467.088 142.708 468.288 143.22 469.184C143.764 470.08 144.836 470.528 146.436 470.528C147.204 470.528 147.988 470.464 148.788 470.336C149.62 470.176 150.372 469.968 151.044 469.712L152.052 475.28C151.188 475.632 150.228 475.936 149.172 476.192C148.116 476.448 146.82 476.576 145.284 476.576C143.332 476.576 141.716 476.32 140.436 475.808C139.156 475.264 138.132 474.528 137.364 473.6C136.596 472.64 136.052 471.488 135.732 470.144C135.444 468.8 135.3 467.312 135.3 465.68V444.464ZM154.73 463.568C154.73 461.328 155.066 459.376 155.738 457.712C156.442 456.016 157.354 454.608 158.474 453.488C159.594 452.368 160.874 451.52 162.314 450.944C163.786 450.368 165.29 450.08 166.826 450.08C170.41 450.08 173.242 451.184 175.322 453.392C177.402 455.568 178.442 458.784 178.442 463.04C178.442 463.456 178.426 463.92 178.394 464.432C178.362 464.912 178.33 465.344 178.298 465.728H162.074C162.234 467.2 162.922 468.368 164.138 469.232C165.354 470.096 166.986 470.528 169.034 470.528C170.346 470.528 171.626 470.416 172.874 470.192C174.154 469.936 175.194 469.632 175.994 469.28L176.954 475.088C176.57 475.28 176.058 475.472 175.418 475.664C174.778 475.856 174.058 476.016 173.258 476.144C172.49 476.304 171.658 476.432 170.762 476.528C169.866 476.624 168.97 476.672 168.074 476.672C165.802 476.672 163.818 476.336 162.122 475.664C160.458 474.992 159.066 474.08 157.946 472.928C156.858 471.744 156.042 470.352 155.498 468.752C154.986 467.152 154.73 465.424 154.73 463.568ZM171.53 460.832C171.498 460.224 171.386 459.632 171.194 459.056C171.034 458.48 170.762 457.968 170.378 457.52C170.026 457.072 169.562 456.704 168.986 456.416C168.442 456.128 167.754 455.984 166.922 455.984C166.122 455.984 165.434 456.128 164.858 456.416C164.282 456.672 163.802 457.024 163.418 457.472C163.034 457.92 162.73 458.448 162.506 459.056C162.314 459.632 162.17 460.224 162.074 460.832H171.53ZM193.994 458.432L198.986 450.752H206.378L197.738 462.896C199.658 465.296 201.402 467.632 202.97 469.904C204.538 472.176 205.786 474.208 206.714 476H199.034C198.778 475.52 198.458 474.928 198.074 474.224C197.69 473.488 197.258 472.736 196.778 471.968C196.298 471.168 195.786 470.384 195.242 469.616C194.73 468.816 194.218 468.096 193.706 467.456C193.226 468.064 192.73 468.736 192.218 469.472C191.738 470.208 191.274 470.96 190.826 471.728C190.378 472.464 189.93 473.2 189.482 473.936C189.066 474.672 188.698 475.36 188.378 476H181.082C181.466 475.2 181.994 474.256 182.666 473.168C183.338 472.08 184.058 470.96 184.826 469.808C185.626 468.624 186.458 467.456 187.322 466.304C188.186 465.12 189.034 464.016 189.866 462.992C188.426 460.976 186.986 458.944 185.546 456.896C184.106 454.816 182.682 452.768 181.274 450.752H189.002L193.994 458.432ZM210.3 444.464L217.452 443.312V450.752H226.044V456.704H217.452V465.584C217.452 467.088 217.708 468.288 218.22 469.184C218.764 470.08 219.836 470.528 221.436 470.528C222.204 470.528 222.988 470.464 223.788 470.336C224.62 470.176 225.372 469.968 226.044 469.712L227.052 475.28C226.188 475.632 225.228 475.936 224.172 476.192C223.116 476.448 221.82 476.576 220.284 476.576C218.332 476.576 216.716 476.32 215.436 475.808C214.156 475.264 213.132 474.528 212.364 473.6C211.596 472.64 211.052 471.488 210.732 470.144C210.444 468.8 210.3 467.312 210.3 465.68V444.464ZM239.116 470.864C240.428 470.864 241.356 470.736 241.9 470.48C242.444 470.224 242.716 469.728 242.716 468.992C242.716 468.416 242.364 467.92 241.66 467.504C240.956 467.056 239.884 466.56 238.444 466.016C237.324 465.6 236.3 465.168 235.372 464.72C234.476 464.272 233.708 463.744 233.068 463.136C232.428 462.496 231.932 461.744 231.58 460.88C231.228 460.016 231.052 458.976 231.052 457.76C231.052 455.392 231.932 453.52 233.692 452.144C235.452 450.768 237.868 450.08 240.94 450.08C242.476 450.08 243.948 450.224 245.356 450.512C246.764 450.768 247.884 451.056 248.716 451.376L247.468 456.944C246.636 456.656 245.724 456.4 244.732 456.176C243.772 455.952 242.684 455.84 241.468 455.84C239.228 455.84 238.108 456.464 238.108 457.712C238.108 458 238.156 458.256 238.252 458.48C238.348 458.704 238.54 458.928 238.828 459.152C239.116 459.344 239.5 459.568 239.98 459.824C240.492 460.048 241.132 460.304 241.9 460.592C243.468 461.168 244.764 461.744 245.788 462.32C246.812 462.864 247.612 463.472 248.188 464.144C248.796 464.784 249.212 465.504 249.436 466.304C249.692 467.104 249.82 468.032 249.82 469.088C249.82 471.584 248.876 473.472 246.988 474.752C245.132 476.032 242.492 476.672 239.068 476.672C236.828 476.672 234.956 476.48 233.452 476.096C231.98 475.712 230.956 475.392 230.38 475.136L231.58 469.328C232.796 469.808 234.044 470.192 235.324 470.48C236.604 470.736 237.868 470.864 239.116 470.864Z" fill="url(#paint0_linear_282_119)"/>
</g>
<g filter="url(#filter1_d_282_119)">
<rect x="231" y="81" width="191" height="182" rx="20" fill="white"/>
<path d="M253.377 165C253.142 164.232 252.875 163.443 252.577 162.632C252.299 161.821 252.022 161.011 251.745 160.2H243.105C242.827 161.011 242.539 161.821 242.241 162.632C241.963 163.443 241.707 164.232 241.473 165H236.289C237.121 162.611 237.91 160.403 238.657 158.376C239.403 156.349 240.129 154.44 240.833 152.648C241.558 150.856 242.262 149.16 242.945 147.56C243.649 145.939 244.374 144.36 245.121 142.824H249.889C250.614 144.36 251.329 145.939 252.033 147.56C252.737 149.16 253.441 150.856 254.145 152.648C254.87 154.44 255.606 156.349 256.353 158.376C257.099 160.403 257.889 162.611 258.721 165H253.377ZM247.393 147.848C247.286 148.168 247.126 148.605 246.913 149.16C246.699 149.715 246.454 150.355 246.177 151.08C245.899 151.805 245.59 152.605 245.249 153.48C244.929 154.355 244.598 155.272 244.257 156.232H250.561C250.219 155.272 249.889 154.355 249.569 153.48C249.249 152.605 248.939 151.805 248.641 151.08C248.363 150.355 248.118 149.715 247.905 149.16C247.691 148.605 247.521 148.168 247.393 147.848ZM272.055 156.712C272.055 155.24 271.725 154.067 271.063 153.192C270.402 152.296 269.421 151.848 268.119 151.848C267.693 151.848 267.298 151.869 266.935 151.912C266.573 151.933 266.274 151.965 266.039 152.008V160.616C266.338 160.808 266.722 160.968 267.191 161.096C267.682 161.224 268.173 161.288 268.663 161.288C270.925 161.288 272.055 159.763 272.055 156.712ZM276.919 156.584C276.919 157.885 276.759 159.069 276.439 160.136C276.119 161.203 275.65 162.12 275.031 162.888C274.413 163.656 273.645 164.253 272.727 164.68C271.81 165.107 270.754 165.32 269.559 165.32C268.898 165.32 268.279 165.256 267.703 165.128C267.127 165 266.573 164.819 266.039 164.584V170.92H261.271V148.744C261.698 148.616 262.189 148.499 262.743 148.392C263.298 148.264 263.874 148.157 264.471 148.072C265.09 147.987 265.709 147.923 266.327 147.88C266.967 147.816 267.575 147.784 268.151 147.784C269.538 147.784 270.775 147.997 271.863 148.424C272.951 148.829 273.869 149.416 274.615 150.184C275.362 150.931 275.927 151.848 276.311 152.936C276.717 154.024 276.919 155.24 276.919 156.584ZM291.368 156.712C291.368 155.24 291.037 154.067 290.376 153.192C289.714 152.296 288.733 151.848 287.432 151.848C287.005 151.848 286.61 151.869 286.248 151.912C285.885 151.933 285.586 151.965 285.352 152.008V160.616C285.65 160.808 286.034 160.968 286.504 161.096C286.994 161.224 287.485 161.288 287.976 161.288C290.237 161.288 291.368 159.763 291.368 156.712ZM296.232 156.584C296.232 157.885 296.072 159.069 295.752 160.136C295.432 161.203 294.962 162.12 294.344 162.888C293.725 163.656 292.957 164.253 292.04 164.68C291.122 165.107 290.066 165.32 288.872 165.32C288.21 165.32 287.592 165.256 287.016 165.128C286.44 165 285.885 164.819 285.352 164.584V170.92H280.584V148.744C281.01 148.616 281.501 148.499 282.056 148.392C282.61 148.264 283.186 148.157 283.784 148.072C284.402 147.987 285.021 147.923 285.64 147.88C286.28 147.816 286.888 147.784 287.464 147.784C288.85 147.784 290.088 147.997 291.176 148.424C292.264 148.829 293.181 149.416 293.928 150.184C294.674 150.931 295.24 151.848 295.624 152.936C296.029 154.024 296.232 155.24 296.232 156.584ZM310.04 152.392C309.614 152.285 309.112 152.179 308.536 152.072C307.96 151.944 307.342 151.88 306.68 151.88C306.382 151.88 306.019 151.912 305.592 151.976C305.187 152.019 304.878 152.072 304.664 152.136V165H299.896V149.064C300.75 148.765 301.752 148.488 302.904 148.232C304.078 147.955 305.379 147.816 306.808 147.816C307.064 147.816 307.374 147.837 307.736 147.88C308.099 147.901 308.462 147.944 308.824 148.008C309.187 148.051 309.55 148.115 309.912 148.2C310.275 148.264 310.584 148.349 310.84 148.456L310.04 152.392ZM328.828 156.552C328.828 157.875 328.636 159.091 328.252 160.2C327.868 161.288 327.313 162.227 326.588 163.016C325.862 163.784 324.988 164.381 323.964 164.808C322.961 165.235 321.83 165.448 320.572 165.448C319.334 165.448 318.204 165.235 317.18 164.808C316.177 164.381 315.313 163.784 314.588 163.016C313.862 162.227 313.297 161.288 312.892 160.2C312.486 159.091 312.284 157.875 312.284 156.552C312.284 155.229 312.486 154.024 312.892 152.936C313.318 151.848 313.894 150.92 314.62 150.152C315.366 149.384 316.241 148.787 317.244 148.36C318.268 147.933 319.377 147.72 320.572 147.72C321.788 147.72 322.897 147.933 323.9 148.36C324.924 148.787 325.798 149.384 326.524 150.152C327.249 150.92 327.814 151.848 328.22 152.936C328.625 154.024 328.828 155.229 328.828 156.552ZM323.964 156.552C323.964 155.08 323.665 153.928 323.068 153.096C322.492 152.243 321.66 151.816 320.572 151.816C319.484 151.816 318.641 152.243 318.044 153.096C317.446 153.928 317.148 155.08 317.148 156.552C317.148 158.024 317.446 159.197 318.044 160.072C318.641 160.925 319.484 161.352 320.572 161.352C321.66 161.352 322.492 160.925 323.068 160.072C323.665 159.197 323.964 158.024 323.964 156.552ZM338.953 161.672C339.423 161.672 339.871 161.661 340.297 161.64C340.724 161.619 341.065 161.587 341.321 161.544V157.928C341.129 157.885 340.841 157.843 340.457 157.8C340.073 157.757 339.721 157.736 339.401 157.736C338.953 157.736 338.527 157.768 338.121 157.832C337.737 157.875 337.396 157.971 337.097 158.12C336.799 158.269 336.564 158.472 336.393 158.728C336.223 158.984 336.137 159.304 336.137 159.688C336.137 160.435 336.383 160.957 336.873 161.256C337.385 161.533 338.079 161.672 338.953 161.672ZM338.569 147.72C339.977 147.72 341.151 147.88 342.089 148.2C343.028 148.52 343.775 148.979 344.329 149.576C344.905 150.173 345.311 150.899 345.545 151.752C345.78 152.605 345.897 153.555 345.897 154.6V164.52C345.215 164.669 344.265 164.84 343.049 165.032C341.833 165.245 340.361 165.352 338.633 165.352C337.545 165.352 336.553 165.256 335.657 165.064C334.783 164.872 334.025 164.563 333.385 164.136C332.745 163.688 332.255 163.112 331.913 162.408C331.572 161.704 331.401 160.84 331.401 159.816C331.401 158.835 331.593 158.003 331.977 157.32C332.383 156.637 332.916 156.093 333.577 155.688C334.239 155.283 334.996 154.995 335.849 154.824C336.703 154.632 337.588 154.536 338.505 154.536C339.124 154.536 339.668 154.568 340.137 154.632C340.628 154.675 341.023 154.739 341.321 154.824V154.376C341.321 153.565 341.076 152.915 340.585 152.424C340.095 151.933 339.241 151.688 338.025 151.688C337.215 151.688 336.415 151.752 335.625 151.88C334.836 151.987 334.153 152.147 333.577 152.36L332.969 148.52C333.247 148.435 333.588 148.349 333.993 148.264C334.42 148.157 334.879 148.072 335.369 148.008C335.86 147.923 336.372 147.859 336.905 147.816C337.46 147.752 338.015 147.72 338.569 147.72ZM349.409 156.584C349.409 155.368 349.601 154.227 349.985 153.16C350.39 152.072 350.966 151.133 351.713 150.344C352.459 149.533 353.366 148.893 354.433 148.424C355.499 147.955 356.715 147.72 358.081 147.72C358.977 147.72 359.798 147.805 360.545 147.976C361.291 148.125 362.017 148.349 362.721 148.648L361.729 152.456C361.281 152.285 360.79 152.136 360.257 152.008C359.723 151.88 359.126 151.816 358.465 151.816C357.057 151.816 356.001 152.253 355.297 153.128C354.614 154.003 354.273 155.155 354.273 156.584C354.273 158.099 354.593 159.272 355.233 160.104C355.894 160.936 357.035 161.352 358.657 161.352C359.233 161.352 359.851 161.299 360.513 161.192C361.174 161.085 361.782 160.915 362.337 160.68L363.009 164.584C362.454 164.819 361.761 165.021 360.929 165.192C360.097 165.363 359.179 165.448 358.177 165.448C356.641 165.448 355.318 165.224 354.209 164.776C353.099 164.307 352.182 163.677 351.457 162.888C350.753 162.099 350.23 161.171 349.889 160.104C349.569 159.016 349.409 157.843 349.409 156.584ZM366.209 165V140.936L370.977 140.168V148.232C371.297 148.125 371.702 148.029 372.193 147.944C372.705 147.837 373.195 147.784 373.665 147.784C375.03 147.784 376.161 147.976 377.057 148.36C377.974 148.723 378.699 149.245 379.233 149.928C379.787 150.611 380.171 151.421 380.385 152.36C380.619 153.299 380.737 154.344 380.737 155.496V165H375.969V156.072C375.969 154.536 375.766 153.448 375.361 152.808C374.977 152.168 374.251 151.848 373.185 151.848C372.758 151.848 372.353 151.891 371.969 151.976C371.606 152.04 371.275 152.115 370.977 152.2V165H366.209ZM384.253 156.712C384.253 155.219 384.477 153.917 384.924 152.808C385.394 151.677 386.002 150.739 386.749 149.992C387.495 149.245 388.349 148.68 389.309 148.296C390.29 147.912 391.293 147.72 392.317 147.72C394.706 147.72 396.594 148.456 397.981 149.928C399.367 151.379 400.061 153.523 400.061 156.36C400.061 156.637 400.05 156.947 400.029 157.288C400.007 157.608 399.986 157.896 399.965 158.152H389.149C389.255 159.133 389.714 159.912 390.525 160.488C391.335 161.064 392.423 161.352 393.789 161.352C394.663 161.352 395.517 161.277 396.349 161.128C397.202 160.957 397.895 160.755 398.429 160.52L399.069 164.392C398.813 164.52 398.471 164.648 398.045 164.776C397.618 164.904 397.138 165.011 396.605 165.096C396.093 165.203 395.538 165.288 394.941 165.352C394.343 165.416 393.746 165.448 393.149 165.448C391.634 165.448 390.311 165.224 389.181 164.776C388.071 164.328 387.143 163.72 386.397 162.952C385.671 162.163 385.127 161.235 384.765 160.168C384.423 159.101 384.253 157.949 384.253 156.712ZM395.453 154.888C395.431 154.483 395.357 154.088 395.229 153.704C395.122 153.32 394.941 152.979 394.685 152.68C394.45 152.381 394.141 152.136 393.757 151.944C393.394 151.752 392.935 151.656 392.381 151.656C391.847 151.656 391.389 151.752 391.005 151.944C390.621 152.115 390.301 152.349 390.045 152.648C389.789 152.947 389.586 153.299 389.437 153.704C389.309 154.088 389.213 154.483 389.149 154.888H395.453ZM408.572 161.576C409.447 161.576 410.065 161.491 410.428 161.32C410.791 161.149 410.972 160.819 410.972 160.328C410.972 159.944 410.737 159.613 410.268 159.336C409.799 159.037 409.084 158.707 408.124 158.344C407.377 158.067 406.695 157.779 406.076 157.48C405.479 157.181 404.967 156.829 404.54 156.424C404.113 155.997 403.783 155.496 403.548 154.92C403.313 154.344 403.196 153.651 403.196 152.84C403.196 151.261 403.783 150.013 404.956 149.096C406.129 148.179 407.74 147.72 409.788 147.72C410.812 147.72 411.793 147.816 412.732 148.008C413.671 148.179 414.417 148.371 414.972 148.584L414.14 152.296C413.585 152.104 412.977 151.933 412.316 151.784C411.676 151.635 410.951 151.56 410.14 151.56C408.647 151.56 407.9 151.976 407.9 152.808C407.9 153 407.932 153.171 407.996 153.32C408.06 153.469 408.188 153.619 408.38 153.768C408.572 153.896 408.828 154.045 409.148 154.216C409.489 154.365 409.916 154.536 410.428 154.728C411.473 155.112 412.337 155.496 413.02 155.88C413.703 156.243 414.236 156.648 414.62 157.096C415.025 157.523 415.303 158.003 415.452 158.536C415.623 159.069 415.708 159.688 415.708 160.392C415.708 162.056 415.079 163.315 413.82 164.168C412.583 165.021 410.823 165.448 408.54 165.448C407.047 165.448 405.799 165.32 404.796 165.064C403.815 164.808 403.132 164.595 402.748 164.424L403.548 160.552C404.359 160.872 405.191 161.128 406.044 161.32C406.897 161.491 407.74 161.576 408.572 161.576ZM241.299 180.976L246.067 180.208V185.168H251.795V189.136H246.067V195.056C246.067 196.059 246.237 196.859 246.579 197.456C246.941 198.053 247.656 198.352 248.723 198.352C249.235 198.352 249.757 198.309 250.291 198.224C250.845 198.117 251.347 197.979 251.795 197.808L252.467 201.52C251.891 201.755 251.251 201.957 250.547 202.128C249.843 202.299 248.979 202.384 247.955 202.384C246.653 202.384 245.576 202.213 244.723 201.872C243.869 201.509 243.187 201.019 242.675 200.4C242.163 199.76 241.8 198.992 241.587 198.096C241.395 197.2 241.299 196.208 241.299 195.12V180.976ZM270.797 193.552C270.797 194.875 270.605 196.091 270.221 197.2C269.837 198.288 269.282 199.227 268.557 200.016C267.831 200.784 266.957 201.381 265.933 201.808C264.93 202.235 263.799 202.448 262.541 202.448C261.303 202.448 260.173 202.235 259.149 201.808C258.146 201.381 257.282 200.784 256.557 200.016C255.831 199.227 255.266 198.288 254.861 197.2C254.455 196.091 254.253 194.875 254.253 193.552C254.253 192.229 254.455 191.024 254.861 189.936C255.287 188.848 255.863 187.92 256.589 187.152C257.335 186.384 258.21 185.787 259.213 185.36C260.237 184.933 261.346 184.72 262.541 184.72C263.757 184.72 264.866 184.933 265.869 185.36C266.893 185.787 267.767 186.384 268.493 187.152C269.218 187.92 269.783 188.848 270.189 189.936C270.594 191.024 270.797 192.229 270.797 193.552ZM265.933 193.552C265.933 192.08 265.634 190.928 265.037 190.096C264.461 189.243 263.629 188.816 262.541 188.816C261.453 188.816 260.61 189.243 260.013 190.096C259.415 190.928 259.117 192.08 259.117 193.552C259.117 195.024 259.415 196.197 260.013 197.072C260.61 197.925 261.453 198.352 262.541 198.352C263.629 198.352 264.461 197.925 265.037 197.072C265.634 196.197 265.933 195.024 265.933 193.552ZM297.314 197.712V202H282.498V179.824H287.49V197.712H297.314ZM299.409 193.712C299.409 192.219 299.633 190.917 300.081 189.808C300.55 188.677 301.158 187.739 301.905 186.992C302.651 186.245 303.505 185.68 304.465 185.296C305.446 184.912 306.449 184.72 307.473 184.72C309.862 184.72 311.75 185.456 313.137 186.928C314.523 188.379 315.217 190.523 315.217 193.36C315.217 193.637 315.206 193.947 315.185 194.288C315.163 194.608 315.142 194.896 315.121 195.152H304.305C304.411 196.133 304.87 196.912 305.681 197.488C306.491 198.064 307.579 198.352 308.945 198.352C309.819 198.352 310.673 198.277 311.505 198.128C312.358 197.957 313.051 197.755 313.585 197.52L314.225 201.392C313.969 201.52 313.627 201.648 313.201 201.776C312.774 201.904 312.294 202.011 311.761 202.096C311.249 202.203 310.694 202.288 310.097 202.352C309.499 202.416 308.902 202.448 308.305 202.448C306.79 202.448 305.467 202.224 304.337 201.776C303.227 201.328 302.299 200.72 301.553 199.952C300.827 199.163 300.283 198.235 299.921 197.168C299.579 196.101 299.409 194.949 299.409 193.712ZM310.609 191.888C310.587 191.483 310.513 191.088 310.385 190.704C310.278 190.32 310.097 189.979 309.841 189.68C309.606 189.381 309.297 189.136 308.913 188.944C308.55 188.752 308.091 188.656 307.537 188.656C307.003 188.656 306.545 188.752 306.161 188.944C305.777 189.115 305.457 189.349 305.201 189.648C304.945 189.947 304.742 190.299 304.593 190.704C304.465 191.088 304.369 191.483 304.305 191.888H310.609ZM325.328 198.672C325.798 198.672 326.246 198.661 326.672 198.64C327.099 198.619 327.44 198.587 327.696 198.544V194.928C327.504 194.885 327.216 194.843 326.832 194.8C326.448 194.757 326.096 194.736 325.776 194.736C325.328 194.736 324.902 194.768 324.496 194.832C324.112 194.875 323.771 194.971 323.472 195.12C323.174 195.269 322.939 195.472 322.768 195.728C322.598 195.984 322.512 196.304 322.512 196.688C322.512 197.435 322.758 197.957 323.248 198.256C323.76 198.533 324.454 198.672 325.328 198.672ZM324.944 184.72C326.352 184.72 327.526 184.88 328.464 185.2C329.403 185.52 330.15 185.979 330.704 186.576C331.28 187.173 331.686 187.899 331.92 188.752C332.155 189.605 332.272 190.555 332.272 191.6V201.52C331.59 201.669 330.64 201.84 329.424 202.032C328.208 202.245 326.736 202.352 325.008 202.352C323.92 202.352 322.928 202.256 322.032 202.064C321.158 201.872 320.4 201.563 319.76 201.136C319.12 200.688 318.63 200.112 318.288 199.408C317.947 198.704 317.776 197.84 317.776 196.816C317.776 195.835 317.968 195.003 318.352 194.32C318.758 193.637 319.291 193.093 319.952 192.688C320.614 192.283 321.371 191.995 322.224 191.824C323.078 191.632 323.963 191.536 324.88 191.536C325.499 191.536 326.043 191.568 326.512 191.632C327.003 191.675 327.398 191.739 327.696 191.824V191.376C327.696 190.565 327.451 189.915 326.96 189.424C326.47 188.933 325.616 188.688 324.4 188.688C323.59 188.688 322.79 188.752 322 188.88C321.211 188.987 320.528 189.147 319.952 189.36L319.344 185.52C319.622 185.435 319.963 185.349 320.368 185.264C320.795 185.157 321.254 185.072 321.744 185.008C322.235 184.923 322.747 184.859 323.28 184.816C323.835 184.752 324.39 184.72 324.944 184.72ZM346.728 189.392C346.301 189.285 345.8 189.179 345.224 189.072C344.648 188.944 344.029 188.88 343.368 188.88C343.069 188.88 342.706 188.912 342.28 188.976C341.874 189.019 341.565 189.072 341.352 189.136V202H336.584V186.064C337.437 185.765 338.44 185.488 339.592 185.232C340.765 184.955 342.066 184.816 343.496 184.816C343.752 184.816 344.061 184.837 344.424 184.88C344.786 184.901 345.149 184.944 345.512 185.008C345.874 185.051 346.237 185.115 346.6 185.2C346.962 185.264 347.272 185.349 347.528 185.456L346.728 189.392ZM350.084 185.744C350.894 185.509 351.94 185.296 353.22 185.104C354.5 184.891 355.844 184.784 357.252 184.784C358.681 184.784 359.865 184.976 360.804 185.36C361.764 185.723 362.521 186.245 363.076 186.928C363.63 187.611 364.025 188.421 364.26 189.36C364.494 190.299 364.612 191.344 364.612 192.496V202H359.844V193.072C359.844 191.536 359.641 190.448 359.236 189.808C358.83 189.168 358.073 188.848 356.964 188.848C356.622 188.848 356.26 188.869 355.876 188.912C355.492 188.933 355.15 188.965 354.852 189.008V202H350.084V185.744ZM373.696 202H368.928V185.168H373.696V202ZM374.144 180.304C374.144 181.179 373.856 181.872 373.28 182.384C372.725 182.875 372.064 183.12 371.296 183.12C370.528 183.12 369.856 182.875 369.28 182.384C368.725 181.872 368.448 181.179 368.448 180.304C368.448 179.429 368.725 178.747 369.28 178.256C369.856 177.744 370.528 177.488 371.296 177.488C372.064 177.488 372.725 177.744 373.28 178.256C373.856 178.747 374.144 179.429 374.144 180.304ZM378.178 185.744C378.988 185.509 380.034 185.296 381.314 185.104C382.594 184.891 383.938 184.784 385.345 184.784C386.775 184.784 387.959 184.976 388.898 185.36C389.858 185.723 390.615 186.245 391.17 186.928C391.724 187.611 392.119 188.421 392.354 189.36C392.588 190.299 392.706 191.344 392.706 192.496V202H387.938V193.072C387.938 191.536 387.735 190.448 387.33 189.808C386.924 189.168 386.167 188.848 385.058 188.848C384.716 188.848 384.354 188.869 383.97 188.912C383.586 188.933 383.244 188.965 382.946 189.008V202H378.178V185.744ZM401.085 193.04C401.085 195.707 402.163 197.04 404.317 197.04C404.808 197.04 405.267 196.976 405.693 196.848C406.12 196.72 406.483 196.571 406.781 196.4V188.784C406.547 188.741 406.269 188.709 405.949 188.688C405.629 188.645 405.256 188.624 404.829 188.624C403.571 188.624 402.632 189.04 402.013 189.872C401.395 190.704 401.085 191.76 401.085 193.04ZM411.549 199.888C411.549 202.64 410.845 204.677 409.437 206C408.051 207.344 405.896 208.016 402.973 208.016C401.949 208.016 400.925 207.92 399.901 207.728C398.877 207.557 397.928 207.323 397.053 207.024L397.885 203.024C398.632 203.323 399.411 203.557 400.221 203.728C401.053 203.899 401.992 203.984 403.037 203.984C404.403 203.984 405.363 203.685 405.917 203.088C406.493 202.491 406.781 201.723 406.781 200.784V200.176C406.269 200.411 405.736 200.592 405.181 200.72C404.648 200.827 404.061 200.88 403.421 200.88C401.096 200.88 399.315 200.197 398.077 198.832C396.84 197.445 396.221 195.515 396.221 193.04C396.221 191.803 396.413 190.683 396.797 189.68C397.181 188.656 397.736 187.781 398.461 187.056C399.208 186.331 400.115 185.776 401.181 185.392C402.248 184.987 403.453 184.784 404.797 184.784C405.373 184.784 405.96 184.816 406.557 184.88C407.176 184.923 407.784 184.987 408.381 185.072C408.979 185.157 409.544 185.264 410.077 185.392C410.632 185.499 411.123 185.616 411.549 185.744V199.888Z" fill="url(#paint1_linear_282_119)"/>
</g>
<g filter="url(#filter2_d_282_119)">
<rect x="561" y="98" width="180" height="180" rx="20" fill="white"/>
<path d="M574.375 176.716C575.167 176.716 575.815 176.656 576.319 176.536C576.847 176.392 577.267 176.212 577.579 175.996C577.891 175.756 578.107 175.48 578.227 175.168C578.347 174.856 578.407 174.508 578.407 174.124C578.407 173.308 578.023 172.636 577.255 172.108C576.487 171.556 575.167 170.968 573.295 170.344C572.479 170.056 571.663 169.732 570.847 169.372C570.031 168.988 569.299 168.52 568.651 167.968C568.003 167.392 567.475 166.708 567.067 165.916C566.659 165.1 566.455 164.116 566.455 162.964C566.455 161.812 566.671 160.78 567.103 159.868C567.535 158.932 568.147 158.14 568.939 157.492C569.731 156.844 570.691 156.352 571.819 156.016C572.947 155.656 574.219 155.476 575.635 155.476C577.315 155.476 578.767 155.656 579.991 156.016C581.215 156.376 582.223 156.772 583.015 157.204L581.395 161.632C580.699 161.272 579.919 160.96 579.055 160.696C578.215 160.408 577.195 160.264 575.995 160.264C574.651 160.264 573.679 160.456 573.079 160.84C572.503 161.2 572.215 161.764 572.215 162.532C572.215 162.988 572.323 163.372 572.539 163.684C572.755 163.996 573.055 164.284 573.439 164.548C573.847 164.788 574.303 165.016 574.807 165.232C575.335 165.424 575.911 165.628 576.535 165.844C577.831 166.324 578.959 166.804 579.919 167.284C580.879 167.74 581.671 168.28 582.295 168.904C582.943 169.528 583.423 170.26 583.735 171.1C584.047 171.94 584.203 172.96 584.203 174.16C584.203 176.488 583.387 178.3 581.755 179.596C580.123 180.868 577.663 181.504 574.375 181.504C573.271 181.504 572.275 181.432 571.387 181.288C570.499 181.168 569.707 181.012 569.011 180.82C568.339 180.628 567.751 180.424 567.247 180.208C566.767 179.992 566.359 179.788 566.023 179.596L567.607 175.132C568.351 175.54 569.263 175.912 570.343 176.248C571.447 176.56 572.791 176.716 574.375 176.716ZM587.265 171.676C587.265 169.996 587.517 168.532 588.021 167.284C588.549 166.012 589.233 164.956 590.073 164.116C590.913 163.276 591.873 162.64 592.953 162.208C594.057 161.776 595.185 161.56 596.337 161.56C599.025 161.56 601.149 162.388 602.709 164.044C604.269 165.676 605.049 168.088 605.049 171.28C605.049 171.592 605.037 171.94 605.013 172.324C604.989 172.684 604.965 173.008 604.941 173.296H592.773C592.893 174.4 593.409 175.276 594.321 175.924C595.233 176.572 596.457 176.896 597.993 176.896C598.977 176.896 599.937 176.812 600.873 176.644C601.833 176.452 602.613 176.224 603.213 175.96L603.933 180.316C603.645 180.46 603.261 180.604 602.781 180.748C602.301 180.892 601.761 181.012 601.161 181.108C600.585 181.228 599.961 181.324 599.289 181.396C598.617 181.468 597.945 181.504 597.273 181.504C595.569 181.504 594.081 181.252 592.809 180.748C591.561 180.244 590.517 179.56 589.677 178.696C588.861 177.808 588.249 176.764 587.841 175.564C587.457 174.364 587.265 173.068 587.265 171.676ZM599.865 169.624C599.841 169.168 599.757 168.724 599.613 168.292C599.493 167.86 599.289 167.476 599.001 167.14C598.737 166.804 598.389 166.528 597.957 166.312C597.549 166.096 597.033 165.988 596.409 165.988C595.809 165.988 595.293 166.096 594.861 166.312C594.429 166.504 594.069 166.768 593.781 167.104C593.493 167.44 593.265 167.836 593.097 168.292C592.953 168.724 592.845 169.168 592.773 169.624H599.865ZM620.6 166.816C620.12 166.696 619.556 166.576 618.908 166.456C618.26 166.312 617.564 166.24 616.82 166.24C616.484 166.24 616.076 166.276 615.596 166.348C615.14 166.396 614.792 166.456 614.552 166.528V181H609.188V163.072C610.148 162.736 611.276 162.424 612.572 162.136C613.892 161.824 615.356 161.668 616.964 161.668C617.252 161.668 617.6 161.692 618.008 161.74C618.416 161.764 618.824 161.812 619.232 161.884C619.64 161.932 620.048 162.004 620.456 162.1C620.864 162.172 621.212 162.268 621.5 162.388L620.6 166.816ZM630.648 181C629.424 178.6 628.176 175.792 626.904 172.576C625.656 169.36 624.468 165.856 623.34 162.064H629.028C629.268 163 629.544 164.02 629.856 165.124C630.192 166.204 630.528 167.308 630.864 168.436C631.224 169.54 631.572 170.62 631.908 171.676C632.268 172.732 632.616 173.692 632.952 174.556C633.264 173.692 633.6 172.732 633.96 171.676C634.32 170.62 634.668 169.54 635.004 168.436C635.364 167.308 635.7 166.204 636.012 165.124C636.348 164.02 636.636 163 636.876 162.064H642.42C641.292 165.856 640.092 169.36 638.82 172.576C637.572 175.792 636.336 178.6 635.112 181H630.648ZM650.657 181H645.293V162.064H650.657V181ZM651.161 156.592C651.161 157.576 650.837 158.356 650.189 158.932C649.565 159.484 648.821 159.76 647.957 159.76C647.093 159.76 646.337 159.484 645.689 158.932C645.065 158.356 644.753 157.576 644.753 156.592C644.753 155.608 645.065 154.84 645.689 154.288C646.337 153.712 647.093 153.424 647.957 153.424C648.821 153.424 649.565 153.712 650.189 154.288C650.837 154.84 651.161 155.608 651.161 156.592ZM654.8 171.532C654.8 170.164 655.016 168.88 655.448 167.68C655.904 166.456 656.552 165.4 657.392 164.512C658.232 163.6 659.252 162.88 660.452 162.352C661.652 161.824 663.02 161.56 664.556 161.56C665.564 161.56 666.488 161.656 667.328 161.848C668.168 162.016 668.984 162.268 669.776 162.604L668.66 166.888C668.156 166.696 667.604 166.528 667.004 166.384C666.404 166.24 665.732 166.168 664.988 166.168C663.404 166.168 662.216 166.66 661.424 167.644C660.656 168.628 660.272 169.924 660.272 171.532C660.272 173.236 660.632 174.556 661.352 175.492C662.096 176.428 663.38 176.896 665.204 176.896C665.852 176.896 666.548 176.836 667.292 176.716C668.036 176.596 668.72 176.404 669.344 176.14L670.1 180.532C669.476 180.796 668.696 181.024 667.76 181.216C666.824 181.408 665.792 181.504 664.664 181.504C662.936 181.504 661.448 181.252 660.2 180.748C658.952 180.22 657.92 179.512 657.104 178.624C656.312 177.736 655.724 176.692 655.34 175.492C654.98 174.268 654.8 172.948 654.8 171.532ZM671.886 171.676C671.886 169.996 672.138 168.532 672.642 167.284C673.17 166.012 673.854 164.956 674.694 164.116C675.534 163.276 676.494 162.64 677.574 162.208C678.678 161.776 679.806 161.56 680.958 161.56C683.646 161.56 685.77 162.388 687.33 164.044C688.89 165.676 689.67 168.088 689.67 171.28C689.67 171.592 689.658 171.94 689.634 172.324C689.61 172.684 689.586 173.008 689.562 173.296H677.394C677.514 174.4 678.03 175.276 678.942 175.924C679.854 176.572 681.078 176.896 682.614 176.896C683.598 176.896 684.558 176.812 685.494 176.644C686.454 176.452 687.234 176.224 687.834 175.96L688.554 180.316C688.266 180.46 687.882 180.604 687.402 180.748C686.922 180.892 686.382 181.012 685.782 181.108C685.206 181.228 684.582 181.324 683.91 181.396C683.238 181.468 682.566 181.504 681.894 181.504C680.19 181.504 678.702 181.252 677.43 180.748C676.182 180.244 675.138 179.56 674.298 178.696C673.482 177.808 672.87 176.764 672.462 175.564C672.078 174.364 671.886 173.068 671.886 171.676ZM684.486 169.624C684.462 169.168 684.378 168.724 684.234 168.292C684.114 167.86 683.91 167.476 683.622 167.14C683.358 166.804 683.01 166.528 682.578 166.312C682.17 166.096 681.654 165.988 681.03 165.988C680.43 165.988 679.914 166.096 679.482 166.312C679.05 166.504 678.69 166.768 678.402 167.104C678.114 167.44 677.886 167.836 677.718 168.292C677.574 168.724 677.466 169.168 677.394 169.624H684.486ZM709.694 177.256C710.222 177.256 710.726 177.244 711.206 177.22C711.686 177.196 712.07 177.16 712.358 177.112V173.044C712.142 172.996 711.818 172.948 711.386 172.9C710.954 172.852 710.558 172.828 710.198 172.828C709.694 172.828 709.214 172.864 708.758 172.936C708.326 172.984 707.942 173.092 707.606 173.26C707.27 173.428 707.006 173.656 706.814 173.944C706.622 174.232 706.526 174.592 706.526 175.024C706.526 175.864 706.802 176.452 707.354 176.788C707.93 177.1 708.71 177.256 709.694 177.256ZM709.262 161.56C710.846 161.56 712.166 161.74 713.222 162.1C714.278 162.46 715.118 162.976 715.742 163.648C716.39 164.32 716.846 165.136 717.11 166.096C717.374 167.056 717.506 168.124 717.506 169.3V180.46C716.738 180.628 715.67 180.82 714.302 181.036C712.934 181.276 711.278 181.396 709.334 181.396C708.11 181.396 706.994 181.288 705.986 181.072C705.002 180.856 704.15 180.508 703.43 180.028C702.71 179.524 702.158 178.876 701.774 178.084C701.39 177.292 701.198 176.32 701.198 175.168C701.198 174.064 701.414 173.128 701.846 172.36C702.302 171.592 702.902 170.98 703.646 170.524C704.39 170.068 705.242 169.744 706.202 169.552C707.162 169.336 708.158 169.228 709.189 169.228C709.886 169.228 710.498 169.264 711.026 169.336C711.578 169.384 712.022 169.456 712.358 169.552V169.048C712.358 168.136 712.082 167.404 711.53 166.852C710.978 166.3 710.018 166.024 708.65 166.024C707.738 166.024 706.838 166.096 705.95 166.24C705.062 166.36 704.294 166.54 703.646 166.78L702.962 162.46C703.274 162.364 703.658 162.268 704.114 162.172C704.594 162.052 705.11 161.956 705.662 161.884C706.214 161.788 706.79 161.716 707.39 161.668C708.014 161.596 708.638 161.56 709.262 161.56ZM727.792 177.148C728.776 177.148 729.472 177.052 729.88 176.86C730.288 176.668 730.492 176.296 730.492 175.744C730.492 175.312 730.228 174.94 729.7 174.628C729.172 174.292 728.368 173.92 727.288 173.512C726.448 173.2 725.68 172.876 724.984 172.54C724.312 172.204 723.736 171.808 723.256 171.352C722.776 170.872 722.404 170.308 722.14 169.66C721.876 169.012 721.744 168.232 721.744 167.32C721.744 165.544 722.404 164.14 723.724 163.108C725.044 162.076 726.856 161.56 729.16 161.56C730.312 161.56 731.416 161.668 732.472 161.884C733.528 162.076 734.368 162.292 734.992 162.532L734.056 166.708C733.432 166.492 732.748 166.3 732.004 166.132C731.284 165.964 730.468 165.88 729.556 165.88C727.876 165.88 727.036 166.348 727.036 167.284C727.036 167.5 727.072 167.692 727.144 167.86C727.216 168.028 727.36 168.196 727.576 168.364C727.792 168.508 728.08 168.676 728.44 168.868C728.824 169.036 729.304 169.228 729.88 169.444C731.056 169.876 732.028 170.308 732.796 170.74C733.564 171.148 734.164 171.604 734.596 172.108C735.052 172.588 735.364 173.128 735.532 173.728C735.724 174.328 735.82 175.024 735.82 175.816C735.82 177.688 735.112 179.104 733.696 180.064C732.304 181.024 730.324 181.504 727.756 181.504C726.076 181.504 724.672 181.36 723.544 181.072C722.44 180.784 721.672 180.544 721.24 180.352L722.14 175.996C723.052 176.356 723.988 176.644 724.948 176.86C725.908 177.052 726.856 177.148 727.792 177.148ZM614.07 222C613.806 221.136 613.506 220.248 613.17 219.336C612.858 218.424 612.546 217.512 612.234 216.6H602.514C602.202 217.512 601.878 218.424 601.542 219.336C601.23 220.248 600.942 221.136 600.678 222H594.846C595.782 219.312 596.67 216.828 597.51 214.548C598.35 212.268 599.166 210.12 599.958 208.104C600.774 206.088 601.566 204.18 602.334 202.38C603.126 200.556 603.942 198.78 604.782 197.052H610.146C610.962 198.78 611.766 200.556 612.558 202.38C613.35 204.18 614.142 206.088 614.934 208.104C615.75 210.12 616.578 212.268 617.418 214.548C618.258 216.828 619.146 219.312 620.082 222H614.07ZM607.338 202.704C607.218 203.064 607.038 203.556 606.798 204.18C606.558 204.804 606.282 205.524 605.97 206.34C605.658 207.156 605.31 208.056 604.926 209.04C604.566 210.024 604.194 211.056 603.81 212.136H610.902C610.518 211.056 610.146 210.024 609.786 209.04C609.426 208.056 609.078 207.156 608.742 206.34C608.43 205.524 608.154 204.804 607.914 204.18C607.674 203.556 607.482 203.064 607.338 202.704ZM621.665 212.532C621.665 211.164 621.881 209.88 622.313 208.68C622.769 207.456 623.417 206.4 624.257 205.512C625.097 204.6 626.117 203.88 627.317 203.352C628.517 202.824 629.885 202.56 631.421 202.56C632.429 202.56 633.353 202.656 634.193 202.848C635.033 203.016 635.849 203.268 636.641 203.604L635.525 207.888C635.021 207.696 634.469 207.528 633.869 207.384C633.269 207.24 632.597 207.168 631.853 207.168C630.269 207.168 629.081 207.66 628.289 208.644C627.521 209.628 627.137 210.924 627.137 212.532C627.137 214.236 627.497 215.556 628.217 216.492C628.961 217.428 630.245 217.896 632.069 217.896C632.717 217.896 633.413 217.836 634.157 217.716C634.901 217.596 635.585 217.404 636.209 217.14L636.965 221.532C636.341 221.796 635.561 222.024 634.625 222.216C633.689 222.408 632.657 222.504 631.529 222.504C629.801 222.504 628.313 222.252 627.065 221.748C625.817 221.22 624.785 220.512 623.969 219.624C623.177 218.736 622.589 217.692 622.205 216.492C621.845 215.268 621.665 213.948 621.665 212.532ZM640.385 198.348L645.749 197.484V203.064H652.193V207.528H645.749V214.188C645.749 215.316 645.941 216.216 646.325 216.888C646.733 217.56 647.537 217.896 648.737 217.896C649.313 217.896 649.901 217.848 650.501 217.752C651.125 217.632 651.689 217.476 652.193 217.284L652.949 221.46C652.301 221.724 651.581 221.952 650.789 222.144C649.997 222.336 649.025 222.432 647.873 222.432C646.409 222.432 645.197 222.24 644.237 221.856C643.277 221.448 642.509 220.896 641.933 220.2C641.357 219.48 640.949 218.616 640.709 217.608C640.493 216.6 640.385 215.484 640.385 214.26V198.348ZM661.925 222H656.561V203.064H661.925V222ZM662.429 197.592C662.429 198.576 662.105 199.356 661.457 199.932C660.833 200.484 660.089 200.76 659.225 200.76C658.361 200.76 657.605 200.484 656.957 199.932C656.333 199.356 656.021 198.576 656.021 197.592C656.021 196.608 656.333 195.84 656.957 195.288C657.605 194.712 658.361 194.424 659.225 194.424C660.089 194.424 660.833 194.712 661.457 195.288C662.105 195.84 662.429 196.608 662.429 197.592ZM684.679 212.496C684.679 213.984 684.463 215.352 684.031 216.6C683.599 217.824 682.975 218.88 682.159 219.768C681.343 220.632 680.359 221.304 679.207 221.784C678.079 222.264 676.807 222.504 675.391 222.504C673.999 222.504 672.727 222.264 671.575 221.784C670.447 221.304 669.475 220.632 668.659 219.768C667.843 218.88 667.207 217.824 666.751 216.6C666.295 215.352 666.067 213.984 666.067 212.496C666.067 211.008 666.295 209.652 666.751 208.428C667.231 207.204 667.879 206.16 668.695 205.296C669.535 204.432 670.519 203.76 671.647 203.28C672.799 202.8 674.047 202.56 675.391 202.56C676.759 202.56 678.007 202.8 679.135 203.28C680.287 203.76 681.271 204.432 682.087 205.296C682.903 206.16 683.539 207.204 683.995 208.428C684.451 209.652 684.679 211.008 684.679 212.496ZM679.207 212.496C679.207 210.84 678.871 209.544 678.199 208.608C677.551 207.648 676.615 207.168 675.391 207.168C674.167 207.168 673.219 207.648 672.547 208.608C671.875 209.544 671.539 210.84 671.539 212.496C671.539 214.152 671.875 215.472 672.547 216.456C673.219 217.416 674.167 217.896 675.391 217.896C676.615 217.896 677.551 217.416 678.199 216.456C678.871 215.472 679.207 214.152 679.207 212.496ZM688.834 203.712C689.746 203.448 690.922 203.208 692.362 202.992C693.802 202.752 695.314 202.632 696.898 202.632C698.506 202.632 699.838 202.848 700.894 203.28C701.974 203.688 702.826 204.276 703.45 205.044C704.074 205.812 704.518 206.724 704.782 207.78C705.046 208.836 705.178 210.012 705.178 211.308V222H699.814V211.956C699.814 210.228 699.586 209.004 699.13 208.284C698.674 207.564 697.822 207.204 696.574 207.204C696.19 207.204 695.782 207.228 695.35 207.276C694.918 207.3 694.534 207.336 694.198 207.384V222H688.834V203.712Z" fill="url(#paint2_linear_282_119)"/>
</g>
<g filter="url(#filter3_d_282_119)">
<rect x="411" y="335" width="172" height="171" rx="20" fill="white"/>
<path d="M420.163 414.14H423.283V428H420.163V414.14ZM426.291 417.84C426.797 417.693 427.451 417.56 428.251 417.44C429.051 417.307 429.891 417.24 430.771 417.24C431.664 417.24 432.404 417.36 432.991 417.6C433.591 417.827 434.064 418.153 434.411 418.58C434.757 419.007 435.004 419.513 435.151 420.1C435.297 420.687 435.371 421.34 435.371 422.06V428H432.391V422.42C432.391 421.46 432.264 420.78 432.011 420.38C431.757 419.98 431.284 419.78 430.591 419.78C430.377 419.78 430.151 419.793 429.911 419.82C429.671 419.833 429.457 419.853 429.271 419.88V428H426.291V417.84ZM437.968 414.86L440.948 414.38V417.48H444.528V419.96H440.948V423.66C440.948 424.287 441.055 424.787 441.268 425.16C441.495 425.533 441.941 425.72 442.608 425.72C442.928 425.72 443.255 425.693 443.588 425.64C443.935 425.573 444.248 425.487 444.528 425.38L444.948 427.7C444.588 427.847 444.188 427.973 443.748 428.08C443.308 428.187 442.768 428.24 442.128 428.24C441.315 428.24 440.641 428.133 440.108 427.92C439.575 427.693 439.148 427.387 438.828 427C438.508 426.6 438.281 426.12 438.148 425.56C438.028 425 437.968 424.38 437.968 423.7V414.86ZM446.064 422.82C446.064 421.887 446.204 421.073 446.484 420.38C446.777 419.673 447.157 419.087 447.624 418.62C448.091 418.153 448.624 417.8 449.224 417.56C449.837 417.32 450.464 417.2 451.104 417.2C452.597 417.2 453.777 417.66 454.644 418.58C455.511 419.487 455.944 420.827 455.944 422.6C455.944 422.773 455.937 422.967 455.924 423.18C455.911 423.38 455.897 423.56 455.884 423.72H449.124C449.191 424.333 449.477 424.82 449.984 425.18C450.491 425.54 451.171 425.72 452.024 425.72C452.571 425.72 453.104 425.673 453.624 425.58C454.157 425.473 454.591 425.347 454.924 425.2L455.324 427.62C455.164 427.7 454.951 427.78 454.684 427.86C454.417 427.94 454.117 428.007 453.784 428.06C453.464 428.127 453.117 428.18 452.744 428.22C452.371 428.26 451.997 428.28 451.624 428.28C450.677 428.28 449.851 428.14 449.144 427.86C448.451 427.58 447.871 427.2 447.404 426.72C446.951 426.227 446.611 425.647 446.384 424.98C446.171 424.313 446.064 423.593 446.064 422.82ZM453.064 421.68C453.051 421.427 453.004 421.18 452.924 420.94C452.857 420.7 452.744 420.487 452.584 420.3C452.437 420.113 452.244 419.96 452.004 419.84C451.777 419.72 451.491 419.66 451.144 419.66C450.811 419.66 450.524 419.72 450.284 419.84C450.044 419.947 449.844 420.093 449.684 420.28C449.524 420.467 449.397 420.687 449.304 420.94C449.224 421.18 449.164 421.427 449.124 421.68H453.064ZM464.584 420.12C464.317 420.053 464.004 419.987 463.644 419.92C463.284 419.84 462.897 419.8 462.484 419.8C462.297 419.8 462.07 419.82 461.804 419.86C461.55 419.887 461.357 419.92 461.224 419.96V428H458.244V418.04C458.777 417.853 459.404 417.68 460.124 417.52C460.857 417.347 461.67 417.26 462.564 417.26C462.724 417.26 462.917 417.273 463.144 417.3C463.37 417.313 463.597 417.34 463.824 417.38C464.05 417.407 464.277 417.447 464.504 417.5C464.73 417.54 464.924 417.593 465.084 417.66L464.584 420.12ZM469.026 422.66C469.026 423.58 469.233 424.32 469.646 424.88C470.059 425.44 470.673 425.72 471.486 425.72C471.753 425.72 471.999 425.713 472.226 425.7C472.453 425.673 472.639 425.647 472.786 425.62V420.2C472.599 420.08 472.353 419.98 472.046 419.9C471.753 419.82 471.453 419.78 471.146 419.78C469.733 419.78 469.026 420.74 469.026 422.66ZM475.766 427.66C475.499 427.74 475.193 427.82 474.846 427.9C474.499 427.967 474.133 428.027 473.746 428.08C473.373 428.133 472.986 428.173 472.586 428.2C472.199 428.24 471.826 428.26 471.466 428.26C470.599 428.26 469.826 428.133 469.146 427.88C468.466 427.627 467.893 427.267 467.426 426.8C466.959 426.32 466.599 425.747 466.346 425.08C466.106 424.4 465.986 423.64 465.986 422.8C465.986 421.947 466.093 421.18 466.306 420.5C466.519 419.807 466.826 419.22 467.226 418.74C467.626 418.26 468.113 417.893 468.686 417.64C469.273 417.387 469.939 417.26 470.686 417.26C471.099 417.26 471.466 417.3 471.786 417.38C472.119 417.46 472.453 417.573 472.786 417.72V412.96L475.766 412.48V427.66ZM481.536 428H478.556V417.48H481.536V428ZM481.816 414.44C481.816 414.987 481.636 415.42 481.276 415.74C480.93 416.047 480.516 416.2 480.036 416.2C479.556 416.2 479.136 416.047 478.776 415.74C478.43 415.42 478.256 414.987 478.256 414.44C478.256 413.893 478.43 413.467 478.776 413.16C479.136 412.84 479.556 412.68 480.036 412.68C480.516 412.68 480.93 412.84 481.276 413.16C481.636 413.467 481.816 413.893 481.816 414.44ZM487.358 425.86C487.904 425.86 488.291 425.807 488.518 425.7C488.744 425.593 488.858 425.387 488.858 425.08C488.858 424.84 488.711 424.633 488.418 424.46C488.124 424.273 487.678 424.067 487.078 423.84C486.611 423.667 486.184 423.487 485.798 423.3C485.424 423.113 485.104 422.893 484.838 422.64C484.571 422.373 484.364 422.06 484.218 421.7C484.071 421.34 483.998 420.907 483.998 420.4C483.998 419.413 484.364 418.633 485.098 418.06C485.831 417.487 486.838 417.2 488.118 417.2C488.758 417.2 489.371 417.26 489.958 417.38C490.544 417.487 491.011 417.607 491.358 417.74L490.838 420.06C490.491 419.94 490.111 419.833 489.698 419.74C489.298 419.647 488.844 419.6 488.338 419.6C487.404 419.6 486.938 419.86 486.938 420.38C486.938 420.5 486.958 420.607 486.998 420.7C487.038 420.793 487.118 420.887 487.238 420.98C487.358 421.06 487.518 421.153 487.718 421.26C487.931 421.353 488.198 421.46 488.518 421.58C489.171 421.82 489.711 422.06 490.138 422.3C490.564 422.527 490.898 422.78 491.138 423.06C491.391 423.327 491.564 423.627 491.658 423.96C491.764 424.293 491.818 424.68 491.818 425.12C491.818 426.16 491.424 426.947 490.638 427.48C489.864 428.013 488.764 428.28 487.338 428.28C486.404 428.28 485.624 428.2 484.998 428.04C484.384 427.88 483.958 427.747 483.718 427.64L484.218 425.22C484.724 425.42 485.244 425.58 485.778 425.7C486.311 425.807 486.838 425.86 487.358 425.86ZM493.545 422.74C493.545 421.98 493.665 421.267 493.905 420.6C494.158 419.92 494.518 419.333 494.985 418.84C495.451 418.333 496.018 417.933 496.685 417.64C497.351 417.347 498.111 417.2 498.965 417.2C499.525 417.2 500.038 417.253 500.505 417.36C500.971 417.453 501.425 417.593 501.865 417.78L501.245 420.16C500.965 420.053 500.658 419.96 500.325 419.88C499.991 419.8 499.618 419.76 499.205 419.76C498.325 419.76 497.665 420.033 497.225 420.58C496.798 421.127 496.585 421.847 496.585 422.74C496.585 423.687 496.785 424.42 497.185 424.94C497.598 425.46 498.311 425.72 499.325 425.72C499.685 425.72 500.071 425.687 500.485 425.62C500.898 425.553 501.278 425.447 501.625 425.3L502.045 427.74C501.698 427.887 501.265 428.013 500.745 428.12C500.225 428.227 499.651 428.28 499.025 428.28C498.065 428.28 497.238 428.14 496.545 427.86C495.851 427.567 495.278 427.173 494.825 426.68C494.385 426.187 494.058 425.607 493.845 424.94C493.645 424.26 493.545 423.527 493.545 422.74ZM507.025 428H504.045V417.48H507.025V428ZM507.305 414.44C507.305 414.987 507.125 415.42 506.765 415.74C506.418 416.047 506.005 416.2 505.525 416.2C505.045 416.2 504.625 416.047 504.265 415.74C503.918 415.42 503.745 414.987 503.745 414.44C503.745 413.893 503.918 413.467 504.265 413.16C504.625 412.84 505.045 412.68 505.525 412.68C506.005 412.68 506.418 412.84 506.765 413.16C507.125 413.467 507.305 413.893 507.305 414.44ZM516.566 422.82C516.566 421.9 516.359 421.167 515.946 420.62C515.532 420.06 514.919 419.78 514.106 419.78C513.839 419.78 513.592 419.793 513.366 419.82C513.139 419.833 512.952 419.853 512.806 419.88V425.26C512.992 425.38 513.232 425.48 513.526 425.56C513.832 425.64 514.139 425.68 514.446 425.68C515.859 425.68 516.566 424.727 516.566 422.82ZM519.606 422.74C519.606 423.553 519.506 424.293 519.306 424.96C519.106 425.627 518.812 426.2 518.426 426.68C518.039 427.16 517.559 427.533 516.986 427.8C516.412 428.067 515.752 428.2 515.006 428.2C514.592 428.2 514.206 428.16 513.846 428.08C513.486 428 513.139 427.887 512.806 427.74V431.7H509.826V417.84C510.092 417.76 510.399 417.687 510.746 417.62C511.092 417.54 511.452 417.473 511.826 417.42C512.212 417.367 512.599 417.327 512.986 417.3C513.386 417.26 513.766 417.24 514.126 417.24C514.992 417.24 515.766 417.373 516.446 417.64C517.126 417.893 517.699 418.26 518.166 418.74C518.632 419.207 518.986 419.78 519.226 420.46C519.479 421.14 519.606 421.9 519.606 422.74ZM526.096 428.2C525.229 428.187 524.523 428.093 523.976 427.92C523.443 427.747 523.016 427.507 522.696 427.2C522.389 426.88 522.176 426.5 522.056 426.06C521.949 425.607 521.896 425.1 521.896 424.54V412.96L524.876 412.48V423.94C524.876 424.207 524.896 424.447 524.936 424.66C524.976 424.873 525.049 425.053 525.156 425.2C525.276 425.347 525.443 425.467 525.656 425.56C525.869 425.653 526.156 425.713 526.516 425.74L526.096 428.2ZM531.204 428H528.224V417.48H531.204V428ZM531.484 414.44C531.484 414.987 531.304 415.42 530.944 415.74C530.598 416.047 530.184 416.2 529.704 416.2C529.224 416.2 528.804 416.047 528.444 415.74C528.098 415.42 527.924 414.987 527.924 414.44C527.924 413.893 528.098 413.467 528.444 413.16C528.804 412.84 529.224 412.68 529.704 412.68C530.184 412.68 530.598 412.84 530.944 413.16C531.304 413.467 531.484 413.893 531.484 414.44ZM534.005 417.84C534.512 417.693 535.165 417.56 535.965 417.44C536.765 417.307 537.605 417.24 538.485 417.24C539.379 417.24 540.119 417.36 540.705 417.6C541.305 417.827 541.779 418.153 542.125 418.58C542.472 419.007 542.719 419.513 542.865 420.1C543.012 420.687 543.085 421.34 543.085 422.06V428H540.105V422.42C540.105 421.46 539.979 420.78 539.725 420.38C539.472 419.98 538.999 419.78 538.305 419.78C538.092 419.78 537.865 419.793 537.625 419.82C537.385 419.833 537.172 419.853 536.985 419.88V428H534.005V417.84ZM549.803 425.92C550.096 425.92 550.376 425.913 550.643 425.9C550.909 425.887 551.123 425.867 551.283 425.84V423.58C551.163 423.553 550.983 423.527 550.743 423.5C550.503 423.473 550.283 423.46 550.083 423.46C549.803 423.46 549.536 423.48 549.283 423.52C549.043 423.547 548.829 423.607 548.643 423.7C548.456 423.793 548.309 423.92 548.203 424.08C548.096 424.24 548.043 424.44 548.043 424.68C548.043 425.147 548.196 425.473 548.503 425.66C548.823 425.833 549.256 425.92 549.803 425.92ZM549.563 417.2C550.443 417.2 551.176 417.3 551.763 417.5C552.349 417.7 552.816 417.987 553.163 418.36C553.523 418.733 553.776 419.187 553.923 419.72C554.069 420.253 554.143 420.847 554.143 421.5V427.7C553.716 427.793 553.123 427.9 552.363 428.02C551.603 428.153 550.683 428.22 549.603 428.22C548.923 428.22 548.303 428.16 547.743 428.04C547.196 427.92 546.723 427.727 546.323 427.46C545.923 427.18 545.616 426.82 545.403 426.38C545.189 425.94 545.083 425.4 545.083 424.76C545.083 424.147 545.203 423.627 545.443 423.2C545.696 422.773 546.029 422.433 546.443 422.18C546.856 421.927 547.329 421.747 547.863 421.64C548.396 421.52 548.949 421.46 549.523 421.46C549.909 421.46 550.249 421.48 550.543 421.52C550.849 421.547 551.096 421.587 551.283 421.64V421.36C551.283 420.853 551.129 420.447 550.823 420.14C550.516 419.833 549.983 419.68 549.223 419.68C548.716 419.68 548.216 419.72 547.723 419.8C547.229 419.867 546.803 419.967 546.443 420.1L546.063 417.7C546.236 417.647 546.449 417.593 546.703 417.54C546.969 417.473 547.256 417.42 547.563 417.38C547.869 417.327 548.189 417.287 548.523 417.26C548.869 417.22 549.216 417.2 549.563 417.2ZM563.178 420.12C562.911 420.053 562.598 419.987 562.238 419.92C561.878 419.84 561.491 419.8 561.078 419.8C560.891 419.8 560.664 419.82 560.398 419.86C560.144 419.887 559.951 419.92 559.818 419.96V428H556.838V418.04C557.371 417.853 557.998 417.68 558.718 417.52C559.451 417.347 560.264 417.26 561.158 417.26C561.318 417.26 561.511 417.273 561.738 417.3C561.964 417.313 562.191 417.34 562.418 417.38C562.644 417.407 562.871 417.447 563.098 417.5C563.324 417.54 563.518 417.593 563.678 417.66L563.178 420.12ZM575.24 417.48C574.64 419.507 574.013 421.407 573.36 423.18C572.707 424.953 571.993 426.673 571.22 428.34C570.94 428.94 570.66 429.447 570.38 429.86C570.1 430.287 569.793 430.633 569.46 430.9C569.127 431.18 568.747 431.38 568.32 431.5C567.907 431.633 567.42 431.7 566.86 431.7C566.393 431.7 565.96 431.653 565.56 431.56C565.173 431.48 564.853 431.387 564.6 431.28L565.12 428.9C565.427 429.007 565.7 429.08 565.94 429.12C566.18 429.16 566.433 429.18 566.7 429.18C567.233 429.18 567.64 429.033 567.92 428.74C568.213 428.46 568.46 428.067 568.66 427.56C567.98 426.227 567.3 424.733 566.62 423.08C565.94 421.413 565.3 419.547 564.7 417.48H567.86C567.993 418 568.147 418.567 568.32 419.18C568.507 419.78 568.7 420.393 568.9 421.02C569.1 421.633 569.3 422.233 569.5 422.82C569.713 423.407 569.913 423.94 570.1 424.42C570.273 423.94 570.453 423.407 570.64 422.82C570.827 422.233 571.007 421.633 571.18 421.02C571.367 420.393 571.54 419.78 571.7 419.18C571.873 418.567 572.027 418 572.16 417.48H575.24Z" fill="url(#paint3_linear_282_119)"/>
</g>
<g filter="url(#filter4_d_282_119)">
<rect x="321" y="557" width="140" height="140" rx="20" fill="white"/>
<path d="M345.826 617.596H350.194V637H345.826V617.596ZM354.405 622.776C355.115 622.571 356.029 622.384 357.149 622.216C358.269 622.029 359.445 621.936 360.677 621.936C361.928 621.936 362.964 622.104 363.785 622.44C364.625 622.757 365.288 623.215 365.773 623.812C366.259 624.409 366.604 625.119 366.809 625.94C367.015 626.761 367.117 627.676 367.117 628.684V637H362.945V629.188C362.945 627.844 362.768 626.892 362.413 626.332C362.059 625.772 361.396 625.492 360.425 625.492C360.127 625.492 359.809 625.511 359.473 625.548C359.137 625.567 358.839 625.595 358.577 625.632V637H354.405V622.776ZM374.45 629.748C374.45 632.417 375.439 633.752 377.418 633.752C377.847 633.752 378.267 633.696 378.678 633.584C379.107 633.472 379.452 633.332 379.714 633.164V625.632C379.508 625.595 379.247 625.567 378.93 625.548C378.612 625.511 378.267 625.492 377.894 625.492C376.755 625.492 375.896 625.884 375.318 626.668C374.739 627.433 374.45 628.46 374.45 629.748ZM370.194 629.636C370.194 628.497 370.362 627.461 370.698 626.528C371.052 625.576 371.556 624.764 372.21 624.092C372.863 623.401 373.666 622.869 374.618 622.496C375.57 622.123 376.652 621.936 377.866 621.936C378.37 621.936 378.892 621.964 379.434 622.02C379.994 622.057 380.535 622.113 381.058 622.188C381.599 622.263 382.112 622.356 382.598 622.468C383.083 622.561 383.512 622.664 383.886 622.776V642.18H379.714V636.636C379.247 636.841 378.762 637 378.258 637.112C377.754 637.224 377.212 637.28 376.634 637.28C374.543 637.28 372.947 636.599 371.846 635.236C370.744 633.855 370.194 631.988 370.194 629.636ZM400.364 636.496C399.655 636.701 398.74 636.888 397.62 637.056C396.5 637.243 395.324 637.336 394.092 637.336C392.841 637.336 391.796 637.168 390.956 636.832C390.135 636.496 389.481 636.029 388.996 635.432C388.511 634.816 388.165 634.088 387.96 633.248C387.755 632.408 387.652 631.484 387.652 630.476V622.272H391.824V629.972C391.824 631.316 392.001 632.287 392.356 632.884C392.711 633.481 393.373 633.78 394.344 633.78C394.643 633.78 394.96 633.771 395.296 633.752C395.632 633.715 395.931 633.677 396.192 633.64V622.272H400.364V636.496ZM408.452 637H404.28V622.272H408.452V637ZM408.844 618.016C408.844 618.781 408.592 619.388 408.088 619.836C407.603 620.265 407.024 620.48 406.352 620.48C405.68 620.48 405.092 620.265 404.588 619.836C404.103 619.388 403.86 618.781 403.86 618.016C403.86 617.251 404.103 616.653 404.588 616.224C405.092 615.776 405.68 615.552 406.352 615.552C407.024 615.552 407.603 615.776 408.088 616.224C408.592 616.653 408.844 617.251 408.844 618.016ZM421.25 625.968C420.877 625.875 420.438 625.781 419.934 625.688C419.43 625.576 418.889 625.52 418.31 625.52C418.049 625.52 417.731 625.548 417.358 625.604C417.003 625.641 416.733 625.688 416.546 625.744V637H412.374V623.056C413.121 622.795 413.998 622.552 415.006 622.328C416.033 622.085 417.171 621.964 418.422 621.964C418.646 621.964 418.917 621.983 419.234 622.02C419.551 622.039 419.869 622.076 420.186 622.132C420.503 622.169 420.821 622.225 421.138 622.3C421.455 622.356 421.726 622.431 421.95 622.524L421.25 625.968ZM438.138 622.272C437.298 625.109 436.42 627.769 435.506 630.252C434.591 632.735 433.592 635.143 432.51 637.476C432.118 638.316 431.726 639.025 431.334 639.604C430.942 640.201 430.512 640.687 430.046 641.06C429.579 641.452 429.047 641.732 428.45 641.9C427.871 642.087 427.19 642.18 426.406 642.18C425.752 642.18 425.146 642.115 424.586 641.984C424.044 641.872 423.596 641.741 423.242 641.592L423.97 638.26C424.399 638.409 424.782 638.512 425.118 638.568C425.454 638.624 425.808 638.652 426.182 638.652C426.928 638.652 427.498 638.447 427.89 638.036C428.3 637.644 428.646 637.093 428.926 636.384C427.974 634.517 427.022 632.427 426.07 630.112C425.118 627.779 424.222 625.165 423.382 622.272H427.806C427.992 623 428.207 623.793 428.45 624.652C428.711 625.492 428.982 626.351 429.262 627.228C429.542 628.087 429.822 628.927 430.102 629.748C430.4 630.569 430.68 631.316 430.942 631.988C431.184 631.316 431.436 630.569 431.698 629.748C431.959 628.927 432.211 628.087 432.454 627.228C432.715 626.351 432.958 625.492 433.182 624.652C433.424 623.793 433.639 623 433.826 622.272H438.138Z" fill="url(#paint4_linear_282_119)"/>
</g>
<g filter="url(#filter5_d_282_119)">
<rect x="632" y="461" width="140" height="140" rx="20" fill="white"/>
<path d="M656.596 525.392C653.441 525.392 651.033 524.515 649.372 522.76C647.729 521.005 646.908 518.513 646.908 515.284C646.908 513.679 647.16 512.251 647.664 511C648.168 509.731 648.858 508.667 649.736 507.808C650.613 506.931 651.658 506.268 652.872 505.82C654.085 505.372 655.401 505.148 656.82 505.148C657.641 505.148 658.388 505.213 659.06 505.344C659.732 505.456 660.32 505.596 660.824 505.764C661.328 505.913 661.748 506.072 662.084 506.24C662.42 506.408 662.662 506.539 662.812 506.632L661.552 510.16C660.954 509.843 660.254 509.572 659.452 509.348C658.668 509.124 657.772 509.012 656.764 509.012C656.092 509.012 655.429 509.124 654.776 509.348C654.141 509.572 653.572 509.936 653.068 510.44C652.582 510.925 652.19 511.56 651.892 512.344C651.593 513.128 651.444 514.08 651.444 515.2C651.444 516.096 651.537 516.936 651.724 517.72C651.929 518.485 652.246 519.148 652.676 519.708C653.124 520.268 653.702 520.716 654.412 521.052C655.121 521.369 655.98 521.528 656.988 521.528C657.622 521.528 658.192 521.491 658.696 521.416C659.2 521.341 659.648 521.257 660.04 521.164C660.432 521.052 660.777 520.931 661.076 520.8C661.374 520.669 661.645 520.548 661.888 520.436L663.092 523.936C662.476 524.309 661.608 524.645 660.488 524.944C659.368 525.243 658.07 525.392 656.596 525.392ZM674.5 513.968C674.127 513.875 673.688 513.781 673.184 513.688C672.68 513.576 672.139 513.52 671.56 513.52C671.299 513.52 670.981 513.548 670.608 513.604C670.253 513.641 669.983 513.688 669.796 513.744V525H665.624V511.056C666.371 510.795 667.248 510.552 668.256 510.328C669.283 510.085 670.421 509.964 671.672 509.964C671.896 509.964 672.167 509.983 672.484 510.02C672.801 510.039 673.119 510.076 673.436 510.132C673.753 510.169 674.071 510.225 674.388 510.3C674.705 510.356 674.976 510.431 675.2 510.524L674.5 513.968ZM676.463 517.748C676.463 516.441 676.659 515.303 677.051 514.332C677.462 513.343 677.994 512.521 678.647 511.868C679.3 511.215 680.047 510.72 680.887 510.384C681.746 510.048 682.623 509.88 683.519 509.88C685.61 509.88 687.262 510.524 688.475 511.812C689.688 513.081 690.295 514.957 690.295 517.44C690.295 517.683 690.286 517.953 690.267 518.252C690.248 518.532 690.23 518.784 690.211 519.008H680.747C680.84 519.867 681.242 520.548 681.951 521.052C682.66 521.556 683.612 521.808 684.807 521.808C685.572 521.808 686.319 521.743 687.047 521.612C687.794 521.463 688.4 521.285 688.867 521.08L689.427 524.468C689.203 524.58 688.904 524.692 688.531 524.804C688.158 524.916 687.738 525.009 687.271 525.084C686.823 525.177 686.338 525.252 685.815 525.308C685.292 525.364 684.77 525.392 684.247 525.392C682.922 525.392 681.764 525.196 680.775 524.804C679.804 524.412 678.992 523.88 678.339 523.208C677.704 522.517 677.228 521.705 676.911 520.772C676.612 519.839 676.463 518.831 676.463 517.748ZM686.263 516.152C686.244 515.797 686.179 515.452 686.067 515.116C685.974 514.78 685.815 514.481 685.591 514.22C685.386 513.959 685.115 513.744 684.779 513.576C684.462 513.408 684.06 513.324 683.575 513.324C683.108 513.324 682.707 513.408 682.371 513.576C682.035 513.725 681.755 513.931 681.531 514.192C681.307 514.453 681.13 514.761 680.999 515.116C680.887 515.452 680.803 515.797 680.747 516.152H686.263ZM699.143 522.088C699.553 522.088 699.945 522.079 700.319 522.06C700.692 522.041 700.991 522.013 701.215 521.976V518.812C701.047 518.775 700.795 518.737 700.459 518.7C700.123 518.663 699.815 518.644 699.535 518.644C699.143 518.644 698.769 518.672 698.415 518.728C698.079 518.765 697.78 518.849 697.519 518.98C697.257 519.111 697.052 519.288 696.903 519.512C696.753 519.736 696.679 520.016 696.679 520.352C696.679 521.005 696.893 521.463 697.323 521.724C697.771 521.967 698.377 522.088 699.143 522.088ZM698.807 509.88C700.039 509.88 701.065 510.02 701.887 510.3C702.708 510.58 703.361 510.981 703.847 511.504C704.351 512.027 704.705 512.661 704.911 513.408C705.116 514.155 705.219 514.985 705.219 515.9V524.58C704.621 524.711 703.791 524.86 702.727 525.028C701.663 525.215 700.375 525.308 698.863 525.308C697.911 525.308 697.043 525.224 696.259 525.056C695.493 524.888 694.831 524.617 694.271 524.244C693.711 523.852 693.281 523.348 692.983 522.732C692.684 522.116 692.535 521.36 692.535 520.464C692.535 519.605 692.703 518.877 693.039 518.28C693.393 517.683 693.86 517.207 694.439 516.852C695.017 516.497 695.68 516.245 696.427 516.096C697.173 515.928 697.948 515.844 698.751 515.844C699.292 515.844 699.768 515.872 700.179 515.928C700.608 515.965 700.953 516.021 701.215 516.096V515.704C701.215 514.995 701 514.425 700.571 513.996C700.141 513.567 699.395 513.352 698.331 513.352C697.621 513.352 696.921 513.408 696.231 513.52C695.54 513.613 694.943 513.753 694.439 513.94L693.907 510.58C694.149 510.505 694.448 510.431 694.803 510.356C695.176 510.263 695.577 510.188 696.007 510.132C696.436 510.057 696.884 510.001 697.351 509.964C697.836 509.908 698.321 509.88 698.807 509.88ZM708.851 506.604L713.023 505.932V510.272H718.035V513.744H713.023V518.924C713.023 519.801 713.173 520.501 713.471 521.024C713.789 521.547 714.414 521.808 715.347 521.808C715.795 521.808 716.253 521.771 716.719 521.696C717.205 521.603 717.643 521.481 718.035 521.332L718.623 524.58C718.119 524.785 717.559 524.963 716.943 525.112C716.327 525.261 715.571 525.336 714.675 525.336C713.537 525.336 712.594 525.187 711.847 524.888C711.101 524.571 710.503 524.141 710.055 523.6C709.607 523.04 709.29 522.368 709.103 521.584C708.935 520.8 708.851 519.932 708.851 518.98V506.604ZM725.605 525H721.433V510.272H725.605V525ZM725.997 506.016C725.997 506.781 725.745 507.388 725.241 507.836C724.755 508.265 724.177 508.48 723.505 508.48C722.833 508.48 722.245 508.265 721.741 507.836C721.255 507.388 721.013 506.781 721.013 506.016C721.013 505.251 721.255 504.653 721.741 504.224C722.245 503.776 722.833 503.552 723.505 503.552C724.177 503.552 724.755 503.776 725.241 504.224C725.745 504.653 725.997 505.251 725.997 506.016ZM733.093 525C732.141 523.133 731.17 520.949 730.181 518.448C729.21 515.947 728.286 513.221 727.409 510.272H731.833C732.02 511 732.234 511.793 732.477 512.652C732.738 513.492 733 514.351 733.261 515.228C733.541 516.087 733.812 516.927 734.073 517.748C734.353 518.569 734.624 519.316 734.885 519.988C735.128 519.316 735.389 518.569 735.669 517.748C735.949 516.927 736.22 516.087 736.481 515.228C736.761 514.351 737.022 513.492 737.265 512.652C737.526 511.793 737.75 511 737.937 510.272H742.249C741.372 513.221 740.438 515.947 739.449 518.448C738.478 520.949 737.517 523.133 736.565 525H733.093ZM743.401 517.748C743.401 516.441 743.597 515.303 743.989 514.332C744.399 513.343 744.931 512.521 745.585 511.868C746.238 511.215 746.985 510.72 747.825 510.384C748.683 510.048 749.561 509.88 750.457 509.88C752.547 509.88 754.199 510.524 755.413 511.812C756.626 513.081 757.233 514.957 757.233 517.44C757.233 517.683 757.223 517.953 757.205 518.252C757.186 518.532 757.167 518.784 757.149 519.008H747.685C747.778 519.867 748.179 520.548 748.889 521.052C749.598 521.556 750.55 521.808 751.745 521.808C752.51 521.808 753.257 521.743 753.985 521.612C754.731 521.463 755.338 521.285 755.805 521.08L756.365 524.468C756.141 524.58 755.842 524.692 755.469 524.804C755.095 524.916 754.675 525.009 754.209 525.084C753.761 525.177 753.275 525.252 752.753 525.308C752.23 525.364 751.707 525.392 751.185 525.392C749.859 525.392 748.702 525.196 747.713 524.804C746.742 524.412 745.93 523.88 745.277 523.208C744.642 522.517 744.166 521.705 743.849 520.772C743.55 519.839 743.401 518.831 743.401 517.748ZM753.201 516.152C753.182 515.797 753.117 515.452 753.005 515.116C752.911 514.78 752.753 514.481 752.529 514.22C752.323 513.959 752.053 513.744 751.717 513.576C751.399 513.408 750.998 513.324 750.513 513.324C750.046 513.324 749.645 513.408 749.309 513.576C748.973 513.725 748.693 513.931 748.469 514.192C748.245 514.453 748.067 514.761 747.937 515.116C747.825 515.452 747.741 515.797 747.685 516.152H753.201ZM660.786 537.596V541.32H654.934V557H650.566V541.32H644.714V537.596H660.786ZM663.314 557V535.944L667.486 535.272V542.328C667.766 542.235 668.12 542.151 668.55 542.076C668.998 541.983 669.427 541.936 669.838 541.936C671.032 541.936 672.022 542.104 672.806 542.44C673.608 542.757 674.243 543.215 674.71 543.812C675.195 544.409 675.531 545.119 675.718 545.94C675.923 546.761 676.026 547.676 676.026 548.684V557H671.854V549.188C671.854 547.844 671.676 546.892 671.322 546.332C670.986 545.772 670.351 545.492 669.418 545.492C669.044 545.492 668.69 545.529 668.354 545.604C668.036 545.66 667.747 545.725 667.486 545.8V557H663.314ZM683.974 557H679.802V542.272H683.974V557ZM684.366 538.016C684.366 538.781 684.114 539.388 683.61 539.836C683.124 540.265 682.546 540.48 681.874 540.48C681.202 540.48 680.614 540.265 680.11 539.836C679.624 539.388 679.382 538.781 679.382 538.016C679.382 537.251 679.624 536.653 680.11 536.224C680.614 535.776 681.202 535.552 681.874 535.552C682.546 535.552 683.124 535.776 683.61 536.224C684.114 536.653 684.366 537.251 684.366 538.016ZM687.896 542.776C688.605 542.571 689.52 542.384 690.64 542.216C691.76 542.029 692.936 541.936 694.168 541.936C695.418 541.936 696.454 542.104 697.276 542.44C698.116 542.757 698.778 543.215 699.264 543.812C699.749 544.409 700.094 545.119 700.3 545.94C700.505 546.761 700.608 547.676 700.608 548.684V557H696.436V549.188C696.436 547.844 696.258 546.892 695.904 546.332C695.549 545.772 694.886 545.492 693.916 545.492C693.617 545.492 693.3 545.511 692.964 545.548C692.628 545.567 692.329 545.595 692.068 545.632V557H687.896V542.776ZM708.556 547.592C708.966 547.144 709.386 546.677 709.816 546.192C710.264 545.707 710.693 545.231 711.104 544.764C711.514 544.279 711.897 543.821 712.252 543.392C712.625 542.963 712.942 542.589 713.204 542.272H718.16C717.17 543.411 716.2 544.503 715.248 545.548C714.314 546.575 713.288 547.639 712.168 548.74C712.728 549.244 713.306 549.851 713.904 550.56C714.501 551.251 715.08 551.969 715.64 552.716C716.2 553.463 716.713 554.209 717.18 554.956C717.646 555.703 718.038 556.384 718.356 557H713.568C713.269 556.515 712.924 555.983 712.532 555.404C712.158 554.807 711.757 554.219 711.328 553.64C710.898 553.043 710.441 552.473 709.956 551.932C709.489 551.391 709.022 550.933 708.556 550.56V557H704.384V535.944L708.556 535.272V547.592ZM724.771 557H720.599V542.272H724.771V557ZM725.163 538.016C725.163 538.781 724.911 539.388 724.407 539.836C723.921 540.265 723.343 540.48 722.671 540.48C721.999 540.48 721.411 540.265 720.907 539.836C720.421 539.388 720.179 538.781 720.179 538.016C720.179 537.251 720.421 536.653 720.907 536.224C721.411 535.776 721.999 535.552 722.671 535.552C723.343 535.552 723.921 535.776 724.407 536.224C724.911 536.653 725.163 537.251 725.163 538.016ZM728.692 542.776C729.402 542.571 730.316 542.384 731.436 542.216C732.556 542.029 733.732 541.936 734.964 541.936C736.215 541.936 737.251 542.104 738.072 542.44C738.912 542.757 739.575 543.215 740.06 543.812C740.546 544.409 740.891 545.119 741.096 545.94C741.302 546.761 741.404 547.676 741.404 548.684V557H737.232V549.188C737.232 547.844 737.055 546.892 736.7 546.332C736.346 545.772 735.683 545.492 734.712 545.492C734.414 545.492 734.096 545.511 733.76 545.548C733.424 545.567 733.126 545.595 732.864 545.632V557H728.692V542.776ZM748.737 549.16C748.737 551.493 749.679 552.66 751.565 552.66C751.994 552.66 752.395 552.604 752.769 552.492C753.142 552.38 753.459 552.249 753.721 552.1V545.436C753.515 545.399 753.273 545.371 752.993 545.352C752.713 545.315 752.386 545.296 752.013 545.296C750.911 545.296 750.09 545.66 749.549 546.388C749.007 547.116 748.737 548.04 748.737 549.16ZM757.893 555.152C757.893 557.56 757.277 559.343 756.045 560.5C754.831 561.676 752.946 562.264 750.389 562.264C749.493 562.264 748.597 562.18 747.701 562.012C746.805 561.863 745.974 561.657 745.209 561.396L745.937 557.896C746.59 558.157 747.271 558.363 747.981 558.512C748.709 558.661 749.53 558.736 750.445 558.736C751.639 558.736 752.479 558.475 752.965 557.952C753.469 557.429 753.721 556.757 753.721 555.936V555.404C753.273 555.609 752.806 555.768 752.321 555.88C751.854 555.973 751.341 556.02 750.781 556.02C748.746 556.02 747.187 555.423 746.105 554.228C745.022 553.015 744.481 551.325 744.481 549.16C744.481 548.077 744.649 547.097 744.985 546.22C745.321 545.324 745.806 544.559 746.441 543.924C747.094 543.289 747.887 542.804 748.821 542.468C749.754 542.113 750.809 541.936 751.985 541.936C752.489 541.936 753.002 541.964 753.525 542.02C754.066 542.057 754.598 542.113 755.121 542.188C755.643 542.263 756.138 542.356 756.605 542.468C757.09 542.561 757.519 542.664 757.893 542.776V555.152Z" fill="url(#paint5_linear_282_119)"/>
</g>
<defs>
<filter id="filter0_d_282_119" x="18" y="301" width="260" height="260" filterUnits="userSpaceOnUse" color-interpolation-filters="sRGB">
<feFlood flood-opacity="0" result="BackgroundImageFix"/>
<feColorMatrix in="SourceAlpha" type="matrix" values="0 0 0 0 0 0 0 0 0 0 0 0 0 0 0 0 0 0 127 0" result="hardAlpha"/>
<feOffset/>
<feGaussianBlur stdDeviation="10"/>
<feComposite in2="hardAlpha" operator="out"/>
<feColorMatrix type="matrix" values="0 0 0 0 0 0 0 0 0 0 0 0 0 0 0 0 0 0 0.3 0"/>
<feBlend mode="normal" in2="BackgroundImageFix" result="effect1_dropShadow_282_119"/>
<feBlend mode="normal" in="SourceGraphic" in2="effect1_dropShadow_282_119" result="shape"/>
</filter>
<filter id="filter1_d_282_119" x="211" y="61" width="231" height="222" filterUnits="userSpaceOnUse" color-interpolation-filters="sRGB">
<feFlood flood-opacity="0" result="BackgroundImageFix"/>
<feColorMatrix in="SourceAlpha" type="matrix" values="0 0 0 0 0 0 0 0 0 0 0 0 0 0 0 0 0 0 127 0" result="hardAlpha"/>
<feOffset/>
<feGaussianBlur stdDeviation="10"/>
<feComposite in2="hardAlpha" operator="out"/>
<feColorMatrix type="matrix" values="0 0 0 0 0 0 0 0 0 0 0 0 0 0 0 0 0 0 0.3 0"/>
<feBlend mode="normal" in2="BackgroundImageFix" result="effect1_dropShadow_282_119"/>
<feBlend mode="normal" in="SourceGraphic" in2="effect1_dropShadow_282_119" result="shape"/>
</filter>
<filter id="filter2_d_282_119" x="541" y="78" width="220" height="220" filterUnits="userSpaceOnUse" color-interpolation-filters="sRGB">
<feFlood flood-opacity="0" result="BackgroundImageFix"/>
<feColorMatrix in="SourceAlpha" type="matrix" values="0 0 0 0 0 0 0 0 0 0 0 0 0 0 0 0 0 0 127 0" result="hardAlpha"/>
<feOffset/>
<feGaussianBlur stdDeviation="10"/>
<feComposite in2="hardAlpha" operator="out"/>
<feColorMatrix type="matrix" values="0 0 0 0 0 0 0 0 0 0 0 0 0 0 0 0 0 0 0.3 0"/>
<feBlend mode="normal" in2="BackgroundImageFix" result="effect1_dropShadow_282_119"/>
<feBlend mode="normal" in="SourceGraphic" in2="effect1_dropShadow_282_119" result="shape"/>
</filter>
<filter id="filter3_d_282_119" x="391" y="315" width="212" height="211" filterUnits="userSpaceOnUse" color-interpolation-filters="sRGB">
<feFlood flood-opacity="0" result="BackgroundImageFix"/>
<feColorMatrix in="SourceAlpha" type="matrix" values="0 0 0 0 0 0 0 0 0 0 0 0 0 0 0 0 0 0 127 0" result="hardAlpha"/>
<feOffset/>
<feGaussianBlur stdDeviation="10"/>
<feComposite in2="hardAlpha" operator="out"/>
<feColorMatrix type="matrix" values="0 0 0 0 0 0 0 0 0 0 0 0 0 0 0 0 0 0 0.3 0"/>
<feBlend mode="normal" in2="BackgroundImageFix" result="effect1_dropShadow_282_119"/>
<feBlend mode="normal" in="SourceGraphic" in2="effect1_dropShadow_282_119" result="shape"/>
</filter>
<filter id="filter4_d_282_119" x="301" y="537" width="180" height="180" filterUnits="userSpaceOnUse" color-interpolation-filters="sRGB">
<feFlood flood-opacity="0" result="BackgroundImageFix"/>
<feColorMatrix in="SourceAlpha" type="matrix" values="0 0 0 0 0 0 0 0 0 0 0 0 0 0 0 0 0 0 127 0" result="hardAlpha"/>
<feOffset/>
<feGaussianBlur stdDeviation="10"/>
<feComposite in2="hardAlpha" operator="out"/>
<feColorMatrix type="matrix" values="0 0 0 0 0 0 0 0 0 0 0 0 0 0 0 0 0 0 0.3 0"/>
<feBlend mode="normal" in2="BackgroundImageFix" result="effect1_dropShadow_282_119"/>
<feBlend mode="normal" in="SourceGraphic" in2="effect1_dropShadow_282_119" result="shape"/>
</filter>
<filter id="filter5_d_282_119" x="612" y="441" width="180" height="180" filterUnits="userSpaceOnUse" color-interpolation-filters="sRGB">
<feFlood flood-opacity="0" result="BackgroundImageFix"/>
<feColorMatrix in="SourceAlpha" type="matrix" values="0 0 0 0 0 0 0 0 0 0 0 0 0 0 0 0 0 0 127 0" result="hardAlpha"/>
<feOffset/>
<feGaussianBlur stdDeviation="10"/>
<feComposite in2="hardAlpha" operator="out"/>
<feColorMatrix type="matrix" values="0 0 0 0 0 0 0 0 0 0 0 0 0 0 0 0 0 0 0.3 0"/>
<feBlend mode="normal" in2="BackgroundImageFix" result="effect1_dropShadow_282_119"/>
<feBlend mode="normal" in="SourceGraphic" in2="effect1_dropShadow_282_119" result="shape"/>
</filter>
<linearGradient id="paint0_linear_282_119" x1="212" y1="397.5" x2="80" y2="462.5" gradientUnits="userSpaceOnUse">
<stop stop-color="#FF2339"/>
<stop offset="1" stop-color="#F0A133"/>
</linearGradient>
<linearGradient id="paint1_linear_282_119" x1="382.064" y1="149.464" x2="280.637" y2="213.92" gradientUnits="userSpaceOnUse">
<stop stop-color="#FF2339"/>
<stop offset="1" stop-color="#F0A133"/>
</linearGradient>
<linearGradient id="paint2_linear_282_119" x1="703.364" y1="163.027" x2="599.511" y2="219.156" gradientUnits="userSpaceOnUse">
<stop stop-color="#FF2339"/>
<stop offset="1" stop-color="#F0A133"/>
</linearGradient>
<linearGradient id="paint3_linear_282_119" x1="390.5" y1="421" x2="421.98" y2="522.643" gradientUnits="userSpaceOnUse">
<stop stop-color="#FF2339"/>
<stop offset="1" stop-color="#F0A133"/>
</linearGradient>
<linearGradient id="paint4_linear_282_119" x1="303" y1="607.5" x2="359.448" y2="738.121" gradientUnits="userSpaceOnUse">
<stop stop-color="#FF2339"/>
<stop offset="1" stop-color="#F0A133"/>
</linearGradient>
<linearGradient id="paint5_linear_282_119" x1="610" y1="486" x2="766.095" y2="669.673" gradientUnits="userSpaceOnUse">
<stop stop-color="#FF2339"/>
<stop offset="1" stop-color="#F0A133"/>
</linearGradient>
</defs>
</svg>
