<svg width="998" height="807" viewBox="0 0 998 807" fill="none" xmlns="http://www.w3.org/2000/svg">
<g filter="url(#filter0_d_279_159)">
<rect x="67" y="321" width="220" height="220" rx="20" fill="white"/>
<path d="M131.747 400.08C128.841 400.08 126.734 400.893 125.427 402.52C124.147 404.12 123.507 406.32 123.507 409.12C123.507 410.48 123.667 411.72 123.987 412.84C124.307 413.933 124.787 414.88 125.427 415.68C126.067 416.48 126.867 417.107 127.827 417.56C128.787 417.987 129.907 418.2 131.187 418.2C131.881 418.2 132.467 418.187 132.947 418.16C133.454 418.133 133.894 418.08 134.267 418V408.36H140.507V422.08C139.761 422.373 138.561 422.68 136.907 423C135.254 423.347 133.214 423.52 130.787 423.52C128.707 423.52 126.814 423.2 125.107 422.56C123.427 421.92 121.987 420.987 120.787 419.76C119.587 418.533 118.654 417.027 117.987 415.24C117.347 413.453 117.027 411.413 117.027 409.12C117.027 406.8 117.387 404.747 118.107 402.96C118.827 401.173 119.814 399.667 121.067 398.44C122.321 397.187 123.787 396.24 125.467 395.6C127.174 394.96 128.987 394.64 130.907 394.64C132.214 394.64 133.387 394.733 134.427 394.92C135.494 395.08 136.401 395.28 137.147 395.52C137.921 395.733 138.547 395.96 139.027 396.2C139.534 396.44 139.894 396.627 140.107 396.76L138.307 401.76C137.454 401.307 136.467 400.92 135.347 400.6C134.254 400.253 133.054 400.08 131.747 400.08ZM154.313 423.4C152.58 423.373 151.167 423.187 150.073 422.84C149.007 422.493 148.153 422.013 147.513 421.4C146.9 420.76 146.473 420 146.233 419.12C146.02 418.213 145.913 417.2 145.913 416.08V392.92L151.873 391.96V414.88C151.873 415.413 151.913 415.893 151.993 416.32C152.073 416.747 152.22 417.107 152.433 417.4C152.673 417.693 153.007 417.933 153.433 418.12C153.86 418.307 154.433 418.427 155.153 418.48L154.313 423.4ZM178.25 412.44C178.25 414.093 178.01 415.613 177.53 417C177.05 418.36 176.356 419.533 175.45 420.52C174.543 421.48 173.45 422.227 172.17 422.76C170.916 423.293 169.503 423.56 167.93 423.56C166.383 423.56 164.97 423.293 163.69 422.76C162.436 422.227 161.356 421.48 160.45 420.52C159.543 419.533 158.836 418.36 158.33 417C157.823 415.613 157.57 414.093 157.57 412.44C157.57 410.787 157.823 409.28 158.33 407.92C158.863 406.56 159.583 405.4 160.49 404.44C161.423 403.48 162.516 402.733 163.77 402.2C165.05 401.667 166.436 401.4 167.93 401.4C169.45 401.4 170.836 401.667 172.09 402.2C173.37 402.733 174.463 403.48 175.37 404.44C176.276 405.4 176.983 406.56 177.49 407.92C177.996 409.28 178.25 410.787 178.25 412.44ZM172.17 412.44C172.17 410.6 171.796 409.16 171.05 408.12C170.33 407.053 169.29 406.52 167.93 406.52C166.57 406.52 165.516 407.053 164.77 408.12C164.023 409.16 163.65 410.6 163.65 412.44C163.65 414.28 164.023 415.747 164.77 416.84C165.516 417.907 166.57 418.44 167.93 418.44C169.29 418.44 170.33 417.907 171.05 416.84C171.796 415.747 172.17 414.28 172.17 412.44ZM196.346 412.32C196.346 408.48 194.933 406.56 192.106 406.56C191.493 406.56 190.88 406.64 190.266 406.8C189.68 406.96 189.2 407.16 188.826 407.4V418.24C189.12 418.293 189.493 418.347 189.946 418.4C190.4 418.427 190.893 418.44 191.426 418.44C193.053 418.44 194.28 417.88 195.106 416.76C195.933 415.64 196.346 414.16 196.346 412.32ZM202.426 412.48C202.426 414.16 202.173 415.68 201.666 417.04C201.186 418.4 200.48 419.56 199.546 420.52C198.613 421.48 197.466 422.227 196.106 422.76C194.746 423.267 193.2 423.52 191.466 423.52C190.746 423.52 189.986 423.48 189.186 423.4C188.413 423.347 187.64 423.267 186.866 423.16C186.12 423.053 185.4 422.933 184.706 422.8C184.013 422.64 183.4 422.48 182.866 422.32V392.92L188.826 391.96V402.44C189.493 402.147 190.186 401.92 190.906 401.76C191.626 401.6 192.4 401.52 193.226 401.52C194.72 401.52 196.04 401.787 197.186 402.32C198.333 402.827 199.293 403.56 200.066 404.52C200.84 405.48 201.426 406.64 201.826 408C202.226 409.333 202.426 410.827 202.426 412.48ZM215.047 418.84C215.634 418.84 216.194 418.827 216.727 418.8C217.26 418.773 217.687 418.733 218.007 418.68V414.16C217.767 414.107 217.407 414.053 216.927 414C216.447 413.947 216.007 413.92 215.607 413.92C215.047 413.92 214.514 413.96 214.007 414.04C213.527 414.093 213.1 414.213 212.727 414.4C212.354 414.587 212.06 414.84 211.847 415.16C211.634 415.48 211.527 415.88 211.527 416.36C211.527 417.293 211.834 417.947 212.447 418.32C213.087 418.667 213.954 418.84 215.047 418.84ZM214.567 401.4C216.327 401.4 217.794 401.6 218.967 402C220.14 402.4 221.074 402.973 221.767 403.72C222.487 404.467 222.994 405.373 223.287 406.44C223.58 407.507 223.727 408.693 223.727 410V422.4C222.874 422.587 221.687 422.8 220.167 423.04C218.647 423.307 216.807 423.44 214.647 423.44C213.287 423.44 212.047 423.32 210.927 423.08C209.834 422.84 208.887 422.453 208.087 421.92C207.287 421.36 206.674 420.64 206.247 419.76C205.82 418.88 205.607 417.8 205.607 416.52C205.607 415.293 205.847 414.253 206.327 413.4C206.834 412.547 207.5 411.867 208.327 411.36C209.154 410.853 210.1 410.493 211.167 410.28C212.234 410.04 213.34 409.92 214.487 409.92C215.26 409.92 215.94 409.96 216.527 410.04C217.14 410.093 217.634 410.173 218.007 410.28V409.72C218.007 408.707 217.7 407.893 217.087 407.28C216.474 406.667 215.407 406.36 213.887 406.36C212.874 406.36 211.874 406.44 210.887 406.6C209.9 406.733 209.047 406.933 208.327 407.2L207.567 402.4C207.914 402.293 208.34 402.187 208.847 402.08C209.38 401.947 209.954 401.84 210.567 401.76C211.18 401.653 211.82 401.573 212.487 401.52C213.18 401.44 213.874 401.4 214.567 401.4ZM237.516 423.4C235.783 423.373 234.37 423.187 233.276 422.84C232.21 422.493 231.356 422.013 230.716 421.4C230.103 420.76 229.676 420 229.436 419.12C229.223 418.213 229.116 417.2 229.116 416.08V392.92L235.076 391.96V414.88C235.076 415.413 235.116 415.893 235.196 416.32C235.276 416.747 235.423 417.107 235.636 417.4C235.876 417.693 236.21 417.933 236.636 418.12C237.063 418.307 237.636 418.427 238.356 418.48L237.516 423.4ZM86.922 469.56C82.4154 469.56 78.9754 468.307 76.602 465.8C74.2554 463.293 73.082 459.733 73.082 455.12C73.082 452.827 73.442 450.787 74.162 449C74.882 447.187 75.8687 445.667 77.122 444.44C78.3754 443.187 79.8687 442.24 81.602 441.6C83.3354 440.96 85.2154 440.64 87.242 440.64C88.4154 440.64 89.482 440.733 90.442 440.92C91.402 441.08 92.242 441.28 92.962 441.52C93.682 441.733 94.282 441.96 94.762 442.2C95.242 442.44 95.5887 442.627 95.802 442.76L94.002 447.8C93.1487 447.347 92.1487 446.96 91.002 446.64C89.882 446.32 88.602 446.16 87.162 446.16C86.202 446.16 85.2554 446.32 84.322 446.64C83.4154 446.96 82.602 447.48 81.882 448.2C81.1887 448.893 80.6287 449.8 80.202 450.92C79.7754 452.04 79.562 453.4 79.562 455C79.562 456.28 79.6954 457.48 79.962 458.6C80.2554 459.693 80.7087 460.64 81.322 461.44C81.962 462.24 82.7887 462.88 83.802 463.36C84.8154 463.813 86.042 464.04 87.482 464.04C88.3887 464.04 89.202 463.987 89.922 463.88C90.642 463.773 91.282 463.653 91.842 463.52C92.402 463.36 92.8954 463.187 93.322 463C93.7487 462.813 94.1354 462.64 94.482 462.48L96.202 467.48C95.322 468.013 94.082 468.493 92.482 468.92C90.882 469.347 89.0287 469.56 86.922 469.56ZM105.78 469H99.8195V447.96H105.78V469ZM106.34 441.88C106.34 442.973 105.98 443.84 105.26 444.48C104.566 445.093 103.74 445.4 102.78 445.4C101.82 445.4 100.98 445.093 100.26 444.48C99.5662 443.84 99.2195 442.973 99.2195 441.88C99.2195 440.787 99.5662 439.933 100.26 439.32C100.98 438.68 101.82 438.36 102.78 438.36C103.74 438.36 104.566 438.68 105.26 439.32C105.98 439.933 106.34 440.787 106.34 441.88ZM111.182 442.72L117.142 441.76V447.96H124.302V452.92H117.142V460.32C117.142 461.573 117.355 462.573 117.782 463.32C118.235 464.067 119.129 464.44 120.462 464.44C121.102 464.44 121.755 464.387 122.422 464.28C123.115 464.147 123.742 463.973 124.302 463.76L125.142 468.4C124.422 468.693 123.622 468.947 122.742 469.16C121.862 469.373 120.782 469.48 119.502 469.48C117.875 469.48 116.529 469.267 115.462 468.84C114.395 468.387 113.542 467.773 112.902 467C112.262 466.2 111.809 465.24 111.542 464.12C111.302 463 111.182 461.76 111.182 460.4V442.72ZM135.115 469H129.155V447.96H135.115V469ZM135.675 441.88C135.675 442.973 135.315 443.84 134.595 444.48C133.902 445.093 133.075 445.4 132.115 445.4C131.155 445.4 130.315 445.093 129.595 444.48C128.902 443.84 128.555 442.973 128.555 441.88C128.555 440.787 128.902 439.933 129.595 439.32C130.315 438.68 131.155 438.36 132.115 438.36C133.075 438.36 133.902 438.68 134.595 439.32C135.315 439.933 135.675 440.787 135.675 441.88ZM156.518 451.96C156.038 452.493 155.385 453.213 154.558 454.12C153.758 455.027 152.891 456.027 151.958 457.12C151.025 458.213 150.078 459.36 149.118 460.56C148.185 461.76 147.331 462.92 146.558 464.04H156.718V469H139.318V465.48C139.878 464.52 140.545 463.493 141.318 462.4C142.118 461.28 142.945 460.16 143.798 459.04C144.678 457.92 145.545 456.84 146.398 455.8C147.251 454.733 148.038 453.773 148.758 452.92H139.798V447.96H156.518V451.96ZM159.132 458.64C159.132 456.773 159.412 455.147 159.972 453.76C160.559 452.347 161.319 451.173 162.252 450.24C163.185 449.307 164.252 448.6 165.452 448.12C166.679 447.64 167.932 447.4 169.212 447.4C172.199 447.4 174.559 448.32 176.292 450.16C178.025 451.973 178.892 454.653 178.892 458.2C178.892 458.547 178.879 458.933 178.852 459.36C178.825 459.76 178.799 460.12 178.772 460.44H165.252C165.385 461.667 165.959 462.64 166.972 463.36C167.985 464.08 169.345 464.44 171.052 464.44C172.145 464.44 173.212 464.347 174.252 464.16C175.319 463.947 176.185 463.693 176.852 463.4L177.652 468.24C177.332 468.4 176.905 468.56 176.372 468.72C175.839 468.88 175.239 469.013 174.572 469.12C173.932 469.253 173.239 469.36 172.492 469.44C171.745 469.52 170.999 469.56 170.252 469.56C168.359 469.56 166.705 469.28 165.292 468.72C163.905 468.16 162.745 467.4 161.812 466.44C160.905 465.453 160.225 464.293 159.772 462.96C159.345 461.627 159.132 460.187 159.132 458.64ZM173.132 456.36C173.105 455.853 173.012 455.36 172.852 454.88C172.719 454.4 172.492 453.973 172.172 453.6C171.879 453.227 171.492 452.92 171.012 452.68C170.559 452.44 169.985 452.32 169.292 452.32C168.625 452.32 168.052 452.44 167.572 452.68C167.092 452.893 166.692 453.187 166.372 453.56C166.052 453.933 165.799 454.373 165.612 454.88C165.452 455.36 165.332 455.853 165.252 456.36H173.132ZM183.491 448.68C184.505 448.387 185.811 448.12 187.411 447.88C189.011 447.613 190.691 447.48 192.451 447.48C194.238 447.48 195.718 447.72 196.891 448.2C198.091 448.653 199.038 449.307 199.731 450.16C200.425 451.013 200.918 452.027 201.211 453.2C201.505 454.373 201.651 455.68 201.651 457.12V469H195.691V457.84C195.691 455.92 195.438 454.56 194.931 453.76C194.425 452.96 193.478 452.56 192.091 452.56C191.665 452.56 191.211 452.587 190.731 452.64C190.251 452.667 189.825 452.707 189.451 452.76V469H183.491V448.68ZM213.086 464.72C214.179 464.72 214.953 464.613 215.406 464.4C215.859 464.187 216.086 463.773 216.086 463.16C216.086 462.68 215.793 462.267 215.206 461.92C214.619 461.547 213.726 461.133 212.526 460.68C211.593 460.333 210.739 459.973 209.966 459.6C209.219 459.227 208.579 458.787 208.046 458.28C207.513 457.747 207.099 457.12 206.806 456.4C206.513 455.68 206.366 454.813 206.366 453.8C206.366 451.827 207.099 450.267 208.566 449.12C210.033 447.973 212.046 447.4 214.606 447.4C215.886 447.4 217.113 447.52 218.286 447.76C219.459 447.973 220.393 448.213 221.086 448.48L220.046 453.12C219.353 452.88 218.593 452.667 217.766 452.48C216.966 452.293 216.059 452.2 215.046 452.2C213.179 452.2 212.246 452.72 212.246 453.76C212.246 454 212.286 454.213 212.366 454.4C212.446 454.587 212.606 454.773 212.846 454.96C213.086 455.12 213.406 455.307 213.806 455.52C214.233 455.707 214.766 455.92 215.406 456.16C216.713 456.64 217.793 457.12 218.646 457.6C219.499 458.053 220.166 458.56 220.646 459.12C221.153 459.653 221.499 460.253 221.686 460.92C221.899 461.587 222.006 462.36 222.006 463.24C222.006 465.32 221.219 466.893 219.646 467.96C218.099 469.027 215.899 469.56 213.046 469.56C211.179 469.56 209.619 469.4 208.366 469.08C207.139 468.76 206.286 468.493 205.806 468.28L206.806 463.44C207.819 463.84 208.859 464.16 209.926 464.4C210.993 464.613 212.046 464.72 213.086 464.72ZM226.46 469V438.92L232.42 437.96V448.04C232.82 447.907 233.327 447.787 233.94 447.68C234.58 447.547 235.193 447.48 235.78 447.48C237.487 447.48 238.9 447.72 240.02 448.2C241.167 448.653 242.073 449.307 242.74 450.16C243.433 451.013 243.913 452.027 244.18 453.2C244.473 454.373 244.62 455.68 244.62 457.12V469H238.66V457.84C238.66 455.92 238.407 454.56 237.9 453.76C237.42 452.96 236.513 452.56 235.18 452.56C234.647 452.56 234.14 452.613 233.66 452.72C233.207 452.8 232.793 452.893 232.42 453V469H226.46ZM255.975 469H250.015V447.96H255.975V469ZM256.535 441.88C256.535 442.973 256.175 443.84 255.455 444.48C254.762 445.093 253.935 445.4 252.975 445.4C252.015 445.4 251.175 445.093 250.455 444.48C249.762 443.84 249.415 442.973 249.415 441.88C249.415 440.787 249.762 439.933 250.455 439.32C251.175 438.68 252.015 438.36 252.975 438.36C253.935 438.36 254.762 438.68 255.455 439.32C256.175 439.933 256.535 440.787 256.535 441.88ZM275.057 458.64C275.057 456.8 274.644 455.333 273.817 454.24C272.991 453.12 271.764 452.56 270.137 452.56C269.604 452.56 269.111 452.587 268.657 452.64C268.204 452.667 267.831 452.707 267.537 452.76V463.52C267.911 463.76 268.391 463.96 268.977 464.12C269.591 464.28 270.204 464.36 270.817 464.36C273.644 464.36 275.057 462.453 275.057 458.64ZM281.137 458.48C281.137 460.107 280.937 461.587 280.537 462.92C280.137 464.253 279.551 465.4 278.777 466.36C278.004 467.32 277.044 468.067 275.897 468.6C274.751 469.133 273.431 469.4 271.937 469.4C271.111 469.4 270.337 469.32 269.617 469.16C268.897 469 268.204 468.773 267.537 468.48V476.4H261.577V448.68C262.111 448.52 262.724 448.373 263.417 448.24C264.111 448.08 264.831 447.947 265.577 447.84C266.351 447.733 267.124 447.653 267.897 447.6C268.697 447.52 269.457 447.48 270.177 447.48C271.911 447.48 273.457 447.747 274.817 448.28C276.177 448.787 277.324 449.52 278.257 450.48C279.191 451.413 279.897 452.56 280.377 453.92C280.884 455.28 281.137 456.8 281.137 458.48Z" fill="url(#paint0_linear_279_159)"/>
</g>
<g filter="url(#filter1_d_279_159)">
<rect x="287" y="89" width="191" height="182" rx="20" fill="white"/>
<path d="M315.131 192.976C311.3 192.976 308.376 191.911 306.359 189.78C304.364 187.649 303.367 184.623 303.367 180.702C303.367 178.753 303.673 177.019 304.285 175.5C304.897 173.959 305.736 172.667 306.801 171.624C307.866 170.559 309.136 169.754 310.609 169.21C312.082 168.666 313.68 168.394 315.403 168.394C316.4 168.394 317.307 168.473 318.123 168.632C318.939 168.768 319.653 168.938 320.265 169.142C320.877 169.323 321.387 169.516 321.795 169.72C322.203 169.924 322.498 170.083 322.679 170.196L321.149 174.48C320.424 174.095 319.574 173.766 318.599 173.494C317.647 173.222 316.559 173.086 315.335 173.086C314.519 173.086 313.714 173.222 312.921 173.494C312.15 173.766 311.459 174.208 310.847 174.82C310.258 175.409 309.782 176.18 309.419 177.132C309.056 178.084 308.875 179.24 308.875 180.6C308.875 181.688 308.988 182.708 309.215 183.66C309.464 184.589 309.85 185.394 310.371 186.074C310.915 186.754 311.618 187.298 312.479 187.706C313.34 188.091 314.383 188.284 315.607 188.284C316.378 188.284 317.069 188.239 317.681 188.148C318.293 188.057 318.837 187.955 319.313 187.842C319.789 187.706 320.208 187.559 320.571 187.4C320.934 187.241 321.262 187.094 321.557 186.958L323.019 191.208C322.271 191.661 321.217 192.069 319.857 192.432C318.497 192.795 316.922 192.976 315.131 192.976ZM336.872 179.104C336.419 178.991 335.886 178.877 335.274 178.764C334.662 178.628 334.005 178.56 333.302 178.56C332.985 178.56 332.599 178.594 332.146 178.662C331.715 178.707 331.387 178.764 331.16 178.832V192.5H326.094V175.568C327.001 175.251 328.066 174.956 329.29 174.684C330.537 174.389 331.919 174.242 333.438 174.242C333.71 174.242 334.039 174.265 334.424 174.31C334.809 174.333 335.195 174.378 335.58 174.446C335.965 174.491 336.351 174.559 336.736 174.65C337.121 174.718 337.45 174.809 337.722 174.922L336.872 179.104ZM339.256 183.694C339.256 182.107 339.494 180.725 339.97 179.546C340.468 178.345 341.114 177.347 341.908 176.554C342.701 175.761 343.608 175.16 344.628 174.752C345.67 174.344 346.736 174.14 347.824 174.14C350.362 174.14 352.368 174.922 353.842 176.486C355.315 178.027 356.052 180.305 356.052 183.32C356.052 183.615 356.04 183.943 356.018 184.306C355.995 184.646 355.972 184.952 355.95 185.224H344.458C344.571 186.267 345.058 187.094 345.92 187.706C346.781 188.318 347.937 188.624 349.388 188.624C350.317 188.624 351.224 188.545 352.108 188.386C353.014 188.205 353.751 187.989 354.318 187.74L354.998 191.854C354.726 191.99 354.363 192.126 353.91 192.262C353.456 192.398 352.946 192.511 352.38 192.602C351.836 192.715 351.246 192.806 350.612 192.874C349.977 192.942 349.342 192.976 348.708 192.976C347.098 192.976 345.693 192.738 344.492 192.262C343.313 191.786 342.327 191.14 341.534 190.324C340.763 189.485 340.185 188.499 339.8 187.366C339.437 186.233 339.256 185.009 339.256 183.694ZM351.156 181.756C351.133 181.325 351.054 180.906 350.918 180.498C350.804 180.09 350.612 179.727 350.34 179.41C350.09 179.093 349.762 178.832 349.354 178.628C348.968 178.424 348.481 178.322 347.892 178.322C347.325 178.322 346.838 178.424 346.43 178.628C346.022 178.809 345.682 179.059 345.41 179.376C345.138 179.693 344.922 180.067 344.764 180.498C344.628 180.906 344.526 181.325 344.458 181.756H351.156ZM366.795 188.964C367.294 188.964 367.77 188.953 368.223 188.93C368.676 188.907 369.039 188.873 369.311 188.828V184.986C369.107 184.941 368.801 184.895 368.393 184.85C367.985 184.805 367.611 184.782 367.271 184.782C366.795 184.782 366.342 184.816 365.911 184.884C365.503 184.929 365.14 185.031 364.823 185.19C364.506 185.349 364.256 185.564 364.075 185.836C363.894 186.108 363.803 186.448 363.803 186.856C363.803 187.649 364.064 188.205 364.585 188.522C365.129 188.817 365.866 188.964 366.795 188.964ZM366.387 174.14C367.883 174.14 369.13 174.31 370.127 174.65C371.124 174.99 371.918 175.477 372.507 176.112C373.119 176.747 373.55 177.517 373.799 178.424C374.048 179.331 374.173 180.339 374.173 181.45V191.99C373.448 192.149 372.439 192.33 371.147 192.534C369.855 192.761 368.291 192.874 366.455 192.874C365.299 192.874 364.245 192.772 363.293 192.568C362.364 192.364 361.559 192.035 360.879 191.582C360.199 191.106 359.678 190.494 359.315 189.746C358.952 188.998 358.771 188.08 358.771 186.992C358.771 185.949 358.975 185.065 359.383 184.34C359.814 183.615 360.38 183.037 361.083 182.606C361.786 182.175 362.59 181.869 363.497 181.688C364.404 181.484 365.344 181.382 366.319 181.382C366.976 181.382 367.554 181.416 368.053 181.484C368.574 181.529 368.994 181.597 369.311 181.688V181.212C369.311 180.351 369.05 179.659 368.529 179.138C368.008 178.617 367.101 178.356 365.809 178.356C364.948 178.356 364.098 178.424 363.259 178.56C362.42 178.673 361.695 178.843 361.083 179.07L360.437 174.99C360.732 174.899 361.094 174.809 361.525 174.718C361.978 174.605 362.466 174.514 362.987 174.446C363.508 174.355 364.052 174.287 364.619 174.242C365.208 174.174 365.798 174.14 366.387 174.14ZM378.584 170.162L383.65 169.346V174.616H389.736V178.832H383.65V185.122C383.65 186.187 383.831 187.037 384.194 187.672C384.579 188.307 385.339 188.624 386.472 188.624C387.016 188.624 387.571 188.579 388.138 188.488C388.727 188.375 389.26 188.227 389.736 188.046L390.45 191.99C389.838 192.239 389.158 192.455 388.41 192.636C387.662 192.817 386.744 192.908 385.656 192.908C384.273 192.908 383.129 192.727 382.222 192.364C381.315 191.979 380.59 191.457 380.046 190.8C379.502 190.12 379.117 189.304 378.89 188.352C378.686 187.4 378.584 186.346 378.584 185.19V170.162ZM398.927 192.5H393.861V174.616H398.927V192.5ZM399.403 169.448C399.403 170.377 399.097 171.114 398.485 171.658C397.896 172.179 397.193 172.44 396.377 172.44C395.561 172.44 394.847 172.179 394.235 171.658C393.646 171.114 393.351 170.377 393.351 169.448C393.351 168.519 393.646 167.793 394.235 167.272C394.847 166.728 395.561 166.456 396.377 166.456C397.193 166.456 397.896 166.728 398.485 167.272C399.097 167.793 399.403 168.519 399.403 169.448ZM408.02 192.5C406.864 190.233 405.686 187.581 404.484 184.544C403.306 181.507 402.184 178.197 401.118 174.616H406.49C406.717 175.5 406.978 176.463 407.272 177.506C407.59 178.526 407.907 179.569 408.224 180.634C408.564 181.677 408.893 182.697 409.21 183.694C409.55 184.691 409.879 185.598 410.196 186.414C410.491 185.598 410.808 184.691 411.148 183.694C411.488 182.697 411.817 181.677 412.134 180.634C412.474 179.569 412.792 178.526 413.086 177.506C413.404 176.463 413.676 175.5 413.902 174.616H419.138C418.073 178.197 416.94 181.507 415.738 184.544C414.56 187.581 413.392 190.233 412.236 192.5H408.02ZM426.918 192.5H421.852V174.616H426.918V192.5ZM427.394 169.448C427.394 170.377 427.088 171.114 426.476 171.658C425.886 172.179 425.184 172.44 424.368 172.44C423.552 172.44 422.838 172.179 422.226 171.658C421.636 171.114 421.342 170.377 421.342 169.448C421.342 168.519 421.636 167.793 422.226 167.272C422.838 166.728 423.552 166.456 424.368 166.456C425.184 166.456 425.886 166.728 426.476 167.272C427.088 167.793 427.394 168.519 427.394 169.448ZM431.51 170.162L436.576 169.346V174.616H442.662V178.832H436.576V185.122C436.576 186.187 436.757 187.037 437.12 187.672C437.505 188.307 438.264 188.624 439.398 188.624C439.942 188.624 440.497 188.579 441.064 188.488C441.653 188.375 442.186 188.227 442.662 188.046L443.376 191.99C442.764 192.239 442.084 192.455 441.336 192.636C440.588 192.817 439.67 192.908 438.582 192.908C437.199 192.908 436.054 192.727 435.148 192.364C434.241 191.979 433.516 191.457 432.972 190.8C432.428 190.12 432.042 189.304 431.816 188.352C431.612 187.4 431.51 186.346 431.51 185.19V170.162ZM462.997 174.616C461.977 178.061 460.912 181.291 459.801 184.306C458.691 187.321 457.478 190.245 456.163 193.078C455.687 194.098 455.211 194.959 454.735 195.662C454.259 196.387 453.738 196.977 453.171 197.43C452.605 197.906 451.959 198.246 451.233 198.45C450.531 198.677 449.703 198.79 448.751 198.79C447.958 198.79 447.221 198.711 446.541 198.552C445.884 198.416 445.34 198.257 444.909 198.076L445.793 194.03C446.315 194.211 446.779 194.336 447.187 194.404C447.595 194.472 448.026 194.506 448.479 194.506C449.386 194.506 450.077 194.257 450.553 193.758C451.052 193.282 451.471 192.613 451.811 191.752C450.655 189.485 449.499 186.947 448.343 184.136C447.187 181.303 446.099 178.129 445.079 174.616H450.451C450.678 175.5 450.939 176.463 451.233 177.506C451.551 178.526 451.879 179.569 452.219 180.634C452.559 181.677 452.899 182.697 453.239 183.694C453.602 184.691 453.942 185.598 454.259 186.414C454.554 185.598 454.86 184.691 455.177 183.694C455.495 182.697 455.801 181.677 456.095 180.634C456.413 179.569 456.707 178.526 456.979 177.506C457.274 176.463 457.535 175.5 457.761 174.616H462.997Z" fill="url(#paint1_linear_279_159)"/>
</g>
<g filter="url(#filter2_d_279_159)">
<rect x="574" y="181" width="180" height="180" rx="20" fill="white"/>
<path d="M611.11 263.56C606.603 263.56 603.163 262.307 600.79 259.8C598.443 257.293 597.27 253.733 597.27 249.12C597.27 246.827 597.63 244.787 598.35 243C599.07 241.187 600.056 239.667 601.31 238.44C602.563 237.187 604.056 236.24 605.79 235.6C607.523 234.96 609.403 234.64 611.43 234.64C612.603 234.64 613.67 234.733 614.63 234.92C615.59 235.08 616.43 235.28 617.15 235.52C617.87 235.733 618.47 235.96 618.95 236.2C619.43 236.44 619.776 236.627 619.99 236.76L618.19 241.8C617.336 241.347 616.336 240.96 615.19 240.64C614.07 240.32 612.79 240.16 611.35 240.16C610.39 240.16 609.443 240.32 608.51 240.64C607.603 240.96 606.79 241.48 606.07 242.2C605.376 242.893 604.816 243.8 604.39 244.92C603.963 246.04 603.75 247.4 603.75 249C603.75 250.28 603.883 251.48 604.15 252.6C604.443 253.693 604.896 254.64 605.51 255.44C606.15 256.24 606.976 256.88 607.99 257.36C609.003 257.813 610.23 258.04 611.67 258.04C612.576 258.04 613.39 257.987 614.11 257.88C614.83 257.773 615.47 257.653 616.03 257.52C616.59 257.36 617.083 257.187 617.51 257C617.936 256.813 618.323 256.64 618.67 256.48L620.39 261.48C619.51 262.013 618.27 262.493 616.67 262.92C615.07 263.347 613.216 263.56 611.11 263.56ZM636.687 247.24C636.154 247.107 635.527 246.973 634.807 246.84C634.087 246.68 633.314 246.6 632.487 246.6C632.114 246.6 631.66 246.64 631.127 246.72C630.62 246.773 630.234 246.84 629.967 246.92V263H624.007V243.08C625.074 242.707 626.327 242.36 627.767 242.04C629.234 241.693 630.86 241.52 632.647 241.52C632.967 241.52 633.354 241.547 633.807 241.6C634.26 241.627 634.714 241.68 635.167 241.76C635.62 241.813 636.074 241.893 636.527 242C636.98 242.08 637.367 242.187 637.687 242.32L636.687 247.24ZM646.842 263H640.882V241.96H646.842V263ZM647.402 235.88C647.402 236.973 647.042 237.84 646.322 238.48C645.629 239.093 644.802 239.4 643.842 239.4C642.882 239.4 642.042 239.093 641.322 238.48C640.629 237.84 640.282 236.973 640.282 235.88C640.282 234.787 640.629 233.933 641.322 233.32C642.042 232.68 642.882 232.36 643.842 232.36C644.802 232.36 645.629 232.68 646.322 233.32C647.042 233.933 647.402 234.787 647.402 235.88ZM652.245 236.72L658.205 235.76V241.96H665.365V246.92H658.205V254.32C658.205 255.573 658.418 256.573 658.845 257.32C659.298 258.067 660.191 258.44 661.525 258.44C662.165 258.44 662.818 258.387 663.485 258.28C664.178 258.147 664.805 257.973 665.365 257.76L666.205 262.4C665.485 262.693 664.685 262.947 663.805 263.16C662.925 263.373 661.845 263.48 660.565 263.48C658.938 263.48 657.591 263.267 656.525 262.84C655.458 262.387 654.605 261.773 653.965 261C653.325 260.2 652.871 259.24 652.605 258.12C652.365 257 652.245 255.76 652.245 254.4V236.72ZM676.178 263H670.218V241.96H676.178V263ZM676.738 235.88C676.738 236.973 676.378 237.84 675.658 238.48C674.965 239.093 674.138 239.4 673.178 239.4C672.218 239.4 671.378 239.093 670.658 238.48C669.965 237.84 669.618 236.973 669.618 235.88C669.618 234.787 669.965 233.933 670.658 233.32C671.378 232.68 672.218 232.36 673.178 232.36C674.138 232.36 674.965 232.68 675.658 233.32C676.378 233.933 676.738 234.787 676.738 235.88ZM680.78 252.48C680.78 250.96 681.02 249.533 681.5 248.2C682.007 246.84 682.727 245.667 683.66 244.68C684.594 243.667 685.727 242.867 687.06 242.28C688.394 241.693 689.914 241.4 691.62 241.4C692.74 241.4 693.767 241.507 694.7 241.72C695.634 241.907 696.54 242.187 697.42 242.56L696.18 247.32C695.62 247.107 695.007 246.92 694.34 246.76C693.674 246.6 692.927 246.52 692.1 246.52C690.34 246.52 689.02 247.067 688.14 248.16C687.287 249.253 686.86 250.693 686.86 252.48C686.86 254.373 687.26 255.84 688.06 256.88C688.887 257.92 690.314 258.44 692.34 258.44C693.06 258.44 693.834 258.373 694.66 258.24C695.487 258.107 696.247 257.893 696.94 257.6L697.78 262.48C697.087 262.773 696.22 263.027 695.18 263.24C694.14 263.453 692.994 263.56 691.74 263.56C689.82 263.56 688.167 263.28 686.78 262.72C685.394 262.133 684.247 261.347 683.34 260.36C682.46 259.373 681.807 258.213 681.38 256.88C680.98 255.52 680.78 254.053 680.78 252.48ZM708.805 258.84C709.392 258.84 709.952 258.827 710.485 258.8C711.018 258.773 711.445 258.733 711.765 258.68V254.16C711.525 254.107 711.165 254.053 710.685 254C710.205 253.947 709.765 253.92 709.365 253.92C708.805 253.92 708.272 253.96 707.765 254.04C707.285 254.093 706.858 254.213 706.485 254.4C706.112 254.587 705.818 254.84 705.605 255.16C705.392 255.48 705.285 255.88 705.285 256.36C705.285 257.293 705.592 257.947 706.205 258.32C706.845 258.667 707.712 258.84 708.805 258.84ZM708.325 241.4C710.085 241.4 711.552 241.6 712.725 242C713.898 242.4 714.832 242.973 715.525 243.72C716.245 244.467 716.752 245.373 717.045 246.44C717.338 247.507 717.485 248.693 717.485 250V262.4C716.632 262.587 715.445 262.8 713.925 263.04C712.405 263.307 710.565 263.44 708.405 263.44C707.045 263.44 705.805 263.32 704.685 263.08C703.592 262.84 702.645 262.453 701.845 261.92C701.045 261.36 700.432 260.64 700.005 259.76C699.578 258.88 699.365 257.8 699.365 256.52C699.365 255.293 699.605 254.253 700.085 253.4C700.592 252.547 701.258 251.867 702.085 251.36C702.912 250.853 703.858 250.493 704.925 250.28C705.992 250.04 707.098 249.92 708.245 249.92C709.018 249.92 709.698 249.96 710.285 250.04C710.898 250.093 711.392 250.173 711.765 250.28V249.72C711.765 248.707 711.458 247.893 710.845 247.28C710.232 246.667 709.165 246.36 707.645 246.36C706.632 246.36 705.632 246.44 704.645 246.6C703.658 246.733 702.805 246.933 702.085 247.2L701.325 242.4C701.672 242.293 702.098 242.187 702.605 242.08C703.138 241.947 703.712 241.84 704.325 241.76C704.938 241.653 705.578 241.573 706.245 241.52C706.938 241.44 707.632 241.4 708.325 241.4ZM731.274 263.4C729.541 263.373 728.128 263.187 727.034 262.84C725.968 262.493 725.114 262.013 724.474 261.4C723.861 260.76 723.434 260 723.194 259.12C722.981 258.213 722.874 257.2 722.874 256.08V232.92L728.834 231.96V254.88C728.834 255.413 728.874 255.893 728.954 256.32C729.034 256.747 729.181 257.107 729.394 257.4C729.634 257.693 729.968 257.933 730.394 258.12C730.821 258.307 731.394 258.427 732.114 258.48L731.274 263.4ZM605.123 281.28V286.6H596.763V309H590.523V286.6H582.163V281.28H605.123ZM608.734 309V278.92L614.694 277.96V288.04C615.094 287.907 615.6 287.787 616.214 287.68C616.854 287.547 617.467 287.48 618.054 287.48C619.76 287.48 621.174 287.72 622.294 288.2C623.44 288.653 624.347 289.307 625.014 290.16C625.707 291.013 626.187 292.027 626.454 293.2C626.747 294.373 626.894 295.68 626.894 297.12V309H620.934V297.84C620.934 295.92 620.68 294.56 620.174 293.76C619.694 292.96 618.787 292.56 617.454 292.56C616.92 292.56 616.414 292.613 615.934 292.72C615.48 292.8 615.067 292.893 614.694 293V309H608.734ZM638.248 309H632.288V287.96H638.248V309ZM638.808 281.88C638.808 282.973 638.448 283.84 637.728 284.48C637.035 285.093 636.208 285.4 635.248 285.4C634.288 285.4 633.448 285.093 632.728 284.48C632.035 283.84 631.688 282.973 631.688 281.88C631.688 280.787 632.035 279.933 632.728 279.32C633.448 278.68 634.288 278.36 635.248 278.36C636.208 278.36 637.035 278.68 637.728 279.32C638.448 279.933 638.808 280.787 638.808 281.88ZM643.851 288.68C644.864 288.387 646.171 288.12 647.771 287.88C649.371 287.613 651.051 287.48 652.811 287.48C654.597 287.48 656.077 287.72 657.251 288.2C658.451 288.653 659.397 289.307 660.091 290.16C660.784 291.013 661.277 292.027 661.571 293.2C661.864 294.373 662.011 295.68 662.011 297.12V309H656.051V297.84C656.051 295.92 655.797 294.56 655.291 293.76C654.784 292.96 653.837 292.56 652.451 292.56C652.024 292.56 651.571 292.587 651.091 292.64C650.611 292.667 650.184 292.707 649.811 292.76V309H643.851V288.68ZM673.365 295.56C673.952 294.92 674.552 294.253 675.165 293.56C675.805 292.867 676.419 292.187 677.005 291.52C677.592 290.827 678.139 290.173 678.645 289.56C679.179 288.947 679.632 288.413 680.005 287.96H687.085C685.672 289.587 684.285 291.147 682.925 292.64C681.592 294.107 680.125 295.627 678.525 297.2C679.325 297.92 680.152 298.787 681.005 299.8C681.859 300.787 682.685 301.813 683.485 302.88C684.285 303.947 685.019 305.013 685.685 306.08C686.352 307.147 686.912 308.12 687.365 309H680.525C680.099 308.307 679.605 307.547 679.045 306.72C678.512 305.867 677.939 305.027 677.325 304.2C676.712 303.347 676.059 302.533 675.365 301.76C674.699 300.987 674.032 300.333 673.365 299.8V309H667.405V278.92L673.365 277.96V295.56ZM696.53 309H690.57V287.96H696.53V309ZM697.09 281.88C697.09 282.973 696.73 283.84 696.01 284.48C695.316 285.093 694.49 285.4 693.53 285.4C692.57 285.4 691.73 285.093 691.01 284.48C690.316 283.84 689.97 282.973 689.97 281.88C689.97 280.787 690.316 279.933 691.01 279.32C691.73 278.68 692.57 278.36 693.53 278.36C694.49 278.36 695.316 278.68 696.01 279.32C696.73 279.933 697.09 280.787 697.09 281.88ZM702.132 288.68C703.145 288.387 704.452 288.12 706.052 287.88C707.652 287.613 709.332 287.48 711.092 287.48C712.879 287.48 714.359 287.72 715.532 288.2C716.732 288.653 717.679 289.307 718.372 290.16C719.065 291.013 719.559 292.027 719.852 293.2C720.145 294.373 720.292 295.68 720.292 297.12V309H714.332V297.84C714.332 295.92 714.079 294.56 713.572 293.76C713.065 292.96 712.119 292.56 710.732 292.56C710.305 292.56 709.852 292.587 709.372 292.64C708.892 292.667 708.465 292.707 708.092 292.76V309H702.132V288.68ZM730.767 297.8C730.767 301.133 732.113 302.8 734.807 302.8C735.42 302.8 735.993 302.72 736.527 302.56C737.06 302.4 737.513 302.213 737.887 302V292.48C737.593 292.427 737.247 292.387 736.847 292.36C736.447 292.307 735.98 292.28 735.447 292.28C733.873 292.28 732.7 292.8 731.927 293.84C731.153 294.88 730.767 296.2 730.767 297.8ZM743.847 306.36C743.847 309.8 742.967 312.347 741.207 314C739.473 315.68 736.78 316.52 733.127 316.52C731.847 316.52 730.567 316.4 729.287 316.16C728.007 315.947 726.82 315.653 725.727 315.28L726.767 310.28C727.7 310.653 728.673 310.947 729.687 311.16C730.727 311.373 731.9 311.48 733.207 311.48C734.913 311.48 736.113 311.107 736.807 310.36C737.527 309.613 737.887 308.653 737.887 307.48V306.72C737.247 307.013 736.58 307.24 735.887 307.4C735.22 307.533 734.487 307.6 733.687 307.6C730.78 307.6 728.553 306.747 727.007 305.04C725.46 303.307 724.687 300.893 724.687 297.8C724.687 296.253 724.927 294.853 725.407 293.6C725.887 292.32 726.58 291.227 727.487 290.32C728.42 289.413 729.553 288.72 730.887 288.24C732.22 287.733 733.727 287.48 735.407 287.48C736.127 287.48 736.86 287.52 737.607 287.6C738.38 287.653 739.14 287.733 739.887 287.84C740.633 287.947 741.34 288.08 742.007 288.24C742.7 288.373 743.313 288.52 743.847 288.68V306.36Z" fill="url(#paint2_linear_279_159)"/>
</g>
<g filter="url(#filter3_d_279_159)">
<rect x="372" y="317" width="172" height="171" rx="20" fill="white"/>
<path d="M388.906 411.836C386.202 411.836 384.138 411.084 382.714 409.58C381.306 408.076 380.602 405.94 380.602 403.172C380.602 401.796 380.818 400.572 381.25 399.5C381.682 398.412 382.274 397.5 383.026 396.764C383.778 396.012 384.674 395.444 385.714 395.06C386.754 394.676 387.882 394.484 389.098 394.484C389.802 394.484 390.442 394.54 391.018 394.652C391.594 394.748 392.098 394.868 392.53 395.012C392.962 395.14 393.322 395.276 393.61 395.42C393.898 395.564 394.106 395.676 394.234 395.756L393.154 398.78C392.642 398.508 392.042 398.276 391.354 398.084C390.682 397.892 389.914 397.796 389.05 397.796C388.474 397.796 387.906 397.892 387.346 398.084C386.802 398.276 386.314 398.588 385.882 399.02C385.466 399.436 385.13 399.98 384.874 400.652C384.618 401.324 384.49 402.14 384.49 403.1C384.49 403.868 384.57 404.588 384.73 405.26C384.906 405.916 385.178 406.484 385.546 406.964C385.93 407.444 386.426 407.828 387.034 408.116C387.642 408.388 388.378 408.524 389.242 408.524C389.786 408.524 390.274 408.492 390.706 408.428C391.138 408.364 391.522 408.292 391.858 408.212C392.194 408.116 392.49 408.012 392.746 407.9C393.002 407.788 393.234 407.684 393.442 407.588L394.474 410.588C393.946 410.908 393.202 411.196 392.242 411.452C391.282 411.708 390.17 411.836 388.906 411.836ZM408.172 405.164C408.172 406.156 408.028 407.068 407.74 407.9C407.452 408.716 407.036 409.42 406.492 410.012C405.948 410.588 405.292 411.036 404.524 411.356C403.772 411.676 402.924 411.836 401.98 411.836C401.052 411.836 400.204 411.676 399.436 411.356C398.684 411.036 398.036 410.588 397.492 410.012C396.948 409.42 396.524 408.716 396.22 407.9C395.916 407.068 395.764 406.156 395.764 405.164C395.764 404.172 395.916 403.268 396.22 402.452C396.54 401.636 396.972 400.94 397.516 400.364C398.076 399.788 398.732 399.34 399.484 399.02C400.252 398.7 401.084 398.54 401.98 398.54C402.892 398.54 403.724 398.7 404.476 399.02C405.244 399.34 405.9 399.788 406.444 400.364C406.988 400.94 407.412 401.636 407.716 402.452C408.02 403.268 408.172 404.172 408.172 405.164ZM404.524 405.164C404.524 404.06 404.3 403.196 403.852 402.572C403.42 401.932 402.796 401.612 401.98 401.612C401.164 401.612 400.532 401.932 400.084 402.572C399.636 403.196 399.412 404.06 399.412 405.164C399.412 406.268 399.636 407.148 400.084 407.804C400.532 408.444 401.164 408.764 401.98 408.764C402.796 408.764 403.42 408.444 403.852 407.804C404.3 407.148 404.524 406.268 404.524 405.164ZM415.982 411.74C414.942 411.724 414.094 411.612 413.438 411.404C412.798 411.196 412.286 410.908 411.902 410.54C411.534 410.156 411.278 409.7 411.134 409.172C411.006 408.628 410.942 408.02 410.942 407.348V393.452L414.518 392.876V406.628C414.518 406.948 414.542 407.236 414.59 407.492C414.638 407.748 414.726 407.964 414.854 408.14C414.998 408.316 415.198 408.46 415.454 408.572C415.71 408.684 416.054 408.756 416.486 408.788L415.982 411.74ZM423.575 411.74C422.535 411.724 421.687 411.612 421.031 411.404C420.391 411.196 419.879 410.908 419.495 410.54C419.127 410.156 418.871 409.7 418.727 409.172C418.599 408.628 418.535 408.02 418.535 407.348V393.452L422.111 392.876V406.628C422.111 406.948 422.135 407.236 422.183 407.492C422.231 407.748 422.319 407.964 422.447 408.14C422.591 408.316 422.791 408.46 423.047 408.572C423.303 408.684 423.647 408.756 424.079 408.788L423.575 411.74ZM431.305 409.004C431.657 409.004 431.993 408.996 432.313 408.98C432.633 408.964 432.889 408.94 433.081 408.908V406.196C432.937 406.164 432.721 406.132 432.433 406.1C432.145 406.068 431.881 406.052 431.641 406.052C431.305 406.052 430.985 406.076 430.681 406.124C430.393 406.156 430.137 406.228 429.913 406.34C429.689 406.452 429.513 406.604 429.385 406.796C429.257 406.988 429.193 407.228 429.193 407.516C429.193 408.076 429.377 408.468 429.745 408.692C430.129 408.9 430.649 409.004 431.305 409.004ZM431.017 398.54C432.073 398.54 432.953 398.66 433.657 398.9C434.361 399.14 434.921 399.484 435.337 399.932C435.769 400.38 436.073 400.924 436.249 401.564C436.425 402.204 436.513 402.916 436.513 403.7V411.14C436.001 411.252 435.289 411.38 434.377 411.524C433.465 411.684 432.361 411.764 431.065 411.764C430.249 411.764 429.505 411.692 428.833 411.548C428.177 411.404 427.609 411.172 427.129 410.852C426.649 410.516 426.281 410.084 426.025 409.556C425.769 409.028 425.641 408.38 425.641 407.612C425.641 406.876 425.785 406.252 426.073 405.74C426.377 405.228 426.777 404.82 427.273 404.516C427.769 404.212 428.337 403.996 428.977 403.868C429.617 403.724 430.281 403.652 430.969 403.652C431.433 403.652 431.841 403.676 432.193 403.724C432.561 403.756 432.857 403.804 433.081 403.868V403.532C433.081 402.924 432.897 402.436 432.529 402.068C432.161 401.7 431.521 401.516 430.609 401.516C430.001 401.516 429.401 401.564 428.809 401.66C428.217 401.74 427.705 401.86 427.273 402.02L426.817 399.14C427.025 399.076 427.281 399.012 427.585 398.948C427.905 398.868 428.249 398.804 428.617 398.756C428.985 398.692 429.369 398.644 429.769 398.612C430.185 398.564 430.601 398.54 431.017 398.54ZM447.834 405.092C447.834 402.788 446.986 401.636 445.29 401.636C444.922 401.636 444.554 401.684 444.186 401.78C443.834 401.876 443.546 401.996 443.322 402.14V408.644C443.498 408.676 443.722 408.708 443.994 408.74C444.266 408.756 444.562 408.764 444.882 408.764C445.858 408.764 446.594 408.428 447.09 407.756C447.586 407.084 447.834 406.196 447.834 405.092ZM451.482 405.188C451.482 406.196 451.33 407.108 451.026 407.924C450.738 408.74 450.314 409.436 449.754 410.012C449.194 410.588 448.506 411.036 447.69 411.356C446.874 411.66 445.946 411.812 444.906 411.812C444.474 411.812 444.018 411.788 443.538 411.74C443.074 411.708 442.61 411.66 442.146 411.596C441.698 411.532 441.266 411.46 440.85 411.38C440.434 411.284 440.066 411.188 439.746 411.092V393.452L443.322 392.876V399.164C443.722 398.988 444.138 398.852 444.57 398.756C445.002 398.66 445.466 398.612 445.962 398.612C446.858 398.612 447.65 398.772 448.338 399.092C449.026 399.396 449.602 399.836 450.066 400.412C450.53 400.988 450.882 401.684 451.122 402.5C451.362 403.3 451.482 404.196 451.482 405.188ZM466.039 405.164C466.039 406.156 465.895 407.068 465.607 407.9C465.319 408.716 464.903 409.42 464.359 410.012C463.815 410.588 463.159 411.036 462.391 411.356C461.639 411.676 460.791 411.836 459.847 411.836C458.919 411.836 458.071 411.676 457.303 411.356C456.551 411.036 455.903 410.588 455.359 410.012C454.815 409.42 454.391 408.716 454.087 407.9C453.783 407.068 453.631 406.156 453.631 405.164C453.631 404.172 453.783 403.268 454.087 402.452C454.407 401.636 454.839 400.94 455.383 400.364C455.943 399.788 456.599 399.34 457.351 399.02C458.119 398.7 458.951 398.54 459.847 398.54C460.759 398.54 461.591 398.7 462.343 399.02C463.111 399.34 463.767 399.788 464.311 400.364C464.855 400.94 465.279 401.636 465.583 402.452C465.887 403.268 466.039 404.172 466.039 405.164ZM462.391 405.164C462.391 404.06 462.167 403.196 461.719 402.572C461.287 401.932 460.663 401.612 459.847 401.612C459.031 401.612 458.399 401.932 457.951 402.572C457.503 403.196 457.279 404.06 457.279 405.164C457.279 406.268 457.503 407.148 457.951 407.804C458.399 408.444 459.031 408.764 459.847 408.764C460.663 408.764 461.287 408.444 461.719 407.804C462.167 407.148 462.391 406.268 462.391 405.164ZM476.417 402.044C476.097 401.964 475.721 401.884 475.289 401.804C474.857 401.708 474.393 401.66 473.897 401.66C473.673 401.66 473.401 401.684 473.081 401.732C472.777 401.764 472.545 401.804 472.385 401.852V411.5H468.809V399.548C469.449 399.324 470.201 399.116 471.065 398.924C471.945 398.716 472.921 398.612 473.993 398.612C474.185 398.612 474.417 398.628 474.689 398.66C474.961 398.676 475.233 398.708 475.505 398.756C475.777 398.788 476.049 398.836 476.321 398.9C476.593 398.948 476.825 399.012 477.017 399.092L476.417 402.044ZM483.524 409.004C483.876 409.004 484.212 408.996 484.532 408.98C484.852 408.964 485.108 408.94 485.3 408.908V406.196C485.156 406.164 484.94 406.132 484.652 406.1C484.364 406.068 484.1 406.052 483.86 406.052C483.524 406.052 483.204 406.076 482.9 406.124C482.612 406.156 482.356 406.228 482.132 406.34C481.908 406.452 481.732 406.604 481.604 406.796C481.476 406.988 481.412 407.228 481.412 407.516C481.412 408.076 481.596 408.468 481.964 408.692C482.348 408.9 482.868 409.004 483.524 409.004ZM483.236 398.54C484.292 398.54 485.172 398.66 485.876 398.9C486.58 399.14 487.14 399.484 487.556 399.932C487.988 400.38 488.292 400.924 488.468 401.564C488.644 402.204 488.732 402.916 488.732 403.7V411.14C488.22 411.252 487.508 411.38 486.596 411.524C485.684 411.684 484.58 411.764 483.284 411.764C482.468 411.764 481.724 411.692 481.052 411.548C480.396 411.404 479.828 411.172 479.348 410.852C478.868 410.516 478.5 410.084 478.244 409.556C477.988 409.028 477.86 408.38 477.86 407.612C477.86 406.876 478.004 406.252 478.292 405.74C478.596 405.228 478.996 404.82 479.492 404.516C479.988 404.212 480.556 403.996 481.196 403.868C481.836 403.724 482.5 403.652 483.188 403.652C483.652 403.652 484.06 403.676 484.412 403.724C484.78 403.756 485.076 403.804 485.3 403.868V403.532C485.3 402.924 485.116 402.436 484.748 402.068C484.38 401.7 483.74 401.516 482.828 401.516C482.22 401.516 481.62 401.564 481.028 401.66C480.436 401.74 479.924 401.86 479.492 402.02L479.036 399.14C479.244 399.076 479.5 399.012 479.804 398.948C480.124 398.868 480.468 398.804 480.836 398.756C481.204 398.692 481.588 398.644 481.988 398.612C482.404 398.564 482.82 398.54 483.236 398.54ZM491.845 395.732L495.421 395.156V398.876H499.717V401.852H495.421V406.292C495.421 407.044 495.549 407.644 495.805 408.092C496.077 408.54 496.613 408.764 497.413 408.764C497.797 408.764 498.189 408.732 498.589 408.668C499.005 408.588 499.381 408.484 499.717 408.356L500.221 411.14C499.789 411.316 499.309 411.468 498.781 411.596C498.253 411.724 497.605 411.788 496.837 411.788C495.861 411.788 495.053 411.66 494.413 411.404C493.773 411.132 493.261 410.764 492.877 410.3C492.493 409.82 492.221 409.244 492.061 408.572C491.917 407.9 491.845 407.156 491.845 406.34V395.732ZM506.205 411.5H502.629V398.876H506.205V411.5ZM506.541 395.228C506.541 395.884 506.325 396.404 505.893 396.788C505.477 397.156 504.981 397.34 504.405 397.34C503.829 397.34 503.325 397.156 502.893 396.788C502.477 396.404 502.269 395.884 502.269 395.228C502.269 394.572 502.477 394.06 502.893 393.692C503.325 393.308 503.829 393.116 504.405 393.116C504.981 393.116 505.477 393.308 505.893 393.692C506.325 394.06 506.541 394.572 506.541 395.228ZM521.375 405.164C521.375 406.156 521.231 407.068 520.943 407.9C520.655 408.716 520.239 409.42 519.695 410.012C519.151 410.588 518.495 411.036 517.727 411.356C516.975 411.676 516.127 411.836 515.183 411.836C514.255 411.836 513.407 411.676 512.639 411.356C511.887 411.036 511.239 410.588 510.695 410.012C510.151 409.42 509.727 408.716 509.423 407.9C509.119 407.068 508.967 406.156 508.967 405.164C508.967 404.172 509.119 403.268 509.423 402.452C509.743 401.636 510.175 400.94 510.719 400.364C511.279 399.788 511.935 399.34 512.687 399.02C513.455 398.7 514.287 398.54 515.183 398.54C516.095 398.54 516.927 398.7 517.679 399.02C518.447 399.34 519.103 399.788 519.647 400.364C520.191 400.94 520.615 401.636 520.919 402.452C521.223 403.268 521.375 404.172 521.375 405.164ZM517.727 405.164C517.727 404.06 517.503 403.196 517.055 402.572C516.623 401.932 515.999 401.612 515.183 401.612C514.367 401.612 513.735 401.932 513.287 402.572C512.839 403.196 512.615 404.06 512.615 405.164C512.615 406.268 512.839 407.148 513.287 407.804C513.735 408.444 514.367 408.764 515.183 408.764C515.999 408.764 516.623 408.444 517.055 407.804C517.503 407.148 517.727 406.268 517.727 405.164ZM524.145 399.308C524.753 399.132 525.537 398.972 526.497 398.828C527.457 398.668 528.465 398.588 529.521 398.588C530.593 398.588 531.481 398.732 532.185 399.02C532.905 399.292 533.473 399.684 533.889 400.196C534.305 400.708 534.601 401.316 534.777 402.02C534.953 402.724 535.041 403.508 535.041 404.372V411.5H531.465V404.804C531.465 403.652 531.313 402.836 531.009 402.356C530.705 401.876 530.137 401.636 529.305 401.636C529.049 401.636 528.777 401.652 528.489 401.684C528.201 401.7 527.945 401.724 527.721 401.756V411.5H524.145V399.308Z" fill="url(#paint3_linear_279_159)"/>
</g>
<g filter="url(#filter4_d_279_159)">
<rect x="527" y="511" width="172" height="171" rx="20" fill="white"/>
<path d="M548.028 564.264C551.748 564.264 554.604 564.924 556.596 566.244C558.588 567.54 559.584 569.676 559.584 572.652C559.584 575.652 558.576 577.824 556.56 579.168C554.544 580.488 551.664 581.148 547.92 581.148H546.156V589.5H540.54V564.912C541.764 564.672 543.06 564.504 544.428 564.408C545.796 564.312 546.996 564.264 548.028 564.264ZM548.388 569.052C547.98 569.052 547.572 569.064 547.164 569.088C546.78 569.112 546.444 569.136 546.156 569.16V576.36H547.92C549.864 576.36 551.328 576.096 552.312 575.568C553.296 575.04 553.788 574.056 553.788 572.616C553.788 571.92 553.656 571.344 553.392 570.888C553.152 570.432 552.792 570.072 552.312 569.808C551.856 569.52 551.292 569.328 550.62 569.232C549.948 569.112 549.204 569.052 548.388 569.052ZM561.921 580.176C561.921 578.496 562.173 577.032 562.677 575.784C563.205 574.512 563.889 573.456 564.729 572.616C565.569 571.776 566.529 571.14 567.609 570.708C568.713 570.276 569.841 570.06 570.993 570.06C573.681 570.06 575.805 570.888 577.365 572.544C578.925 574.176 579.705 576.588 579.705 579.78C579.705 580.092 579.693 580.44 579.669 580.824C579.645 581.184 579.621 581.508 579.597 581.796H567.429C567.549 582.9 568.065 583.776 568.977 584.424C569.889 585.072 571.113 585.396 572.649 585.396C573.633 585.396 574.593 585.312 575.529 585.144C576.489 584.952 577.269 584.724 577.869 584.46L578.589 588.816C578.301 588.96 577.917 589.104 577.437 589.248C576.957 589.392 576.417 589.512 575.817 589.608C575.241 589.728 574.617 589.824 573.945 589.896C573.273 589.968 572.601 590.004 571.929 590.004C570.225 590.004 568.737 589.752 567.465 589.248C566.217 588.744 565.173 588.06 564.333 587.196C563.517 586.308 562.905 585.264 562.497 584.064C562.113 582.864 561.921 581.568 561.921 580.176ZM574.521 578.124C574.497 577.668 574.413 577.224 574.269 576.792C574.149 576.36 573.945 575.976 573.657 575.64C573.393 575.304 573.045 575.028 572.613 574.812C572.205 574.596 571.689 574.488 571.065 574.488C570.465 574.488 569.949 574.596 569.517 574.812C569.085 575.004 568.725 575.268 568.437 575.604C568.149 575.94 567.921 576.336 567.753 576.792C567.609 577.224 567.501 577.668 567.429 578.124H574.521ZM595.256 575.316C594.776 575.196 594.212 575.076 593.564 574.956C592.916 574.812 592.22 574.74 591.476 574.74C591.14 574.74 590.732 574.776 590.252 574.848C589.796 574.896 589.448 574.956 589.208 575.028V589.5H583.844V571.572C584.804 571.236 585.932 570.924 587.228 570.636C588.548 570.324 590.012 570.168 591.62 570.168C591.908 570.168 592.256 570.192 592.664 570.24C593.072 570.264 593.48 570.312 593.888 570.384C594.296 570.432 594.704 570.504 595.112 570.6C595.52 570.672 595.868 570.768 596.156 570.888L595.256 575.316ZM604.468 585.648C605.452 585.648 606.148 585.552 606.556 585.36C606.964 585.168 607.168 584.796 607.168 584.244C607.168 583.812 606.904 583.44 606.376 583.128C605.848 582.792 605.044 582.42 603.964 582.012C603.124 581.7 602.356 581.376 601.66 581.04C600.988 580.704 600.412 580.308 599.932 579.852C599.452 579.372 599.08 578.808 598.816 578.16C598.552 577.512 598.42 576.732 598.42 575.82C598.42 574.044 599.08 572.64 600.4 571.608C601.72 570.576 603.532 570.06 605.836 570.06C606.988 570.06 608.092 570.168 609.148 570.384C610.204 570.576 611.044 570.792 611.668 571.032L610.732 575.208C610.108 574.992 609.424 574.8 608.68 574.632C607.96 574.464 607.144 574.38 606.232 574.38C604.552 574.38 603.712 574.848 603.712 575.784C603.712 576 603.748 576.192 603.82 576.36C603.892 576.528 604.036 576.696 604.252 576.864C604.468 577.008 604.756 577.176 605.116 577.368C605.5 577.536 605.98 577.728 606.556 577.944C607.732 578.376 608.704 578.808 609.472 579.24C610.24 579.648 610.84 580.104 611.272 580.608C611.728 581.088 612.04 581.628 612.208 582.228C612.4 582.828 612.496 583.524 612.496 584.316C612.496 586.188 611.788 587.604 610.372 588.564C608.98 589.524 607 590.004 604.432 590.004C602.752 590.004 601.348 589.86 600.22 589.572C599.116 589.284 598.348 589.044 597.916 588.852L598.816 584.496C599.728 584.856 600.664 585.144 601.624 585.36C602.584 585.552 603.532 585.648 604.468 585.648ZM634.216 579.996C634.216 581.484 634 582.852 633.568 584.1C633.136 585.324 632.512 586.38 631.696 587.268C630.88 588.132 629.896 588.804 628.744 589.284C627.616 589.764 626.344 590.004 624.928 590.004C623.536 590.004 622.264 589.764 621.112 589.284C619.984 588.804 619.012 588.132 618.196 587.268C617.38 586.38 616.744 585.324 616.288 584.1C615.832 582.852 615.604 581.484 615.604 579.996C615.604 578.508 615.832 577.152 616.288 575.928C616.768 574.704 617.416 573.66 618.232 572.796C619.072 571.932 620.056 571.26 621.184 570.78C622.336 570.3 623.584 570.06 624.928 570.06C626.296 570.06 627.544 570.3 628.672 570.78C629.824 571.26 630.808 571.932 631.624 572.796C632.44 573.66 633.076 574.704 633.532 575.928C633.988 577.152 634.216 578.508 634.216 579.996ZM628.744 579.996C628.744 578.34 628.408 577.044 627.736 576.108C627.088 575.148 626.152 574.668 624.928 574.668C623.704 574.668 622.756 575.148 622.084 576.108C621.412 577.044 621.076 578.34 621.076 579.996C621.076 581.652 621.412 582.972 622.084 583.956C622.756 584.916 623.704 585.396 624.928 585.396C626.152 585.396 627.088 584.916 627.736 583.956C628.408 582.972 628.744 581.652 628.744 579.996ZM638.372 571.212C639.284 570.948 640.46 570.708 641.9 570.492C643.34 570.252 644.852 570.132 646.436 570.132C648.044 570.132 649.376 570.348 650.432 570.78C651.512 571.188 652.364 571.776 652.988 572.544C653.612 573.312 654.056 574.224 654.32 575.28C654.584 576.336 654.716 577.512 654.716 578.808V589.5H649.352V579.456C649.352 577.728 649.124 576.504 648.668 575.784C648.212 575.064 647.36 574.704 646.112 574.704C645.728 574.704 645.32 574.728 644.888 574.776C644.456 574.8 644.072 574.836 643.736 574.884V589.5H638.372V571.212ZM666.807 585.756C667.335 585.756 667.839 585.744 668.319 585.72C668.799 585.696 669.183 585.66 669.471 585.612V581.544C669.255 581.496 668.931 581.448 668.499 581.4C668.067 581.352 667.671 581.328 667.311 581.328C666.807 581.328 666.327 581.364 665.871 581.436C665.439 581.484 665.055 581.592 664.719 581.76C664.383 581.928 664.119 582.156 663.927 582.444C663.735 582.732 663.639 583.092 663.639 583.524C663.639 584.364 663.915 584.952 664.467 585.288C665.043 585.6 665.823 585.756 666.807 585.756ZM666.375 570.06C667.959 570.06 669.279 570.24 670.335 570.6C671.391 570.96 672.231 571.476 672.855 572.148C673.503 572.82 673.959 573.636 674.223 574.596C674.487 575.556 674.619 576.624 674.619 577.8V588.96C673.851 589.128 672.783 589.32 671.415 589.536C670.047 589.776 668.391 589.896 666.447 589.896C665.223 589.896 664.107 589.788 663.099 589.572C662.115 589.356 661.263 589.008 660.543 588.528C659.823 588.024 659.271 587.376 658.887 586.584C658.503 585.792 658.311 584.82 658.311 583.668C658.311 582.564 658.527 581.628 658.959 580.86C659.415 580.092 660.015 579.48 660.759 579.024C661.503 578.568 662.355 578.244 663.315 578.052C664.275 577.836 665.271 577.728 666.303 577.728C666.999 577.728 667.611 577.764 668.139 577.836C668.691 577.884 669.135 577.956 669.471 578.052V577.548C669.471 576.636 669.195 575.904 668.643 575.352C668.091 574.8 667.131 574.524 665.763 574.524C664.851 574.524 663.951 574.596 663.063 574.74C662.175 574.86 661.407 575.04 660.759 575.28L660.075 570.96C660.387 570.864 660.771 570.768 661.227 570.672C661.707 570.552 662.223 570.456 662.775 570.384C663.327 570.288 663.903 570.216 664.503 570.168C665.127 570.096 665.751 570.06 666.375 570.06ZM687.029 589.86C685.469 589.836 684.197 589.668 683.213 589.356C682.253 589.044 681.485 588.612 680.909 588.06C680.357 587.484 679.973 586.8 679.757 586.008C679.565 585.192 679.469 584.28 679.469 583.272V562.428L684.833 561.564V582.192C684.833 582.672 684.869 583.104 684.941 583.488C685.013 583.872 685.145 584.196 685.337 584.46C685.553 584.724 685.853 584.94 686.237 585.108C686.621 585.276 687.137 585.384 687.785 585.432L687.029 589.86ZM564.556 609.872C561.94 609.872 560.044 610.604 558.868 612.068C557.716 613.508 557.14 615.488 557.14 618.008C557.14 619.232 557.284 620.348 557.572 621.356C557.86 622.34 558.292 623.192 558.868 623.912C559.444 624.632 560.164 625.196 561.028 625.604C561.892 625.988 562.9 626.18 564.052 626.18C564.676 626.18 565.204 626.168 565.636 626.144C566.092 626.12 566.488 626.072 566.824 626V617.324H572.44V629.672C571.768 629.936 570.688 630.212 569.2 630.5C567.712 630.812 565.876 630.968 563.692 630.968C561.82 630.968 560.116 630.68 558.58 630.104C557.068 629.528 555.772 628.688 554.692 627.584C553.612 626.48 552.772 625.124 552.172 623.516C551.596 621.908 551.308 620.072 551.308 618.008C551.308 615.92 551.632 614.072 552.28 612.464C552.928 610.856 553.816 609.5 554.944 608.396C556.072 607.268 557.392 606.416 558.904 605.84C560.44 605.264 562.072 604.976 563.8 604.976C564.976 604.976 566.032 605.06 566.968 605.228C567.928 605.372 568.744 605.552 569.416 605.768C570.112 605.96 570.676 606.164 571.108 606.38C571.564 606.596 571.888 606.764 572.08 606.884L570.46 611.384C569.692 610.976 568.804 610.628 567.796 610.34C566.812 610.028 565.732 609.872 564.556 609.872ZM588.717 616.316C588.237 616.196 587.673 616.076 587.025 615.956C586.377 615.812 585.681 615.74 584.937 615.74C584.601 615.74 584.193 615.776 583.713 615.848C583.257 615.896 582.909 615.956 582.669 616.028V630.5H577.305V612.572C578.265 612.236 579.393 611.924 580.689 611.636C582.009 611.324 583.473 611.168 585.081 611.168C585.369 611.168 585.717 611.192 586.125 611.24C586.533 611.264 586.941 611.312 587.349 611.384C587.757 611.432 588.165 611.504 588.573 611.6C588.981 611.672 589.329 611.768 589.617 611.888L588.717 616.316ZM609.853 620.996C609.853 622.484 609.637 623.852 609.205 625.1C608.773 626.324 608.149 627.38 607.333 628.268C606.517 629.132 605.533 629.804 604.381 630.284C603.253 630.764 601.981 631.004 600.565 631.004C599.173 631.004 597.901 630.764 596.749 630.284C595.621 629.804 594.649 629.132 593.833 628.268C593.017 627.38 592.381 626.324 591.925 625.1C591.469 623.852 591.241 622.484 591.241 620.996C591.241 619.508 591.469 618.152 591.925 616.928C592.405 615.704 593.053 614.66 593.869 613.796C594.709 612.932 595.693 612.26 596.821 611.78C597.973 611.3 599.221 611.06 600.565 611.06C601.933 611.06 603.181 611.3 604.309 611.78C605.461 612.26 606.445 612.932 607.261 613.796C608.077 614.66 608.713 615.704 609.169 616.928C609.625 618.152 609.853 619.508 609.853 620.996ZM604.381 620.996C604.381 619.34 604.045 618.044 603.373 617.108C602.725 616.148 601.789 615.668 600.565 615.668C599.341 615.668 598.393 616.148 597.721 617.108C597.049 618.044 596.713 619.34 596.713 620.996C596.713 622.652 597.049 623.972 597.721 624.956C598.393 625.916 599.341 626.396 600.565 626.396C601.789 626.396 602.725 625.916 603.373 624.956C604.045 623.972 604.381 622.652 604.381 620.996ZM625.106 619.628C624.626 621.452 624.11 623.264 623.558 625.064C623.03 626.864 622.466 628.676 621.866 630.5H617.69C617.258 629.492 616.79 628.292 616.286 626.9C615.782 625.508 615.254 623.996 614.702 622.364C614.174 620.708 613.622 618.968 613.046 617.144C612.494 615.296 611.954 613.436 611.426 611.564H617.078C617.27 612.428 617.474 613.376 617.69 614.408C617.93 615.416 618.17 616.46 618.41 617.54C618.674 618.62 618.938 619.712 619.202 620.816C619.49 621.896 619.778 622.94 620.066 623.948C620.378 622.892 620.678 621.812 620.966 620.708C621.278 619.604 621.566 618.524 621.83 617.468C622.118 616.388 622.382 615.356 622.622 614.372C622.886 613.364 623.114 612.428 623.306 611.564H627.194C627.386 612.428 627.602 613.364 627.842 614.372C628.082 615.356 628.334 616.388 628.598 617.468C628.862 618.524 629.138 619.604 629.426 620.708C629.714 621.812 630.014 622.892 630.326 623.948C630.614 622.94 630.902 621.896 631.19 620.816C631.478 619.712 631.742 618.62 631.982 617.54C632.246 616.46 632.486 615.416 632.702 614.408C632.942 613.376 633.158 612.428 633.35 611.564H638.93C638.402 613.436 637.85 615.296 637.274 617.144C636.722 618.968 636.17 620.708 635.618 622.364C635.09 623.996 634.562 625.508 634.034 626.9C633.53 628.292 633.062 629.492 632.63 630.5H628.454C627.854 628.676 627.266 626.864 626.69 625.064C626.114 623.264 625.586 621.452 625.106 619.628ZM641.637 606.848L647.001 605.984V611.564H653.445V616.028H647.001V622.688C647.001 623.816 647.193 624.716 647.577 625.388C647.985 626.06 648.789 626.396 649.989 626.396C650.565 626.396 651.153 626.348 651.753 626.252C652.377 626.132 652.941 625.976 653.445 625.784L654.201 629.96C653.553 630.224 652.833 630.452 652.041 630.644C651.249 630.836 650.277 630.932 649.125 630.932C647.661 630.932 646.449 630.74 645.489 630.356C644.529 629.948 643.761 629.396 643.185 628.7C642.609 627.98 642.201 627.116 641.961 626.108C641.745 625.1 641.637 623.984 641.637 622.76V606.848ZM657.813 630.5V603.428L663.177 602.564V611.636C663.537 611.516 663.993 611.408 664.545 611.312C665.121 611.192 665.673 611.132 666.201 611.132C667.737 611.132 669.009 611.348 670.017 611.78C671.049 612.188 671.865 612.776 672.465 613.544C673.089 614.312 673.521 615.224 673.761 616.28C674.025 617.336 674.157 618.512 674.157 619.808V630.5H668.793V620.456C668.793 618.728 668.565 617.504 668.109 616.784C667.677 616.064 666.861 615.704 665.661 615.704C665.181 615.704 664.725 615.752 664.293 615.848C663.885 615.92 663.513 616.004 663.177 616.1V630.5H657.813Z" fill="url(#paint4_linear_279_159)"/>
</g>
<g filter="url(#filter5_d_279_159)">
<rect x="287" y="568" width="140" height="140" rx="20" fill="white"/>
<path d="M290.17 629.789H294.382V648.5H290.17V629.789ZM298.443 634.784C299.127 634.586 300.009 634.406 301.089 634.244C302.169 634.064 303.303 633.974 304.491 633.974C305.697 633.974 306.696 634.136 307.488 634.46C308.298 634.766 308.937 635.207 309.405 635.783C309.873 636.359 310.206 637.043 310.404 637.835C310.602 638.627 310.701 639.509 310.701 640.481V648.5H306.678V640.967C306.678 639.671 306.507 638.753 306.165 638.213C305.823 637.673 305.184 637.403 304.248 637.403C303.96 637.403 303.654 637.421 303.33 637.457C303.006 637.475 302.718 637.502 302.466 637.538V648.5H298.443V634.784ZM314.343 634.784C315.027 634.586 315.909 634.406 316.989 634.244C318.069 634.064 319.203 633.974 320.391 633.974C321.597 633.974 322.596 634.136 323.388 634.46C324.198 634.766 324.837 635.207 325.305 635.783C325.773 636.359 326.106 637.043 326.304 637.835C326.502 638.627 326.601 639.509 326.601 640.481V648.5H322.578V640.967C322.578 639.671 322.407 638.753 322.065 638.213C321.723 637.673 321.084 637.403 320.148 637.403C319.86 637.403 319.554 637.421 319.23 637.457C318.906 637.475 318.618 637.502 318.366 637.538V648.5H314.343V634.784ZM343.526 641.372C343.526 642.488 343.364 643.514 343.04 644.45C342.716 645.368 342.248 646.16 341.636 646.826C341.024 647.474 340.286 647.978 339.422 648.338C338.576 648.698 337.622 648.878 336.56 648.878C335.516 648.878 334.562 648.698 333.698 648.338C332.852 647.978 332.123 647.474 331.511 646.826C330.899 646.16 330.422 645.368 330.08 644.45C329.738 643.514 329.567 642.488 329.567 641.372C329.567 640.256 329.738 639.239 330.08 638.321C330.44 637.403 330.926 636.62 331.538 635.972C332.168 635.324 332.906 634.82 333.752 634.46C334.616 634.1 335.552 633.92 336.56 633.92C337.586 633.92 338.522 634.1 339.368 634.46C340.232 634.82 340.97 635.324 341.582 635.972C342.194 636.62 342.671 637.403 343.013 638.321C343.355 639.239 343.526 640.256 343.526 641.372ZM339.422 641.372C339.422 640.13 339.17 639.158 338.666 638.456C338.18 637.736 337.478 637.376 336.56 637.376C335.642 637.376 334.931 637.736 334.427 638.456C333.923 639.158 333.671 640.13 333.671 641.372C333.671 642.614 333.923 643.604 334.427 644.342C334.931 645.062 335.642 645.422 336.56 645.422C337.478 645.422 338.18 645.062 338.666 644.342C339.17 643.604 339.422 642.614 339.422 641.372ZM350.134 648.5C349.216 646.7 348.28 644.594 347.326 642.182C346.39 639.77 345.499 637.142 344.653 634.298H348.919C349.099 635 349.306 635.765 349.54 636.593C349.792 637.403 350.044 638.231 350.296 639.077C350.566 639.905 350.827 640.715 351.079 641.507C351.349 642.299 351.61 643.019 351.862 643.667C352.096 643.019 352.348 642.299 352.618 641.507C352.888 640.715 353.149 639.905 353.401 639.077C353.671 638.231 353.923 637.403 354.157 636.593C354.409 635.765 354.625 635 354.805 634.298H358.963C358.117 637.142 357.217 639.77 356.263 642.182C355.327 644.594 354.4 646.7 353.482 648.5H350.134ZM366.281 645.692C366.677 645.692 367.055 645.683 367.415 645.665C367.775 645.647 368.063 645.62 368.279 645.584V642.533C368.117 642.497 367.874 642.461 367.55 642.425C367.226 642.389 366.929 642.371 366.659 642.371C366.281 642.371 365.921 642.398 365.579 642.452C365.255 642.488 364.967 642.569 364.715 642.695C364.463 642.821 364.265 642.992 364.121 643.208C363.977 643.424 363.905 643.694 363.905 644.018C363.905 644.648 364.112 645.089 364.526 645.341C364.958 645.575 365.543 645.692 366.281 645.692ZM365.957 633.92C367.145 633.92 368.135 634.055 368.927 634.325C369.719 634.595 370.349 634.982 370.817 635.486C371.303 635.99 371.645 636.602 371.843 637.322C372.041 638.042 372.14 638.843 372.14 639.725V648.095C371.564 648.221 370.763 648.365 369.737 648.527C368.711 648.707 367.469 648.797 366.011 648.797C365.093 648.797 364.256 648.716 363.5 648.554C362.762 648.392 362.123 648.131 361.583 647.771C361.043 647.393 360.629 646.907 360.341 646.313C360.053 645.719 359.909 644.99 359.909 644.126C359.909 643.298 360.071 642.596 360.395 642.02C360.737 641.444 361.187 640.985 361.745 640.643C362.303 640.301 362.942 640.058 363.662 639.914C364.382 639.752 365.129 639.671 365.903 639.671C366.425 639.671 366.884 639.698 367.28 639.752C367.694 639.788 368.027 639.842 368.279 639.914V639.536C368.279 638.852 368.072 638.303 367.658 637.889C367.244 637.475 366.524 637.268 365.498 637.268C364.814 637.268 364.139 637.322 363.473 637.43C362.807 637.52 362.231 637.655 361.745 637.835L361.232 634.595C361.466 634.523 361.754 634.451 362.096 634.379C362.456 634.289 362.843 634.217 363.257 634.163C363.671 634.091 364.103 634.037 364.553 634.001C365.021 633.947 365.489 633.92 365.957 633.92ZM375.643 630.761L379.666 630.113V634.298H384.499V637.646H379.666V642.641C379.666 643.487 379.81 644.162 380.098 644.666C380.404 645.17 381.007 645.422 381.907 645.422C382.339 645.422 382.78 645.386 383.23 645.314C383.698 645.224 384.121 645.107 384.499 644.963L385.066 648.095C384.58 648.293 384.04 648.464 383.446 648.608C382.852 648.752 382.123 648.824 381.259 648.824C380.161 648.824 379.252 648.68 378.532 648.392C377.812 648.086 377.236 647.672 376.804 647.15C376.372 646.61 376.066 645.962 375.886 645.206C375.724 644.45 375.643 643.613 375.643 642.695V630.761ZM391.798 648.5H387.775V634.298H391.798V648.5ZM392.176 630.194C392.176 630.932 391.933 631.517 391.447 631.949C390.979 632.363 390.421 632.57 389.773 632.57C389.125 632.57 388.558 632.363 388.072 631.949C387.604 631.517 387.37 630.932 387.37 630.194C387.37 629.456 387.604 628.88 388.072 628.466C388.558 628.034 389.125 627.818 389.773 627.818C390.421 627.818 390.979 628.034 391.447 628.466C391.933 628.88 392.176 629.456 392.176 630.194ZM408.864 641.372C408.864 642.488 408.702 643.514 408.378 644.45C408.054 645.368 407.586 646.16 406.974 646.826C406.362 647.474 405.624 647.978 404.76 648.338C403.914 648.698 402.96 648.878 401.898 648.878C400.854 648.878 399.9 648.698 399.036 648.338C398.19 647.978 397.461 647.474 396.849 646.826C396.237 646.16 395.76 645.368 395.418 644.45C395.076 643.514 394.905 642.488 394.905 641.372C394.905 640.256 395.076 639.239 395.418 638.321C395.778 637.403 396.264 636.62 396.876 635.972C397.506 635.324 398.244 634.82 399.09 634.46C399.954 634.1 400.89 633.92 401.898 633.92C402.924 633.92 403.86 634.1 404.706 634.46C405.57 634.82 406.308 635.324 406.92 635.972C407.532 636.62 408.009 637.403 408.351 638.321C408.693 639.239 408.864 640.256 408.864 641.372ZM404.76 641.372C404.76 640.13 404.508 639.158 404.004 638.456C403.518 637.736 402.816 637.376 401.898 637.376C400.98 637.376 400.269 637.736 399.765 638.456C399.261 639.158 399.009 640.13 399.009 641.372C399.009 642.614 399.261 643.604 399.765 644.342C400.269 645.062 400.98 645.422 401.898 645.422C402.816 645.422 403.518 645.062 404.004 644.342C404.508 643.604 404.76 642.614 404.76 641.372ZM411.98 634.784C412.664 634.586 413.546 634.406 414.626 634.244C415.706 634.064 416.84 633.974 418.028 633.974C419.234 633.974 420.233 634.136 421.025 634.46C421.835 634.766 422.474 635.207 422.942 635.783C423.41 636.359 423.743 637.043 423.941 637.835C424.139 638.627 424.238 639.509 424.238 640.481V648.5H420.215V640.967C420.215 639.671 420.044 638.753 419.702 638.213C419.36 637.673 418.721 637.403 417.785 637.403C417.497 637.403 417.191 637.421 416.867 637.457C416.543 637.475 416.255 637.502 416.003 637.538V648.5H411.98V634.784Z" fill="url(#paint5_linear_279_159)"/>
</g>
<g filter="url(#filter6_d_279_159)">
<rect x="806" y="511" width="140" height="140" rx="20" fill="white"/>
<path d="M832.439 572.789H836.651V591.5H832.439V572.789ZM840.712 577.784C841.396 577.586 842.278 577.406 843.358 577.244C844.438 577.064 845.572 576.974 846.76 576.974C847.966 576.974 848.965 577.136 849.757 577.46C850.567 577.766 851.206 578.207 851.674 578.783C852.142 579.359 852.475 580.043 852.673 580.835C852.871 581.627 852.97 582.509 852.97 583.481V591.5H848.947V583.967C848.947 582.671 848.776 581.753 848.434 581.213C848.092 580.673 847.453 580.403 846.517 580.403C846.229 580.403 845.923 580.421 845.599 580.457C845.275 580.475 844.987 580.502 844.735 580.538V591.5H840.712V577.784ZM860.041 584.507C860.041 587.081 860.995 588.368 862.903 588.368C863.317 588.368 863.722 588.314 864.118 588.206C864.532 588.098 864.865 587.963 865.117 587.801V580.538C864.919 580.502 864.667 580.475 864.361 580.457C864.055 580.421 863.722 580.403 863.362 580.403C862.264 580.403 861.436 580.781 860.878 581.537C860.32 582.275 860.041 583.265 860.041 584.507ZM855.937 584.399C855.937 583.301 856.099 582.302 856.423 581.402C856.765 580.484 857.251 579.701 857.881 579.053C858.511 578.387 859.285 577.874 860.203 577.514C861.121 577.154 862.165 576.974 863.335 576.974C863.821 576.974 864.325 577.001 864.847 577.055C865.387 577.091 865.909 577.145 866.413 577.217C866.935 577.289 867.43 577.379 867.898 577.487C868.366 577.577 868.78 577.676 869.14 577.784V596.495H865.117V591.149C864.667 591.347 864.199 591.5 863.713 591.608C863.227 591.716 862.705 591.77 862.147 591.77C860.131 591.77 858.592 591.113 857.53 589.799C856.468 588.467 855.937 586.667 855.937 584.399ZM885.03 591.014C884.346 591.212 883.464 591.392 882.384 591.554C881.304 591.734 880.17 591.824 878.982 591.824C877.776 591.824 876.768 591.662 875.958 591.338C875.166 591.014 874.536 590.564 874.068 589.988C873.6 589.394 873.267 588.692 873.069 587.882C872.871 587.072 872.772 586.181 872.772 585.209V577.298H876.795V584.723C876.795 586.019 876.966 586.955 877.308 587.531C877.65 588.107 878.289 588.395 879.225 588.395C879.513 588.395 879.819 588.386 880.143 588.368C880.467 588.332 880.755 588.296 881.007 588.26V577.298H885.03V591.014ZM892.829 591.5H888.806V577.298H892.829V591.5ZM893.207 573.194C893.207 573.932 892.964 574.517 892.478 574.949C892.01 575.363 891.452 575.57 890.804 575.57C890.156 575.57 889.589 575.363 889.103 574.949C888.635 574.517 888.401 573.932 888.401 573.194C888.401 572.456 888.635 571.88 889.103 571.466C889.589 571.034 890.156 570.818 890.804 570.818C891.452 570.818 892.01 571.034 892.478 571.466C892.964 571.88 893.207 572.456 893.207 573.194ZM905.17 580.862C904.81 580.772 904.387 580.682 903.901 580.592C903.415 580.484 902.893 580.43 902.335 580.43C902.083 580.43 901.777 580.457 901.417 580.511C901.075 580.547 900.814 580.592 900.634 580.646V591.5H896.611V578.054C897.331 577.802 898.177 577.568 899.149 577.352C900.139 577.118 901.237 577.001 902.443 577.001C902.659 577.001 902.92 577.019 903.226 577.055C903.532 577.073 903.838 577.109 904.144 577.163C904.45 577.199 904.756 577.253 905.062 577.325C905.368 577.379 905.629 577.451 905.845 577.541L905.17 580.862ZM921.454 577.298C920.644 580.034 919.798 582.599 918.916 584.993C918.034 587.387 917.071 589.709 916.027 591.959C915.649 592.769 915.271 593.453 914.893 594.011C914.515 594.587 914.101 595.055 913.651 595.415C913.201 595.793 912.688 596.063 912.112 596.225C911.554 596.405 910.897 596.495 910.141 596.495C909.511 596.495 908.926 596.432 908.386 596.306C907.864 596.198 907.432 596.072 907.09 595.928L907.792 592.715C908.206 592.859 908.575 592.958 908.899 593.012C909.223 593.066 909.565 593.093 909.925 593.093C910.645 593.093 911.194 592.895 911.572 592.499C911.968 592.121 912.301 591.59 912.571 590.906C911.653 589.106 910.735 587.09 909.817 584.858C908.899 582.608 908.035 580.088 907.225 577.298H911.491C911.671 578 911.878 578.765 912.112 579.593C912.364 580.403 912.625 581.231 912.895 582.077C913.165 582.905 913.435 583.715 913.705 584.507C913.993 585.299 914.263 586.019 914.515 586.667C914.749 586.019 914.992 585.299 915.244 584.507C915.496 583.715 915.739 582.905 915.973 582.077C916.225 581.231 916.459 580.403 916.675 579.593C916.909 578.765 917.116 578 917.296 577.298H921.454Z" fill="url(#paint6_linear_279_159)"/>
</g>
<g filter="url(#filter7_d_279_159)">
<rect x="784" y="293" width="172" height="171" rx="20" fill="white"/>
<path d="M801.913 346.264C805.657 346.264 808.525 346.936 810.517 348.28C812.509 349.6 813.505 351.664 813.505 354.472C813.505 356.224 813.097 357.652 812.281 358.756C811.489 359.836 810.337 360.688 808.825 361.312C809.329 361.936 809.857 362.656 810.409 363.472C810.961 364.264 811.501 365.104 812.029 365.992C812.581 366.856 813.109 367.768 813.613 368.728C814.117 369.664 814.585 370.588 815.017 371.5H808.717C808.261 370.684 807.793 369.856 807.313 369.016C806.857 368.176 806.377 367.36 805.873 366.568C805.393 365.776 804.913 365.032 804.433 364.336C803.953 363.616 803.473 362.968 802.993 362.392H800.221V371.5H794.605V346.912C795.829 346.672 797.089 346.504 798.385 346.408C799.705 346.312 800.881 346.264 801.913 346.264ZM802.237 351.052C801.829 351.052 801.457 351.064 801.121 351.088C800.809 351.112 800.509 351.136 800.221 351.16V357.928H801.805C803.917 357.928 805.429 357.664 806.341 357.136C807.253 356.608 807.709 355.708 807.709 354.436C807.709 353.212 807.241 352.348 806.305 351.844C805.393 351.316 804.037 351.052 802.237 351.052ZM816.442 362.176C816.442 360.496 816.694 359.032 817.198 357.784C817.726 356.512 818.41 355.456 819.25 354.616C820.09 353.776 821.05 353.14 822.13 352.708C823.234 352.276 824.362 352.06 825.514 352.06C828.202 352.06 830.326 352.888 831.886 354.544C833.446 356.176 834.226 358.588 834.226 361.78C834.226 362.092 834.214 362.44 834.19 362.824C834.166 363.184 834.142 363.508 834.118 363.796H821.95C822.07 364.9 822.586 365.776 823.498 366.424C824.41 367.072 825.634 367.396 827.17 367.396C828.154 367.396 829.114 367.312 830.05 367.144C831.01 366.952 831.79 366.724 832.39 366.46L833.11 370.816C832.822 370.96 832.438 371.104 831.958 371.248C831.478 371.392 830.938 371.512 830.338 371.608C829.762 371.728 829.138 371.824 828.466 371.896C827.794 371.968 827.122 372.004 826.45 372.004C824.746 372.004 823.258 371.752 821.986 371.248C820.738 370.744 819.694 370.06 818.854 369.196C818.038 368.308 817.426 367.264 817.018 366.064C816.634 364.864 816.442 363.568 816.442 362.176ZM829.042 360.124C829.018 359.668 828.934 359.224 828.79 358.792C828.67 358.36 828.466 357.976 828.178 357.64C827.914 357.304 827.566 357.028 827.134 356.812C826.726 356.596 826.21 356.488 825.586 356.488C824.986 356.488 824.47 356.596 824.038 356.812C823.606 357.004 823.246 357.268 822.958 357.604C822.67 357.94 822.442 358.336 822.274 358.792C822.13 359.224 822.022 359.668 821.95 360.124H829.042ZM843.802 367.648C844.786 367.648 845.482 367.552 845.89 367.36C846.298 367.168 846.502 366.796 846.502 366.244C846.502 365.812 846.238 365.44 845.71 365.128C845.182 364.792 844.378 364.42 843.298 364.012C842.458 363.7 841.69 363.376 840.994 363.04C840.322 362.704 839.746 362.308 839.266 361.852C838.786 361.372 838.414 360.808 838.15 360.16C837.886 359.512 837.754 358.732 837.754 357.82C837.754 356.044 838.414 354.64 839.734 353.608C841.054 352.576 842.866 352.06 845.17 352.06C846.322 352.06 847.426 352.168 848.482 352.384C849.538 352.576 850.378 352.792 851.002 353.032L850.066 357.208C849.442 356.992 848.758 356.8 848.014 356.632C847.294 356.464 846.478 356.38 845.566 356.38C843.886 356.38 843.046 356.848 843.046 357.784C843.046 358 843.082 358.192 843.154 358.36C843.226 358.528 843.37 358.696 843.586 358.864C843.802 359.008 844.09 359.176 844.45 359.368C844.834 359.536 845.314 359.728 845.89 359.944C847.066 360.376 848.038 360.808 848.806 361.24C849.574 361.648 850.174 362.104 850.606 362.608C851.062 363.088 851.374 363.628 851.542 364.228C851.734 364.828 851.83 365.524 851.83 366.316C851.83 368.188 851.122 369.604 849.706 370.564C848.314 371.524 846.334 372.004 843.766 372.004C842.086 372.004 840.682 371.86 839.554 371.572C838.45 371.284 837.682 371.044 837.25 370.852L838.15 366.496C839.062 366.856 839.998 367.144 840.958 367.36C841.918 367.552 842.866 367.648 843.802 367.648ZM854.938 362.176C854.938 360.496 855.19 359.032 855.694 357.784C856.222 356.512 856.906 355.456 857.746 354.616C858.586 353.776 859.546 353.14 860.626 352.708C861.73 352.276 862.858 352.06 864.01 352.06C866.698 352.06 868.822 352.888 870.382 354.544C871.942 356.176 872.722 358.588 872.722 361.78C872.722 362.092 872.71 362.44 872.686 362.824C872.662 363.184 872.638 363.508 872.614 363.796H860.446C860.566 364.9 861.082 365.776 861.994 366.424C862.906 367.072 864.13 367.396 865.666 367.396C866.65 367.396 867.61 367.312 868.546 367.144C869.506 366.952 870.286 366.724 870.886 366.46L871.606 370.816C871.318 370.96 870.934 371.104 870.454 371.248C869.974 371.392 869.434 371.512 868.834 371.608C868.258 371.728 867.634 371.824 866.962 371.896C866.29 371.968 865.618 372.004 864.946 372.004C863.242 372.004 861.754 371.752 860.482 371.248C859.234 370.744 858.19 370.06 857.35 369.196C856.534 368.308 855.922 367.264 855.514 366.064C855.13 364.864 854.938 363.568 854.938 362.176ZM867.538 360.124C867.514 359.668 867.43 359.224 867.286 358.792C867.166 358.36 866.962 357.976 866.674 357.64C866.41 357.304 866.062 357.028 865.63 356.812C865.222 356.596 864.706 356.488 864.082 356.488C863.482 356.488 862.966 356.596 862.534 356.812C862.102 357.004 861.742 357.268 861.454 357.604C861.166 357.94 860.938 358.336 860.77 358.792C860.626 359.224 860.518 359.668 860.446 360.124H867.538ZM884.098 367.756C884.626 367.756 885.13 367.744 885.61 367.72C886.09 367.696 886.474 367.66 886.762 367.612V363.544C886.546 363.496 886.222 363.448 885.79 363.4C885.358 363.352 884.962 363.328 884.602 363.328C884.098 363.328 883.618 363.364 883.162 363.436C882.73 363.484 882.346 363.592 882.01 363.76C881.674 363.928 881.41 364.156 881.218 364.444C881.026 364.732 880.93 365.092 880.93 365.524C880.93 366.364 881.206 366.952 881.758 367.288C882.334 367.6 883.114 367.756 884.098 367.756ZM883.666 352.06C885.25 352.06 886.57 352.24 887.626 352.6C888.682 352.96 889.522 353.476 890.146 354.148C890.794 354.82 891.25 355.636 891.514 356.596C891.778 357.556 891.91 358.624 891.91 359.8V370.96C891.142 371.128 890.074 371.32 888.706 371.536C887.338 371.776 885.682 371.896 883.738 371.896C882.514 371.896 881.398 371.788 880.39 371.572C879.406 371.356 878.554 371.008 877.834 370.528C877.114 370.024 876.562 369.376 876.178 368.584C875.794 367.792 875.602 366.82 875.602 365.668C875.602 364.564 875.818 363.628 876.25 362.86C876.706 362.092 877.306 361.48 878.05 361.024C878.794 360.568 879.646 360.244 880.606 360.052C881.566 359.836 882.562 359.728 883.594 359.728C884.29 359.728 884.902 359.764 885.43 359.836C885.982 359.884 886.426 359.956 886.762 360.052V359.548C886.762 358.636 886.486 357.904 885.934 357.352C885.382 356.8 884.422 356.524 883.054 356.524C882.142 356.524 881.242 356.596 880.354 356.74C879.466 356.86 878.698 357.04 878.05 357.28L877.366 352.96C877.678 352.864 878.062 352.768 878.518 352.672C878.998 352.552 879.514 352.456 880.066 352.384C880.618 352.288 881.194 352.216 881.794 352.168C882.418 352.096 883.042 352.06 883.666 352.06ZM908.172 357.316C907.692 357.196 907.128 357.076 906.48 356.956C905.832 356.812 905.136 356.74 904.392 356.74C904.056 356.74 903.648 356.776 903.168 356.848C902.712 356.896 902.364 356.956 902.124 357.028V371.5H896.76V353.572C897.72 353.236 898.848 352.924 900.144 352.636C901.464 352.324 902.928 352.168 904.536 352.168C904.824 352.168 905.172 352.192 905.58 352.24C905.988 352.264 906.396 352.312 906.804 352.384C907.212 352.432 907.62 352.504 908.028 352.6C908.436 352.672 908.784 352.768 909.072 352.888L908.172 357.316ZM910.696 362.032C910.696 360.664 910.912 359.38 911.344 358.18C911.8 356.956 912.448 355.9 913.288 355.012C914.128 354.1 915.148 353.38 916.348 352.852C917.548 352.324 918.916 352.06 920.452 352.06C921.46 352.06 922.384 352.156 923.224 352.348C924.064 352.516 924.88 352.768 925.672 353.104L924.556 357.388C924.052 357.196 923.5 357.028 922.9 356.884C922.3 356.74 921.628 356.668 920.884 356.668C919.3 356.668 918.112 357.16 917.32 358.144C916.552 359.128 916.168 360.424 916.168 362.032C916.168 363.736 916.528 365.056 917.248 365.992C917.992 366.928 919.276 367.396 921.1 367.396C921.748 367.396 922.444 367.336 923.188 367.216C923.932 367.096 924.616 366.904 925.24 366.64L925.996 371.032C925.372 371.296 924.592 371.524 923.656 371.716C922.72 371.908 921.688 372.004 920.56 372.004C918.832 372.004 917.344 371.752 916.096 371.248C914.848 370.72 913.816 370.012 913 369.124C912.208 368.236 911.62 367.192 911.236 365.992C910.876 364.768 910.696 363.448 910.696 362.032ZM929.596 371.5V344.428L934.96 343.564V352.636C935.32 352.516 935.776 352.408 936.328 352.312C936.904 352.192 937.456 352.132 937.984 352.132C939.52 352.132 940.792 352.348 941.8 352.78C942.832 353.188 943.648 353.776 944.248 354.544C944.872 355.312 945.304 356.224 945.544 357.28C945.808 358.336 945.94 359.512 945.94 360.808V371.5H940.576V361.456C940.576 359.728 940.348 358.504 939.892 357.784C939.46 357.064 938.644 356.704 937.444 356.704C936.964 356.704 936.508 356.752 936.076 356.848C935.668 356.92 935.296 357.004 934.96 357.1V371.5H929.596ZM833.454 408.216C834.246 408.216 834.894 408.156 835.398 408.036C835.926 407.892 836.346 407.712 836.658 407.496C836.97 407.256 837.186 406.98 837.306 406.668C837.426 406.356 837.486 406.008 837.486 405.624C837.486 404.808 837.102 404.136 836.334 403.608C835.566 403.056 834.246 402.468 832.374 401.844C831.558 401.556 830.742 401.232 829.926 400.872C829.11 400.488 828.378 400.02 827.73 399.468C827.082 398.892 826.554 398.208 826.146 397.416C825.738 396.6 825.534 395.616 825.534 394.464C825.534 393.312 825.75 392.28 826.182 391.368C826.614 390.432 827.226 389.64 828.018 388.992C828.81 388.344 829.77 387.852 830.898 387.516C832.026 387.156 833.298 386.976 834.714 386.976C836.394 386.976 837.846 387.156 839.07 387.516C840.294 387.876 841.302 388.272 842.094 388.704L840.474 393.132C839.778 392.772 838.998 392.46 838.134 392.196C837.294 391.908 836.274 391.764 835.074 391.764C833.73 391.764 832.758 391.956 832.158 392.34C831.582 392.7 831.294 393.264 831.294 394.032C831.294 394.488 831.402 394.872 831.618 395.184C831.834 395.496 832.134 395.784 832.518 396.048C832.926 396.288 833.382 396.516 833.886 396.732C834.414 396.924 834.99 397.128 835.614 397.344C836.91 397.824 838.038 398.304 838.998 398.784C839.958 399.24 840.75 399.78 841.374 400.404C842.022 401.028 842.502 401.76 842.814 402.6C843.126 403.44 843.282 404.46 843.282 405.66C843.282 407.988 842.466 409.8 840.834 411.096C839.202 412.368 836.742 413.004 833.454 413.004C832.35 413.004 831.354 412.932 830.466 412.788C829.578 412.668 828.786 412.512 828.09 412.32C827.418 412.128 826.83 411.924 826.326 411.708C825.846 411.492 825.438 411.288 825.102 411.096L826.686 406.632C827.43 407.04 828.342 407.412 829.422 407.748C830.526 408.06 831.87 408.216 833.454 408.216ZM852.607 400.404C853.135 399.828 853.675 399.228 854.227 398.604C854.803 397.98 855.355 397.368 855.883 396.768C856.411 396.144 856.903 395.556 857.359 395.004C857.839 394.452 858.247 393.972 858.583 393.564H864.955C863.683 395.028 862.435 396.432 861.211 397.776C860.011 399.096 858.691 400.464 857.251 401.88C857.971 402.528 858.715 403.308 859.483 404.22C860.251 405.108 860.995 406.032 861.715 406.992C862.435 407.952 863.095 408.912 863.695 409.872C864.295 410.832 864.799 411.708 865.207 412.5H859.051C858.667 411.876 858.223 411.192 857.719 410.448C857.239 409.68 856.723 408.924 856.171 408.18C855.619 407.412 855.031 406.68 854.407 405.984C853.807 405.288 853.207 404.7 852.607 404.22V412.5H847.243V385.428L852.607 384.564V400.404ZM873.454 412.5H868.09V393.564H873.454V412.5ZM873.958 388.092C873.958 389.076 873.634 389.856 872.986 390.432C872.362 390.984 871.618 391.26 870.754 391.26C869.89 391.26 869.134 390.984 868.486 390.432C867.862 389.856 867.55 389.076 867.55 388.092C867.55 387.108 867.862 386.34 868.486 385.788C869.134 385.212 869.89 384.924 870.754 384.924C871.618 384.924 872.362 385.212 872.986 385.788C873.634 386.34 873.958 387.108 873.958 388.092ZM886.057 412.86C884.497 412.836 883.225 412.668 882.241 412.356C881.281 412.044 880.513 411.612 879.937 411.06C879.385 410.484 879.001 409.8 878.785 409.008C878.593 408.192 878.497 407.28 878.497 406.272V385.428L883.861 384.564V405.192C883.861 405.672 883.897 406.104 883.969 406.488C884.041 406.872 884.173 407.196 884.365 407.46C884.581 407.724 884.881 407.94 885.265 408.108C885.649 408.276 886.165 408.384 886.813 408.432L886.057 412.86ZM897.447 412.86C895.887 412.836 894.615 412.668 893.631 412.356C892.671 412.044 891.903 411.612 891.327 411.06C890.775 410.484 890.391 409.8 890.175 409.008C889.983 408.192 889.887 407.28 889.887 406.272V385.428L895.251 384.564V405.192C895.251 405.672 895.287 406.104 895.359 406.488C895.431 406.872 895.563 407.196 895.755 407.46C895.971 407.724 896.271 407.94 896.655 408.108C897.039 408.276 897.555 408.384 898.203 408.432L897.447 412.86ZM906.714 408.648C907.698 408.648 908.394 408.552 908.802 408.36C909.21 408.168 909.414 407.796 909.414 407.244C909.414 406.812 909.15 406.44 908.622 406.128C908.094 405.792 907.29 405.42 906.21 405.012C905.37 404.7 904.602 404.376 903.906 404.04C903.234 403.704 902.658 403.308 902.178 402.852C901.698 402.372 901.326 401.808 901.062 401.16C900.798 400.512 900.666 399.732 900.666 398.82C900.666 397.044 901.326 395.64 902.646 394.608C903.966 393.576 905.778 393.06 908.082 393.06C909.234 393.06 910.338 393.168 911.394 393.384C912.45 393.576 913.29 393.792 913.914 394.032L912.978 398.208C912.354 397.992 911.67 397.8 910.926 397.632C910.206 397.464 909.39 397.38 908.478 397.38C906.798 397.38 905.958 397.848 905.958 398.784C905.958 399 905.994 399.192 906.066 399.36C906.138 399.528 906.282 399.696 906.498 399.864C906.714 400.008 907.002 400.176 907.362 400.368C907.746 400.536 908.226 400.728 908.802 400.944C909.978 401.376 910.95 401.808 911.718 402.24C912.486 402.648 913.086 403.104 913.518 403.608C913.974 404.088 914.286 404.628 914.454 405.228C914.646 405.828 914.742 406.524 914.742 407.316C914.742 409.188 914.034 410.604 912.618 411.564C911.226 412.524 909.246 413.004 906.678 413.004C904.998 413.004 903.594 412.86 902.466 412.572C901.362 412.284 900.594 412.044 900.162 411.852L901.062 407.496C901.974 407.856 902.91 408.144 903.87 408.36C904.83 408.552 905.778 408.648 906.714 408.648Z" fill="url(#paint7_linear_279_159)"/>
</g>
<defs>
<filter id="filter0_d_279_159" x="47" y="301" width="260" height="260" filterUnits="userSpaceOnUse" color-interpolation-filters="sRGB">
<feFlood flood-opacity="0" result="BackgroundImageFix"/>
<feColorMatrix in="SourceAlpha" type="matrix" values="0 0 0 0 0 0 0 0 0 0 0 0 0 0 0 0 0 0 127 0" result="hardAlpha"/>
<feOffset/>
<feGaussianBlur stdDeviation="10"/>
<feComposite in2="hardAlpha" operator="out"/>
<feColorMatrix type="matrix" values="0 0 0 0 0 0 0 0 0 0 0 0 0 0 0 0 0 0 0.3 0"/>
<feBlend mode="normal" in2="BackgroundImageFix" result="effect1_dropShadow_279_159"/>
<feBlend mode="normal" in="SourceGraphic" in2="effect1_dropShadow_279_159" result="shape"/>
</filter>
<filter id="filter1_d_279_159" x="267" y="69" width="231" height="222" filterUnits="userSpaceOnUse" color-interpolation-filters="sRGB">
<feFlood flood-opacity="0" result="BackgroundImageFix"/>
<feColorMatrix in="SourceAlpha" type="matrix" values="0 0 0 0 0 0 0 0 0 0 0 0 0 0 0 0 0 0 127 0" result="hardAlpha"/>
<feOffset/>
<feGaussianBlur stdDeviation="10"/>
<feComposite in2="hardAlpha" operator="out"/>
<feColorMatrix type="matrix" values="0 0 0 0 0 0 0 0 0 0 0 0 0 0 0 0 0 0 0.3 0"/>
<feBlend mode="normal" in2="BackgroundImageFix" result="effect1_dropShadow_279_159"/>
<feBlend mode="normal" in="SourceGraphic" in2="effect1_dropShadow_279_159" result="shape"/>
</filter>
<filter id="filter2_d_279_159" x="554" y="161" width="220" height="220" filterUnits="userSpaceOnUse" color-interpolation-filters="sRGB">
<feFlood flood-opacity="0" result="BackgroundImageFix"/>
<feColorMatrix in="SourceAlpha" type="matrix" values="0 0 0 0 0 0 0 0 0 0 0 0 0 0 0 0 0 0 127 0" result="hardAlpha"/>
<feOffset/>
<feGaussianBlur stdDeviation="10"/>
<feComposite in2="hardAlpha" operator="out"/>
<feColorMatrix type="matrix" values="0 0 0 0 0 0 0 0 0 0 0 0 0 0 0 0 0 0 0.3 0"/>
<feBlend mode="normal" in2="BackgroundImageFix" result="effect1_dropShadow_279_159"/>
<feBlend mode="normal" in="SourceGraphic" in2="effect1_dropShadow_279_159" result="shape"/>
</filter>
<filter id="filter3_d_279_159" x="352" y="297" width="212" height="211" filterUnits="userSpaceOnUse" color-interpolation-filters="sRGB">
<feFlood flood-opacity="0" result="BackgroundImageFix"/>
<feColorMatrix in="SourceAlpha" type="matrix" values="0 0 0 0 0 0 0 0 0 0 0 0 0 0 0 0 0 0 127 0" result="hardAlpha"/>
<feOffset/>
<feGaussianBlur stdDeviation="10"/>
<feComposite in2="hardAlpha" operator="out"/>
<feColorMatrix type="matrix" values="0 0 0 0 0 0 0 0 0 0 0 0 0 0 0 0 0 0 0.3 0"/>
<feBlend mode="normal" in2="BackgroundImageFix" result="effect1_dropShadow_279_159"/>
<feBlend mode="normal" in="SourceGraphic" in2="effect1_dropShadow_279_159" result="shape"/>
</filter>
<filter id="filter4_d_279_159" x="507" y="491" width="212" height="211" filterUnits="userSpaceOnUse" color-interpolation-filters="sRGB">
<feFlood flood-opacity="0" result="BackgroundImageFix"/>
<feColorMatrix in="SourceAlpha" type="matrix" values="0 0 0 0 0 0 0 0 0 0 0 0 0 0 0 0 0 0 127 0" result="hardAlpha"/>
<feOffset/>
<feGaussianBlur stdDeviation="10"/>
<feComposite in2="hardAlpha" operator="out"/>
<feColorMatrix type="matrix" values="0 0 0 0 0 0 0 0 0 0 0 0 0 0 0 0 0 0 0.3 0"/>
<feBlend mode="normal" in2="BackgroundImageFix" result="effect1_dropShadow_279_159"/>
<feBlend mode="normal" in="SourceGraphic" in2="effect1_dropShadow_279_159" result="shape"/>
</filter>
<filter id="filter5_d_279_159" x="267" y="548" width="180" height="180" filterUnits="userSpaceOnUse" color-interpolation-filters="sRGB">
<feFlood flood-opacity="0" result="BackgroundImageFix"/>
<feColorMatrix in="SourceAlpha" type="matrix" values="0 0 0 0 0 0 0 0 0 0 0 0 0 0 0 0 0 0 127 0" result="hardAlpha"/>
<feOffset/>
<feGaussianBlur stdDeviation="10"/>
<feComposite in2="hardAlpha" operator="out"/>
<feColorMatrix type="matrix" values="0 0 0 0 0 0 0 0 0 0 0 0 0 0 0 0 0 0 0.3 0"/>
<feBlend mode="normal" in2="BackgroundImageFix" result="effect1_dropShadow_279_159"/>
<feBlend mode="normal" in="SourceGraphic" in2="effect1_dropShadow_279_159" result="shape"/>
</filter>
<filter id="filter6_d_279_159" x="786" y="491" width="180" height="180" filterUnits="userSpaceOnUse" color-interpolation-filters="sRGB">
<feFlood flood-opacity="0" result="BackgroundImageFix"/>
<feColorMatrix in="SourceAlpha" type="matrix" values="0 0 0 0 0 0 0 0 0 0 0 0 0 0 0 0 0 0 127 0" result="hardAlpha"/>
<feOffset/>
<feGaussianBlur stdDeviation="10"/>
<feComposite in2="hardAlpha" operator="out"/>
<feColorMatrix type="matrix" values="0 0 0 0 0 0 0 0 0 0 0 0 0 0 0 0 0 0 0.3 0"/>
<feBlend mode="normal" in2="BackgroundImageFix" result="effect1_dropShadow_279_159"/>
<feBlend mode="normal" in="SourceGraphic" in2="effect1_dropShadow_279_159" result="shape"/>
</filter>
<filter id="filter7_d_279_159" x="764" y="273" width="212" height="211" filterUnits="userSpaceOnUse" color-interpolation-filters="sRGB">
<feFlood flood-opacity="0" result="BackgroundImageFix"/>
<feColorMatrix in="SourceAlpha" type="matrix" values="0 0 0 0 0 0 0 0 0 0 0 0 0 0 0 0 0 0 127 0" result="hardAlpha"/>
<feOffset/>
<feGaussianBlur stdDeviation="10"/>
<feComposite in2="hardAlpha" operator="out"/>
<feColorMatrix type="matrix" values="0 0 0 0 0 0 0 0 0 0 0 0 0 0 0 0 0 0 0.3 0"/>
<feBlend mode="normal" in2="BackgroundImageFix" result="effect1_dropShadow_279_159"/>
<feBlend mode="normal" in="SourceGraphic" in2="effect1_dropShadow_279_159" result="shape"/>
</filter>
<linearGradient id="paint0_linear_279_159" x1="241" y1="402.982" x2="119.211" y2="474.688" gradientUnits="userSpaceOnUse">
<stop stop-color="#D226E1"/>
<stop offset="1" stop-color="#FF2339"/>
</linearGradient>
<linearGradient id="paint1_linear_279_159" x1="438.064" y1="168.123" x2="380.04" y2="238.088" gradientUnits="userSpaceOnUse">
<stop stop-color="#D226E1"/>
<stop offset="1" stop-color="#FF2339"/>
</linearGradient>
<linearGradient id="paint2_linear_279_159" x1="716.364" y1="242.982" x2="607.45" y2="295.448" gradientUnits="userSpaceOnUse">
<stop stop-color="#D226E1"/>
<stop offset="1" stop-color="#FF2339"/>
</linearGradient>
<linearGradient id="paint3_linear_279_159" x1="303.773" y1="371.437" x2="333.033" y2="472.178" gradientUnits="userSpaceOnUse">
<stop stop-color="#FF2339"/>
<stop offset="1" stop-color="#D226E1"/>
</linearGradient>
<linearGradient id="paint4_linear_279_159" x1="458.773" y1="505.531" x2="610.435" y2="698.378" gradientUnits="userSpaceOnUse">
<stop stop-color="#FF2339"/>
<stop offset="1" stop-color="#D226E1"/>
</linearGradient>
<linearGradient id="paint5_linear_279_159" x1="231.467" y1="603.609" x2="277.463" y2="713.956" gradientUnits="userSpaceOnUse">
<stop stop-color="#FF2339"/>
<stop offset="1" stop-color="#D226E1"/>
</linearGradient>
<linearGradient id="paint6_linear_279_159" x1="750.467" y1="546.609" x2="783.049" y2="648.554" gradientUnits="userSpaceOnUse">
<stop stop-color="#FF2339"/>
<stop offset="1" stop-color="#D226E1"/>
</linearGradient>
<linearGradient id="paint7_linear_279_159" x1="715.773" y1="287.531" x2="945.832" y2="556.336" gradientUnits="userSpaceOnUse">
<stop stop-color="#FF2339"/>
<stop offset="1" stop-color="#D226E1"/>
</linearGradient>
</defs>
</svg>
