<svg width="801" height="779" viewBox="0 0 801 779" fill="none" xmlns="http://www.w3.org/2000/svg">
<g filter="url(#filter0_d_282_256)">
<rect x="38" y="321" width="220" height="220" rx="20" fill="white"/>
<path d="M93.6968 393.496C90.2088 393.496 87.6808 394.472 86.1128 396.424C84.5768 398.344 83.8088 400.984 83.8088 404.344C83.8088 405.976 84.0008 407.464 84.3848 408.808C84.7688 410.12 85.3448 411.256 86.1128 412.216C86.8808 413.176 87.8408 413.928 88.9928 414.472C90.1448 414.984 91.4888 415.24 93.0248 415.24C93.8568 415.24 94.5608 415.224 95.1368 415.192C95.7448 415.16 96.2728 415.096 96.7208 415V403.432H104.209V419.896C103.313 420.248 101.873 420.616 99.8888 421C97.9048 421.416 95.4568 421.624 92.5448 421.624C90.0488 421.624 87.7768 421.24 85.7288 420.472C83.7128 419.704 81.9848 418.584 80.5448 417.112C79.1048 415.64 77.9848 413.832 77.1848 411.688C76.4168 409.544 76.0328 407.096 76.0328 404.344C76.0328 401.56 76.4648 399.096 77.3288 396.952C78.1928 394.808 79.3768 393 80.8808 391.528C82.3848 390.024 84.1448 388.888 86.1608 388.12C88.2088 387.352 90.3848 386.968 92.6888 386.968C94.2568 386.968 95.6648 387.08 96.9128 387.304C98.1928 387.496 99.2808 387.736 100.177 388.024C101.105 388.28 101.857 388.552 102.433 388.84C103.041 389.128 103.473 389.352 103.729 389.512L101.569 395.512C100.545 394.968 99.3608 394.504 98.0168 394.12C96.7048 393.704 95.2648 393.496 93.6968 393.496ZM120.776 421.48C118.696 421.448 117 421.224 115.688 420.808C114.408 420.392 113.384 419.816 112.616 419.08C111.88 418.312 111.368 417.4 111.08 416.344C110.824 415.256 110.696 414.04 110.696 412.696V384.904L117.848 383.752V411.256C117.848 411.896 117.896 412.472 117.992 412.984C118.088 413.496 118.264 413.928 118.52 414.28C118.808 414.632 119.208 414.92 119.72 415.144C120.232 415.368 120.92 415.512 121.784 415.576L120.776 421.48ZM149.499 408.328C149.499 410.312 149.211 412.136 148.635 413.8C148.059 415.432 147.227 416.84 146.139 418.024C145.051 419.176 143.739 420.072 142.203 420.712C140.699 421.352 139.003 421.672 137.115 421.672C135.259 421.672 133.563 421.352 132.027 420.712C130.523 420.072 129.227 419.176 128.139 418.024C127.051 416.84 126.203 415.432 125.595 413.8C124.987 412.136 124.683 410.312 124.683 408.328C124.683 406.344 124.987 404.536 125.595 402.904C126.235 401.272 127.099 399.88 128.187 398.728C129.307 397.576 130.619 396.68 132.123 396.04C133.659 395.4 135.323 395.08 137.115 395.08C138.939 395.08 140.603 395.4 142.107 396.04C143.643 396.68 144.955 397.576 146.043 398.728C147.131 399.88 147.979 401.272 148.587 402.904C149.195 404.536 149.499 406.344 149.499 408.328ZM142.203 408.328C142.203 406.12 141.755 404.392 140.859 403.144C139.995 401.864 138.747 401.224 137.115 401.224C135.483 401.224 134.219 401.864 133.323 403.144C132.427 404.392 131.979 406.12 131.979 408.328C131.979 410.536 132.427 412.296 133.323 413.608C134.219 414.888 135.483 415.528 137.115 415.528C138.747 415.528 139.995 414.888 140.859 413.608C141.755 412.296 142.203 410.536 142.203 408.328ZM171.216 408.184C171.216 403.576 169.52 401.272 166.128 401.272C165.392 401.272 164.656 401.368 163.92 401.56C163.216 401.752 162.64 401.992 162.192 402.28V415.288C162.544 415.352 162.992 415.416 163.536 415.48C164.08 415.512 164.672 415.528 165.312 415.528C167.264 415.528 168.736 414.856 169.728 413.512C170.72 412.168 171.216 410.392 171.216 408.184ZM178.512 408.376C178.512 410.392 178.208 412.216 177.6 413.848C177.024 415.48 176.176 416.872 175.056 418.024C173.936 419.176 172.56 420.072 170.928 420.712C169.296 421.32 167.44 421.624 165.36 421.624C164.496 421.624 163.584 421.576 162.624 421.48C161.696 421.416 160.768 421.32 159.84 421.192C158.944 421.064 158.08 420.92 157.248 420.76C156.416 420.568 155.68 420.376 155.04 420.184V384.904L162.192 383.752V396.328C162.992 395.976 163.824 395.704 164.688 395.512C165.552 395.32 166.48 395.224 167.472 395.224C169.264 395.224 170.848 395.544 172.224 396.184C173.6 396.792 174.752 397.672 175.68 398.824C176.608 399.976 177.312 401.368 177.792 403C178.272 404.6 178.512 406.392 178.512 408.376ZM193.656 416.008C194.36 416.008 195.032 415.992 195.672 415.96C196.312 415.928 196.824 415.88 197.208 415.816V410.392C196.92 410.328 196.488 410.264 195.912 410.2C195.336 410.136 194.808 410.104 194.328 410.104C193.656 410.104 193.016 410.152 192.408 410.248C191.832 410.312 191.32 410.456 190.872 410.68C190.424 410.904 190.072 411.208 189.816 411.592C189.56 411.976 189.432 412.456 189.432 413.032C189.432 414.152 189.8 414.936 190.536 415.384C191.304 415.8 192.344 416.008 193.656 416.008ZM193.08 395.08C195.192 395.08 196.952 395.32 198.36 395.8C199.768 396.28 200.888 396.968 201.72 397.864C202.584 398.76 203.192 399.848 203.544 401.128C203.896 402.408 204.072 403.832 204.072 405.4V420.28C203.048 420.504 201.624 420.76 199.8 421.048C197.976 421.368 195.768 421.528 193.176 421.528C191.544 421.528 190.056 421.384 188.712 421.096C187.4 420.808 186.264 420.344 185.304 419.704C184.344 419.032 183.608 418.168 183.096 417.112C182.584 416.056 182.328 414.76 182.328 413.224C182.328 411.752 182.616 410.504 183.192 409.48C183.8 408.456 184.6 407.64 185.592 407.032C186.584 406.424 187.72 405.992 189 405.736C190.28 405.448 191.608 405.304 192.984 405.304C193.912 405.304 194.728 405.352 195.432 405.448C196.168 405.512 196.76 405.608 197.208 405.736V405.064C197.208 403.848 196.84 402.872 196.104 402.136C195.368 401.4 194.088 401.032 192.264 401.032C191.048 401.032 189.848 401.128 188.664 401.32C187.48 401.48 186.456 401.72 185.592 402.04L184.68 396.28C185.096 396.152 185.608 396.024 186.216 395.896C186.856 395.736 187.544 395.608 188.28 395.512C189.016 395.384 189.784 395.288 190.584 395.224C191.416 395.128 192.248 395.08 193.08 395.08ZM220.62 421.48C218.54 421.448 216.844 421.224 215.532 420.808C214.252 420.392 213.228 419.816 212.46 419.08C211.724 418.312 211.212 417.4 210.924 416.344C210.668 415.256 210.54 414.04 210.54 412.696V384.904L217.692 383.752V411.256C217.692 411.896 217.74 412.472 217.836 412.984C217.932 413.496 218.108 413.928 218.364 414.28C218.652 414.632 219.052 414.92 219.564 415.144C220.076 415.368 220.764 415.512 221.628 415.576L220.62 421.48ZM75.4611 476.672C70.0531 476.672 65.9251 475.168 63.0771 472.16C60.2611 469.152 58.8531 464.88 58.8531 459.344C58.8531 456.592 59.2851 454.144 60.1491 452C61.0131 449.824 62.1971 448 63.7011 446.528C65.2051 445.024 66.9971 443.888 69.0771 443.12C71.1571 442.352 73.4131 441.968 75.8451 441.968C77.2531 441.968 78.5331 442.08 79.6851 442.304C80.8371 442.496 81.8451 442.736 82.7091 443.024C83.5731 443.28 84.2931 443.552 84.8691 443.84C85.4451 444.128 85.8611 444.352 86.1171 444.512L83.9571 450.56C82.9331 450.016 81.7331 449.552 80.3571 449.168C79.0131 448.784 77.4771 448.592 75.7491 448.592C74.5971 448.592 73.4611 448.784 72.3411 449.168C71.2531 449.552 70.2771 450.176 69.4131 451.04C68.5811 451.872 67.9091 452.96 67.3971 454.304C66.8851 455.648 66.6291 457.28 66.6291 459.2C66.6291 460.736 66.7891 462.176 67.1091 463.52C67.4611 464.832 68.0051 465.968 68.7411 466.928C69.5091 467.888 70.5011 468.656 71.7171 469.232C72.9331 469.776 74.4051 470.048 76.1331 470.048C77.2211 470.048 78.1971 469.984 79.0611 469.856C79.9251 469.728 80.6931 469.584 81.3651 469.424C82.0371 469.232 82.6291 469.024 83.1411 468.8C83.6531 468.576 84.1171 468.368 84.5331 468.176L86.5971 474.176C85.5411 474.816 84.0531 475.392 82.1331 475.904C80.2131 476.416 77.9891 476.672 75.4611 476.672ZM98.0901 476H90.9381V450.752H98.0901V476ZM98.7621 443.456C98.7621 444.768 98.3301 445.808 97.4661 446.576C96.6341 447.312 95.6421 447.68 94.4901 447.68C93.3381 447.68 92.3301 447.312 91.4661 446.576C90.6341 445.808 90.2181 444.768 90.2181 443.456C90.2181 442.144 90.6341 441.12 91.4661 440.384C92.3301 439.616 93.3381 439.232 94.4901 439.232C95.6421 439.232 96.6341 439.616 97.4661 440.384C98.3301 441.12 98.7621 442.144 98.7621 443.456ZM104.573 444.464L111.725 443.312V450.752H120.317V456.704H111.725V465.584C111.725 467.088 111.981 468.288 112.493 469.184C113.037 470.08 114.109 470.528 115.709 470.528C116.477 470.528 117.261 470.464 118.061 470.336C118.893 470.176 119.645 469.968 120.317 469.712L121.325 475.28C120.461 475.632 119.501 475.936 118.445 476.192C117.389 476.448 116.093 476.576 114.557 476.576C112.605 476.576 110.989 476.32 109.709 475.808C108.429 475.264 107.405 474.528 106.637 473.6C105.869 472.64 105.325 471.488 105.005 470.144C104.717 468.8 104.573 467.312 104.573 465.68V444.464ZM133.293 476H126.141V450.752H133.293V476ZM133.965 443.456C133.965 444.768 133.533 445.808 132.669 446.576C131.837 447.312 130.845 447.68 129.693 447.68C128.541 447.68 127.533 447.312 126.669 446.576C125.837 445.808 125.421 444.768 125.421 443.456C125.421 442.144 125.837 441.12 126.669 440.384C127.533 439.616 128.541 439.232 129.693 439.232C130.845 439.232 131.837 439.616 132.669 440.384C133.533 441.12 133.965 442.144 133.965 443.456ZM158.976 455.552C158.4 456.192 157.616 457.056 156.624 458.144C155.664 459.232 154.624 460.432 153.504 461.744C152.384 463.056 151.248 464.432 150.096 465.872C148.976 467.312 147.952 468.704 147.024 470.048H159.216V476H138.336V471.776C139.008 470.624 139.808 469.392 140.736 468.08C141.696 466.736 142.688 465.392 143.712 464.048C144.768 462.704 145.808 461.408 146.832 460.16C147.856 458.88 148.8 457.728 149.664 456.704H138.912V450.752H158.976V455.552ZM162.113 463.568C162.113 461.328 162.449 459.376 163.121 457.712C163.825 456.016 164.737 454.608 165.857 453.488C166.977 452.368 168.257 451.52 169.697 450.944C171.169 450.368 172.673 450.08 174.209 450.08C177.793 450.08 180.625 451.184 182.705 453.392C184.785 455.568 185.825 458.784 185.825 463.04C185.825 463.456 185.809 463.92 185.777 464.432C185.745 464.912 185.713 465.344 185.681 465.728H169.457C169.617 467.2 170.305 468.368 171.521 469.232C172.737 470.096 174.369 470.528 176.417 470.528C177.729 470.528 179.009 470.416 180.257 470.192C181.537 469.936 182.577 469.632 183.377 469.28L184.337 475.088C183.953 475.28 183.441 475.472 182.801 475.664C182.161 475.856 181.441 476.016 180.641 476.144C179.873 476.304 179.041 476.432 178.145 476.528C177.249 476.624 176.353 476.672 175.457 476.672C173.185 476.672 171.201 476.336 169.505 475.664C167.841 474.992 166.449 474.08 165.329 472.928C164.241 471.744 163.425 470.352 162.881 468.752C162.369 467.152 162.113 465.424 162.113 463.568ZM178.913 460.832C178.881 460.224 178.769 459.632 178.577 459.056C178.417 458.48 178.145 457.968 177.761 457.52C177.409 457.072 176.945 456.704 176.369 456.416C175.825 456.128 175.137 455.984 174.305 455.984C173.505 455.984 172.817 456.128 172.241 456.416C171.665 456.672 171.185 457.024 170.801 457.472C170.417 457.92 170.113 458.448 169.889 459.056C169.697 459.632 169.553 460.224 169.457 460.832H178.913ZM191.344 451.616C192.56 451.264 194.128 450.944 196.048 450.656C197.968 450.336 199.984 450.176 202.096 450.176C204.24 450.176 206.016 450.464 207.424 451.04C208.864 451.584 210 452.368 210.832 453.392C211.664 454.416 212.256 455.632 212.608 457.04C212.96 458.448 213.136 460.016 213.136 461.744V476H205.984V462.608C205.984 460.304 205.68 458.672 205.072 457.712C204.464 456.752 203.328 456.272 201.664 456.272C201.152 456.272 200.608 456.304 200.032 456.368C199.456 456.4 198.944 456.448 198.496 456.512V476H191.344V451.616ZM226.858 470.864C228.17 470.864 229.098 470.736 229.642 470.48C230.186 470.224 230.458 469.728 230.458 468.992C230.458 468.416 230.106 467.92 229.402 467.504C228.698 467.056 227.626 466.56 226.186 466.016C225.066 465.6 224.042 465.168 223.114 464.72C222.218 464.272 221.45 463.744 220.81 463.136C220.17 462.496 219.674 461.744 219.322 460.88C218.97 460.016 218.794 458.976 218.794 457.76C218.794 455.392 219.674 453.52 221.434 452.144C223.194 450.768 225.61 450.08 228.682 450.08C230.218 450.08 231.69 450.224 233.098 450.512C234.506 450.768 235.626 451.056 236.458 451.376L235.21 456.944C234.378 456.656 233.466 456.4 232.474 456.176C231.514 455.952 230.426 455.84 229.21 455.84C226.97 455.84 225.85 456.464 225.85 457.712C225.85 458 225.898 458.256 225.994 458.48C226.09 458.704 226.282 458.928 226.57 459.152C226.858 459.344 227.242 459.568 227.722 459.824C228.234 460.048 228.874 460.304 229.642 460.592C231.21 461.168 232.506 461.744 233.53 462.32C234.554 462.864 235.354 463.472 235.93 464.144C236.538 464.784 236.954 465.504 237.178 466.304C237.434 467.104 237.562 468.032 237.562 469.088C237.562 471.584 236.618 473.472 234.73 474.752C232.874 476.032 230.234 476.672 226.81 476.672C224.57 476.672 222.698 476.48 221.194 476.096C219.722 475.712 218.698 475.392 218.122 475.136L219.322 469.328C220.538 469.808 221.786 470.192 223.066 470.48C224.346 470.736 225.61 470.864 226.858 470.864Z" fill="url(#paint0_linear_282_256)"/>
</g>
<g filter="url(#filter1_d_282_256)">
<rect x="231" y="81" width="191" height="182" rx="20" fill="white"/>
<path d="M255.894 145.976C252.063 145.976 249.139 144.911 247.122 142.78C245.127 140.649 244.13 137.623 244.13 133.702C244.13 131.753 244.436 130.019 245.048 128.5C245.66 126.959 246.498 125.667 247.564 124.624C248.629 123.559 249.898 122.754 251.372 122.21C252.845 121.666 254.443 121.394 256.166 121.394C257.163 121.394 258.07 121.473 258.886 121.632C259.702 121.768 260.416 121.938 261.028 122.142C261.64 122.323 262.15 122.516 262.558 122.72C262.966 122.924 263.26 123.083 263.442 123.196L261.912 127.48C261.186 127.095 260.336 126.766 259.362 126.494C258.41 126.222 257.322 126.086 256.098 126.086C255.282 126.086 254.477 126.222 253.684 126.494C252.913 126.766 252.222 127.208 251.61 127.82C251.02 128.409 250.544 129.18 250.182 130.132C249.819 131.084 249.638 132.24 249.638 133.6C249.638 134.688 249.751 135.708 249.978 136.66C250.227 137.589 250.612 138.394 251.134 139.074C251.678 139.754 252.38 140.298 253.242 140.706C254.103 141.091 255.146 141.284 256.37 141.284C257.14 141.284 257.832 141.239 258.444 141.148C259.056 141.057 259.6 140.955 260.076 140.842C260.552 140.706 260.971 140.559 261.334 140.4C261.696 140.241 262.025 140.094 262.32 139.958L263.782 144.208C263.034 144.661 261.98 145.069 260.62 145.432C259.26 145.795 257.684 145.976 255.894 145.976ZM277.635 132.104C277.181 131.991 276.649 131.877 276.037 131.764C275.425 131.628 274.767 131.56 274.065 131.56C273.747 131.56 273.362 131.594 272.909 131.662C272.478 131.707 272.149 131.764 271.923 131.832V145.5H266.857V128.568C267.763 128.251 268.829 127.956 270.053 127.684C271.299 127.389 272.682 127.242 274.201 127.242C274.473 127.242 274.801 127.265 275.187 127.31C275.572 127.333 275.957 127.378 276.343 127.446C276.728 127.491 277.113 127.559 277.499 127.65C277.884 127.718 278.213 127.809 278.485 127.922L277.635 132.104ZM280.018 136.694C280.018 135.107 280.256 133.725 280.732 132.546C281.231 131.345 281.877 130.347 282.67 129.554C283.464 128.761 284.37 128.16 285.39 127.752C286.433 127.344 287.498 127.14 288.586 127.14C291.125 127.14 293.131 127.922 294.604 129.486C296.078 131.027 296.814 133.305 296.814 136.32C296.814 136.615 296.803 136.943 296.78 137.306C296.758 137.646 296.735 137.952 296.712 138.224H285.22C285.334 139.267 285.821 140.094 286.682 140.706C287.544 141.318 288.7 141.624 290.15 141.624C291.08 141.624 291.986 141.545 292.87 141.386C293.777 141.205 294.514 140.989 295.08 140.74L295.76 144.854C295.488 144.99 295.126 145.126 294.672 145.262C294.219 145.398 293.709 145.511 293.142 145.602C292.598 145.715 292.009 145.806 291.374 145.874C290.74 145.942 290.105 145.976 289.47 145.976C287.861 145.976 286.456 145.738 285.254 145.262C284.076 144.786 283.09 144.14 282.296 143.324C281.526 142.485 280.948 141.499 280.562 140.366C280.2 139.233 280.018 138.009 280.018 136.694ZM291.918 134.756C291.896 134.325 291.816 133.906 291.68 133.498C291.567 133.09 291.374 132.727 291.102 132.41C290.853 132.093 290.524 131.832 290.116 131.628C289.731 131.424 289.244 131.322 288.654 131.322C288.088 131.322 287.6 131.424 287.192 131.628C286.784 131.809 286.444 132.059 286.172 132.376C285.9 132.693 285.685 133.067 285.526 133.498C285.39 133.906 285.288 134.325 285.22 134.756H291.918ZM307.558 141.964C308.056 141.964 308.532 141.953 308.986 141.93C309.439 141.907 309.802 141.873 310.074 141.828V137.986C309.87 137.941 309.564 137.895 309.156 137.85C308.748 137.805 308.374 137.782 308.034 137.782C307.558 137.782 307.104 137.816 306.674 137.884C306.266 137.929 305.903 138.031 305.586 138.19C305.268 138.349 305.019 138.564 304.838 138.836C304.656 139.108 304.566 139.448 304.566 139.856C304.566 140.649 304.826 141.205 305.348 141.522C305.892 141.817 306.628 141.964 307.558 141.964ZM307.15 127.14C308.646 127.14 309.892 127.31 310.89 127.65C311.887 127.99 312.68 128.477 313.27 129.112C313.882 129.747 314.312 130.517 314.562 131.424C314.811 132.331 314.936 133.339 314.936 134.45V144.99C314.21 145.149 313.202 145.33 311.91 145.534C310.618 145.761 309.054 145.874 307.218 145.874C306.062 145.874 305.008 145.772 304.056 145.568C303.126 145.364 302.322 145.035 301.642 144.582C300.962 144.106 300.44 143.494 300.078 142.746C299.715 141.998 299.534 141.08 299.534 139.992C299.534 138.949 299.738 138.065 300.146 137.34C300.576 136.615 301.143 136.037 301.846 135.606C302.548 135.175 303.353 134.869 304.26 134.688C305.166 134.484 306.107 134.382 307.082 134.382C307.739 134.382 308.317 134.416 308.816 134.484C309.337 134.529 309.756 134.597 310.074 134.688V134.212C310.074 133.351 309.813 132.659 309.292 132.138C308.77 131.617 307.864 131.356 306.572 131.356C305.71 131.356 304.86 131.424 304.022 131.56C303.183 131.673 302.458 131.843 301.846 132.07L301.2 127.99C301.494 127.899 301.857 127.809 302.288 127.718C302.741 127.605 303.228 127.514 303.75 127.446C304.271 127.355 304.815 127.287 305.382 127.242C305.971 127.174 306.56 127.14 307.15 127.14ZM319.347 123.162L324.413 122.346V127.616H330.499V131.832H324.413V138.122C324.413 139.187 324.594 140.037 324.957 140.672C325.342 141.307 326.101 141.624 327.235 141.624C327.779 141.624 328.334 141.579 328.901 141.488C329.49 141.375 330.023 141.227 330.499 141.046L331.213 144.99C330.601 145.239 329.921 145.455 329.173 145.636C328.425 145.817 327.507 145.908 326.419 145.908C325.036 145.908 323.891 145.727 322.985 145.364C322.078 144.979 321.353 144.457 320.809 143.8C320.265 143.12 319.879 142.304 319.653 141.352C319.449 140.4 319.347 139.346 319.347 138.19V123.162ZM339.69 145.5H334.624V127.616H339.69V145.5ZM340.166 122.448C340.166 123.377 339.86 124.114 339.248 124.658C338.659 125.179 337.956 125.44 337.14 125.44C336.324 125.44 335.61 125.179 334.998 124.658C334.409 124.114 334.114 123.377 334.114 122.448C334.114 121.519 334.409 120.793 334.998 120.272C335.61 119.728 336.324 119.456 337.14 119.456C337.956 119.456 338.659 119.728 339.248 120.272C339.86 120.793 340.166 121.519 340.166 122.448ZM348.783 145.5C347.627 143.233 346.448 140.581 345.247 137.544C344.068 134.507 342.946 131.197 341.881 127.616H347.253C347.48 128.5 347.74 129.463 348.035 130.506C348.352 131.526 348.67 132.569 348.987 133.634C349.327 134.677 349.656 135.697 349.973 136.694C350.313 137.691 350.642 138.598 350.959 139.414C351.254 138.598 351.571 137.691 351.911 136.694C352.251 135.697 352.58 134.677 352.897 133.634C353.237 132.569 353.554 131.526 353.849 130.506C354.166 129.463 354.438 128.5 354.665 127.616H359.901C358.836 131.197 357.702 134.507 356.501 137.544C355.322 140.581 354.155 143.233 352.999 145.5H348.783ZM367.68 145.5H362.614V127.616H367.68V145.5ZM368.156 122.448C368.156 123.377 367.85 124.114 367.238 124.658C366.649 125.179 365.946 125.44 365.13 125.44C364.314 125.44 363.6 125.179 362.988 124.658C362.399 124.114 362.104 123.377 362.104 122.448C362.104 121.519 362.399 120.793 362.988 120.272C363.6 119.728 364.314 119.456 365.13 119.456C365.946 119.456 366.649 119.728 367.238 120.272C367.85 120.793 368.156 121.519 368.156 122.448ZM372.273 123.162L377.339 122.346V127.616H383.425V131.832H377.339V138.122C377.339 139.187 377.52 140.037 377.883 140.672C378.268 141.307 379.027 141.624 380.161 141.624C380.705 141.624 381.26 141.579 381.827 141.488C382.416 141.375 382.949 141.227 383.425 141.046L384.139 144.99C383.527 145.239 382.847 145.455 382.099 145.636C381.351 145.817 380.433 145.908 379.345 145.908C377.962 145.908 376.817 145.727 375.911 145.364C375.004 144.979 374.279 144.457 373.735 143.8C373.191 143.12 372.805 142.304 372.579 141.352C372.375 140.4 372.273 139.346 372.273 138.19V123.162ZM403.76 127.616C402.74 131.061 401.675 134.291 400.564 137.306C399.453 140.321 398.241 143.245 396.926 146.078C396.45 147.098 395.974 147.959 395.498 148.662C395.022 149.387 394.501 149.977 393.934 150.43C393.367 150.906 392.721 151.246 391.996 151.45C391.293 151.677 390.466 151.79 389.514 151.79C388.721 151.79 387.984 151.711 387.304 151.552C386.647 151.416 386.103 151.257 385.672 151.076L386.556 147.03C387.077 147.211 387.542 147.336 387.95 147.404C388.358 147.472 388.789 147.506 389.242 147.506C390.149 147.506 390.84 147.257 391.316 146.758C391.815 146.282 392.234 145.613 392.574 144.752C391.418 142.485 390.262 139.947 389.106 137.136C387.95 134.303 386.862 131.129 385.842 127.616H391.214C391.441 128.5 391.701 129.463 391.996 130.506C392.313 131.526 392.642 132.569 392.982 133.634C393.322 134.677 393.662 135.697 394.002 136.694C394.365 137.691 394.705 138.598 395.022 139.414C395.317 138.598 395.623 137.691 395.94 136.694C396.257 135.697 396.563 134.677 396.858 133.634C397.175 132.569 397.47 131.526 397.742 130.506C398.037 129.463 398.297 128.5 398.524 127.616H403.76ZM409.377 140.332C409.422 140.876 409.445 141.261 409.445 141.488C409.468 141.715 409.479 141.907 409.479 142.066C409.479 142.746 409.411 143.471 409.275 144.242C409.162 144.99 408.992 145.749 408.765 146.52C408.538 147.291 408.255 148.061 407.915 148.832C407.575 149.603 407.19 150.339 406.759 151.042L402.781 150.056C403.302 148.56 403.665 147.155 403.869 145.84C404.073 144.525 404.175 143.437 404.175 142.576C404.175 142.44 404.164 142.27 404.141 142.066C404.141 141.839 404.13 141.613 404.107 141.386C404.107 141.159 404.096 140.944 404.073 140.74C404.073 140.536 404.073 140.4 404.073 140.332H409.377ZM277.71 184.5C277.461 183.684 277.177 182.845 276.86 181.984C276.565 181.123 276.271 180.261 275.976 179.4H266.796C266.501 180.261 266.195 181.123 265.878 181.984C265.583 182.845 265.311 183.684 265.062 184.5H259.554C260.438 181.961 261.277 179.615 262.07 177.462C262.863 175.309 263.634 173.28 264.382 171.376C265.153 169.472 265.901 167.67 266.626 165.97C267.374 164.247 268.145 162.57 268.938 160.938H274.004C274.775 162.57 275.534 164.247 276.282 165.97C277.03 167.67 277.778 169.472 278.526 171.376C279.297 173.28 280.079 175.309 280.872 177.462C281.665 179.615 282.504 181.961 283.388 184.5H277.71ZM271.352 166.276C271.239 166.616 271.069 167.081 270.842 167.67C270.615 168.259 270.355 168.939 270.06 169.71C269.765 170.481 269.437 171.331 269.074 172.26C268.734 173.189 268.383 174.164 268.02 175.184H274.718C274.355 174.164 274.004 173.189 273.664 172.26C273.324 171.331 272.995 170.481 272.678 169.71C272.383 168.939 272.123 168.259 271.896 167.67C271.669 167.081 271.488 166.616 271.352 166.276ZM284.883 175.558C284.883 174.266 285.087 173.053 285.495 171.92C285.925 170.764 286.537 169.767 287.331 168.928C288.124 168.067 289.087 167.387 290.221 166.888C291.354 166.389 292.646 166.14 294.097 166.14C295.049 166.14 295.921 166.231 296.715 166.412C297.508 166.571 298.279 166.809 299.027 167.126L297.973 171.172C297.497 170.991 296.975 170.832 296.409 170.696C295.842 170.56 295.207 170.492 294.505 170.492C293.009 170.492 291.887 170.957 291.139 171.886C290.413 172.815 290.051 174.039 290.051 175.558C290.051 177.167 290.391 178.414 291.071 179.298C291.773 180.182 292.986 180.624 294.709 180.624C295.321 180.624 295.978 180.567 296.681 180.454C297.383 180.341 298.029 180.159 298.619 179.91L299.333 184.058C298.743 184.307 298.007 184.523 297.123 184.704C296.239 184.885 295.264 184.976 294.199 184.976C292.567 184.976 291.161 184.738 289.983 184.262C288.804 183.763 287.829 183.095 287.059 182.256C286.311 181.417 285.755 180.431 285.393 179.298C285.053 178.142 284.883 176.895 284.883 175.558ZM302.563 162.162L307.629 161.346V166.616H313.715V170.832H307.629V177.122C307.629 178.187 307.81 179.037 308.173 179.672C308.558 180.307 309.317 180.624 310.451 180.624C310.995 180.624 311.55 180.579 312.117 180.488C312.706 180.375 313.239 180.227 313.715 180.046L314.429 183.99C313.817 184.239 313.137 184.455 312.389 184.636C311.641 184.817 310.723 184.908 309.635 184.908C308.252 184.908 307.107 184.727 306.201 184.364C305.294 183.979 304.569 183.457 304.025 182.8C303.481 182.12 303.095 181.304 302.869 180.352C302.665 179.4 302.563 178.346 302.563 177.19V162.162ZM322.906 184.5H317.84V166.616H322.906V184.5ZM323.382 161.448C323.382 162.377 323.076 163.114 322.464 163.658C321.875 164.179 321.172 164.44 320.356 164.44C319.54 164.44 318.826 164.179 318.214 163.658C317.625 163.114 317.33 162.377 317.33 161.448C317.33 160.519 317.625 159.793 318.214 159.272C318.826 158.728 319.54 158.456 320.356 158.456C321.172 158.456 321.875 158.728 322.464 159.272C323.076 159.793 323.382 160.519 323.382 161.448ZM331.999 184.5C330.843 182.233 329.664 179.581 328.463 176.544C327.284 173.507 326.162 170.197 325.097 166.616H330.469C330.696 167.5 330.956 168.463 331.251 169.506C331.568 170.526 331.886 171.569 332.203 172.634C332.543 173.677 332.872 174.697 333.189 175.694C333.529 176.691 333.858 177.598 334.175 178.414C334.47 177.598 334.787 176.691 335.127 175.694C335.467 174.697 335.796 173.677 336.113 172.634C336.453 171.569 336.77 170.526 337.065 169.506C337.382 168.463 337.654 167.5 337.881 166.616H343.117C342.052 170.197 340.918 173.507 339.717 176.544C338.538 179.581 337.371 182.233 336.215 184.5H331.999ZM350.896 184.5H345.83V166.616H350.896V184.5ZM351.372 161.448C351.372 162.377 351.066 163.114 350.454 163.658C349.865 164.179 349.162 164.44 348.346 164.44C347.53 164.44 346.816 164.179 346.204 163.658C345.615 163.114 345.32 162.377 345.32 161.448C345.32 160.519 345.615 159.793 346.204 159.272C346.816 158.728 347.53 158.456 348.346 158.456C349.162 158.456 349.865 158.728 350.454 159.272C351.066 159.793 351.372 160.519 351.372 161.448ZM355.488 162.162L360.554 161.346V166.616H366.64V170.832H360.554V177.122C360.554 178.187 360.736 179.037 361.098 179.672C361.484 180.307 362.243 180.624 363.376 180.624C363.92 180.624 364.476 180.579 365.042 180.488C365.632 180.375 366.164 180.227 366.64 180.046L367.354 183.99C366.742 184.239 366.062 184.455 365.314 184.636C364.566 184.817 363.648 184.908 362.56 184.908C361.178 184.908 360.033 184.727 359.126 184.364C358.22 183.979 357.494 183.457 356.95 182.8C356.406 182.12 356.021 181.304 355.794 180.352C355.59 179.4 355.488 178.346 355.488 177.19V162.162ZM386.976 166.616C385.956 170.061 384.89 173.291 383.78 176.306C382.669 179.321 381.456 182.245 380.142 185.078C379.666 186.098 379.19 186.959 378.714 187.662C378.238 188.387 377.716 188.977 377.15 189.43C376.583 189.906 375.937 190.246 375.212 190.45C374.509 190.677 373.682 190.79 372.73 190.79C371.936 190.79 371.2 190.711 370.52 190.552C369.862 190.416 369.318 190.257 368.888 190.076L369.772 186.03C370.293 186.211 370.758 186.336 371.166 186.404C371.574 186.472 372.004 186.506 372.458 186.506C373.364 186.506 374.056 186.257 374.532 185.758C375.03 185.282 375.45 184.613 375.79 183.752C374.634 181.485 373.478 178.947 372.322 176.136C371.166 173.303 370.078 170.129 369.058 166.616H374.43C374.656 167.5 374.917 168.463 375.212 169.506C375.529 170.526 375.858 171.569 376.198 172.634C376.538 173.677 376.878 174.697 377.218 175.694C377.58 176.691 377.92 177.598 378.238 178.414C378.532 177.598 378.838 176.691 379.156 175.694C379.473 174.697 379.779 173.677 380.074 172.634C380.391 171.569 380.686 170.526 380.958 169.506C381.252 168.463 381.513 167.5 381.74 166.616H386.976ZM392.593 179.332C392.638 179.876 392.661 180.261 392.661 180.488C392.684 180.715 392.695 180.907 392.695 181.066C392.695 181.746 392.627 182.471 392.491 183.242C392.378 183.99 392.208 184.749 391.981 185.52C391.754 186.291 391.471 187.061 391.131 187.832C390.791 188.603 390.406 189.339 389.975 190.042L385.997 189.056C386.518 187.56 386.881 186.155 387.085 184.84C387.289 183.525 387.391 182.437 387.391 181.576C387.391 181.44 387.38 181.27 387.357 181.066C387.357 180.839 387.346 180.613 387.323 180.386C387.323 180.159 387.312 179.944 387.289 179.74C387.289 179.536 387.289 179.4 387.289 179.332H392.593ZM275.864 219.454C276.612 219.454 277.224 219.397 277.7 219.284C278.198 219.148 278.595 218.978 278.89 218.774C279.184 218.547 279.388 218.287 279.502 217.992C279.615 217.697 279.672 217.369 279.672 217.006C279.672 216.235 279.309 215.601 278.584 215.102C277.858 214.581 276.612 214.025 274.844 213.436C274.073 213.164 273.302 212.858 272.532 212.518C271.761 212.155 271.07 211.713 270.458 211.192C269.846 210.648 269.347 210.002 268.962 209.254C268.576 208.483 268.384 207.554 268.384 206.466C268.384 205.378 268.588 204.403 268.996 203.542C269.404 202.658 269.982 201.91 270.73 201.298C271.478 200.686 272.384 200.221 273.45 199.904C274.515 199.564 275.716 199.394 277.054 199.394C278.64 199.394 280.012 199.564 281.168 199.904C282.324 200.244 283.276 200.618 284.024 201.026L282.494 205.208C281.836 204.868 281.1 204.573 280.284 204.324C279.49 204.052 278.527 203.916 277.394 203.916C276.124 203.916 275.206 204.097 274.64 204.46C274.096 204.8 273.824 205.333 273.824 206.058C273.824 206.489 273.926 206.851 274.13 207.146C274.334 207.441 274.617 207.713 274.98 207.962C275.365 208.189 275.796 208.404 276.272 208.608C276.77 208.789 277.314 208.982 277.904 209.186C279.128 209.639 280.193 210.093 281.1 210.546C282.006 210.977 282.754 211.487 283.344 212.076C283.956 212.665 284.409 213.357 284.704 214.15C284.998 214.943 285.146 215.907 285.146 217.04C285.146 219.239 284.375 220.95 282.834 222.174C281.292 223.375 278.969 223.976 275.864 223.976C274.821 223.976 273.88 223.908 273.042 223.772C272.203 223.659 271.455 223.511 270.798 223.33C270.163 223.149 269.608 222.956 269.132 222.752C268.678 222.548 268.293 222.355 267.976 222.174L269.472 217.958C270.174 218.343 271.036 218.695 272.056 219.012C273.098 219.307 274.368 219.454 275.864 219.454ZM288.037 214.694C288.037 213.107 288.275 211.725 288.751 210.546C289.25 209.345 289.896 208.347 290.689 207.554C291.482 206.761 292.389 206.16 293.409 205.752C294.452 205.344 295.517 205.14 296.605 205.14C299.144 205.14 301.15 205.922 302.623 207.486C304.096 209.027 304.833 211.305 304.833 214.32C304.833 214.615 304.822 214.943 304.799 215.306C304.776 215.646 304.754 215.952 304.731 216.224H293.239C293.352 217.267 293.84 218.094 294.701 218.706C295.562 219.318 296.718 219.624 298.169 219.624C299.098 219.624 300.005 219.545 300.889 219.386C301.796 219.205 302.532 218.989 303.099 218.74L303.779 222.854C303.507 222.99 303.144 223.126 302.691 223.262C302.238 223.398 301.728 223.511 301.161 223.602C300.617 223.715 300.028 223.806 299.393 223.874C298.758 223.942 298.124 223.976 297.489 223.976C295.88 223.976 294.474 223.738 293.273 223.262C292.094 222.786 291.108 222.14 290.315 221.324C289.544 220.485 288.966 219.499 288.581 218.366C288.218 217.233 288.037 216.009 288.037 214.694ZM299.937 212.756C299.914 212.325 299.835 211.906 299.699 211.498C299.586 211.09 299.393 210.727 299.121 210.41C298.872 210.093 298.543 209.832 298.135 209.628C297.75 209.424 297.262 209.322 296.673 209.322C296.106 209.322 295.619 209.424 295.211 209.628C294.803 209.809 294.463 210.059 294.191 210.376C293.919 210.693 293.704 211.067 293.545 211.498C293.409 211.906 293.307 212.325 293.239 212.756H299.937ZM319.52 210.104C319.067 209.991 318.534 209.877 317.922 209.764C317.31 209.628 316.653 209.56 315.95 209.56C315.633 209.56 315.248 209.594 314.794 209.662C314.364 209.707 314.035 209.764 313.808 209.832V223.5H308.742V206.568C309.649 206.251 310.714 205.956 311.938 205.684C313.185 205.389 314.568 205.242 316.086 205.242C316.358 205.242 316.687 205.265 317.072 205.31C317.458 205.333 317.843 205.378 318.228 205.446C318.614 205.491 318.999 205.559 319.384 205.65C319.77 205.718 320.098 205.809 320.37 205.922L319.52 210.104ZM329.011 223.5C327.855 221.233 326.676 218.581 325.475 215.544C324.296 212.507 323.174 209.197 322.109 205.616H327.481C327.707 206.5 327.968 207.463 328.263 208.506C328.58 209.526 328.897 210.569 329.215 211.634C329.555 212.677 329.883 213.697 330.201 214.694C330.541 215.691 330.869 216.598 331.187 217.414C331.481 216.598 331.799 215.691 332.139 214.694C332.479 213.697 332.807 212.677 333.125 211.634C333.465 210.569 333.782 209.526 334.077 208.506C334.394 207.463 334.666 206.5 334.893 205.616H340.129C339.063 209.197 337.93 212.507 336.729 215.544C335.55 218.581 334.383 221.233 333.227 223.5H329.011ZM347.908 223.5H342.842V205.616H347.908V223.5ZM348.384 200.448C348.384 201.377 348.078 202.114 347.466 202.658C346.877 203.179 346.174 203.44 345.358 203.44C344.542 203.44 343.828 203.179 343.216 202.658C342.627 202.114 342.332 201.377 342.332 200.448C342.332 199.519 342.627 198.793 343.216 198.272C343.828 197.728 344.542 197.456 345.358 197.456C346.174 197.456 346.877 197.728 347.466 198.272C348.078 198.793 348.384 199.519 348.384 200.448ZM351.82 214.558C351.82 213.266 352.024 212.053 352.432 210.92C352.863 209.764 353.475 208.767 354.268 207.928C355.061 207.067 356.025 206.387 357.158 205.888C358.291 205.389 359.583 205.14 361.034 205.14C361.986 205.14 362.859 205.231 363.652 205.412C364.445 205.571 365.216 205.809 365.964 206.126L364.91 210.172C364.434 209.991 363.913 209.832 363.346 209.696C362.779 209.56 362.145 209.492 361.442 209.492C359.946 209.492 358.824 209.957 358.076 210.886C357.351 211.815 356.988 213.039 356.988 214.558C356.988 216.167 357.328 217.414 358.008 218.298C358.711 219.182 359.923 219.624 361.646 219.624C362.258 219.624 362.915 219.567 363.618 219.454C364.321 219.341 364.967 219.159 365.556 218.91L366.27 223.058C365.681 223.307 364.944 223.523 364.06 223.704C363.176 223.885 362.201 223.976 361.136 223.976C359.504 223.976 358.099 223.738 356.92 223.262C355.741 222.763 354.767 222.095 353.996 221.256C353.248 220.417 352.693 219.431 352.33 218.298C351.99 217.142 351.82 215.895 351.82 214.558ZM367.957 214.694C367.957 213.107 368.195 211.725 368.671 210.546C369.169 209.345 369.815 208.347 370.609 207.554C371.402 206.761 372.309 206.16 373.329 205.752C374.371 205.344 375.437 205.14 376.525 205.14C379.063 205.14 381.069 205.922 382.543 207.486C384.016 209.027 384.753 211.305 384.753 214.32C384.753 214.615 384.741 214.943 384.719 215.306C384.696 215.646 384.673 215.952 384.651 216.224H373.159C373.272 217.267 373.759 218.094 374.621 218.706C375.482 219.318 376.638 219.624 378.089 219.624C379.018 219.624 379.925 219.545 380.809 219.386C381.715 219.205 382.452 218.989 383.019 218.74L383.699 222.854C383.427 222.99 383.064 223.126 382.611 223.262C382.157 223.398 381.647 223.511 381.081 223.602C380.537 223.715 379.947 223.806 379.313 223.874C378.678 223.942 378.043 223.976 377.409 223.976C375.799 223.976 374.394 223.738 373.193 223.262C372.014 222.786 371.028 222.14 370.235 221.324C369.464 220.485 368.886 219.499 368.501 218.366C368.138 217.233 367.957 216.009 367.957 214.694ZM379.857 212.756C379.834 212.325 379.755 211.906 379.619 211.498C379.505 211.09 379.313 210.727 379.041 210.41C378.791 210.093 378.463 209.832 378.055 209.628C377.669 209.424 377.182 209.322 376.593 209.322C376.026 209.322 375.539 209.424 375.131 209.628C374.723 209.809 374.383 210.059 374.111 210.376C373.839 210.693 373.623 211.067 373.465 211.498C373.329 211.906 373.227 212.325 373.159 212.756H379.857Z" fill="url(#paint1_linear_282_256)"/>
</g>
<g filter="url(#filter2_d_282_256)">
<rect x="561" y="98" width="180" height="180" rx="20" fill="white"/>
<path d="M598.11 180.56C593.603 180.56 590.163 179.307 587.79 176.8C585.443 174.293 584.27 170.733 584.27 166.12C584.27 163.827 584.63 161.787 585.35 160C586.07 158.187 587.056 156.667 588.31 155.44C589.563 154.187 591.056 153.24 592.79 152.6C594.523 151.96 596.403 151.64 598.43 151.64C599.603 151.64 600.67 151.733 601.63 151.92C602.59 152.08 603.43 152.28 604.15 152.52C604.87 152.733 605.47 152.96 605.95 153.2C606.43 153.44 606.776 153.627 606.99 153.76L605.19 158.8C604.336 158.347 603.336 157.96 602.19 157.64C601.07 157.32 599.79 157.16 598.35 157.16C597.39 157.16 596.443 157.32 595.51 157.64C594.603 157.96 593.79 158.48 593.07 159.2C592.376 159.893 591.816 160.8 591.39 161.92C590.963 163.04 590.75 164.4 590.75 166C590.75 167.28 590.883 168.48 591.15 169.6C591.443 170.693 591.896 171.64 592.51 172.44C593.15 173.24 593.976 173.88 594.99 174.36C596.003 174.813 597.23 175.04 598.67 175.04C599.576 175.04 600.39 174.987 601.11 174.88C601.83 174.773 602.47 174.653 603.03 174.52C603.59 174.36 604.083 174.187 604.51 174C604.936 173.813 605.323 173.64 605.67 173.48L607.39 178.48C606.51 179.013 605.27 179.493 603.67 179.92C602.07 180.347 600.216 180.56 598.11 180.56ZM623.687 164.24C623.154 164.107 622.527 163.973 621.807 163.84C621.087 163.68 620.314 163.6 619.487 163.6C619.114 163.6 618.66 163.64 618.127 163.72C617.62 163.773 617.234 163.84 616.967 163.92V180H611.007V160.08C612.074 159.707 613.327 159.36 614.767 159.04C616.234 158.693 617.86 158.52 619.647 158.52C619.967 158.52 620.354 158.547 620.807 158.6C621.26 158.627 621.714 158.68 622.167 158.76C622.62 158.813 623.074 158.893 623.527 159C623.98 159.08 624.367 159.187 624.687 159.32L623.687 164.24ZM633.842 180H627.882V158.96H633.842V180ZM634.402 152.88C634.402 153.973 634.042 154.84 633.322 155.48C632.629 156.093 631.802 156.4 630.842 156.4C629.882 156.4 629.042 156.093 628.322 155.48C627.629 154.84 627.282 153.973 627.282 152.88C627.282 151.787 627.629 150.933 628.322 150.32C629.042 149.68 629.882 149.36 630.842 149.36C631.802 149.36 632.629 149.68 633.322 150.32C634.042 150.933 634.402 151.787 634.402 152.88ZM639.245 153.72L645.205 152.76V158.96H652.365V163.92H645.205V171.32C645.205 172.573 645.418 173.573 645.845 174.32C646.298 175.067 647.191 175.44 648.525 175.44C649.165 175.44 649.818 175.387 650.485 175.28C651.178 175.147 651.805 174.973 652.365 174.76L653.205 179.4C652.485 179.693 651.685 179.947 650.805 180.16C649.925 180.373 648.845 180.48 647.565 180.48C645.938 180.48 644.591 180.267 643.525 179.84C642.458 179.387 641.605 178.773 640.965 178C640.325 177.2 639.871 176.24 639.605 175.12C639.365 174 639.245 172.76 639.245 171.4V153.72ZM663.178 180H657.218V158.96H663.178V180ZM663.738 152.88C663.738 153.973 663.378 154.84 662.658 155.48C661.965 156.093 661.138 156.4 660.178 156.4C659.218 156.4 658.378 156.093 657.658 155.48C656.965 154.84 656.618 153.973 656.618 152.88C656.618 151.787 656.965 150.933 657.658 150.32C658.378 149.68 659.218 149.36 660.178 149.36C661.138 149.36 661.965 149.68 662.658 150.32C663.378 150.933 663.738 151.787 663.738 152.88ZM667.78 169.48C667.78 167.96 668.02 166.533 668.5 165.2C669.007 163.84 669.727 162.667 670.66 161.68C671.594 160.667 672.727 159.867 674.06 159.28C675.394 158.693 676.914 158.4 678.62 158.4C679.74 158.4 680.767 158.507 681.7 158.72C682.634 158.907 683.54 159.187 684.42 159.56L683.18 164.32C682.62 164.107 682.007 163.92 681.34 163.76C680.674 163.6 679.927 163.52 679.1 163.52C677.34 163.52 676.02 164.067 675.14 165.16C674.287 166.253 673.86 167.693 673.86 169.48C673.86 171.373 674.26 172.84 675.06 173.88C675.887 174.92 677.314 175.44 679.34 175.44C680.06 175.44 680.834 175.373 681.66 175.24C682.487 175.107 683.247 174.893 683.94 174.6L684.78 179.48C684.087 179.773 683.22 180.027 682.18 180.24C681.14 180.453 679.994 180.56 678.74 180.56C676.82 180.56 675.167 180.28 673.78 179.72C672.394 179.133 671.247 178.347 670.34 177.36C669.46 176.373 668.807 175.213 668.38 173.88C667.98 172.52 667.78 171.053 667.78 169.48ZM695.805 175.84C696.392 175.84 696.952 175.827 697.485 175.8C698.018 175.773 698.445 175.733 698.765 175.68V171.16C698.525 171.107 698.165 171.053 697.685 171C697.205 170.947 696.765 170.92 696.365 170.92C695.805 170.92 695.272 170.96 694.765 171.04C694.285 171.093 693.858 171.213 693.485 171.4C693.112 171.587 692.818 171.84 692.605 172.16C692.392 172.48 692.285 172.88 692.285 173.36C692.285 174.293 692.592 174.947 693.205 175.32C693.845 175.667 694.712 175.84 695.805 175.84ZM695.325 158.4C697.085 158.4 698.552 158.6 699.725 159C700.898 159.4 701.832 159.973 702.525 160.72C703.245 161.467 703.752 162.373 704.045 163.44C704.338 164.507 704.485 165.693 704.485 167V179.4C703.632 179.587 702.445 179.8 700.925 180.04C699.405 180.307 697.565 180.44 695.405 180.44C694.045 180.44 692.805 180.32 691.685 180.08C690.592 179.84 689.645 179.453 688.845 178.92C688.045 178.36 687.432 177.64 687.005 176.76C686.578 175.88 686.365 174.8 686.365 173.52C686.365 172.293 686.605 171.253 687.085 170.4C687.592 169.547 688.258 168.867 689.085 168.36C689.912 167.853 690.858 167.493 691.925 167.28C692.992 167.04 694.098 166.92 695.245 166.92C696.018 166.92 696.698 166.96 697.285 167.04C697.898 167.093 698.392 167.173 698.765 167.28V166.72C698.765 165.707 698.458 164.893 697.845 164.28C697.232 163.667 696.165 163.36 694.645 163.36C693.632 163.36 692.632 163.44 691.645 163.6C690.658 163.733 689.805 163.933 689.085 164.2L688.325 159.4C688.672 159.293 689.098 159.187 689.605 159.08C690.138 158.947 690.712 158.84 691.325 158.76C691.938 158.653 692.578 158.573 693.245 158.52C693.938 158.44 694.632 158.4 695.325 158.4ZM718.274 180.4C716.541 180.373 715.128 180.187 714.034 179.84C712.968 179.493 712.114 179.013 711.474 178.4C710.861 177.76 710.434 177 710.194 176.12C709.981 175.213 709.874 174.2 709.874 173.08V149.92L715.834 148.96V171.88C715.834 172.413 715.874 172.893 715.954 173.32C716.034 173.747 716.181 174.107 716.394 174.4C716.634 174.693 716.968 174.933 717.394 175.12C717.821 175.307 718.394 175.427 719.114 175.48L718.274 180.4ZM592.123 198.28V203.6H583.763V226H577.523V203.6H569.163V198.28H592.123ZM595.734 226V195.92L601.694 194.96V205.04C602.094 204.907 602.6 204.787 603.214 204.68C603.854 204.547 604.467 204.48 605.054 204.48C606.76 204.48 608.174 204.72 609.294 205.2C610.44 205.653 611.347 206.307 612.014 207.16C612.707 208.013 613.187 209.027 613.454 210.2C613.747 211.373 613.894 212.68 613.894 214.12V226H607.934V214.84C607.934 212.92 607.68 211.56 607.174 210.76C606.694 209.96 605.787 209.56 604.454 209.56C603.92 209.56 603.414 209.613 602.934 209.72C602.48 209.8 602.067 209.893 601.694 210V226H595.734ZM625.248 226H619.288V204.96H625.248V226ZM625.808 198.88C625.808 199.973 625.448 200.84 624.728 201.48C624.035 202.093 623.208 202.4 622.248 202.4C621.288 202.4 620.448 202.093 619.728 201.48C619.035 200.84 618.688 199.973 618.688 198.88C618.688 197.787 619.035 196.933 619.728 196.32C620.448 195.68 621.288 195.36 622.248 195.36C623.208 195.36 624.035 195.68 624.728 196.32C625.448 196.933 625.808 197.787 625.808 198.88ZM630.851 205.68C631.864 205.387 633.171 205.12 634.771 204.88C636.371 204.613 638.051 204.48 639.811 204.48C641.597 204.48 643.077 204.72 644.251 205.2C645.451 205.653 646.397 206.307 647.091 207.16C647.784 208.013 648.277 209.027 648.571 210.2C648.864 211.373 649.011 212.68 649.011 214.12V226H643.051V214.84C643.051 212.92 642.797 211.56 642.291 210.76C641.784 209.96 640.837 209.56 639.451 209.56C639.024 209.56 638.571 209.587 638.091 209.64C637.611 209.667 637.184 209.707 636.811 209.76V226H630.851V205.68ZM660.365 212.56C660.952 211.92 661.552 211.253 662.165 210.56C662.805 209.867 663.419 209.187 664.005 208.52C664.592 207.827 665.139 207.173 665.645 206.56C666.179 205.947 666.632 205.413 667.005 204.96H674.085C672.672 206.587 671.285 208.147 669.925 209.64C668.592 211.107 667.125 212.627 665.525 214.2C666.325 214.92 667.152 215.787 668.005 216.8C668.859 217.787 669.685 218.813 670.485 219.88C671.285 220.947 672.019 222.013 672.685 223.08C673.352 224.147 673.912 225.12 674.365 226H667.525C667.099 225.307 666.605 224.547 666.045 223.72C665.512 222.867 664.939 222.027 664.325 221.2C663.712 220.347 663.059 219.533 662.365 218.76C661.699 217.987 661.032 217.333 660.365 216.8V226H654.405V195.92L660.365 194.96V212.56ZM683.53 226H677.57V204.96H683.53V226ZM684.09 198.88C684.09 199.973 683.73 200.84 683.01 201.48C682.316 202.093 681.49 202.4 680.53 202.4C679.57 202.4 678.73 202.093 678.01 201.48C677.316 200.84 676.97 199.973 676.97 198.88C676.97 197.787 677.316 196.933 678.01 196.32C678.73 195.68 679.57 195.36 680.53 195.36C681.49 195.36 682.316 195.68 683.01 196.32C683.73 196.933 684.09 197.787 684.09 198.88ZM689.132 205.68C690.145 205.387 691.452 205.12 693.052 204.88C694.652 204.613 696.332 204.48 698.092 204.48C699.879 204.48 701.359 204.72 702.532 205.2C703.732 205.653 704.679 206.307 705.372 207.16C706.065 208.013 706.559 209.027 706.852 210.2C707.145 211.373 707.292 212.68 707.292 214.12V226H701.332V214.84C701.332 212.92 701.079 211.56 700.572 210.76C700.065 209.96 699.119 209.56 697.732 209.56C697.305 209.56 696.852 209.587 696.372 209.64C695.892 209.667 695.465 209.707 695.092 209.76V226H689.132V205.68ZM717.767 214.8C717.767 218.133 719.113 219.8 721.807 219.8C722.42 219.8 722.993 219.72 723.527 219.56C724.06 219.4 724.513 219.213 724.887 219V209.48C724.593 209.427 724.247 209.387 723.847 209.36C723.447 209.307 722.98 209.28 722.447 209.28C720.873 209.28 719.7 209.8 718.927 210.84C718.153 211.88 717.767 213.2 717.767 214.8ZM730.847 223.36C730.847 226.8 729.967 229.347 728.207 231C726.473 232.68 723.78 233.52 720.127 233.52C718.847 233.52 717.567 233.4 716.287 233.16C715.007 232.947 713.82 232.653 712.727 232.28L713.767 227.28C714.7 227.653 715.673 227.947 716.687 228.16C717.727 228.373 718.9 228.48 720.207 228.48C721.913 228.48 723.113 228.107 723.807 227.36C724.527 226.613 724.887 225.653 724.887 224.48V223.72C724.247 224.013 723.58 224.24 722.887 224.4C722.22 224.533 721.487 224.6 720.687 224.6C717.78 224.6 715.553 223.747 714.007 222.04C712.46 220.307 711.687 217.893 711.687 214.8C711.687 213.253 711.927 211.853 712.407 210.6C712.887 209.32 713.58 208.227 714.487 207.32C715.42 206.413 716.553 205.72 717.887 205.24C719.22 204.733 720.727 204.48 722.407 204.48C723.127 204.48 723.86 204.52 724.607 204.6C725.38 204.653 726.14 204.733 726.887 204.84C727.633 204.947 728.34 205.08 729.007 205.24C729.7 205.373 730.313 205.52 730.847 205.68V223.36Z" fill="url(#paint2_linear_282_256)"/>
</g>
<g filter="url(#filter3_d_282_256)">
<rect x="583" y="517" width="180" height="180" rx="20" fill="white"/>
<path d="M617.189 600C616.955 599.232 616.688 598.443 616.389 597.632C616.112 596.821 615.835 596.011 615.557 595.2H606.917C606.64 596.011 606.352 596.821 606.053 597.632C605.776 598.443 605.52 599.232 605.285 600H600.101C600.933 597.611 601.723 595.403 602.469 593.376C603.216 591.349 603.941 589.44 604.645 587.648C605.371 585.856 606.075 584.16 606.757 582.56C607.461 580.939 608.187 579.36 608.933 577.824H613.701C614.427 579.36 615.141 580.939 615.845 582.56C616.549 584.16 617.253 585.856 617.957 587.648C618.683 589.44 619.419 591.349 620.165 593.376C620.912 595.403 621.701 597.611 622.533 600H617.189ZM611.205 582.848C611.099 583.168 610.939 583.605 610.725 584.16C610.512 584.715 610.267 585.355 609.989 586.08C609.712 586.805 609.403 587.605 609.061 588.48C608.741 589.355 608.411 590.272 608.069 591.232H614.373C614.032 590.272 613.701 589.355 613.381 588.48C613.061 587.605 612.752 586.805 612.453 586.08C612.176 585.355 611.931 584.715 611.717 584.16C611.504 583.605 611.333 583.168 611.205 582.848ZM623.94 591.584C623.94 590.368 624.132 589.227 624.516 588.16C624.921 587.072 625.497 586.133 626.244 585.344C626.991 584.533 627.897 583.893 628.964 583.424C630.031 582.955 631.247 582.72 632.612 582.72C633.508 582.72 634.329 582.805 635.076 582.976C635.823 583.125 636.548 583.349 637.252 583.648L636.26 587.456C635.812 587.285 635.321 587.136 634.788 587.008C634.255 586.88 633.657 586.816 632.996 586.816C631.588 586.816 630.532 587.253 629.828 588.128C629.145 589.003 628.804 590.155 628.804 591.584C628.804 593.099 629.124 594.272 629.764 595.104C630.425 595.936 631.567 596.352 633.188 596.352C633.764 596.352 634.383 596.299 635.044 596.192C635.705 596.085 636.313 595.915 636.868 595.68L637.54 599.584C636.985 599.819 636.292 600.021 635.46 600.192C634.628 600.363 633.711 600.448 632.708 600.448C631.172 600.448 629.849 600.224 628.74 599.776C627.631 599.307 626.713 598.677 625.988 597.888C625.284 597.099 624.761 596.171 624.42 595.104C624.1 594.016 623.94 592.843 623.94 591.584ZM646.36 596.672C646.829 596.672 647.277 596.661 647.704 596.64C648.13 596.619 648.472 596.587 648.728 596.544V592.928C648.536 592.885 648.248 592.843 647.864 592.8C647.48 592.757 647.128 592.736 646.808 592.736C646.36 592.736 645.933 592.768 645.528 592.832C645.144 592.875 644.802 592.971 644.504 593.12C644.205 593.269 643.97 593.472 643.8 593.728C643.629 593.984 643.544 594.304 643.544 594.688C643.544 595.435 643.789 595.957 644.28 596.256C644.792 596.533 645.485 596.672 646.36 596.672ZM645.976 582.72C647.384 582.72 648.557 582.88 649.496 583.2C650.434 583.52 651.181 583.979 651.736 584.576C652.312 585.173 652.717 585.899 652.952 586.752C653.186 587.605 653.304 588.555 653.304 589.6V599.52C652.621 599.669 651.672 599.84 650.456 600.032C649.24 600.245 647.768 600.352 646.04 600.352C644.952 600.352 643.96 600.256 643.064 600.064C642.189 599.872 641.432 599.563 640.792 599.136C640.152 598.688 639.661 598.112 639.32 597.408C638.978 596.704 638.808 595.84 638.808 594.816C638.808 593.835 639 593.003 639.384 592.32C639.789 591.637 640.322 591.093 640.984 590.688C641.645 590.283 642.402 589.995 643.256 589.824C644.109 589.632 644.994 589.536 645.911 589.536C646.53 589.536 647.074 589.568 647.544 589.632C648.034 589.675 648.429 589.739 648.728 589.824V589.376C648.728 588.565 648.482 587.915 647.992 587.424C647.501 586.933 646.648 586.688 645.432 586.688C644.621 586.688 643.821 586.752 643.032 586.88C642.242 586.987 641.56 587.147 640.984 587.36L640.376 583.52C640.653 583.435 640.994 583.349 641.4 583.264C641.826 583.157 642.285 583.072 642.776 583.008C643.266 582.923 643.778 582.859 644.312 582.816C644.866 582.752 645.421 582.72 645.976 582.72ZM661.679 591.456C661.679 592.928 662.01 594.112 662.671 595.008C663.332 595.904 664.314 596.352 665.615 596.352C666.042 596.352 666.436 596.341 666.799 596.32C667.162 596.277 667.46 596.235 667.695 596.192V587.52C667.396 587.328 667.002 587.168 666.511 587.04C666.042 586.912 665.562 586.848 665.071 586.848C662.81 586.848 661.679 588.384 661.679 591.456ZM672.463 599.456C672.036 599.584 671.546 599.712 670.991 599.84C670.436 599.947 669.85 600.043 669.231 600.128C668.634 600.213 668.015 600.277 667.375 600.32C666.756 600.384 666.159 600.416 665.583 600.416C664.196 600.416 662.959 600.213 661.871 599.808C660.783 599.403 659.866 598.827 659.119 598.08C658.372 597.312 657.796 596.395 657.391 595.328C657.007 594.24 656.815 593.024 656.815 591.68C656.815 590.315 656.986 589.088 657.327 588C657.668 586.891 658.159 585.952 658.799 585.184C659.439 584.416 660.218 583.829 661.135 583.424C662.074 583.019 663.14 582.816 664.335 582.816C664.996 582.816 665.583 582.88 666.095 583.008C666.628 583.136 667.162 583.317 667.695 583.552V575.936L672.463 575.168V599.456ZM676.128 591.712C676.128 590.219 676.352 588.917 676.799 587.808C677.269 586.677 677.877 585.739 678.624 584.992C679.37 584.245 680.224 583.68 681.184 583.296C682.165 582.912 683.168 582.72 684.192 582.72C686.581 582.72 688.469 583.456 689.856 584.928C691.242 586.379 691.936 588.523 691.936 591.36C691.936 591.637 691.925 591.947 691.904 592.288C691.882 592.608 691.861 592.896 691.84 593.152H681.024C681.13 594.133 681.589 594.912 682.4 595.488C683.21 596.064 684.298 596.352 685.664 596.352C686.538 596.352 687.392 596.277 688.224 596.128C689.077 595.957 689.77 595.755 690.304 595.52L690.944 599.392C690.688 599.52 690.346 599.648 689.92 599.776C689.493 599.904 689.013 600.011 688.48 600.096C687.968 600.203 687.413 600.288 686.816 600.352C686.218 600.416 685.621 600.448 685.024 600.448C683.509 600.448 682.186 600.224 681.056 599.776C679.946 599.328 679.018 598.72 678.272 597.952C677.546 597.163 677.002 596.235 676.64 595.168C676.298 594.101 676.128 592.949 676.128 591.712ZM687.328 589.888C687.306 589.483 687.232 589.088 687.104 588.704C686.997 588.32 686.816 587.979 686.56 587.68C686.325 587.381 686.016 587.136 685.632 586.944C685.269 586.752 684.81 586.656 684.256 586.656C683.722 586.656 683.264 586.752 682.88 586.944C682.496 587.115 682.176 587.349 681.92 587.648C681.664 587.947 681.461 588.299 681.312 588.704C681.184 589.088 681.088 589.483 681.024 589.888H687.328ZM704.863 591.072C704.863 589.536 704.66 588.448 704.255 587.808C703.871 587.168 703.199 586.848 702.239 586.848C701.94 586.848 701.631 586.869 701.311 586.912C700.991 586.933 700.682 586.965 700.383 587.008V600H695.615V583.744C696.02 583.637 696.49 583.531 697.023 583.424C697.578 583.296 698.154 583.189 698.751 583.104C699.37 582.997 699.999 582.923 700.639 582.88C701.279 582.816 701.908 582.784 702.527 582.784C703.743 582.784 704.724 582.944 705.471 583.264C706.239 583.563 706.868 583.925 707.359 584.352C708.042 583.861 708.82 583.477 709.695 583.2C710.591 582.923 711.412 582.784 712.159 582.784C713.503 582.784 714.602 582.976 715.455 583.36C716.33 583.723 717.023 584.245 717.535 584.928C718.047 585.611 718.399 586.421 718.591 587.36C718.783 588.299 718.879 589.344 718.879 590.496V600H714.111V591.072C714.111 589.536 713.908 588.448 713.503 587.808C713.119 587.168 712.447 586.848 711.487 586.848C711.231 586.848 710.868 586.912 710.399 587.04C709.951 587.168 709.578 587.328 709.279 587.52C709.428 588.011 709.524 588.533 709.567 589.088C709.61 589.621 709.631 590.197 709.631 590.816V600H704.863V591.072ZM727.977 600H723.209V583.168H727.977V600ZM728.425 578.304C728.425 579.179 728.137 579.872 727.561 580.384C727.006 580.875 726.345 581.12 725.577 581.12C724.809 581.12 724.137 580.875 723.561 580.384C723.006 579.872 722.729 579.179 722.729 578.304C722.729 577.429 723.006 576.747 723.561 576.256C724.137 575.744 724.809 575.488 725.577 575.488C726.345 575.488 727.006 575.744 727.561 576.256C728.137 576.747 728.425 577.429 728.425 578.304ZM731.659 591.584C731.659 590.368 731.851 589.227 732.235 588.16C732.64 587.072 733.216 586.133 733.963 585.344C734.709 584.533 735.616 583.893 736.683 583.424C737.749 582.955 738.965 582.72 740.331 582.72C741.227 582.72 742.048 582.805 742.795 582.976C743.541 583.125 744.267 583.349 744.971 583.648L743.979 587.456C743.531 587.285 743.04 587.136 742.507 587.008C741.973 586.88 741.376 586.816 740.715 586.816C739.307 586.816 738.251 587.253 737.547 588.128C736.864 589.003 736.523 590.155 736.523 591.584C736.523 593.099 736.843 594.272 737.483 595.104C738.144 595.936 739.285 596.352 740.907 596.352C741.483 596.352 742.101 596.299 742.763 596.192C743.424 596.085 744.032 595.915 744.587 595.68L745.259 599.584C744.704 599.819 744.011 600.021 743.179 600.192C742.347 600.363 741.429 600.448 740.427 600.448C738.891 600.448 737.568 600.224 736.459 599.776C735.349 599.307 734.432 598.677 733.707 597.888C733.003 597.099 732.48 596.171 732.139 595.104C731.819 594.016 731.659 592.843 731.659 591.584ZM594.279 637V614.824H609.255V619.016H599.271V623.368H608.135V627.464H599.271V632.808H609.991V637H594.279ZM620.741 625.288L624.069 620.168H628.997L623.237 628.264C624.517 629.864 625.679 631.421 626.725 632.936C627.77 634.451 628.602 635.805 629.221 637H624.101C623.93 636.68 623.717 636.285 623.461 635.816C623.205 635.325 622.917 634.824 622.597 634.312C622.277 633.779 621.935 633.256 621.573 632.744C621.231 632.211 620.89 631.731 620.549 631.304C620.229 631.709 619.898 632.157 619.557 632.648C619.237 633.139 618.927 633.64 618.629 634.152C618.33 634.643 618.031 635.133 617.733 635.624C617.455 636.115 617.21 636.573 616.997 637H612.133C612.389 636.467 612.741 635.837 613.189 635.112C613.637 634.387 614.117 633.64 614.629 632.872C615.162 632.083 615.717 631.304 616.293 630.536C616.869 629.747 617.434 629.011 617.989 628.328C617.029 626.984 616.069 625.629 615.109 624.264C614.149 622.877 613.199 621.512 612.261 620.168H617.413L620.741 625.288ZM630.19 628.584C630.19 627.368 630.382 626.227 630.766 625.16C631.171 624.072 631.747 623.133 632.494 622.344C633.241 621.533 634.147 620.893 635.214 620.424C636.281 619.955 637.497 619.72 638.862 619.72C639.758 619.72 640.579 619.805 641.326 619.976C642.073 620.125 642.798 620.349 643.502 620.648L642.51 624.456C642.062 624.285 641.571 624.136 641.038 624.008C640.505 623.88 639.907 623.816 639.246 623.816C637.838 623.816 636.782 624.253 636.078 625.128C635.395 626.003 635.054 627.155 635.054 628.584C635.054 630.099 635.374 631.272 636.014 632.104C636.675 632.936 637.817 633.352 639.438 633.352C640.014 633.352 640.633 633.299 641.294 633.192C641.955 633.085 642.563 632.915 643.118 632.68L643.79 636.584C643.235 636.819 642.542 637.021 641.71 637.192C640.878 637.363 639.961 637.448 638.958 637.448C637.422 637.448 636.099 637.224 634.99 636.776C633.881 636.307 632.963 635.677 632.238 634.888C631.534 634.099 631.011 633.171 630.67 632.104C630.35 631.016 630.19 629.843 630.19 628.584ZM645.378 628.712C645.378 627.219 645.602 625.917 646.049 624.808C646.519 623.677 647.127 622.739 647.874 621.992C648.62 621.245 649.474 620.68 650.434 620.296C651.415 619.912 652.418 619.72 653.442 619.72C655.831 619.72 657.719 620.456 659.106 621.928C660.492 623.379 661.186 625.523 661.186 628.36C661.186 628.637 661.175 628.947 661.154 629.288C661.132 629.608 661.111 629.896 661.09 630.152H650.274C650.38 631.133 650.839 631.912 651.65 632.488C652.46 633.064 653.548 633.352 654.914 633.352C655.788 633.352 656.642 633.277 657.474 633.128C658.327 632.957 659.02 632.755 659.554 632.52L660.194 636.392C659.938 636.52 659.596 636.648 659.17 636.776C658.743 636.904 658.263 637.011 657.73 637.096C657.218 637.203 656.663 637.288 656.066 637.352C655.468 637.416 654.871 637.448 654.274 637.448C652.759 637.448 651.436 637.224 650.306 636.776C649.196 636.328 648.268 635.72 647.522 634.952C646.796 634.163 646.252 633.235 645.89 632.168C645.548 631.101 645.378 629.949 645.378 628.712ZM656.578 626.888C656.556 626.483 656.482 626.088 656.354 625.704C656.247 625.32 656.066 624.979 655.81 624.68C655.575 624.381 655.266 624.136 654.882 623.944C654.519 623.752 654.06 623.656 653.506 623.656C652.972 623.656 652.514 623.752 652.13 623.944C651.746 624.115 651.426 624.349 651.17 624.648C650.914 624.947 650.711 625.299 650.562 625.704C650.434 626.088 650.338 626.483 650.274 626.888H656.578ZM671.585 637.32C670.198 637.299 669.068 637.149 668.193 636.872C667.34 636.595 666.657 636.211 666.145 635.72C665.654 635.208 665.313 634.6 665.121 633.896C664.95 633.171 664.865 632.36 664.865 631.464V612.936L669.633 612.168V630.504C669.633 630.931 669.665 631.315 669.729 631.656C669.793 631.997 669.91 632.285 670.081 632.52C670.273 632.755 670.54 632.947 670.881 633.096C671.222 633.245 671.681 633.341 672.257 633.384L671.585 637.32ZM681.71 637.32C680.323 637.299 679.193 637.149 678.318 636.872C677.465 636.595 676.782 636.211 676.27 635.72C675.779 635.208 675.438 634.6 675.246 633.896C675.075 633.171 674.99 632.36 674.99 631.464V612.936L679.758 612.168V630.504C679.758 630.931 679.79 631.315 679.854 631.656C679.918 631.997 680.035 632.285 680.206 632.52C680.398 632.755 680.665 632.947 681.006 633.096C681.347 633.245 681.806 633.341 682.382 633.384L681.71 637.32ZM684.315 628.712C684.315 627.219 684.539 625.917 684.987 624.808C685.456 623.677 686.064 622.739 686.811 621.992C687.558 621.245 688.411 620.68 689.371 620.296C690.352 619.912 691.355 619.72 692.379 619.72C694.768 619.72 696.656 620.456 698.043 621.928C699.43 623.379 700.123 625.523 700.123 628.36C700.123 628.637 700.112 628.947 700.091 629.288C700.07 629.608 700.048 629.896 700.027 630.152H689.211C689.318 631.133 689.776 631.912 690.587 632.488C691.398 633.064 692.486 633.352 693.851 633.352C694.726 633.352 695.579 633.277 696.411 633.128C697.264 632.957 697.958 632.755 698.491 632.52L699.131 636.392C698.875 636.52 698.534 636.648 698.107 636.776C697.68 636.904 697.2 637.011 696.667 637.096C696.155 637.203 695.6 637.288 695.003 637.352C694.406 637.416 693.808 637.448 693.211 637.448C691.696 637.448 690.374 637.224 689.243 636.776C688.134 636.328 687.206 635.72 686.459 634.952C685.734 634.163 685.19 633.235 684.827 632.168C684.486 631.101 684.315 629.949 684.315 628.712ZM695.515 626.888C695.494 626.483 695.419 626.088 695.291 625.704C695.184 625.32 695.003 624.979 694.747 624.68C694.512 624.381 694.203 624.136 693.819 623.944C693.456 623.752 692.998 623.656 692.443 623.656C691.91 623.656 691.451 623.752 691.067 623.944C690.683 624.115 690.363 624.349 690.107 624.648C689.851 624.947 689.648 625.299 689.499 625.704C689.371 626.088 689.275 626.483 689.211 626.888H695.515ZM703.803 620.744C704.613 620.509 705.659 620.296 706.939 620.104C708.219 619.891 709.563 619.784 710.97 619.784C712.4 619.784 713.584 619.976 714.523 620.36C715.483 620.723 716.24 621.245 716.795 621.928C717.349 622.611 717.744 623.421 717.979 624.36C718.213 625.299 718.331 626.344 718.331 627.496V637H713.563V628.072C713.563 626.536 713.36 625.448 712.955 624.808C712.549 624.168 711.792 623.848 710.683 623.848C710.341 623.848 709.979 623.869 709.595 623.912C709.211 623.933 708.869 623.965 708.571 624.008V637H703.803V620.744ZM721.846 628.584C721.846 627.368 722.038 626.227 722.422 625.16C722.828 624.072 723.404 623.133 724.15 622.344C724.897 621.533 725.804 620.893 726.87 620.424C727.937 619.955 729.153 619.72 730.518 619.72C731.414 619.72 732.236 619.805 732.982 619.976C733.729 620.125 734.454 620.349 735.158 620.648L734.166 624.456C733.718 624.285 733.228 624.136 732.694 624.008C732.161 623.88 731.564 623.816 730.902 623.816C729.494 623.816 728.438 624.253 727.734 625.128C727.052 626.003 726.71 627.155 726.71 628.584C726.71 630.099 727.03 631.272 727.67 632.104C728.332 632.936 729.473 633.352 731.094 633.352C731.67 633.352 732.289 633.299 732.95 633.192C733.612 633.085 734.22 632.915 734.774 632.68L735.446 636.584C734.892 636.819 734.198 637.021 733.366 637.192C732.534 637.363 731.617 637.448 730.614 637.448C729.078 637.448 727.756 637.224 726.646 636.776C725.537 636.307 724.62 635.677 723.894 634.888C723.19 634.099 722.668 633.171 722.326 632.104C722.006 631.016 721.846 629.843 721.846 628.584ZM737.034 628.712C737.034 627.219 737.258 625.917 737.706 624.808C738.175 623.677 738.783 622.739 739.53 621.992C740.276 621.245 741.13 620.68 742.09 620.296C743.071 619.912 744.074 619.72 745.098 619.72C747.487 619.72 749.375 620.456 750.762 621.928C752.148 623.379 752.842 625.523 752.842 628.36C752.842 628.637 752.831 628.947 752.81 629.288C752.788 629.608 752.767 629.896 752.746 630.152H741.93C742.036 631.133 742.495 631.912 743.306 632.488C744.116 633.064 745.204 633.352 746.57 633.352C747.444 633.352 748.298 633.277 749.13 633.128C749.983 632.957 750.676 632.755 751.21 632.52L751.85 636.392C751.594 636.52 751.252 636.648 750.826 636.776C750.399 636.904 749.919 637.011 749.386 637.096C748.874 637.203 748.319 637.288 747.722 637.352C747.124 637.416 746.527 637.448 745.93 637.448C744.415 637.448 743.092 637.224 741.962 636.776C740.852 636.328 739.924 635.72 739.178 634.952C738.452 634.163 737.908 633.235 737.546 632.168C737.204 631.101 737.034 629.949 737.034 628.712ZM748.234 626.888C748.212 626.483 748.138 626.088 748.01 625.704C747.903 625.32 747.722 624.979 747.466 624.68C747.231 624.381 746.922 624.136 746.538 623.944C746.175 623.752 745.716 623.656 745.162 623.656C744.628 623.656 744.17 623.752 743.786 623.944C743.402 624.115 743.082 624.349 742.826 624.648C742.57 624.947 742.367 625.299 742.218 625.704C742.09 626.088 741.994 626.483 741.93 626.888H748.234Z" fill="url(#paint3_linear_282_256)"/>
</g>
<g filter="url(#filter4_d_282_256)">
<rect x="411" y="335" width="172" height="171" rx="20" fill="white"/>
<path d="M426.435 413.5V391.324H441.411V395.516H431.427V399.868H440.291V403.964H431.427V409.308H442.147V413.5H426.435ZM452.897 401.788L456.225 396.668H461.153L455.393 404.764C456.673 406.364 457.835 407.921 458.881 409.436C459.926 410.951 460.758 412.305 461.377 413.5H456.257C456.086 413.18 455.873 412.785 455.617 412.316C455.361 411.825 455.073 411.324 454.753 410.812C454.433 410.279 454.091 409.756 453.729 409.244C453.387 408.711 453.046 408.231 452.705 407.804C452.385 408.209 452.054 408.657 451.713 409.148C451.393 409.639 451.083 410.14 450.785 410.652C450.486 411.143 450.187 411.633 449.889 412.124C449.611 412.615 449.366 413.073 449.153 413.5H444.289C444.545 412.967 444.897 412.337 445.345 411.612C445.793 410.887 446.273 410.14 446.785 409.372C447.318 408.583 447.873 407.804 448.449 407.036C449.025 406.247 449.59 405.511 450.145 404.828C449.185 403.484 448.225 402.129 447.265 400.764C446.305 399.377 445.355 398.012 444.417 396.668H449.569L452.897 401.788ZM463.768 392.476L468.536 391.708V396.668H474.264V400.636H468.536V406.556C468.536 407.559 468.706 408.359 469.048 408.956C469.41 409.553 470.125 409.852 471.192 409.852C471.704 409.852 472.226 409.809 472.76 409.724C473.314 409.617 473.816 409.479 474.264 409.308L474.936 413.02C474.36 413.255 473.72 413.457 473.016 413.628C472.312 413.799 471.448 413.884 470.424 413.884C469.122 413.884 468.045 413.713 467.192 413.372C466.338 413.009 465.656 412.519 465.144 411.9C464.632 411.26 464.269 410.492 464.056 409.596C463.864 408.7 463.768 407.708 463.768 406.62V392.476ZM476.721 405.212C476.721 403.719 476.945 402.417 477.393 401.308C477.863 400.177 478.471 399.239 479.217 398.492C479.964 397.745 480.817 397.18 481.777 396.796C482.759 396.412 483.761 396.22 484.785 396.22C487.175 396.22 489.063 396.956 490.449 398.428C491.836 399.879 492.529 402.023 492.529 404.86C492.529 405.137 492.519 405.447 492.497 405.788C492.476 406.108 492.455 406.396 492.433 406.652H481.617C481.724 407.633 482.183 408.412 482.993 408.988C483.804 409.564 484.892 409.852 486.257 409.852C487.132 409.852 487.985 409.777 488.817 409.628C489.671 409.457 490.364 409.255 490.897 409.02L491.537 412.892C491.281 413.02 490.94 413.148 490.513 413.276C490.087 413.404 489.607 413.511 489.073 413.596C488.561 413.703 488.007 413.788 487.409 413.852C486.812 413.916 486.215 413.948 485.617 413.948C484.103 413.948 482.78 413.724 481.649 413.276C480.54 412.828 479.612 412.22 478.865 411.452C478.14 410.663 477.596 409.735 477.233 408.668C476.892 407.601 476.721 406.449 476.721 405.212ZM487.921 403.388C487.9 402.983 487.825 402.588 487.697 402.204C487.591 401.82 487.409 401.479 487.153 401.18C486.919 400.881 486.609 400.636 486.225 400.444C485.863 400.252 485.404 400.156 484.849 400.156C484.316 400.156 483.857 400.252 483.473 400.444C483.089 400.615 482.769 400.849 482.513 401.148C482.257 401.447 482.055 401.799 481.905 402.204C481.777 402.588 481.681 402.983 481.617 403.388H487.921ZM496.209 397.244C497.019 397.009 498.065 396.796 499.345 396.604C500.625 396.391 501.969 396.284 503.377 396.284C504.806 396.284 505.99 396.476 506.929 396.86C507.889 397.223 508.646 397.745 509.201 398.428C509.755 399.111 510.15 399.921 510.385 400.86C510.619 401.799 510.737 402.844 510.737 403.996V413.5H505.969V404.572C505.969 403.036 505.766 401.948 505.361 401.308C504.955 400.668 504.198 400.348 503.089 400.348C502.747 400.348 502.385 400.369 502.001 400.412C501.617 400.433 501.275 400.465 500.977 400.508V413.5H496.209V397.244ZM519.117 404.956C519.117 406.428 519.447 407.612 520.109 408.508C520.77 409.404 521.751 409.852 523.053 409.852C523.479 409.852 523.874 409.841 524.237 409.82C524.599 409.777 524.898 409.735 525.133 409.692V401.02C524.834 400.828 524.439 400.668 523.949 400.54C523.479 400.412 522.999 400.348 522.509 400.348C520.247 400.348 519.117 401.884 519.117 404.956ZM529.901 412.956C529.474 413.084 528.983 413.212 528.429 413.34C527.874 413.447 527.287 413.543 526.669 413.628C526.071 413.713 525.453 413.777 524.813 413.82C524.194 413.884 523.597 413.916 523.021 413.916C521.634 413.916 520.397 413.713 519.309 413.308C518.221 412.903 517.303 412.327 516.557 411.58C515.81 410.812 515.234 409.895 514.829 408.828C514.445 407.74 514.253 406.524 514.253 405.18C514.253 403.815 514.423 402.588 514.765 401.5C515.106 400.391 515.597 399.452 516.237 398.684C516.877 397.916 517.655 397.329 518.573 396.924C519.511 396.519 520.578 396.316 521.773 396.316C522.434 396.316 523.021 396.38 523.533 396.508C524.066 396.636 524.599 396.817 525.133 397.052V389.436L529.901 388.668V412.956ZM533.565 405.212C533.565 403.719 533.789 402.417 534.237 401.308C534.706 400.177 535.314 399.239 536.061 398.492C536.808 397.745 537.661 397.18 538.621 396.796C539.602 396.412 540.605 396.22 541.629 396.22C544.018 396.22 545.906 396.956 547.293 398.428C548.68 399.879 549.373 402.023 549.373 404.86C549.373 405.137 549.362 405.447 549.341 405.788C549.32 406.108 549.298 406.396 549.277 406.652H538.461C538.568 407.633 539.026 408.412 539.837 408.988C540.648 409.564 541.736 409.852 543.101 409.852C543.976 409.852 544.829 409.777 545.661 409.628C546.514 409.457 547.208 409.255 547.741 409.02L548.381 412.892C548.125 413.02 547.784 413.148 547.357 413.276C546.93 413.404 546.45 413.511 545.917 413.596C545.405 413.703 544.85 413.788 544.253 413.852C543.656 413.916 543.058 413.948 542.461 413.948C540.946 413.948 539.624 413.724 538.493 413.276C537.384 412.828 536.456 412.22 535.709 411.452C534.984 410.663 534.44 409.735 534.077 408.668C533.736 407.601 533.565 406.449 533.565 405.212ZM544.765 403.388C544.744 402.983 544.669 402.588 544.541 402.204C544.434 401.82 544.253 401.479 543.997 401.18C543.762 400.881 543.453 400.636 543.069 400.444C542.706 400.252 542.248 400.156 541.693 400.156C541.16 400.156 540.701 400.252 540.317 400.444C539.933 400.615 539.613 400.849 539.357 401.148C539.101 401.447 538.898 401.799 538.749 402.204C538.621 402.588 538.525 402.983 538.461 403.388H544.765ZM557.117 404.956C557.117 406.428 557.447 407.612 558.109 408.508C558.77 409.404 559.751 409.852 561.053 409.852C561.479 409.852 561.874 409.841 562.237 409.82C562.599 409.777 562.898 409.735 563.133 409.692V401.02C562.834 400.828 562.439 400.668 561.949 400.54C561.479 400.412 560.999 400.348 560.509 400.348C558.247 400.348 557.117 401.884 557.117 404.956ZM567.901 412.956C567.474 413.084 566.983 413.212 566.429 413.34C565.874 413.447 565.287 413.543 564.669 413.628C564.071 413.713 563.453 413.777 562.813 413.82C562.194 413.884 561.597 413.916 561.021 413.916C559.634 413.916 558.397 413.713 557.309 413.308C556.221 412.903 555.303 412.327 554.557 411.58C553.81 410.812 553.234 409.895 552.829 408.828C552.445 407.74 552.253 406.524 552.253 405.18C552.253 403.815 552.423 402.588 552.765 401.5C553.106 400.391 553.597 399.452 554.237 398.684C554.877 397.916 555.655 397.329 556.573 396.924C557.511 396.519 558.578 396.316 559.773 396.316C560.434 396.316 561.021 396.38 561.533 396.508C562.066 396.636 562.599 396.817 563.133 397.052V389.436L567.901 388.668V412.956ZM456.935 450.5V428.324H471.911V432.516H461.927V436.868H470.791V440.964H461.927V446.308H472.647V450.5H456.935ZM480.853 447.076C481.728 447.076 482.347 446.991 482.709 446.82C483.072 446.649 483.253 446.319 483.253 445.828C483.253 445.444 483.019 445.113 482.549 444.836C482.08 444.537 481.365 444.207 480.405 443.844C479.659 443.567 478.976 443.279 478.357 442.98C477.76 442.681 477.248 442.329 476.821 441.924C476.395 441.497 476.064 440.996 475.829 440.42C475.595 439.844 475.477 439.151 475.477 438.34C475.477 436.761 476.064 435.513 477.237 434.596C478.411 433.679 480.021 433.22 482.069 433.22C483.093 433.22 484.075 433.316 485.013 433.508C485.952 433.679 486.699 433.871 487.253 434.084L486.421 437.796C485.867 437.604 485.259 437.433 484.597 437.284C483.957 437.135 483.232 437.06 482.421 437.06C480.928 437.06 480.181 437.476 480.181 438.308C480.181 438.5 480.213 438.671 480.277 438.82C480.341 438.969 480.469 439.119 480.661 439.268C480.853 439.396 481.109 439.545 481.429 439.716C481.771 439.865 482.197 440.036 482.709 440.228C483.755 440.612 484.619 440.996 485.301 441.38C485.984 441.743 486.517 442.148 486.901 442.596C487.307 443.023 487.584 443.503 487.733 444.036C487.904 444.569 487.989 445.188 487.989 445.892C487.989 447.556 487.36 448.815 486.101 449.668C484.864 450.521 483.104 450.948 480.821 450.948C479.328 450.948 478.08 450.82 477.077 450.564C476.096 450.308 475.413 450.095 475.029 449.924L475.829 446.052C476.64 446.372 477.472 446.628 478.325 446.82C479.179 446.991 480.021 447.076 480.853 447.076ZM496.385 447.076C497.259 447.076 497.878 446.991 498.241 446.82C498.603 446.649 498.785 446.319 498.785 445.828C498.785 445.444 498.55 445.113 498.081 444.836C497.611 444.537 496.897 444.207 495.937 443.844C495.19 443.567 494.507 443.279 493.889 442.98C493.291 442.681 492.779 442.329 492.353 441.924C491.926 441.497 491.595 440.996 491.361 440.42C491.126 439.844 491.009 439.151 491.009 438.34C491.009 436.761 491.595 435.513 492.769 434.596C493.942 433.679 495.553 433.22 497.601 433.22C498.625 433.22 499.606 433.316 500.545 433.508C501.483 433.679 502.23 433.871 502.785 434.084L501.953 437.796C501.398 437.604 500.79 437.433 500.129 437.284C499.489 437.135 498.763 437.06 497.953 437.06C496.459 437.06 495.713 437.476 495.713 438.308C495.713 438.5 495.745 438.671 495.809 438.82C495.873 438.969 496.001 439.119 496.193 439.268C496.385 439.396 496.641 439.545 496.961 439.716C497.302 439.865 497.729 440.036 498.241 440.228C499.286 440.612 500.15 440.996 500.833 441.38C501.515 441.743 502.049 442.148 502.433 442.596C502.838 443.023 503.115 443.503 503.265 444.036C503.435 444.569 503.521 445.188 503.521 445.892C503.521 447.556 502.891 448.815 501.633 449.668C500.395 450.521 498.635 450.948 496.353 450.948C494.859 450.948 493.611 450.82 492.609 450.564C491.627 450.308 490.945 450.095 490.561 449.924L491.361 446.052C492.171 446.372 493.003 446.628 493.857 446.82C494.71 446.991 495.553 447.076 496.385 447.076ZM513.516 447.172C513.985 447.172 514.433 447.161 514.86 447.14C515.286 447.119 515.628 447.087 515.884 447.044V443.428C515.692 443.385 515.404 443.343 515.02 443.3C514.636 443.257 514.284 443.236 513.964 443.236C513.516 443.236 513.089 443.268 512.684 443.332C512.3 443.375 511.958 443.471 511.66 443.62C511.361 443.769 511.126 443.972 510.956 444.228C510.785 444.484 510.7 444.804 510.7 445.188C510.7 445.935 510.945 446.457 511.436 446.756C511.948 447.033 512.641 447.172 513.516 447.172ZM513.132 433.22C514.54 433.22 515.713 433.38 516.652 433.7C517.59 434.02 518.337 434.479 518.892 435.076C519.468 435.673 519.873 436.399 520.108 437.252C520.342 438.105 520.46 439.055 520.46 440.1V450.02C519.777 450.169 518.828 450.34 517.612 450.532C516.396 450.745 514.924 450.852 513.196 450.852C512.108 450.852 511.116 450.756 510.22 450.564C509.345 450.372 508.588 450.063 507.948 449.636C507.308 449.188 506.817 448.612 506.476 447.908C506.134 447.204 505.964 446.34 505.964 445.316C505.964 444.335 506.156 443.503 506.54 442.82C506.945 442.137 507.478 441.593 508.14 441.188C508.801 440.783 509.558 440.495 510.412 440.324C511.265 440.132 512.15 440.036 513.068 440.036C513.686 440.036 514.23 440.068 514.7 440.132C515.19 440.175 515.585 440.239 515.884 440.324V439.876C515.884 439.065 515.638 438.415 515.148 437.924C514.657 437.433 513.804 437.188 512.588 437.188C511.777 437.188 510.977 437.252 510.188 437.38C509.398 437.487 508.716 437.647 508.14 437.86L507.532 434.02C507.809 433.935 508.15 433.849 508.556 433.764C508.982 433.657 509.441 433.572 509.932 433.508C510.422 433.423 510.934 433.359 511.468 433.316C512.022 433.252 512.577 433.22 513.132 433.22ZM539.309 433.668C538.349 436.911 537.346 439.951 536.301 442.788C535.256 445.625 534.114 448.377 532.877 451.044C532.429 452.004 531.981 452.815 531.533 453.476C531.085 454.159 530.594 454.713 530.061 455.14C529.528 455.588 528.92 455.908 528.237 456.1C527.576 456.313 526.797 456.42 525.901 456.42C525.154 456.42 524.461 456.345 523.821 456.196C523.202 456.068 522.69 455.919 522.285 455.748L523.117 451.94C523.608 452.111 524.045 452.228 524.429 452.292C524.813 452.356 525.218 452.388 525.645 452.388C526.498 452.388 527.149 452.153 527.597 451.684C528.066 451.236 528.461 450.607 528.781 449.796C527.693 447.663 526.605 445.273 525.517 442.628C524.429 439.961 523.405 436.975 522.445 433.668H527.501C527.714 434.5 527.96 435.407 528.237 436.388C528.536 437.348 528.845 438.329 529.165 439.332C529.485 440.313 529.805 441.273 530.125 442.212C530.466 443.151 530.786 444.004 531.085 444.772C531.362 444.004 531.65 443.151 531.949 442.212C532.248 441.273 532.536 440.313 532.813 439.332C533.112 438.329 533.389 437.348 533.645 436.388C533.922 435.407 534.168 434.5 534.381 433.668H539.309Z" fill="url(#paint4_linear_282_256)"/>
</g>
<g filter="url(#filter5_d_282_256)">
<rect x="321" y="557" width="140" height="140" rx="20" fill="white"/>
<path d="M349.287 605.368V608.56H344.271V622H340.527V608.56H335.511V605.368H349.287ZM351.453 622V603.952L355.029 603.376V609.424C355.269 609.344 355.573 609.272 355.941 609.208C356.325 609.128 356.693 609.088 357.045 609.088C358.069 609.088 358.917 609.232 359.589 609.52C360.277 609.792 360.821 610.184 361.221 610.696C361.637 611.208 361.925 611.816 362.085 612.52C362.261 613.224 362.349 614.008 362.349 614.872V622H358.773V615.304C358.773 614.152 358.621 613.336 358.317 612.856C358.029 612.376 357.485 612.136 356.685 612.136C356.365 612.136 356.061 612.168 355.773 612.232C355.501 612.28 355.253 612.336 355.029 612.4V622H351.453ZM364.986 615.784C364.986 614.664 365.154 613.688 365.49 612.856C365.842 612.008 366.298 611.304 366.858 610.744C367.418 610.184 368.058 609.76 368.778 609.472C369.514 609.184 370.266 609.04 371.034 609.04C372.826 609.04 374.242 609.592 375.282 610.696C376.322 611.784 376.842 613.392 376.842 615.52C376.842 615.728 376.834 615.96 376.818 616.216C376.802 616.456 376.786 616.672 376.77 616.864H368.658C368.738 617.6 369.082 618.184 369.69 618.616C370.298 619.048 371.114 619.264 372.138 619.264C372.794 619.264 373.434 619.208 374.058 619.096C374.698 618.968 375.218 618.816 375.618 618.64L376.098 621.544C375.906 621.64 375.65 621.736 375.33 621.832C375.01 621.928 374.65 622.008 374.25 622.072C373.866 622.152 373.45 622.216 373.002 622.264C372.554 622.312 372.106 622.336 371.658 622.336C370.522 622.336 369.53 622.168 368.682 621.832C367.85 621.496 367.154 621.04 366.594 620.464C366.05 619.872 365.642 619.176 365.37 618.376C365.114 617.576 364.986 616.712 364.986 615.784ZM373.386 614.416C373.37 614.112 373.314 613.816 373.218 613.528C373.138 613.24 373.002 612.984 372.81 612.76C372.634 612.536 372.402 612.352 372.114 612.208C371.842 612.064 371.498 611.992 371.082 611.992C370.682 611.992 370.338 612.064 370.05 612.208C369.762 612.336 369.522 612.512 369.33 612.736C369.138 612.96 368.986 613.224 368.874 613.528C368.778 613.816 368.706 614.112 368.658 614.416H373.386ZM391.41 615.664C391.41 616.656 391.266 617.568 390.978 618.4C390.69 619.216 390.274 619.92 389.73 620.512C389.186 621.088 388.53 621.536 387.762 621.856C387.01 622.176 386.162 622.336 385.218 622.336C384.29 622.336 383.442 622.176 382.674 621.856C381.922 621.536 381.274 621.088 380.73 620.512C380.186 619.92 379.762 619.216 379.458 618.4C379.154 617.568 379.002 616.656 379.002 615.664C379.002 614.672 379.154 613.768 379.458 612.952C379.778 612.136 380.21 611.44 380.754 610.864C381.314 610.288 381.97 609.84 382.722 609.52C383.49 609.2 384.322 609.04 385.218 609.04C386.13 609.04 386.962 609.2 387.714 609.52C388.482 609.84 389.138 610.288 389.682 610.864C390.226 611.44 390.65 612.136 390.954 612.952C391.258 613.768 391.41 614.672 391.41 615.664ZM387.762 615.664C387.762 614.56 387.538 613.696 387.09 613.072C386.658 612.432 386.034 612.112 385.218 612.112C384.402 612.112 383.77 612.432 383.322 613.072C382.874 613.696 382.65 614.56 382.65 615.664C382.65 616.768 382.874 617.648 383.322 618.304C383.77 618.944 384.402 619.264 385.218 619.264C386.034 619.264 386.658 618.944 387.09 618.304C387.538 617.648 387.762 616.768 387.762 615.664ZM401.788 612.544C401.468 612.464 401.092 612.384 400.66 612.304C400.228 612.208 399.764 612.16 399.268 612.16C399.044 612.16 398.772 612.184 398.452 612.232C398.148 612.264 397.916 612.304 397.756 612.352V622H394.18V610.048C394.82 609.824 395.572 609.616 396.436 609.424C397.316 609.216 398.292 609.112 399.364 609.112C399.556 609.112 399.788 609.128 400.06 609.16C400.332 609.176 400.604 609.208 400.876 609.256C401.148 609.288 401.42 609.336 401.692 609.4C401.964 609.448 402.196 609.512 402.388 609.592L401.788 612.544ZM416.263 609.376C415.543 611.808 414.791 614.088 414.007 616.216C413.223 618.344 412.367 620.408 411.439 622.408C411.103 623.128 410.767 623.736 410.431 624.232C410.095 624.744 409.727 625.16 409.327 625.48C408.927 625.816 408.471 626.056 407.959 626.2C407.463 626.36 406.879 626.44 406.207 626.44C405.647 626.44 405.127 626.384 404.647 626.272C404.183 626.176 403.799 626.064 403.495 625.936L404.119 623.08C404.487 623.208 404.815 623.296 405.103 623.344C405.391 623.392 405.695 623.416 406.015 623.416C406.655 623.416 407.143 623.24 407.479 622.888C407.831 622.552 408.127 622.08 408.367 621.472C407.551 619.872 406.735 618.08 405.919 616.096C405.103 614.096 404.335 611.856 403.615 609.376H407.407C407.567 610 407.751 610.68 407.959 611.416C408.183 612.136 408.415 612.872 408.655 613.624C408.895 614.36 409.135 615.08 409.375 615.784C409.631 616.488 409.871 617.128 410.095 617.704C410.303 617.128 410.519 616.488 410.743 615.784C410.967 615.08 411.183 614.36 411.391 613.624C411.615 612.872 411.823 612.136 412.015 611.416C412.223 610.68 412.407 610 412.567 609.376H416.263ZM435.754 615.664C435.754 616.656 435.61 617.568 435.322 618.4C435.034 619.216 434.618 619.92 434.074 620.512C433.53 621.088 432.874 621.536 432.106 621.856C431.354 622.176 430.506 622.336 429.562 622.336C428.634 622.336 427.786 622.176 427.018 621.856C426.266 621.536 425.618 621.088 425.074 620.512C424.53 619.92 424.106 619.216 423.802 618.4C423.498 617.568 423.346 616.656 423.346 615.664C423.346 614.672 423.498 613.768 423.802 612.952C424.122 612.136 424.554 611.44 425.098 610.864C425.658 610.288 426.314 609.84 427.066 609.52C427.834 609.2 428.666 609.04 429.562 609.04C430.474 609.04 431.306 609.2 432.058 609.52C432.826 609.84 433.482 610.288 434.026 610.864C434.57 611.44 434.994 612.136 435.298 612.952C435.602 613.768 435.754 614.672 435.754 615.664ZM432.106 615.664C432.106 614.56 431.882 613.696 431.434 613.072C431.002 612.432 430.378 612.112 429.562 612.112C428.746 612.112 428.114 612.432 427.666 613.072C427.218 613.696 426.994 614.56 426.994 615.664C426.994 616.768 427.218 617.648 427.666 618.304C428.114 618.944 428.746 619.264 429.562 619.264C430.378 619.264 431.002 618.944 431.434 618.304C431.882 617.648 432.106 616.768 432.106 615.664ZM443.996 603.376C444.668 603.376 445.284 603.448 445.844 603.592C446.404 603.72 446.836 603.848 447.14 603.976L446.444 606.832C446.124 606.688 445.772 606.584 445.388 606.52C445.02 606.44 444.676 606.4 444.356 606.4C443.924 606.4 443.556 606.464 443.252 606.592C442.964 606.704 442.732 606.864 442.556 607.072C442.396 607.28 442.276 607.528 442.196 607.816C442.132 608.104 442.1 608.416 442.1 608.752V609.376H446.516V612.352H442.1V622H438.524V608.704C438.524 607.072 438.98 605.776 439.892 604.816C440.82 603.856 442.188 603.376 443.996 603.376ZM338.728 650C338.392 649.456 337.992 648.872 337.528 648.248C337.08 647.608 336.584 646.976 336.04 646.352C335.512 645.712 334.96 645.104 334.384 644.528C333.808 643.936 333.232 643.416 332.656 642.968V650H328.912V633.368H332.656V639.656C333.632 638.632 334.608 637.568 335.584 636.464C336.576 635.344 337.496 634.312 338.344 633.368H342.784C341.648 634.712 340.504 636.008 339.352 637.256C338.216 638.504 337.016 639.76 335.752 641.024C337.08 642.128 338.36 643.44 339.592 644.96C340.84 646.48 342.032 648.16 343.168 650H338.728ZM345.078 637.808C345.686 637.632 346.47 637.472 347.43 637.328C348.39 637.168 349.398 637.088 350.454 637.088C351.526 637.088 352.414 637.232 353.118 637.52C353.838 637.792 354.406 638.184 354.822 638.696C355.238 639.208 355.534 639.816 355.71 640.52C355.886 641.224 355.974 642.008 355.974 642.872V650H352.398V643.304C352.398 642.152 352.246 641.336 351.942 640.856C351.638 640.376 351.07 640.136 350.238 640.136C349.982 640.136 349.71 640.152 349.422 640.184C349.134 640.2 348.878 640.224 348.654 640.256V650H345.078V637.808ZM371.019 643.664C371.019 644.656 370.875 645.568 370.587 646.4C370.299 647.216 369.883 647.92 369.339 648.512C368.795 649.088 368.139 649.536 367.371 649.856C366.619 650.176 365.771 650.336 364.827 650.336C363.899 650.336 363.051 650.176 362.283 649.856C361.531 649.536 360.883 649.088 360.339 648.512C359.795 647.92 359.371 647.216 359.067 646.4C358.763 645.568 358.611 644.656 358.611 643.664C358.611 642.672 358.763 641.768 359.067 640.952C359.387 640.136 359.819 639.44 360.363 638.864C360.923 638.288 361.579 637.84 362.331 637.52C363.099 637.2 363.931 637.04 364.827 637.04C365.739 637.04 366.571 637.2 367.323 637.52C368.091 637.84 368.747 638.288 369.291 638.864C369.835 639.44 370.259 640.136 370.563 640.952C370.867 641.768 371.019 642.672 371.019 643.664ZM367.371 643.664C367.371 642.56 367.147 641.696 366.699 641.072C366.267 640.432 365.643 640.112 364.827 640.112C364.011 640.112 363.379 640.432 362.931 641.072C362.483 641.696 362.259 642.56 362.259 643.664C362.259 644.768 362.483 645.648 362.931 646.304C363.379 646.944 364.011 647.264 364.827 647.264C365.643 647.264 366.267 646.944 366.699 646.304C367.147 645.648 367.371 644.768 367.371 643.664ZM381.188 642.752C380.868 643.968 380.524 645.176 380.156 646.376C379.804 647.576 379.428 648.784 379.028 650H376.244C375.956 649.328 375.644 648.528 375.308 647.6C374.972 646.672 374.62 645.664 374.252 644.576C373.9 643.472 373.532 642.312 373.148 641.096C372.78 639.864 372.42 638.624 372.068 637.376H375.836C375.964 637.952 376.1 638.584 376.244 639.272C376.404 639.944 376.564 640.64 376.724 641.36C376.9 642.08 377.076 642.808 377.252 643.544C377.444 644.264 377.636 644.96 377.828 645.632C378.036 644.928 378.236 644.208 378.428 643.472C378.636 642.736 378.828 642.016 379.004 641.312C379.196 640.592 379.372 639.904 379.532 639.248C379.708 638.576 379.86 637.952 379.988 637.376H382.58C382.708 637.952 382.852 638.576 383.012 639.248C383.172 639.904 383.34 640.592 383.516 641.312C383.692 642.016 383.876 642.736 384.068 643.472C384.26 644.208 384.46 644.928 384.668 645.632C384.86 644.96 385.052 644.264 385.244 643.544C385.436 642.808 385.612 642.08 385.772 641.36C385.948 640.64 386.108 639.944 386.252 639.272C386.412 638.584 386.556 637.952 386.684 637.376H390.404C390.052 638.624 389.684 639.864 389.3 641.096C388.932 642.312 388.564 643.472 388.196 644.576C387.844 645.664 387.492 646.672 387.14 647.6C386.804 648.528 386.492 649.328 386.204 650H383.42C383.02 648.784 382.628 647.576 382.244 646.376C381.86 645.176 381.508 643.968 381.188 642.752ZM397.368 650.24C396.328 650.224 395.48 650.112 394.824 649.904C394.184 649.696 393.672 649.408 393.288 649.04C392.92 648.656 392.664 648.2 392.52 647.672C392.392 647.128 392.328 646.52 392.328 645.848V631.952L395.904 631.376V645.128C395.904 645.448 395.928 645.736 395.976 645.992C396.024 646.248 396.112 646.464 396.24 646.64C396.384 646.816 396.584 646.96 396.84 647.072C397.096 647.184 397.44 647.256 397.872 647.288L397.368 650.24ZM399.322 643.784C399.322 642.664 399.49 641.688 399.826 640.856C400.178 640.008 400.634 639.304 401.194 638.744C401.754 638.184 402.394 637.76 403.114 637.472C403.85 637.184 404.602 637.04 405.37 637.04C407.162 637.04 408.578 637.592 409.618 638.696C410.658 639.784 411.178 641.392 411.178 643.52C411.178 643.728 411.17 643.96 411.154 644.216C411.138 644.456 411.122 644.672 411.106 644.864H402.994C403.074 645.6 403.418 646.184 404.026 646.616C404.634 647.048 405.45 647.264 406.474 647.264C407.13 647.264 407.77 647.208 408.394 647.096C409.034 646.968 409.554 646.816 409.954 646.64L410.434 649.544C410.242 649.64 409.986 649.736 409.666 649.832C409.346 649.928 408.986 650.008 408.586 650.072C408.202 650.152 407.786 650.216 407.338 650.264C406.89 650.312 406.442 650.336 405.994 650.336C404.858 650.336 403.866 650.168 403.018 649.832C402.186 649.496 401.49 649.04 400.93 648.464C400.386 647.872 399.978 647.176 399.706 646.376C399.45 645.576 399.322 644.712 399.322 643.784ZM407.722 642.416C407.706 642.112 407.65 641.816 407.554 641.528C407.474 641.24 407.338 640.984 407.146 640.76C406.97 640.536 406.738 640.352 406.45 640.208C406.178 640.064 405.834 639.992 405.418 639.992C405.018 639.992 404.674 640.064 404.386 640.208C404.098 640.336 403.858 640.512 403.666 640.736C403.474 640.96 403.322 641.224 403.21 641.528C403.114 641.816 403.042 642.112 402.994 642.416H407.722ZM416.986 643.592C416.986 644.696 417.234 645.584 417.73 646.256C418.226 646.928 418.962 647.264 419.938 647.264C420.258 647.264 420.554 647.256 420.826 647.24C421.098 647.208 421.322 647.176 421.498 647.144V640.64C421.274 640.496 420.978 640.376 420.61 640.28C420.258 640.184 419.898 640.136 419.53 640.136C417.834 640.136 416.986 641.288 416.986 643.592ZM425.074 649.592C424.754 649.688 424.386 649.784 423.97 649.88C423.554 649.96 423.114 650.032 422.65 650.096C422.202 650.16 421.738 650.208 421.258 650.24C420.794 650.288 420.346 650.312 419.914 650.312C418.874 650.312 417.946 650.16 417.13 649.856C416.314 649.552 415.626 649.12 415.066 648.56C414.506 647.984 414.074 647.296 413.77 646.496C413.482 645.68 413.338 644.768 413.338 643.76C413.338 642.736 413.466 641.816 413.722 641C413.978 640.168 414.346 639.464 414.826 638.888C415.306 638.312 415.89 637.872 416.578 637.568C417.282 637.264 418.082 637.112 418.978 637.112C419.474 637.112 419.914 637.16 420.298 637.256C420.698 637.352 421.098 637.488 421.498 637.664V631.952L425.074 631.376V649.592ZM431.47 643.28C431.47 645.28 432.278 646.28 433.894 646.28C434.262 646.28 434.606 646.232 434.926 646.136C435.246 646.04 435.518 645.928 435.742 645.8V640.088C435.566 640.056 435.358 640.032 435.118 640.016C434.878 639.984 434.598 639.968 434.278 639.968C433.334 639.968 432.63 640.28 432.166 640.904C431.702 641.528 431.47 642.32 431.47 643.28ZM439.318 648.416C439.318 650.48 438.79 652.008 437.734 653C436.694 654.008 435.078 654.512 432.886 654.512C432.118 654.512 431.35 654.44 430.582 654.296C429.814 654.168 429.102 653.992 428.446 653.768L429.07 650.768C429.63 650.992 430.214 651.168 430.822 651.296C431.446 651.424 432.15 651.488 432.934 651.488C433.958 651.488 434.678 651.264 435.094 650.816C435.526 650.368 435.742 649.792 435.742 649.088V648.632C435.358 648.808 434.958 648.944 434.542 649.04C434.142 649.12 433.702 649.16 433.222 649.16C431.478 649.16 430.142 648.648 429.214 647.624C428.286 646.584 427.822 645.136 427.822 643.28C427.822 642.352 427.966 641.512 428.254 640.76C428.542 639.992 428.958 639.336 429.502 638.792C430.062 638.248 430.742 637.832 431.542 637.544C432.342 637.24 433.246 637.088 434.254 637.088C434.686 637.088 435.126 637.112 435.574 637.16C436.038 637.192 436.494 637.24 436.942 637.304C437.39 637.368 437.814 637.448 438.214 637.544C438.63 637.624 438.998 637.712 439.318 637.808V648.416ZM442.072 643.784C442.072 642.664 442.24 641.688 442.576 640.856C442.928 640.008 443.384 639.304 443.944 638.744C444.504 638.184 445.144 637.76 445.864 637.472C446.6 637.184 447.352 637.04 448.12 637.04C449.912 637.04 451.328 637.592 452.368 638.696C453.408 639.784 453.928 641.392 453.928 643.52C453.928 643.728 453.92 643.96 453.904 644.216C453.888 644.456 453.872 644.672 453.856 644.864H445.744C445.824 645.6 446.168 646.184 446.776 646.616C447.384 647.048 448.2 647.264 449.224 647.264C449.88 647.264 450.52 647.208 451.144 647.096C451.784 646.968 452.304 646.816 452.704 646.64L453.184 649.544C452.992 649.64 452.736 649.736 452.416 649.832C452.096 649.928 451.736 650.008 451.336 650.072C450.952 650.152 450.536 650.216 450.088 650.264C449.64 650.312 449.192 650.336 448.744 650.336C447.608 650.336 446.616 650.168 445.768 649.832C444.936 649.496 444.24 649.04 443.68 648.464C443.136 647.872 442.728 647.176 442.456 646.376C442.2 645.576 442.072 644.712 442.072 643.784ZM450.472 642.416C450.456 642.112 450.4 641.816 450.304 641.528C450.224 641.24 450.088 640.984 449.896 640.76C449.72 640.536 449.488 640.352 449.2 640.208C448.928 640.064 448.584 639.992 448.168 639.992C447.768 639.992 447.424 640.064 447.136 640.208C446.848 640.336 446.608 640.512 446.416 640.736C446.224 640.96 446.072 641.224 445.96 641.528C445.864 641.816 445.792 642.112 445.744 642.416H450.472Z" fill="url(#paint5_linear_282_256)"/>
</g>
<defs>
<filter id="filter0_d_282_256" x="18" y="301" width="260" height="260" filterUnits="userSpaceOnUse" color-interpolation-filters="sRGB">
<feFlood flood-opacity="0" result="BackgroundImageFix"/>
<feColorMatrix in="SourceAlpha" type="matrix" values="0 0 0 0 0 0 0 0 0 0 0 0 0 0 0 0 0 0 127 0" result="hardAlpha"/>
<feOffset/>
<feGaussianBlur stdDeviation="10"/>
<feComposite in2="hardAlpha" operator="out"/>
<feColorMatrix type="matrix" values="0 0 0 0 0 0 0 0 0 0 0 0 0 0 0 0 0 0 0.3 0"/>
<feBlend mode="normal" in2="BackgroundImageFix" result="effect1_dropShadow_282_256"/>
<feBlend mode="normal" in="SourceGraphic" in2="effect1_dropShadow_282_256" result="shape"/>
</filter>
<filter id="filter1_d_282_256" x="211" y="61" width="231" height="222" filterUnits="userSpaceOnUse" color-interpolation-filters="sRGB">
<feFlood flood-opacity="0" result="BackgroundImageFix"/>
<feColorMatrix in="SourceAlpha" type="matrix" values="0 0 0 0 0 0 0 0 0 0 0 0 0 0 0 0 0 0 127 0" result="hardAlpha"/>
<feOffset/>
<feGaussianBlur stdDeviation="10"/>
<feComposite in2="hardAlpha" operator="out"/>
<feColorMatrix type="matrix" values="0 0 0 0 0 0 0 0 0 0 0 0 0 0 0 0 0 0 0.3 0"/>
<feBlend mode="normal" in2="BackgroundImageFix" result="effect1_dropShadow_282_256"/>
<feBlend mode="normal" in="SourceGraphic" in2="effect1_dropShadow_282_256" result="shape"/>
</filter>
<filter id="filter2_d_282_256" x="541" y="78" width="220" height="220" filterUnits="userSpaceOnUse" color-interpolation-filters="sRGB">
<feFlood flood-opacity="0" result="BackgroundImageFix"/>
<feColorMatrix in="SourceAlpha" type="matrix" values="0 0 0 0 0 0 0 0 0 0 0 0 0 0 0 0 0 0 127 0" result="hardAlpha"/>
<feOffset/>
<feGaussianBlur stdDeviation="10"/>
<feComposite in2="hardAlpha" operator="out"/>
<feColorMatrix type="matrix" values="0 0 0 0 0 0 0 0 0 0 0 0 0 0 0 0 0 0 0.3 0"/>
<feBlend mode="normal" in2="BackgroundImageFix" result="effect1_dropShadow_282_256"/>
<feBlend mode="normal" in="SourceGraphic" in2="effect1_dropShadow_282_256" result="shape"/>
</filter>
<filter id="filter3_d_282_256" x="563" y="497" width="220" height="220" filterUnits="userSpaceOnUse" color-interpolation-filters="sRGB">
<feFlood flood-opacity="0" result="BackgroundImageFix"/>
<feColorMatrix in="SourceAlpha" type="matrix" values="0 0 0 0 0 0 0 0 0 0 0 0 0 0 0 0 0 0 127 0" result="hardAlpha"/>
<feOffset/>
<feGaussianBlur stdDeviation="10"/>
<feComposite in2="hardAlpha" operator="out"/>
<feColorMatrix type="matrix" values="0 0 0 0 0 0 0 0 0 0 0 0 0 0 0 0 0 0 0.3 0"/>
<feBlend mode="normal" in2="BackgroundImageFix" result="effect1_dropShadow_282_256"/>
<feBlend mode="normal" in="SourceGraphic" in2="effect1_dropShadow_282_256" result="shape"/>
</filter>
<filter id="filter4_d_282_256" x="391" y="315" width="212" height="211" filterUnits="userSpaceOnUse" color-interpolation-filters="sRGB">
<feFlood flood-opacity="0" result="BackgroundImageFix"/>
<feColorMatrix in="SourceAlpha" type="matrix" values="0 0 0 0 0 0 0 0 0 0 0 0 0 0 0 0 0 0 127 0" result="hardAlpha"/>
<feOffset/>
<feGaussianBlur stdDeviation="10"/>
<feComposite in2="hardAlpha" operator="out"/>
<feColorMatrix type="matrix" values="0 0 0 0 0 0 0 0 0 0 0 0 0 0 0 0 0 0 0.3 0"/>
<feBlend mode="normal" in2="BackgroundImageFix" result="effect1_dropShadow_282_256"/>
<feBlend mode="normal" in="SourceGraphic" in2="effect1_dropShadow_282_256" result="shape"/>
</filter>
<filter id="filter5_d_282_256" x="301" y="537" width="180" height="180" filterUnits="userSpaceOnUse" color-interpolation-filters="sRGB">
<feFlood flood-opacity="0" result="BackgroundImageFix"/>
<feColorMatrix in="SourceAlpha" type="matrix" values="0 0 0 0 0 0 0 0 0 0 0 0 0 0 0 0 0 0 127 0" result="hardAlpha"/>
<feOffset/>
<feGaussianBlur stdDeviation="10"/>
<feComposite in2="hardAlpha" operator="out"/>
<feColorMatrix type="matrix" values="0 0 0 0 0 0 0 0 0 0 0 0 0 0 0 0 0 0 0.3 0"/>
<feBlend mode="normal" in2="BackgroundImageFix" result="effect1_dropShadow_282_256"/>
<feBlend mode="normal" in="SourceGraphic" in2="effect1_dropShadow_282_256" result="shape"/>
</filter>
<linearGradient id="paint0_linear_282_256" x1="212" y1="397.5" x2="80" y2="462.5" gradientUnits="userSpaceOnUse">
<stop stop-color="#D226E1"/>
<stop offset="1" stop-color="#14B5EB"/>
</linearGradient>
<linearGradient id="paint1_linear_282_256" x1="382.064" y1="136.368" x2="259.479" y2="185.639" gradientUnits="userSpaceOnUse">
<stop stop-color="#D226E1"/>
<stop offset="1" stop-color="#14B5EB"/>
</linearGradient>
<linearGradient id="paint2_linear_282_256" x1="703.364" y1="159.982" x2="594.45" y2="212.448" gradientUnits="userSpaceOnUse">
<stop stop-color="#D226E1"/>
<stop offset="1" stop-color="#14B5EB"/>
</linearGradient>
<linearGradient id="paint3_linear_282_256" x1="725.364" y1="584.464" x2="626.6" y2="643.613" gradientUnits="userSpaceOnUse">
<stop stop-color="#D226E1"/>
<stop offset="1" stop-color="#14B5EB"/>
</linearGradient>
<linearGradient id="paint4_linear_282_256" x1="342.773" y1="338.406" x2="546.087" y2="601.643" gradientUnits="userSpaceOnUse">
<stop stop-color="#14B5EB"/>
<stop offset="1" stop-color="#D226E1"/>
</linearGradient>
<linearGradient id="paint5_linear_282_256" x1="265.467" y1="564.875" x2="416.148" y2="774.713" gradientUnits="userSpaceOnUse">
<stop stop-color="#14B5EB"/>
<stop offset="1" stop-color="#D226E1"/>
</linearGradient>
</defs>
</svg>
