<svg width="779" height="779" viewBox="0 0 779 779" fill="none" xmlns="http://www.w3.org/2000/svg">
<g filter="url(#filter0_d_224_23)">
<rect x="38" y="321" width="220" height="220" rx="20" fill="white"/>
<path d="M118.182 366.104H129.414V416H118.182V366.104ZM157.595 416.648C154.859 416.648 152.123 416.552 149.387 416.36C146.699 416.216 143.891 415.832 140.963 415.208V366.824C143.267 366.392 145.787 366.08 148.523 365.888C151.259 365.648 153.803 365.528 156.155 365.528C159.323 365.528 162.227 365.768 164.867 366.248C167.555 366.68 169.859 367.448 171.779 368.552C173.699 369.656 175.187 371.12 176.243 372.944C177.347 374.72 177.899 376.928 177.899 379.568C177.899 383.552 175.979 386.696 172.139 389C175.307 390.2 177.467 391.832 178.619 393.896C179.771 395.96 180.347 398.288 180.347 400.88C180.347 406.112 178.427 410.048 174.587 412.688C170.795 415.328 165.131 416.648 157.595 416.648ZM151.907 394.256V407.144C152.723 407.24 153.611 407.312 154.571 407.36C155.531 407.408 156.587 407.432 157.739 407.432C161.099 407.432 163.811 406.952 165.875 405.992C167.939 405.032 168.971 403.256 168.971 400.664C168.971 398.36 168.107 396.728 166.379 395.768C164.651 394.76 162.179 394.256 158.963 394.256H151.907ZM151.907 385.688H157.379C160.835 385.688 163.307 385.256 164.795 384.392C166.283 383.48 167.027 382.04 167.027 380.072C167.027 378.056 166.259 376.64 164.723 375.824C163.187 375.008 160.931 374.6 157.955 374.6C156.995 374.6 155.963 374.624 154.859 374.672C153.755 374.672 152.771 374.72 151.907 374.816V385.688ZM95.8636 500.008C87.7516 500.008 81.5596 497.752 77.2876 493.24C73.0636 488.728 70.9516 482.32 70.9516 474.016C70.9516 469.888 71.5996 466.216 72.8956 463C74.1916 459.736 75.9676 457 78.2236 454.792C80.4796 452.536 83.1676 450.832 86.2876 449.68C89.4076 448.528 92.7916 447.952 96.4396 447.952C98.5516 447.952 100.472 448.12 102.2 448.456C103.928 448.744 105.44 449.104 106.736 449.536C108.032 449.92 109.112 450.328 109.976 450.76C110.84 451.192 111.464 451.528 111.848 451.768L108.608 460.84C107.072 460.024 105.272 459.328 103.208 458.752C101.192 458.176 98.8876 457.888 96.2956 457.888C94.5676 457.888 92.8636 458.176 91.1836 458.752C89.5516 459.328 88.0876 460.264 86.7916 461.56C85.5436 462.808 84.5356 464.44 83.7676 466.456C82.9996 468.472 82.6156 470.92 82.6156 473.8C82.6156 476.104 82.8556 478.264 83.3356 480.28C83.8636 482.248 84.6796 483.952 85.7836 485.392C86.9356 486.832 88.4236 487.984 90.2476 488.848C92.0716 489.664 94.2796 490.072 96.8716 490.072C98.5036 490.072 99.9676 489.976 101.264 489.784C102.56 489.592 103.712 489.376 104.72 489.136C105.728 488.848 106.616 488.536 107.384 488.2C108.152 487.864 108.848 487.552 109.472 487.264L112.568 496.264C110.984 497.224 108.752 498.088 105.872 498.856C102.992 499.624 99.6556 500.008 95.8636 500.008ZM153.659 479.992C153.659 482.968 153.227 485.704 152.363 488.2C151.499 490.648 150.251 492.76 148.619 494.536C146.987 496.264 145.019 497.608 142.715 498.568C140.459 499.528 137.915 500.008 135.083 500.008C132.299 500.008 129.755 499.528 127.451 498.568C125.195 497.608 123.251 496.264 121.619 494.536C119.987 492.76 118.715 490.648 117.803 488.2C116.891 485.704 116.435 482.968 116.435 479.992C116.435 477.016 116.891 474.304 117.803 471.856C118.763 469.408 120.059 467.32 121.691 465.592C123.371 463.864 125.339 462.52 127.595 461.56C129.899 460.6 132.395 460.12 135.083 460.12C137.819 460.12 140.315 460.6 142.571 461.56C144.875 462.52 146.843 463.864 148.475 465.592C150.107 467.32 151.379 469.408 152.291 471.856C153.203 474.304 153.659 477.016 153.659 479.992ZM142.715 479.992C142.715 476.68 142.043 474.088 140.699 472.216C139.403 470.296 137.531 469.336 135.083 469.336C132.635 469.336 130.739 470.296 129.395 472.216C128.051 474.088 127.379 476.68 127.379 479.992C127.379 483.304 128.051 485.944 129.395 487.912C130.739 489.832 132.635 490.792 135.083 490.792C137.531 490.792 139.403 489.832 140.699 487.912C142.043 485.944 142.715 483.304 142.715 479.992ZM184.794 470.632C183.834 470.392 182.706 470.152 181.41 469.912C180.114 469.624 178.722 469.48 177.234 469.48C176.562 469.48 175.746 469.552 174.786 469.696C173.874 469.792 173.178 469.912 172.698 470.056V499H161.97V463.144C163.89 462.472 166.146 461.848 168.738 461.272C171.378 460.648 174.306 460.336 177.522 460.336C178.098 460.336 178.794 460.384 179.61 460.48C180.426 460.528 181.242 460.624 182.058 460.768C182.874 460.864 183.69 461.008 184.506 461.2C185.322 461.344 186.018 461.536 186.594 461.776L184.794 470.632ZM189.842 480.352C189.842 476.992 190.346 474.064 191.354 471.568C192.41 469.024 193.778 466.912 195.458 465.232C197.138 463.552 199.058 462.28 201.218 461.416C203.426 460.552 205.682 460.12 207.986 460.12C213.362 460.12 217.61 461.776 220.73 465.088C223.85 468.352 225.41 473.176 225.41 479.56C225.41 480.184 225.386 480.88 225.338 481.648C225.29 482.368 225.242 483.016 225.194 483.592H200.858C201.098 485.8 202.13 487.552 203.954 488.848C205.778 490.144 208.226 490.792 211.298 490.792C213.266 490.792 215.186 490.624 217.058 490.288C218.978 489.904 220.538 489.448 221.738 488.92L223.178 497.632C222.602 497.92 221.834 498.208 220.874 498.496C219.914 498.784 218.834 499.024 217.634 499.216C216.482 499.456 215.234 499.648 213.89 499.792C212.546 499.936 211.202 500.008 209.858 500.008C206.45 500.008 203.474 499.504 200.93 498.496C198.434 497.488 196.346 496.12 194.666 494.392C193.034 492.616 191.81 490.528 190.994 488.128C190.226 485.728 189.842 483.136 189.842 480.352ZM215.042 476.248C214.994 475.336 214.826 474.448 214.538 473.584C214.298 472.72 213.89 471.952 213.314 471.28C212.786 470.608 212.09 470.056 211.226 469.624C210.41 469.192 209.378 468.976 208.13 468.976C206.93 468.976 205.898 469.192 205.034 469.624C204.17 470.008 203.45 470.536 202.874 471.208C202.298 471.88 201.842 472.672 201.506 473.584C201.218 474.448 201.002 475.336 200.858 476.248H215.042Z" fill="url(#paint0_linear_224_23)"/>
</g>
<g filter="url(#filter1_d_224_23)">
<rect x="231" y="81" width="191" height="182" rx="20" fill="white"/>
<path d="M251.31 160.938H256.614V184.5H251.31V174.504H242.402V184.5H237.098V160.938H242.402V169.948H251.31V160.938ZM276.993 183.888C276.131 184.137 275.021 184.364 273.661 184.568C272.301 184.795 270.873 184.908 269.377 184.908C267.858 184.908 266.589 184.704 265.569 184.296C264.571 183.888 263.778 183.321 263.189 182.596C262.599 181.848 262.18 180.964 261.931 179.944C261.681 178.924 261.557 177.802 261.557 176.578V166.616H266.623V175.966C266.623 177.598 266.838 178.777 267.269 179.502C267.699 180.227 268.504 180.59 269.683 180.59C270.045 180.59 270.431 180.579 270.839 180.556C271.247 180.511 271.609 180.465 271.927 180.42V166.616H276.993V183.888ZM291.574 175.014C291.574 173.382 291.359 172.226 290.928 171.546C290.52 170.866 289.806 170.526 288.786 170.526C288.469 170.526 288.14 170.549 287.8 170.594C287.46 170.617 287.131 170.651 286.814 170.696V184.5H281.748V167.228C282.179 167.115 282.677 167.001 283.244 166.888C283.833 166.752 284.445 166.639 285.08 166.548C285.737 166.435 286.406 166.355 287.086 166.31C287.766 166.242 288.435 166.208 289.092 166.208C290.384 166.208 291.427 166.378 292.22 166.718C293.036 167.035 293.705 167.421 294.226 167.874C294.951 167.353 295.779 166.945 296.708 166.65C297.66 166.355 298.533 166.208 299.326 166.208C300.754 166.208 301.921 166.412 302.828 166.82C303.757 167.205 304.494 167.761 305.038 168.486C305.582 169.211 305.956 170.073 306.16 171.07C306.364 172.067 306.466 173.178 306.466 174.402V184.5H301.4V175.014C301.4 173.382 301.185 172.226 300.754 171.546C300.346 170.866 299.632 170.526 298.612 170.526C298.34 170.526 297.955 170.594 297.456 170.73C296.98 170.866 296.583 171.036 296.266 171.24C296.425 171.761 296.527 172.317 296.572 172.906C296.617 173.473 296.64 174.085 296.64 174.742V184.5H291.574V175.014ZM317.901 180.964C318.399 180.964 318.875 180.953 319.329 180.93C319.782 180.907 320.145 180.873 320.417 180.828V176.986C320.213 176.941 319.907 176.895 319.499 176.85C319.091 176.805 318.717 176.782 318.377 176.782C317.901 176.782 317.447 176.816 317.017 176.884C316.609 176.929 316.246 177.031 315.929 177.19C315.611 177.349 315.362 177.564 315.181 177.836C314.999 178.108 314.909 178.448 314.909 178.856C314.909 179.649 315.169 180.205 315.691 180.522C316.235 180.817 316.971 180.964 317.901 180.964ZM317.493 166.14C318.989 166.14 320.235 166.31 321.233 166.65C322.23 166.99 323.023 167.477 323.613 168.112C324.225 168.747 324.655 169.517 324.905 170.424C325.154 171.331 325.279 172.339 325.279 173.45V183.99C324.553 184.149 323.545 184.33 322.253 184.534C320.961 184.761 319.397 184.874 317.561 184.874C316.405 184.874 315.351 184.772 314.399 184.568C313.469 184.364 312.665 184.035 311.985 183.582C311.305 183.106 310.783 182.494 310.421 181.746C310.058 180.998 309.877 180.08 309.877 178.992C309.877 177.949 310.081 177.065 310.489 176.34C310.919 175.615 311.486 175.037 312.189 174.606C312.891 174.175 313.696 173.869 314.603 173.688C315.509 173.484 316.45 173.382 317.425 173.382C318.082 173.382 318.66 173.416 319.159 173.484C319.68 173.529 320.099 173.597 320.417 173.688V173.212C320.417 172.351 320.156 171.659 319.635 171.138C319.113 170.617 318.207 170.356 316.915 170.356C316.053 170.356 315.203 170.424 314.365 170.56C313.526 170.673 312.801 170.843 312.189 171.07L311.543 166.99C311.837 166.899 312.2 166.809 312.631 166.718C313.084 166.605 313.571 166.514 314.093 166.446C314.614 166.355 315.158 166.287 315.725 166.242C316.314 166.174 316.903 166.14 317.493 166.14ZM329.859 167.228C330.721 166.979 331.831 166.752 333.191 166.548C334.551 166.321 335.979 166.208 337.475 166.208C338.994 166.208 340.252 166.412 341.249 166.82C342.269 167.205 343.074 167.761 343.663 168.486C344.253 169.211 344.672 170.073 344.921 171.07C345.171 172.067 345.295 173.178 345.295 174.402V184.5H340.229V175.014C340.229 173.382 340.014 172.226 339.583 171.546C339.153 170.866 338.348 170.526 337.169 170.526C336.807 170.526 336.421 170.549 336.013 170.594C335.605 170.617 335.243 170.651 334.925 170.696V184.5H329.859V167.228ZM354.947 184.5H349.881V166.616H354.947V184.5ZM355.423 161.448C355.423 162.377 355.117 163.114 354.505 163.658C353.916 164.179 353.213 164.44 352.397 164.44C351.581 164.44 350.867 164.179 350.255 163.658C349.666 163.114 349.371 162.377 349.371 161.448C349.371 160.519 349.666 159.793 350.255 159.272C350.867 158.728 351.581 158.456 352.397 158.456C353.213 158.456 353.916 158.728 354.505 159.272C355.117 159.793 355.423 160.519 355.423 161.448ZM359.539 162.162L364.605 161.346V166.616H370.691V170.832H364.605V177.122C364.605 178.187 364.786 179.037 365.149 179.672C365.534 180.307 366.294 180.624 367.427 180.624C367.971 180.624 368.526 180.579 369.093 180.488C369.682 180.375 370.215 180.227 370.691 180.046L371.405 183.99C370.793 184.239 370.113 184.455 369.365 184.636C368.617 184.817 367.699 184.908 366.611 184.908C365.228 184.908 364.084 184.727 363.177 184.364C362.27 183.979 361.545 183.457 361.001 182.8C360.457 182.12 360.072 181.304 359.845 180.352C359.641 179.4 359.539 178.346 359.539 177.19V162.162ZM379.883 184.5H374.817V166.616H379.883V184.5ZM380.359 161.448C380.359 162.377 380.053 163.114 379.441 163.658C378.851 164.179 378.149 164.44 377.333 164.44C376.517 164.44 375.803 164.179 375.191 163.658C374.601 163.114 374.307 162.377 374.307 161.448C374.307 160.519 374.601 159.793 375.191 159.272C375.803 158.728 376.517 158.456 377.333 158.456C378.149 158.456 378.851 158.728 379.441 159.272C380.053 159.793 380.359 160.519 380.359 161.448ZM383.795 175.694C383.795 174.107 384.033 172.725 384.509 171.546C385.007 170.345 385.653 169.347 386.447 168.554C387.24 167.761 388.147 167.16 389.167 166.752C390.209 166.344 391.275 166.14 392.363 166.14C394.901 166.14 396.907 166.922 398.381 168.486C399.854 170.027 400.591 172.305 400.591 175.32C400.591 175.615 400.579 175.943 400.557 176.306C400.534 176.646 400.511 176.952 400.489 177.224H388.997C389.11 178.267 389.597 179.094 390.459 179.706C391.32 180.318 392.476 180.624 393.927 180.624C394.856 180.624 395.763 180.545 396.647 180.386C397.553 180.205 398.29 179.989 398.857 179.74L399.537 183.854C399.265 183.99 398.902 184.126 398.449 184.262C397.995 184.398 397.485 184.511 396.919 184.602C396.375 184.715 395.785 184.806 395.151 184.874C394.516 184.942 393.881 184.976 393.247 184.976C391.637 184.976 390.232 184.738 389.031 184.262C387.852 183.786 386.866 183.14 386.073 182.324C385.302 181.485 384.724 180.499 384.339 179.366C383.976 178.233 383.795 177.009 383.795 175.694ZM395.695 173.756C395.672 173.325 395.593 172.906 395.457 172.498C395.343 172.09 395.151 171.727 394.879 171.41C394.629 171.093 394.301 170.832 393.893 170.628C393.507 170.424 393.02 170.322 392.431 170.322C391.864 170.322 391.377 170.424 390.969 170.628C390.561 170.809 390.221 171.059 389.949 171.376C389.677 171.693 389.461 172.067 389.303 172.498C389.167 172.906 389.065 173.325 388.997 173.756H395.695ZM409.634 180.862C410.563 180.862 411.221 180.771 411.606 180.59C411.991 180.409 412.184 180.057 412.184 179.536C412.184 179.128 411.935 178.777 411.436 178.482C410.937 178.165 410.178 177.813 409.158 177.428C408.365 177.133 407.639 176.827 406.982 176.51C406.347 176.193 405.803 175.819 405.35 175.388C404.897 174.935 404.545 174.402 404.296 173.79C404.047 173.178 403.922 172.441 403.922 171.58C403.922 169.903 404.545 168.577 405.792 167.602C407.039 166.627 408.75 166.14 410.926 166.14C412.014 166.14 413.057 166.242 414.054 166.446C415.051 166.627 415.845 166.831 416.434 167.058L415.55 171.002C414.961 170.798 414.315 170.617 413.612 170.458C412.932 170.299 412.161 170.22 411.3 170.22C409.713 170.22 408.92 170.662 408.92 171.546C408.92 171.75 408.954 171.931 409.022 172.09C409.09 172.249 409.226 172.407 409.43 172.566C409.634 172.702 409.906 172.861 410.246 173.042C410.609 173.201 411.062 173.382 411.606 173.586C412.717 173.994 413.635 174.402 414.36 174.81C415.085 175.195 415.652 175.626 416.06 176.102C416.491 176.555 416.785 177.065 416.944 177.632C417.125 178.199 417.216 178.856 417.216 179.604C417.216 181.372 416.547 182.709 415.21 183.616C413.895 184.523 412.025 184.976 409.6 184.976C408.013 184.976 406.687 184.84 405.622 184.568C404.579 184.296 403.854 184.069 403.446 183.888L404.296 179.774C405.157 180.114 406.041 180.386 406.948 180.59C407.855 180.771 408.75 180.862 409.634 180.862Z" fill="url(#paint1_linear_224_23)"/>
</g>
<g filter="url(#filter2_d_224_23)">
<rect x="561" y="98" width="180" height="180" rx="20" fill="white"/>
<path d="M580.002 198.24C580.882 198.24 581.602 198.173 582.162 198.04C582.749 197.88 583.216 197.68 583.562 197.44C583.909 197.173 584.149 196.867 584.282 196.52C584.416 196.173 584.482 195.787 584.482 195.36C584.482 194.453 584.056 193.707 583.202 193.12C582.349 192.507 580.882 191.853 578.802 191.16C577.896 190.84 576.989 190.48 576.082 190.08C575.176 189.653 574.362 189.133 573.642 188.52C572.922 187.88 572.336 187.12 571.882 186.24C571.429 185.333 571.202 184.24 571.202 182.96C571.202 181.68 571.442 180.533 571.922 179.52C572.402 178.48 573.082 177.6 573.962 176.88C574.842 176.16 575.909 175.613 577.162 175.24C578.416 174.84 579.829 174.64 581.402 174.64C583.269 174.64 584.882 174.84 586.242 175.24C587.602 175.64 588.722 176.08 589.602 176.56L587.802 181.48C587.029 181.08 586.162 180.733 585.202 180.44C584.269 180.12 583.136 179.96 581.802 179.96C580.309 179.96 579.229 180.173 578.562 180.6C577.922 181 577.602 181.627 577.602 182.48C577.602 182.987 577.722 183.413 577.962 183.76C578.202 184.107 578.536 184.427 578.962 184.72C579.416 184.987 579.922 185.24 580.482 185.48C581.069 185.693 581.709 185.92 582.402 186.16C583.842 186.693 585.096 187.227 586.162 187.76C587.229 188.267 588.109 188.867 588.802 189.56C589.522 190.253 590.056 191.067 590.402 192C590.749 192.933 590.922 194.067 590.922 195.4C590.922 197.987 590.016 200 588.202 201.44C586.389 202.853 583.656 203.56 580.002 203.56C578.776 203.56 577.669 203.48 576.682 203.32C575.696 203.187 574.816 203.013 574.042 202.8C573.296 202.587 572.642 202.36 572.082 202.12C571.549 201.88 571.096 201.653 570.722 201.44L572.482 196.48C573.309 196.933 574.322 197.347 575.522 197.72C576.749 198.067 578.242 198.24 580.002 198.24ZM594.323 192.48C594.323 190.96 594.563 189.533 595.043 188.2C595.55 186.84 596.27 185.667 597.203 184.68C598.137 183.667 599.27 182.867 600.603 182.28C601.937 181.693 603.457 181.4 605.163 181.4C606.283 181.4 607.31 181.507 608.243 181.72C609.177 181.907 610.083 182.187 610.963 182.56L609.723 187.32C609.163 187.107 608.55 186.92 607.883 186.76C607.217 186.6 606.47 186.52 605.643 186.52C603.883 186.52 602.563 187.067 601.683 188.16C600.83 189.253 600.403 190.693 600.403 192.48C600.403 194.373 600.803 195.84 601.603 196.88C602.43 197.92 603.857 198.44 605.883 198.44C606.603 198.44 607.377 198.373 608.203 198.24C609.03 198.107 609.79 197.893 610.483 197.6L611.323 202.48C610.63 202.773 609.763 203.027 608.723 203.24C607.683 203.453 606.537 203.56 605.283 203.56C603.363 203.56 601.71 203.28 600.323 202.72C598.937 202.133 597.79 201.347 596.883 200.36C596.003 199.373 595.35 198.213 594.923 196.88C594.523 195.52 594.323 194.053 594.323 192.48ZM621.283 203H615.323V181.96H621.283V203ZM621.843 175.88C621.843 176.973 621.483 177.84 620.763 178.48C620.07 179.093 619.243 179.4 618.283 179.4C617.323 179.4 616.483 179.093 615.763 178.48C615.07 177.84 614.723 176.973 614.723 175.88C614.723 174.787 615.07 173.933 615.763 173.32C616.483 172.68 617.323 172.36 618.283 172.36C619.243 172.36 620.07 172.68 620.763 173.32C621.483 173.933 621.843 174.787 621.843 175.88ZM625.886 192.64C625.886 190.773 626.166 189.147 626.726 187.76C627.313 186.347 628.073 185.173 629.006 184.24C629.939 183.307 631.006 182.6 632.206 182.12C633.433 181.64 634.686 181.4 635.966 181.4C638.953 181.4 641.313 182.32 643.046 184.16C644.779 185.973 645.646 188.653 645.646 192.2C645.646 192.547 645.633 192.933 645.606 193.36C645.579 193.76 645.553 194.12 645.526 194.44H632.006C632.139 195.667 632.713 196.64 633.726 197.36C634.739 198.08 636.099 198.44 637.806 198.44C638.899 198.44 639.966 198.347 641.006 198.16C642.073 197.947 642.939 197.693 643.606 197.4L644.406 202.24C644.086 202.4 643.659 202.56 643.126 202.72C642.593 202.88 641.993 203.013 641.326 203.12C640.686 203.253 639.993 203.36 639.246 203.44C638.499 203.52 637.753 203.56 637.006 203.56C635.113 203.56 633.459 203.28 632.046 202.72C630.659 202.16 629.499 201.4 628.566 200.44C627.659 199.453 626.979 198.293 626.526 196.96C626.099 195.627 625.886 194.187 625.886 192.64ZM639.886 190.36C639.859 189.853 639.766 189.36 639.606 188.88C639.473 188.4 639.246 187.973 638.926 187.6C638.633 187.227 638.246 186.92 637.766 186.68C637.313 186.44 636.739 186.32 636.046 186.32C635.379 186.32 634.806 186.44 634.326 186.68C633.846 186.893 633.446 187.187 633.126 187.56C632.806 187.933 632.553 188.373 632.366 188.88C632.206 189.36 632.086 189.853 632.006 190.36H639.886ZM650.245 182.68C651.259 182.387 652.565 182.12 654.165 181.88C655.765 181.613 657.445 181.48 659.205 181.48C660.992 181.48 662.472 181.72 663.645 182.2C664.845 182.653 665.792 183.307 666.485 184.16C667.179 185.013 667.672 186.027 667.965 187.2C668.259 188.373 668.405 189.68 668.405 191.12V203H662.445V191.84C662.445 189.92 662.192 188.56 661.685 187.76C661.179 186.96 660.232 186.56 658.845 186.56C658.419 186.56 657.965 186.587 657.485 186.64C657.005 186.667 656.579 186.707 656.205 186.76V203H650.245V182.68ZM672.8 192.48C672.8 190.96 673.04 189.533 673.52 188.2C674.027 186.84 674.747 185.667 675.68 184.68C676.613 183.667 677.747 182.867 679.08 182.28C680.413 181.693 681.933 181.4 683.64 181.4C684.76 181.4 685.787 181.507 686.72 181.72C687.653 181.907 688.56 182.187 689.44 182.56L688.2 187.32C687.64 187.107 687.027 186.92 686.36 186.76C685.693 186.6 684.947 186.52 684.12 186.52C682.36 186.52 681.04 187.067 680.16 188.16C679.307 189.253 678.88 190.693 678.88 192.48C678.88 194.373 679.28 195.84 680.08 196.88C680.907 197.92 682.333 198.44 684.36 198.44C685.08 198.44 685.853 198.373 686.68 198.24C687.507 198.107 688.267 197.893 688.96 197.6L689.8 202.48C689.107 202.773 688.24 203.027 687.2 203.24C686.16 203.453 685.013 203.56 683.76 203.56C681.84 203.56 680.187 203.28 678.8 202.72C677.413 202.133 676.267 201.347 675.36 200.36C674.48 199.373 673.827 198.213 673.4 196.88C673 195.52 672.8 194.053 672.8 192.48ZM691.784 192.64C691.784 190.773 692.064 189.147 692.624 187.76C693.211 186.347 693.971 185.173 694.904 184.24C695.838 183.307 696.904 182.6 698.104 182.12C699.331 181.64 700.584 181.4 701.864 181.4C704.851 181.4 707.211 182.32 708.944 184.16C710.678 185.973 711.544 188.653 711.544 192.2C711.544 192.547 711.531 192.933 711.504 193.36C711.478 193.76 711.451 194.12 711.424 194.44H697.904C698.038 195.667 698.611 196.64 699.624 197.36C700.638 198.08 701.998 198.44 703.704 198.44C704.798 198.44 705.864 198.347 706.904 198.16C707.971 197.947 708.838 197.693 709.504 197.4L710.304 202.24C709.984 202.4 709.558 202.56 709.024 202.72C708.491 202.88 707.891 203.013 707.224 203.12C706.584 203.253 705.891 203.36 705.144 203.44C704.398 203.52 703.651 203.56 702.904 203.56C701.011 203.56 699.358 203.28 697.944 202.72C696.558 202.16 695.398 201.4 694.464 200.44C693.558 199.453 692.878 198.293 692.424 196.96C691.998 195.627 691.784 194.187 691.784 192.64ZM705.784 190.36C705.758 189.853 705.664 189.36 705.504 188.88C705.371 188.4 705.144 187.973 704.824 187.6C704.531 187.227 704.144 186.92 703.664 186.68C703.211 186.44 702.638 186.32 701.944 186.32C701.278 186.32 700.704 186.44 700.224 186.68C699.744 186.893 699.344 187.187 699.024 187.56C698.704 187.933 698.451 188.373 698.264 188.88C698.104 189.36 697.984 189.853 697.904 190.36H705.784ZM722.184 198.72C723.277 198.72 724.05 198.613 724.504 198.4C724.957 198.187 725.184 197.773 725.184 197.16C725.184 196.68 724.89 196.267 724.304 195.92C723.717 195.547 722.824 195.133 721.624 194.68C720.69 194.333 719.837 193.973 719.064 193.6C718.317 193.227 717.677 192.787 717.144 192.28C716.61 191.747 716.197 191.12 715.904 190.4C715.61 189.68 715.464 188.813 715.464 187.8C715.464 185.827 716.197 184.267 717.664 183.12C719.13 181.973 721.144 181.4 723.704 181.4C724.984 181.4 726.21 181.52 727.384 181.76C728.557 181.973 729.49 182.213 730.184 182.48L729.144 187.12C728.45 186.88 727.69 186.667 726.864 186.48C726.064 186.293 725.157 186.2 724.144 186.2C722.277 186.2 721.344 186.72 721.344 187.76C721.344 188 721.384 188.213 721.464 188.4C721.544 188.587 721.704 188.773 721.944 188.96C722.184 189.12 722.504 189.307 722.904 189.52C723.33 189.707 723.864 189.92 724.504 190.16C725.81 190.64 726.89 191.12 727.744 191.6C728.597 192.053 729.264 192.56 729.744 193.12C730.25 193.653 730.597 194.253 730.784 194.92C730.997 195.587 731.104 196.36 731.104 197.24C731.104 199.32 730.317 200.893 728.744 201.96C727.197 203.027 724.997 203.56 722.144 203.56C720.277 203.56 718.717 203.4 717.464 203.08C716.237 202.76 715.384 202.493 714.904 202.28L715.904 197.44C716.917 197.84 717.957 198.16 719.024 198.4C720.09 198.613 721.144 198.72 722.184 198.72Z" fill="url(#paint2_linear_224_23)"/>
</g>
<g filter="url(#filter3_d_224_23)">
<rect x="411" y="335" width="172" height="171" rx="20" fill="white"/>
<path d="M447.386 410.748V414.5H434.422V395.096H438.79V410.748H447.386ZM455.875 411.588C456.286 411.588 456.678 411.579 457.051 411.56C457.424 411.541 457.723 411.513 457.947 411.476V408.312C457.779 408.275 457.527 408.237 457.191 408.2C456.855 408.163 456.547 408.144 456.267 408.144C455.875 408.144 455.502 408.172 455.147 408.228C454.811 408.265 454.512 408.349 454.251 408.48C453.99 408.611 453.784 408.788 453.635 409.012C453.486 409.236 453.411 409.516 453.411 409.852C453.411 410.505 453.626 410.963 454.055 411.224C454.503 411.467 455.11 411.588 455.875 411.588ZM455.539 399.38C456.771 399.38 457.798 399.52 458.619 399.8C459.44 400.08 460.094 400.481 460.579 401.004C461.083 401.527 461.438 402.161 461.643 402.908C461.848 403.655 461.951 404.485 461.951 405.4V414.08C461.354 414.211 460.523 414.36 459.459 414.528C458.395 414.715 457.107 414.808 455.595 414.808C454.643 414.808 453.775 414.724 452.991 414.556C452.226 414.388 451.563 414.117 451.003 413.744C450.443 413.352 450.014 412.848 449.715 412.232C449.416 411.616 449.267 410.86 449.267 409.964C449.267 409.105 449.435 408.377 449.771 407.78C450.126 407.183 450.592 406.707 451.171 406.352C451.75 405.997 452.412 405.745 453.159 405.596C453.906 405.428 454.68 405.344 455.483 405.344C456.024 405.344 456.5 405.372 456.911 405.428C457.34 405.465 457.686 405.521 457.947 405.596V405.204C457.947 404.495 457.732 403.925 457.303 403.496C456.874 403.067 456.127 402.852 455.063 402.852C454.354 402.852 453.654 402.908 452.963 403.02C452.272 403.113 451.675 403.253 451.171 403.44L450.639 400.08C450.882 400.005 451.18 399.931 451.535 399.856C451.908 399.763 452.31 399.688 452.739 399.632C453.168 399.557 453.616 399.501 454.083 399.464C454.568 399.408 455.054 399.38 455.539 399.38ZM465.724 400.276C466.433 400.071 467.348 399.884 468.468 399.716C469.588 399.529 470.764 399.436 471.996 399.436C473.246 399.436 474.282 399.604 475.104 399.94C475.944 400.257 476.606 400.715 477.092 401.312C477.577 401.909 477.922 402.619 478.128 403.44C478.333 404.261 478.436 405.176 478.436 406.184V414.5H474.264V406.688C474.264 405.344 474.086 404.392 473.732 403.832C473.377 403.272 472.714 402.992 471.744 402.992C471.445 402.992 471.128 403.011 470.792 403.048C470.456 403.067 470.157 403.095 469.896 403.132V414.5H465.724V400.276ZM485.768 406.66C485.768 408.993 486.711 410.16 488.596 410.16C489.025 410.16 489.427 410.104 489.8 409.992C490.173 409.88 490.491 409.749 490.752 409.6V402.936C490.547 402.899 490.304 402.871 490.024 402.852C489.744 402.815 489.417 402.796 489.044 402.796C487.943 402.796 487.121 403.16 486.58 403.888C486.039 404.616 485.768 405.54 485.768 406.66ZM494.924 412.652C494.924 415.06 494.308 416.843 493.076 418C491.863 419.176 489.977 419.764 487.42 419.764C486.524 419.764 485.628 419.68 484.732 419.512C483.836 419.363 483.005 419.157 482.24 418.896L482.968 415.396C483.621 415.657 484.303 415.863 485.012 416.012C485.74 416.161 486.561 416.236 487.476 416.236C488.671 416.236 489.511 415.975 489.996 415.452C490.5 414.929 490.752 414.257 490.752 413.436V412.904C490.304 413.109 489.837 413.268 489.352 413.38C488.885 413.473 488.372 413.52 487.812 413.52C485.777 413.52 484.219 412.923 483.136 411.728C482.053 410.515 481.512 408.825 481.512 406.66C481.512 405.577 481.68 404.597 482.016 403.72C482.352 402.824 482.837 402.059 483.472 401.424C484.125 400.789 484.919 400.304 485.852 399.968C486.785 399.613 487.84 399.436 489.016 399.436C489.52 399.436 490.033 399.464 490.556 399.52C491.097 399.557 491.629 399.613 492.152 399.688C492.675 399.763 493.169 399.856 493.636 399.968C494.121 400.061 494.551 400.164 494.924 400.276V412.652ZM511.409 413.996C510.7 414.201 509.785 414.388 508.665 414.556C507.545 414.743 506.369 414.836 505.137 414.836C503.886 414.836 502.841 414.668 502.001 414.332C501.18 413.996 500.526 413.529 500.041 412.932C499.556 412.316 499.21 411.588 499.005 410.748C498.8 409.908 498.697 408.984 498.697 407.976V399.772H502.869V407.472C502.869 408.816 503.046 409.787 503.401 410.384C503.756 410.981 504.418 411.28 505.389 411.28C505.688 411.28 506.005 411.271 506.341 411.252C506.677 411.215 506.976 411.177 507.237 411.14V399.772H511.409V413.996ZM520.953 411.588C521.364 411.588 521.756 411.579 522.129 411.56C522.503 411.541 522.801 411.513 523.025 411.476V408.312C522.857 408.275 522.605 408.237 522.269 408.2C521.933 408.163 521.625 408.144 521.345 408.144C520.953 408.144 520.58 408.172 520.225 408.228C519.889 408.265 519.591 408.349 519.329 408.48C519.068 408.611 518.863 408.788 518.713 409.012C518.564 409.236 518.489 409.516 518.489 409.852C518.489 410.505 518.704 410.963 519.133 411.224C519.581 411.467 520.188 411.588 520.953 411.588ZM520.617 399.38C521.849 399.38 522.876 399.52 523.697 399.8C524.519 400.08 525.172 400.481 525.657 401.004C526.161 401.527 526.516 402.161 526.721 402.908C526.927 403.655 527.029 404.485 527.029 405.4V414.08C526.432 414.211 525.601 414.36 524.537 414.528C523.473 414.715 522.185 414.808 520.673 414.808C519.721 414.808 518.853 414.724 518.069 414.556C517.304 414.388 516.641 414.117 516.081 413.744C515.521 413.352 515.092 412.848 514.793 412.232C514.495 411.616 514.345 410.86 514.345 409.964C514.345 409.105 514.513 408.377 514.849 407.78C515.204 407.183 515.671 406.707 516.249 406.352C516.828 405.997 517.491 405.745 518.237 405.596C518.984 405.428 519.759 405.344 520.561 405.344C521.103 405.344 521.579 405.372 521.989 405.428C522.419 405.465 522.764 405.521 523.025 405.596V405.204C523.025 404.495 522.811 403.925 522.381 403.496C521.952 403.067 521.205 402.852 520.141 402.852C519.432 402.852 518.732 402.908 518.041 403.02C517.351 403.113 516.753 403.253 516.249 403.44L515.717 400.08C515.96 400.005 516.259 399.931 516.613 399.856C516.987 399.763 517.388 399.688 517.817 399.632C518.247 399.557 518.695 399.501 519.161 399.464C519.647 399.408 520.132 399.38 520.617 399.38ZM534.358 406.66C534.358 408.993 535.3 410.16 537.186 410.16C537.615 410.16 538.016 410.104 538.39 409.992C538.763 409.88 539.08 409.749 539.342 409.6V402.936C539.136 402.899 538.894 402.871 538.614 402.852C538.334 402.815 538.007 402.796 537.634 402.796C536.532 402.796 535.711 403.16 535.17 403.888C534.628 404.616 534.358 405.54 534.358 406.66ZM543.514 412.652C543.514 415.06 542.898 416.843 541.666 418C540.452 419.176 538.567 419.764 536.01 419.764C535.114 419.764 534.218 419.68 533.322 419.512C532.426 419.363 531.595 419.157 530.83 418.896L531.558 415.396C532.211 415.657 532.892 415.863 533.602 416.012C534.33 416.161 535.151 416.236 536.066 416.236C537.26 416.236 538.1 415.975 538.586 415.452C539.09 414.929 539.342 414.257 539.342 413.436V412.904C538.894 413.109 538.427 413.268 537.942 413.38C537.475 413.473 536.962 413.52 536.402 413.52C534.367 413.52 532.808 412.923 531.726 411.728C530.643 410.515 530.102 408.825 530.102 406.66C530.102 405.577 530.27 404.597 530.606 403.72C530.942 402.824 531.427 402.059 532.062 401.424C532.715 400.789 533.508 400.304 534.442 399.968C535.375 399.613 536.43 399.436 537.606 399.436C538.11 399.436 538.623 399.464 539.146 399.52C539.687 399.557 540.219 399.613 540.742 399.688C541.264 399.763 541.759 399.856 542.226 399.968C542.711 400.061 543.14 400.164 543.514 400.276V412.652ZM546.727 407.248C546.727 405.941 546.923 404.803 547.315 403.832C547.725 402.843 548.257 402.021 548.911 401.368C549.564 400.715 550.311 400.22 551.151 399.884C552.009 399.548 552.887 399.38 553.783 399.38C555.873 399.38 557.525 400.024 558.739 401.312C559.952 402.581 560.559 404.457 560.559 406.94C560.559 407.183 560.549 407.453 560.531 407.752C560.512 408.032 560.493 408.284 560.475 408.508H551.011C551.104 409.367 551.505 410.048 552.215 410.552C552.924 411.056 553.876 411.308 555.071 411.308C555.836 411.308 556.583 411.243 557.311 411.112C558.057 410.963 558.664 410.785 559.131 410.58L559.691 413.968C559.467 414.08 559.168 414.192 558.795 414.304C558.421 414.416 558.001 414.509 557.535 414.584C557.087 414.677 556.601 414.752 556.079 414.808C555.556 414.864 555.033 414.892 554.511 414.892C553.185 414.892 552.028 414.696 551.039 414.304C550.068 413.912 549.256 413.38 548.603 412.708C547.968 412.017 547.492 411.205 547.175 410.272C546.876 409.339 546.727 408.331 546.727 407.248ZM556.527 405.652C556.508 405.297 556.443 404.952 556.331 404.616C556.237 404.28 556.079 403.981 555.855 403.72C555.649 403.459 555.379 403.244 555.043 403.076C554.725 402.908 554.324 402.824 553.839 402.824C553.372 402.824 552.971 402.908 552.635 403.076C552.299 403.225 552.019 403.431 551.795 403.692C551.571 403.953 551.393 404.261 551.263 404.616C551.151 404.952 551.067 405.297 551.011 405.652H556.527ZM437.05 446.5C436.845 445.828 436.612 445.137 436.35 444.428C436.108 443.719 435.865 443.009 435.622 442.3H428.062C427.82 443.009 427.568 443.719 427.306 444.428C427.064 445.137 426.84 445.828 426.634 446.5H422.098C422.826 444.409 423.517 442.477 424.17 440.704C424.824 438.931 425.458 437.26 426.074 435.692C426.709 434.124 427.325 432.64 427.922 431.24C428.538 429.821 429.173 428.44 429.826 427.096H433.998C434.633 428.44 435.258 429.821 435.874 431.24C436.49 432.64 437.106 434.124 437.722 435.692C438.357 437.26 439.001 438.931 439.654 440.704C440.308 442.477 440.998 444.409 441.726 446.5H437.05ZM431.814 431.492C431.721 431.772 431.581 432.155 431.394 432.64C431.208 433.125 430.993 433.685 430.75 434.32C430.508 434.955 430.237 435.655 429.938 436.42C429.658 437.185 429.369 437.988 429.07 438.828H434.586C434.288 437.988 433.998 437.185 433.718 436.42C433.438 435.655 433.168 434.955 432.906 434.32C432.664 433.685 432.449 433.125 432.262 432.64C432.076 432.155 431.926 431.772 431.814 431.492ZM442.957 439.136C442.957 438.072 443.125 437.073 443.461 436.14C443.816 435.188 444.32 434.367 444.973 433.676C445.627 432.967 446.42 432.407 447.353 431.996C448.287 431.585 449.351 431.38 450.545 431.38C451.329 431.38 452.048 431.455 452.701 431.604C453.355 431.735 453.989 431.931 454.605 432.192L453.737 435.524C453.345 435.375 452.916 435.244 452.449 435.132C451.983 435.02 451.46 434.964 450.881 434.964C449.649 434.964 448.725 435.347 448.109 436.112C447.512 436.877 447.213 437.885 447.213 439.136C447.213 440.461 447.493 441.488 448.053 442.216C448.632 442.944 449.631 443.308 451.049 443.308C451.553 443.308 452.095 443.261 452.673 443.168C453.252 443.075 453.784 442.925 454.269 442.72L454.857 446.136C454.372 446.341 453.765 446.519 453.037 446.668C452.309 446.817 451.507 446.892 450.629 446.892C449.285 446.892 448.128 446.696 447.157 446.304C446.187 445.893 445.384 445.343 444.749 444.652C444.133 443.961 443.676 443.149 443.377 442.216C443.097 441.264 442.957 440.237 442.957 439.136ZM460.502 439.248C460.502 441.917 461.492 443.252 463.47 443.252C463.9 443.252 464.32 443.196 464.73 443.084C465.16 442.972 465.505 442.832 465.766 442.664V435.132C465.561 435.095 465.3 435.067 464.982 435.048C464.665 435.011 464.32 434.992 463.946 434.992C462.808 434.992 461.949 435.384 461.37 436.168C460.792 436.933 460.502 437.96 460.502 439.248ZM456.246 439.136C456.246 437.997 456.414 436.961 456.75 436.028C457.105 435.076 457.609 434.264 458.262 433.592C458.916 432.901 459.718 432.369 460.67 431.996C461.622 431.623 462.705 431.436 463.918 431.436C464.422 431.436 464.945 431.464 465.486 431.52C466.046 431.557 466.588 431.613 467.11 431.688C467.652 431.763 468.165 431.856 468.65 431.968C469.136 432.061 469.565 432.164 469.938 432.276V451.68H465.766V446.136C465.3 446.341 464.814 446.5 464.31 446.612C463.806 446.724 463.265 446.78 462.686 446.78C460.596 446.78 459 446.099 457.898 444.736C456.797 443.355 456.246 441.488 456.246 439.136ZM486.417 445.996C485.707 446.201 484.793 446.388 483.673 446.556C482.553 446.743 481.377 446.836 480.145 446.836C478.894 446.836 477.849 446.668 477.009 446.332C476.187 445.996 475.534 445.529 475.049 444.932C474.563 444.316 474.218 443.588 474.013 442.748C473.807 441.908 473.705 440.984 473.705 439.976V431.772H477.877V439.472C477.877 440.816 478.054 441.787 478.409 442.384C478.763 442.981 479.426 443.28 480.397 443.28C480.695 443.28 481.013 443.271 481.349 443.252C481.685 443.215 481.983 443.177 482.245 443.14V431.772H486.417V445.996ZM494.505 446.5H490.333V431.772H494.505V446.5ZM494.897 427.516C494.897 428.281 494.645 428.888 494.141 429.336C493.656 429.765 493.077 429.98 492.405 429.98C491.733 429.98 491.145 429.765 490.641 429.336C490.156 428.888 489.913 428.281 489.913 427.516C489.913 426.751 490.156 426.153 490.641 425.724C491.145 425.276 491.733 425.052 492.405 425.052C493.077 425.052 493.656 425.276 494.141 425.724C494.645 426.153 494.897 426.751 494.897 427.516ZM502.655 443.504C503.42 443.504 503.961 443.429 504.279 443.28C504.596 443.131 504.755 442.841 504.755 442.412C504.755 442.076 504.549 441.787 504.139 441.544C503.728 441.283 503.103 440.993 502.263 440.676C501.609 440.433 501.012 440.181 500.471 439.92C499.948 439.659 499.5 439.351 499.127 438.996C498.753 438.623 498.464 438.184 498.259 437.68C498.053 437.176 497.951 436.569 497.951 435.86C497.951 434.479 498.464 433.387 499.491 432.584C500.517 431.781 501.927 431.38 503.719 431.38C504.615 431.38 505.473 431.464 506.295 431.632C507.116 431.781 507.769 431.949 508.255 432.136L507.527 435.384C507.041 435.216 506.509 435.067 505.931 434.936C505.371 434.805 504.736 434.74 504.027 434.74C502.72 434.74 502.067 435.104 502.067 435.832C502.067 436 502.095 436.149 502.151 436.28C502.207 436.411 502.319 436.541 502.487 436.672C502.655 436.784 502.879 436.915 503.159 437.064C503.457 437.195 503.831 437.344 504.279 437.512C505.193 437.848 505.949 438.184 506.547 438.52C507.144 438.837 507.611 439.192 507.947 439.584C508.301 439.957 508.544 440.377 508.675 440.844C508.824 441.311 508.899 441.852 508.899 442.468C508.899 443.924 508.348 445.025 507.247 445.772C506.164 446.519 504.624 446.892 502.627 446.892C501.32 446.892 500.228 446.78 499.351 446.556C498.492 446.332 497.895 446.145 497.559 445.996L498.259 442.608C498.968 442.888 499.696 443.112 500.443 443.28C501.189 443.429 501.927 443.504 502.655 443.504ZM516.189 446.5H512.017V431.772H516.189V446.5ZM516.581 427.516C516.581 428.281 516.329 428.888 515.825 429.336C515.339 429.765 514.761 429.98 514.089 429.98C513.417 429.98 512.829 429.765 512.325 429.336C511.839 428.888 511.597 428.281 511.597 427.516C511.597 426.751 511.839 426.153 512.325 425.724C512.829 425.276 513.417 425.052 514.089 425.052C514.761 425.052 515.339 425.276 515.825 425.724C516.329 426.153 516.581 426.751 516.581 427.516ZM519.97 428.104L524.142 427.432V431.772H529.154V435.244H524.142V440.424C524.142 441.301 524.292 442.001 524.59 442.524C524.908 443.047 525.533 443.308 526.466 443.308C526.914 443.308 527.372 443.271 527.838 443.196C528.324 443.103 528.762 442.981 529.154 442.832L529.742 446.08C529.238 446.285 528.678 446.463 528.062 446.612C527.446 446.761 526.69 446.836 525.794 446.836C524.656 446.836 523.713 446.687 522.966 446.388C522.22 446.071 521.622 445.641 521.174 445.1C520.726 444.54 520.409 443.868 520.222 443.084C520.054 442.3 519.97 441.432 519.97 440.48V428.104ZM536.724 446.5H532.552V431.772H536.724V446.5ZM537.116 427.516C537.116 428.281 536.864 428.888 536.36 429.336C535.874 429.765 535.296 429.98 534.624 429.98C533.952 429.98 533.364 429.765 532.86 429.336C532.374 428.888 532.132 428.281 532.132 427.516C532.132 426.751 532.374 426.153 532.86 425.724C533.364 425.276 533.952 425.052 534.624 425.052C535.296 425.052 535.874 425.276 536.36 425.724C536.864 426.153 537.116 426.751 537.116 427.516ZM554.422 439.108C554.422 440.265 554.254 441.329 553.918 442.3C553.582 443.252 553.096 444.073 552.462 444.764C551.827 445.436 551.062 445.959 550.166 446.332C549.288 446.705 548.299 446.892 547.198 446.892C546.115 446.892 545.126 446.705 544.23 446.332C543.352 445.959 542.596 445.436 541.962 444.764C541.327 444.073 540.832 443.252 540.478 442.3C540.123 441.329 539.946 440.265 539.946 439.108C539.946 437.951 540.123 436.896 540.478 435.944C540.851 434.992 541.355 434.18 541.99 433.508C542.643 432.836 543.408 432.313 544.286 431.94C545.182 431.567 546.152 431.38 547.198 431.38C548.262 431.38 549.232 431.567 550.11 431.94C551.006 432.313 551.771 432.836 552.406 433.508C553.04 434.18 553.535 434.992 553.89 435.944C554.244 436.896 554.422 437.951 554.422 439.108ZM550.166 439.108C550.166 437.82 549.904 436.812 549.382 436.084C548.878 435.337 548.15 434.964 547.198 434.964C546.246 434.964 545.508 435.337 544.986 436.084C544.463 436.812 544.202 437.82 544.202 439.108C544.202 440.396 544.463 441.423 544.986 442.188C545.508 442.935 546.246 443.308 547.198 443.308C548.15 443.308 548.878 442.935 549.382 442.188C549.904 441.423 550.166 440.396 550.166 439.108ZM557.653 432.276C558.363 432.071 559.277 431.884 560.397 431.716C561.517 431.529 562.693 431.436 563.925 431.436C565.176 431.436 566.212 431.604 567.033 431.94C567.873 432.257 568.536 432.715 569.021 433.312C569.507 433.909 569.852 434.619 570.057 435.44C570.263 436.261 570.365 437.176 570.365 438.184V446.5H566.193V438.688C566.193 437.344 566.016 436.392 565.661 435.832C565.307 435.272 564.644 434.992 563.673 434.992C563.375 434.992 563.057 435.011 562.721 435.048C562.385 435.067 562.087 435.095 561.825 435.132V446.5H557.653V432.276Z" fill="url(#paint3_linear_224_23)"/>
</g>
<g filter="url(#filter4_d_224_23)">
<rect x="321" y="557" width="140" height="140" rx="20" fill="white"/>
<path d="M338.043 617.372C340.955 617.372 343.186 617.895 344.735 618.94C346.284 619.967 347.059 621.572 347.059 623.756C347.059 625.119 346.742 626.229 346.107 627.088C345.491 627.928 344.595 628.591 343.419 629.076C343.811 629.561 344.222 630.121 344.651 630.756C345.08 631.372 345.5 632.025 345.911 632.716C346.34 633.388 346.751 634.097 347.143 634.844C347.535 635.572 347.899 636.291 348.235 637H343.335C342.98 636.365 342.616 635.721 342.243 635.068C341.888 634.415 341.515 633.78 341.123 633.164C340.75 632.548 340.376 631.969 340.003 631.428C339.63 630.868 339.256 630.364 338.883 629.916H336.727V637H332.359V617.876C333.311 617.689 334.291 617.559 335.299 617.484C336.326 617.409 337.24 617.372 338.043 617.372ZM338.295 621.096C337.978 621.096 337.688 621.105 337.427 621.124C337.184 621.143 336.951 621.161 336.727 621.18V626.444H337.959C339.602 626.444 340.778 626.239 341.487 625.828C342.196 625.417 342.551 624.717 342.551 623.728C342.551 622.776 342.187 622.104 341.459 621.712C340.75 621.301 339.695 621.096 338.295 621.096ZM349.344 629.748C349.344 628.441 349.54 627.303 349.932 626.332C350.343 625.343 350.875 624.521 351.528 623.868C352.181 623.215 352.928 622.72 353.768 622.384C354.627 622.048 355.504 621.88 356.4 621.88C358.491 621.88 360.143 622.524 361.356 623.812C362.569 625.081 363.176 626.957 363.176 629.44C363.176 629.683 363.167 629.953 363.148 630.252C363.129 630.532 363.111 630.784 363.092 631.008H353.628C353.721 631.867 354.123 632.548 354.832 633.052C355.541 633.556 356.493 633.808 357.688 633.808C358.453 633.808 359.2 633.743 359.928 633.612C360.675 633.463 361.281 633.285 361.748 633.08L362.308 636.468C362.084 636.58 361.785 636.692 361.412 636.804C361.039 636.916 360.619 637.009 360.152 637.084C359.704 637.177 359.219 637.252 358.696 637.308C358.173 637.364 357.651 637.392 357.128 637.392C355.803 637.392 354.645 637.196 353.656 636.804C352.685 636.412 351.873 635.88 351.22 635.208C350.585 634.517 350.109 633.705 349.792 632.772C349.493 631.839 349.344 630.831 349.344 629.748ZM359.144 628.152C359.125 627.797 359.06 627.452 358.948 627.116C358.855 626.78 358.696 626.481 358.472 626.22C358.267 625.959 357.996 625.744 357.66 625.576C357.343 625.408 356.941 625.324 356.456 625.324C355.989 625.324 355.588 625.408 355.252 625.576C354.916 625.725 354.636 625.931 354.412 626.192C354.188 626.453 354.011 626.761 353.88 627.116C353.768 627.452 353.684 627.797 353.628 628.152H359.144ZM370.624 634.004C371.389 634.004 371.93 633.929 372.248 633.78C372.565 633.631 372.724 633.341 372.724 632.912C372.724 632.576 372.518 632.287 372.108 632.044C371.697 631.783 371.072 631.493 370.232 631.176C369.578 630.933 368.981 630.681 368.44 630.42C367.917 630.159 367.469 629.851 367.096 629.496C366.722 629.123 366.433 628.684 366.228 628.18C366.022 627.676 365.92 627.069 365.92 626.36C365.92 624.979 366.433 623.887 367.46 623.084C368.486 622.281 369.896 621.88 371.688 621.88C372.584 621.88 373.442 621.964 374.264 622.132C375.085 622.281 375.738 622.449 376.224 622.636L375.496 625.884C375.01 625.716 374.478 625.567 373.9 625.436C373.34 625.305 372.705 625.24 371.996 625.24C370.689 625.24 370.036 625.604 370.036 626.332C370.036 626.5 370.064 626.649 370.12 626.78C370.176 626.911 370.288 627.041 370.456 627.172C370.624 627.284 370.848 627.415 371.128 627.564C371.426 627.695 371.8 627.844 372.248 628.012C373.162 628.348 373.918 628.684 374.516 629.02C375.113 629.337 375.58 629.692 375.916 630.084C376.27 630.457 376.513 630.877 376.644 631.344C376.793 631.811 376.868 632.352 376.868 632.968C376.868 634.424 376.317 635.525 375.216 636.272C374.133 637.019 372.593 637.392 370.596 637.392C369.289 637.392 368.197 637.28 367.32 637.056C366.461 636.832 365.864 636.645 365.528 636.496L366.228 633.108C366.937 633.388 367.665 633.612 368.412 633.78C369.158 633.929 369.896 634.004 370.624 634.004ZM379.285 629.748C379.285 628.441 379.481 627.303 379.873 626.332C380.284 625.343 380.816 624.521 381.469 623.868C382.123 623.215 382.869 622.72 383.709 622.384C384.568 622.048 385.445 621.88 386.341 621.88C388.432 621.88 390.084 622.524 391.297 623.812C392.511 625.081 393.117 626.957 393.117 629.44C393.117 629.683 393.108 629.953 393.089 630.252C393.071 630.532 393.052 630.784 393.033 631.008H383.569C383.663 631.867 384.064 632.548 384.773 633.052C385.483 633.556 386.435 633.808 387.629 633.808C388.395 633.808 389.141 633.743 389.869 633.612C390.616 633.463 391.223 633.285 391.689 633.08L392.249 636.468C392.025 636.58 391.727 636.692 391.353 636.804C390.98 636.916 390.56 637.009 390.093 637.084C389.645 637.177 389.16 637.252 388.637 637.308C388.115 637.364 387.592 637.392 387.069 637.392C385.744 637.392 384.587 637.196 383.597 636.804C382.627 636.412 381.815 635.88 381.161 635.208C380.527 634.517 380.051 633.705 379.733 632.772C379.435 631.839 379.285 630.831 379.285 629.748ZM389.085 628.152C389.067 627.797 389.001 627.452 388.889 627.116C388.796 626.78 388.637 626.481 388.413 626.22C388.208 625.959 387.937 625.744 387.601 625.576C387.284 625.408 386.883 625.324 386.397 625.324C385.931 625.324 385.529 625.408 385.193 625.576C384.857 625.725 384.577 625.931 384.353 626.192C384.129 626.453 383.952 626.761 383.821 627.116C383.709 627.452 383.625 627.797 383.569 628.152H389.085ZM401.965 634.088C402.376 634.088 402.768 634.079 403.141 634.06C403.514 634.041 403.813 634.013 404.037 633.976V630.812C403.869 630.775 403.617 630.737 403.281 630.7C402.945 630.663 402.637 630.644 402.357 630.644C401.965 630.644 401.592 630.672 401.237 630.728C400.901 630.765 400.602 630.849 400.341 630.98C400.08 631.111 399.874 631.288 399.725 631.512C399.576 631.736 399.501 632.016 399.501 632.352C399.501 633.005 399.716 633.463 400.145 633.724C400.593 633.967 401.2 634.088 401.965 634.088ZM401.629 621.88C402.861 621.88 403.888 622.02 404.709 622.3C405.53 622.58 406.184 622.981 406.669 623.504C407.173 624.027 407.528 624.661 407.733 625.408C407.938 626.155 408.041 626.985 408.041 627.9V636.58C407.444 636.711 406.613 636.86 405.549 637.028C404.485 637.215 403.197 637.308 401.685 637.308C400.733 637.308 399.865 637.224 399.081 637.056C398.316 636.888 397.653 636.617 397.093 636.244C396.533 635.852 396.104 635.348 395.805 634.732C395.506 634.116 395.357 633.36 395.357 632.464C395.357 631.605 395.525 630.877 395.861 630.28C396.216 629.683 396.682 629.207 397.261 628.852C397.84 628.497 398.502 628.245 399.249 628.096C399.996 627.928 400.77 627.844 401.573 627.844C402.114 627.844 402.59 627.872 403.001 627.928C403.43 627.965 403.776 628.021 404.037 628.096V627.704C404.037 626.995 403.822 626.425 403.393 625.996C402.964 625.567 402.217 625.352 401.153 625.352C400.444 625.352 399.744 625.408 399.053 625.52C398.362 625.613 397.765 625.753 397.261 625.94L396.729 622.58C396.972 622.505 397.27 622.431 397.625 622.356C397.998 622.263 398.4 622.188 398.829 622.132C399.258 622.057 399.706 622.001 400.173 621.964C400.658 621.908 401.144 621.88 401.629 621.88ZM420.69 625.968C420.316 625.875 419.878 625.781 419.374 625.688C418.87 625.576 418.328 625.52 417.75 625.52C417.488 625.52 417.171 625.548 416.798 625.604C416.443 625.641 416.172 625.688 415.986 625.744V637H411.814V623.056C412.56 622.795 413.438 622.552 414.446 622.328C415.472 622.085 416.611 621.964 417.862 621.964C418.086 621.964 418.356 621.983 418.674 622.02C418.991 622.039 419.308 622.076 419.626 622.132C419.943 622.169 420.26 622.225 420.578 622.3C420.895 622.356 421.166 622.431 421.39 622.524L420.69 625.968ZM422.653 629.636C422.653 628.572 422.821 627.573 423.157 626.64C423.511 625.688 424.015 624.867 424.669 624.176C425.322 623.467 426.115 622.907 427.049 622.496C427.982 622.085 429.046 621.88 430.241 621.88C431.025 621.88 431.743 621.955 432.397 622.104C433.05 622.235 433.685 622.431 434.301 622.692L433.433 626.024C433.041 625.875 432.611 625.744 432.145 625.632C431.678 625.52 431.155 625.464 430.577 625.464C429.345 625.464 428.421 625.847 427.805 626.612C427.207 627.377 426.909 628.385 426.909 629.636C426.909 630.961 427.189 631.988 427.749 632.716C428.327 633.444 429.326 633.808 430.745 633.808C431.249 633.808 431.79 633.761 432.369 633.668C432.947 633.575 433.479 633.425 433.965 633.22L434.553 636.636C434.067 636.841 433.461 637.019 432.733 637.168C432.005 637.317 431.202 637.392 430.325 637.392C428.981 637.392 427.823 637.196 426.853 636.804C425.882 636.393 425.079 635.843 424.445 635.152C423.829 634.461 423.371 633.649 423.073 632.716C422.793 631.764 422.653 630.737 422.653 629.636ZM437.353 637V615.944L441.525 615.272V622.328C441.805 622.235 442.159 622.151 442.589 622.076C443.037 621.983 443.466 621.936 443.877 621.936C445.071 621.936 446.061 622.104 446.845 622.44C447.647 622.757 448.282 623.215 448.749 623.812C449.234 624.409 449.57 625.119 449.757 625.94C449.962 626.761 450.065 627.676 450.065 628.684V637H445.893V629.188C445.893 627.844 445.715 626.892 445.361 626.332C445.025 625.772 444.39 625.492 443.457 625.492C443.083 625.492 442.729 625.529 442.393 625.604C442.075 625.66 441.786 625.725 441.525 625.8V637H437.353Z" fill="url(#paint4_linear_224_23)"/>
</g>
<defs>
<filter id="filter0_d_224_23" x="18" y="301" width="260" height="260" filterUnits="userSpaceOnUse" color-interpolation-filters="sRGB">
<feFlood flood-opacity="0" result="BackgroundImageFix"/>
<feColorMatrix in="SourceAlpha" type="matrix" values="0 0 0 0 0 0 0 0 0 0 0 0 0 0 0 0 0 0 127 0" result="hardAlpha"/>
<feOffset/>
<feGaussianBlur stdDeviation="10"/>
<feComposite in2="hardAlpha" operator="out"/>
<feColorMatrix type="matrix" values="0 0 0 0 0 0 0 0 0 0 0 0 0 0 0 0 0 0 0.3 0"/>
<feBlend mode="normal" in2="BackgroundImageFix" result="effect1_dropShadow_224_23"/>
<feBlend mode="normal" in="SourceGraphic" in2="effect1_dropShadow_224_23" result="shape"/>
</filter>
<filter id="filter1_d_224_23" x="211" y="61" width="231" height="222" filterUnits="userSpaceOnUse" color-interpolation-filters="sRGB">
<feFlood flood-opacity="0" result="BackgroundImageFix"/>
<feColorMatrix in="SourceAlpha" type="matrix" values="0 0 0 0 0 0 0 0 0 0 0 0 0 0 0 0 0 0 127 0" result="hardAlpha"/>
<feOffset/>
<feGaussianBlur stdDeviation="10"/>
<feComposite in2="hardAlpha" operator="out"/>
<feColorMatrix type="matrix" values="0 0 0 0 0 0 0 0 0 0 0 0 0 0 0 0 0 0 0.3 0"/>
<feBlend mode="normal" in2="BackgroundImageFix" result="effect1_dropShadow_224_23"/>
<feBlend mode="normal" in="SourceGraphic" in2="effect1_dropShadow_224_23" result="shape"/>
</filter>
<filter id="filter2_d_224_23" x="541" y="78" width="220" height="220" filterUnits="userSpaceOnUse" color-interpolation-filters="sRGB">
<feFlood flood-opacity="0" result="BackgroundImageFix"/>
<feColorMatrix in="SourceAlpha" type="matrix" values="0 0 0 0 0 0 0 0 0 0 0 0 0 0 0 0 0 0 127 0" result="hardAlpha"/>
<feOffset/>
<feGaussianBlur stdDeviation="10"/>
<feComposite in2="hardAlpha" operator="out"/>
<feColorMatrix type="matrix" values="0 0 0 0 0 0 0 0 0 0 0 0 0 0 0 0 0 0 0.3 0"/>
<feBlend mode="normal" in2="BackgroundImageFix" result="effect1_dropShadow_224_23"/>
<feBlend mode="normal" in="SourceGraphic" in2="effect1_dropShadow_224_23" result="shape"/>
</filter>
<filter id="filter3_d_224_23" x="391" y="315" width="212" height="211" filterUnits="userSpaceOnUse" color-interpolation-filters="sRGB">
<feFlood flood-opacity="0" result="BackgroundImageFix"/>
<feColorMatrix in="SourceAlpha" type="matrix" values="0 0 0 0 0 0 0 0 0 0 0 0 0 0 0 0 0 0 127 0" result="hardAlpha"/>
<feOffset/>
<feGaussianBlur stdDeviation="10"/>
<feComposite in2="hardAlpha" operator="out"/>
<feColorMatrix type="matrix" values="0 0 0 0 0 0 0 0 0 0 0 0 0 0 0 0 0 0 0.3 0"/>
<feBlend mode="normal" in2="BackgroundImageFix" result="effect1_dropShadow_224_23"/>
<feBlend mode="normal" in="SourceGraphic" in2="effect1_dropShadow_224_23" result="shape"/>
</filter>
<filter id="filter4_d_224_23" x="301" y="537" width="180" height="180" filterUnits="userSpaceOnUse" color-interpolation-filters="sRGB">
<feFlood flood-opacity="0" result="BackgroundImageFix"/>
<feColorMatrix in="SourceAlpha" type="matrix" values="0 0 0 0 0 0 0 0 0 0 0 0 0 0 0 0 0 0 127 0" result="hardAlpha"/>
<feOffset/>
<feGaussianBlur stdDeviation="10"/>
<feComposite in2="hardAlpha" operator="out"/>
<feColorMatrix type="matrix" values="0 0 0 0 0 0 0 0 0 0 0 0 0 0 0 0 0 0 0.3 0"/>
<feBlend mode="normal" in2="BackgroundImageFix" result="effect1_dropShadow_224_23"/>
<feBlend mode="normal" in="SourceGraphic" in2="effect1_dropShadow_224_23" result="shape"/>
</filter>
<linearGradient id="paint0_linear_224_23" x1="212" y1="380.445" x2="63.7747" y2="428.812" gradientUnits="userSpaceOnUse">
<stop stop-color="#D226E1"/>
<stop offset="1" stop-color="#14B5EB"/>
</linearGradient>
<linearGradient id="paint1_linear_224_23" x1="382.064" y1="160.123" x2="324.04" y2="230.088" gradientUnits="userSpaceOnUse">
<stop stop-color="#D226E1"/>
<stop offset="1" stop-color="#14B5EB"/>
</linearGradient>
<linearGradient id="paint2_linear_224_23" x1="703.364" y1="173.991" x2="633.772" y2="241.038" gradientUnits="userSpaceOnUse">
<stop stop-color="#D226E1"/>
<stop offset="1" stop-color="#14B5EB"/>
</linearGradient>
<linearGradient id="paint3_linear_224_23" x1="342.773" y1="349.5" x2="510.658" y2="600.83" gradientUnits="userSpaceOnUse">
<stop stop-color="#14B5EB"/>
<stop offset="1" stop-color="#D226E1"/>
</linearGradient>
<linearGradient id="paint4_linear_224_23" x1="265.467" y1="591.5" x2="329.293" y2="747.047" gradientUnits="userSpaceOnUse">
<stop stop-color="#14B5EB"/>
<stop offset="1" stop-color="#D226E1"/>
</linearGradient>
</defs>
</svg>
