<svg width="779" height="779" viewBox="0 0 779 779" fill="none" xmlns="http://www.w3.org/2000/svg">
<g filter="url(#filter0_d_122_162)">
<rect x="38" y="321" width="220" height="220" rx="20" fill="white"/>
<path d="M107.929 425.204C106.521 425.204 105.017 425.332 103.417 425.588C101.817 425.844 100.569 426.196 99.673 426.644C99.673 426.9 99.641 427.284 99.577 427.796C99.577 428.308 99.577 428.756 99.577 429.14C99.577 431.444 99.737 433.62 100.057 435.668C100.377 437.716 100.921 439.508 101.689 441.044C102.457 442.58 103.481 443.796 104.761 444.692C106.041 445.524 107.641 445.94 109.561 445.94C111.161 445.94 112.505 445.62 113.593 444.98C114.745 444.276 115.673 443.412 116.377 442.388C117.145 441.364 117.689 440.244 118.009 439.028C118.393 437.748 118.585 436.532 118.585 435.38C118.585 432.116 117.753 429.62 116.089 427.892C114.489 426.1 111.769 425.204 107.929 425.204ZM109.753 414.068C113.913 414.068 117.433 414.644 120.313 415.796C123.257 416.884 125.657 418.388 127.513 420.308C129.369 422.228 130.713 424.468 131.545 427.028C132.377 429.588 132.793 432.308 132.793 435.188C132.793 437.748 132.313 440.372 131.353 443.06C130.457 445.748 129.049 448.18 127.129 450.356C125.273 452.532 122.873 454.324 119.929 455.732C117.049 457.14 113.625 457.844 109.657 457.844C101.657 457.844 95.577 455.316 91.417 450.26C87.257 445.204 85.177 438.228 85.177 429.332C85.177 422.932 86.169 417.268 88.153 412.34C90.137 407.412 92.953 403.284 96.601 399.956C100.313 396.564 104.761 394.004 109.945 392.276C115.193 390.484 121.081 389.556 127.609 389.492C127.737 391.476 127.865 393.428 127.993 395.348C128.121 397.204 128.249 399.156 128.377 401.204C125.113 401.268 122.041 401.588 119.161 402.164C116.345 402.676 113.753 403.508 111.385 404.66C109.081 405.812 107.065 407.316 105.337 409.172C103.609 410.964 102.265 413.172 101.305 415.796C102.713 415.156 104.153 414.708 105.625 414.452C107.097 414.196 108.473 414.068 109.753 414.068ZM156.924 414.836C156.924 417.716 155.996 419.924 154.14 421.46C152.348 422.932 150.3 423.668 147.996 423.668C145.692 423.668 143.612 422.932 141.756 421.46C139.964 419.924 139.068 417.716 139.068 414.836C139.068 411.956 139.964 409.78 141.756 408.308C143.612 406.772 145.692 406.004 147.996 406.004C150.3 406.004 152.348 406.772 154.14 408.308C155.996 409.78 156.924 411.956 156.924 414.836ZM156.924 448.916C156.924 451.796 155.996 454.004 154.14 455.54C152.348 457.012 150.3 457.748 147.996 457.748C145.692 457.748 143.612 457.012 141.756 455.54C139.964 454.004 139.068 451.796 139.068 448.916C139.068 446.036 139.964 443.86 141.756 442.388C143.612 440.852 145.692 440.084 147.996 440.084C150.3 440.084 152.348 440.852 154.14 442.388C155.996 443.86 156.924 446.036 156.924 448.916ZM166.533 403.796C168.389 403.028 170.309 402.164 172.293 401.204C174.341 400.18 176.325 399.092 178.245 397.94C180.165 396.724 181.989 395.476 183.717 394.196C185.509 392.852 187.109 391.444 188.517 389.972H198.501V456.5H184.197V408.596C182.277 409.876 180.133 411.06 177.765 412.148C175.397 413.172 173.093 414.068 170.853 414.836L166.533 403.796Z" fill="url(#paint0_linear_122_162)"/>
<path d="M58.7902 490.358C59.1862 490.358 59.5102 490.328 59.7622 490.268C60.0262 490.196 60.2362 490.106 60.3922 489.998C60.5482 489.878 60.6562 489.74 60.7162 489.584C60.7762 489.428 60.8062 489.254 60.8062 489.062C60.8062 488.654 60.6142 488.318 60.2302 488.054C59.8462 487.778 59.1862 487.484 58.2502 487.172C57.8422 487.028 57.4342 486.866 57.0262 486.686C56.6182 486.494 56.2522 486.26 55.9282 485.984C55.6042 485.696 55.3402 485.354 55.1362 484.958C54.9322 484.55 54.8302 484.058 54.8302 483.482C54.8302 482.906 54.9382 482.39 55.1542 481.934C55.3702 481.466 55.6762 481.07 56.0722 480.746C56.4682 480.422 56.9482 480.176 57.5122 480.008C58.0762 479.828 58.7122 479.738 59.4202 479.738C60.2602 479.738 60.9862 479.828 61.5982 480.008C62.2102 480.188 62.7142 480.386 63.1102 480.602L62.3002 482.816C61.9522 482.636 61.5622 482.48 61.1302 482.348C60.7102 482.204 60.2002 482.132 59.6002 482.132C58.9282 482.132 58.4422 482.228 58.1422 482.42C57.8542 482.6 57.7102 482.882 57.7102 483.266C57.7102 483.494 57.7642 483.686 57.8722 483.842C57.9802 483.998 58.1302 484.142 58.3222 484.274C58.5262 484.394 58.7542 484.508 59.0062 484.616C59.2702 484.712 59.5582 484.814 59.8702 484.922C60.5182 485.162 61.0822 485.402 61.5622 485.642C62.0422 485.87 62.4382 486.14 62.7502 486.452C63.0742 486.764 63.3142 487.13 63.4702 487.55C63.6262 487.97 63.7042 488.48 63.7042 489.08C63.7042 490.244 63.2962 491.15 62.4802 491.798C61.6642 492.434 60.4342 492.752 58.7902 492.752C58.2382 492.752 57.7402 492.716 57.2962 492.644C56.8522 492.584 56.4562 492.506 56.1082 492.41C55.7722 492.314 55.4782 492.212 55.2262 492.104C54.9862 491.996 54.7822 491.894 54.6142 491.798L55.4062 489.566C55.7782 489.77 56.2342 489.956 56.7742 490.124C57.3262 490.28 57.9982 490.358 58.7902 490.358ZM65.5948 480.674L68.2768 480.242V483.032H71.4988V485.264H68.2768V488.594C68.2768 489.158 68.3728 489.608 68.5648 489.944C68.7688 490.28 69.1708 490.448 69.7708 490.448C70.0588 490.448 70.3528 490.424 70.6528 490.376C70.9648 490.316 71.2468 490.238 71.4988 490.142L71.8768 492.23C71.5528 492.362 71.1928 492.476 70.7968 492.572C70.4008 492.668 69.9148 492.716 69.3388 492.716C68.6068 492.716 68.0008 492.62 67.5208 492.428C67.0408 492.224 66.6568 491.948 66.3688 491.6C66.0808 491.24 65.8768 490.808 65.7568 490.304C65.6488 489.8 65.5948 489.242 65.5948 488.63V480.674ZM81.7649 492.176C81.3089 492.308 80.7209 492.428 80.0009 492.536C79.2809 492.656 78.5249 492.716 77.7329 492.716C76.9289 492.716 76.2569 492.608 75.7169 492.392C75.1889 492.176 74.7689 491.876 74.4569 491.492C74.1449 491.096 73.9229 490.628 73.7909 490.088C73.6589 489.548 73.5929 488.954 73.5929 488.306V483.032H76.2749V487.982C76.2749 488.846 76.3889 489.47 76.6169 489.854C76.8449 490.238 77.2709 490.43 77.8949 490.43C78.0869 490.43 78.2909 490.424 78.5069 490.412C78.7229 490.388 78.9149 490.364 79.0829 490.34V483.032H81.7649V492.176ZM86.5685 487.694C86.5685 488.522 86.7545 489.188 87.1265 489.692C87.4985 490.196 88.0505 490.448 88.7825 490.448C89.0225 490.448 89.2445 490.442 89.4485 490.43C89.6525 490.406 89.8205 490.382 89.9525 490.358V485.48C89.7845 485.372 89.5625 485.282 89.2865 485.21C89.0225 485.138 88.7525 485.102 88.4765 485.102C87.2045 485.102 86.5685 485.966 86.5685 487.694ZM92.6345 492.194C92.3945 492.266 92.1185 492.338 91.8065 492.41C91.4945 492.47 91.1645 492.524 90.8165 492.572C90.4805 492.62 90.1325 492.656 89.7725 492.68C89.4245 492.716 89.0885 492.734 88.7645 492.734C87.9845 492.734 87.2885 492.62 86.6765 492.392C86.0645 492.164 85.5485 491.84 85.1285 491.42C84.7085 490.988 84.3845 490.472 84.1565 489.872C83.9405 489.26 83.8325 488.576 83.8325 487.82C83.8325 487.052 83.9285 486.362 84.1205 485.75C84.3125 485.126 84.5885 484.598 84.9485 484.166C85.3085 483.734 85.7465 483.404 86.2625 483.176C86.7905 482.948 87.3905 482.834 88.0625 482.834C88.4345 482.834 88.7645 482.87 89.0525 482.942C89.3525 483.014 89.6525 483.116 89.9525 483.248V478.964L92.6345 478.532V492.194ZM94.6957 487.838C94.6957 486.998 94.8217 486.266 95.0737 485.642C95.3377 485.006 95.6797 484.478 96.0997 484.058C96.5197 483.638 96.9997 483.32 97.5397 483.104C98.0917 482.888 98.6557 482.78 99.2317 482.78C100.576 482.78 101.638 483.194 102.418 484.022C103.198 484.838 103.588 486.044 103.588 487.64C103.588 487.796 103.582 487.97 103.57 488.162C103.558 488.342 103.546 488.504 103.534 488.648H97.4497C97.5097 489.2 97.7677 489.638 98.2237 489.962C98.6797 490.286 99.2917 490.448 100.06 490.448C100.552 490.448 101.032 490.406 101.5 490.322C101.98 490.226 102.37 490.112 102.67 489.98L103.03 492.158C102.886 492.23 102.694 492.302 102.454 492.374C102.214 492.446 101.944 492.506 101.644 492.554C101.356 492.614 101.044 492.662 100.708 492.698C100.372 492.734 100.036 492.752 99.6997 492.752C98.8477 492.752 98.1037 492.626 97.4677 492.374C96.8437 492.122 96.3217 491.78 95.9017 491.348C95.4937 490.904 95.1877 490.382 94.9837 489.782C94.7917 489.182 94.6957 488.534 94.6957 487.838ZM100.996 486.812C100.984 486.584 100.942 486.362 100.87 486.146C100.81 485.93 100.708 485.738 100.564 485.57C100.432 485.402 100.258 485.264 100.042 485.156C99.8377 485.048 99.5797 484.994 99.2677 484.994C98.9677 484.994 98.7097 485.048 98.4937 485.156C98.2777 485.252 98.0977 485.384 97.9537 485.552C97.8097 485.72 97.6957 485.918 97.6117 486.146C97.5397 486.362 97.4857 486.584 97.4497 486.812H100.996ZM105.657 483.356C106.113 483.224 106.701 483.104 107.421 482.996C108.141 482.876 108.897 482.816 109.689 482.816C110.493 482.816 111.159 482.924 111.687 483.14C112.227 483.344 112.653 483.638 112.965 484.022C113.277 484.406 113.499 484.862 113.631 485.39C113.763 485.918 113.829 486.506 113.829 487.154V492.5H111.147V487.478C111.147 486.614 111.033 486.002 110.805 485.642C110.577 485.282 110.151 485.102 109.527 485.102C109.335 485.102 109.131 485.114 108.915 485.138C108.699 485.15 108.507 485.168 108.339 485.192V492.5H105.657V483.356ZM116.167 480.674L118.849 480.242V483.032H122.071V485.264H118.849V488.594C118.849 489.158 118.945 489.608 119.137 489.944C119.341 490.28 119.743 490.448 120.343 490.448C120.631 490.448 120.925 490.424 121.225 490.376C121.537 490.316 121.819 490.238 122.071 490.142L122.449 492.23C122.125 492.362 121.765 492.476 121.369 492.572C120.973 492.668 120.487 492.716 119.911 492.716C119.179 492.716 118.573 492.62 118.093 492.428C117.613 492.224 117.229 491.948 116.941 491.6C116.653 491.24 116.449 490.808 116.329 490.304C116.221 489.8 116.167 489.242 116.167 488.63V480.674ZM123.269 485.912H128.489V488.342H123.269V485.912ZM130.377 492.5V480.026H138.729V482.384H133.185V484.994H138.117V487.352H133.185V492.5H130.377ZM143.711 490.628C143.975 490.628 144.227 490.622 144.467 490.61C144.707 490.598 144.899 490.58 145.043 490.556V488.522C144.935 488.498 144.773 488.474 144.557 488.45C144.341 488.426 144.143 488.414 143.963 488.414C143.711 488.414 143.471 488.432 143.243 488.468C143.027 488.492 142.835 488.546 142.667 488.63C142.499 488.714 142.367 488.828 142.271 488.972C142.175 489.116 142.127 489.296 142.127 489.512C142.127 489.932 142.265 490.226 142.541 490.394C142.829 490.55 143.219 490.628 143.711 490.628ZM143.495 482.78C144.287 482.78 144.947 482.87 145.475 483.05C146.003 483.23 146.423 483.488 146.735 483.824C147.059 484.16 147.287 484.568 147.419 485.048C147.551 485.528 147.617 486.062 147.617 486.65V492.23C147.233 492.314 146.699 492.41 146.015 492.518C145.331 492.638 144.503 492.698 143.531 492.698C142.919 492.698 142.361 492.644 141.857 492.536C141.365 492.428 140.939 492.254 140.579 492.014C140.219 491.762 139.943 491.438 139.751 491.042C139.559 490.646 139.463 490.16 139.463 489.584C139.463 489.032 139.571 488.564 139.787 488.18C140.015 487.796 140.315 487.49 140.687 487.262C141.059 487.034 141.485 486.872 141.965 486.776C142.445 486.668 142.943 486.614 143.459 486.614C143.807 486.614 144.113 486.632 144.377 486.668C144.653 486.692 144.875 486.728 145.043 486.776V486.524C145.043 486.068 144.905 485.702 144.629 485.426C144.353 485.15 143.873 485.012 143.189 485.012C142.733 485.012 142.283 485.048 141.839 485.12C141.395 485.18 141.011 485.27 140.687 485.39L140.345 483.23C140.501 483.182 140.693 483.134 140.921 483.086C141.161 483.026 141.419 482.978 141.695 482.942C141.971 482.894 142.259 482.858 142.559 482.834C142.871 482.798 143.183 482.78 143.495 482.78ZM149.592 487.766C149.592 487.082 149.7 486.44 149.916 485.84C150.144 485.228 150.468 484.7 150.888 484.256C151.308 483.8 151.818 483.44 152.418 483.176C153.018 482.912 153.702 482.78 154.47 482.78C154.974 482.78 155.436 482.828 155.856 482.924C156.276 483.008 156.684 483.134 157.08 483.302L156.522 485.444C156.27 485.348 155.994 485.264 155.694 485.192C155.394 485.12 155.058 485.084 154.686 485.084C153.894 485.084 153.3 485.33 152.904 485.822C152.52 486.314 152.328 486.962 152.328 487.766C152.328 488.618 152.508 489.278 152.868 489.746C153.24 490.214 153.882 490.448 154.794 490.448C155.118 490.448 155.466 490.418 155.838 490.358C156.21 490.298 156.552 490.202 156.864 490.07L157.242 492.266C156.93 492.398 156.54 492.512 156.072 492.608C155.604 492.704 155.088 492.752 154.524 492.752C153.66 492.752 152.916 492.626 152.292 492.374C151.668 492.11 151.152 491.756 150.744 491.312C150.348 490.868 150.054 490.346 149.862 489.746C149.682 489.134 149.592 488.474 149.592 487.766ZM167.124 492.176C166.668 492.308 166.08 492.428 165.36 492.536C164.64 492.656 163.884 492.716 163.092 492.716C162.288 492.716 161.616 492.608 161.076 492.392C160.548 492.176 160.128 491.876 159.816 491.492C159.504 491.096 159.282 490.628 159.15 490.088C159.018 489.548 158.952 488.954 158.952 488.306V483.032H161.634V487.982C161.634 488.846 161.748 489.47 161.976 489.854C162.204 490.238 162.63 490.43 163.254 490.43C163.446 490.43 163.65 490.424 163.866 490.412C164.082 490.388 164.274 490.364 164.442 490.34V483.032H167.124V492.176ZM173.422 492.68C172.642 492.668 172.006 492.584 171.514 492.428C171.034 492.272 170.65 492.056 170.362 491.78C170.086 491.492 169.894 491.15 169.786 490.754C169.69 490.346 169.642 489.89 169.642 489.386V478.964L172.324 478.532V488.846C172.324 489.086 172.342 489.302 172.378 489.494C172.414 489.686 172.48 489.848 172.576 489.98C172.684 490.112 172.834 490.22 173.026 490.304C173.218 490.388 173.476 490.442 173.8 490.466L173.422 492.68ZM175.247 480.674L177.929 480.242V483.032H181.151V485.264H177.929V488.594C177.929 489.158 178.025 489.608 178.217 489.944C178.421 490.28 178.823 490.448 179.423 490.448C179.711 490.448 180.005 490.424 180.305 490.376C180.617 490.316 180.899 490.238 181.151 490.142L181.529 492.23C181.205 492.362 180.845 492.476 180.449 492.572C180.053 492.668 179.567 492.716 178.991 492.716C178.259 492.716 177.653 492.62 177.173 492.428C176.693 492.224 176.309 491.948 176.021 491.6C175.733 491.24 175.529 490.808 175.409 490.304C175.301 489.8 175.247 489.242 175.247 488.63V480.674ZM191.917 483.032C191.377 484.856 190.813 486.566 190.225 488.162C189.637 489.758 188.995 491.306 188.299 492.806C188.047 493.346 187.795 493.802 187.543 494.174C187.291 494.558 187.015 494.87 186.715 495.11C186.415 495.362 186.073 495.542 185.689 495.65C185.317 495.77 184.879 495.83 184.375 495.83C183.955 495.83 183.565 495.788 183.205 495.704C182.857 495.632 182.569 495.548 182.341 495.452L182.809 493.31C183.085 493.406 183.331 493.472 183.547 493.508C183.763 493.544 183.991 493.562 184.231 493.562C184.711 493.562 185.077 493.43 185.329 493.166C185.593 492.914 185.815 492.56 185.995 492.104C185.383 490.904 184.771 489.56 184.159 488.072C183.547 486.572 182.971 484.892 182.431 483.032H185.275C185.395 483.5 185.533 484.01 185.689 484.562C185.857 485.102 186.031 485.654 186.211 486.218C186.391 486.77 186.571 487.31 186.751 487.838C186.943 488.366 187.123 488.846 187.291 489.278C187.447 488.846 187.609 488.366 187.777 487.838C187.945 487.31 188.107 486.77 188.263 486.218C188.431 485.654 188.587 485.102 188.731 484.562C188.887 484.01 189.025 483.5 189.145 483.032H191.917ZM201.513 479.882C203.385 479.882 204.819 480.218 205.815 480.89C206.811 481.55 207.309 482.582 207.309 483.986C207.309 484.862 207.105 485.576 206.697 486.128C206.301 486.668 205.725 487.094 204.969 487.406C205.221 487.718 205.485 488.078 205.761 488.486C206.037 488.882 206.307 489.302 206.571 489.746C206.847 490.178 207.111 490.634 207.363 491.114C207.615 491.582 207.849 492.044 208.065 492.5H204.915C204.687 492.092 204.453 491.678 204.213 491.258C203.985 490.838 203.745 490.43 203.493 490.034C203.253 489.638 203.013 489.266 202.773 488.918C202.533 488.558 202.293 488.234 202.053 487.946H200.667V492.5H197.859V480.206C198.471 480.086 199.101 480.002 199.749 479.954C200.409 479.906 200.997 479.882 201.513 479.882ZM201.675 482.276C201.471 482.276 201.285 482.282 201.117 482.294C200.961 482.306 200.811 482.318 200.667 482.33V485.714H201.459C202.515 485.714 203.271 485.582 203.727 485.318C204.183 485.054 204.411 484.604 204.411 483.968C204.411 483.356 204.177 482.924 203.709 482.672C203.253 482.408 202.575 482.276 201.675 482.276ZM212.846 490.628C213.11 490.628 213.362 490.622 213.602 490.61C213.842 490.598 214.034 490.58 214.178 490.556V488.522C214.07 488.498 213.908 488.474 213.692 488.45C213.476 488.426 213.278 488.414 213.098 488.414C212.846 488.414 212.606 488.432 212.378 488.468C212.162 488.492 211.97 488.546 211.802 488.63C211.634 488.714 211.502 488.828 211.406 488.972C211.31 489.116 211.262 489.296 211.262 489.512C211.262 489.932 211.4 490.226 211.676 490.394C211.964 490.55 212.354 490.628 212.846 490.628ZM212.63 482.78C213.422 482.78 214.082 482.87 214.61 483.05C215.138 483.23 215.558 483.488 215.87 483.824C216.194 484.16 216.422 484.568 216.554 485.048C216.686 485.528 216.752 486.062 216.752 486.65V492.23C216.368 492.314 215.834 492.41 215.15 492.518C214.466 492.638 213.638 492.698 212.666 492.698C212.054 492.698 211.496 492.644 210.992 492.536C210.5 492.428 210.074 492.254 209.714 492.014C209.354 491.762 209.078 491.438 208.886 491.042C208.694 490.646 208.598 490.16 208.598 489.584C208.598 489.032 208.706 488.564 208.922 488.18C209.15 487.796 209.45 487.49 209.822 487.262C210.194 487.034 210.62 486.872 211.1 486.776C211.58 486.668 212.078 486.614 212.594 486.614C212.942 486.614 213.248 486.632 213.512 486.668C213.788 486.692 214.01 486.728 214.178 486.776V486.524C214.178 486.068 214.04 485.702 213.764 485.426C213.488 485.15 213.008 485.012 212.324 485.012C211.868 485.012 211.418 485.048 210.974 485.12C210.53 485.18 210.146 485.27 209.822 485.39L209.48 483.23C209.636 483.182 209.828 483.134 210.056 483.086C210.296 483.026 210.554 482.978 210.83 482.942C211.106 482.894 211.394 482.858 211.694 482.834C212.006 482.798 212.318 482.78 212.63 482.78ZM219.087 480.674L221.769 480.242V483.032H224.991V485.264H221.769V488.594C221.769 489.158 221.865 489.608 222.057 489.944C222.261 490.28 222.663 490.448 223.263 490.448C223.551 490.448 223.845 490.424 224.145 490.376C224.457 490.316 224.739 490.238 224.991 490.142L225.369 492.23C225.045 492.362 224.685 492.476 224.289 492.572C223.893 492.668 223.407 492.716 222.831 492.716C222.099 492.716 221.493 492.62 221.013 492.428C220.533 492.224 220.149 491.948 219.861 491.6C219.573 491.24 219.369 490.808 219.249 490.304C219.141 489.8 219.087 489.242 219.087 488.63V480.674ZM229.857 492.5H227.175V483.032H229.857V492.5ZM230.109 480.296C230.109 480.788 229.947 481.178 229.623 481.466C229.311 481.742 228.939 481.88 228.507 481.88C228.075 481.88 227.697 481.742 227.373 481.466C227.061 481.178 226.905 480.788 226.905 480.296C226.905 479.804 227.061 479.42 227.373 479.144C227.697 478.856 228.075 478.712 228.507 478.712C228.939 478.712 229.311 478.856 229.623 479.144C229.947 479.42 230.109 479.804 230.109 480.296ZM241.234 487.748C241.234 488.492 241.126 489.176 240.91 489.8C240.694 490.412 240.382 490.94 239.974 491.384C239.566 491.816 239.074 492.152 238.498 492.392C237.934 492.632 237.298 492.752 236.59 492.752C235.894 492.752 235.258 492.632 234.682 492.392C234.118 492.152 233.632 491.816 233.224 491.384C232.816 490.94 232.498 490.412 232.27 489.8C232.042 489.176 231.928 488.492 231.928 487.748C231.928 487.004 232.042 486.326 232.27 485.714C232.51 485.102 232.834 484.58 233.242 484.148C233.662 483.716 234.154 483.38 234.718 483.14C235.294 482.9 235.918 482.78 236.59 482.78C237.274 482.78 237.898 482.9 238.462 483.14C239.038 483.38 239.53 483.716 239.938 484.148C240.346 484.58 240.664 485.102 240.892 485.714C241.12 486.326 241.234 487.004 241.234 487.748ZM238.498 487.748C238.498 486.92 238.33 486.272 237.994 485.804C237.67 485.324 237.202 485.084 236.59 485.084C235.978 485.084 235.504 485.324 235.168 485.804C234.832 486.272 234.664 486.92 234.664 487.748C234.664 488.576 234.832 489.236 235.168 489.728C235.504 490.208 235.978 490.448 236.59 490.448C237.202 490.448 237.67 490.208 237.994 489.728C238.33 489.236 238.498 488.576 238.498 487.748Z" fill="black"/>
</g>
<g filter="url(#filter1_d_122_162)">
<rect x="231" y="83" width="180" height="180" rx="20" fill="white"/>
<path d="M344.599 179.972C344.599 182.852 344.087 185.508 343.063 187.94C342.103 190.308 340.631 192.388 338.647 194.18C336.663 195.972 334.167 197.38 331.159 198.404C328.215 199.364 324.791 199.844 320.887 199.844C316.407 199.844 312.663 199.236 309.655 198.02C306.711 196.74 304.311 195.172 302.455 193.316C300.663 191.46 299.383 189.444 298.615 187.268C297.847 185.028 297.463 182.98 297.463 181.124C297.463 179.204 297.719 177.444 298.231 175.844C298.743 174.244 299.447 172.804 300.343 171.524C301.239 170.18 302.231 168.964 303.319 167.876C304.471 166.788 305.687 165.764 306.967 164.804C304.215 162.564 302.167 160.356 300.823 158.18C299.543 156.004 298.903 153.22 298.903 149.828C298.903 147.268 299.415 144.804 300.439 142.436C301.527 140.068 303.031 138.02 304.951 136.292C306.871 134.5 309.175 133.092 311.863 132.068C314.615 130.98 317.655 130.436 320.983 130.436C324.887 130.436 328.215 131.012 330.967 132.164C333.783 133.252 336.087 134.66 337.879 136.388C339.671 138.116 340.951 140.068 341.719 142.244C342.551 144.356 342.967 146.468 342.967 148.58C342.967 151.652 342.135 154.532 340.471 157.22C338.871 159.844 336.855 161.924 334.423 163.46C338.071 165.828 340.663 168.324 342.199 170.948C343.799 173.508 344.599 176.516 344.599 179.972ZM311.383 180.548C311.383 181.316 311.543 182.18 311.863 183.14C312.247 184.036 312.823 184.868 313.591 185.636C314.359 186.404 315.351 187.044 316.567 187.556C317.783 188.068 319.255 188.324 320.983 188.324C324.311 188.324 326.743 187.524 328.279 185.924C329.815 184.324 330.583 182.532 330.583 180.548C330.583 179.076 330.231 177.764 329.527 176.612C328.887 175.46 327.991 174.468 326.839 173.636C325.687 172.74 324.311 171.972 322.711 171.332C321.175 170.628 319.511 169.988 317.719 169.412C315.927 170.756 314.423 172.324 313.207 174.116C311.991 175.908 311.383 178.052 311.383 180.548ZM329.143 148.964C329.143 148.26 328.983 147.524 328.663 146.756C328.407 145.924 327.927 145.156 327.223 144.452C326.583 143.748 325.751 143.172 324.727 142.724C323.703 142.212 322.455 141.956 320.983 141.956C319.575 141.956 318.359 142.18 317.335 142.628C316.311 143.076 315.447 143.684 314.743 144.452C314.103 145.156 313.623 145.924 313.303 146.756C312.983 147.588 312.823 148.388 312.823 149.156C312.823 151.204 313.559 153.124 315.031 154.916C316.567 156.708 319.159 158.244 322.807 159.524C324.855 158.244 326.423 156.772 327.511 155.108C328.599 153.444 329.143 151.396 329.143 148.964Z" fill="url(#paint1_linear_122_162)"/>
<path d="M250.943 234.5C250.811 234.068 250.661 233.624 250.493 233.168C250.337 232.712 250.181 232.256 250.025 231.8H245.165C245.009 232.256 244.847 232.712 244.679 233.168C244.523 233.624 244.379 234.068 244.247 234.5H241.331C241.799 233.156 242.243 231.914 242.663 230.774C243.083 229.634 243.491 228.56 243.887 227.552C244.295 226.544 244.691 225.59 245.075 224.69C245.471 223.778 245.879 222.89 246.299 222.026H248.981C249.389 222.89 249.791 223.778 250.187 224.69C250.583 225.59 250.979 226.544 251.375 227.552C251.783 228.56 252.197 229.634 252.617 230.774C253.037 231.914 253.481 233.156 253.949 234.5H250.943ZM247.577 224.852C247.517 225.032 247.427 225.278 247.307 225.59C247.187 225.902 247.049 226.262 246.893 226.67C246.737 227.078 246.563 227.528 246.371 228.02C246.191 228.512 246.005 229.028 245.813 229.568H249.359C249.167 229.028 248.981 228.512 248.801 228.02C248.621 227.528 248.447 227.078 248.279 226.67C248.123 226.262 247.985 225.902 247.865 225.59C247.745 225.278 247.649 225.032 247.577 224.852ZM257.325 234.5C256.713 233.3 256.089 231.896 255.453 230.288C254.829 228.68 254.235 226.928 253.671 225.032H256.515C256.635 225.5 256.773 226.01 256.929 226.562C257.097 227.102 257.265 227.654 257.433 228.218C257.613 228.77 257.787 229.31 257.955 229.838C258.135 230.366 258.309 230.846 258.477 231.278C258.633 230.846 258.801 230.366 258.981 229.838C259.161 229.31 259.335 228.77 259.503 228.218C259.683 227.654 259.851 227.102 260.007 226.562C260.175 226.01 260.319 225.5 260.439 225.032H263.211C262.647 226.928 262.047 228.68 261.411 230.288C260.787 231.896 260.169 233.3 259.557 234.5H257.325ZM263.952 229.838C263.952 228.998 264.078 228.266 264.33 227.642C264.594 227.006 264.936 226.478 265.356 226.058C265.776 225.638 266.256 225.32 266.796 225.104C267.348 224.888 267.912 224.78 268.488 224.78C269.832 224.78 270.894 225.194 271.674 226.022C272.454 226.838 272.844 228.044 272.844 229.64C272.844 229.796 272.838 229.97 272.826 230.162C272.814 230.342 272.802 230.504 272.79 230.648H266.706C266.766 231.2 267.024 231.638 267.48 231.962C267.936 232.286 268.548 232.448 269.316 232.448C269.808 232.448 270.288 232.406 270.756 232.322C271.236 232.226 271.626 232.112 271.926 231.98L272.286 234.158C272.142 234.23 271.95 234.302 271.71 234.374C271.47 234.446 271.2 234.506 270.9 234.554C270.612 234.614 270.3 234.662 269.964 234.698C269.628 234.734 269.292 234.752 268.956 234.752C268.104 234.752 267.36 234.626 266.724 234.374C266.1 234.122 265.578 233.78 265.158 233.348C264.75 232.904 264.444 232.382 264.24 231.782C264.048 231.182 263.952 230.534 263.952 229.838ZM270.252 228.812C270.24 228.584 270.198 228.362 270.126 228.146C270.066 227.93 269.964 227.738 269.82 227.57C269.688 227.402 269.514 227.264 269.298 227.156C269.094 227.048 268.836 226.994 268.524 226.994C268.224 226.994 267.966 227.048 267.75 227.156C267.534 227.252 267.354 227.384 267.21 227.552C267.066 227.72 266.952 227.918 266.868 228.146C266.796 228.362 266.742 228.584 266.706 228.812H270.252ZM280.619 227.408C280.379 227.348 280.097 227.288 279.773 227.228C279.449 227.156 279.101 227.12 278.729 227.12C278.561 227.12 278.357 227.138 278.117 227.174C277.889 227.198 277.715 227.228 277.595 227.264V234.5H274.913V225.536C275.393 225.368 275.957 225.212 276.605 225.068C277.265 224.912 277.997 224.834 278.801 224.834C278.945 224.834 279.119 224.846 279.323 224.87C279.527 224.882 279.731 224.906 279.935 224.942C280.139 224.966 280.343 225.002 280.547 225.05C280.751 225.086 280.925 225.134 281.069 225.194L280.619 227.408ZM285.949 232.628C286.213 232.628 286.465 232.622 286.705 232.61C286.945 232.598 287.137 232.58 287.281 232.556V230.522C287.173 230.498 287.011 230.474 286.795 230.45C286.579 230.426 286.381 230.414 286.201 230.414C285.949 230.414 285.709 230.432 285.481 230.468C285.265 230.492 285.073 230.546 284.905 230.63C284.737 230.714 284.605 230.828 284.509 230.972C284.413 231.116 284.365 231.296 284.365 231.512C284.365 231.932 284.503 232.226 284.779 232.394C285.067 232.55 285.457 232.628 285.949 232.628ZM285.733 224.78C286.525 224.78 287.185 224.87 287.713 225.05C288.241 225.23 288.661 225.488 288.973 225.824C289.297 226.16 289.525 226.568 289.657 227.048C289.789 227.528 289.855 228.062 289.855 228.65V234.23C289.471 234.314 288.937 234.41 288.253 234.518C287.569 234.638 286.741 234.698 285.769 234.698C285.157 234.698 284.599 234.644 284.095 234.536C283.603 234.428 283.177 234.254 282.817 234.014C282.457 233.762 282.181 233.438 281.989 233.042C281.797 232.646 281.701 232.16 281.701 231.584C281.701 231.032 281.809 230.564 282.025 230.18C282.253 229.796 282.553 229.49 282.925 229.262C283.297 229.034 283.723 228.872 284.203 228.776C284.683 228.668 285.181 228.614 285.697 228.614C286.045 228.614 286.351 228.632 286.615 228.668C286.891 228.692 287.113 228.728 287.281 228.776V228.524C287.281 228.068 287.143 227.702 286.867 227.426C286.591 227.15 286.111 227.012 285.427 227.012C284.971 227.012 284.521 227.048 284.077 227.12C283.633 227.18 283.249 227.27 282.925 227.39L282.583 225.23C282.739 225.182 282.931 225.134 283.159 225.086C283.399 225.026 283.657 224.978 283.933 224.942C284.209 224.894 284.497 224.858 284.797 224.834C285.109 224.798 285.421 224.78 285.733 224.78ZM294.567 229.46C294.567 230.96 295.173 231.71 296.385 231.71C296.661 231.71 296.919 231.674 297.159 231.602C297.399 231.53 297.603 231.446 297.771 231.35V227.066C297.639 227.042 297.483 227.024 297.303 227.012C297.123 226.988 296.913 226.976 296.673 226.976C295.965 226.976 295.437 227.21 295.089 227.678C294.741 228.146 294.567 228.74 294.567 229.46ZM300.453 233.312C300.453 234.86 300.057 236.006 299.265 236.75C298.485 237.506 297.273 237.884 295.629 237.884C295.053 237.884 294.477 237.83 293.901 237.722C293.325 237.626 292.791 237.494 292.299 237.326L292.767 235.076C293.187 235.244 293.625 235.376 294.081 235.472C294.549 235.568 295.077 235.616 295.665 235.616C296.433 235.616 296.973 235.448 297.285 235.112C297.609 234.776 297.771 234.344 297.771 233.816V233.474C297.483 233.606 297.183 233.708 296.871 233.78C296.571 233.84 296.241 233.87 295.881 233.87C294.573 233.87 293.571 233.486 292.875 232.718C292.179 231.938 291.831 230.852 291.831 229.46C291.831 228.764 291.939 228.134 292.155 227.57C292.371 226.994 292.683 226.502 293.091 226.094C293.511 225.686 294.021 225.374 294.621 225.158C295.221 224.93 295.899 224.816 296.655 224.816C296.979 224.816 297.309 224.834 297.645 224.87C297.993 224.894 298.335 224.93 298.671 224.978C299.007 225.026 299.325 225.086 299.625 225.158C299.937 225.218 300.213 225.284 300.453 225.356V233.312ZM302.518 229.838C302.518 228.998 302.644 228.266 302.896 227.642C303.16 227.006 303.502 226.478 303.922 226.058C304.342 225.638 304.822 225.32 305.362 225.104C305.914 224.888 306.478 224.78 307.054 224.78C308.398 224.78 309.46 225.194 310.24 226.022C311.02 226.838 311.41 228.044 311.41 229.64C311.41 229.796 311.404 229.97 311.392 230.162C311.38 230.342 311.368 230.504 311.356 230.648H305.272C305.332 231.2 305.59 231.638 306.046 231.962C306.502 232.286 307.114 232.448 307.882 232.448C308.374 232.448 308.854 232.406 309.322 232.322C309.802 232.226 310.192 232.112 310.492 231.98L310.852 234.158C310.708 234.23 310.516 234.302 310.276 234.374C310.036 234.446 309.766 234.506 309.466 234.554C309.178 234.614 308.866 234.662 308.53 234.698C308.194 234.734 307.858 234.752 307.522 234.752C306.67 234.752 305.926 234.626 305.29 234.374C304.666 234.122 304.144 233.78 303.724 233.348C303.316 232.904 303.01 232.382 302.806 231.782C302.614 231.182 302.518 230.534 302.518 229.838ZM308.818 228.812C308.806 228.584 308.764 228.362 308.692 228.146C308.632 227.93 308.53 227.738 308.386 227.57C308.254 227.402 308.08 227.264 307.864 227.156C307.66 227.048 307.402 226.994 307.09 226.994C306.79 226.994 306.532 227.048 306.316 227.156C306.1 227.252 305.92 227.384 305.776 227.552C305.632 227.72 305.518 227.918 305.434 228.146C305.362 228.362 305.308 228.584 305.272 228.812H308.818ZM323.672 234.752C321.644 234.752 320.096 234.188 319.028 233.06C317.972 231.932 317.444 230.33 317.444 228.254C317.444 227.222 317.606 226.304 317.93 225.5C318.254 224.684 318.698 224 319.262 223.448C319.826 222.884 320.498 222.458 321.278 222.17C322.058 221.882 322.904 221.738 323.816 221.738C324.344 221.738 324.824 221.78 325.256 221.864C325.688 221.936 326.066 222.026 326.39 222.134C326.714 222.23 326.984 222.332 327.2 222.44C327.416 222.548 327.572 222.632 327.668 222.692L326.858 224.96C326.474 224.756 326.024 224.582 325.508 224.438C325.004 224.294 324.428 224.222 323.78 224.222C323.348 224.222 322.922 224.294 322.502 224.438C322.094 224.582 321.728 224.816 321.404 225.14C321.092 225.452 320.84 225.86 320.648 226.364C320.456 226.868 320.36 227.48 320.36 228.2C320.36 228.776 320.42 229.316 320.54 229.82C320.672 230.312 320.876 230.738 321.152 231.098C321.44 231.458 321.812 231.746 322.268 231.962C322.724 232.166 323.276 232.268 323.924 232.268C324.332 232.268 324.698 232.244 325.022 232.196C325.346 232.148 325.634 232.094 325.886 232.034C326.138 231.962 326.36 231.884 326.552 231.8C326.744 231.716 326.918 231.638 327.074 231.566L327.848 233.816C327.452 234.056 326.894 234.272 326.174 234.464C325.454 234.656 324.62 234.752 323.672 234.752ZM333.256 234.68C332.476 234.668 331.84 234.584 331.348 234.428C330.868 234.272 330.484 234.056 330.196 233.78C329.92 233.492 329.728 233.15 329.62 232.754C329.524 232.346 329.476 231.89 329.476 231.386V220.964L332.158 220.532V230.846C332.158 231.086 332.176 231.302 332.212 231.494C332.248 231.686 332.314 231.848 332.41 231.98C332.518 232.112 332.668 232.22 332.86 232.304C333.052 232.388 333.31 232.442 333.634 232.466L333.256 234.68ZM339.053 232.628C339.317 232.628 339.569 232.622 339.809 232.61C340.049 232.598 340.241 232.58 340.385 232.556V230.522C340.277 230.498 340.115 230.474 339.899 230.45C339.683 230.426 339.485 230.414 339.305 230.414C339.053 230.414 338.813 230.432 338.585 230.468C338.369 230.492 338.177 230.546 338.009 230.63C337.841 230.714 337.709 230.828 337.613 230.972C337.517 231.116 337.469 231.296 337.469 231.512C337.469 231.932 337.607 232.226 337.883 232.394C338.171 232.55 338.561 232.628 339.053 232.628ZM338.837 224.78C339.629 224.78 340.289 224.87 340.817 225.05C341.345 225.23 341.765 225.488 342.077 225.824C342.401 226.16 342.629 226.568 342.761 227.048C342.893 227.528 342.959 228.062 342.959 228.65V234.23C342.575 234.314 342.041 234.41 341.357 234.518C340.673 234.638 339.845 234.698 338.873 234.698C338.261 234.698 337.703 234.644 337.199 234.536C336.707 234.428 336.281 234.254 335.921 234.014C335.561 233.762 335.285 233.438 335.093 233.042C334.901 232.646 334.805 232.16 334.805 231.584C334.805 231.032 334.913 230.564 335.129 230.18C335.357 229.796 335.657 229.49 336.029 229.262C336.401 229.034 336.827 228.872 337.307 228.776C337.787 228.668 338.285 228.614 338.801 228.614C339.149 228.614 339.455 228.632 339.719 228.668C339.995 228.692 340.217 228.728 340.385 228.776V228.524C340.385 228.068 340.247 227.702 339.971 227.426C339.695 227.15 339.215 227.012 338.531 227.012C338.075 227.012 337.625 227.048 337.181 227.12C336.737 227.18 336.353 227.27 336.029 227.39L335.687 225.23C335.843 225.182 336.035 225.134 336.263 225.086C336.503 225.026 336.761 224.978 337.037 224.942C337.313 224.894 337.601 224.858 337.901 224.834C338.213 224.798 338.525 224.78 338.837 224.78ZM348.102 232.574C348.594 232.574 348.942 232.526 349.146 232.43C349.35 232.334 349.452 232.148 349.452 231.872C349.452 231.656 349.32 231.47 349.056 231.314C348.792 231.146 348.39 230.96 347.85 230.756C347.43 230.6 347.046 230.438 346.698 230.27C346.362 230.102 346.074 229.904 345.834 229.676C345.594 229.436 345.408 229.154 345.276 228.83C345.144 228.506 345.078 228.116 345.078 227.66C345.078 226.772 345.408 226.07 346.068 225.554C346.728 225.038 347.634 224.78 348.786 224.78C349.362 224.78 349.914 224.834 350.442 224.942C350.97 225.038 351.39 225.146 351.702 225.266L351.234 227.354C350.922 227.246 350.58 227.15 350.208 227.066C349.848 226.982 349.44 226.94 348.984 226.94C348.144 226.94 347.724 227.174 347.724 227.642C347.724 227.75 347.742 227.846 347.778 227.93C347.814 228.014 347.886 228.098 347.994 228.182C348.102 228.254 348.246 228.338 348.426 228.434C348.618 228.518 348.858 228.614 349.146 228.722C349.734 228.938 350.22 229.154 350.604 229.37C350.988 229.574 351.288 229.802 351.504 230.054C351.732 230.294 351.888 230.564 351.972 230.864C352.068 231.164 352.116 231.512 352.116 231.908C352.116 232.844 351.762 233.552 351.054 234.032C350.358 234.512 349.368 234.752 348.084 234.752C347.244 234.752 346.542 234.68 345.978 234.536C345.426 234.392 345.042 234.272 344.826 234.176L345.276 231.998C345.732 232.178 346.2 232.322 346.68 232.43C347.16 232.526 347.634 232.574 348.102 232.574ZM356.838 232.574C357.33 232.574 357.678 232.526 357.882 232.43C358.086 232.334 358.188 232.148 358.188 231.872C358.188 231.656 358.056 231.47 357.792 231.314C357.528 231.146 357.126 230.96 356.586 230.756C356.166 230.6 355.782 230.438 355.434 230.27C355.098 230.102 354.81 229.904 354.57 229.676C354.33 229.436 354.144 229.154 354.012 228.83C353.88 228.506 353.814 228.116 353.814 227.66C353.814 226.772 354.144 226.07 354.804 225.554C355.464 225.038 356.37 224.78 357.522 224.78C358.098 224.78 358.65 224.834 359.178 224.942C359.706 225.038 360.126 225.146 360.438 225.266L359.97 227.354C359.658 227.246 359.316 227.15 358.944 227.066C358.584 226.982 358.176 226.94 357.72 226.94C356.88 226.94 356.46 227.174 356.46 227.642C356.46 227.75 356.478 227.846 356.514 227.93C356.55 228.014 356.622 228.098 356.73 228.182C356.838 228.254 356.982 228.338 357.162 228.434C357.354 228.518 357.594 228.614 357.882 228.722C358.47 228.938 358.956 229.154 359.34 229.37C359.724 229.574 360.024 229.802 360.24 230.054C360.468 230.294 360.624 230.564 360.708 230.864C360.804 231.164 360.852 231.512 360.852 231.908C360.852 232.844 360.498 233.552 359.79 234.032C359.094 234.512 358.104 234.752 356.82 234.752C355.98 234.752 355.278 234.68 354.714 234.536C354.162 234.392 353.778 234.272 353.562 234.176L354.012 231.998C354.468 232.178 354.936 232.322 355.416 232.43C355.896 232.526 356.37 232.574 356.838 232.574ZM370.763 232.358C371.159 232.358 371.483 232.328 371.735 232.268C371.999 232.196 372.209 232.106 372.365 231.998C372.521 231.878 372.629 231.74 372.689 231.584C372.749 231.428 372.779 231.254 372.779 231.062C372.779 230.654 372.587 230.318 372.203 230.054C371.819 229.778 371.159 229.484 370.223 229.172C369.815 229.028 369.407 228.866 368.999 228.686C368.591 228.494 368.225 228.26 367.901 227.984C367.577 227.696 367.313 227.354 367.109 226.958C366.905 226.55 366.803 226.058 366.803 225.482C366.803 224.906 366.911 224.39 367.127 223.934C367.343 223.466 367.649 223.07 368.045 222.746C368.441 222.422 368.921 222.176 369.485 222.008C370.049 221.828 370.685 221.738 371.393 221.738C372.233 221.738 372.959 221.828 373.571 222.008C374.183 222.188 374.687 222.386 375.083 222.602L374.273 224.816C373.925 224.636 373.535 224.48 373.103 224.348C372.683 224.204 372.173 224.132 371.573 224.132C370.901 224.132 370.415 224.228 370.115 224.42C369.827 224.6 369.683 224.882 369.683 225.266C369.683 225.494 369.737 225.686 369.845 225.842C369.953 225.998 370.103 226.142 370.295 226.274C370.499 226.394 370.727 226.508 370.979 226.616C371.243 226.712 371.531 226.814 371.843 226.922C372.491 227.162 373.055 227.402 373.535 227.642C374.015 227.87 374.411 228.14 374.723 228.452C375.047 228.764 375.287 229.13 375.443 229.55C375.599 229.97 375.677 230.48 375.677 231.08C375.677 232.244 375.269 233.15 374.453 233.798C373.637 234.434 372.407 234.752 370.763 234.752C370.211 234.752 369.713 234.716 369.269 234.644C368.825 234.584 368.429 234.506 368.081 234.41C367.745 234.314 367.451 234.212 367.199 234.104C366.959 233.996 366.755 233.894 366.587 233.798L367.379 231.566C367.751 231.77 368.207 231.956 368.747 232.124C369.299 232.28 369.971 232.358 370.763 232.358ZM380.339 234.5H377.657V225.032H380.339V234.5ZM380.591 222.296C380.591 222.788 380.429 223.178 380.105 223.466C379.793 223.742 379.421 223.88 378.989 223.88C378.557 223.88 378.179 223.742 377.855 223.466C377.543 223.178 377.387 222.788 377.387 222.296C377.387 221.804 377.543 221.42 377.855 221.144C378.179 220.856 378.557 220.712 378.989 220.712C379.421 220.712 379.793 220.856 380.105 221.144C380.429 221.42 380.591 221.804 380.591 222.296ZM389.971 226.832C389.755 227.072 389.461 227.396 389.089 227.804C388.729 228.212 388.339 228.662 387.919 229.154C387.499 229.646 387.073 230.162 386.641 230.702C386.221 231.242 385.837 231.764 385.489 232.268H390.061V234.5H382.231V232.916C382.483 232.484 382.783 232.022 383.131 231.53C383.491 231.026 383.863 230.522 384.247 230.018C384.643 229.514 385.033 229.028 385.417 228.56C385.801 228.08 386.155 227.648 386.479 227.264H382.447V225.032H389.971V226.832ZM391.147 229.838C391.147 228.998 391.273 228.266 391.525 227.642C391.789 227.006 392.131 226.478 392.551 226.058C392.971 225.638 393.451 225.32 393.991 225.104C394.543 224.888 395.107 224.78 395.683 224.78C397.027 224.78 398.089 225.194 398.869 226.022C399.649 226.838 400.039 228.044 400.039 229.64C400.039 229.796 400.033 229.97 400.021 230.162C400.009 230.342 399.997 230.504 399.985 230.648H393.901C393.961 231.2 394.219 231.638 394.675 231.962C395.131 232.286 395.743 232.448 396.511 232.448C397.003 232.448 397.483 232.406 397.951 232.322C398.431 232.226 398.821 232.112 399.121 231.98L399.481 234.158C399.337 234.23 399.145 234.302 398.905 234.374C398.665 234.446 398.395 234.506 398.095 234.554C397.807 234.614 397.495 234.662 397.159 234.698C396.823 234.734 396.487 234.752 396.151 234.752C395.299 234.752 394.555 234.626 393.919 234.374C393.295 234.122 392.773 233.78 392.353 233.348C391.945 232.904 391.639 232.382 391.435 231.782C391.243 231.182 391.147 230.534 391.147 229.838ZM397.447 228.812C397.435 228.584 397.393 228.362 397.321 228.146C397.261 227.93 397.159 227.738 397.015 227.57C396.883 227.402 396.709 227.264 396.493 227.156C396.289 227.048 396.031 226.994 395.719 226.994C395.419 226.994 395.161 227.048 394.945 227.156C394.729 227.252 394.549 227.384 394.405 227.552C394.261 227.72 394.147 227.918 394.063 228.146C393.991 228.362 393.937 228.584 393.901 228.812H397.447Z" fill="black"/>
</g>
<g filter="url(#filter2_d_122_162)">
<rect x="561" y="98" width="180" height="180" rx="20" fill="white"/>
<path d="M644.054 164.444C644.054 166.876 643.574 169.212 642.614 171.452C641.654 173.692 640.406 175.868 638.87 177.98C637.334 180.028 635.606 182.012 633.686 183.932C631.766 185.852 629.878 187.676 628.022 189.404C627.062 190.3 626.006 191.324 624.854 192.476C623.766 193.564 622.71 194.684 621.686 195.836C620.662 196.988 619.734 198.076 618.902 199.1C618.134 200.06 617.654 200.86 617.462 201.5H646.07V213.5H601.718C601.59 212.796 601.526 211.9 601.526 210.812C601.526 209.724 601.526 208.956 601.526 208.508C601.526 205.436 602.006 202.62 602.966 200.06C603.99 197.5 605.302 195.132 606.902 192.956C608.502 190.716 610.294 188.636 612.278 186.716C614.326 184.796 616.342 182.876 618.326 180.956C619.862 179.484 621.302 178.108 622.646 176.828C623.99 175.484 625.174 174.204 626.198 172.988C627.222 171.708 628.022 170.46 628.598 169.244C629.174 167.964 629.462 166.684 629.462 165.404C629.462 162.588 628.662 160.604 627.062 159.452C625.462 158.3 623.477 157.724 621.109 157.724C619.382 157.724 617.75 158.012 616.214 158.588C614.742 159.1 613.366 159.74 612.086 160.508C610.87 161.212 609.814 161.948 608.918 162.716C608.022 163.42 607.35 163.996 606.902 164.444L599.798 154.46C602.614 151.836 605.878 149.692 609.59 148.028C613.366 146.3 617.398 145.436 621.686 145.436C625.59 145.436 628.95 145.884 631.766 146.78C634.582 147.676 636.886 148.956 638.678 150.62C640.534 152.22 641.878 154.204 642.71 156.572C643.606 158.876 644.054 161.5 644.054 164.444ZM685.56 193.916C685.56 192.06 685.144 190.428 684.312 189.02C683.48 187.548 682.04 186.332 679.992 185.372C677.944 184.412 675.192 183.676 671.736 183.164C668.28 182.652 663.928 182.396 658.68 182.396C659.384 176.444 659.96 170.396 660.408 164.252C660.856 158.108 661.208 152.348 661.464 146.972H697.464V158.972H673.464C673.336 161.276 673.176 163.516 672.984 165.692C672.856 167.804 672.696 169.66 672.504 171.26C681.848 171.9 688.728 174.108 693.144 177.884C697.624 181.596 699.864 186.78 699.864 193.436C699.864 196.508 699.32 199.356 698.232 201.98C697.144 204.604 695.512 206.876 693.336 208.796C691.16 210.716 688.408 212.22 685.08 213.308C681.816 214.396 677.976 214.94 673.56 214.94C671.832 214.94 670.008 214.812 668.088 214.556C666.232 214.364 664.408 214.076 662.616 213.692C660.888 213.372 659.32 213.02 657.912 212.636C656.504 212.252 655.416 211.868 654.648 211.484L657.24 199.676C658.84 200.38 660.952 201.084 663.576 201.788C666.2 202.428 669.336 202.748 672.984 202.748C677.4 202.748 680.6 201.884 682.584 200.156C684.568 198.364 685.56 196.284 685.56 193.916Z" fill="url(#paint2_linear_122_162)"/>
<path d="M590.064 237.026H592.872V249.5H590.064V237.026ZM599.917 249.662C599.233 249.662 598.549 249.638 597.865 249.59C597.193 249.554 596.491 249.458 595.759 249.302V237.206C596.335 237.098 596.965 237.02 597.649 236.972C598.333 236.912 598.969 236.882 599.557 236.882C600.349 236.882 601.075 236.942 601.735 237.062C602.407 237.17 602.983 237.362 603.463 237.638C603.943 237.914 604.315 238.28 604.579 238.736C604.855 239.18 604.993 239.732 604.993 240.392C604.993 241.388 604.513 242.174 603.553 242.75C604.345 243.05 604.885 243.458 605.173 243.974C605.461 244.49 605.605 245.072 605.605 245.72C605.605 247.028 605.125 248.012 604.165 248.672C603.217 249.332 601.801 249.662 599.917 249.662ZM598.495 244.064V247.286C598.699 247.31 598.921 247.328 599.161 247.34C599.401 247.352 599.665 247.358 599.953 247.358C600.793 247.358 601.471 247.238 601.987 246.998C602.503 246.758 602.761 246.314 602.761 245.666C602.761 245.09 602.545 244.682 602.113 244.442C601.681 244.19 601.063 244.064 600.259 244.064H598.495ZM598.495 241.922H599.863C600.727 241.922 601.345 241.814 601.717 241.598C602.089 241.37 602.275 241.01 602.275 240.518C602.275 240.014 602.083 239.66 601.699 239.456C601.315 239.252 600.751 239.15 600.007 239.15C599.767 239.15 599.509 239.156 599.233 239.168C598.957 239.168 598.711 239.18 598.495 239.204V241.922ZM610.661 247.214C610.793 247.226 610.943 247.238 611.111 247.25C611.291 247.25 611.501 247.25 611.741 247.25C613.145 247.25 614.183 246.896 614.855 246.188C615.539 245.48 615.881 244.502 615.881 243.254C615.881 241.946 615.557 240.956 614.909 240.284C614.261 239.612 613.235 239.276 611.831 239.276C611.639 239.276 611.441 239.282 611.237 239.294C611.033 239.294 610.841 239.306 610.661 239.33V247.214ZM618.779 243.254C618.779 244.334 618.611 245.276 618.275 246.08C617.939 246.884 617.459 247.55 616.835 248.078C616.223 248.606 615.473 249.002 614.585 249.266C613.697 249.53 612.701 249.662 611.597 249.662C611.093 249.662 610.505 249.638 609.833 249.59C609.161 249.554 608.501 249.47 607.853 249.338V237.188C608.501 237.068 609.173 236.99 609.869 236.954C610.577 236.906 611.183 236.882 611.687 236.882C612.755 236.882 613.721 237.002 614.585 237.242C615.461 237.482 616.211 237.86 616.835 238.376C617.459 238.892 617.939 239.552 618.275 240.356C618.611 241.16 618.779 242.126 618.779 243.254ZM624.869 236.882C626.729 236.882 628.157 237.212 629.153 237.872C630.149 238.52 630.647 239.588 630.647 241.076C630.647 242.576 630.143 243.662 629.135 244.334C628.127 244.994 626.687 245.324 624.815 245.324H623.933V249.5H621.125V237.206C621.737 237.086 622.385 237.002 623.069 236.954C623.753 236.906 624.353 236.882 624.869 236.882ZM625.049 239.276C624.845 239.276 624.641 239.282 624.437 239.294C624.245 239.306 624.077 239.318 623.933 239.33V242.93H624.815C625.787 242.93 626.519 242.798 627.011 242.534C627.503 242.27 627.749 241.778 627.749 241.058C627.749 240.71 627.683 240.422 627.551 240.194C627.431 239.966 627.251 239.786 627.011 239.654C626.783 239.51 626.501 239.414 626.165 239.366C625.829 239.306 625.457 239.276 625.049 239.276ZM640.435 247.358C640.831 247.358 641.155 247.328 641.407 247.268C641.671 247.196 641.881 247.106 642.037 246.998C642.193 246.878 642.301 246.74 642.361 246.584C642.421 246.428 642.451 246.254 642.451 246.062C642.451 245.654 642.259 245.318 641.875 245.054C641.491 244.778 640.831 244.484 639.895 244.172C639.487 244.028 639.079 243.866 638.671 243.686C638.263 243.494 637.897 243.26 637.573 242.984C637.249 242.696 636.985 242.354 636.781 241.958C636.577 241.55 636.475 241.058 636.475 240.482C636.475 239.906 636.583 239.39 636.799 238.934C637.015 238.466 637.321 238.07 637.717 237.746C638.113 237.422 638.593 237.176 639.157 237.008C639.721 236.828 640.357 236.738 641.065 236.738C641.905 236.738 642.631 236.828 643.243 237.008C643.855 237.188 644.359 237.386 644.755 237.602L643.945 239.816C643.597 239.636 643.207 239.48 642.775 239.348C642.355 239.204 641.845 239.132 641.245 239.132C640.573 239.132 640.087 239.228 639.787 239.42C639.499 239.6 639.355 239.882 639.355 240.266C639.355 240.494 639.409 240.686 639.517 240.842C639.625 240.998 639.775 241.142 639.967 241.274C640.171 241.394 640.399 241.508 640.651 241.616C640.915 241.712 641.203 241.814 641.515 241.922C642.163 242.162 642.727 242.402 643.207 242.642C643.687 242.87 644.083 243.14 644.395 243.452C644.719 243.764 644.959 244.13 645.115 244.55C645.271 244.97 645.349 245.48 645.349 246.08C645.349 247.244 644.941 248.15 644.125 248.798C643.309 249.434 642.079 249.752 640.435 249.752C639.883 249.752 639.385 249.716 638.941 249.644C638.497 249.584 638.101 249.506 637.753 249.41C637.417 249.314 637.123 249.212 636.871 249.104C636.631 248.996 636.427 248.894 636.259 248.798L637.051 246.566C637.423 246.77 637.879 246.956 638.419 247.124C638.971 247.28 639.643 247.358 640.435 247.358ZM647.239 237.674L649.921 237.242V240.032H653.143V242.264H649.921V245.594C649.921 246.158 650.017 246.608 650.209 246.944C650.413 247.28 650.815 247.448 651.415 247.448C651.703 247.448 651.997 247.424 652.297 247.376C652.609 247.316 652.891 247.238 653.143 247.142L653.521 249.23C653.197 249.362 652.837 249.476 652.441 249.572C652.045 249.668 651.559 249.716 650.983 249.716C650.251 249.716 649.645 249.62 649.165 249.428C648.685 249.224 648.301 248.948 648.013 248.6C647.725 248.24 647.521 247.808 647.401 247.304C647.293 246.8 647.239 246.242 647.239 245.63V237.674ZM663.409 249.176C662.953 249.308 662.365 249.428 661.645 249.536C660.925 249.656 660.169 249.716 659.377 249.716C658.573 249.716 657.901 249.608 657.361 249.392C656.833 249.176 656.413 248.876 656.101 248.492C655.789 248.096 655.567 247.628 655.435 247.088C655.303 246.548 655.237 245.954 655.237 245.306V240.032H657.919V244.982C657.919 245.846 658.033 246.47 658.261 246.854C658.489 247.238 658.915 247.43 659.539 247.43C659.731 247.43 659.935 247.424 660.151 247.412C660.367 247.388 660.559 247.364 660.727 247.34V240.032H663.409V249.176ZM668.213 244.694C668.213 245.522 668.399 246.188 668.771 246.692C669.143 247.196 669.695 247.448 670.427 247.448C670.667 247.448 670.889 247.442 671.093 247.43C671.297 247.406 671.465 247.382 671.597 247.358V242.48C671.429 242.372 671.207 242.282 670.931 242.21C670.667 242.138 670.397 242.102 670.121 242.102C668.849 242.102 668.213 242.966 668.213 244.694ZM674.279 249.194C674.039 249.266 673.763 249.338 673.451 249.41C673.139 249.47 672.809 249.524 672.461 249.572C672.125 249.62 671.777 249.656 671.417 249.68C671.069 249.716 670.733 249.734 670.409 249.734C669.629 249.734 668.933 249.62 668.321 249.392C667.709 249.164 667.193 248.84 666.773 248.42C666.353 247.988 666.029 247.472 665.801 246.872C665.585 246.26 665.477 245.576 665.477 244.82C665.477 244.052 665.573 243.362 665.765 242.75C665.957 242.126 666.233 241.598 666.593 241.166C666.953 240.734 667.391 240.404 667.907 240.176C668.435 239.948 669.035 239.834 669.707 239.834C670.079 239.834 670.409 239.87 670.697 239.942C670.997 240.014 671.297 240.116 671.597 240.248V235.964L674.279 235.532V249.194ZM676.34 244.838C676.34 243.998 676.466 243.266 676.718 242.642C676.982 242.006 677.324 241.478 677.744 241.058C678.164 240.638 678.644 240.32 679.184 240.104C679.736 239.888 680.3 239.78 680.876 239.78C682.22 239.78 683.282 240.194 684.062 241.022C684.842 241.838 685.232 243.044 685.232 244.64C685.232 244.796 685.226 244.97 685.214 245.162C685.202 245.342 685.19 245.504 685.178 245.648H679.094C679.154 246.2 679.412 246.638 679.868 246.962C680.324 247.286 680.936 247.448 681.704 247.448C682.196 247.448 682.676 247.406 683.144 247.322C683.624 247.226 684.014 247.112 684.314 246.98L684.674 249.158C684.53 249.23 684.338 249.302 684.098 249.374C683.858 249.446 683.588 249.506 683.288 249.554C683 249.614 682.688 249.662 682.352 249.698C682.016 249.734 681.68 249.752 681.344 249.752C680.492 249.752 679.748 249.626 679.112 249.374C678.488 249.122 677.966 248.78 677.546 248.348C677.138 247.904 676.832 247.382 676.628 246.782C676.436 246.182 676.34 245.534 676.34 244.838ZM682.64 243.812C682.628 243.584 682.586 243.362 682.514 243.146C682.454 242.93 682.352 242.738 682.208 242.57C682.076 242.402 681.902 242.264 681.686 242.156C681.482 242.048 681.224 241.994 680.912 241.994C680.612 241.994 680.354 242.048 680.138 242.156C679.922 242.252 679.742 242.384 679.598 242.552C679.454 242.72 679.34 242.918 679.256 243.146C679.184 243.362 679.13 243.584 679.094 243.812H682.64ZM687.302 240.356C687.758 240.224 688.346 240.104 689.066 239.996C689.786 239.876 690.542 239.816 691.334 239.816C692.138 239.816 692.804 239.924 693.332 240.14C693.872 240.344 694.298 240.638 694.61 241.022C694.922 241.406 695.144 241.862 695.276 242.39C695.408 242.918 695.474 243.506 695.474 244.154V249.5H692.792V244.478C692.792 243.614 692.678 243.002 692.45 242.642C692.222 242.282 691.796 242.102 691.172 242.102C690.98 242.102 690.776 242.114 690.56 242.138C690.344 242.15 690.152 242.168 689.984 242.192V249.5H687.302V240.356ZM697.812 237.674L700.494 237.242V240.032H703.716V242.264H700.494V245.594C700.494 246.158 700.59 246.608 700.782 246.944C700.986 247.28 701.388 247.448 701.988 247.448C702.276 247.448 702.57 247.424 702.87 247.376C703.182 247.316 703.464 247.238 703.716 247.142L704.094 249.23C703.77 249.362 703.41 249.476 703.014 249.572C702.618 249.668 702.132 249.716 701.556 249.716C700.824 249.716 700.218 249.62 699.738 249.428C699.258 249.224 698.874 248.948 698.586 248.6C698.298 248.24 698.094 247.808 697.974 247.304C697.866 246.8 697.812 246.242 697.812 245.63V237.674ZM708.618 247.574C709.11 247.574 709.458 247.526 709.662 247.43C709.866 247.334 709.968 247.148 709.968 246.872C709.968 246.656 709.836 246.47 709.572 246.314C709.308 246.146 708.906 245.96 708.366 245.756C707.946 245.6 707.562 245.438 707.214 245.27C706.878 245.102 706.59 244.904 706.35 244.676C706.11 244.436 705.924 244.154 705.792 243.83C705.66 243.506 705.594 243.116 705.594 242.66C705.594 241.772 705.924 241.07 706.584 240.554C707.244 240.038 708.15 239.78 709.302 239.78C709.878 239.78 710.43 239.834 710.958 239.942C711.486 240.038 711.906 240.146 712.218 240.266L711.75 242.354C711.438 242.246 711.096 242.15 710.724 242.066C710.364 241.982 709.956 241.94 709.5 241.94C708.66 241.94 708.24 242.174 708.24 242.642C708.24 242.75 708.258 242.846 708.294 242.93C708.33 243.014 708.402 243.098 708.51 243.182C708.618 243.254 708.762 243.338 708.942 243.434C709.134 243.518 709.374 243.614 709.662 243.722C710.25 243.938 710.736 244.154 711.12 244.37C711.504 244.574 711.804 244.802 712.02 245.054C712.248 245.294 712.404 245.564 712.488 245.864C712.584 246.164 712.632 246.512 712.632 246.908C712.632 247.844 712.278 248.552 711.57 249.032C710.874 249.512 709.884 249.752 708.6 249.752C707.76 249.752 707.058 249.68 706.494 249.536C705.942 249.392 705.558 249.272 705.342 249.176L705.792 246.998C706.248 247.178 706.716 247.322 707.196 247.43C707.676 247.526 708.15 247.574 708.618 247.574Z" fill="black"/>
</g>
<g filter="url(#filter3_d_122_162)">
<rect x="411" y="335" width="150" height="150" rx="20" fill="white"/>
<path d="M462.767 368.596C463.103 369.212 463.486 369.977 463.915 370.892C464.363 371.788 464.82 372.768 465.287 373.832C465.772 374.877 466.248 375.951 466.715 377.052C467.182 378.153 467.62 379.189 468.031 380.16C468.442 379.189 468.88 378.153 469.347 377.052C469.814 375.951 470.28 374.877 470.747 373.832C471.232 372.768 471.69 371.788 472.119 370.892C472.567 369.977 472.959 369.212 473.295 368.596H477.271C477.458 369.884 477.626 371.331 477.775 372.936C477.943 374.523 478.083 376.184 478.195 377.92C478.326 379.637 478.438 381.364 478.531 383.1C478.643 384.836 478.736 386.469 478.811 388H474.555C474.499 386.115 474.424 384.061 474.331 381.84C474.238 379.619 474.098 377.379 473.911 375.12C473.575 375.904 473.202 376.772 472.791 377.724C472.38 378.676 471.97 379.628 471.559 380.58C471.167 381.532 470.784 382.447 470.411 383.324C470.038 384.183 469.72 384.92 469.459 385.536H466.407C466.146 384.92 465.828 384.183 465.455 383.324C465.082 382.447 464.69 381.532 464.279 380.58C463.887 379.628 463.486 378.676 463.075 377.724C462.664 376.772 462.291 375.904 461.955 375.12C461.768 377.379 461.628 379.619 461.535 381.84C461.442 384.061 461.367 386.115 461.311 388H457.055C457.13 386.469 457.214 384.836 457.307 383.1C457.419 381.364 457.531 379.637 457.643 377.92C457.774 376.184 457.914 374.523 458.063 372.936C458.231 371.331 458.408 369.884 458.595 368.596H462.767ZM489.446 376.576C490.23 375.251 490.976 373.925 491.686 372.6C492.395 371.275 493.048 369.94 493.646 368.596H498.462C497.398 370.687 496.296 372.712 495.158 374.672C494.019 376.632 492.815 378.601 491.546 380.58V388H487.178V380.636C485.908 378.657 484.695 376.679 483.538 374.7C482.399 372.721 481.298 370.687 480.234 368.596H485.302C485.899 369.94 486.543 371.275 487.234 372.6C487.924 373.925 488.662 375.251 489.446 376.576ZM506.669 368.372C509.563 368.372 511.784 368.885 513.333 369.912C514.883 370.92 515.657 372.581 515.657 374.896C515.657 377.229 514.873 378.919 513.305 379.964C511.737 380.991 509.497 381.504 506.585 381.504H505.213V388H500.845V368.876C501.797 368.689 502.805 368.559 503.869 368.484C504.933 368.409 505.867 368.372 506.669 368.372ZM506.949 372.096C506.632 372.096 506.315 372.105 505.997 372.124C505.699 372.143 505.437 372.161 505.213 372.18V377.78H506.585C508.097 377.78 509.236 377.575 510.001 377.164C510.767 376.753 511.149 375.988 511.149 374.868C511.149 374.327 511.047 373.879 510.841 373.524C510.655 373.169 510.375 372.889 510.001 372.684C509.647 372.46 509.208 372.311 508.685 372.236C508.163 372.143 507.584 372.096 506.949 372.096ZM435.375 410.284C435.375 411.236 435.487 412.095 435.711 412.86C435.953 413.625 436.289 414.288 436.719 414.848C437.167 415.389 437.708 415.809 438.343 416.108C438.977 416.407 439.705 416.556 440.527 416.556C441.329 416.556 442.048 416.407 442.683 416.108C443.336 415.809 443.877 415.389 444.307 414.848C444.755 414.288 445.091 413.625 445.315 412.86C445.557 412.095 445.679 411.236 445.679 410.284C445.679 409.332 445.557 408.473 445.315 407.708C445.091 406.924 444.755 406.261 444.307 405.72C443.877 405.16 443.336 404.731 442.683 404.432C442.048 404.133 441.329 403.984 440.527 403.984C439.705 403.984 438.977 404.143 438.343 404.46C437.708 404.759 437.167 405.188 436.719 405.748C436.289 406.289 435.953 406.952 435.711 407.736C435.487 408.501 435.375 409.351 435.375 410.284ZM450.187 410.284C450.187 411.945 449.935 413.411 449.431 414.68C448.945 415.931 448.273 416.985 447.415 417.844C446.556 418.684 445.529 419.319 444.335 419.748C443.159 420.177 441.889 420.392 440.527 420.392C439.201 420.392 437.951 420.177 436.775 419.748C435.599 419.319 434.572 418.684 433.695 417.844C432.817 416.985 432.127 415.931 431.623 414.68C431.119 413.411 430.867 411.945 430.867 410.284C430.867 408.623 431.128 407.167 431.651 405.916C432.173 404.647 432.873 403.583 433.751 402.724C434.647 401.865 435.673 401.221 436.831 400.792C438.007 400.363 439.239 400.148 440.527 400.148C441.852 400.148 443.103 400.363 444.279 400.792C445.455 401.221 446.481 401.865 447.359 402.724C448.236 403.583 448.927 404.647 449.431 405.916C449.935 407.167 450.187 408.623 450.187 410.284ZM462.984 412.748C462.984 411.46 462.695 410.433 462.116 409.668C461.537 408.884 460.679 408.492 459.54 408.492C459.167 408.492 458.821 408.511 458.504 408.548C458.187 408.567 457.925 408.595 457.72 408.632V416.164C457.981 416.332 458.317 416.472 458.728 416.584C459.157 416.696 459.587 416.752 460.016 416.752C461.995 416.752 462.984 415.417 462.984 412.748ZM467.24 412.636C467.24 413.775 467.1 414.811 466.82 415.744C466.54 416.677 466.129 417.48 465.588 418.152C465.047 418.824 464.375 419.347 463.572 419.72C462.769 420.093 461.845 420.28 460.8 420.28C460.221 420.28 459.68 420.224 459.176 420.112C458.672 420 458.187 419.841 457.72 419.636V425.18H453.548V405.776C453.921 405.664 454.351 405.561 454.836 405.468C455.321 405.356 455.825 405.263 456.348 405.188C456.889 405.113 457.431 405.057 457.972 405.02C458.532 404.964 459.064 404.936 459.568 404.936C460.781 404.936 461.864 405.123 462.816 405.496C463.768 405.851 464.571 406.364 465.224 407.036C465.877 407.689 466.372 408.492 466.708 409.444C467.063 410.396 467.24 411.46 467.24 412.636ZM469.746 412.748C469.746 411.441 469.942 410.303 470.334 409.332C470.745 408.343 471.277 407.521 471.93 406.868C472.584 406.215 473.33 405.72 474.17 405.384C475.029 405.048 475.906 404.88 476.802 404.88C478.893 404.88 480.545 405.524 481.758 406.812C482.972 408.081 483.578 409.957 483.578 412.44C483.578 412.683 483.569 412.953 483.55 413.252C483.532 413.532 483.513 413.784 483.494 414.008H474.03C474.124 414.867 474.525 415.548 475.234 416.052C475.944 416.556 476.896 416.808 478.09 416.808C478.856 416.808 479.602 416.743 480.33 416.612C481.077 416.463 481.684 416.285 482.15 416.08L482.71 419.468C482.486 419.58 482.188 419.692 481.814 419.804C481.441 419.916 481.021 420.009 480.554 420.084C480.106 420.177 479.621 420.252 479.098 420.308C478.576 420.364 478.053 420.392 477.53 420.392C476.205 420.392 475.048 420.196 474.058 419.804C473.088 419.412 472.276 418.88 471.622 418.208C470.988 417.517 470.512 416.705 470.194 415.772C469.896 414.839 469.746 413.831 469.746 412.748ZM479.546 411.152C479.528 410.797 479.462 410.452 479.35 410.116C479.257 409.78 479.098 409.481 478.874 409.22C478.669 408.959 478.398 408.744 478.062 408.576C477.745 408.408 477.344 408.324 476.858 408.324C476.392 408.324 475.99 408.408 475.654 408.576C475.318 408.725 475.038 408.931 474.814 409.192C474.59 409.453 474.413 409.761 474.282 410.116C474.17 410.452 474.086 410.797 474.03 411.152H479.546ZM486.798 405.776C487.507 405.571 488.422 405.384 489.542 405.216C490.662 405.029 491.838 404.936 493.07 404.936C494.321 404.936 495.357 405.104 496.178 405.44C497.018 405.757 497.681 406.215 498.166 406.812C498.651 407.409 498.997 408.119 499.202 408.94C499.407 409.761 499.51 410.676 499.51 411.684V420H495.338V412.188C495.338 410.844 495.161 409.892 494.806 409.332C494.451 408.772 493.789 408.492 492.818 408.492C492.519 408.492 492.202 408.511 491.866 408.548C491.53 408.567 491.231 408.595 490.97 408.632V420H486.798V405.776ZM507.458 420H503.286V405.272H507.458V420ZM507.85 401.016C507.85 401.781 507.598 402.388 507.094 402.836C506.609 403.265 506.03 403.48 505.358 403.48C504.686 403.48 504.098 403.265 503.594 402.836C503.109 402.388 502.866 401.781 502.866 401.016C502.866 400.251 503.109 399.653 503.594 399.224C504.098 398.776 504.686 398.552 505.358 398.552C506.03 398.552 506.609 398.776 507.094 399.224C507.598 399.653 507.85 400.251 507.85 401.016ZM511.38 405.776C512.089 405.571 513.004 405.384 514.124 405.216C515.244 405.029 516.42 404.936 517.652 404.936C518.903 404.936 519.939 405.104 520.76 405.44C521.6 405.757 522.263 406.215 522.748 406.812C523.233 407.409 523.579 408.119 523.784 408.94C523.989 409.761 524.092 410.676 524.092 411.684V420H519.92V412.188C519.92 410.844 519.743 409.892 519.388 409.332C519.033 408.772 518.371 408.492 517.4 408.492C517.101 408.492 516.784 408.511 516.448 408.548C516.112 408.567 515.813 408.595 515.552 408.632V420H511.38V405.776ZM531.424 412.16C531.424 414.493 532.367 415.66 534.252 415.66C534.682 415.66 535.083 415.604 535.456 415.492C535.83 415.38 536.147 415.249 536.408 415.1V408.436C536.203 408.399 535.96 408.371 535.68 408.352C535.4 408.315 535.074 408.296 534.7 408.296C533.599 408.296 532.778 408.66 532.236 409.388C531.695 410.116 531.424 411.04 531.424 412.16ZM540.58 418.152C540.58 420.56 539.964 422.343 538.732 423.5C537.519 424.676 535.634 425.264 533.076 425.264C532.18 425.264 531.284 425.18 530.388 425.012C529.492 424.863 528.662 424.657 527.896 424.396L528.624 420.896C529.278 421.157 529.959 421.363 530.668 421.512C531.396 421.661 532.218 421.736 533.132 421.736C534.327 421.736 535.167 421.475 535.652 420.952C536.156 420.429 536.408 419.757 536.408 418.936V418.404C535.96 418.609 535.494 418.768 535.008 418.88C534.542 418.973 534.028 419.02 533.468 419.02C531.434 419.02 529.875 418.423 528.792 417.228C527.71 416.015 527.168 414.325 527.168 412.16C527.168 411.077 527.336 410.097 527.672 409.22C528.008 408.324 528.494 407.559 529.128 406.924C529.782 406.289 530.575 405.804 531.508 405.468C532.442 405.113 533.496 404.936 534.672 404.936C535.176 404.936 535.69 404.964 536.212 405.02C536.754 405.057 537.286 405.113 537.808 405.188C538.331 405.263 538.826 405.356 539.292 405.468C539.778 405.561 540.207 405.664 540.58 405.776V418.152ZM435.321 452C434.07 449.779 432.717 447.585 431.261 445.42C429.805 443.255 428.255 441.211 426.613 439.288V452H422.301V432.596H425.857C426.473 433.212 427.154 433.968 427.901 434.864C428.647 435.76 429.403 436.721 430.169 437.748C430.953 438.756 431.727 439.811 432.493 440.912C433.258 441.995 433.977 443.04 434.649 444.048V432.596H438.989V452H435.321ZM442.485 444.748C442.485 443.441 442.681 442.303 443.073 441.332C443.483 440.343 444.015 439.521 444.669 438.868C445.322 438.215 446.069 437.72 446.909 437.384C447.767 437.048 448.645 436.88 449.541 436.88C451.631 436.88 453.283 437.524 454.497 438.812C455.71 440.081 456.317 441.957 456.317 444.44C456.317 444.683 456.307 444.953 456.289 445.252C456.27 445.532 456.251 445.784 456.233 446.008H446.769C446.862 446.867 447.263 447.548 447.973 448.052C448.682 448.556 449.634 448.808 450.829 448.808C451.594 448.808 452.341 448.743 453.069 448.612C453.815 448.463 454.422 448.285 454.889 448.08L455.449 451.468C455.225 451.58 454.926 451.692 454.553 451.804C454.179 451.916 453.759 452.009 453.293 452.084C452.845 452.177 452.359 452.252 451.837 452.308C451.314 452.364 450.791 452.392 450.269 452.392C448.943 452.392 447.786 452.196 446.797 451.804C445.826 451.412 445.014 450.88 444.361 450.208C443.726 449.517 443.25 448.705 442.933 447.772C442.634 446.839 442.485 445.831 442.485 444.748ZM452.285 443.152C452.266 442.797 452.201 442.452 452.089 442.116C451.995 441.78 451.837 441.481 451.613 441.22C451.407 440.959 451.137 440.744 450.801 440.576C450.483 440.408 450.082 440.324 449.597 440.324C449.13 440.324 448.729 440.408 448.393 440.576C448.057 440.725 447.777 440.931 447.553 441.192C447.329 441.453 447.151 441.761 447.021 442.116C446.909 442.452 446.825 442.797 446.769 443.152H452.285ZM465.388 441.752L468.3 437.272H472.612L467.572 444.356C468.692 445.756 469.71 447.119 470.624 448.444C471.539 449.769 472.267 450.955 472.808 452H468.328C468.179 451.72 467.992 451.375 467.768 450.964C467.544 450.535 467.292 450.096 467.012 449.648C466.732 449.181 466.434 448.724 466.116 448.276C465.818 447.809 465.519 447.389 465.22 447.016C464.94 447.371 464.651 447.763 464.352 448.192C464.072 448.621 463.802 449.06 463.54 449.508C463.279 449.937 463.018 450.367 462.756 450.796C462.514 451.225 462.299 451.627 462.112 452H457.856C458.08 451.533 458.388 450.983 458.78 450.348C459.172 449.713 459.592 449.06 460.04 448.388C460.507 447.697 460.992 447.016 461.496 446.344C462 445.653 462.495 445.009 462.98 444.412C462.14 443.236 461.3 442.051 460.46 440.856C459.62 439.643 458.79 438.448 457.968 437.272H462.476L465.388 441.752ZM474.9 433.604L479.072 432.932V437.272H484.084V440.744H479.072V445.924C479.072 446.801 479.221 447.501 479.52 448.024C479.837 448.547 480.463 448.808 481.396 448.808C481.844 448.808 482.301 448.771 482.768 448.696C483.253 448.603 483.692 448.481 484.084 448.332L484.672 451.58C484.168 451.785 483.608 451.963 482.992 452.112C482.376 452.261 481.62 452.336 480.724 452.336C479.585 452.336 478.643 452.187 477.896 451.888C477.149 451.571 476.552 451.141 476.104 450.6C475.656 450.04 475.339 449.368 475.152 448.584C474.984 447.8 474.9 446.932 474.9 445.98V433.604ZM501.6 440.576C502.384 439.251 503.131 437.925 503.84 436.6C504.549 435.275 505.203 433.94 505.8 432.596H510.616C509.552 434.687 508.451 436.712 507.312 438.672C506.173 440.632 504.969 442.601 503.7 444.58V452H499.332V444.636C498.063 442.657 496.849 440.679 495.692 438.7C494.553 436.721 493.452 434.687 492.388 432.596H497.456C498.053 433.94 498.697 435.275 499.388 436.6C500.079 437.925 500.816 439.251 501.6 440.576ZM509.559 444.748C509.559 443.441 509.755 442.303 510.147 441.332C510.557 440.343 511.089 439.521 511.743 438.868C512.396 438.215 513.143 437.72 513.983 437.384C514.841 437.048 515.719 436.88 516.615 436.88C518.705 436.88 520.357 437.524 521.571 438.812C522.784 440.081 523.391 441.957 523.391 444.44C523.391 444.683 523.381 444.953 523.363 445.252C523.344 445.532 523.325 445.784 523.307 446.008H513.843C513.936 446.867 514.337 447.548 515.047 448.052C515.756 448.556 516.708 448.808 517.903 448.808C518.668 448.808 519.415 448.743 520.143 448.612C520.889 448.463 521.496 448.285 521.963 448.08L522.523 451.468C522.299 451.58 522 451.692 521.627 451.804C521.253 451.916 520.833 452.009 520.367 452.084C519.919 452.177 519.433 452.252 518.911 452.308C518.388 452.364 517.865 452.392 517.343 452.392C516.017 452.392 514.86 452.196 513.871 451.804C512.9 451.412 512.088 450.88 511.435 450.208C510.8 449.517 510.324 448.705 510.007 447.772C509.708 446.839 509.559 445.831 509.559 444.748ZM519.359 443.152C519.34 442.797 519.275 442.452 519.163 442.116C519.069 441.78 518.911 441.481 518.687 441.22C518.481 440.959 518.211 440.744 517.875 440.576C517.557 440.408 517.156 440.324 516.671 440.324C516.204 440.324 515.803 440.408 515.467 440.576C515.131 440.725 514.851 440.931 514.627 441.192C514.403 441.453 514.225 441.761 514.095 442.116C513.983 442.452 513.899 442.797 513.843 443.152H519.359ZM532.238 449.088C532.649 449.088 533.041 449.079 533.414 449.06C533.788 449.041 534.086 449.013 534.31 448.976V445.812C534.142 445.775 533.89 445.737 533.554 445.7C533.218 445.663 532.91 445.644 532.63 445.644C532.238 445.644 531.865 445.672 531.51 445.728C531.174 445.765 530.876 445.849 530.614 445.98C530.353 446.111 530.148 446.288 529.998 446.512C529.849 446.736 529.774 447.016 529.774 447.352C529.774 448.005 529.989 448.463 530.418 448.724C530.866 448.967 531.473 449.088 532.238 449.088ZM531.902 436.88C533.134 436.88 534.161 437.02 534.982 437.3C535.804 437.58 536.457 437.981 536.942 438.504C537.446 439.027 537.801 439.661 538.006 440.408C538.212 441.155 538.314 441.985 538.314 442.9V451.58C537.717 451.711 536.886 451.86 535.822 452.028C534.758 452.215 533.47 452.308 531.958 452.308C531.006 452.308 530.138 452.224 529.354 452.056C528.589 451.888 527.926 451.617 527.366 451.244C526.806 450.852 526.377 450.348 526.078 449.732C525.78 449.116 525.63 448.36 525.63 447.464C525.63 446.605 525.798 445.877 526.134 445.28C526.489 444.683 526.956 444.207 527.534 443.852C528.113 443.497 528.776 443.245 529.522 443.096C530.269 442.928 531.044 442.844 531.846 442.844C532.388 442.844 532.864 442.872 533.274 442.928C533.704 442.965 534.049 443.021 534.31 443.096V442.704C534.31 441.995 534.096 441.425 533.666 440.996C533.237 440.567 532.49 440.352 531.426 440.352C530.717 440.352 530.017 440.408 529.326 440.52C528.636 440.613 528.038 440.753 527.534 440.94L527.002 437.58C527.245 437.505 527.544 437.431 527.898 437.356C528.272 437.263 528.673 437.188 529.102 437.132C529.532 437.057 529.98 437.001 530.446 436.964C530.932 436.908 531.417 436.88 531.902 436.88ZM550.963 440.968C550.59 440.875 550.151 440.781 549.647 440.688C549.143 440.576 548.602 440.52 548.023 440.52C547.762 440.52 547.444 440.548 547.071 440.604C546.716 440.641 546.446 440.688 546.259 440.744V452H542.087V438.056C542.834 437.795 543.711 437.552 544.719 437.328C545.746 437.085 546.884 436.964 548.135 436.964C548.359 436.964 548.63 436.983 548.947 437.02C549.264 437.039 549.582 437.076 549.899 437.132C550.216 437.169 550.534 437.225 550.851 437.3C551.168 437.356 551.439 437.431 551.663 437.524L550.963 440.968Z" fill="url(#paint3_linear_122_162)"/>
</g>
<g filter="url(#filter4_d_122_162)">
<rect x="321" y="557" width="140" height="140" rx="20" fill="white"/>
<path d="M346.548 601.596C346.884 602.212 347.267 602.977 347.696 603.892C348.144 604.788 348.602 605.768 349.068 606.832C349.554 607.877 350.03 608.951 350.496 610.052C350.963 611.153 351.402 612.189 351.812 613.16C352.223 612.189 352.662 611.153 353.128 610.052C353.595 608.951 354.062 607.877 354.528 606.832C355.014 605.768 355.471 604.788 355.9 603.892C356.348 602.977 356.74 602.212 357.076 601.596H361.052C361.239 602.884 361.407 604.331 361.556 605.936C361.724 607.523 361.864 609.184 361.976 610.92C362.107 612.637 362.219 614.364 362.312 616.1C362.424 617.836 362.518 619.469 362.592 621H358.336C358.28 619.115 358.206 617.061 358.112 614.84C358.019 612.619 357.879 610.379 357.692 608.12C357.356 608.904 356.983 609.772 356.572 610.724C356.162 611.676 355.751 612.628 355.34 613.58C354.948 614.532 354.566 615.447 354.192 616.324C353.819 617.183 353.502 617.92 353.24 618.536H350.188C349.927 617.92 349.61 617.183 349.236 616.324C348.863 615.447 348.471 614.532 348.06 613.58C347.668 612.628 347.267 611.676 346.856 610.724C346.446 609.772 346.072 608.904 345.736 608.12C345.55 610.379 345.41 612.619 345.316 614.84C345.223 617.061 345.148 619.115 345.092 621H340.836C340.911 619.469 340.995 617.836 341.088 616.1C341.2 614.364 341.312 612.637 341.424 610.92C341.555 609.184 341.695 607.523 341.844 605.936C342.012 604.331 342.19 602.884 342.376 601.596H346.548ZM380.021 613.608C380.021 614.765 379.853 615.829 379.517 616.8C379.181 617.752 378.696 618.573 378.061 619.264C377.426 619.936 376.661 620.459 375.765 620.832C374.888 621.205 373.898 621.392 372.797 621.392C371.714 621.392 370.725 621.205 369.829 620.832C368.952 620.459 368.196 619.936 367.561 619.264C366.926 618.573 366.432 617.752 366.077 616.8C365.722 615.829 365.545 614.765 365.545 613.608C365.545 612.451 365.722 611.396 366.077 610.444C366.45 609.492 366.954 608.68 367.589 608.008C368.242 607.336 369.008 606.813 369.885 606.44C370.781 606.067 371.752 605.88 372.797 605.88C373.861 605.88 374.832 606.067 375.709 606.44C376.605 606.813 377.37 607.336 378.005 608.008C378.64 608.68 379.134 609.492 379.489 610.444C379.844 611.396 380.021 612.451 380.021 613.608ZM375.765 613.608C375.765 612.32 375.504 611.312 374.981 610.584C374.477 609.837 373.749 609.464 372.797 609.464C371.845 609.464 371.108 609.837 370.585 610.584C370.062 611.312 369.801 612.32 369.801 613.608C369.801 614.896 370.062 615.923 370.585 616.688C371.108 617.435 371.845 617.808 372.797 617.808C373.749 617.808 374.477 617.435 374.981 616.688C375.504 615.923 375.765 614.896 375.765 613.608ZM386.809 613.524C386.809 614.812 387.098 615.848 387.677 616.632C388.256 617.416 389.114 617.808 390.253 617.808C390.626 617.808 390.972 617.799 391.289 617.78C391.606 617.743 391.868 617.705 392.073 617.668V610.08C391.812 609.912 391.466 609.772 391.037 609.66C390.626 609.548 390.206 609.492 389.777 609.492C387.798 609.492 386.809 610.836 386.809 613.524ZM396.245 620.524C395.872 620.636 395.442 620.748 394.957 620.86C394.472 620.953 393.958 621.037 393.417 621.112C392.894 621.187 392.353 621.243 391.793 621.28C391.252 621.336 390.729 621.364 390.225 621.364C389.012 621.364 387.929 621.187 386.977 620.832C386.025 620.477 385.222 619.973 384.569 619.32C383.916 618.648 383.412 617.845 383.057 616.912C382.721 615.96 382.553 614.896 382.553 613.72C382.553 612.525 382.702 611.452 383.001 610.5C383.3 609.529 383.729 608.708 384.289 608.036C384.849 607.364 385.53 606.851 386.333 606.496C387.154 606.141 388.088 605.964 389.133 605.964C389.712 605.964 390.225 606.02 390.673 606.132C391.14 606.244 391.606 606.403 392.073 606.608V599.944L396.245 599.272V620.524ZM399.451 613.748C399.451 612.441 399.647 611.303 400.039 610.332C400.45 609.343 400.982 608.521 401.635 607.868C402.289 607.215 403.035 606.72 403.875 606.384C404.734 606.048 405.611 605.88 406.507 605.88C408.598 605.88 410.25 606.524 411.463 607.812C412.677 609.081 413.283 610.957 413.283 613.44C413.283 613.683 413.274 613.953 413.255 614.252C413.237 614.532 413.218 614.784 413.199 615.008H403.735C403.829 615.867 404.23 616.548 404.939 617.052C405.649 617.556 406.601 617.808 407.795 617.808C408.561 617.808 409.307 617.743 410.035 617.612C410.782 617.463 411.389 617.285 411.855 617.08L412.415 620.468C412.191 620.58 411.893 620.692 411.519 620.804C411.146 620.916 410.726 621.009 410.259 621.084C409.811 621.177 409.326 621.252 408.803 621.308C408.281 621.364 407.758 621.392 407.235 621.392C405.91 621.392 404.753 621.196 403.763 620.804C402.793 620.412 401.981 619.88 401.327 619.208C400.693 618.517 400.217 617.705 399.899 616.772C399.601 615.839 399.451 614.831 399.451 613.748ZM409.251 612.152C409.233 611.797 409.167 611.452 409.055 611.116C408.962 610.78 408.803 610.481 408.579 610.22C408.374 609.959 408.103 609.744 407.767 609.576C407.45 609.408 407.049 609.324 406.563 609.324C406.097 609.324 405.695 609.408 405.359 609.576C405.023 609.725 404.743 609.931 404.519 610.192C404.295 610.453 404.118 610.761 403.987 611.116C403.875 611.452 403.791 611.797 403.735 612.152H409.251ZM425.379 609.968C425.006 609.875 424.567 609.781 424.063 609.688C423.559 609.576 423.018 609.52 422.439 609.52C422.178 609.52 421.86 609.548 421.487 609.604C421.132 609.641 420.862 609.688 420.675 609.744V621H416.503V607.056C417.25 606.795 418.127 606.552 419.135 606.328C420.162 606.085 421.3 605.964 422.551 605.964C422.775 605.964 423.046 605.983 423.363 606.02C423.68 606.039 423.998 606.076 424.315 606.132C424.632 606.169 424.95 606.225 425.267 606.3C425.584 606.356 425.855 606.431 426.079 606.524L425.379 609.968ZM428.315 606.776C429.025 606.571 429.939 606.384 431.059 606.216C432.179 606.029 433.355 605.936 434.587 605.936C435.838 605.936 436.874 606.104 437.695 606.44C438.535 606.757 439.198 607.215 439.683 607.812C440.169 608.409 440.514 609.119 440.719 609.94C440.925 610.761 441.027 611.676 441.027 612.684V621H436.855V613.188C436.855 611.844 436.678 610.892 436.323 610.332C435.969 609.772 435.306 609.492 434.335 609.492C434.037 609.492 433.719 609.511 433.383 609.548C433.047 609.567 432.749 609.595 432.487 609.632V621H428.315V606.776ZM333.043 653V633.596H346.035V637.264H337.411V641.324H345.083V644.992H337.411V653H333.043ZM353.785 650.088C354.196 650.088 354.588 650.079 354.961 650.06C355.335 650.041 355.633 650.013 355.857 649.976V646.812C355.689 646.775 355.437 646.737 355.101 646.7C354.765 646.663 354.457 646.644 354.177 646.644C353.785 646.644 353.412 646.672 353.057 646.728C352.721 646.765 352.423 646.849 352.161 646.98C351.9 647.111 351.695 647.288 351.545 647.512C351.396 647.736 351.321 648.016 351.321 648.352C351.321 649.005 351.536 649.463 351.965 649.724C352.413 649.967 353.02 650.088 353.785 650.088ZM353.449 637.88C354.681 637.88 355.708 638.02 356.529 638.3C357.351 638.58 358.004 638.981 358.489 639.504C358.993 640.027 359.348 640.661 359.553 641.408C359.759 642.155 359.861 642.985 359.861 643.9V652.58C359.264 652.711 358.433 652.86 357.369 653.028C356.305 653.215 355.017 653.308 353.505 653.308C352.553 653.308 351.685 653.224 350.901 653.056C350.136 652.888 349.473 652.617 348.913 652.244C348.353 651.852 347.924 651.348 347.625 650.732C347.327 650.116 347.177 649.36 347.177 648.464C347.177 647.605 347.345 646.877 347.681 646.28C348.036 645.683 348.503 645.207 349.081 644.852C349.66 644.497 350.323 644.245 351.069 644.096C351.816 643.928 352.591 643.844 353.393 643.844C353.935 643.844 354.411 643.872 354.821 643.928C355.251 643.965 355.596 644.021 355.857 644.096V643.704C355.857 642.995 355.643 642.425 355.213 641.996C354.784 641.567 354.037 641.352 352.973 641.352C352.264 641.352 351.564 641.408 350.873 641.52C350.183 641.613 349.585 641.753 349.081 641.94L348.549 638.58C348.792 638.505 349.091 638.431 349.445 638.356C349.819 638.263 350.22 638.188 350.649 638.132C351.079 638.057 351.527 638.001 351.993 637.964C352.479 637.908 352.964 637.88 353.449 637.88ZM362.934 645.636C362.934 644.572 363.102 643.573 363.438 642.64C363.792 641.688 364.296 640.867 364.95 640.176C365.603 639.467 366.396 638.907 367.33 638.496C368.263 638.085 369.327 637.88 370.522 637.88C371.306 637.88 372.024 637.955 372.678 638.104C373.331 638.235 373.966 638.431 374.582 638.692L373.714 642.024C373.322 641.875 372.892 641.744 372.426 641.632C371.959 641.52 371.436 641.464 370.858 641.464C369.626 641.464 368.702 641.847 368.086 642.612C367.488 643.377 367.19 644.385 367.19 645.636C367.19 646.961 367.47 647.988 368.03 648.716C368.608 649.444 369.607 649.808 371.026 649.808C371.53 649.808 372.071 649.761 372.65 649.668C373.228 649.575 373.76 649.425 374.246 649.22L374.834 652.636C374.348 652.841 373.742 653.019 373.014 653.168C372.286 653.317 371.483 653.392 370.606 653.392C369.262 653.392 368.104 653.196 367.134 652.804C366.163 652.393 365.36 651.843 364.726 651.152C364.11 650.461 363.652 649.649 363.354 648.716C363.074 647.764 362.934 646.737 362.934 645.636ZM381.806 653H377.634V638.272H381.806V653ZM382.198 634.016C382.198 634.781 381.946 635.388 381.442 635.836C380.956 636.265 380.378 636.48 379.706 636.48C379.034 636.48 378.446 636.265 377.942 635.836C377.456 635.388 377.214 634.781 377.214 634.016C377.214 633.251 377.456 632.653 377.942 632.224C378.446 631.776 379.034 631.552 379.706 631.552C380.378 631.552 380.956 631.776 381.442 632.224C381.946 632.653 382.198 633.251 382.198 634.016ZM391.608 653.28C390.394 653.261 389.405 653.131 388.64 652.888C387.893 652.645 387.296 652.309 386.848 651.88C386.418 651.432 386.12 650.9 385.952 650.284C385.802 649.649 385.728 648.94 385.728 648.156V631.944L389.9 631.272V647.316C389.9 647.689 389.928 648.025 389.984 648.324C390.04 648.623 390.142 648.875 390.292 649.08C390.46 649.285 390.693 649.453 390.992 649.584C391.29 649.715 391.692 649.799 392.196 649.836L391.608 653.28ZM398.759 653H394.587V638.272H398.759V653ZM399.151 634.016C399.151 634.781 398.899 635.388 398.395 635.836C397.91 636.265 397.331 636.48 396.659 636.48C395.987 636.48 395.399 636.265 394.895 635.836C394.41 635.388 394.167 634.781 394.167 634.016C394.167 633.251 394.41 632.653 394.895 632.224C395.399 631.776 395.987 631.552 396.659 631.552C397.331 631.552 397.91 631.776 398.395 632.224C398.899 632.653 399.151 633.251 399.151 634.016ZM402.541 634.604L406.713 633.932V638.272H411.725V641.744H406.713V646.924C406.713 647.801 406.862 648.501 407.161 649.024C407.478 649.547 408.103 649.808 409.037 649.808C409.485 649.808 409.942 649.771 410.409 649.696C410.894 649.603 411.333 649.481 411.725 649.332L412.313 652.58C411.809 652.785 411.249 652.963 410.633 653.112C410.017 653.261 409.261 653.336 408.365 653.336C407.226 653.336 406.283 653.187 405.537 652.888C404.79 652.571 404.193 652.141 403.745 651.6C403.297 651.04 402.979 650.368 402.793 649.584C402.625 648.8 402.541 647.932 402.541 646.98V634.604ZM419.294 653H415.122V638.272H419.294V653ZM419.686 634.016C419.686 634.781 419.434 635.388 418.93 635.836C418.445 636.265 417.866 636.48 417.194 636.48C416.522 636.48 415.934 636.265 415.43 635.836C414.945 635.388 414.702 634.781 414.702 634.016C414.702 633.251 414.945 632.653 415.43 632.224C415.934 631.776 416.522 631.552 417.194 631.552C417.866 631.552 418.445 631.776 418.93 632.224C419.434 632.653 419.686 633.251 419.686 634.016ZM422.516 645.748C422.516 644.441 422.712 643.303 423.104 642.332C423.515 641.343 424.047 640.521 424.7 639.868C425.353 639.215 426.1 638.72 426.94 638.384C427.799 638.048 428.676 637.88 429.572 637.88C431.663 637.88 433.315 638.524 434.528 639.812C435.741 641.081 436.348 642.957 436.348 645.44C436.348 645.683 436.339 645.953 436.32 646.252C436.301 646.532 436.283 646.784 436.264 647.008H426.8C426.893 647.867 427.295 648.548 428.004 649.052C428.713 649.556 429.665 649.808 430.86 649.808C431.625 649.808 432.372 649.743 433.1 649.612C433.847 649.463 434.453 649.285 434.92 649.08L435.48 652.468C435.256 652.58 434.957 652.692 434.584 652.804C434.211 652.916 433.791 653.009 433.324 653.084C432.876 653.177 432.391 653.252 431.868 653.308C431.345 653.364 430.823 653.392 430.3 653.392C428.975 653.392 427.817 653.196 426.828 652.804C425.857 652.412 425.045 651.88 424.392 651.208C423.757 650.517 423.281 649.705 422.964 648.772C422.665 647.839 422.516 646.831 422.516 645.748ZM432.316 644.152C432.297 643.797 432.232 643.452 432.12 643.116C432.027 642.78 431.868 642.481 431.644 642.22C431.439 641.959 431.168 641.744 430.832 641.576C430.515 641.408 430.113 641.324 429.628 641.324C429.161 641.324 428.76 641.408 428.424 641.576C428.088 641.725 427.808 641.931 427.584 642.192C427.36 642.453 427.183 642.761 427.052 643.116C426.94 643.452 426.856 643.797 426.8 644.152H432.316ZM443.795 650.004C444.561 650.004 445.102 649.929 445.419 649.78C445.737 649.631 445.895 649.341 445.895 648.912C445.895 648.576 445.69 648.287 445.279 648.044C444.869 647.783 444.243 647.493 443.403 647.176C442.75 646.933 442.153 646.681 441.611 646.42C441.089 646.159 440.641 645.851 440.267 645.496C439.894 645.123 439.605 644.684 439.399 644.18C439.194 643.676 439.091 643.069 439.091 642.36C439.091 640.979 439.605 639.887 440.631 639.084C441.658 638.281 443.067 637.88 444.859 637.88C445.755 637.88 446.614 637.964 447.435 638.132C448.257 638.281 448.91 638.449 449.395 638.636L448.667 641.884C448.182 641.716 447.65 641.567 447.071 641.436C446.511 641.305 445.877 641.24 445.167 641.24C443.861 641.24 443.207 641.604 443.207 642.332C443.207 642.5 443.235 642.649 443.291 642.78C443.347 642.911 443.459 643.041 443.627 643.172C443.795 643.284 444.019 643.415 444.299 643.564C444.598 643.695 444.971 643.844 445.419 644.012C446.334 644.348 447.09 644.684 447.687 645.02C448.285 645.337 448.751 645.692 449.087 646.084C449.442 646.457 449.685 646.877 449.815 647.344C449.965 647.811 450.039 648.352 450.039 648.968C450.039 650.424 449.489 651.525 448.387 652.272C447.305 653.019 445.765 653.392 443.767 653.392C442.461 653.392 441.369 653.28 440.491 653.056C439.633 652.832 439.035 652.645 438.699 652.496L439.399 649.108C440.109 649.388 440.837 649.612 441.583 649.78C442.33 649.929 443.067 650.004 443.795 650.004Z" fill="url(#paint4_linear_122_162)"/>
</g>
<defs>
<filter id="filter0_d_122_162" x="18" y="301" width="260" height="260" filterUnits="userSpaceOnUse" color-interpolation-filters="sRGB">
<feFlood flood-opacity="0" result="BackgroundImageFix"/>
<feColorMatrix in="SourceAlpha" type="matrix" values="0 0 0 0 0 0 0 0 0 0 0 0 0 0 0 0 0 0 127 0" result="hardAlpha"/>
<feOffset/>
<feGaussianBlur stdDeviation="10"/>
<feComposite in2="hardAlpha" operator="out"/>
<feColorMatrix type="matrix" values="0 0 0 0 0 0 0 0 0 0 0 0 0 0 0 0 0 0 0.3 0"/>
<feBlend mode="normal" in2="BackgroundImageFix" result="effect1_dropShadow_122_162"/>
<feBlend mode="normal" in="SourceGraphic" in2="effect1_dropShadow_122_162" result="shape"/>
</filter>
<filter id="filter1_d_122_162" x="211" y="63" width="220" height="220" filterUnits="userSpaceOnUse" color-interpolation-filters="sRGB">
<feFlood flood-opacity="0" result="BackgroundImageFix"/>
<feColorMatrix in="SourceAlpha" type="matrix" values="0 0 0 0 0 0 0 0 0 0 0 0 0 0 0 0 0 0 127 0" result="hardAlpha"/>
<feOffset/>
<feGaussianBlur stdDeviation="10"/>
<feComposite in2="hardAlpha" operator="out"/>
<feColorMatrix type="matrix" values="0 0 0 0 0 0 0 0 0 0 0 0 0 0 0 0 0 0 0.3 0"/>
<feBlend mode="normal" in2="BackgroundImageFix" result="effect1_dropShadow_122_162"/>
<feBlend mode="normal" in="SourceGraphic" in2="effect1_dropShadow_122_162" result="shape"/>
</filter>
<filter id="filter2_d_122_162" x="541" y="78" width="220" height="220" filterUnits="userSpaceOnUse" color-interpolation-filters="sRGB">
<feFlood flood-opacity="0" result="BackgroundImageFix"/>
<feColorMatrix in="SourceAlpha" type="matrix" values="0 0 0 0 0 0 0 0 0 0 0 0 0 0 0 0 0 0 127 0" result="hardAlpha"/>
<feOffset/>
<feGaussianBlur stdDeviation="10"/>
<feComposite in2="hardAlpha" operator="out"/>
<feColorMatrix type="matrix" values="0 0 0 0 0 0 0 0 0 0 0 0 0 0 0 0 0 0 0.3 0"/>
<feBlend mode="normal" in2="BackgroundImageFix" result="effect1_dropShadow_122_162"/>
<feBlend mode="normal" in="SourceGraphic" in2="effect1_dropShadow_122_162" result="shape"/>
</filter>
<filter id="filter3_d_122_162" x="391" y="315" width="190" height="190" filterUnits="userSpaceOnUse" color-interpolation-filters="sRGB">
<feFlood flood-opacity="0" result="BackgroundImageFix"/>
<feColorMatrix in="SourceAlpha" type="matrix" values="0 0 0 0 0 0 0 0 0 0 0 0 0 0 0 0 0 0 127 0" result="hardAlpha"/>
<feOffset/>
<feGaussianBlur stdDeviation="10"/>
<feComposite in2="hardAlpha" operator="out"/>
<feColorMatrix type="matrix" values="0 0 0 0 0 0 0 0 0 0 0 0 0 0 0 0 0 0 0.3 0"/>
<feBlend mode="normal" in2="BackgroundImageFix" result="effect1_dropShadow_122_162"/>
<feBlend mode="normal" in="SourceGraphic" in2="effect1_dropShadow_122_162" result="shape"/>
</filter>
<filter id="filter4_d_122_162" x="301" y="537" width="180" height="180" filterUnits="userSpaceOnUse" color-interpolation-filters="sRGB">
<feFlood flood-opacity="0" result="BackgroundImageFix"/>
<feColorMatrix in="SourceAlpha" type="matrix" values="0 0 0 0 0 0 0 0 0 0 0 0 0 0 0 0 0 0 127 0" result="hardAlpha"/>
<feOffset/>
<feGaussianBlur stdDeviation="10"/>
<feComposite in2="hardAlpha" operator="out"/>
<feColorMatrix type="matrix" values="0 0 0 0 0 0 0 0 0 0 0 0 0 0 0 0 0 0 0.3 0"/>
<feBlend mode="normal" in2="BackgroundImageFix" result="effect1_dropShadow_122_162"/>
<feBlend mode="normal" in="SourceGraphic" in2="effect1_dropShadow_122_162" result="shape"/>
</filter>
<linearGradient id="paint0_linear_122_162" x1="212" y1="387" x2="80" y2="452" gradientUnits="userSpaceOnUse">
<stop stop-color="#D226E1"/>
<stop offset="1" stop-color="#14B5EB"/>
</linearGradient>
<linearGradient id="paint1_linear_122_162" x1="373.364" y1="129" x2="257.915" y2="175.513" gradientUnits="userSpaceOnUse">
<stop stop-color="#D226E1"/>
<stop offset="1" stop-color="#14B5EB"/>
</linearGradient>
<linearGradient id="paint2_linear_122_162" x1="703.364" y1="144" x2="587.915" y2="190.513" gradientUnits="userSpaceOnUse">
<stop stop-color="#D226E1"/>
<stop offset="1" stop-color="#14B5EB"/>
</linearGradient>
<linearGradient id="paint3_linear_122_162" x1="351.5" y1="303.5" x2="621.5" y2="538.5" gradientUnits="userSpaceOnUse">
<stop stop-color="#14B5EB"/>
<stop offset="1" stop-color="#D226E1"/>
</linearGradient>
<linearGradient id="paint4_linear_122_162" x1="265.467" y1="556" x2="443.712" y2="773.195" gradientUnits="userSpaceOnUse">
<stop stop-color="#14B5EB"/>
<stop offset="1" stop-color="#D226E1"/>
</linearGradient>
</defs>
</svg>
