<svg width="779" height="779" viewBox="0 0 779 779" fill="none" xmlns="http://www.w3.org/2000/svg">
<g filter="url(#filter0_d_282_93)">
<rect x="38" y="321" width="220" height="220" rx="20" fill="white"/>
<path d="M129.241 407.444C129.241 409.876 128.761 412.212 127.801 414.452C126.841 416.692 125.593 418.868 124.057 420.98C122.521 423.028 120.793 425.012 118.873 426.932C116.953 428.852 115.065 430.676 113.209 432.404C112.249 433.3 111.193 434.324 110.041 435.476C108.953 436.564 107.897 437.684 106.873 438.836C105.849 439.988 104.921 441.076 104.089 442.1C103.321 443.06 102.841 443.86 102.649 444.5H131.257V456.5H86.905C86.777 455.796 86.713 454.9 86.713 453.812C86.713 452.724 86.713 451.956 86.713 451.508C86.713 448.436 87.193 445.62 88.153 443.06C89.177 440.5 90.489 438.132 92.089 435.956C93.689 433.716 95.481 431.636 97.465 429.716C99.513 427.796 101.529 425.876 103.513 423.956C105.049 422.484 106.489 421.108 107.833 419.828C109.177 418.484 110.361 417.204 111.385 415.988C112.409 414.708 113.209 413.46 113.785 412.244C114.361 410.964 114.649 409.684 114.649 408.404C114.649 405.588 113.849 403.604 112.249 402.452C110.649 401.3 108.665 400.724 106.297 400.724C104.569 400.724 102.937 401.012 101.401 401.588C99.929 402.1 98.553 402.74 97.273 403.508C96.057 404.212 95.001 404.948 94.105 405.716C93.209 406.42 92.537 406.996 92.089 407.444L84.985 397.46C87.801 394.836 91.065 392.692 94.777 391.028C98.553 389.3 102.585 388.436 106.873 388.436C110.777 388.436 114.137 388.884 116.953 389.78C119.769 390.676 122.073 391.956 123.865 393.62C125.721 395.22 127.065 397.204 127.897 399.572C128.793 401.876 129.241 404.5 129.241 407.444ZM156.924 414.836C156.924 417.716 155.996 419.924 154.14 421.46C152.348 422.932 150.3 423.668 147.996 423.668C145.692 423.668 143.612 422.932 141.756 421.46C139.964 419.924 139.068 417.716 139.068 414.836C139.068 411.956 139.964 409.78 141.756 408.308C143.612 406.772 145.692 406.004 147.996 406.004C150.3 406.004 152.348 406.772 154.14 408.308C155.996 409.78 156.924 411.956 156.924 414.836ZM156.924 448.916C156.924 451.796 155.996 454.004 154.14 455.54C152.348 457.012 150.3 457.748 147.996 457.748C145.692 457.748 143.612 457.012 141.756 455.54C139.964 454.004 139.068 451.796 139.068 448.916C139.068 446.036 139.964 443.86 141.756 442.388C143.612 440.852 145.692 440.084 147.996 440.084C150.3 440.084 152.348 440.852 154.14 442.388C155.996 443.86 156.924 446.036 156.924 448.916ZM166.533 403.796C168.389 403.028 170.309 402.164 172.293 401.204C174.341 400.18 176.325 399.092 178.245 397.94C180.165 396.724 181.989 395.476 183.717 394.196C185.509 392.852 187.109 391.444 188.517 389.972H198.501V456.5H184.197V408.596C182.277 409.876 180.133 411.06 177.765 412.148C175.397 413.172 173.093 414.068 170.853 414.836L166.533 403.796Z" fill="url(#paint0_linear_282_93)"/>
<path d="M58.7902 490.358C59.1862 490.358 59.5102 490.328 59.7622 490.268C60.0262 490.196 60.2362 490.106 60.3922 489.998C60.5482 489.878 60.6562 489.74 60.7162 489.584C60.7762 489.428 60.8062 489.254 60.8062 489.062C60.8062 488.654 60.6142 488.318 60.2302 488.054C59.8462 487.778 59.1862 487.484 58.2502 487.172C57.8422 487.028 57.4342 486.866 57.0262 486.686C56.6182 486.494 56.2522 486.26 55.9282 485.984C55.6042 485.696 55.3402 485.354 55.1362 484.958C54.9322 484.55 54.8302 484.058 54.8302 483.482C54.8302 482.906 54.9382 482.39 55.1542 481.934C55.3702 481.466 55.6762 481.07 56.0722 480.746C56.4682 480.422 56.9482 480.176 57.5122 480.008C58.0762 479.828 58.7122 479.738 59.4202 479.738C60.2602 479.738 60.9862 479.828 61.5982 480.008C62.2102 480.188 62.7142 480.386 63.1102 480.602L62.3002 482.816C61.9522 482.636 61.5622 482.48 61.1302 482.348C60.7102 482.204 60.2002 482.132 59.6002 482.132C58.9282 482.132 58.4422 482.228 58.1422 482.42C57.8542 482.6 57.7102 482.882 57.7102 483.266C57.7102 483.494 57.7642 483.686 57.8722 483.842C57.9802 483.998 58.1302 484.142 58.3222 484.274C58.5262 484.394 58.7542 484.508 59.0062 484.616C59.2702 484.712 59.5582 484.814 59.8702 484.922C60.5182 485.162 61.0822 485.402 61.5622 485.642C62.0422 485.87 62.4382 486.14 62.7502 486.452C63.0742 486.764 63.3142 487.13 63.4702 487.55C63.6262 487.97 63.7042 488.48 63.7042 489.08C63.7042 490.244 63.2962 491.15 62.4802 491.798C61.6642 492.434 60.4342 492.752 58.7902 492.752C58.2382 492.752 57.7402 492.716 57.2962 492.644C56.8522 492.584 56.4562 492.506 56.1082 492.41C55.7722 492.314 55.4782 492.212 55.2262 492.104C54.9862 491.996 54.7822 491.894 54.6142 491.798L55.4062 489.566C55.7782 489.77 56.2342 489.956 56.7742 490.124C57.3262 490.28 57.9982 490.358 58.7902 490.358ZM65.5948 480.674L68.2768 480.242V483.032H71.4988V485.264H68.2768V488.594C68.2768 489.158 68.3728 489.608 68.5648 489.944C68.7688 490.28 69.1708 490.448 69.7708 490.448C70.0588 490.448 70.3528 490.424 70.6528 490.376C70.9648 490.316 71.2468 490.238 71.4988 490.142L71.8768 492.23C71.5528 492.362 71.1928 492.476 70.7968 492.572C70.4008 492.668 69.9148 492.716 69.3388 492.716C68.6068 492.716 68.0008 492.62 67.5208 492.428C67.0408 492.224 66.6568 491.948 66.3688 491.6C66.0808 491.24 65.8768 490.808 65.7568 490.304C65.6488 489.8 65.5948 489.242 65.5948 488.63V480.674ZM81.7649 492.176C81.3089 492.308 80.7209 492.428 80.0009 492.536C79.2809 492.656 78.5249 492.716 77.7329 492.716C76.9289 492.716 76.2569 492.608 75.7169 492.392C75.1889 492.176 74.7689 491.876 74.4569 491.492C74.1449 491.096 73.9229 490.628 73.7909 490.088C73.6589 489.548 73.5929 488.954 73.5929 488.306V483.032H76.2749V487.982C76.2749 488.846 76.3889 489.47 76.6169 489.854C76.8449 490.238 77.2709 490.43 77.8949 490.43C78.0869 490.43 78.2909 490.424 78.5069 490.412C78.7229 490.388 78.9149 490.364 79.0829 490.34V483.032H81.7649V492.176ZM86.5685 487.694C86.5685 488.522 86.7545 489.188 87.1265 489.692C87.4985 490.196 88.0505 490.448 88.7825 490.448C89.0225 490.448 89.2445 490.442 89.4485 490.43C89.6525 490.406 89.8205 490.382 89.9525 490.358V485.48C89.7845 485.372 89.5625 485.282 89.2865 485.21C89.0225 485.138 88.7525 485.102 88.4765 485.102C87.2045 485.102 86.5685 485.966 86.5685 487.694ZM92.6345 492.194C92.3945 492.266 92.1185 492.338 91.8065 492.41C91.4945 492.47 91.1645 492.524 90.8165 492.572C90.4805 492.62 90.1325 492.656 89.7725 492.68C89.4245 492.716 89.0885 492.734 88.7645 492.734C87.9845 492.734 87.2885 492.62 86.6765 492.392C86.0645 492.164 85.5485 491.84 85.1285 491.42C84.7085 490.988 84.3845 490.472 84.1565 489.872C83.9405 489.26 83.8325 488.576 83.8325 487.82C83.8325 487.052 83.9285 486.362 84.1205 485.75C84.3125 485.126 84.5885 484.598 84.9485 484.166C85.3085 483.734 85.7465 483.404 86.2625 483.176C86.7905 482.948 87.3905 482.834 88.0625 482.834C88.4345 482.834 88.7645 482.87 89.0525 482.942C89.3525 483.014 89.6525 483.116 89.9525 483.248V478.964L92.6345 478.532V492.194ZM94.6957 487.838C94.6957 486.998 94.8217 486.266 95.0737 485.642C95.3377 485.006 95.6797 484.478 96.0997 484.058C96.5197 483.638 96.9997 483.32 97.5397 483.104C98.0917 482.888 98.6557 482.78 99.2317 482.78C100.576 482.78 101.638 483.194 102.418 484.022C103.198 484.838 103.588 486.044 103.588 487.64C103.588 487.796 103.582 487.97 103.57 488.162C103.558 488.342 103.546 488.504 103.534 488.648H97.4497C97.5097 489.2 97.7677 489.638 98.2237 489.962C98.6797 490.286 99.2917 490.448 100.06 490.448C100.552 490.448 101.032 490.406 101.5 490.322C101.98 490.226 102.37 490.112 102.67 489.98L103.03 492.158C102.886 492.23 102.694 492.302 102.454 492.374C102.214 492.446 101.944 492.506 101.644 492.554C101.356 492.614 101.044 492.662 100.708 492.698C100.372 492.734 100.036 492.752 99.6997 492.752C98.8477 492.752 98.1037 492.626 97.4677 492.374C96.8437 492.122 96.3217 491.78 95.9017 491.348C95.4937 490.904 95.1877 490.382 94.9837 489.782C94.7917 489.182 94.6957 488.534 94.6957 487.838ZM100.996 486.812C100.984 486.584 100.942 486.362 100.87 486.146C100.81 485.93 100.708 485.738 100.564 485.57C100.432 485.402 100.258 485.264 100.042 485.156C99.8377 485.048 99.5797 484.994 99.2677 484.994C98.9677 484.994 98.7097 485.048 98.4937 485.156C98.2777 485.252 98.0977 485.384 97.9537 485.552C97.8097 485.72 97.6957 485.918 97.6117 486.146C97.5397 486.362 97.4857 486.584 97.4497 486.812H100.996ZM105.657 483.356C106.113 483.224 106.701 483.104 107.421 482.996C108.141 482.876 108.897 482.816 109.689 482.816C110.493 482.816 111.159 482.924 111.687 483.14C112.227 483.344 112.653 483.638 112.965 484.022C113.277 484.406 113.499 484.862 113.631 485.39C113.763 485.918 113.829 486.506 113.829 487.154V492.5H111.147V487.478C111.147 486.614 111.033 486.002 110.805 485.642C110.577 485.282 110.151 485.102 109.527 485.102C109.335 485.102 109.131 485.114 108.915 485.138C108.699 485.15 108.507 485.168 108.339 485.192V492.5H105.657V483.356ZM116.167 480.674L118.849 480.242V483.032H122.071V485.264H118.849V488.594C118.849 489.158 118.945 489.608 119.137 489.944C119.341 490.28 119.743 490.448 120.343 490.448C120.631 490.448 120.925 490.424 121.225 490.376C121.537 490.316 121.819 490.238 122.071 490.142L122.449 492.23C122.125 492.362 121.765 492.476 121.369 492.572C120.973 492.668 120.487 492.716 119.911 492.716C119.179 492.716 118.573 492.62 118.093 492.428C117.613 492.224 117.229 491.948 116.941 491.6C116.653 491.24 116.449 490.808 116.329 490.304C116.221 489.8 116.167 489.242 116.167 488.63V480.674ZM123.269 485.912H128.489V488.342H123.269V485.912ZM130.377 492.5V480.026H138.729V482.384H133.185V484.994H138.117V487.352H133.185V492.5H130.377ZM143.711 490.628C143.975 490.628 144.227 490.622 144.467 490.61C144.707 490.598 144.899 490.58 145.043 490.556V488.522C144.935 488.498 144.773 488.474 144.557 488.45C144.341 488.426 144.143 488.414 143.963 488.414C143.711 488.414 143.471 488.432 143.243 488.468C143.027 488.492 142.835 488.546 142.667 488.63C142.499 488.714 142.367 488.828 142.271 488.972C142.175 489.116 142.127 489.296 142.127 489.512C142.127 489.932 142.265 490.226 142.541 490.394C142.829 490.55 143.219 490.628 143.711 490.628ZM143.495 482.78C144.287 482.78 144.947 482.87 145.475 483.05C146.003 483.23 146.423 483.488 146.735 483.824C147.059 484.16 147.287 484.568 147.419 485.048C147.551 485.528 147.617 486.062 147.617 486.65V492.23C147.233 492.314 146.699 492.41 146.015 492.518C145.331 492.638 144.503 492.698 143.531 492.698C142.919 492.698 142.361 492.644 141.857 492.536C141.365 492.428 140.939 492.254 140.579 492.014C140.219 491.762 139.943 491.438 139.751 491.042C139.559 490.646 139.463 490.16 139.463 489.584C139.463 489.032 139.571 488.564 139.787 488.18C140.015 487.796 140.315 487.49 140.687 487.262C141.059 487.034 141.485 486.872 141.965 486.776C142.445 486.668 142.943 486.614 143.459 486.614C143.807 486.614 144.113 486.632 144.377 486.668C144.653 486.692 144.875 486.728 145.043 486.776V486.524C145.043 486.068 144.905 485.702 144.629 485.426C144.353 485.15 143.873 485.012 143.189 485.012C142.733 485.012 142.283 485.048 141.839 485.12C141.395 485.18 141.011 485.27 140.687 485.39L140.345 483.23C140.501 483.182 140.693 483.134 140.921 483.086C141.161 483.026 141.419 482.978 141.695 482.942C141.971 482.894 142.259 482.858 142.559 482.834C142.871 482.798 143.183 482.78 143.495 482.78ZM149.592 487.766C149.592 487.082 149.7 486.44 149.916 485.84C150.144 485.228 150.468 484.7 150.888 484.256C151.308 483.8 151.818 483.44 152.418 483.176C153.018 482.912 153.702 482.78 154.47 482.78C154.974 482.78 155.436 482.828 155.856 482.924C156.276 483.008 156.684 483.134 157.08 483.302L156.522 485.444C156.27 485.348 155.994 485.264 155.694 485.192C155.394 485.12 155.058 485.084 154.686 485.084C153.894 485.084 153.3 485.33 152.904 485.822C152.52 486.314 152.328 486.962 152.328 487.766C152.328 488.618 152.508 489.278 152.868 489.746C153.24 490.214 153.882 490.448 154.794 490.448C155.118 490.448 155.466 490.418 155.838 490.358C156.21 490.298 156.552 490.202 156.864 490.07L157.242 492.266C156.93 492.398 156.54 492.512 156.072 492.608C155.604 492.704 155.088 492.752 154.524 492.752C153.66 492.752 152.916 492.626 152.292 492.374C151.668 492.11 151.152 491.756 150.744 491.312C150.348 490.868 150.054 490.346 149.862 489.746C149.682 489.134 149.592 488.474 149.592 487.766ZM167.124 492.176C166.668 492.308 166.08 492.428 165.36 492.536C164.64 492.656 163.884 492.716 163.092 492.716C162.288 492.716 161.616 492.608 161.076 492.392C160.548 492.176 160.128 491.876 159.816 491.492C159.504 491.096 159.282 490.628 159.15 490.088C159.018 489.548 158.952 488.954 158.952 488.306V483.032H161.634V487.982C161.634 488.846 161.748 489.47 161.976 489.854C162.204 490.238 162.63 490.43 163.254 490.43C163.446 490.43 163.65 490.424 163.866 490.412C164.082 490.388 164.274 490.364 164.442 490.34V483.032H167.124V492.176ZM173.422 492.68C172.642 492.668 172.006 492.584 171.514 492.428C171.034 492.272 170.65 492.056 170.362 491.78C170.086 491.492 169.894 491.15 169.786 490.754C169.69 490.346 169.642 489.89 169.642 489.386V478.964L172.324 478.532V488.846C172.324 489.086 172.342 489.302 172.378 489.494C172.414 489.686 172.48 489.848 172.576 489.98C172.684 490.112 172.834 490.22 173.026 490.304C173.218 490.388 173.476 490.442 173.8 490.466L173.422 492.68ZM175.247 480.674L177.929 480.242V483.032H181.151V485.264H177.929V488.594C177.929 489.158 178.025 489.608 178.217 489.944C178.421 490.28 178.823 490.448 179.423 490.448C179.711 490.448 180.005 490.424 180.305 490.376C180.617 490.316 180.899 490.238 181.151 490.142L181.529 492.23C181.205 492.362 180.845 492.476 180.449 492.572C180.053 492.668 179.567 492.716 178.991 492.716C178.259 492.716 177.653 492.62 177.173 492.428C176.693 492.224 176.309 491.948 176.021 491.6C175.733 491.24 175.529 490.808 175.409 490.304C175.301 489.8 175.247 489.242 175.247 488.63V480.674ZM191.917 483.032C191.377 484.856 190.813 486.566 190.225 488.162C189.637 489.758 188.995 491.306 188.299 492.806C188.047 493.346 187.795 493.802 187.543 494.174C187.291 494.558 187.015 494.87 186.715 495.11C186.415 495.362 186.073 495.542 185.689 495.65C185.317 495.77 184.879 495.83 184.375 495.83C183.955 495.83 183.565 495.788 183.205 495.704C182.857 495.632 182.569 495.548 182.341 495.452L182.809 493.31C183.085 493.406 183.331 493.472 183.547 493.508C183.763 493.544 183.991 493.562 184.231 493.562C184.711 493.562 185.077 493.43 185.329 493.166C185.593 492.914 185.815 492.56 185.995 492.104C185.383 490.904 184.771 489.56 184.159 488.072C183.547 486.572 182.971 484.892 182.431 483.032H185.275C185.395 483.5 185.533 484.01 185.689 484.562C185.857 485.102 186.031 485.654 186.211 486.218C186.391 486.77 186.571 487.31 186.751 487.838C186.943 488.366 187.123 488.846 187.291 489.278C187.447 488.846 187.609 488.366 187.777 487.838C187.945 487.31 188.107 486.77 188.263 486.218C188.431 485.654 188.587 485.102 188.731 484.562C188.887 484.01 189.025 483.5 189.145 483.032H191.917ZM201.513 479.882C203.385 479.882 204.819 480.218 205.815 480.89C206.811 481.55 207.309 482.582 207.309 483.986C207.309 484.862 207.105 485.576 206.697 486.128C206.301 486.668 205.725 487.094 204.969 487.406C205.221 487.718 205.485 488.078 205.761 488.486C206.037 488.882 206.307 489.302 206.571 489.746C206.847 490.178 207.111 490.634 207.363 491.114C207.615 491.582 207.849 492.044 208.065 492.5H204.915C204.687 492.092 204.453 491.678 204.213 491.258C203.985 490.838 203.745 490.43 203.493 490.034C203.253 489.638 203.013 489.266 202.773 488.918C202.533 488.558 202.293 488.234 202.053 487.946H200.667V492.5H197.859V480.206C198.471 480.086 199.101 480.002 199.749 479.954C200.409 479.906 200.997 479.882 201.513 479.882ZM201.675 482.276C201.471 482.276 201.285 482.282 201.117 482.294C200.961 482.306 200.811 482.318 200.667 482.33V485.714H201.459C202.515 485.714 203.271 485.582 203.727 485.318C204.183 485.054 204.411 484.604 204.411 483.968C204.411 483.356 204.177 482.924 203.709 482.672C203.253 482.408 202.575 482.276 201.675 482.276ZM212.846 490.628C213.11 490.628 213.362 490.622 213.602 490.61C213.842 490.598 214.034 490.58 214.178 490.556V488.522C214.07 488.498 213.908 488.474 213.692 488.45C213.476 488.426 213.278 488.414 213.098 488.414C212.846 488.414 212.606 488.432 212.378 488.468C212.162 488.492 211.97 488.546 211.802 488.63C211.634 488.714 211.502 488.828 211.406 488.972C211.31 489.116 211.262 489.296 211.262 489.512C211.262 489.932 211.4 490.226 211.676 490.394C211.964 490.55 212.354 490.628 212.846 490.628ZM212.63 482.78C213.422 482.78 214.082 482.87 214.61 483.05C215.138 483.23 215.558 483.488 215.87 483.824C216.194 484.16 216.422 484.568 216.554 485.048C216.686 485.528 216.752 486.062 216.752 486.65V492.23C216.368 492.314 215.834 492.41 215.15 492.518C214.466 492.638 213.638 492.698 212.666 492.698C212.054 492.698 211.496 492.644 210.992 492.536C210.5 492.428 210.074 492.254 209.714 492.014C209.354 491.762 209.078 491.438 208.886 491.042C208.694 490.646 208.598 490.16 208.598 489.584C208.598 489.032 208.706 488.564 208.922 488.18C209.15 487.796 209.45 487.49 209.822 487.262C210.194 487.034 210.62 486.872 211.1 486.776C211.58 486.668 212.078 486.614 212.594 486.614C212.942 486.614 213.248 486.632 213.512 486.668C213.788 486.692 214.01 486.728 214.178 486.776V486.524C214.178 486.068 214.04 485.702 213.764 485.426C213.488 485.15 213.008 485.012 212.324 485.012C211.868 485.012 211.418 485.048 210.974 485.12C210.53 485.18 210.146 485.27 209.822 485.39L209.48 483.23C209.636 483.182 209.828 483.134 210.056 483.086C210.296 483.026 210.554 482.978 210.83 482.942C211.106 482.894 211.394 482.858 211.694 482.834C212.006 482.798 212.318 482.78 212.63 482.78ZM219.087 480.674L221.769 480.242V483.032H224.991V485.264H221.769V488.594C221.769 489.158 221.865 489.608 222.057 489.944C222.261 490.28 222.663 490.448 223.263 490.448C223.551 490.448 223.845 490.424 224.145 490.376C224.457 490.316 224.739 490.238 224.991 490.142L225.369 492.23C225.045 492.362 224.685 492.476 224.289 492.572C223.893 492.668 223.407 492.716 222.831 492.716C222.099 492.716 221.493 492.62 221.013 492.428C220.533 492.224 220.149 491.948 219.861 491.6C219.573 491.24 219.369 490.808 219.249 490.304C219.141 489.8 219.087 489.242 219.087 488.63V480.674ZM229.857 492.5H227.175V483.032H229.857V492.5ZM230.109 480.296C230.109 480.788 229.947 481.178 229.623 481.466C229.311 481.742 228.939 481.88 228.507 481.88C228.075 481.88 227.697 481.742 227.373 481.466C227.061 481.178 226.905 480.788 226.905 480.296C226.905 479.804 227.061 479.42 227.373 479.144C227.697 478.856 228.075 478.712 228.507 478.712C228.939 478.712 229.311 478.856 229.623 479.144C229.947 479.42 230.109 479.804 230.109 480.296ZM241.234 487.748C241.234 488.492 241.126 489.176 240.91 489.8C240.694 490.412 240.382 490.94 239.974 491.384C239.566 491.816 239.074 492.152 238.498 492.392C237.934 492.632 237.298 492.752 236.59 492.752C235.894 492.752 235.258 492.632 234.682 492.392C234.118 492.152 233.632 491.816 233.224 491.384C232.816 490.94 232.498 490.412 232.27 489.8C232.042 489.176 231.928 488.492 231.928 487.748C231.928 487.004 232.042 486.326 232.27 485.714C232.51 485.102 232.834 484.58 233.242 484.148C233.662 483.716 234.154 483.38 234.718 483.14C235.294 482.9 235.918 482.78 236.59 482.78C237.274 482.78 237.898 482.9 238.462 483.14C239.038 483.38 239.53 483.716 239.938 484.148C240.346 484.58 240.664 485.102 240.892 485.714C241.12 486.326 241.234 487.004 241.234 487.748ZM238.498 487.748C238.498 486.92 238.33 486.272 237.994 485.804C237.67 485.324 237.202 485.084 236.59 485.084C235.978 485.084 235.504 485.324 235.168 485.804C234.832 486.272 234.664 486.92 234.664 487.748C234.664 488.576 234.832 489.236 235.168 489.728C235.504 490.208 235.978 490.448 236.59 490.448C237.202 490.448 237.67 490.208 237.994 489.728C238.33 489.236 238.498 488.576 238.498 487.748Z" fill="black"/>
</g>
<g filter="url(#filter1_d_282_93)">
<rect x="231" y="83" width="180" height="180" rx="20" fill="white"/>
<path d="M268.257 198.5C268.641 193.828 269.441 188.964 270.657 183.908C271.873 178.852 273.345 173.892 275.073 169.028C276.865 164.164 278.849 159.588 281.025 155.3C283.201 150.948 285.409 147.204 287.649 144.068H258.753V131.876H305.313V142.244C303.265 144.484 300.993 147.588 298.497 151.556C296.065 155.524 293.729 160.036 291.489 165.092C289.313 170.084 287.393 175.46 285.729 181.22C284.129 186.98 283.137 192.74 282.753 198.5H268.257ZM329.924 190.916C329.924 193.796 328.996 196.004 327.14 197.54C325.348 199.012 323.3 199.748 320.996 199.748C318.692 199.748 316.612 199.012 314.756 197.54C312.964 196.004 312.068 193.796 312.068 190.916C312.068 188.036 312.964 185.86 314.756 184.388C316.612 182.852 318.692 182.084 320.996 182.084C323.3 182.084 325.348 182.852 327.14 184.388C328.996 185.86 329.924 188.036 329.924 190.916ZM346.445 198.5C346.829 193.828 347.629 188.964 348.845 183.908C350.061 178.852 351.533 173.892 353.261 169.028C355.053 164.164 357.037 159.588 359.213 155.3C361.389 150.948 363.597 147.204 365.837 144.068H336.941V131.876H383.5V142.244C381.453 144.484 379.181 147.588 376.685 151.556C374.253 155.524 371.917 160.036 369.677 165.092C367.501 170.084 365.581 175.46 363.917 181.22C362.317 186.98 361.325 192.74 360.941 198.5H346.445Z" fill="url(#paint1_linear_282_93)"/>
<path d="M250.943 234.5C250.811 234.068 250.661 233.624 250.493 233.168C250.337 232.712 250.181 232.256 250.025 231.8H245.165C245.009 232.256 244.847 232.712 244.679 233.168C244.523 233.624 244.379 234.068 244.247 234.5H241.331C241.799 233.156 242.243 231.914 242.663 230.774C243.083 229.634 243.491 228.56 243.887 227.552C244.295 226.544 244.691 225.59 245.075 224.69C245.471 223.778 245.879 222.89 246.299 222.026H248.981C249.389 222.89 249.791 223.778 250.187 224.69C250.583 225.59 250.979 226.544 251.375 227.552C251.783 228.56 252.197 229.634 252.617 230.774C253.037 231.914 253.481 233.156 253.949 234.5H250.943ZM247.577 224.852C247.517 225.032 247.427 225.278 247.307 225.59C247.187 225.902 247.049 226.262 246.893 226.67C246.737 227.078 246.563 227.528 246.371 228.02C246.191 228.512 246.005 229.028 245.813 229.568H249.359C249.167 229.028 248.981 228.512 248.801 228.02C248.621 227.528 248.447 227.078 248.279 226.67C248.123 226.262 247.985 225.902 247.865 225.59C247.745 225.278 247.649 225.032 247.577 224.852ZM257.325 234.5C256.713 233.3 256.089 231.896 255.453 230.288C254.829 228.68 254.235 226.928 253.671 225.032H256.515C256.635 225.5 256.773 226.01 256.929 226.562C257.097 227.102 257.265 227.654 257.433 228.218C257.613 228.77 257.787 229.31 257.955 229.838C258.135 230.366 258.309 230.846 258.477 231.278C258.633 230.846 258.801 230.366 258.981 229.838C259.161 229.31 259.335 228.77 259.503 228.218C259.683 227.654 259.851 227.102 260.007 226.562C260.175 226.01 260.319 225.5 260.439 225.032H263.211C262.647 226.928 262.047 228.68 261.411 230.288C260.787 231.896 260.169 233.3 259.557 234.5H257.325ZM263.952 229.838C263.952 228.998 264.078 228.266 264.33 227.642C264.594 227.006 264.936 226.478 265.356 226.058C265.776 225.638 266.256 225.32 266.796 225.104C267.348 224.888 267.912 224.78 268.488 224.78C269.832 224.78 270.894 225.194 271.674 226.022C272.454 226.838 272.844 228.044 272.844 229.64C272.844 229.796 272.838 229.97 272.826 230.162C272.814 230.342 272.802 230.504 272.79 230.648H266.706C266.766 231.2 267.024 231.638 267.48 231.962C267.936 232.286 268.548 232.448 269.316 232.448C269.808 232.448 270.288 232.406 270.756 232.322C271.236 232.226 271.626 232.112 271.926 231.98L272.286 234.158C272.142 234.23 271.95 234.302 271.71 234.374C271.47 234.446 271.2 234.506 270.9 234.554C270.612 234.614 270.3 234.662 269.964 234.698C269.628 234.734 269.292 234.752 268.956 234.752C268.104 234.752 267.36 234.626 266.724 234.374C266.1 234.122 265.578 233.78 265.158 233.348C264.75 232.904 264.444 232.382 264.24 231.782C264.048 231.182 263.952 230.534 263.952 229.838ZM270.252 228.812C270.24 228.584 270.198 228.362 270.126 228.146C270.066 227.93 269.964 227.738 269.82 227.57C269.688 227.402 269.514 227.264 269.298 227.156C269.094 227.048 268.836 226.994 268.524 226.994C268.224 226.994 267.966 227.048 267.75 227.156C267.534 227.252 267.354 227.384 267.21 227.552C267.066 227.72 266.952 227.918 266.868 228.146C266.796 228.362 266.742 228.584 266.706 228.812H270.252ZM280.619 227.408C280.379 227.348 280.097 227.288 279.773 227.228C279.449 227.156 279.101 227.12 278.729 227.12C278.561 227.12 278.357 227.138 278.117 227.174C277.889 227.198 277.715 227.228 277.595 227.264V234.5H274.913V225.536C275.393 225.368 275.957 225.212 276.605 225.068C277.265 224.912 277.997 224.834 278.801 224.834C278.945 224.834 279.119 224.846 279.323 224.87C279.527 224.882 279.731 224.906 279.935 224.942C280.139 224.966 280.343 225.002 280.547 225.05C280.751 225.086 280.925 225.134 281.069 225.194L280.619 227.408ZM285.949 232.628C286.213 232.628 286.465 232.622 286.705 232.61C286.945 232.598 287.137 232.58 287.281 232.556V230.522C287.173 230.498 287.011 230.474 286.795 230.45C286.579 230.426 286.381 230.414 286.201 230.414C285.949 230.414 285.709 230.432 285.481 230.468C285.265 230.492 285.073 230.546 284.905 230.63C284.737 230.714 284.605 230.828 284.509 230.972C284.413 231.116 284.365 231.296 284.365 231.512C284.365 231.932 284.503 232.226 284.779 232.394C285.067 232.55 285.457 232.628 285.949 232.628ZM285.733 224.78C286.525 224.78 287.185 224.87 287.713 225.05C288.241 225.23 288.661 225.488 288.973 225.824C289.297 226.16 289.525 226.568 289.657 227.048C289.789 227.528 289.855 228.062 289.855 228.65V234.23C289.471 234.314 288.937 234.41 288.253 234.518C287.569 234.638 286.741 234.698 285.769 234.698C285.157 234.698 284.599 234.644 284.095 234.536C283.603 234.428 283.177 234.254 282.817 234.014C282.457 233.762 282.181 233.438 281.989 233.042C281.797 232.646 281.701 232.16 281.701 231.584C281.701 231.032 281.809 230.564 282.025 230.18C282.253 229.796 282.553 229.49 282.925 229.262C283.297 229.034 283.723 228.872 284.203 228.776C284.683 228.668 285.181 228.614 285.697 228.614C286.045 228.614 286.351 228.632 286.615 228.668C286.891 228.692 287.113 228.728 287.281 228.776V228.524C287.281 228.068 287.143 227.702 286.867 227.426C286.591 227.15 286.111 227.012 285.427 227.012C284.971 227.012 284.521 227.048 284.077 227.12C283.633 227.18 283.249 227.27 282.925 227.39L282.583 225.23C282.739 225.182 282.931 225.134 283.159 225.086C283.399 225.026 283.657 224.978 283.933 224.942C284.209 224.894 284.497 224.858 284.797 224.834C285.109 224.798 285.421 224.78 285.733 224.78ZM294.567 229.46C294.567 230.96 295.173 231.71 296.385 231.71C296.661 231.71 296.919 231.674 297.159 231.602C297.399 231.53 297.603 231.446 297.771 231.35V227.066C297.639 227.042 297.483 227.024 297.303 227.012C297.123 226.988 296.913 226.976 296.673 226.976C295.965 226.976 295.437 227.21 295.089 227.678C294.741 228.146 294.567 228.74 294.567 229.46ZM300.453 233.312C300.453 234.86 300.057 236.006 299.265 236.75C298.485 237.506 297.273 237.884 295.629 237.884C295.053 237.884 294.477 237.83 293.901 237.722C293.325 237.626 292.791 237.494 292.299 237.326L292.767 235.076C293.187 235.244 293.625 235.376 294.081 235.472C294.549 235.568 295.077 235.616 295.665 235.616C296.433 235.616 296.973 235.448 297.285 235.112C297.609 234.776 297.771 234.344 297.771 233.816V233.474C297.483 233.606 297.183 233.708 296.871 233.78C296.571 233.84 296.241 233.87 295.881 233.87C294.573 233.87 293.571 233.486 292.875 232.718C292.179 231.938 291.831 230.852 291.831 229.46C291.831 228.764 291.939 228.134 292.155 227.57C292.371 226.994 292.683 226.502 293.091 226.094C293.511 225.686 294.021 225.374 294.621 225.158C295.221 224.93 295.899 224.816 296.655 224.816C296.979 224.816 297.309 224.834 297.645 224.87C297.993 224.894 298.335 224.93 298.671 224.978C299.007 225.026 299.325 225.086 299.625 225.158C299.937 225.218 300.213 225.284 300.453 225.356V233.312ZM302.518 229.838C302.518 228.998 302.644 228.266 302.896 227.642C303.16 227.006 303.502 226.478 303.922 226.058C304.342 225.638 304.822 225.32 305.362 225.104C305.914 224.888 306.478 224.78 307.054 224.78C308.398 224.78 309.46 225.194 310.24 226.022C311.02 226.838 311.41 228.044 311.41 229.64C311.41 229.796 311.404 229.97 311.392 230.162C311.38 230.342 311.368 230.504 311.356 230.648H305.272C305.332 231.2 305.59 231.638 306.046 231.962C306.502 232.286 307.114 232.448 307.882 232.448C308.374 232.448 308.854 232.406 309.322 232.322C309.802 232.226 310.192 232.112 310.492 231.98L310.852 234.158C310.708 234.23 310.516 234.302 310.276 234.374C310.036 234.446 309.766 234.506 309.466 234.554C309.178 234.614 308.866 234.662 308.53 234.698C308.194 234.734 307.858 234.752 307.522 234.752C306.67 234.752 305.926 234.626 305.29 234.374C304.666 234.122 304.144 233.78 303.724 233.348C303.316 232.904 303.01 232.382 302.806 231.782C302.614 231.182 302.518 230.534 302.518 229.838ZM308.818 228.812C308.806 228.584 308.764 228.362 308.692 228.146C308.632 227.93 308.53 227.738 308.386 227.57C308.254 227.402 308.08 227.264 307.864 227.156C307.66 227.048 307.402 226.994 307.09 226.994C306.79 226.994 306.532 227.048 306.316 227.156C306.1 227.252 305.92 227.384 305.776 227.552C305.632 227.72 305.518 227.918 305.434 228.146C305.362 228.362 305.308 228.584 305.272 228.812H308.818ZM323.672 234.752C321.644 234.752 320.096 234.188 319.028 233.06C317.972 231.932 317.444 230.33 317.444 228.254C317.444 227.222 317.606 226.304 317.93 225.5C318.254 224.684 318.698 224 319.262 223.448C319.826 222.884 320.498 222.458 321.278 222.17C322.058 221.882 322.904 221.738 323.816 221.738C324.344 221.738 324.824 221.78 325.256 221.864C325.688 221.936 326.066 222.026 326.39 222.134C326.714 222.23 326.984 222.332 327.2 222.44C327.416 222.548 327.572 222.632 327.668 222.692L326.858 224.96C326.474 224.756 326.024 224.582 325.508 224.438C325.004 224.294 324.428 224.222 323.78 224.222C323.348 224.222 322.922 224.294 322.502 224.438C322.094 224.582 321.728 224.816 321.404 225.14C321.092 225.452 320.84 225.86 320.648 226.364C320.456 226.868 320.36 227.48 320.36 228.2C320.36 228.776 320.42 229.316 320.54 229.82C320.672 230.312 320.876 230.738 321.152 231.098C321.44 231.458 321.812 231.746 322.268 231.962C322.724 232.166 323.276 232.268 323.924 232.268C324.332 232.268 324.698 232.244 325.022 232.196C325.346 232.148 325.634 232.094 325.886 232.034C326.138 231.962 326.36 231.884 326.552 231.8C326.744 231.716 326.918 231.638 327.074 231.566L327.848 233.816C327.452 234.056 326.894 234.272 326.174 234.464C325.454 234.656 324.62 234.752 323.672 234.752ZM333.256 234.68C332.476 234.668 331.84 234.584 331.348 234.428C330.868 234.272 330.484 234.056 330.196 233.78C329.92 233.492 329.728 233.15 329.62 232.754C329.524 232.346 329.476 231.89 329.476 231.386V220.964L332.158 220.532V230.846C332.158 231.086 332.176 231.302 332.212 231.494C332.248 231.686 332.314 231.848 332.41 231.98C332.518 232.112 332.668 232.22 332.86 232.304C333.052 232.388 333.31 232.442 333.634 232.466L333.256 234.68ZM339.053 232.628C339.317 232.628 339.569 232.622 339.809 232.61C340.049 232.598 340.241 232.58 340.385 232.556V230.522C340.277 230.498 340.115 230.474 339.899 230.45C339.683 230.426 339.485 230.414 339.305 230.414C339.053 230.414 338.813 230.432 338.585 230.468C338.369 230.492 338.177 230.546 338.009 230.63C337.841 230.714 337.709 230.828 337.613 230.972C337.517 231.116 337.469 231.296 337.469 231.512C337.469 231.932 337.607 232.226 337.883 232.394C338.171 232.55 338.561 232.628 339.053 232.628ZM338.837 224.78C339.629 224.78 340.289 224.87 340.817 225.05C341.345 225.23 341.765 225.488 342.077 225.824C342.401 226.16 342.629 226.568 342.761 227.048C342.893 227.528 342.959 228.062 342.959 228.65V234.23C342.575 234.314 342.041 234.41 341.357 234.518C340.673 234.638 339.845 234.698 338.873 234.698C338.261 234.698 337.703 234.644 337.199 234.536C336.707 234.428 336.281 234.254 335.921 234.014C335.561 233.762 335.285 233.438 335.093 233.042C334.901 232.646 334.805 232.16 334.805 231.584C334.805 231.032 334.913 230.564 335.129 230.18C335.357 229.796 335.657 229.49 336.029 229.262C336.401 229.034 336.827 228.872 337.307 228.776C337.787 228.668 338.285 228.614 338.801 228.614C339.149 228.614 339.455 228.632 339.719 228.668C339.995 228.692 340.217 228.728 340.385 228.776V228.524C340.385 228.068 340.247 227.702 339.971 227.426C339.695 227.15 339.215 227.012 338.531 227.012C338.075 227.012 337.625 227.048 337.181 227.12C336.737 227.18 336.353 227.27 336.029 227.39L335.687 225.23C335.843 225.182 336.035 225.134 336.263 225.086C336.503 225.026 336.761 224.978 337.037 224.942C337.313 224.894 337.601 224.858 337.901 224.834C338.213 224.798 338.525 224.78 338.837 224.78ZM348.102 232.574C348.594 232.574 348.942 232.526 349.146 232.43C349.35 232.334 349.452 232.148 349.452 231.872C349.452 231.656 349.32 231.47 349.056 231.314C348.792 231.146 348.39 230.96 347.85 230.756C347.43 230.6 347.046 230.438 346.698 230.27C346.362 230.102 346.074 229.904 345.834 229.676C345.594 229.436 345.408 229.154 345.276 228.83C345.144 228.506 345.078 228.116 345.078 227.66C345.078 226.772 345.408 226.07 346.068 225.554C346.728 225.038 347.634 224.78 348.786 224.78C349.362 224.78 349.914 224.834 350.442 224.942C350.97 225.038 351.39 225.146 351.702 225.266L351.234 227.354C350.922 227.246 350.58 227.15 350.208 227.066C349.848 226.982 349.44 226.94 348.984 226.94C348.144 226.94 347.724 227.174 347.724 227.642C347.724 227.75 347.742 227.846 347.778 227.93C347.814 228.014 347.886 228.098 347.994 228.182C348.102 228.254 348.246 228.338 348.426 228.434C348.618 228.518 348.858 228.614 349.146 228.722C349.734 228.938 350.22 229.154 350.604 229.37C350.988 229.574 351.288 229.802 351.504 230.054C351.732 230.294 351.888 230.564 351.972 230.864C352.068 231.164 352.116 231.512 352.116 231.908C352.116 232.844 351.762 233.552 351.054 234.032C350.358 234.512 349.368 234.752 348.084 234.752C347.244 234.752 346.542 234.68 345.978 234.536C345.426 234.392 345.042 234.272 344.826 234.176L345.276 231.998C345.732 232.178 346.2 232.322 346.68 232.43C347.16 232.526 347.634 232.574 348.102 232.574ZM356.838 232.574C357.33 232.574 357.678 232.526 357.882 232.43C358.086 232.334 358.188 232.148 358.188 231.872C358.188 231.656 358.056 231.47 357.792 231.314C357.528 231.146 357.126 230.96 356.586 230.756C356.166 230.6 355.782 230.438 355.434 230.27C355.098 230.102 354.81 229.904 354.57 229.676C354.33 229.436 354.144 229.154 354.012 228.83C353.88 228.506 353.814 228.116 353.814 227.66C353.814 226.772 354.144 226.07 354.804 225.554C355.464 225.038 356.37 224.78 357.522 224.78C358.098 224.78 358.65 224.834 359.178 224.942C359.706 225.038 360.126 225.146 360.438 225.266L359.97 227.354C359.658 227.246 359.316 227.15 358.944 227.066C358.584 226.982 358.176 226.94 357.72 226.94C356.88 226.94 356.46 227.174 356.46 227.642C356.46 227.75 356.478 227.846 356.514 227.93C356.55 228.014 356.622 228.098 356.73 228.182C356.838 228.254 356.982 228.338 357.162 228.434C357.354 228.518 357.594 228.614 357.882 228.722C358.47 228.938 358.956 229.154 359.34 229.37C359.724 229.574 360.024 229.802 360.24 230.054C360.468 230.294 360.624 230.564 360.708 230.864C360.804 231.164 360.852 231.512 360.852 231.908C360.852 232.844 360.498 233.552 359.79 234.032C359.094 234.512 358.104 234.752 356.82 234.752C355.98 234.752 355.278 234.68 354.714 234.536C354.162 234.392 353.778 234.272 353.562 234.176L354.012 231.998C354.468 232.178 354.936 232.322 355.416 232.43C355.896 232.526 356.37 232.574 356.838 232.574ZM370.763 232.358C371.159 232.358 371.483 232.328 371.735 232.268C371.999 232.196 372.209 232.106 372.365 231.998C372.521 231.878 372.629 231.74 372.689 231.584C372.749 231.428 372.779 231.254 372.779 231.062C372.779 230.654 372.587 230.318 372.203 230.054C371.819 229.778 371.159 229.484 370.223 229.172C369.815 229.028 369.407 228.866 368.999 228.686C368.591 228.494 368.225 228.26 367.901 227.984C367.577 227.696 367.313 227.354 367.109 226.958C366.905 226.55 366.803 226.058 366.803 225.482C366.803 224.906 366.911 224.39 367.127 223.934C367.343 223.466 367.649 223.07 368.045 222.746C368.441 222.422 368.921 222.176 369.485 222.008C370.049 221.828 370.685 221.738 371.393 221.738C372.233 221.738 372.959 221.828 373.571 222.008C374.183 222.188 374.687 222.386 375.083 222.602L374.273 224.816C373.925 224.636 373.535 224.48 373.103 224.348C372.683 224.204 372.173 224.132 371.573 224.132C370.901 224.132 370.415 224.228 370.115 224.42C369.827 224.6 369.683 224.882 369.683 225.266C369.683 225.494 369.737 225.686 369.845 225.842C369.953 225.998 370.103 226.142 370.295 226.274C370.499 226.394 370.727 226.508 370.979 226.616C371.243 226.712 371.531 226.814 371.843 226.922C372.491 227.162 373.055 227.402 373.535 227.642C374.015 227.87 374.411 228.14 374.723 228.452C375.047 228.764 375.287 229.13 375.443 229.55C375.599 229.97 375.677 230.48 375.677 231.08C375.677 232.244 375.269 233.15 374.453 233.798C373.637 234.434 372.407 234.752 370.763 234.752C370.211 234.752 369.713 234.716 369.269 234.644C368.825 234.584 368.429 234.506 368.081 234.41C367.745 234.314 367.451 234.212 367.199 234.104C366.959 233.996 366.755 233.894 366.587 233.798L367.379 231.566C367.751 231.77 368.207 231.956 368.747 232.124C369.299 232.28 369.971 232.358 370.763 232.358ZM380.339 234.5H377.657V225.032H380.339V234.5ZM380.591 222.296C380.591 222.788 380.429 223.178 380.105 223.466C379.793 223.742 379.421 223.88 378.989 223.88C378.557 223.88 378.179 223.742 377.855 223.466C377.543 223.178 377.387 222.788 377.387 222.296C377.387 221.804 377.543 221.42 377.855 221.144C378.179 220.856 378.557 220.712 378.989 220.712C379.421 220.712 379.793 220.856 380.105 221.144C380.429 221.42 380.591 221.804 380.591 222.296ZM389.971 226.832C389.755 227.072 389.461 227.396 389.089 227.804C388.729 228.212 388.339 228.662 387.919 229.154C387.499 229.646 387.073 230.162 386.641 230.702C386.221 231.242 385.837 231.764 385.489 232.268H390.061V234.5H382.231V232.916C382.483 232.484 382.783 232.022 383.131 231.53C383.491 231.026 383.863 230.522 384.247 230.018C384.643 229.514 385.033 229.028 385.417 228.56C385.801 228.08 386.155 227.648 386.479 227.264H382.447V225.032H389.971V226.832ZM391.147 229.838C391.147 228.998 391.273 228.266 391.525 227.642C391.789 227.006 392.131 226.478 392.551 226.058C392.971 225.638 393.451 225.32 393.991 225.104C394.543 224.888 395.107 224.78 395.683 224.78C397.027 224.78 398.089 225.194 398.869 226.022C399.649 226.838 400.039 228.044 400.039 229.64C400.039 229.796 400.033 229.97 400.021 230.162C400.009 230.342 399.997 230.504 399.985 230.648H393.901C393.961 231.2 394.219 231.638 394.675 231.962C395.131 232.286 395.743 232.448 396.511 232.448C397.003 232.448 397.483 232.406 397.951 232.322C398.431 232.226 398.821 232.112 399.121 231.98L399.481 234.158C399.337 234.23 399.145 234.302 398.905 234.374C398.665 234.446 398.395 234.506 398.095 234.554C397.807 234.614 397.495 234.662 397.159 234.698C396.823 234.734 396.487 234.752 396.151 234.752C395.299 234.752 394.555 234.626 393.919 234.374C393.295 234.122 392.773 233.78 392.353 233.348C391.945 232.904 391.639 232.382 391.435 231.782C391.243 231.182 391.147 230.534 391.147 229.838ZM397.447 228.812C397.435 228.584 397.393 228.362 397.321 228.146C397.261 227.93 397.159 227.738 397.015 227.57C396.883 227.402 396.709 227.264 396.493 227.156C396.289 227.048 396.031 226.994 395.719 226.994C395.419 226.994 395.161 227.048 394.945 227.156C394.729 227.252 394.549 227.384 394.405 227.552C394.261 227.72 394.147 227.918 394.063 228.146C393.991 228.362 393.937 228.584 393.901 228.812H397.447Z" fill="black"/>
</g>
<g filter="url(#filter2_d_282_93)">
<rect x="561" y="98" width="180" height="180" rx="20" fill="white"/>
<path d="M664.497 213.5C662.641 209.788 660.593 206.044 658.353 202.268C656.177 198.428 653.649 194.524 650.769 190.556C649.873 191.708 648.721 193.308 647.313 195.356C645.969 197.404 644.593 199.58 643.185 201.884C641.841 204.188 640.561 206.396 639.345 208.508C638.129 210.62 637.233 212.284 636.657 213.5H619.569C622.385 208.316 625.649 202.876 629.361 197.18C633.137 191.484 637.329 185.436 641.937 179.036L620.529 146.972H638.673L651.633 167.708L664.305 146.972H681.393L660.273 179.228C665.649 186.204 670.161 192.668 673.809 198.62C677.457 204.508 680.337 209.468 682.449 213.5H664.497Z" fill="url(#paint2_linear_282_93)"/>
<path d="M595.011 237.026C595.227 237.422 595.473 237.914 595.749 238.502C596.037 239.078 596.331 239.708 596.631 240.392C596.943 241.064 597.249 241.754 597.549 242.462C597.849 243.17 598.131 243.836 598.395 244.46C598.659 243.836 598.941 243.17 599.241 242.462C599.541 241.754 599.841 241.064 600.141 240.392C600.453 239.708 600.747 239.078 601.023 238.502C601.311 237.914 601.563 237.422 601.779 237.026H604.335C604.455 237.854 604.563 238.784 604.659 239.816C604.767 240.836 604.857 241.904 604.929 243.02C605.013 244.124 605.085 245.234 605.145 246.35C605.217 247.466 605.277 248.516 605.325 249.5H602.589C602.553 248.288 602.505 246.968 602.445 245.54C602.385 244.112 602.295 242.672 602.175 241.22C601.959 241.724 601.719 242.282 601.455 242.894C601.191 243.506 600.927 244.118 600.663 244.73C600.411 245.342 600.165 245.93 599.925 246.494C599.685 247.046 599.481 247.52 599.313 247.916H597.351C597.183 247.52 596.979 247.046 596.739 246.494C596.499 245.93 596.247 245.342 595.983 244.73C595.731 244.118 595.473 243.506 595.209 242.894C594.945 242.282 594.705 241.724 594.489 241.22C594.369 242.672 594.279 244.112 594.219 245.54C594.159 246.968 594.111 248.288 594.075 249.5H591.339C591.387 248.516 591.441 247.466 591.501 246.35C591.573 245.234 591.645 244.124 591.717 243.02C591.801 241.904 591.891 240.836 591.987 239.816C592.095 238.784 592.209 237.854 592.329 237.026H595.011ZM612.161 242.156C612.665 241.304 613.145 240.452 613.601 239.6C614.057 238.748 614.477 237.89 614.861 237.026H617.957C617.273 238.37 616.565 239.672 615.833 240.932C615.101 242.192 614.327 243.458 613.511 244.73V249.5H610.703V244.766C609.887 243.494 609.107 242.222 608.363 240.95C607.631 239.678 606.923 238.37 606.239 237.026H609.497C609.881 237.89 610.295 238.748 610.739 239.6C611.183 240.452 611.657 241.304 612.161 242.156ZM623.234 236.882C625.094 236.882 626.522 237.212 627.518 237.872C628.514 238.52 629.012 239.588 629.012 241.076C629.012 242.576 628.508 243.662 627.5 244.334C626.492 244.994 625.052 245.324 623.18 245.324H622.298V249.5H619.49V237.206C620.102 237.086 620.75 237.002 621.434 236.954C622.118 236.906 622.718 236.882 623.234 236.882ZM623.414 239.276C623.21 239.276 623.006 239.282 622.802 239.294C622.61 239.306 622.442 239.318 622.298 239.33V242.93H623.18C624.152 242.93 624.884 242.798 625.376 242.534C625.868 242.27 626.114 241.778 626.114 241.058C626.114 240.71 626.048 240.422 625.916 240.194C625.796 239.966 625.616 239.786 625.376 239.654C625.148 239.51 624.866 239.414 624.53 239.366C624.194 239.306 623.822 239.276 623.414 239.276ZM638.8 247.358C639.196 247.358 639.52 247.328 639.772 247.268C640.036 247.196 640.246 247.106 640.402 246.998C640.558 246.878 640.666 246.74 640.726 246.584C640.786 246.428 640.816 246.254 640.816 246.062C640.816 245.654 640.624 245.318 640.24 245.054C639.856 244.778 639.196 244.484 638.26 244.172C637.852 244.028 637.444 243.866 637.036 243.686C636.628 243.494 636.262 243.26 635.938 242.984C635.614 242.696 635.35 242.354 635.146 241.958C634.942 241.55 634.84 241.058 634.84 240.482C634.84 239.906 634.948 239.39 635.164 238.934C635.38 238.466 635.686 238.07 636.082 237.746C636.478 237.422 636.958 237.176 637.522 237.008C638.086 236.828 638.722 236.738 639.43 236.738C640.27 236.738 640.996 236.828 641.608 237.008C642.22 237.188 642.724 237.386 643.12 237.602L642.31 239.816C641.962 239.636 641.572 239.48 641.14 239.348C640.72 239.204 640.21 239.132 639.61 239.132C638.938 239.132 638.452 239.228 638.152 239.42C637.864 239.6 637.72 239.882 637.72 240.266C637.72 240.494 637.774 240.686 637.882 240.842C637.99 240.998 638.14 241.142 638.332 241.274C638.536 241.394 638.764 241.508 639.016 241.616C639.28 241.712 639.568 241.814 639.88 241.922C640.528 242.162 641.092 242.402 641.572 242.642C642.052 242.87 642.448 243.14 642.76 243.452C643.084 243.764 643.324 244.13 643.48 244.55C643.636 244.97 643.714 245.48 643.714 246.08C643.714 247.244 643.306 248.15 642.49 248.798C641.674 249.434 640.444 249.752 638.8 249.752C638.248 249.752 637.75 249.716 637.306 249.644C636.862 249.584 636.466 249.506 636.118 249.41C635.782 249.314 635.488 249.212 635.236 249.104C634.996 248.996 634.792 248.894 634.624 248.798L635.416 246.566C635.788 246.77 636.244 246.956 636.784 247.124C637.336 247.28 638.008 247.358 638.8 247.358ZM645.605 237.674L648.287 237.242V240.032H651.509V242.264H648.287V245.594C648.287 246.158 648.383 246.608 648.575 246.944C648.779 247.28 649.181 247.448 649.781 247.448C650.069 247.448 650.363 247.424 650.663 247.376C650.975 247.316 651.257 247.238 651.509 247.142L651.887 249.23C651.563 249.362 651.203 249.476 650.807 249.572C650.411 249.668 649.925 249.716 649.349 249.716C648.617 249.716 648.011 249.62 647.531 249.428C647.051 249.224 646.667 248.948 646.379 248.6C646.091 248.24 645.887 247.808 645.767 247.304C645.659 246.8 645.605 246.242 645.605 245.63V237.674ZM661.775 249.176C661.319 249.308 660.731 249.428 660.011 249.536C659.291 249.656 658.535 249.716 657.743 249.716C656.939 249.716 656.267 249.608 655.727 249.392C655.199 249.176 654.779 248.876 654.467 248.492C654.155 248.096 653.933 247.628 653.801 247.088C653.669 246.548 653.603 245.954 653.603 245.306V240.032H656.285V244.982C656.285 245.846 656.399 246.47 656.627 246.854C656.855 247.238 657.281 247.43 657.905 247.43C658.097 247.43 658.301 247.424 658.517 247.412C658.733 247.388 658.925 247.364 659.093 247.34V240.032H661.775V249.176ZM666.578 244.694C666.578 245.522 666.764 246.188 667.136 246.692C667.508 247.196 668.06 247.448 668.792 247.448C669.032 247.448 669.254 247.442 669.458 247.43C669.662 247.406 669.83 247.382 669.962 247.358V242.48C669.794 242.372 669.572 242.282 669.296 242.21C669.032 242.138 668.762 242.102 668.486 242.102C667.214 242.102 666.578 242.966 666.578 244.694ZM672.644 249.194C672.404 249.266 672.128 249.338 671.816 249.41C671.504 249.47 671.174 249.524 670.826 249.572C670.49 249.62 670.142 249.656 669.782 249.68C669.434 249.716 669.098 249.734 668.774 249.734C667.994 249.734 667.298 249.62 666.686 249.392C666.074 249.164 665.558 248.84 665.138 248.42C664.718 247.988 664.394 247.472 664.166 246.872C663.95 246.26 663.842 245.576 663.842 244.82C663.842 244.052 663.938 243.362 664.13 242.75C664.322 242.126 664.598 241.598 664.958 241.166C665.318 240.734 665.756 240.404 666.272 240.176C666.8 239.948 667.4 239.834 668.072 239.834C668.444 239.834 668.774 239.87 669.062 239.942C669.362 240.014 669.662 240.116 669.962 240.248V235.964L672.644 235.532V249.194ZM674.706 244.838C674.706 243.998 674.832 243.266 675.084 242.642C675.348 242.006 675.69 241.478 676.11 241.058C676.53 240.638 677.01 240.32 677.55 240.104C678.102 239.888 678.666 239.78 679.242 239.78C680.586 239.78 681.648 240.194 682.428 241.022C683.208 241.838 683.598 243.044 683.598 244.64C683.598 244.796 683.592 244.97 683.58 245.162C683.568 245.342 683.556 245.504 683.544 245.648H677.46C677.52 246.2 677.778 246.638 678.234 246.962C678.69 247.286 679.302 247.448 680.07 247.448C680.562 247.448 681.042 247.406 681.51 247.322C681.99 247.226 682.38 247.112 682.68 246.98L683.04 249.158C682.896 249.23 682.704 249.302 682.464 249.374C682.224 249.446 681.954 249.506 681.654 249.554C681.366 249.614 681.054 249.662 680.718 249.698C680.382 249.734 680.046 249.752 679.71 249.752C678.858 249.752 678.114 249.626 677.478 249.374C676.854 249.122 676.332 248.78 675.912 248.348C675.504 247.904 675.198 247.382 674.994 246.782C674.802 246.182 674.706 245.534 674.706 244.838ZM681.006 243.812C680.994 243.584 680.952 243.362 680.88 243.146C680.82 242.93 680.718 242.738 680.574 242.57C680.442 242.402 680.268 242.264 680.052 242.156C679.848 242.048 679.59 241.994 679.278 241.994C678.978 241.994 678.72 242.048 678.504 242.156C678.288 242.252 678.108 242.384 677.964 242.552C677.82 242.72 677.706 242.918 677.622 243.146C677.55 243.362 677.496 243.584 677.46 243.812H681.006ZM685.667 240.356C686.123 240.224 686.711 240.104 687.431 239.996C688.151 239.876 688.907 239.816 689.699 239.816C690.503 239.816 691.169 239.924 691.697 240.14C692.237 240.344 692.663 240.638 692.975 241.022C693.287 241.406 693.509 241.862 693.641 242.39C693.773 242.918 693.839 243.506 693.839 244.154V249.5H691.157V244.478C691.157 243.614 691.043 243.002 690.815 242.642C690.587 242.282 690.161 242.102 689.537 242.102C689.345 242.102 689.141 242.114 688.925 242.138C688.709 242.15 688.517 242.168 688.349 242.192V249.5H685.667V240.356ZM696.177 237.674L698.859 237.242V240.032H702.081V242.264H698.859V245.594C698.859 246.158 698.955 246.608 699.147 246.944C699.351 247.28 699.753 247.448 700.353 247.448C700.641 247.448 700.935 247.424 701.235 247.376C701.547 247.316 701.829 247.238 702.081 247.142L702.459 249.23C702.135 249.362 701.775 249.476 701.379 249.572C700.983 249.668 700.497 249.716 699.921 249.716C699.189 249.716 698.583 249.62 698.103 249.428C697.623 249.224 697.239 248.948 696.951 248.6C696.663 248.24 696.459 247.808 696.339 247.304C696.231 246.8 696.177 246.242 696.177 245.63V237.674ZM706.983 247.574C707.475 247.574 707.823 247.526 708.027 247.43C708.231 247.334 708.333 247.148 708.333 246.872C708.333 246.656 708.201 246.47 707.937 246.314C707.673 246.146 707.271 245.96 706.731 245.756C706.311 245.6 705.927 245.438 705.579 245.27C705.243 245.102 704.955 244.904 704.715 244.676C704.475 244.436 704.289 244.154 704.157 243.83C704.025 243.506 703.959 243.116 703.959 242.66C703.959 241.772 704.289 241.07 704.949 240.554C705.609 240.038 706.515 239.78 707.667 239.78C708.243 239.78 708.795 239.834 709.323 239.942C709.851 240.038 710.271 240.146 710.583 240.266L710.115 242.354C709.803 242.246 709.461 242.15 709.089 242.066C708.729 241.982 708.321 241.94 707.865 241.94C707.025 241.94 706.605 242.174 706.605 242.642C706.605 242.75 706.623 242.846 706.659 242.93C706.695 243.014 706.767 243.098 706.875 243.182C706.983 243.254 707.127 243.338 707.307 243.434C707.499 243.518 707.739 243.614 708.027 243.722C708.615 243.938 709.101 244.154 709.485 244.37C709.869 244.574 710.169 244.802 710.385 245.054C710.613 245.294 710.769 245.564 710.853 245.864C710.949 246.164 710.997 246.512 710.997 246.908C710.997 247.844 710.643 248.552 709.935 249.032C709.239 249.512 708.249 249.752 706.965 249.752C706.125 249.752 705.423 249.68 704.859 249.536C704.307 249.392 703.923 249.272 703.707 249.176L704.157 246.998C704.613 247.178 705.081 247.322 705.561 247.43C706.041 247.526 706.515 247.574 706.983 247.574Z" fill="black"/>
</g>
<g filter="url(#filter3_d_282_93)">
<rect x="321" y="557" width="140" height="140" rx="20" fill="white"/>
<path d="M346.548 601.596C346.884 602.212 347.267 602.977 347.696 603.892C348.144 604.788 348.602 605.768 349.068 606.832C349.554 607.877 350.03 608.951 350.496 610.052C350.963 611.153 351.402 612.189 351.812 613.16C352.223 612.189 352.662 611.153 353.128 610.052C353.595 608.951 354.062 607.877 354.528 606.832C355.014 605.768 355.471 604.788 355.9 603.892C356.348 602.977 356.74 602.212 357.076 601.596H361.052C361.239 602.884 361.407 604.331 361.556 605.936C361.724 607.523 361.864 609.184 361.976 610.92C362.107 612.637 362.219 614.364 362.312 616.1C362.424 617.836 362.518 619.469 362.592 621H358.336C358.28 619.115 358.206 617.061 358.112 614.84C358.019 612.619 357.879 610.379 357.692 608.12C357.356 608.904 356.983 609.772 356.572 610.724C356.162 611.676 355.751 612.628 355.34 613.58C354.948 614.532 354.566 615.447 354.192 616.324C353.819 617.183 353.502 617.92 353.24 618.536H350.188C349.927 617.92 349.61 617.183 349.236 616.324C348.863 615.447 348.471 614.532 348.06 613.58C347.668 612.628 347.267 611.676 346.856 610.724C346.446 609.772 346.072 608.904 345.736 608.12C345.55 610.379 345.41 612.619 345.316 614.84C345.223 617.061 345.148 619.115 345.092 621H340.836C340.911 619.469 340.995 617.836 341.088 616.1C341.2 614.364 341.312 612.637 341.424 610.92C341.555 609.184 341.695 607.523 341.844 605.936C342.012 604.331 342.19 602.884 342.376 601.596H346.548ZM380.021 613.608C380.021 614.765 379.853 615.829 379.517 616.8C379.181 617.752 378.696 618.573 378.061 619.264C377.426 619.936 376.661 620.459 375.765 620.832C374.888 621.205 373.898 621.392 372.797 621.392C371.714 621.392 370.725 621.205 369.829 620.832C368.952 620.459 368.196 619.936 367.561 619.264C366.926 618.573 366.432 617.752 366.077 616.8C365.722 615.829 365.545 614.765 365.545 613.608C365.545 612.451 365.722 611.396 366.077 610.444C366.45 609.492 366.954 608.68 367.589 608.008C368.242 607.336 369.008 606.813 369.885 606.44C370.781 606.067 371.752 605.88 372.797 605.88C373.861 605.88 374.832 606.067 375.709 606.44C376.605 606.813 377.37 607.336 378.005 608.008C378.64 608.68 379.134 609.492 379.489 610.444C379.844 611.396 380.021 612.451 380.021 613.608ZM375.765 613.608C375.765 612.32 375.504 611.312 374.981 610.584C374.477 609.837 373.749 609.464 372.797 609.464C371.845 609.464 371.108 609.837 370.585 610.584C370.062 611.312 369.801 612.32 369.801 613.608C369.801 614.896 370.062 615.923 370.585 616.688C371.108 617.435 371.845 617.808 372.797 617.808C373.749 617.808 374.477 617.435 374.981 616.688C375.504 615.923 375.765 614.896 375.765 613.608ZM386.809 613.524C386.809 614.812 387.098 615.848 387.677 616.632C388.256 617.416 389.114 617.808 390.253 617.808C390.626 617.808 390.972 617.799 391.289 617.78C391.606 617.743 391.868 617.705 392.073 617.668V610.08C391.812 609.912 391.466 609.772 391.037 609.66C390.626 609.548 390.206 609.492 389.777 609.492C387.798 609.492 386.809 610.836 386.809 613.524ZM396.245 620.524C395.872 620.636 395.442 620.748 394.957 620.86C394.472 620.953 393.958 621.037 393.417 621.112C392.894 621.187 392.353 621.243 391.793 621.28C391.252 621.336 390.729 621.364 390.225 621.364C389.012 621.364 387.929 621.187 386.977 620.832C386.025 620.477 385.222 619.973 384.569 619.32C383.916 618.648 383.412 617.845 383.057 616.912C382.721 615.96 382.553 614.896 382.553 613.72C382.553 612.525 382.702 611.452 383.001 610.5C383.3 609.529 383.729 608.708 384.289 608.036C384.849 607.364 385.53 606.851 386.333 606.496C387.154 606.141 388.088 605.964 389.133 605.964C389.712 605.964 390.225 606.02 390.673 606.132C391.14 606.244 391.606 606.403 392.073 606.608V599.944L396.245 599.272V620.524ZM399.451 613.748C399.451 612.441 399.647 611.303 400.039 610.332C400.45 609.343 400.982 608.521 401.635 607.868C402.289 607.215 403.035 606.72 403.875 606.384C404.734 606.048 405.611 605.88 406.507 605.88C408.598 605.88 410.25 606.524 411.463 607.812C412.677 609.081 413.283 610.957 413.283 613.44C413.283 613.683 413.274 613.953 413.255 614.252C413.237 614.532 413.218 614.784 413.199 615.008H403.735C403.829 615.867 404.23 616.548 404.939 617.052C405.649 617.556 406.601 617.808 407.795 617.808C408.561 617.808 409.307 617.743 410.035 617.612C410.782 617.463 411.389 617.285 411.855 617.08L412.415 620.468C412.191 620.58 411.893 620.692 411.519 620.804C411.146 620.916 410.726 621.009 410.259 621.084C409.811 621.177 409.326 621.252 408.803 621.308C408.281 621.364 407.758 621.392 407.235 621.392C405.91 621.392 404.753 621.196 403.763 620.804C402.793 620.412 401.981 619.88 401.327 619.208C400.693 618.517 400.217 617.705 399.899 616.772C399.601 615.839 399.451 614.831 399.451 613.748ZM409.251 612.152C409.233 611.797 409.167 611.452 409.055 611.116C408.962 610.78 408.803 610.481 408.579 610.22C408.374 609.959 408.103 609.744 407.767 609.576C407.45 609.408 407.049 609.324 406.563 609.324C406.097 609.324 405.695 609.408 405.359 609.576C405.023 609.725 404.743 609.931 404.519 610.192C404.295 610.453 404.118 610.761 403.987 611.116C403.875 611.452 403.791 611.797 403.735 612.152H409.251ZM425.379 609.968C425.006 609.875 424.567 609.781 424.063 609.688C423.559 609.576 423.018 609.52 422.439 609.52C422.178 609.52 421.86 609.548 421.487 609.604C421.132 609.641 420.862 609.688 420.675 609.744V621H416.503V607.056C417.25 606.795 418.127 606.552 419.135 606.328C420.162 606.085 421.3 605.964 422.551 605.964C422.775 605.964 423.046 605.983 423.363 606.02C423.68 606.039 423.998 606.076 424.315 606.132C424.632 606.169 424.95 606.225 425.267 606.3C425.584 606.356 425.855 606.431 426.079 606.524L425.379 609.968ZM428.315 606.776C429.025 606.571 429.939 606.384 431.059 606.216C432.179 606.029 433.355 605.936 434.587 605.936C435.838 605.936 436.874 606.104 437.695 606.44C438.535 606.757 439.198 607.215 439.683 607.812C440.169 608.409 440.514 609.119 440.719 609.94C440.925 610.761 441.027 611.676 441.027 612.684V621H436.855V613.188C436.855 611.844 436.678 610.892 436.323 610.332C435.969 609.772 435.306 609.492 434.335 609.492C434.037 609.492 433.719 609.511 433.383 609.548C433.047 609.567 432.749 609.595 432.487 609.632V621H428.315V606.776ZM333.043 653V633.596H346.035V637.264H337.411V641.324H345.083V644.992H337.411V653H333.043ZM353.785 650.088C354.196 650.088 354.588 650.079 354.961 650.06C355.335 650.041 355.633 650.013 355.857 649.976V646.812C355.689 646.775 355.437 646.737 355.101 646.7C354.765 646.663 354.457 646.644 354.177 646.644C353.785 646.644 353.412 646.672 353.057 646.728C352.721 646.765 352.423 646.849 352.161 646.98C351.9 647.111 351.695 647.288 351.545 647.512C351.396 647.736 351.321 648.016 351.321 648.352C351.321 649.005 351.536 649.463 351.965 649.724C352.413 649.967 353.02 650.088 353.785 650.088ZM353.449 637.88C354.681 637.88 355.708 638.02 356.529 638.3C357.351 638.58 358.004 638.981 358.489 639.504C358.993 640.027 359.348 640.661 359.553 641.408C359.759 642.155 359.861 642.985 359.861 643.9V652.58C359.264 652.711 358.433 652.86 357.369 653.028C356.305 653.215 355.017 653.308 353.505 653.308C352.553 653.308 351.685 653.224 350.901 653.056C350.136 652.888 349.473 652.617 348.913 652.244C348.353 651.852 347.924 651.348 347.625 650.732C347.327 650.116 347.177 649.36 347.177 648.464C347.177 647.605 347.345 646.877 347.681 646.28C348.036 645.683 348.503 645.207 349.081 644.852C349.66 644.497 350.323 644.245 351.069 644.096C351.816 643.928 352.591 643.844 353.393 643.844C353.935 643.844 354.411 643.872 354.821 643.928C355.251 643.965 355.596 644.021 355.857 644.096V643.704C355.857 642.995 355.643 642.425 355.213 641.996C354.784 641.567 354.037 641.352 352.973 641.352C352.264 641.352 351.564 641.408 350.873 641.52C350.183 641.613 349.585 641.753 349.081 641.94L348.549 638.58C348.792 638.505 349.091 638.431 349.445 638.356C349.819 638.263 350.22 638.188 350.649 638.132C351.079 638.057 351.527 638.001 351.993 637.964C352.479 637.908 352.964 637.88 353.449 637.88ZM362.934 645.636C362.934 644.572 363.102 643.573 363.438 642.64C363.792 641.688 364.296 640.867 364.95 640.176C365.603 639.467 366.396 638.907 367.33 638.496C368.263 638.085 369.327 637.88 370.522 637.88C371.306 637.88 372.024 637.955 372.678 638.104C373.331 638.235 373.966 638.431 374.582 638.692L373.714 642.024C373.322 641.875 372.892 641.744 372.426 641.632C371.959 641.52 371.436 641.464 370.858 641.464C369.626 641.464 368.702 641.847 368.086 642.612C367.488 643.377 367.19 644.385 367.19 645.636C367.19 646.961 367.47 647.988 368.03 648.716C368.608 649.444 369.607 649.808 371.026 649.808C371.53 649.808 372.071 649.761 372.65 649.668C373.228 649.575 373.76 649.425 374.246 649.22L374.834 652.636C374.348 652.841 373.742 653.019 373.014 653.168C372.286 653.317 371.483 653.392 370.606 653.392C369.262 653.392 368.104 653.196 367.134 652.804C366.163 652.393 365.36 651.843 364.726 651.152C364.11 650.461 363.652 649.649 363.354 648.716C363.074 647.764 362.934 646.737 362.934 645.636ZM381.806 653H377.634V638.272H381.806V653ZM382.198 634.016C382.198 634.781 381.946 635.388 381.442 635.836C380.956 636.265 380.378 636.48 379.706 636.48C379.034 636.48 378.446 636.265 377.942 635.836C377.456 635.388 377.214 634.781 377.214 634.016C377.214 633.251 377.456 632.653 377.942 632.224C378.446 631.776 379.034 631.552 379.706 631.552C380.378 631.552 380.956 631.776 381.442 632.224C381.946 632.653 382.198 633.251 382.198 634.016ZM391.608 653.28C390.394 653.261 389.405 653.131 388.64 652.888C387.893 652.645 387.296 652.309 386.848 651.88C386.418 651.432 386.12 650.9 385.952 650.284C385.802 649.649 385.728 648.94 385.728 648.156V631.944L389.9 631.272V647.316C389.9 647.689 389.928 648.025 389.984 648.324C390.04 648.623 390.142 648.875 390.292 649.08C390.46 649.285 390.693 649.453 390.992 649.584C391.29 649.715 391.692 649.799 392.196 649.836L391.608 653.28ZM398.759 653H394.587V638.272H398.759V653ZM399.151 634.016C399.151 634.781 398.899 635.388 398.395 635.836C397.91 636.265 397.331 636.48 396.659 636.48C395.987 636.48 395.399 636.265 394.895 635.836C394.41 635.388 394.167 634.781 394.167 634.016C394.167 633.251 394.41 632.653 394.895 632.224C395.399 631.776 395.987 631.552 396.659 631.552C397.331 631.552 397.91 631.776 398.395 632.224C398.899 632.653 399.151 633.251 399.151 634.016ZM402.541 634.604L406.713 633.932V638.272H411.725V641.744H406.713V646.924C406.713 647.801 406.862 648.501 407.161 649.024C407.478 649.547 408.103 649.808 409.037 649.808C409.485 649.808 409.942 649.771 410.409 649.696C410.894 649.603 411.333 649.481 411.725 649.332L412.313 652.58C411.809 652.785 411.249 652.963 410.633 653.112C410.017 653.261 409.261 653.336 408.365 653.336C407.226 653.336 406.283 653.187 405.537 652.888C404.79 652.571 404.193 652.141 403.745 651.6C403.297 651.04 402.979 650.368 402.793 649.584C402.625 648.8 402.541 647.932 402.541 646.98V634.604ZM419.294 653H415.122V638.272H419.294V653ZM419.686 634.016C419.686 634.781 419.434 635.388 418.93 635.836C418.445 636.265 417.866 636.48 417.194 636.48C416.522 636.48 415.934 636.265 415.43 635.836C414.945 635.388 414.702 634.781 414.702 634.016C414.702 633.251 414.945 632.653 415.43 632.224C415.934 631.776 416.522 631.552 417.194 631.552C417.866 631.552 418.445 631.776 418.93 632.224C419.434 632.653 419.686 633.251 419.686 634.016ZM422.516 645.748C422.516 644.441 422.712 643.303 423.104 642.332C423.515 641.343 424.047 640.521 424.7 639.868C425.353 639.215 426.1 638.72 426.94 638.384C427.799 638.048 428.676 637.88 429.572 637.88C431.663 637.88 433.315 638.524 434.528 639.812C435.741 641.081 436.348 642.957 436.348 645.44C436.348 645.683 436.339 645.953 436.32 646.252C436.301 646.532 436.283 646.784 436.264 647.008H426.8C426.893 647.867 427.295 648.548 428.004 649.052C428.713 649.556 429.665 649.808 430.86 649.808C431.625 649.808 432.372 649.743 433.1 649.612C433.847 649.463 434.453 649.285 434.92 649.08L435.48 652.468C435.256 652.58 434.957 652.692 434.584 652.804C434.211 652.916 433.791 653.009 433.324 653.084C432.876 653.177 432.391 653.252 431.868 653.308C431.345 653.364 430.823 653.392 430.3 653.392C428.975 653.392 427.817 653.196 426.828 652.804C425.857 652.412 425.045 651.88 424.392 651.208C423.757 650.517 423.281 649.705 422.964 648.772C422.665 647.839 422.516 646.831 422.516 645.748ZM432.316 644.152C432.297 643.797 432.232 643.452 432.12 643.116C432.027 642.78 431.868 642.481 431.644 642.22C431.439 641.959 431.168 641.744 430.832 641.576C430.515 641.408 430.113 641.324 429.628 641.324C429.161 641.324 428.76 641.408 428.424 641.576C428.088 641.725 427.808 641.931 427.584 642.192C427.36 642.453 427.183 642.761 427.052 643.116C426.94 643.452 426.856 643.797 426.8 644.152H432.316ZM443.795 650.004C444.561 650.004 445.102 649.929 445.419 649.78C445.737 649.631 445.895 649.341 445.895 648.912C445.895 648.576 445.69 648.287 445.279 648.044C444.869 647.783 444.243 647.493 443.403 647.176C442.75 646.933 442.153 646.681 441.611 646.42C441.089 646.159 440.641 645.851 440.267 645.496C439.894 645.123 439.605 644.684 439.399 644.18C439.194 643.676 439.091 643.069 439.091 642.36C439.091 640.979 439.605 639.887 440.631 639.084C441.658 638.281 443.067 637.88 444.859 637.88C445.755 637.88 446.614 637.964 447.435 638.132C448.257 638.281 448.91 638.449 449.395 638.636L448.667 641.884C448.182 641.716 447.65 641.567 447.071 641.436C446.511 641.305 445.877 641.24 445.167 641.24C443.861 641.24 443.207 641.604 443.207 642.332C443.207 642.5 443.235 642.649 443.291 642.78C443.347 642.911 443.459 643.041 443.627 643.172C443.795 643.284 444.019 643.415 444.299 643.564C444.598 643.695 444.971 643.844 445.419 644.012C446.334 644.348 447.09 644.684 447.687 645.02C448.285 645.337 448.751 645.692 449.087 646.084C449.442 646.457 449.685 646.877 449.815 647.344C449.965 647.811 450.039 648.352 450.039 648.968C450.039 650.424 449.489 651.525 448.387 652.272C447.305 653.019 445.765 653.392 443.767 653.392C442.461 653.392 441.369 653.28 440.491 653.056C439.633 652.832 439.035 652.645 438.699 652.496L439.399 649.108C440.109 649.388 440.837 649.612 441.583 649.78C442.33 649.929 443.067 650.004 443.795 650.004Z" fill="url(#paint3_linear_282_93)"/>
</g>
<g filter="url(#filter4_d_282_93)">
<rect x="411" y="335" width="150" height="150" rx="20" fill="white"/>
<path d="M426.441 368.596C426.777 369.212 427.159 369.977 427.589 370.892C428.037 371.788 428.494 372.768 428.961 373.832C429.446 374.877 429.922 375.951 430.389 377.052C430.855 378.153 431.294 379.189 431.705 380.16C432.115 379.189 432.554 378.153 433.021 377.052C433.487 375.951 433.954 374.877 434.421 373.832C434.906 372.768 435.363 371.788 435.793 370.892C436.241 369.977 436.633 369.212 436.969 368.596H440.945C441.131 369.884 441.299 371.331 441.449 372.936C441.617 374.523 441.757 376.184 441.869 377.92C441.999 379.637 442.111 381.364 442.205 383.1C442.317 384.836 442.41 386.469 442.485 388H438.229C438.173 386.115 438.098 384.061 438.005 381.84C437.911 379.619 437.771 377.379 437.585 375.12C437.249 375.904 436.875 376.772 436.465 377.724C436.054 378.676 435.643 379.628 435.233 380.58C434.841 381.532 434.458 382.447 434.085 383.324C433.711 384.183 433.394 384.92 433.133 385.536H430.081C429.819 384.92 429.502 384.183 429.129 383.324C428.755 382.447 428.363 381.532 427.953 380.58C427.561 379.628 427.159 378.676 426.749 377.724C426.338 376.772 425.965 375.904 425.629 375.12C425.442 377.379 425.302 379.619 425.209 381.84C425.115 384.061 425.041 386.115 424.985 388H420.729C420.803 386.469 420.887 384.836 420.981 383.1C421.093 381.364 421.205 379.637 421.317 377.92C421.447 376.184 421.587 374.523 421.737 372.936C421.905 371.331 422.082 369.884 422.269 368.596H426.441ZM453.12 376.576C453.904 375.251 454.65 373.925 455.36 372.6C456.069 371.275 456.722 369.94 457.32 368.596H462.136C461.072 370.687 459.97 372.712 458.832 374.672C457.693 376.632 456.489 378.601 455.22 380.58V388H450.852V380.636C449.582 378.657 448.369 376.679 447.212 374.7C446.073 372.721 444.972 370.687 443.908 368.596H448.976C449.573 369.94 450.217 371.275 450.908 372.6C451.598 373.925 452.336 375.251 453.12 376.576ZM470.343 368.372C473.237 368.372 475.458 368.885 477.007 369.912C478.557 370.92 479.331 372.581 479.331 374.896C479.331 377.229 478.547 378.919 476.979 379.964C475.411 380.991 473.171 381.504 470.259 381.504H468.887V388H464.519V368.876C465.471 368.689 466.479 368.559 467.543 368.484C468.607 368.409 469.541 368.372 470.343 368.372ZM470.623 372.096C470.306 372.096 469.989 372.105 469.671 372.124C469.373 372.143 469.111 372.161 468.887 372.18V377.78H470.259C471.771 377.78 472.91 377.575 473.675 377.164C474.441 376.753 474.823 375.988 474.823 374.868C474.823 374.327 474.721 373.879 474.515 373.524C474.329 373.169 474.049 372.889 473.675 372.684C473.321 372.46 472.882 372.311 472.359 372.236C471.837 372.143 471.258 372.096 470.623 372.096ZM488.285 380.636C488.285 379.572 488.453 378.573 488.789 377.64C489.144 376.688 489.648 375.867 490.301 375.176C490.955 374.467 491.748 373.907 492.681 373.496C493.615 373.085 494.679 372.88 495.873 372.88C496.657 372.88 497.376 372.955 498.029 373.104C498.683 373.235 499.317 373.431 499.933 373.692L499.065 377.024C498.673 376.875 498.244 376.744 497.777 376.632C497.311 376.52 496.788 376.464 496.209 376.464C494.977 376.464 494.053 376.847 493.437 377.612C492.84 378.377 492.541 379.385 492.541 380.636C492.541 381.961 492.821 382.988 493.381 383.716C493.96 384.444 494.959 384.808 496.377 384.808C496.881 384.808 497.423 384.761 498.001 384.668C498.58 384.575 499.112 384.425 499.597 384.22L500.185 387.636C499.7 387.841 499.093 388.019 498.365 388.168C497.637 388.317 496.835 388.392 495.957 388.392C494.613 388.392 493.456 388.196 492.485 387.804C491.515 387.393 490.712 386.843 490.077 386.152C489.461 385.461 489.004 384.649 488.705 383.716C488.425 382.764 488.285 381.737 488.285 380.636ZM508.865 388.28C507.652 388.261 506.663 388.131 505.897 387.888C505.151 387.645 504.553 387.309 504.105 386.88C503.676 386.432 503.377 385.9 503.209 385.284C503.06 384.649 502.985 383.94 502.985 383.156V366.944L507.157 366.272V382.316C507.157 382.689 507.185 383.025 507.241 383.324C507.297 383.623 507.4 383.875 507.549 384.08C507.717 384.285 507.951 384.453 508.249 384.584C508.548 384.715 508.949 384.799 509.453 384.836L508.865 388.28ZM517.883 385.088C518.294 385.088 518.686 385.079 519.059 385.06C519.432 385.041 519.731 385.013 519.955 384.976V381.812C519.787 381.775 519.535 381.737 519.199 381.7C518.863 381.663 518.555 381.644 518.275 381.644C517.883 381.644 517.51 381.672 517.155 381.728C516.819 381.765 516.52 381.849 516.259 381.98C515.998 382.111 515.792 382.288 515.643 382.512C515.494 382.736 515.419 383.016 515.419 383.352C515.419 384.005 515.634 384.463 516.063 384.724C516.511 384.967 517.118 385.088 517.883 385.088ZM517.547 372.88C518.779 372.88 519.806 373.02 520.627 373.3C521.448 373.58 522.102 373.981 522.587 374.504C523.091 375.027 523.446 375.661 523.651 376.408C523.856 377.155 523.959 377.985 523.959 378.9V387.58C523.362 387.711 522.531 387.86 521.467 388.028C520.403 388.215 519.115 388.308 517.603 388.308C516.651 388.308 515.783 388.224 514.999 388.056C514.234 387.888 513.571 387.617 513.011 387.244C512.451 386.852 512.022 386.348 511.723 385.732C511.424 385.116 511.275 384.36 511.275 383.464C511.275 382.605 511.443 381.877 511.779 381.28C512.134 380.683 512.6 380.207 513.179 379.852C513.758 379.497 514.42 379.245 515.167 379.096C515.914 378.928 516.688 378.844 517.491 378.844C518.032 378.844 518.508 378.872 518.919 378.928C519.348 378.965 519.694 379.021 519.955 379.096V378.704C519.955 377.995 519.74 377.425 519.311 376.996C518.882 376.567 518.135 376.352 517.071 376.352C516.362 376.352 515.662 376.408 514.971 376.52C514.28 376.613 513.683 376.753 513.179 376.94L512.647 373.58C512.89 373.505 513.188 373.431 513.543 373.356C513.916 373.263 514.318 373.188 514.747 373.132C515.176 373.057 515.624 373.001 516.091 372.964C516.576 372.908 517.062 372.88 517.547 372.88ZM531.959 385.004C532.725 385.004 533.266 384.929 533.583 384.78C533.901 384.631 534.059 384.341 534.059 383.912C534.059 383.576 533.854 383.287 533.443 383.044C533.033 382.783 532.407 382.493 531.567 382.176C530.914 381.933 530.317 381.681 529.775 381.42C529.253 381.159 528.805 380.851 528.431 380.496C528.058 380.123 527.769 379.684 527.563 379.18C527.358 378.676 527.255 378.069 527.255 377.36C527.255 375.979 527.769 374.887 528.795 374.084C529.822 373.281 531.231 372.88 533.023 372.88C533.919 372.88 534.778 372.964 535.599 373.132C536.421 373.281 537.074 373.449 537.559 373.636L536.831 376.884C536.346 376.716 535.814 376.567 535.235 376.436C534.675 376.305 534.041 376.24 533.331 376.24C532.025 376.24 531.371 376.604 531.371 377.332C531.371 377.5 531.399 377.649 531.455 377.78C531.511 377.911 531.623 378.041 531.791 378.172C531.959 378.284 532.183 378.415 532.463 378.564C532.762 378.695 533.135 378.844 533.583 379.012C534.498 379.348 535.254 379.684 535.851 380.02C536.449 380.337 536.915 380.692 537.251 381.084C537.606 381.457 537.849 381.877 537.979 382.344C538.129 382.811 538.203 383.352 538.203 383.968C538.203 385.424 537.653 386.525 536.551 387.272C535.469 388.019 533.929 388.392 531.931 388.392C530.625 388.392 529.533 388.28 528.655 388.056C527.797 387.832 527.199 387.645 526.863 387.496L527.563 384.108C528.273 384.388 529.001 384.612 529.747 384.78C530.494 384.929 531.231 385.004 531.959 385.004ZM545.549 385.004C546.315 385.004 546.856 384.929 547.173 384.78C547.491 384.631 547.649 384.341 547.649 383.912C547.649 383.576 547.444 383.287 547.033 383.044C546.623 382.783 545.997 382.493 545.157 382.176C544.504 381.933 543.907 381.681 543.365 381.42C542.843 381.159 542.395 380.851 542.021 380.496C541.648 380.123 541.359 379.684 541.153 379.18C540.948 378.676 540.845 378.069 540.845 377.36C540.845 375.979 541.359 374.887 542.385 374.084C543.412 373.281 544.821 372.88 546.613 372.88C547.509 372.88 548.368 372.964 549.189 373.132C550.011 373.281 550.664 373.449 551.149 373.636L550.421 376.884C549.936 376.716 549.404 376.567 548.825 376.436C548.265 376.305 547.631 376.24 546.921 376.24C545.615 376.24 544.961 376.604 544.961 377.332C544.961 377.5 544.989 377.649 545.045 377.78C545.101 377.911 545.213 378.041 545.381 378.172C545.549 378.284 545.773 378.415 546.053 378.564C546.352 378.695 546.725 378.844 547.173 379.012C548.088 379.348 548.844 379.684 549.441 380.02C550.039 380.337 550.505 380.692 550.841 381.084C551.196 381.457 551.439 381.877 551.569 382.344C551.719 382.811 551.793 383.352 551.793 383.968C551.793 385.424 551.243 386.525 550.141 387.272C549.059 388.019 547.519 388.392 545.521 388.392C544.215 388.392 543.123 388.28 542.245 388.056C541.387 387.832 540.789 387.645 540.453 387.496L541.153 384.108C541.863 384.388 542.591 384.612 543.337 384.78C544.084 384.929 544.821 385.004 545.549 385.004ZM444.013 412.608C444.013 413.765 443.845 414.829 443.509 415.8C443.173 416.752 442.688 417.573 442.053 418.264C441.419 418.936 440.653 419.459 439.757 419.832C438.88 420.205 437.891 420.392 436.789 420.392C435.707 420.392 434.717 420.205 433.821 419.832C432.944 419.459 432.188 418.936 431.553 418.264C430.919 417.573 430.424 416.752 430.069 415.8C429.715 414.829 429.537 413.765 429.537 412.608C429.537 411.451 429.715 410.396 430.069 409.444C430.443 408.492 430.947 407.68 431.581 407.008C432.235 406.336 433 405.813 433.877 405.44C434.773 405.067 435.744 404.88 436.789 404.88C437.853 404.88 438.824 405.067 439.701 405.44C440.597 405.813 441.363 406.336 441.997 407.008C442.632 407.68 443.127 408.492 443.481 409.444C443.836 410.396 444.013 411.451 444.013 412.608ZM439.757 412.608C439.757 411.32 439.496 410.312 438.973 409.584C438.469 408.837 437.741 408.464 436.789 408.464C435.837 408.464 435.1 408.837 434.577 409.584C434.055 410.312 433.793 411.32 433.793 412.608C433.793 413.896 434.055 414.923 434.577 415.688C435.1 416.435 435.837 416.808 436.789 416.808C437.741 416.808 438.469 416.435 438.973 415.688C439.496 414.923 439.757 413.896 439.757 412.608ZM453.629 398.272C454.413 398.272 455.132 398.356 455.785 398.524C456.438 398.673 456.942 398.823 457.297 398.972L456.485 402.304C456.112 402.136 455.701 402.015 455.253 401.94C454.824 401.847 454.422 401.8 454.049 401.8C453.545 401.8 453.116 401.875 452.761 402.024C452.425 402.155 452.154 402.341 451.949 402.584C451.762 402.827 451.622 403.116 451.529 403.452C451.454 403.788 451.417 404.152 451.417 404.544V405.272H456.569V408.744H451.417V420H447.245V404.488C447.245 402.584 447.777 401.072 448.841 399.952C449.924 398.832 451.52 398.272 453.629 398.272ZM477.712 405.692C477.712 406.401 477.572 407.083 477.292 407.736C477.012 408.389 476.648 409.024 476.2 409.64C475.752 410.237 475.248 410.816 474.688 411.376C474.128 411.936 473.578 412.468 473.036 412.972C472.756 413.233 472.448 413.532 472.112 413.868C471.795 414.185 471.487 414.512 471.188 414.848C470.89 415.184 470.619 415.501 470.376 415.8C470.152 416.08 470.012 416.313 469.956 416.5H478.3V420H465.364C465.327 419.795 465.308 419.533 465.308 419.216C465.308 418.899 465.308 418.675 465.308 418.544C465.308 417.648 465.448 416.827 465.728 416.08C466.027 415.333 466.41 414.643 466.876 414.008C467.343 413.355 467.866 412.748 468.444 412.188C469.042 411.628 469.63 411.068 470.208 410.508C470.656 410.079 471.076 409.677 471.468 409.304C471.86 408.912 472.206 408.539 472.504 408.184C472.803 407.811 473.036 407.447 473.204 407.092C473.372 406.719 473.456 406.345 473.456 405.972C473.456 405.151 473.223 404.572 472.756 404.236C472.29 403.9 471.711 403.732 471.02 403.732C470.516 403.732 470.04 403.816 469.592 403.984C469.163 404.133 468.762 404.32 468.388 404.544C468.034 404.749 467.726 404.964 467.464 405.188C467.203 405.393 467.007 405.561 466.876 405.692L464.804 402.78C465.626 402.015 466.578 401.389 467.66 400.904C468.762 400.4 469.938 400.148 471.188 400.148C472.327 400.148 473.307 400.279 474.128 400.54C474.95 400.801 475.622 401.175 476.144 401.66C476.686 402.127 477.078 402.705 477.32 403.396C477.582 404.068 477.712 404.833 477.712 405.692ZM494.69 410.256C494.69 413.523 494.065 416.033 492.814 417.788C491.582 419.524 489.874 420.392 487.69 420.392C485.506 420.392 483.789 419.524 482.538 417.788C481.306 416.033 480.69 413.523 480.69 410.256C480.69 408.632 480.849 407.195 481.166 405.944C481.502 404.693 481.978 403.639 482.594 402.78C483.21 401.921 483.948 401.268 484.806 400.82C485.665 400.372 486.626 400.148 487.69 400.148C489.874 400.148 491.582 401.025 492.814 402.78C494.065 404.516 494.69 407.008 494.69 410.256ZM490.434 410.256C490.434 409.285 490.388 408.408 490.294 407.624C490.201 406.821 490.052 406.131 489.846 405.552C489.641 404.973 489.361 404.525 489.006 404.208C488.652 403.891 488.213 403.732 487.69 403.732C487.168 403.732 486.729 403.891 486.374 404.208C486.038 404.525 485.758 404.973 485.534 405.552C485.329 406.131 485.18 406.821 485.086 407.624C484.993 408.408 484.946 409.285 484.946 410.256C484.946 411.227 484.993 412.113 485.086 412.916C485.18 413.719 485.329 414.409 485.534 414.988C485.758 415.567 486.038 416.015 486.374 416.332C486.729 416.649 487.168 416.808 487.69 416.808C488.213 416.808 488.652 416.649 489.006 416.332C489.361 416.015 489.641 415.567 489.846 414.988C490.052 414.409 490.201 413.719 490.294 412.916C490.388 412.113 490.434 411.227 490.434 410.256ZM509.54 405.692C509.54 406.401 509.4 407.083 509.12 407.736C508.84 408.389 508.476 409.024 508.028 409.64C507.58 410.237 507.076 410.816 506.516 411.376C505.956 411.936 505.406 412.468 504.864 412.972C504.584 413.233 504.276 413.532 503.94 413.868C503.623 414.185 503.315 414.512 503.016 414.848C502.718 415.184 502.447 415.501 502.204 415.8C501.98 416.08 501.84 416.313 501.784 416.5H510.128V420H497.192C497.155 419.795 497.136 419.533 497.136 419.216C497.136 418.899 497.136 418.675 497.136 418.544C497.136 417.648 497.276 416.827 497.556 416.08C497.855 415.333 498.238 414.643 498.704 414.008C499.171 413.355 499.694 412.748 500.272 412.188C500.87 411.628 501.458 411.068 502.036 410.508C502.484 410.079 502.904 409.677 503.296 409.304C503.688 408.912 504.034 408.539 504.332 408.184C504.631 407.811 504.864 407.447 505.032 407.092C505.2 406.719 505.284 406.345 505.284 405.972C505.284 405.151 505.051 404.572 504.584 404.236C504.118 403.9 503.539 403.732 502.848 403.732C502.344 403.732 501.868 403.816 501.42 403.984C500.991 404.133 500.59 404.32 500.216 404.544C499.862 404.749 499.554 404.964 499.292 405.188C499.031 405.393 498.835 405.561 498.704 405.692L496.632 402.78C497.454 402.015 498.406 401.389 499.488 400.904C500.59 400.4 501.766 400.148 503.016 400.148C504.155 400.148 505.135 400.279 505.956 400.54C506.778 400.801 507.45 401.175 507.972 401.66C508.514 402.127 508.906 402.705 509.148 403.396C509.41 404.068 509.54 404.833 509.54 405.692ZM521.646 414.288C521.646 413.747 521.525 413.271 521.282 412.86C521.04 412.431 520.62 412.076 520.022 411.796C519.425 411.516 518.622 411.301 517.614 411.152C516.606 411.003 515.337 410.928 513.806 410.928C514.012 409.192 514.18 407.428 514.31 405.636C514.441 403.844 514.544 402.164 514.618 400.596H525.118V404.096H518.118C518.081 404.768 518.034 405.421 517.978 406.056C517.941 406.672 517.894 407.213 517.838 407.68C520.564 407.867 522.57 408.511 523.858 409.612C525.165 410.695 525.818 412.207 525.818 414.148C525.818 415.044 525.66 415.875 525.342 416.64C525.025 417.405 524.549 418.068 523.914 418.628C523.28 419.188 522.477 419.627 521.506 419.944C520.554 420.261 519.434 420.42 518.146 420.42C517.642 420.42 517.11 420.383 516.55 420.308C516.009 420.252 515.477 420.168 514.954 420.056C514.45 419.963 513.993 419.86 513.582 419.748C513.172 419.636 512.854 419.524 512.63 419.412L513.386 415.968C513.853 416.173 514.469 416.379 515.234 416.584C516 416.771 516.914 416.864 517.978 416.864C519.266 416.864 520.2 416.612 520.778 416.108C521.357 415.585 521.646 414.979 521.646 414.288ZM534.907 409.752H543.027V413.532H534.907V409.752ZM468.06 437.692C468.06 438.401 467.92 439.083 467.64 439.736C467.36 440.389 466.996 441.024 466.548 441.64C466.1 442.237 465.596 442.816 465.036 443.376C464.476 443.936 463.925 444.468 463.384 444.972C463.104 445.233 462.796 445.532 462.46 445.868C462.143 446.185 461.835 446.512 461.536 446.848C461.237 447.184 460.967 447.501 460.724 447.8C460.5 448.08 460.36 448.313 460.304 448.5H468.648V452H455.712C455.675 451.795 455.656 451.533 455.656 451.216C455.656 450.899 455.656 450.675 455.656 450.544C455.656 449.648 455.796 448.827 456.076 448.08C456.375 447.333 456.757 446.643 457.224 446.008C457.691 445.355 458.213 444.748 458.792 444.188C459.389 443.628 459.977 443.068 460.556 442.508C461.004 442.079 461.424 441.677 461.816 441.304C462.208 440.912 462.553 440.539 462.852 440.184C463.151 439.811 463.384 439.447 463.552 439.092C463.72 438.719 463.804 438.345 463.804 437.972C463.804 437.151 463.571 436.572 463.104 436.236C462.637 435.9 462.059 435.732 461.368 435.732C460.864 435.732 460.388 435.816 459.94 435.984C459.511 436.133 459.109 436.32 458.736 436.544C458.381 436.749 458.073 436.964 457.812 437.188C457.551 437.393 457.355 437.561 457.224 437.692L455.152 434.78C455.973 434.015 456.925 433.389 458.008 432.904C459.109 432.4 460.285 432.148 461.536 432.148C462.675 432.148 463.655 432.279 464.476 432.54C465.297 432.801 465.969 433.175 466.492 433.66C467.033 434.127 467.425 434.705 467.668 435.396C467.929 436.068 468.06 436.833 468.06 437.692ZM485.038 442.256C485.038 445.523 484.413 448.033 483.162 449.788C481.93 451.524 480.222 452.392 478.038 452.392C475.854 452.392 474.137 451.524 472.886 449.788C471.654 448.033 471.038 445.523 471.038 442.256C471.038 440.632 471.197 439.195 471.514 437.944C471.85 436.693 472.326 435.639 472.942 434.78C473.558 433.921 474.295 433.268 475.154 432.82C476.013 432.372 476.974 432.148 478.038 432.148C480.222 432.148 481.93 433.025 483.162 434.78C484.413 436.516 485.038 439.008 485.038 442.256ZM480.782 442.256C480.782 441.285 480.735 440.408 480.642 439.624C480.549 438.821 480.399 438.131 480.194 437.552C479.989 436.973 479.709 436.525 479.354 436.208C478.999 435.891 478.561 435.732 478.038 435.732C477.515 435.732 477.077 435.891 476.722 436.208C476.386 436.525 476.106 436.973 475.882 437.552C475.677 438.131 475.527 438.821 475.434 439.624C475.341 440.408 475.294 441.285 475.294 442.256C475.294 443.227 475.341 444.113 475.434 444.916C475.527 445.719 475.677 446.409 475.882 446.988C476.106 447.567 476.386 448.015 476.722 448.332C477.077 448.649 477.515 448.808 478.038 448.808C478.561 448.808 478.999 448.649 479.354 448.332C479.709 448.015 479.989 447.567 480.194 446.988C480.399 446.409 480.549 445.719 480.642 444.916C480.735 444.113 480.782 443.227 480.782 442.256ZM492.384 452.42C491.88 452.42 491.348 452.383 490.788 452.308C490.228 452.252 489.687 452.168 489.164 452.056C488.641 451.944 488.165 451.823 487.736 451.692C487.307 451.561 486.971 451.44 486.728 451.328L487.54 447.856C488.025 448.061 488.641 448.285 489.388 448.528C490.153 448.752 491.096 448.864 492.216 448.864C493.504 448.864 494.447 448.621 495.044 448.136C495.641 447.651 495.94 446.997 495.94 446.176C495.94 445.672 495.828 445.252 495.604 444.916C495.399 444.561 495.109 444.281 494.736 444.076C494.363 443.852 493.915 443.703 493.392 443.628C492.888 443.535 492.347 443.488 491.768 443.488H490.144V440.128H491.992C492.403 440.128 492.795 440.091 493.168 440.016C493.56 439.941 493.905 439.82 494.204 439.652C494.503 439.465 494.736 439.223 494.904 438.924C495.091 438.607 495.184 438.215 495.184 437.748C495.184 437.393 495.109 437.085 494.96 436.824C494.811 436.563 494.615 436.348 494.372 436.18C494.148 436.012 493.877 435.891 493.56 435.816C493.261 435.723 492.953 435.676 492.636 435.676C491.833 435.676 491.087 435.797 490.396 436.04C489.724 436.283 489.108 436.581 488.548 436.936L487.064 433.884C487.363 433.697 487.708 433.501 488.1 433.296C488.511 433.091 488.959 432.904 489.444 432.736C489.929 432.568 490.443 432.428 490.984 432.316C491.544 432.204 492.132 432.148 492.748 432.148C493.887 432.148 494.867 432.288 495.688 432.568C496.528 432.829 497.219 433.212 497.76 433.716C498.301 434.201 498.703 434.78 498.964 435.452C499.225 436.105 499.356 436.824 499.356 437.608C499.356 438.373 499.141 439.12 498.712 439.848C498.283 440.557 497.704 441.099 496.976 441.472C497.984 441.883 498.759 442.499 499.3 443.32C499.86 444.123 500.14 445.093 500.14 446.232C500.14 447.128 499.991 447.959 499.692 448.724C499.393 449.471 498.927 450.124 498.292 450.684C497.657 451.225 496.845 451.655 495.856 451.972C494.885 452.271 493.728 452.42 492.384 452.42ZM516.866 442.256C516.866 445.523 516.241 448.033 514.99 449.788C513.758 451.524 512.05 452.392 509.866 452.392C507.682 452.392 505.965 451.524 504.714 449.788C503.482 448.033 502.866 445.523 502.866 442.256C502.866 440.632 503.025 439.195 503.342 437.944C503.678 436.693 504.154 435.639 504.77 434.78C505.386 433.921 506.123 433.268 506.982 432.82C507.841 432.372 508.802 432.148 509.866 432.148C512.05 432.148 513.758 433.025 514.99 434.78C516.241 436.516 516.866 439.008 516.866 442.256ZM512.61 442.256C512.61 441.285 512.563 440.408 512.47 439.624C512.377 438.821 512.227 438.131 512.022 437.552C511.817 436.973 511.537 436.525 511.182 436.208C510.827 435.891 510.389 435.732 509.866 435.732C509.343 435.732 508.905 435.891 508.55 436.208C508.214 436.525 507.934 436.973 507.71 437.552C507.505 438.131 507.355 438.821 507.262 439.624C507.169 440.408 507.122 441.285 507.122 442.256C507.122 443.227 507.169 444.113 507.262 444.916C507.355 445.719 507.505 446.409 507.71 446.988C507.934 447.567 508.214 448.015 508.55 448.332C508.905 448.649 509.343 448.808 509.866 448.808C510.389 448.808 510.827 448.649 511.182 448.332C511.537 448.015 511.817 447.567 512.022 446.988C512.227 446.409 512.377 445.719 512.47 444.916C512.563 444.113 512.61 443.227 512.61 442.256Z" fill="url(#paint4_linear_282_93)"/>
</g>
<defs>
<filter id="filter0_d_282_93" x="18" y="301" width="260" height="260" filterUnits="userSpaceOnUse" color-interpolation-filters="sRGB">
<feFlood flood-opacity="0" result="BackgroundImageFix"/>
<feColorMatrix in="SourceAlpha" type="matrix" values="0 0 0 0 0 0 0 0 0 0 0 0 0 0 0 0 0 0 127 0" result="hardAlpha"/>
<feOffset/>
<feGaussianBlur stdDeviation="10"/>
<feComposite in2="hardAlpha" operator="out"/>
<feColorMatrix type="matrix" values="0 0 0 0 0 0 0 0 0 0 0 0 0 0 0 0 0 0 0.3 0"/>
<feBlend mode="normal" in2="BackgroundImageFix" result="effect1_dropShadow_282_93"/>
<feBlend mode="normal" in="SourceGraphic" in2="effect1_dropShadow_282_93" result="shape"/>
</filter>
<filter id="filter1_d_282_93" x="211" y="63" width="220" height="220" filterUnits="userSpaceOnUse" color-interpolation-filters="sRGB">
<feFlood flood-opacity="0" result="BackgroundImageFix"/>
<feColorMatrix in="SourceAlpha" type="matrix" values="0 0 0 0 0 0 0 0 0 0 0 0 0 0 0 0 0 0 127 0" result="hardAlpha"/>
<feOffset/>
<feGaussianBlur stdDeviation="10"/>
<feComposite in2="hardAlpha" operator="out"/>
<feColorMatrix type="matrix" values="0 0 0 0 0 0 0 0 0 0 0 0 0 0 0 0 0 0 0.3 0"/>
<feBlend mode="normal" in2="BackgroundImageFix" result="effect1_dropShadow_282_93"/>
<feBlend mode="normal" in="SourceGraphic" in2="effect1_dropShadow_282_93" result="shape"/>
</filter>
<filter id="filter2_d_282_93" x="541" y="78" width="220" height="220" filterUnits="userSpaceOnUse" color-interpolation-filters="sRGB">
<feFlood flood-opacity="0" result="BackgroundImageFix"/>
<feColorMatrix in="SourceAlpha" type="matrix" values="0 0 0 0 0 0 0 0 0 0 0 0 0 0 0 0 0 0 127 0" result="hardAlpha"/>
<feOffset/>
<feGaussianBlur stdDeviation="10"/>
<feComposite in2="hardAlpha" operator="out"/>
<feColorMatrix type="matrix" values="0 0 0 0 0 0 0 0 0 0 0 0 0 0 0 0 0 0 0.3 0"/>
<feBlend mode="normal" in2="BackgroundImageFix" result="effect1_dropShadow_282_93"/>
<feBlend mode="normal" in="SourceGraphic" in2="effect1_dropShadow_282_93" result="shape"/>
</filter>
<filter id="filter3_d_282_93" x="301" y="537" width="180" height="180" filterUnits="userSpaceOnUse" color-interpolation-filters="sRGB">
<feFlood flood-opacity="0" result="BackgroundImageFix"/>
<feColorMatrix in="SourceAlpha" type="matrix" values="0 0 0 0 0 0 0 0 0 0 0 0 0 0 0 0 0 0 127 0" result="hardAlpha"/>
<feOffset/>
<feGaussianBlur stdDeviation="10"/>
<feComposite in2="hardAlpha" operator="out"/>
<feColorMatrix type="matrix" values="0 0 0 0 0 0 0 0 0 0 0 0 0 0 0 0 0 0 0.3 0"/>
<feBlend mode="normal" in2="BackgroundImageFix" result="effect1_dropShadow_282_93"/>
<feBlend mode="normal" in="SourceGraphic" in2="effect1_dropShadow_282_93" result="shape"/>
</filter>
<filter id="filter4_d_282_93" x="391" y="315" width="190" height="190" filterUnits="userSpaceOnUse" color-interpolation-filters="sRGB">
<feFlood flood-opacity="0" result="BackgroundImageFix"/>
<feColorMatrix in="SourceAlpha" type="matrix" values="0 0 0 0 0 0 0 0 0 0 0 0 0 0 0 0 0 0 127 0" result="hardAlpha"/>
<feOffset/>
<feGaussianBlur stdDeviation="10"/>
<feComposite in2="hardAlpha" operator="out"/>
<feColorMatrix type="matrix" values="0 0 0 0 0 0 0 0 0 0 0 0 0 0 0 0 0 0 0.3 0"/>
<feBlend mode="normal" in2="BackgroundImageFix" result="effect1_dropShadow_282_93"/>
<feBlend mode="normal" in="SourceGraphic" in2="effect1_dropShadow_282_93" result="shape"/>
</filter>
<linearGradient id="paint0_linear_282_93" x1="212" y1="387" x2="80" y2="452" gradientUnits="userSpaceOnUse">
<stop stop-color="#FF2339"/>
<stop offset="1" stop-color="#F0A133"/>
</linearGradient>
<linearGradient id="paint1_linear_282_93" x1="373.364" y1="129" x2="257.915" y2="175.513" gradientUnits="userSpaceOnUse">
<stop stop-color="#FF2339"/>
<stop offset="1" stop-color="#F0A133"/>
</linearGradient>
<linearGradient id="paint2_linear_282_93" x1="703.364" y1="144" x2="587.915" y2="190.513" gradientUnits="userSpaceOnUse">
<stop stop-color="#FF2339"/>
<stop offset="1" stop-color="#F0A133"/>
</linearGradient>
<linearGradient id="paint3_linear_282_93" x1="265.467" y1="556" x2="443.712" y2="773.195" gradientUnits="userSpaceOnUse">
<stop stop-color="#FF2339"/>
<stop offset="1" stop-color="#F0A133"/>
</linearGradient>
<linearGradient id="paint4_linear_282_93" x1="351.5" y1="303.5" x2="621.5" y2="538.5" gradientUnits="userSpaceOnUse">
<stop stop-color="#FF2339"/>
<stop offset="1" stop-color="#F0A133"/>
</linearGradient>
</defs>
</svg>
